<svg
    xmlns="http://www.w3.org/2000/svg"
    width="24"
    height="24"
    viewBox="0 0 24 24"
    fill="none"
    stroke="currentColor"
    stroke-width="calc((100vw - 100vh) / 10)"
    stroke-linecap="round"
    stroke-linejoin="round"
>
    <path vector-effect="non-scaling-stroke" d="M14 3a1 1 0 0 1 1 1v5a1 1 0 0 1-1 1" />
    <path vector-effect="non-scaling-stroke" d="M19 3a1 1 0 0 1 1 1v5a1 1 0 0 1-1 1" />
    <path vector-effect="non-scaling-stroke" d="m7 15 3 3" />
    <path vector-effect="non-scaling-stroke" d="m7 21 3-3H5a2 2 0 0 1-2-2v-2" />
    <rect x="14" y="14" vector-effect="non-scaling-stroke" width="7" height="7" rx="1" />
    <rect x="3" y="3" vector-effect="non-scaling-stroke" width="7" height="7" rx="1" />
</svg>
