<svg
    xmlns="http://www.w3.org/2000/svg"
    width="24"
    height="24"
    viewBox="0 0 24 24"
    fill="none"
    stroke="currentColor"
    stroke-width="calc((100vw - 100vh) / 10)"
    stroke-linecap="round"
    stroke-linejoin="round"
>
    <path vector-effect="non-scaling-stroke" d="M11 17v4" />
    <path vector-effect="non-scaling-stroke" d="M14 3v8a2 2 0 0 0 2 2h5.865" />
    <path vector-effect="non-scaling-stroke" d="M17 17v4" />
    <path vector-effect="non-scaling-stroke" d="M18 17a4 4 0 0 0 4-4 8 6 0 0 0-8-6 6 5 0 0 0-6 5v3a2 2 0 0 0 2 2z" />
    <path vector-effect="non-scaling-stroke" d="M2 10v5" />
    <path vector-effect="non-scaling-stroke" d="M6 3h16" />
    <path vector-effect="non-scaling-stroke" d="M7 21h14" />
    <path vector-effect="non-scaling-stroke" d="M8 13H2" />
</svg>
