<!-- @license lucide-static v0.395.0 - ISC -->
<svg
    xmlns="http://www.w3.org/2000/svg"
    class="lucide lucide-sofa"
    width="24"
    height="24"
    viewBox="0 0 24 24"
    fill="currentColor"
    stroke="currentColor"
    stroke-width="2"
    stroke-linecap="round"
    stroke-linejoin="round"
>
    <path vector-effect="non-scaling-stroke" d="M20 9V6a2 2 0 0 0-2-2H6a2 2 0 0 0-2 2v3" />
    <path
        vector-effect="non-scaling-stroke"
        d="M2 11v5a2 2 0 0 0 2 2h16a2 2 0 0 0 2-2v-5a2 2 0 0 0-4 0v2H6v-2a2 2 0 0 0-4 0Z"
    />
    <path vector-effect="non-scaling-stroke" d="M4 18v2" />
    <path vector-effect="non-scaling-stroke" d="M20 18v2" />
    <path vector-effect="non-scaling-stroke" d="M12 4v9" />
</svg>
