<svg xmlns="http://www.w3.org/2000/svg" width="24" height="24" focusable="false"><g id="tuiIconPiechartLarge" xmlns="http://www.w3.org/2000/svg" transform="translate(-12,-12)"><svg x="50%" y="50%"><svg width="24" height="24" viewBox="0 0 24 24" fill="none" xmlns="http://www.w3.org/2000/svg"><path fill-rule="evenodd" clip-rule="evenodd" d="M9.78 2.248a1 1 0 0 1 .442 1.95 8.013 8.013 0 0 0-6.02 6.008 1 1 0 0 1-1.95-.447A10.013 10.013 0 0 1 9.78 2.248zm-7.514 12.05a1 1 0 0 1 1.946-.458c.69 2.935 3.001 5.25 5.935 5.945a1 1 0 1 1-.461 1.946 10.014 10.014 0 0 1-7.42-7.433zm12.238 7.386a1 1 0 0 1-.5-1.937A8.004 8.004 0 0 0 19.25 8.614a1 1 0 1 1 1.812-.848 10.003 10.003 0 0 1-6.558 13.918zM18.582 4.47a1 1 0 1 1-1.317 1.506 7.976 7.976 0 0 0-3.368-1.751 1 1 0 1 1 .472-1.943 9.975 9.975 0 0 1 4.213 2.188z" fill="currentColor"/></svg></svg></g></svg>