<svg xmlns="http://www.w3.org/2000/svg" width="1em" height="1em">
    <g id="tuiIconPhoneOff" xmlns="http://www.w3.org/2000/svg">
        <svg x="50%" y="50%" width="1em" height="1em" overflow="visible" viewBox="0 0 16 16">
            <svg x="-8" y="-8">
                <svg
                    xmlns="http://www.w3.org/2000/svg"
                    width="16"
                    height="16"
                    viewBox="0 0 24 24"
                    stroke="currentColor"
                    stroke-width="3"
                    stroke-linecap="round"
                    stroke-linejoin="round"
                >
                    <path
                        d="M10.68 13.31a16 16 0 0 0 3.41 2.6l1.27-1.27a2 2 0 0 1 2.11-.45 12.84 12.84 0 0 0 2.81.7 2 2 0 0 1 1.72 2v3a2 2 0 0 1-2.18 2 19.79 19.79 0 0 1-8.63-3.07 19.42 19.42 0 0 1-3.33-2.67m-2.67-3.34a19.79 19.79 0 0 1-3.07-8.63A2 2 0 0 1 4.11 2h3a2 2 0 0 1 2 1.72 12.84 12.84 0 0 0 .7 2.81 2 2 0 0 1-.45 2.11L8.09 9.91"
                    />
                    <line x1="23" y1="1" x2="1" y2="23" />
                </svg>
            </svg>
        </svg>
    </g>
</svg>
