<svg xmlns="http://www.w3.org/2000/svg" width="2em" focusable="false" height="2em">
    <g id="tuiIconMaestro" xmlns="http://www.w3.org/2000/svg">
        <svg
            x="50%"
            y="50%"
            width="2em"
            height="2em"
            overflow="visible"
            viewBox="0 0 32 32"
            xmlns="http://www.w3.org/2000/svg"
        >
            <svg x="-16" y="-16">
                <g transform="translate(3, 8)">
                    <path
                        d="M13.3333333,15.6337509 C15.5666403,14.1388225 17.037037,11.5929779 17.037037,8.7037037 C17.037037,5.81442953 15.5666403,3.26858493 13.3333333,1.77365652 C14.6574982,0.887288573 16.2498642,0.37037037 17.962963,0.37037037 C22.5653359,0.37037037 26.2962963,4.10133079 26.2962963,8.7037037 C26.2962963,13.3060766 22.5653359,17.037037 17.962963,17.037037 C16.2498642,17.037037 14.6574982,16.5201188 13.3333333,15.6337509 Z"
                        fill="#0AADFC"
                    />
                    <path
                        d="M13.3333333,1.77365652 C11.1000264,3.26858493 9.62962963,5.81442953 9.62962963,8.7037037 C9.62962963,11.5929779 11.1000264,14.1388225 13.3333333,15.6337509 C12.0091685,16.5201188 10.4168024,17.037037 8.7037037,17.037037 C4.10133079,17.037037 0.37037037,13.3060766 0.37037037,8.7037037 C0.37037037,4.10133079 4.10133079,0.37037037 8.7037037,0.37037037 C10.4168024,0.37037037 12.0091685,0.887288573 13.3333333,1.77365652 Z"
                        fill="#F03727"
                    />
                    <path
                        d="M13.3333333,1.77365652 C15.5666403,3.26858493 17.037037,5.81442953 17.037037,8.7037037 C17.037037,11.5929779 15.5666403,14.1388225 13.3333333,15.6337509 C11.1000264,14.1388225 9.62962963,11.5929779 9.62962963,8.7037037 C9.62962963,5.81442953 11.1000264,3.26858493 13.3333333,1.77365652 Z"
                        fill="#726ECC"
                    />
                </g>
            </svg>
        </svg>
    </g>
</svg>
