<svg xmlns="http://www.w3.org/2000/svg" width="1em" height="1em">
    <g id="tuiIconHardDrive" xmlns="http://www.w3.org/2000/svg">
        <svg x="50%" y="50%" width="1em" height="1em" overflow="visible" viewBox="0 0 16 16">
            <svg x="-8" y="-8">
                <svg
                    xmlns="http://www.w3.org/2000/svg"
                    width="16"
                    height="16"
                    viewBox="0 0 24 24"
                    stroke="currentColor"
                    stroke-width="3"
                    stroke-linecap="round"
                    stroke-linejoin="round"
                >
                    <line x1="22" y1="12" x2="2" y2="12" />
                    <path
                        d="M5.45 5.11L2 12v6a2 2 0 0 0 2 2h16a2 2 0 0 0 2-2v-6l-3.45-6.89A2 2 0 0 0 16.76 4H7.24a2 2 0 0 0-1.79 1.11z"
                    />
                    <line x1="6" y1="16" x2="6.01" y2="16" />
                    <line x1="10" y1="16" x2="10.01" y2="16" />
                </svg>
            </svg>
        </svg>
    </g>
</svg>
