<svg xmlns="http://www.w3.org/2000/svg" width="1em" height="1em"><g
        id="tuiIconMicOff"
        xmlns="http://www.w3.org/2000/svg"
    >
            <svg x="50%" y="50%" width="1em" height="1em" overflow="visible" viewBox="0 0 16 16">
                <svg x="-8" y="-8"><svg
                    xmlns="http://www.w3.org/2000/svg"
                    width="16"
                    height="16"
                    viewBox="0 0 24 24"
                    stroke="currentColor"
                    stroke-width="3"
                    stroke-linecap="round"
                    stroke-linejoin="round"
                ><line x1="1" y1="1" x2="23" y2="23" /><path
                        d="M9 9v3a3 3 0 0 0 5.12 2.12M15 9.34V4a3 3 0 0 0-5.94-.6"
                    /><path d="M17 16.95A7 7 0 0 1 5 12v-2m14 0v2a7 7 0 0 1-.11 1.23" /><line
                        x1="12"
                        y1="19"
                        x2="12"
                        y2="23"
                    /><line x1="8" y1="23" x2="16" y2="23" /></svg></svg>
            </svg>
        </g></svg>
