<svg xmlns="http://www.w3.org/2000/svg" width="16" height="16" focusable="false"><g id="tuiIconFolder" xmlns="http://www.w3.org/2000/svg" transform="translate(-8,-8)"><svg x="50%" y="50%"><svg width="16" height="16" viewBox="0 0 16 16" fill="none" xmlns="http://www.w3.org/2000/svg"><path d="M15 12.667c0 .353-.148.692-.41.943-.263.25-.619.39-.99.39H2.4c-.371 0-.727-.14-.99-.39-.262-.25-.41-.59-.41-.943V3.333c0-.353.147-.692.41-.942S2.029 2 2.4 2h3.5l1.4 2h6.3c.371 0 .727.14.99.39.262.25.41.59.41.943v7.334z" stroke="currentColor" stroke-width="2" stroke-linecap="round" stroke-linejoin="round"/></svg></svg></g></svg>