<svg xmlns="http://www.w3.org/2000/svg" width="24" height="24">
    <g id="tuiIconTableLarge"
        xmlns="http://www.w3.org/2000/svg" transform="translate(-12,-12)">
        <svg x="50%" y="50%">
            <svg width="24" height="24" viewBox="0 0 24 24" fill="none"
                xmlns="http://www.w3.org/2000/svg">
                <path fill-rule="evenodd" clip-rule="evenodd" d="M20 4H13V11H20V4ZM13 13V20H20V13H13ZM11 20V13H4V20H11ZM11 11V4H4V11H11ZM4 2C2.89543 2 2 2.89543 2 4V20C2 21.1046 2.89543 22 4 22H20C21.1046 22 22 21.1046 22 20V4C22 2.89543 21.1046 2 20 2H4Z" fill="currentColor"/>
            </svg>
        </svg>
    </g>
</svg>
