<!-- @license lucide-static v0.399.0 - ISC -->
<svg
    xmlns="http://www.w3.org/2000/svg"
    class="lucide lucide-view"
    width="24"
    height="24"
    viewBox="0 0 24 24"
    fill="currentColor"
    stroke="currentColor"
    stroke-width="2"
    stroke-linecap="round"
    stroke-linejoin="round"
>
    <path vector-effect="non-scaling-stroke" d="M5 12s2.545-5 7-5c4.454 0 7 5 7 5s-2.546 5-7 5c-4.455 0-7-5-7-5z" />
    <path vector-effect="non-scaling-stroke" d="M12 13a1 1 0 1 0 0-2 1 1 0 0 0 0 2z" />
    <path vector-effect="non-scaling-stroke" d="M21 17v2a2 2 0 0 1-2 2H5a2 2 0 0 1-2-2v-2" />
    <path vector-effect="non-scaling-stroke" d="M21 7V5a2 2 0 0 0-2-2H5a2 2 0 0 0-2 2v2" />
</svg>
