<svg focusable="false" height="1em" width="1em" xmlns="http://www.w3.org/2000/svg">
    <g id="tuiIconExpand" xmlns="http://www.w3.org/2000/svg">
        <svg
            fill="none"
            height="1em"
            overflow="visible"
            viewBox="0 0 16 16"
            width="1em"
            x="50%"
            xmlns="http://www.w3.org/2000/svg"
            y="50%"
        >
            <svg x="-8" y="-8">
                <path
                    clip-rule="evenodd"
                    d="M13.293 6.293c.63.63 1.707.184 1.707-.707V2a1 1 0 0 0-1-1h-3.586c-.89 0-1.337 1.077-.707 1.707l1.088 1.088-7 7-1.088-1.088C2.077 9.077 1 9.523 1 10.414V14a1 1 0 0 0 1 1h3.586c.89 0 1.337-1.077.707-1.707l-1.088-1.088 7-7 1.088 1.088z"
                    fill="currentColor"
                    fill-rule="evenodd"
                />
            </svg>
        </svg>
    </g>
</svg>
