<svg xmlns="http://www.w3.org/2000/svg" focusable="false" height="1.5em" width="1.5em">
    <g id="tuiIconUnlinkLarge" xmlns="http://www.w3.org/2000/svg">
        <svg x="50%" y="50%" fill="none" height="1.5em" overflow="visible" viewBox="0 0 24 24" width="1.5em">
            <svg x="-12" y="-12" xmlns="http://www.w3.org/2000/svg">
                <path
                    vector-effect="non-scaling-stroke"
                    clip-rule="evenodd"
                    d="M16.996 1.06663C15.4228 1.05296 13.9072 1.65773 12.7756 2.75068L12.7653 2.7608L11.0453 4.4708C10.6536 4.86018 10.6518 5.49335 11.0411 5.88501C11.4305 6.27667 12.0637 6.27851 12.4553 5.88913L14.1699 4.1845C14.9238 3.45887 15.9321 3.05746 16.9786 3.06656C18.0274 3.07567 19.0307 3.49635 19.7723 4.23798C20.5139 4.97961 20.9346 5.98286 20.9437 7.03165C20.9528 8.0777 20.5518 9.08557 19.8267 9.83934L16.8332 12.8328C16.4276 13.2384 15.9396 13.552 15.4022 13.7524C14.8648 13.9528 14.2905 14.0353 13.7184 13.9943C13.1463 13.9534 12.5897 13.7899 12.0863 13.5149C11.583 13.24 11.1446 12.86 10.8009 12.4008C10.47 11.9586 9.84331 11.8684 9.40114 12.1993C8.95897 12.5302 8.86877 13.157 9.19968 13.5991C9.71513 14.2879 10.3726 14.8578 11.1276 15.2702C11.8826 15.6825 12.7175 15.9278 13.5756 15.9892C14.4336 16.0507 15.2949 15.9269 16.101 15.6263C16.907 15.3258 17.6391 14.8554 18.2474 14.2471L21.2474 11.2471L21.2596 11.2347C22.3525 10.1031 22.9573 8.58745 22.9436 7.01427C22.93 5.44109 22.299 3.93621 21.1865 2.82377C20.0741 1.71132 18.5692 1.0803 16.996 1.06663ZM10.425 8.0102C9.56681 7.94874 8.70546 8.07256 7.89935 8.37326C7.0933 8.67395 6.3612 9.14458 5.75296 9.753L2.75309 12.7529L2.74091 12.7653C1.64796 13.8969 1.0432 15.4125 1.05687 16.9857C1.07054 18.5589 1.70155 20.0637 2.814 21.1762C3.92645 22.2886 5.43132 22.9196 7.0045 22.9333C8.57768 22.947 10.0933 22.3422 11.2249 21.2493L11.2373 21.2371L12.9473 19.5271C13.3378 19.1366 13.3378 18.5034 12.9473 18.1129C12.5568 17.7223 11.9236 17.7223 11.5331 18.1129L9.82957 19.8164C9.0758 20.5414 8.06793 20.9425 7.02188 20.9334C5.9731 20.9243 4.96985 20.5036 4.22821 19.762C3.48658 19.0203 3.06591 18.0171 3.05679 16.9683C3.0477 15.9222 3.44875 14.9144 4.17379 14.1606L7.16743 11.167C7.57294 10.7613 8.06095 10.4476 8.59836 10.2471C9.13577 10.0467 9.71 9.96412 10.2821 10.0051C10.8542 10.0461 11.4108 10.2096 11.9142 10.4846C12.4175 10.7596 12.8559 11.1397 13.1994 11.599C13.5302 12.0412 14.1569 12.1316 14.5992 11.8007C15.0414 11.4699 15.1318 10.8433 14.801 10.401C14.2856 9.71205 13.6281 9.14198 12.8731 8.72948C12.1181 8.31697 11.2832 8.07166 10.425 8.0102ZM17.2929 17.2929C17.6834 16.9024 18.3166 16.9024 18.7071 17.2929L20.5 19.0858L22.2929 17.2929C22.6834 16.9024 23.3166 16.9024 23.7071 17.2929C24.0976 17.6834 24.0976 18.3166 23.7071 18.7071L21.9142 20.5L23.7071 22.2929C24.0976 22.6834 24.0976 23.3166 23.7071 23.7071C23.3166 24.0976 22.6834 24.0976 22.2929 23.7071L20.5 21.9142L18.7071 23.7071C18.3166 24.0976 17.6834 24.0976 17.2929 23.7071C16.9024 23.3166 16.9024 22.6834 17.2929 22.2929L19.0858 20.5L17.2929 18.7071C16.9024 18.3166 16.9024 17.6834 17.2929 17.2929Z"
                    fill="currentColor"
                    stroke="none"
                    fill-rule="evenodd"
                />
            </svg>
        </svg>
    </g>
</svg>
