<svg xmlns="http://www.w3.org/2000/svg" height="1.5em" width="1.5em">
    <g id="tuiIconSpoilerLarge" xmlns="http://www.w3.org/2000/svg">
        <svg x="50%" y="50%" height="1.5em" overflow="visible" viewBox="0 0 24 24" width="1.5em">
            <svg x="-12" y="-12">
                <svg xmlns="http://www.w3.org/2000/svg" fill="none" height="24" viewBox="0 0 24 24" width="24">
                    <path
                        vector-effect="non-scaling-stroke"
                        d="M5 2C3.34315 2 2 3.34315 2 5V19C2 20.6569 3.34315 22 5 22H19C20.6569 22 22 20.6569 22 19V5C22 3.34315 20.6569 2 19 2H5ZM4 5C4 4.44772 4.44772 4 5 4H19C19.5523 4 20 4.44772 20 5V19C20 19.5523 19.5523 20 19 20H5C4.44772 20 4 19.5523 4 19V5ZM9.70711 10.2929C9.31658 9.90237 8.68342 9.90237 8.29289 10.2929C7.90237 10.6834 7.90237 11.3166 8.29289 11.7071L11.2929 14.7071C11.6834 15.0976 12.3166 15.0976 12.7071 14.7071L15.7071 11.7071C16.0976 11.3166 16.0976 10.6834 15.7071 10.2929C15.3166 9.90237 14.6834 9.90237 14.2929 10.2929L12 12.5858L9.70711 10.2929Z"
                        fill="currentColor"
                        stroke="none"
                    />
                </svg>
            </svg>
        </svg>
    </g>
</svg>
