<svg xmlns="http://www.w3.org/2000/svg" width="600" height="632" viewBox="100 0 391 632">
    <path
        d="M.00049707 312.601c.26827993.238.54148893.472.80764793.712C22.6808 333.048 39.3038 365.695 45.2769 400.645c1.5411 9.032 2.3139 18.145 2.2948 27.087-.0035 2.361-.0638 4.726-.1731 7.033-.6745 13.725-.4673 28.754 10.6462 33.381 8.14 3.393 17.3202-1.676 23.5873-6.527 1.1079-.857 2.2081-1.745 3.32-2.635 5.9204-4.76 12.0405-9.683 19.6119-10.718 6.892-.941 13.528 1.555 19.946 3.972 2.171.817 4.417 1.662 6.618 2.351 8.502 2.66 19.495 2.128 23.527-5.335 2.766-5.124 1.149-10.889-.561-16.991-1.101-3.926-2.239-7.986-2.194-11.996.087-7.361 4.112-13.691 8.004-19.814 2.103-3.304 4.274-6.719 5.8-10.253 6.117-14.152 2.277-32.777-9.786-47.45-10.997-13.384-26.328-22.136-41.149-30.598-14.219-8.119-30.3369-17.321-41.5333-31.006-5.0008-6.117-8.856-13.554-12.5831-20.744-4.2246-8.155-8.5923-16.587-14.5956-22.913-9.0334-9.525-23.384-14.999-37.25956-20.292-3.02756-1.154-5.96913-2.277-8.79695157-3.418l-1.5e-7-1.663C2.99295 213.333 6.12154 214.528 9.34741 215.758c14.03809 5.353 28.55829 10.891 37.83239 20.67 6.1503 6.486 10.571 15.016 14.8445 23.265 3.6894 7.122 7.507 14.485 12.4096 20.478 11.0119 13.463 26.9981 22.59 41.1041 30.641 14.942 8.534 30.393 17.357 41.57 30.959 12.429 15.116 16.356 34.363 10.013 49.039-1.575 3.648-3.78 7.114-5.912 10.469-3.95 6.213-7.684 12.084-7.764 19.007-.045 3.788 1.063 7.739 2.133 11.561 1.719 6.128 3.498 12.466.434 18.137-4.436 8.231-16.247 8.921-25.344 6.076-2.246-.702-4.511-1.554-6.7-2.38-6.241-2.348-12.719-4.776-19.193-3.886-7.1455.977-13.0998 5.762-18.8581 10.391-1.1155.895-2.2275 1.789-3.3429 2.653-6.5834 5.097-16.2874 10.411-25.1247 6.731-13.0431-5.431-12.1008-24.588-11.596-34.879.1133-2.282.1698-4.623.1736-6.962.0188-8.855-.7464-17.88-2.2725-26.823-5.8921-34.5-22.2416-66.707-43.75390275-86.239l-1.8e-7-2.065ZM179.381 632c-2.764-1.583-5.599-2.901-8.495-3.81-7.281-2.285-15.029-2.565-22.529-2.836-4.529-.164-9.214-.333-13.774-.939-7.371-.979-13.016-2.809-17.768-5.762-1.591-.988-3.509-2.7-5.732-4.683-6.098-5.436-13.6841-12.19-19.1937-8.458-2.0426 1.385-2.9659 3.795-3.3804 5.571-1.0364 4.443-.2826 9.461 2.3667 15.793.7278 1.738 1.3675 3.43 1.9963 5.124h-1.6548c-.5658-1.5-1.1216-2.992-1.7661-4.529-2.7812-6.644-3.5575-11.964-2.442-16.738.4748-2.043 1.5564-4.83 4.0135-6.497 6.5083-4.407 14.9345 3.095 21.0855 8.584 2.17 1.934 4.047 3.605 5.521 4.524 4.56 2.833 10.013 4.593 17.158 5.543 4.488.596 9.135.764 13.627.926 7.601.275 15.455.559 22.932 2.905 3.785 1.188 7.473 3.015 11.023 5.282h-2.988Zm99.222 0-15.467-19.073c-1.722-2.124-3.768-4.38-6.293-4.38-.042 0-.087.002-.132.002-2.631.081-4.583 2.796-4.952 5.376-.373 2.566.347 5.235 1.044 7.814l.196.736c.841 3.159 1.492 6.341 2.046 9.525h-1.559c-.539-3.053-1.173-6.103-1.98-9.13l-.196-.73c-.734-2.73-1.496-5.556-1.081-8.435.452-3.165 2.864-6.586 6.436-6.695 3.17-.168 5.536 2.318 7.669 4.946L280.589 632h-1.986Z"
    />
    <path
        d="M.00024978 66.2169C.183721 62.2932.600835 58.3763 1.26368 54.4858c.51629-3.0333 1.17224-6.1249 1.80889-9.1148 2.06159-9.7189 4.19434-19.7651 1.88446-29.3484C3.92987 11.7584 2.1601 8.05711.00024439 4.57085l-2.5e-7-2.81308C2.78876 5.91963 5.19257 10.412 6.45691 15.6613c2.39307 9.922.22235 20.1432-1.87317 30.0277-.63311 2.9767-1.28485 6.0533-1.79736 9.0564C-5.6137 104.026 25.9667 157.612 73.1865 174.201c7.1902 2.525 14.7953 4.347 22.1515 6.106 10.646 2.55 21.658 5.186 31.727 10.022 4.805 2.307 10.187 5.218 13.164 10.569 1.824 3.28 3.459 6.739 5.042 10.084 1.395 2.947 2.838 5.993 4.394 8.891 6.791 12.641 14.483 24.987 22.857 36.698 17.489 24.462 38.054 44.255 63.56 66.448 12.134 10.558 20.938 20.107 27.698 30.052 14.615 21.485 22.231 53.917 6.316 77.939-2.212 3.338-4.85 6.668-7.638 10.193-8.823 11.143-17.946 22.664-15.353 36.35.946 4.994 3.813 9.304 6.847 13.868 2.457 3.693 4.997 7.511 6.474 11.773 1.945 5.622 2.736 11.2 3.505 16.595 1.191 8.367 2.318 16.27 7.488 23.784 8.751 12.718 18.357 14.193 30.514 16.06 4.217.649 8.581 1.319 13.296 2.516 5.588 1.417 11.064 3.652 16.359 5.814 8.147 3.325 16.574 6.765 25.483 7.227 14.701.747 24.126-7.528 34.079-16.306 5.358-4.723 10.894-9.608 17.395-13.074 10.141-5.408 21.707-7.57 31.686-8.972 1.794-.252 3.595-.491 5.393-.73 6.625-.882 13.472-1.795 20.064-3.342 4.281-1.001 8.226-2.847 12.04-4.632 3.162-1.479 6.433-3.009 9.87-4.048 14.222-4.296 33.483-.547 46.255 5.081 1.993.88 3.983 1.797 5.981 2.715 9.006 4.149 18.322 8.439 28.2 9.226 9.583.762 17.097-2.604 25.057-6.166 4.511-2.019 9.172-4.106 14.301-5.429 7.24-1.865 14.75-.719 22.461.723 8.475 1.588 16.664 3.387 23.662 7.891 9.12 5.873 13.579 12.101 13.251 18.516-.713 13.885-23.369 25.38-38.36 32.986-3.309 1.678-6.162 3.127-8.31 4.361-7.597 4.369-14.189 12.141-11.773 19.649 2.329 7.255 11.754 9.905 19.83 8.74 44.597-6.33 90.487-23.242 125.907-46.402 14.577-9.531 33.631-24.358 30.804-42.983-1.172-7.732-2.634-17.355 2.955-23.739 3.991-4.556 11.053-6.462 19.363-5.224 2.864.428 5.705 1.139 8.456 1.827 3.659.917 7.443 1.863 11.23 2.115 4.892.332 9.93-.5 14.796-1.3 5.905-.969 12.021-1.97 18.032-.958 12.357 2.095 20.58 11.906 24.383 17.568 4.631 6.896 7.816 14.712 10.894 22.271.701 1.72 1.402 3.438 2.118 5.147 10.036 23.917 23.535 46.166 40.12 66.125 4.149 4.996 9.105 10.611 15.47 13.994.836.444 1.685.837 2.541 1.18h-3.548c-6.468-3.529-11.474-9.158-15.654-14.19-16.679-20.077-30.257-42.456-40.353-66.515-.72-1.712-1.421-3.436-2.122-5.161-3.052-7.486-6.203-15.227-10.748-21.993-3.663-5.457-11.569-14.909-23.357-16.905-5.766-.977-11.743.007-17.524.958-4.948.814-10.028 1.655-15.153 1.319-3.923-.264-7.775-1.227-11.498-2.159-2.717-.679-5.521-1.383-8.31-1.798-3.685-.544-12.805-1.188-17.976 4.715-5.113 5.844-3.712 15.076-2.589 22.493 2.959 19.502-16.551 34.738-31.486 44.504-35.601 23.276-81.72 40.277-126.532 46.639-8.713 1.234-18.93-1.726-21.519-9.798-2.675-8.326 4.334-16.775 12.474-21.455 2.182-1.255 5.054-2.711 8.378-4.399 14.674-7.446 36.852-18.698 37.519-31.691.298-5.822-3.923-11.589-12.545-17.142-6.761-4.352-14.792-6.112-23.113-7.67-7.522-1.413-14.852-2.536-21.789-.745-5.001 1.289-9.603 3.349-14.057 5.342-8.144 3.647-15.877 7.094-25.807 6.294-10.156-.807-19.596-5.156-28.728-9.361-1.986-.915-3.968-1.827-5.958-2.704-12.507-5.513-31.335-9.203-45.185-5.017-3.327 1.007-6.545 2.512-9.658 3.969-3.889 1.818-7.907 3.699-12.342 4.738-6.667 1.562-13.552 2.48-20.211 3.368-1.798.239-3.595.478-5.385.73-9.844 1.381-21.247 3.51-31.174 8.803-6.338 3.381-11.81 8.206-17.101 12.87-9.749 8.596-19.849 17.513-35.183 16.691-9.169-.476-17.716-3.967-25.984-7.341-5.246-2.141-10.673-4.356-16.152-5.746-4.647-1.18-8.969-1.844-13.153-2.486-12.033-1.848-22.422-3.443-31.554-16.711-5.373-7.811-6.523-15.889-7.74-24.441-.757-5.321-1.541-10.825-3.441-16.307-1.409-4.075-3.893-7.812-6.297-11.423-2.988-4.492-6.075-9.136-7.077-14.436-2.725-14.376 7.039-26.711 15.658-37.592 2.77-3.498 5.385-6.803 7.56-10.088 15.522-23.427 8.019-55.163-6.301-76.223-6.689-9.831-15.406-19.287-27.443-29.754-25.581-22.266-46.225-42.131-63.801-66.715-8.412-11.764-16.133-24.168-22.954-36.864-1.58-2.933-3.03-5.999-4.432-8.962-1.572-3.323-3.196-6.759-4.997-9.994-2.759-4.956-7.892-7.724-12.485-9.929-9.919-4.765-20.848-7.38-31.4188-9.911-7.3901-1.769-15.0365-3.6-22.3022-6.153C31.457 161.177 1.99006 118.907.0002506 75.5447l-8.2e-7-9.3278ZM248.551 15.5784c-3.098.1638-6.116-1.2061-8.803-4.1509-3.277-3.59091-5.794-7.51726-8.119-11.42737491l1.795-1.6e-7C235.578 3.57858 237.925 7.14365 240.886 10.3888c2.359 2.5854 4.933 3.8067 7.571 3.6504 5.133-.3104 9.847-5.49065 12.862-9.71874.837-1.46324 1.777-2.90532 2.798-4.32033775l2.007-1.8e-7C264.806 1.7296 263.588 3.45676 262.619 5.14837c-3.248 4.56682-8.328 10.08203-14.068 10.43003Z"
    />
    <path
        d="M86.0662 35.447c2.6568-4.2845 5.4041-8.7158 7.5069-13.3579 1.7562-3.8706 3.1167-7.999 4.4281-11.99 1.0976-3.33854 2.2378-6.78622 3.6068-10.0989177l1.7-1.5e-7c-.059.13690085-.143.25520885-.2.39326585C101.724 3.7127 100.579 7.2032 99.4672 10.5789c-1.3266 4.0324-2.6946 8.2003-4.4846 12.1462-2.1443 4.7324-4.9217 9.207-7.6012 13.5329-2.3214 3.7408-4.722 7.6095-6.6816 11.6043-5.1704 10.5204-5.2873 22.183-.3278 31.9978 5.1327 10.1554 14.9987 17.2342 27.069 19.4226 11.374 2.0623 23.188.4328 34.607-1.1422 3.003-.4159 6.003-.8298 8.995-1.1798 24.756-2.8997 52.975 2.5797 57.912 26.6553.874 4.272 1.153 8.703 1.424 12.988.392 6.166.795 12.543 3.007 18.327 1.602 4.185 4.059 7.77 6.437 11.237 3.682 5.378 7.164 10.457 7.711 17.528 1.13 14.491 2.683 28.564 9.199 41.416 3.632 7.165 8.931 14.127 16.204 21.287 1.741 1.716 4.04 3.302 6.471 4.981 5.084 3.507 10.337 7.133 11.426 12.577.411 2.051.486 4.149.558 6.177.053 1.536.109 3.124.313 4.65 1.567 11.681 11.535 19.823 20.342 23.549 4.421 1.869 9.026 2.798 13.477 3.696 5.17 1.044 10.514 2.122 15.639 4.672 13.91 6.919 29.221 16.082 37.312 31.589 2.035 3.903 3.743 8.026 5.393 12.015 1.387 3.353 2.819 6.821 4.44 10.123 4.243 8.652 9.153 14.538 15.01 17.993 7.247 4.279 16.28 4.215 21.967-.143 6.64-5.086 4.816-11.507 2.886-18.303-1.733-6.106-3.527-12.421 1.711-17.246 2.57-2.363 6.241-2.689 9.478-2.809 38.797-1.457 77.775 12.362 106.963 37.915 4.797 4.2 9.466 8.809 13.981 13.264 12.067 11.906 24.541 24.217 40.523 29.75 12.836 4.442 24.714 3.125 37.294 1.731 4.349-.482 8.848-.983 13.438-1.238 11.453-.648 23.67 1.004 35.496 2.596 2.845.382 5.661.762 8.423 1.101l3.482.433c22.607 2.809 45.98 5.72 67.736-.732 18.816-5.579 34.448-19.545 39.818-35.581 9.938-29.672-11.637-60.153-37.429-77.199-2.928-1.934-5.917-3.692-8.89-5.225-19.159-9.881-39.977-16.956-60.104-23.8-18.436-6.266-37.497-12.746-55.334-21.381-41.413-20.051-65.637-43.585-74.059-71.951-4.455-14.993-3.419-31.302-2.416-47.072.55-8.71 1.123-17.718.727-26.253-1.251-27.2918-5.886-52.1769-13.766-73.9648-5.901-16.3204-18.448-31.2794-34.353-42.3130526l2.649-2.4e-7C518.861 11.0874 530.913 25.7941 536.697 41.7901c7.933 21.9328 12.595 46.9702 13.857 74.4159.396 8.62-.177 17.671-.734 26.423-.992 15.636-2.017 31.806 2.355 46.537 8.294 27.926 32.255 51.15 73.253 70.999 17.753 8.596 36.769 15.059 55.16 21.312 20.184 6.861 41.055 13.956 60.316 23.888 3.022 1.558 6.059 3.344 9.033 5.308 26.282 17.373 48.237 48.53 38.039 78.976-5.524 16.496-21.556 30.851-40.843 36.57-9.836 2.916-19.966 3.951-30.19 3.951-12.707 0-25.562-1.599-38.175-3.168l-3.479-.431c-2.766-.343-5.588-.721-8.437-1.105-11.758-1.584-23.9-3.223-35.21-2.585-4.545.254-9.022.751-13.352 1.23-12.749 1.413-24.797 2.755-37.968-1.806-16.31-5.647-28.912-18.083-41.1-30.109-4.503-4.44-9.153-9.034-13.917-13.201-28.897-25.296-67.517-38.943-105.885-37.536-2.966.111-6.308.397-8.49 2.403-4.541 4.183-2.955 9.773-1.274 15.693 1.892 6.667 4.04 14.224-3.429 19.946-6.177 4.728-15.919 4.834-23.693.248-6.128-3.615-11.234-9.711-15.613-18.643-1.64-3.346-3.083-6.837-4.481-10.214-1.636-3.955-3.328-8.046-5.336-11.89-7.884-15.116-22.939-24.112-36.627-30.92-4.944-2.459-10.186-3.519-15.259-4.542-4.526-.913-9.21-1.858-13.774-3.788-9.199-3.891-19.615-12.44-21.269-24.765-.215-1.599-.272-3.225-.328-4.798-.068-1.966-.14-4-.528-5.931-.965-4.83-5.958-8.278-10.785-11.61-2.491-1.718-4.843-3.342-6.682-5.15-7.39-7.28-12.79-14.374-16.499-21.69-6.64-13.104-8.215-27.341-9.357-41.991-.516-6.661-3.885-11.575-7.447-16.777-2.427-3.542-4.936-7.203-6.602-11.559-2.299-6.003-2.71-12.498-3.105-18.779-.268-4.232-.547-8.611-1.402-12.777-4.722-23.049-32.135-28.2589-56.216-25.4326-2.981.3481-5.973.7621-8.965 1.1741-11.536 1.5935-23.474 3.2365-35.096 1.1325-12.546-2.2746-22.8152-9.6546-28.1703-20.2446-5.178-10.2494-5.065-22.4125.3203-33.3695 1.9973-4.0644 4.4167-7.9651 6.7532-11.7379ZM374.813 465.702c8.471 0 16.792-4.415 21.518-11.836 1.195-1.874 2.156-3.944 3.086-5.946 1.855-3.983 3.603-7.745 6.995-10.025 4.044-2.72 9.719-2.836 17.358-.358.957.309 1.918.638 2.879.967 5.035 1.722 10.22 3.489 15.59 2.781 5.796-.784 10.002-3.994 11.837-9.039 2.341-6.436.43-15.059-4.544-20.505-5.242-5.746-13.586-8.608-21.259-7.248-3.075.536-6.003 1.69-8.833 2.806-2.68 1.053-5.446 2.143-8.276 2.673-4.903.926-10.024.185-14.972-.525-2.359-.338-4.798-.688-7.206-.863-10.631-.734-20.991 4.422-27.838 13.875-5.114 7.066-7.673 15.857-7.021 24.118.743 9.398 6.328 16.285 14.939 18.427 1.895.47 3.825.698 5.747.698Zm39.313-31.477c-3.361 0-6.203.796-8.573 2.39-3.754 2.521-5.676 6.657-7.534 10.656-.912 1.957-1.854 3.98-2.992 5.767-5.359 8.417-16.122 12.824-25.588 10.47-8.057-2.002-13.077-8.217-13.774-17.052-.622-7.903 1.831-16.32 6.734-23.094 6.531-9.018 16.469-13.992 26.474-13.239 2.355.169 4.767.516 7.096.851 5.08.726 10.319 1.477 15.481.515 2.974-.559 5.812-1.676 8.555-2.757 2.759-1.087 5.611-2.211 8.532-2.722 7.183-1.25 14.954 1.405 19.856 6.77 4.606 5.047 6.388 13.012 4.233 18.939-1.154 3.169-3.927 7.137-10.594 8.038-4.997.68-10.02-1.044-14.882-2.711-.972-.331-1.941-.664-2.905-.977-3.799-1.228-7.161-1.844-10.119-1.844Z"
    />
    <path
        d="M501.556 278.331c7.823 0 15.413-3.263 18.138-10.406 3.422-8.953-2.529-18.015-7.778-26.01l-.226-.344c-8.951-13.652-15.565-28.577-19.653-44.368-2.19-8.455-3.671-17.278-5.099-25.809-2.438-14.525-4.956-29.54-11.057-43.216l-.705.314.705-.314c-23.817-53.3909-89.137-71.359-138.528-61.149-7.077 1.4639-15.745 4.0475-19.95 11.0887-4.327 7.2369-2.167 16.5699-.163 22.9623 3.042 9.709 5.913 18.878 1.564 28.891-1.948 4.482-4.944 8.507-7.838 12.398-2.97 3.989-6.041 8.116-8.065 12.807-5.344 12.391-6.278 24.887-2.638 35.185 2.721 7.694 7.914 14.167 12.938 20.426 4.33 5.394 8.807 10.974 11.637 17.279 1.161 2.587 2.159 5.461 3.124 8.238 2.913 8.394 5.924 17.074 14.053 20.378 8.841 3.598 18.243-1.575 26.527-6.141l.557-.307c9.26-5.098 15.365-6.627 24.974-1.554 8.333 4.401 18.101 6.834 30.74 7.654 2.446.16 4.911.279 7.383.399 11.242.55 22.867 1.116 33.178 5.594 4.142 1.797 8.084 4.242 11.894 6.605 4.763 2.954 9.692 6.01 15.108 7.879 2.902.999 6.06 1.52 9.18 1.52Zm-27.085-149.525c6.019 13.495 8.521 28.413 10.944 42.842 1.436 8.565 2.921 17.42 5.129 25.942 4.131 15.953 10.808 31.033 19.857 44.824l.226.346c5.046 7.687 10.763 16.401 7.627 24.616-3.373 8.84-15.835 11.271-25.373 7.978-5.254-1.812-10.107-4.823-14.799-7.732-3.859-2.393-7.846-4.866-12.09-6.71-10.571-4.589-22.34-5.163-33.721-5.718-2.461-.12-4.918-.239-7.36-.399-12.413-.805-21.981-3.182-30.114-7.478-10.186-5.381-16.894-3.69-26.444 1.566l-.558.308c-7.981 4.396-17.018 9.386-25.2 6.065-7.477-3.043-10.375-11.386-13.175-19.456-.976-2.81-1.986-5.715-3.173-8.364-2.913-6.486-7.45-12.143-11.84-17.613-4.945-6.158-10.055-12.528-12.689-19.974-3.509-9.933-2.585-22.03 2.6-34.064 1.952-4.525 4.967-8.578 7.884-12.496 2.951-3.963 5.999-8.059 8.019-12.705 4.579-10.539 1.621-19.974-1.511-29.963-1.91-6.1102-3.991-15.0067.019-21.713 3.897-6.5257 12.169-8.9699 18.941-10.3699 48.78-10.0857 113.312 7.6094 136.801 60.2679Z"
    />
    <path
        d="M410.441 195.492c4.092 0 6.772-1.497 8.468-3.104 4.477-4.24 5.411-12.54 2.438-21.664-2.612-8.012-11.423-25.865-22.005-29.9-3.527-1.343-6.949-1.07-10.182.809-7.876 4.58-11.279 12.148-9.844 21.886 1.681 11.363 9.207 25.073 22.239 30.088 3.523 1.355 6.455 1.885 8.886 1.885Zm-15.429-53.956c1.24 0 2.503.242 3.78.73 10.062 3.835 18.553 21.15 21.085 28.936 2.789 8.552 2.009 16.241-2.031 20.066-3.418 3.242-8.864 3.551-15.734.901-12.455-4.792-19.656-17.955-21.266-28.876-.934-6.318-.116-14.976 9.09-20.327 1.639-.954 3.335-1.43 5.076-1.43ZM-.00024142 609.11C2.03731 607.757 3.75101 606.127 4.99036 604.157c2.89416-4.603 2.31005-9.617 1.30741-13.012-1.14514-3.885-3.42787-7.746-6.29801395-10.949l-2e-7-2.235C3.56188 581.551 6.42637 586.117 7.77877 590.711c1.5639 5.304 1.05139 10.238-1.48453 14.266-1.53258 2.438-3.71098 4.385-6.29448126 5.947l-1.6e-7-1.814Zm-.00024235-319.991C5.19092 292.925 10.131 296.957 14.7583 301.199c17.373 15.932 31.7651 35.928 41.6123 57.827l.7235 1.6C60.972 369.24 65.3699 379 68.1812 387.98c1.4057 4.493 1.0137 10.074.6369 15.469-.5316 7.634-1.0816 15.527 3.2409 20.856 6.0558 7.461 20.6893 4.065 31.362 1.586 3.022-.701 5.875-1.364 8.181-1.706 6.78-1.003 16.013-3.178 17.878-10.44.991-3.861-.305-9.158-1.564-14.28-.912-3.724-1.854-7.575-1.869-10.782-.075-13.708-2.838-22.977-9.534-31.996-5.939-7.989-13.631-14.652-21.0666-21.097-3.5347-3.063-7.1902-6.228-10.6196-9.504-10.9815-10.483-20.5237-22.891-29.7564-34.892-15.1043-19.637-30.7249-39.942-52.73321-51.627-.77019-.409-1.551225-.802-2.3376782-1.187l-8e-8-.859c.90939328.44 1.81054828.893 2.69945828 1.365 22.15523 11.764 37.82863 32.137 52.98553 51.84 9.2105 11.976 18.7374 24.36 29.6775 34.803 3.4143 3.263 7.0622 6.422 10.5896 9.478 7.4694 6.471 15.1944 13.164 21.1794 21.221 6.806 9.162 9.613 18.565 9.685 32.452.019 3.114.949 6.92 1.85 10.601 1.278 5.216 2.6 10.607 1.56 14.656-1.978 7.706-11.512 9.975-18.511 11.012-2.276.337-5.114.995-8.121 1.693-10.8721 2.525-25.7653 5.988-32.1342-1.851-4.5147-5.566-3.9532-13.612-3.4105-21.395.3879-5.57.7575-10.831-.607-15.187-2.796-8.934-7.1826-18.674-11.0529-27.267l-.7198-1.6c-9.8095-21.804-24.1377-41.714-41.4313-57.575-4.47165-4.099-9.2358-8.003-14.23878369-11.695l-8e-8-.953Z"
    />
    <path
        d="M0 186.592c11.5414 6.741 24.7998 12.542 39.9289 17.487 1.8956.62 3.8135 1.228 5.7395 1.84 14.9046 4.73 30.3141 9.621 40.5832 21.259 4.8164 5.459 8.14 12.088 11.3511 18.499 1.0135 2.024 2.0613 4.117 3.1393 6.136 11.973 22.416 30.687 37.281 50.495 53.019 2.947 2.339 5.897 4.684 8.871 7.092 17.614 14.267 37.58 30.436 44.698 52.922 5.695 17.995 2.68 35.069-.233 51.583-1.903 10.77-3.867 21.91-3.433 33.266.685 17.804 4.25 51.808 20.451 79.5 11.525 19.688 29.335 41.226 52.941 64.016 8.676 8.376 32.736 31.58 56.4 38.789h-2.377c-23.141-7.964-46.109-30.078-54.558-38.235-23.659-22.838-41.514-44.432-53.069-64.182-16.287-27.838-19.872-61.982-20.557-79.858-.441-11.439 1.533-22.62 3.44-33.432 2.898-16.421 5.898-33.401.257-51.213-7.048-22.268-26.915-38.358-44.488-52.589-2.928-2.375-5.879-4.718-8.822-7.056-19.875-15.789-38.646-30.704-50.695-53.261-1.0851-2.028-2.1325-4.125-3.15-6.151-3.192-6.368-6.4894-12.952-11.2415-18.337-10.1261-11.476-25.4342-16.335-40.237-21.033-1.9295-.612-3.8475-1.22-5.7468-1.841C24.6785 199.906 11.4971 194.159 8e-8 187.488L0 186.592Zm484.854 434.082c-7.751 3.258-15.656 6.61-22.503 11.326h-1.311c7.103-5.088 15.387-8.62 23.512-12.037 11.072-4.652 21.526-9.045 28.916-17.061 3.403-3.692 4.549-7.062 3.403-10.014-1.729-4.454-8.939-7.864-18.371-8.688-26.384-2.309-61.1 8.765-83.767 20.766-5.137 2.721-10.288 5.833-15.745 9.126-11.494 6.943-23.236 14.032-35.569 17.908h-2.802c13.19-3.622 25.726-11.169 37.971-18.566 5.465-3.301 10.627-6.419 15.783-9.149 22.769-12.052 57.628-23.175 84.197-20.853 7.382.646 16.792 3.434 19.023 9.177 1.259 3.25.064 6.889-3.557 10.816-7.5 8.138-18.033 12.564-29.18 17.249Z"
    />
    <path
        d="M.00050066 338.99C5.31555 345.621 10.0609 352.732 14.0468 360.191c11.9123 22.283 18.7148 48.545 19.6758 75.952.8027 22.819 6.4706 49.915 16.8453 80.535 1.4055 4.147 2.9094 8.103 5.8674 10.946 2.6646 2.563 5.0989 3.585 7.1718 3.037 2.8-.732 5.1742-4.266 7.0582-10.504 1.0027-3.317 1.873-6.789 2.7965-10.465 3.4934-13.91 7.454-29.674 19.8414-37.924 9.1768-6.111 21.9068-7.526 34.9348-3.88 11.181 3.126 21.111 9.206 32.009 16.243 3.064 1.981 6.233 4.029 9.795 4.842 3.885.891 7.77-.078 9.915-2.447 2.691-2.967.301-15.791-1.281-24.277-.611-3.282-1.142-6.115-1.278-7.781-1.044-12.682-2.125-25.795.015-38.674.618-3.706 1.357-7.5 2.069-11.167 2.894-14.852 5.883-30.21 1.862-44.731-5.94-21.438-26.165-36.106-40.863-45.273-3.116-1.944-6.338-3.88-9.451-5.754-14.739-8.865-29.982-18.031-40.6324-31.678-5.9507-7.63-10.2843-16.465-14.4712-25.008-2.6417-5.387-5.3739-10.959-8.487-16.174-9.0781-15.219-27.7628-22.184-45.8327-28.918-7.3157-2.726-14.80305-5.52-21.60621164-8.858l-8e-8-.861C6.86111 200.769 14.4578 203.604 21.8743 206.368c18.1982 6.782 37.0108 13.795 46.2284 29.245 3.1281 5.245 5.8678 10.829 8.5171 16.232 4.1718 8.509 8.483 17.305 14.3883 24.872 10.5629 13.536 25.7389 22.664 40.4179 31.491 3.12 1.876 6.342 3.814 9.462 5.76 14.807 9.237 35.191 24.025 41.202 45.721 4.066 14.696 1.059 30.144-1.85 45.085-.713 3.663-1.451 7.451-2.066 11.148-2.125 12.783-1.047 25.847-.007 38.482.136 1.628.659 4.443 1.266 7.704 1.707 9.152 4.044 21.686 1.097 24.934-2.834 3.131-7.364 3.438-10.661 2.683-3.694-.845-6.923-2.93-10.044-4.947-10.842-7.001-20.719-13.049-31.799-16.148-12.809-3.587-25.313-2.205-34.2935 3.778-12.1382 8.086-15.8919 23.024-19.5207 37.472-.9271 3.684-1.8014 7.165-2.8076 10.499-1.9936 6.605-4.4808 10.212-7.6011 11.029-2.3742.623-5.031-.469-7.9027-3.227-3.0829-2.966-4.6277-7.015-6.0638-11.254-10.3972-30.692-16.0801-57.864-16.883-80.758-.9608-27.288-7.7329-53.435-19.5849-75.617-3.81447-7.138-8.32448-13.958-13.36819923-20.338l-1e-7-1.224ZM296.833 632c-9.3-7.937-17.833-17.52-26.232-26.972-7.205-8.11-14.011-15.77-21.074-22.108-6.402-5.737-23.138-12.59-33.777-9.869-4.379 1.125-7.311 3.733-8.717 7.752-.67 1.912-1.017 3.961-1.356 5.945-.234 1.369-.475 2.788-.822 4.164-2.886 11.482-13.951 21.123-27.529 23.989-8.053 1.703-16.955 1.364-27.194-1.033-24.352-5.698-45.279-16.764-65.8661-34.82l-.7613-.672c-3.0261-2.668-6.1578-5.429-9.8999-6.909-3.7233-1.472-8.8749-1.54-12.0028 1.629-2.3063 2.343-3.1618 6.161-2.28 10.212.7085 3.25 2.3516 6.268 3.9382 9.186l.5502 1.018c6.5544 12.151 11.3386 25.052 14.3034 38.488h-.7885c-2.9508-13.307-7.7001-26.084-14.1933-38.123l-.5502-1.014c-1.6129-2.967-3.2824-6.034-4.0135-9.391-.9346-4.308-.0075-8.389 2.4835-10.918 1.9936-2.021 4.7333-2.83 7.4579-2.83 1.8843 0 3.761.386 5.3815 1.028 3.8665 1.529 7.0471 4.335 10.1261 7.046l.7612.67c20.4856 17.972 41.3066 28.982 65.5276 34.651 10.133 2.367 18.918 2.702 26.862 1.03 13.295-2.81 24.122-12.222 26.941-23.425.339-1.348.577-2.75.807-4.106.342-2.014.697-4.095 1.386-6.069 1.496-4.279 4.613-7.052 9.256-8.243 10.865-2.802 27.962 4.194 34.482 10.042 7.1 6.366 13.921 14.041 21.138 22.168 8.589 9.669 17.324 19.465 26.866 27.484h-1.211Z"
    />
    <path
        d="M.00024414 170.71C5.82709 175.208 12.7838 179.243 20.9357 182.859c11.8822 5.933 23.4667 9.756 35.7257 13.802 5.129 1.692 10.4314 3.441 15.7676 5.361 11.9802 4.313 21.6651 9.235 29.617 15.053 10.627 7.779 15.021 15.432 20.512 26.216 17.448 34.265 45.181 60.002 70.012 80.659 15.368 12.79 26.949 28.349 33.483 44.997 7.131 18.161 8.212 36.861 3.215 55.578-1.259 4.718-2.913 9.394-4.511 13.917-1.756 4.973-3.572 10.116-4.865 15.308-4.914 19.751 3.49 40.653 10.91 59.095l.343.858c15.409 38.339 42.709 70.363 76.867 90.175 16.009 9.281 29.285 13.157 41.751 12.286 18.594-1.345 33.974-11.798 48.845-21.908 3.086-2.098 6.282-4.27 9.436-6.311 10.092-6.526 21.869-11.498 35.997-15.201 3.972-1.042 8.155-1.413 12.203-1.772 6.809-.604 13.239-1.174 18.827-4.648 5.74-3.566 12.723-7.406 21.014-8.844 10.08-1.748 21.137-1.012 31.101 2.081 2.552.793 5.16 1.664 7.681 2.505 9.738 3.248 19.803 6.606 30.103 6.778 1.59.028 3.365-.109 5.223-.254 6.633-.51 14.136-1.097 17.358 5.957 2.596 5.694-1.903 11.862-6.139 16.032-14.343 14.131-31.984 25.404-51.022 32.604-5.457 2.064-10.922 3.772-16.205 5.424-3.553 1.112-7.052 2.212-10.499 3.393h-2.299c4.115-1.464 8.3-2.794 12.568-4.128 5.272-1.649 10.725-3.354 16.163-5.41 18.937-7.16 36.487-18.377 50.751-32.433 4.059-3.998 8.393-9.873 5.981-15.162-3.004-6.569-9.919-6.025-16.597-5.508-1.876.143-3.621.284-5.298.256-10.416-.175-20.539-3.552-30.329-6.819-2.522-.839-5.126-1.709-7.666-2.497-9.847-3.058-20.764-3.788-30.747-2.059-8.155 1.414-15.059 5.211-20.735 8.739-5.743 3.569-12.568 4.175-19.167 4.761-4.013.357-8.166.724-12.074 1.75-14.049 3.682-25.75 8.621-35.771 15.102-3.15 2.036-6.339 4.205-9.425 6.302-14.954 10.166-30.42 20.677-49.225 22.038-12.643.922-26.044-3.022-42.189-12.387-34.308-19.897-61.724-52.057-77.198-90.556l-.343-.856c-7.462-18.551-15.918-39.575-10.94-59.568 1.3-5.229 3.124-10.389 4.884-15.379 1.594-4.51 3.241-9.173 4.492-13.86 9.5-35.584-4.123-72.887-36.45-99.785-24.887-20.706-52.691-46.511-70.2-80.9-5.442-10.686-9.79-18.266-20.286-25.945-7.8876-5.773-17.5084-10.661-29.4208-14.948-5.3252-1.917-10.6235-3.665-15.7449-5.355-12.2893-4.055-23.8964-7.886-35.8162-13.838-7.9807-3.54-14.82883-7.483-20.60385577-11.87l-9e-8-.975Z"
    />
    <path
        d="M0 131.257c1.612 4.156 3.52216 8.158 5.80853 11.959 12.23267 20.341 35.60897 37.073 64.14057 45.903 9.8243 3.039 20.2672 6.144 30.4649 7.804 9.417 1.533 21.1 4.47 27.925 13.664 3.625 4.883 5.004 10.615 6.339 16.16.976 4.051 1.985 8.24 3.866 12.014 4.692 9.416 11.362 18.426 17.795 26.844 12.99 16.996 29.462 33.137 51.836 50.792 16.879 13.324 35.737 29.932 47.62 52.094 7.974 14.867 11.916 44.769-1.813 59.948-2.001 2.213-4.006 4.027-5.943 5.783-4.145 3.75-8.057 7.293-10.729 13.843-3.754 9.196-5.016 19.829-3.652 30.752 2.959 23.702 15.647 51.978 33.118 73.795 23.033 28.769 53.461 44.573 83.477 43.365 19.076-.767 37.814-8.115 52.76-20.694 8.893-7.484 26.493-20.552 44.446-23.997 3.124-.6 6.327-1.033 9.429-1.451 4.718-.636 9.594-1.294 14.249-2.553 4.488-1.21 8.562-3.679 12.5-6.065 4.239-2.568 8.622-5.223 13.431-6.215 10.224-2.104 22.973 1.705 29.666 4.16 5.958 2.185 11.788 5.222 17.426 8.159 13.069 6.81 26.594 13.846 42.241 10.415 5.325-1.166 10.386-3.52 15.282-5.797 3.09-1.44 6.289-2.928 9.545-4.113 4.926-1.796 17.321-5.222 25.958 1.772 4.33 3.509 6.248 7.259 5.702 11.147-1.583 11.29-23.147 20.467-31.264 23.92-6.753 2.875-28.55 13.552-25.487 30.227 1.677 9.132 10.494 14.796 19.849 17.108h-2.801c-8.59-2.744-16.226-8.365-17.809-16.969-3.165-17.238 19.058-28.142 25.947-31.074 7.239-3.082 29.277-12.46 30.804-23.319.505-3.602-1.323-7.115-5.431-10.442-8.313-6.744-20.391-3.404-25.204-1.648-3.222 1.176-6.406 2.657-9.485 4.089-4.933 2.294-10.032 4.666-15.44 5.852-15.922 3.485-29.572-3.613-42.762-10.483-5.619-2.926-11.426-5.952-17.335-8.121-6.621-2.428-19.231-6.2-29.244-4.127-4.68.964-8.814 3.468-13.19 6.118-3.983 2.414-8.106 4.911-12.696 6.151-4.707 1.27-9.61 1.932-14.351 2.572-3.086.418-6.282.849-9.387 1.443-17.78 3.414-35.255 16.395-44.092 23.832-15.078 12.686-33.981 20.1-53.227 20.875-30.239 1.215-60.918-14.694-84.11-43.655-17.554-21.923-30.306-50.348-33.284-74.183-1.379-11.051-.097-21.818 3.705-31.136 2.74-6.713 6.716-10.313 10.925-14.124 1.925-1.742 3.915-3.545 5.89-5.727 13.495-14.922 9.576-44.398 1.707-59.068-11.818-22.04-30.604-38.58-47.423-51.853-22.423-17.699-38.937-33.881-51.964-50.931-6.456-8.449-13.157-17.49-17.878-26.968-1.919-3.852-2.936-8.084-3.923-12.178-1.316-5.468-2.676-11.123-6.207-15.88-6.663-8.97-18.157-11.854-27.428-13.363-10.2463-1.667-20.7228-4.78-30.57-7.826-28.7126-8.889-52.2471-25.743-64.57774-46.246-1.979-3.291-3.67529-6.73-5.14525982-10.285L0 131.257Z"
    />
    <path
        d="M23.4947.574107c-.001-.190516-.0335-.38291-.0386-.57390648l.7697-7e-8c.0047.19027455.0367.37987455.0376.57014855C24.3087 12.6582 22.6129 26.1441 19.0855 41.7996c-5.7207 25.3913-4.021 47.7116 5.193 68.2364 12.9186 28.771 40.037 51.123 70.7732 58.336 8.2683 1.938 16.7623 3.585 24.9783 5.175 7.507 1.456 15.273 2.959 22.852 4.685 13.71 3.122 17.347 16.003 20.866 28.462 3.396 12.048 8.148 19.776 15.214 29.057 4.647 6.102 9.802 11.832 14.788 17.373 3.489 3.878 7.096 7.89 10.484 11.977 4.481 5.406 7.405 11.877 10.235 18.136 1.839 4.071 3.742 8.283 6.052 12.138 7.244 12.103 19.683 19.308 31.716 26.276 2.729 1.579 5.548 3.212 8.216 4.856 17.508 10.788 29.681 28.615 34.278 50.198 4.787 22.467.509 45.626-11.731 63.538-1.044 1.528-2.167 3.086-3.252 4.593-5.819 8.078-11.833 16.431-11.193 26.686.505 8.101 3.49 15.77 6.377 23.188 1.424 3.656 2.653 7.493 3.843 11.203 2.548 7.937 5.182 16.145 9.855 23.175 7.01 10.537 16.646 12.385 27.808 14.524 2.145.411 4.36.836 6.584 1.333 4.315.963 8.302 2.273 12.157 3.539 9.44 3.099 18.349 6.025 29.896 3.067 8.393-2.154 14.961-7.071 21.91-12.274 1.105-.826 2.212-1.654 3.324-2.471 10.352-7.586 16.148-8.557 28.897-9.231 11.001-.581 22.378-1.182 33.099-4.446 5.465-1.664 9.501-4.582 13.774-7.672 1.221-.884 2.465-1.784 3.773-2.676 5.389-3.678 12.119-6.091 20.572-7.372 13.484-2.04 26.727.167 41.661 6.973 2.028.922 4.085 1.955 6.264 3.047 10.642 5.336 22.709 11.376 33.871 5.334 6.735-3.648 11.121-11.237 10.914-18.884-.026-.896-.098-1.848-.17-2.77-.297-3.919-.61-7.973 2.231-10.571 3.075-2.821 8.208-1.763 11.393.888 2.072 1.72 3.621 3.957 5.121 6.119.75 1.082 1.523 2.202 2.352 3.235 7.552 9.436 19.219 12.567 31.572 15.883 9.505 2.55 19.329 5.188 27.119 10.97 7.458 5.536 12.53 13.58 17.429 21.359 1.5 2.376 3.045 4.832 4.636 7.171 7.375 10.863 18.857 17.863 31.505 19.206 12.458 1.321 24.499-2.896 33.913-11.884 7.439-7.102 11.882-17.05 12.511-28.013.223-3.895-.927-7.924-2.039-11.819-1.228-4.303-2.389-8.367-1.839-12.259.634-4.533 4.293-8.01 7.669-10.912 6.154-5.285 12.565-10.413 19.062-15.241 2.819-2.093 5.404-3.88 8.49-4.578.573-.128 1.202-.186 1.881-.186 3.633 0 8.66 1.669 13.175 3.17 2.671.886 5.193 1.724 7.062 2.089 2.577.504 5.185 1.069 7.706 1.614 6.056 1.316 12.324 2.672 18.617 3.261 28.117 2.619 55.627-11.006 66.854-33.159 6.399-12.62 7.684-27.538 8.822-40.7 1.489-17.215 3.03-35.018.343-52.397-3.022-19.526-11.468-38.815-25.095-57.331l-.373-.508c-9.067-12.327-22.773-30.953-37.026-37.748-4.699-2.239-10.224-3.411-15.564-4.544-4.496-.954-9.146-1.94-13.344-3.562-8.581-3.318-16.928-7.523-25.001-11.589l-4.375-2.2c-16.947-8.516-34.471-17.323-53.63-19.404-12.01-1.309-24.258.136-36.11 1.528-6.923.815-14.087 1.656-21.149 1.95-15.949.656-32.353-3.331-46.297-11.23-14.923-8.455-25.822-20.578-31.52-35.059-7.363-18.716-5.588-39.77-4.025-58.344.407-4.854.83-9.707 1.248-14.562.697-8.034 1.417-16.342 2.069-24.516.226-2.847-.411-5.8746-1.025-8.8024-.897-4.2808-1.828-8.7084-.185-12.8406 1.074-2.6964 3.098-4.245 5.057-5.7428 1.218-.9295 2.48-1.893 3.501-3.1273 7.553-9.1036-1.801-19.6258-9.319-28.0802-1.76-1.9814-3.422-3.8518-4.703-5.534-4.545-5.9592-6.818-12.12735-9.222-18.65863-.293-.79689-.619-1.633522-.923-2.44991915l.823-7e-8c.271.72583622.564 1.47406922.824 2.18275922 2.385 6.4767 4.635 12.59209 9.108 18.45919 1.266 1.6577 2.921 3.5187 4.669 5.4888 7.715 8.6745 17.309 19.4696 9.339 29.0849-1.082 1.3003-2.374 2.29-3.626 3.2478-1.963 1.4978-3.817 2.9147-4.812 5.4155-1.556 3.9157-.652 8.2266.226 12.3964.626 2.9806 1.274 6.0646 1.037 9.0207-.652 8.1778-1.372 16.4868-2.069 24.5218-.419 4.855-.841 9.708-1.248 14.56-1.556 18.492-3.324 39.45 3.972 57.997 12.003 30.506 45.645 45.866 73.916 45.866 1.059 0 2.111-.023 3.155-.066 7.032-.29 14.181-1.131 21.088-1.942 11.898-1.396 24.194-2.841 36.284-1.531 19.299 2.098 36.886 10.936 53.898 19.482l4.375 2.202c8.053 4.057 16.382 8.253 24.929 11.557 4.138 1.599 8.758 2.58 13.223 3.526 5.389 1.143 10.956 2.324 15.738 4.603 14.43 6.877 28.204 25.6 37.316 37.987l.377.51c13.698 18.615 22.189 38.019 25.23 57.669 2.702 17.47 1.157 35.319-.335 52.582-1.142 13.23-2.438 28.227-8.905 40.981-11.366 22.425-39.159 36.224-67.615 33.578-6.339-.593-12.625-1.957-18.707-3.274-2.518-.546-5.122-1.11-7.692-1.613-1.914-.374-4.458-1.219-7.153-2.115-5.268-1.75-11.241-3.741-14.64-2.961-2.944.664-5.457 2.404-8.205 4.442-6.481 4.819-12.877 9.935-19.016 15.208-3.421 2.939-6.813 6.166-7.412 10.434-.524 3.731.614 7.718 1.82 11.941 1.13 3.959 2.299 8.049 2.065 12.076-.637 11.157-5.167 21.288-12.745 28.524-8.427 8.046-18.93 12.339-29.968 12.339-1.511 0-3.033-.081-4.563-.243-12.874-1.368-24.56-8.49-32.063-19.541-1.594-2.35-3.147-4.812-4.647-7.194-4.865-7.719-9.892-15.701-17.237-21.152-7.673-5.694-17.426-8.311-26.858-10.842-11.931-3.203-24.266-6.512-31.976-16.147-.844-1.053-1.628-2.184-2.382-3.277-1.47-2.121-2.988-4.313-4.982-5.967-2.928-2.439-7.609-3.447-10.379-.911-2.562 2.345-2.268 6.208-1.982 9.945.072.931.147 1.893.17 2.805.215 7.932-4.33 15.801-11.313 19.585-11.543 6.247-23.784.094-34.584-5.324-2.175-1.089-4.225-2.116-6.241-3.035-14.788-6.736-27.883-8.932-41.228-6.911-8.336 1.264-14.957 3.633-20.248 7.246-1.3.888-2.54 1.784-3.757 2.665-4.327 3.127-8.416 6.081-14 7.784-10.816 3.291-22.239 3.895-33.288 4.48-12.579.665-18.292 1.619-28.475 9.081-1.116.815-2.216 1.641-3.32 2.467-6.704 5.019-13.639 10.21-22.186 12.402-11.757 3.015-20.772.055-30.325-3.08-3.84-1.261-7.808-2.563-12.082-3.519-2.216-.495-4.428-.918-6.565-1.328-10.857-2.083-21.115-4.049-28.301-14.856-4.734-7.118-7.387-15.377-9.949-23.365-1.187-3.699-2.412-7.524-3.825-11.16-2.91-7.472-5.921-15.198-6.43-23.417-.659-10.532 5.438-18.997 11.336-27.185 1.082-1.503 2.201-3.057 3.237-4.576 12.124-17.74 16.36-40.683 11.619-62.945-4.553-21.374-16.604-39.026-33.932-49.703-2.657-1.637-5.472-3.268-8.197-4.845-12.116-7.017-24.642-14.273-31.991-26.547-2.329-3.893-4.243-8.125-6.094-12.217-2.807-6.212-5.713-12.634-10.126-17.959-3.376-4.078-6.979-8.082-10.465-11.954-4.993-5.553-10.16-11.296-14.829-17.423-6.938-9.118-11.927-17.202-15.342-29.314-3.456-12.242-7.028-24.9-20.293-27.918-7.564-1.724-15.323-3.228-22.826-4.682-8.223-1.592-16.725-3.24-25.0047-5.182-30.9698-7.265-58.288-29.783-71.3007-58.768-9.2894-20.6838-11.0042-43.164-5.2458-68.7227 3.516-15.5991 5.2043-29.0285 5.1629-41.056193Z"
    />
    <path
        d="m40.4791 13.6291.3505-.8712c1.6647-4.12011 3.2621-8.38775 4.5811-12.7577026l.8051-7e-8C44.877 4.47338 43.2457 8.8377 41.5456 13.0477l-.3505.8693c-4.8501 12.0088-9.0407 22.3787-9.606 35.5391-1.1117 25.8654 5.0875 50.8649 17.4635 70.3899 9.7981 15.471 23.9301 26.375 40.8584 31.534l.6256.192c6.9605 2.123 15.5674 4.748 22.9204 4.748.23 0 .456-.002.686-.008 3.143-.071 6.293-.218 9.338-.359 8.419-.388 16.374-.758 24.831.26 11.777 1.415 19.954 9.08 23.659 22.164 3.459 12.227 7.416 22.967 12.097 32.833 5.287 11.158 11.253 17.842 20.444 27.525 5.182 5.461 12.124 13.954 15.749 23.421 1.349 3.523 2.604 7.198 3.818 10.75 2.928 8.562 5.95 17.417 10.619 25.201 4.67 7.792 15.127 13.469 24.356 18.478 2.311 1.253 4.493 2.437 6.456 3.589 2.321 1.364 4.68 2.628 6.96 3.851 7.225 3.873 14.05 7.531 19.461 13.979 11.573 13.784 26.636 35.109 23.896 61.066-1.522 14.399-8.125 25.764-15.119 37.795-1.462 2.522-2.977 5.128-4.435 7.755-4.338 7.801-13.356 27.498-3.509 41.908 4.948 7.243 12.911 10.814 21.337 14.598 4.647 2.085 9.452 4.241 13.661 7.062 3.837 2.57 7.504 5.856 11.05 9.032 8.407 7.534 16.336 14.683 26.719 13.55 6.742-.715 12.093-4.843 17.757-9.213 2.762-2.132 5.619-4.337 8.63-6.079 10.495-6.078 22.999-6.667 35.089-7.235 3.64-.172 7.405-.348 11.042-.674 9.225-.828 17.041-3.05 23.229-6.606 3-1.72 5.257-4.434 7.443-7.057 2.174-2.612 4.228-5.078 6.945-6.638 10.94-6.276 33.371 1.247 39.988 3.703 3.709 1.377 7.341 3.099 10.85 4.764 3.569 1.692 7.254 3.442 11.012 4.821 8.901 3.274 16.657 3.699 23.063 1.266 6.81-2.593 13.058-10.27 11.268-18.152-.513-2.271-1.651-4.497-2.755-6.65-1.839-3.596-3.738-7.314-2.668-11.239.626-2.292 2.205-4.151 4.568-5.378 3.063-1.596 7.009-1.846 10.295-.668 5.698 2.045 9.851 7.181 13.186 11.307 11.879 14.69 27.805 20.702 44.669 27.066 1.443.544 2.89 1.091 4.349 1.646 11.822 4.513 20.124 13.524 28.151 22.24 9.5 10.31 18.469 20.049 32.824 23.116 9.459 2.014 21.801-.86 27.126-10.276 2.935-5.201 3.636-11.154 4.315-16.912.682-5.792 1.386-11.783 4.333-17.14 5.408-9.826 14.8-18.988 23.083-27.07 1.801-1.757 3.565-3.479 5.242-5.163 5.389-5.397 10.604-7.455 16.065-7.455 6.199 0 12.704 2.657 20.109 6.102 14.234 6.625 33.502 6.317 47.936-.764 7.929-3.889 18.059-11.537 21.288-25.867 2.182-9.689.072-19.771-1.974-29.522-.468-2.237-.95-4.548-1.376-6.813-2.966-15.914-1.036-27.864 5.74-35.517 1.899-2.141 4.183-3.938 6.391-5.675 2.336-1.837 4.752-3.737 6.674-6.027 7.311-8.712 6.294-21.583 2.043-30.475-14.404-30.126-49.609-45.304-80.67-58.694-5.351-2.306-10.408-4.485-15.243-6.694-14.675-6.703-29.851-13.633-45.675-17.965-15.967-4.377-32.47-4.408-48.43-4.44-2.525-.004-5.05-.01-7.574-.031-11.039-.094-22.853-.504-34.452-2.839-22.548-4.539-52.048-15.639-64.556-42.752-7.842-16.993-7.224-36.63-6.677-53.955.591-19.001.587-33.439-.019-46.8154-.517-11.4575.701-23.3308 1.88-34.8128.385-3.7332.78-7.5944 1.108-11.3596.592-6.7928.844-13.3034-2.544-18.3049-1.714-2.5346-4.258-4.4351-6.715-6.2754-2.299-1.7198-4.677-3.498-6.444-5.8181-2.974-3.912-3.886-8.85135-4.768-13.62892-.131-.71336-.313-1.427687-.454-2.15072949l.788-7e-8c.13.67482356.302 1.34583956.424 2.01150956.867 4.68913 1.76 9.53634 4.628 13.30154 1.699 2.2354 4.032 3.9797 6.289 5.6694 2.51 1.876 5.103 3.818 6.893 6.4579 3.527 5.2123 3.279 11.8696 2.672 18.8054-.328 3.769-.724 7.634-1.108 11.371-1.176 11.4537-2.393 23.2969-1.88 34.6998.606 13.3953.614 27.8523.018 46.8723-.539 17.24-1.153 36.781 6.61 53.609 12.373 26.819 41.635 37.816 64.005 42.319 11.54 2.323 23.309 2.73 34.309 2.824 2.521.021 5.046.026 7.567.032 16.013.032 32.568.064 48.633 4.465 15.885 4.351 31.091 11.294 45.796 18.01 4.823 2.203 9.877 4.382 15.225 6.687 31.184 13.445 66.533 28.682 81.057 59.069 4.36 9.115 5.385 22.328-2.148 31.304-1.971 2.35-4.417 4.275-6.783 6.136-2.182 1.716-4.44 3.49-6.29 5.581-6.61 7.465-8.483 19.195-5.559 34.864.419 2.256.905 4.564 1.372 6.796 2.058 9.832 4.191 19.997 1.971 29.849-3.297 14.63-13.623 22.426-21.703 26.39-14.633 7.179-34.158 7.486-48.599.772-13.642-6.347-24.164-9.965-35.3 1.199-1.685 1.684-3.448 3.407-5.253 5.168-8.246 8.045-17.592 17.165-22.943 26.891-2.876 5.226-3.573 11.138-4.247 16.858-.686 5.833-1.395 11.866-4.41 17.202-4.413 7.806-13.461 11.275-21.887 11.275-2.088 0-4.138-.212-6.068-.626-14.595-3.118-24.069-13.401-33.231-23.348-7.97-8.65-16.208-17.592-27.864-22.042-1.451-.555-2.902-1.101-4.342-1.644-16.965-6.404-32.989-12.449-45-27.301-3.444-4.264-7.348-9.096-12.847-11.067-3.082-1.108-6.787-.875-9.677.625-1.508.785-3.46 2.271-4.176 4.898-.995 3.637.758 7.062 2.612 10.686 1.123 2.194 2.284 4.465 2.819 6.831 1.88 8.285-4.636 16.334-11.751 19.04-6.572 2.503-14.52 2.079-23.598-1.262-3.791-1.391-7.496-3.148-11.08-4.848-3.493-1.657-7.107-3.372-10.789-4.738-6.531-2.429-28.679-9.871-39.332-3.755-2.597 1.49-4.609 3.904-6.738 6.461-2.228 2.676-4.53 5.442-7.651 7.231-6.285 3.613-14.207 5.869-23.545 6.707-3.652.327-7.424.504-11.076.675-11.995.565-24.401 1.148-34.739 7.132-2.965 1.718-5.799 3.906-8.543 6.023-5.502 4.243-11.189 8.631-18.145 9.371-10.692 1.134-19.152-6.428-27.318-13.744-3.524-3.159-7.172-6.426-10.963-8.966-4.157-2.785-8.932-4.926-13.548-6.998-8.155-3.662-16.589-7.446-21.662-14.869-10.084-14.762-.93-34.79 3.471-42.714 1.466-2.634 2.981-5.244 4.447-7.767 6.949-11.96 13.514-23.256 15.018-37.489 2.709-25.668-12.237-46.816-23.716-60.49-5.321-6.335-12.082-9.96-19.238-13.796-2.288-1.227-4.654-2.495-6.987-3.865-1.948-1.146-4.127-2.328-6.429-3.577-9.316-5.056-19.875-10.788-24.654-18.761-4.707-7.854-7.748-16.746-10.688-25.347-1.209-3.547-2.464-7.215-3.81-10.724-3.58-9.348-10.45-17.757-15.582-23.165-8.977-9.456-15.259-16.493-20.588-27.725-4.696-9.907-8.668-20.685-12.142-32.953-2.518-8.899-8.551-19.873-23.003-21.611-8.404-1.007-16.326-.642-24.707-.253-3.049.142-6.203.288-9.357.36-.234.005-.467.007-.701.007-7.469 0-16.137-2.643-23.1465-4.783l-.6256-.19c-17.1091-5.216-31.3844-16.231-41.2881-31.858-12.455-19.658-18.6995-44.8162-17.5765-70.8377.5691-13.2903 4.7823-23.7185 9.6588-35.7932Z"
    />
    <path
        d="M60.1998 14.7035C64.471 10.1953 69.153 5.23924 71.3312.0001909l.8404-7e-8C69.9952 5.47985 65.1578 10.5895 60.7576 15.2342c-2.1556 2.2768-4.1944 4.4275-5.7583 6.4503-8.0421 10.4076-11.6524 24.6819-10.1676 40.1962 1.157 12.0898 5.1102 24.5483 12.8169 40.3953 6.4517 13.261 17.0978 31.496 35.021 36.748 11.0454 3.234 22.8114.922 34.1774-1.31 2.596-.51 5.275-1.037 7.898-1.487 11.864-2.032 28.121-4.82 38.345 5.023 10.801 10.401 16.179 25.195 19.657 36.922.938 3.151 1.82 6.375 2.676 9.493 1.481 5.402 3.011 10.989 4.865 16.37 2.642 7.672 6.301 12.923 10.54 19.003.562.802 1.131 1.62 1.711 2.463 10.108 14.649 21.379 32.024 28.329 49.825 6.444 16.5 15.967 27.928 29.108 34.933 3.595 1.916 7.39 3.82 11.06 5.662 15.316 7.683 31.151 15.627 42.129 28.699 9.515 11.33 13.74 27.693 11.599 44.895-1.699 13.616-7.032 27.638-16.777 44.133-.384.654-.776 1.307-1.165 1.962-2.947 4.941-5.995 10.05-7.469 15.637-1.884 7.126-.656 13.969 3.286 18.305 3.678 4.051 9.256 5.571 14.649 7.041 5.261 1.434 10.695 2.915 14.569 6.718 3.124 3.067 4.884 7.317 6.584 11.427 2.212 5.344 4.299 10.392 9.123 12.835 4.722 2.389 11.291 1.347 17.584-2.781 2.118-1.391 4.142-3.011 6.101-4.578 2.944-2.354 5.985-4.787 9.418-6.513 8.215-4.132 17.648-3.829 26.775-3.543 7.07.226 14.389.461 21.168-1.347 6.652-1.771 12.663-5.476 18.474-9.057 3.199-1.972 6.504-4.01 9.903-5.72 11.381-5.73 20.856-2.71 30.013.207 7.598 2.418 15.462 4.926 24.515 2.555 4.808-1.255 9.255-4.99 11.324-9.515 1.522-3.327 1.575-6.754.143-9.648-1.202-2.435-3.32-4.36-5.366-6.219-2.356-2.141-4.794-4.356-5.906-7.389-.979-2.663-.719-5.686.732-8.516 1.775-3.465 5.151-6.251 8.814-7.273 7.258-2.025 14.566 1.108 19.427 4.091 2.853 1.752 5.555 3.812 8.166 5.807 2.635 2.007 5.356 4.086 8.22 5.831 9.915 5.98 21.405 8.196 32.515 10.34 3.452.666 7.02 1.352 10.48 2.143l1.899.429c6.256 1.405 13.348 2.999 18.583 6.157 4.91 2.963 8.92 7.985 12.798 12.84 1.424 1.788 2.774 3.474 4.145 5.037 7.081 8.065 14.404 16.405 23.701 22.149 10.344 6.394 21.612 8.206 30.89 4.964 8.389-2.929 15.757-10.1 22.532-21.919 1.455-2.535 2.849-5.175 4.202-7.728 3.648-6.891 7.417-14.015 12.715-19.903 10.213-11.354 21.937-14.897 34.23-14.897 10.367 0 21.138 2.522 31.739 5.002l3.504.816c12.286 2.853 29.045 4.078 39.114-6.228 10.292-10.537 8.562-27.194 5.167-43.625l-9.271-44.814c-3.369-16.287-7.186-34.748-17.459-49.339-25.103-35.663-78.48-43.613-121.37-50.001-8.491-1.265-16.514-2.46-24.006-3.805-24.774-4.452-52.857-9.499-74.651-25.653-31.139-23.084-33.299-54.438-32.843-90.047.464-36.8563-.591-78.8156-19.147-110.2903C551.14 16.4414 544.923 7.87611 538.04.0001501l1.012-9e-8C545.791 7.77404 551.894 16.2027 557.199 25.2013c18.658 31.6459 19.721 73.7295 19.253 110.6927-.448 35.393 1.689 66.551 32.534 89.419 21.65 16.045 49.636 21.075 74.327 25.51 7.481 1.345 15.496 2.538 23.983 3.803 43.037 6.409 96.595 14.387 121.89 50.319 10.363 14.722 14.2 33.266 17.58 49.629l9.271 44.814c3.44 16.638 5.174 33.522-5.371 44.317-10.307 10.56-27.355 9.329-39.837 6.443l-3.505-.819c-24.024-5.622-46.699-10.928-65.222 9.661-5.234 5.816-8.98 12.899-12.605 19.748-1.353 2.557-2.755 5.205-4.214 7.751-6.87 11.986-14.377 19.268-22.946 22.262-3.109 1.085-6.426 1.62-9.859 1.62-7.062 0-14.595-2.268-21.695-6.656-9.395-5.803-16.755-14.187-23.874-22.296-1.383-1.576-2.736-3.27-4.168-5.063-3.836-4.804-7.801-9.772-12.595-12.664-5.125-3.091-12.153-4.67-18.352-6.063l-1.903-.429c-3.449-.788-7.01-1.475-10.454-2.139-11.178-2.156-22.736-4.386-32.768-10.438-2.902-1.766-5.641-3.857-8.287-5.878-2.596-1.981-5.283-4.03-8.106-5.762-4.73-2.897-11.848-5.949-18.809-4.006-3.463.968-6.659 3.604-8.34 6.883-1.352 2.637-1.597 5.44-.693 7.898 1.048 2.856 3.309 4.911 5.702 7.086 2.099 1.908 4.27 3.882 5.54 6.447 1.533 3.108 1.484 6.768-.136 10.309-2.163 4.729-6.806 8.632-11.83 9.941-9.266 2.422-17.237-.113-24.944-2.566-9.432-3.003-18.341-5.832-29.432-.252-3.365 1.695-6.659 3.723-9.843 5.686-5.86 3.613-11.92 7.346-18.685 9.147-6.885 1.834-14.26 1.599-21.39 1.373-9.444-.299-18.356-.587-26.402 3.461-3.362 1.69-6.373 4.096-9.282 6.424-1.971 1.578-4.014 3.212-6.162 4.621-6.523 4.285-13.386 5.342-18.353 2.826-5.08-2.574-7.322-7.989-9.489-13.23-1.673-4.038-3.399-8.213-6.414-11.171-3.727-3.662-9.067-5.116-14.23-6.524-5.498-1.499-11.185-3.05-15.017-7.265-4.116-4.531-5.408-11.64-3.46-19.02 1.5-5.692 4.575-10.848 7.552-15.836l1.165-1.959c9.689-16.4 14.987-30.33 16.672-43.835 2.118-16.992-2.047-33.138-11.419-44.304-10.88-12.952-26.644-20.86-41.887-28.507-3.675-1.844-7.477-3.75-11.076-5.67-13.314-7.097-22.95-18.656-29.463-35.336-6.926-17.725-18.164-35.053-28.245-49.666-.58-.841-1.153-1.658-1.711-2.46-4.273-6.126-7.963-11.419-10.638-19.191-1.862-5.406-3.396-11.004-4.881-16.417-.851-3.114-1.733-6.336-2.668-9.48-3.452-11.634-8.784-26.31-19.453-36.587-9.945-9.572-25.976-6.819-37.682-4.815-2.611.447-5.287.972-7.876 1.482-11.467 2.253-23.323 4.571-34.5459 1.293-18.2134-5.338-28.9801-23.758-35.496-37.15-7.7518-15.9338-11.7277-28.475-12.8921-40.6607-1.5037-15.7063 2.1631-30.1745 10.3258-40.7382 1.5865-2.0548 3.6366-4.2187 5.811-6.5106Z"
    />
    <path
        d="M70.4086 25.8261c3.4407-4.2921 6.9982-8.7309 9.5156-13.6365 1.9714-3.84562 3.3229-8.02154 4.5147-12.18941297l.8022-7e-8C84.0239 4.27534 82.647 8.56884 80.61 12.5397c-2.5512 4.9751-6.1351 9.4459-9.5984 13.7681-4.5109 5.6243-9.1726 11.4406-11.4564 18.3124-3.8778 11.6776-.5803 23.9724 3.7874 37.6767 5.1705 16.2294 11.9689 34.1091 27.2617 40.8301 13.7777 6.048 29.1797 1.118 44.0727-3.652l2.65-.847c11.908-3.786 25.626-7.421 37.504-2.676 10.673 4.264 18.353 15.699 19.566 29.134.845 9.335 6.06 17.084 11.106 24.581 1.044 1.544 2.081 3.087 3.079 4.638 3.392 5.268 4.123 11.282 4.831 17.097.592 4.866 1.206 9.899 3.4 14.364 2.679 5.457 4.827 11.255 6.904 16.862 2.408 6.501 4.899 13.224 8.234 19.456 3.859 7.213 8.43 13.253 13.589 17.955 1.779 1.622 3.641 2.81 5.442 3.959 3.791 2.424 7.371 4.712 8.656 10.423.377 1.671.611 3.389.833 5.048.215 1.592.437 3.237.788 4.821 4.104 18.638 22.197 22.655 38.156 26.201 19.175 4.258 40.505 20.453 49.621 37.669 9.794 18.504 9.61 42.956-.475 62.292-1.613 3.094-3.52 6.227-5.363 9.258-5.935 9.757-12.07 19.846-9.836 30.666 1.459 7.039 6.305 12.878 10.579 18.028 9.15 11.034 19.317 21.182 31.72 21.182.384 0 .772-.01 1.16-.03 10.722-.546 18.383-8.185 26.493-16.273 6.49-6.473 13.201-13.166 21.692-16.015 4.865-1.631 10.115-1.917 15.334-1.917 1.413 0 2.826.022 4.225.043 8.784.132 17.041.25 23.952-4.326 9.361-6.196 11.747-18.815 9.957-28.569-.686-3.75-3.644-9.283-6.776-15.138-6.553-12.256-14.705-27.505-6.437-35.067 4.93-4.503 12.768-2.557 18.478-.126 18.006 7.656 36.358 20.553 54.553 38.331 15.259 14.909 29.689 22.893 49.805 27.555 4.73 1.096 9.681 1.792 14.923 2.529 10.458 1.472 21.27 2.994 30.137 7.919 5.397 2.997 9.972 7.248 14.396 11.359 5.125 4.761 10.424 9.683 16.985 12.619 11.294 5.052 25.939 3.503 39.163-4.136 6.278-3.624 11.196-8.622 15.952-13.454 3.478-3.536 7.074-7.19 11.189-10.3 6.527-4.932 16.759-7.499 24.978-9.559 1.13-.285 2.227-.559 3.282-.832 7.379-1.91 14.991-2.247 22.351-2.572 6.411-.284 13.039-.578 19.314-1.931 12.561-2.708 22.257-15.507 25.008-26.176 3.09-12.007-1.628-25.935-5.792-38.224-.629-1.865-1.248-3.684-1.817-5.446-5.434-16.78-13.046-31.128-22.618-42.644-25.05-30.14-63.855-39.686-101.382-48.918-16.706-4.109-33.984-8.36-49.443-14.37l-4.206-1.627c-22.569-8.722-48.15-18.606-63.183-37.401-8.057-10.074-12.998-27.306-15.108-52.681-.837-10.061-.271-20.038.275-29.685.399-7.034.814-14.306.686-21.592-.516-29.2148-5.962-54.4423-16.19-74.9826-6.32-12.6946-15.896-25.0925-27.486-35.94925095l1.106-1e-7C532.012 10.7875 541.439 23.0485 547.691 35.607c10.276 20.6437 15.748 45.9823 16.265 75.31.132 7.316-.283 14.604-.682 21.65-.547 9.623-1.112 19.572-.279 29.578 2.099 25.219 6.987 42.314 14.942 52.264 14.905 18.63 40.38 28.477 62.859 37.163l4.206 1.627c15.413 5.993 32.666 10.239 49.349 14.342 37.648 9.26 76.577 18.836 101.792 49.172 9.636 11.591 17.29 26.026 22.755 42.9.572 1.758 1.187 3.576 1.816 5.437 4.198 12.39 8.954 26.433 5.807 38.662-2.807 10.891-12.73 23.963-25.588 26.737-6.343 1.368-13.005 1.661-19.446 1.947-7.322.324-14.893.661-22.189 2.548-1.059.273-2.159.55-3.294.834-8.151 2.045-18.292 4.589-24.695 9.425-4.07 3.076-7.646 6.712-11.106 10.227-4.793 4.87-9.749 9.905-16.118 13.58-13.438 7.765-28.343 9.325-39.863 4.173-6.678-2.988-12.022-7.953-17.193-12.757-4.394-4.08-8.935-8.298-14.248-11.251-8.74-4.855-19.48-6.366-29.87-7.828-5.257-.739-10.228-1.439-14.987-2.542-20.268-4.698-34.803-12.739-50.175-27.756-18.123-17.709-36.396-30.553-54.312-38.174-5.506-2.337-13.035-4.231-17.656-.013-7.827 7.158.17 22.115 6.599 34.136 3.158 5.91 6.147 11.493 6.855 15.361 1.832 10.005-.641 22.961-10.288 29.353-7.115 4.709-15.911 4.583-24.394 4.452-6.497-.098-13.242-.196-19.298 1.834-8.321 2.791-14.969 9.42-21.394 15.829-7.858 7.835-15.983 15.938-27.002 16.5-.403.019-.803.03-1.202.03-12.715-.001-23.037-10.283-32.312-21.46-4.33-5.222-9.24-11.14-10.736-18.367-2.299-11.115 3.919-21.336 9.93-31.221 1.835-3.02 3.734-6.141 5.336-9.214 9.972-19.118 10.156-43.288.475-61.574-9.018-17.037-30.13-33.063-49.1-37.278-16.19-3.594-34.535-7.668-38.745-26.787-.354-1.617-.58-3.276-.799-4.883-.222-1.645-.452-3.346-.821-4.983-1.214-5.402-4.507-7.506-8.321-9.943-1.828-1.166-3.716-2.372-5.544-4.039-5.223-4.761-9.847-10.871-13.747-18.159-3.362-6.279-5.861-13.028-8.28-19.554-2.069-5.588-4.209-11.367-6.874-16.79-2.253-4.582-2.871-9.679-3.474-14.611-.697-5.728-1.417-11.651-4.711-16.771-.995-1.547-2.031-3.085-3.068-4.627-5.102-7.576-10.374-15.409-11.237-24.942-1.187-13.147-8.679-24.33-19.084-28.487-11.645-4.655-25.197-1.046-36.985 2.695l-2.645.847c-14.336 4.591-30.582 9.799-44.6198 3.622-15.5866-6.849-22.4643-24.9096-27.6912-41.3008-4.4054-13.8359-7.7293-26.255-3.7798-38.1509 2.3251-7.0035 7.032-12.8762 11.5844-18.5532Z"
    />
    <path
        d="M264.379 22.1624c-.637 1.5975-1.198 3.7841-1.794 6.1004-1.579 6.1587-3.546 13.8227-8.46 16.3479-2.246 1.1554-4.956 1.1347-8.046-.0602-6.723-2.6023-10.201-9.7188-13.273-15.9961-4.583-9.3699-10.631-19.65584-18.233-28.55427195l.99-9e-8C223.019 8.84138 228.976 18.9673 233.5 28.2157c3.007 6.1513 6.418 13.1228 12.858 15.616 2.921 1.1271 5.34 1.1591 7.416.0922 4.606-2.3653 6.524-9.843 8.065-15.8531.599-2.3407 1.168-4.5498 1.824-6.1944 3.559-8.9283 10.696-16.43732 18.006-21.87627782l1.27-1.1e-7C275.449 5.4017 268.015 13.0464 264.379 22.1624Z"
    />
    <path
        d="m124.656.00017865 1.042-1e-7C117.919 8.76783 111.157 19.9108 104.811 34.4611c-4.545 10.4093-9.8054 25.6546-3.082 37.8121 6.157 11.1432 20.154 15.106 31.256 15.106h.143c7.511-.0244 15.048-1.4188 22.34-2.766 4.65-.8618 9.459-1.75 14.234-2.2825 16.054-1.7838 29.059-1.2005 39.747 1.8027 5.204 1.462 12.575 4.1057 16.506 10.1478 4.142 6.3728 1.662 11.6478-.965 17.2308-.901 1.921-1.835 3.908-2.529 5.998-.195.586-.388 1.175-.58 1.765-3.301 10.176-6.414 21.862-1.552 31.765 2.046 4.173 5.381 7.613 8.607 10.938 2.736 2.817 5.562 5.73 7.65 9.117 4.398 7.118 5.223 15.693 6.022 23.983.765 7.941 1.557 16.153 5.495 23.017 3.934 6.861 10.333 11.565 16.525 16.115 3.998 2.941 8.136 5.981 11.603 9.59 5.042 5.25 6.226 11.836 7.371 18.204 1.172 6.507 2.28 12.654 7.153 17.533 3.75 3.75 9.719 6.571 15.489 9.301 2.645 1.25 5.144 2.431 7.314 3.654l24.722 13.925c8.246 4.64 16.77 9.44 26.252 11.152 9.41 1.7 16.706-.922 24.424-3.697 4.07-1.464 8.279-2.975 12.93-3.888 16.506-3.244 39.501 6.251 54.719 12.523l.995.41c14.347 5.907 28.697 11.804 43.048 17.703l19.822 8.147c7.715 3.173 15.693 6.453 22.156 12.037 7.676 6.631 13.009 15.202 18.168 23.493 9.331 14.999 18.168 29.204 39.494 29.204.972 0 1.975-.03 3.004-.091 7.488-.442 14.889-2.207 22.046-3.914 4.544-1.083 9.244-2.205 13.932-2.98 6.584-1.09 10.16-3.003 14.294-5.222 2.208-1.181 4.488-2.405 7.416-3.598 1.843-.748 3.652-1.063 5.435-1.063 4.79 0 9.38 2.27 13.86 4.482 2.069 1.022 4.21 2.08 6.354 2.913 14.848 5.769 26.474 8.219 37.655 7.915 19.589-.512 41.688-13.17 44.759-33.468 2.537-16.814-8.407-32.052-19.498-40.706-10.605-8.276-23.418-13.428-35.809-18.41-2.25-.905-4.496-1.808-6.727-2.729-30.751-12.676-60.123-29.372-88.53-45.519-22.227-12.634-47.424-26.953-64.431-49.051-19.317-25.094-20.655-55.743-21.944-85.383l-.226-5.267c-.965-22.952-1.96-46.6877-8.758-68.8632-8.22-26.8138-24.658-47.482-45.106-56.70595-6.087-2.74699-12.557-4.5174-19.138-5.84070071l3.626-3.2e-7C467.929 1.24676 473.258 2.84829 478.33 5.13712c20.652 9.31608 37.245 30.15938 45.528 57.18388 6.825 22.2696 7.824 46.056 8.792 69.057l.223 5.265c1.288 29.52 2.615 60.046 21.786 84.946 16.913 21.976 42.038 36.254 64.204 48.852 28.385 16.135 57.734 32.818 88.44 45.478 2.231.918 4.474 1.822 6.72 2.725 12.443 5.001 25.305 10.176 35.997 18.519 11.26 8.786 22.374 24.283 19.785 41.429-3.132 20.694-25.592 33.601-45.498 34.122-.61.015-1.217.024-1.828.024-10.748-.001-21.989-2.496-36.129-7.991-2.178-.847-4.334-1.91-6.418-2.941-6.27-3.103-12.213-6.023-18.658-3.395-2.894 1.177-5.155 2.39-7.344 3.563-4.022 2.156-7.824 4.192-14.532 5.302-4.665.771-9.35 1.889-13.883 2.969-7.187 1.716-14.622 3.489-22.178 3.933-1.055.064-2.08.094-3.079.094-21.722-.002-30.672-14.383-40.12-29.568-5.129-8.242-10.431-16.762-18.017-23.316-6.369-5.504-14.287-8.759-21.945-11.909l-19.822-8.148c-14.351-5.897-28.701-11.794-43.048-17.703l-.995-.408c-15.142-6.24-38.032-15.669-54.275-12.479-4.597.901-8.777 2.403-12.816 3.855-7.828 2.813-15.24 5.465-24.824 3.734-9.61-1.737-18.194-6.569-26.493-11.243l-24.721-13.925c-2.148-1.208-4.636-2.384-7.27-3.628-5.83-2.756-11.859-5.607-15.7-9.451-5.05-5.053-6.225-11.604-7.367-17.942-1.127-6.256-2.291-12.724-7.172-17.806-3.418-3.562-7.529-6.582-11.505-9.504-6.252-4.597-12.719-9.35-16.736-16.352-4.021-7.009-4.82-15.306-5.593-23.327-.791-8.204-1.609-16.687-5.909-23.655-2.046-3.313-4.842-6.196-7.548-8.983-3.267-3.368-6.648-6.851-8.747-11.135-4.989-10.161-1.835-22.022 1.515-32.341.192-.594.384-1.183.58-1.77.705-2.134 1.651-4.142 2.563-6.084 2.642-5.617 4.925-10.469 1.014-16.4813-3.788-5.8257-10.986-8.3998-16.069-9.828-10.586-2.9712-23.49-3.5582-39.453-1.7763-4.745.5269-9.538 1.415-14.177 2.2712-7.323 1.3548-14.898 2.7566-22.48 2.7811h-.143c-11.321 0-25.611-4.07-31.935-15.5049-6.8848-12.4548-1.5561-27.9334 3.053-38.4934 6.253-14.338 12.913-25.40201 20.553-34.15222135Z"
    />
    <path
        d="M509.685 296.647c3.829 0 7.541-.564 11.038-1.708 13.224-4.33 21.929-17.769 19.401-29.959-1.534-7.383-6.577-13.305-11.449-19.031-1.357-1.592-2.755-3.236-4.051-4.879-15.979-20.288-20.467-46.825-24.809-72.489-.622-3.677-1.243-7.342-1.892-10.974-3.994-22.285-10.058-47.811-24.755-68.1843-27.646-38.3164-73.992-42.6781-115.265-43.7581-11.139-.2973-27.175 1.2945-40.364 10.5053-11.31 7.9011-18.444 20.561-18.169 32.2556v.0018l.385-.0112-.385.0226c.008.2465.016.4948.027.7413.275 5.4531 1.628 10.874 2.936 16.118 1.906 7.651 3.881 15.562 2.506 23.64-1.504 8.821-6.897 16.733-12.112 24.384-6.889 10.107-13.398 19.652-11.788 31.163 1.503 10.789 9.459 18.066 17.877 25.769 5.548 5.077 11.287 10.327 14.958 16.658 3.384 5.836 4.967 12.572 6.501 19.086.908 3.858 1.846 7.845 3.15 11.636 3.501 10.184 11.69 20.242 22.231 20.242.256 0 .512-.006.772-.017 7.79-.362 13.91-5.965 19.83-11.384 6.158-5.642 11.988-10.98 19.544-10.98.207 0 .411.004.618.013 6.508.249 11.581 4.437 16.951 8.872 4.718 3.895 9.598 7.924 15.541 9.021 5.31.988 10.582-.542 15.689-2.012 3.757-1.08 7.642-2.197 11.52-2.323.26-.01.52-.014.78-.014 10.194 0 18.892 6.496 27.315 12.783 3.063 2.288 6.237 4.655 9.432 6.676 8.483 5.359 17.539 8.136 26.037 8.136ZM355.495 46.404c.818 0 1.613.0113 2.386.032 41.088 1.0745 87.223 5.4079 114.661 43.4383 14.607 20.2467 20.644 45.6697 24.62 67.8677.652 3.63 1.27 7.292 1.892 10.967 4.356 25.76 8.86 52.395 24.967 72.839 1.3 1.652 2.705 3.304 4.066 4.9 4.812 5.653 9.787 11.499 11.283 18.691 2.657 12.819-7.62 25.38-18.888 29.066-11.031 3.614-24.307 1.306-36.419-6.345-3.173-2.004-6.331-4.364-9.388-6.644-8.52-6.361-17.324-12.935-27.77-12.935-.268 0-.539.006-.806.013-3.976.13-7.907 1.261-11.709 2.356-5.25 1.509-10.209 2.932-15.334 1.995-5.751-1.062-10.552-5.026-15.191-8.859-5.235-4.321-10.647-8.79-17.415-9.049-.211-.008-.418-.012-.629-.012-7.877 0-14.08 5.681-20.087 11.181-5.814 5.325-11.829 10.833-19.343 11.181-.245.011-.49.017-.735.017-10.164 0-18.089-9.798-21.5-19.718-1.292-3.758-2.227-7.726-3.128-11.565-1.549-6.569-3.146-13.361-6.583-19.296-3.731-6.434-9.516-11.723-15.108-16.839-8.314-7.608-16.167-14.792-17.637-25.307-1.564-11.216 4.861-20.643 11.663-30.622 5.265-7.72 10.707-15.704 12.237-24.691 1.402-8.236-.592-16.226-2.521-23.954-1.297-5.2084-2.642-10.5918-2.913-15.9677-.012-.2409-.019-.4855-.027-.7282h-.384l.384-.0095c-.264-11.4424 6.738-23.8482 17.844-31.6044 12.101-8.4525 26.67-10.3982 37.512-10.3982Z"
    />
    <path
        d="M474.849 253.645c4.918 0 9.979-1.497 12.865-5.773 3.4-5.037 2.258-11.538.799-17.764-4.254-18.098-8.505-36.194-12.756-54.29-3.004-12.783-6.109-25.999-12.534-37.794-23.15-42.5028-74.757-66.7594-117.481-55.2116-15.01 4.055-14.369 13.6082-13.631 24.6686.204 2.99.411 6.084.321 9.224-.264 9.009-4.247 17.419-8.099 25.551-3.203 6.769-6.519 13.765-7.774 21.186-3.038 17.919 5.83 35.125 15.986 52.643 5.065 8.735 11.298 18.196 21.213 19.869 4.56.762 9.127-.322 13.548-1.374 3.011-.717 6.12-1.456 9.199-1.607 8.43-.421 16.329 3.53 23.941 7.344 6.622 3.318 13.465 6.748 20.825 7.467 4.413.427 8.883-.137 13.213-.683 4.684-.593 9.53-1.208 14.23-.531 3.934.563 7.733 2.023 11.411 3.436 2.691 1.033 5.472 2.102 8.313 2.826 1.96.503 4.172.813 6.411.813ZM367.89 80.7106c36.868 0 75.529 22.5704 94.654 57.6824 6.377 11.702 9.467 24.868 12.459 37.602 4.251 18.096 8.502 36.192 12.757 54.289 1.424 6.059 2.54 12.378-.686 17.159-3.976 5.884-12.414 6.182-18.447 4.644-2.793-.715-5.555-1.774-8.223-2.8-3.72-1.428-7.56-2.905-11.577-3.481-4.801-.686-9.697-.069-14.441.529-4.281.542-8.709 1.105-13.039.681-7.217-.704-13.997-4.102-20.554-7.387-7.703-3.861-15.677-7.873-24.326-7.427-3.15.154-6.297.905-9.338 1.629-4.549 1.082-8.841 2.108-13.243 1.363-9.583-1.617-15.696-10.91-20.67-19.496-10.089-17.391-18.892-34.463-15.896-52.128 1.24-7.316 4.53-14.263 7.71-20.985 3.886-8.204 7.903-16.688 8.171-25.857.094-3.179-.117-6.289-.317-9.3-.75-11.1636-1.342-19.981 13.062-23.8705 7.122-1.9249 14.497-2.8469 21.944-2.8469Z"
    />
    <path
        d="M456.138 237.67c2.186 0 4.224-.271 6.011-.939 6.323-2.369 9.436-9.634 9.715-15.783.358-7.83-2.088-16.066-4.455-24.029-1.062-3.581-2.068-6.964-2.822-10.287-1.609-7.083-4.021-14.265-6.35-21.211-.63-1.883-1.259-3.757-1.869-5.618-4.202-12.826-9.376-27.303-17.592-36.778-10.955-12.641-22.317-21.915-33.762-27.566-12.007-5.9253-30.197-9.5457-45.215-1.9117-12.18 6.1888-18.198 23.2987-22.592 35.7907l-.588 1.67c-3.931 11.124-8.182 24.091-8.841 37.23-1.078 21.397 10.623 46.888 32.066 52.512 5.939 1.56 12.169 1.981 18.191 2.39 3.343.225 6.798.461 10.16.886 7.673.971 15.296 2.854 22.671 4.676 6.75 1.667 13.729 3.393 20.716 4.409 2.438.353 5.34 1.067 8.411 1.823 5.314 1.308 11.121 2.734 16.145 2.736ZM378.951 89.9815c9.428 0 18.658 2.6795 25.724 6.17 11.35 5.6035 22.63 14.8145 33.521 27.3785 8.117 9.365 13.257 23.758 17.441 36.514.606 1.862 1.236 3.738 1.869 5.622 2.325 6.928 4.725 14.092 6.327 21.135.761 3.349 1.771 6.744 2.838 10.338 2.348 7.901 4.775 16.073 4.424 23.775-.267 5.895-3.222 12.85-9.218 15.094-5.656 2.123-14.177.027-21.699-1.823-3.09-.76-6.011-1.477-8.483-1.838-6.953-1.011-13.913-2.731-20.644-4.392-7.394-1.827-15.04-3.716-22.758-4.693-3.388-.429-6.855-.664-10.205-.892-5.989-.404-12.177-.824-18.048-2.365-21.062-5.525-32.553-30.639-31.494-51.729.656-13.034 4.888-25.939 8.804-37.013l.588-1.669c4.349-12.37 10.307-29.31 22.208-35.3581 5.958-3.0295 12.428-4.2544 18.805-4.2544Z"
    />
    <path
        d="M432.038 222.146c7.82 0 16.623-1.72 19.736-12.287 1.567-5.306 1.085-10.993.407-15.853-2.996-21.609-12.078-42.88-25.581-59.89-10.398-13.102-26.109-32.918-48.961-23.493-9.934 4.097-18.602 12.871-24.405 24.71-6.275 12.794-12.583 32.034-6.998 51.033 4.541 15.437 19.521 27.604 38.164 30.997 15.168 2.762 30.672 4.364 46.074 4.762.516.014 1.036.021 1.564.021Zm-42.411-113.293c14.493 0 25.532 12.088 36.37 25.741 13.416 16.905 22.442 38.042 25.422 59.517.664 4.781 1.139 10.364-.384 15.53-3.158 10.71-12.131 11.931-20.538 11.713-15.365-.397-30.831-1.995-45.962-4.747-18.352-3.342-33.099-15.298-37.561-30.459-5.513-18.762.739-37.805 6.953-50.476 5.721-11.67 14.245-20.312 24.006-24.337 4.153-1.711 8.034-2.482 11.694-2.482Z"
    />
    <path
        d="M422.945 211.598c2.992 0 5.807-.516 8.328-2.023 5.879-3.515 7.436-11.098 7.839-15.304 1.858-19.231-8.404-37.091-18.692-52.028-4.315-6.272-19.842-25.897-38.439-15.087-6.064 3.528-10.929 9.662-13.691 17.272-1.809 4.973-2.883 10.729-3.106 16.645-.542 14.31 3.848 27.427 11.747 35.087 10.228 9.924 25.517 12.496 37.802 14.564 2.815.473 5.581.874 8.212.874Zm-29.806-86.843c13.066 0 23.297 13.064 26.648 17.925 10.205 14.821 20.391 32.534 18.556 51.516-.392 4.062-1.88 11.376-7.469 14.716-4.507 2.701-10.145 2.04-16.013 1.052-12.18-2.049-27.337-4.6-37.395-14.357-7.741-7.511-12.048-20.41-11.513-34.504.222-5.839 1.281-11.512 3.06-16.412 2.706-7.442 7.447-13.433 13.36-16.869 3.734-2.172 7.348-3.067 10.766-3.067Z"
    />
    <path
        d="M520.467 321.519c9.063 0 18.44-1.217 24.518-2.2 12.267-1.977 21.281-7.103 25.385-14.43 3.509-6.261 3.463-13.861-.132-22.588-3.798-9.214-10.341-17.413-16.668-25.34-2.687-3.363-5.461-6.84-7.929-10.285-7.718-10.782-16.412-23.478-21.865-37.702-4.929-12.859-7.134-26.749-9.267-40.184-.803-5.051-1.632-10.274-2.593-15.374-7.424-39.291-19.728-68.9214-37.61-90.5851-12.432-15.0571-25.637-24.2076-41.563-28.797-9.293-2.6795-18.99-4.1341-28.37-5.5397-2.77-.4158-5.543-.8316-8.309-1.2776-1.097-.1769-2.243-.3331-3.411-.4911-4.62-.6247-9.399-1.272-13.005-3.4679-1.862-1.1328-3.448-2.5572-4.986-3.9346-2.291-2.0548-4.662-4.1792-8.019-5.4418-7.688-2.8827-17.159-2.4951-26.651 1.0801-3.543 1.336-6.773 3.2083-9.893 5.0184-1.948 1.1309-3.964 2.3013-6.041 3.3287-2.559 1.2701-5.084 1.844-7.756 2.4518-1.857.4234-3.783.8618-5.713 1.5561-8.976 3.2365-17.312 11.275-22.306 21.5056-9.195 18.8468-6.433 41.8596-2.521 61.8841.671 3.423 1.172 6.496.486 9.459-.629 2.731-2.777 5.856-6.007 6.266-1.379.173-2.751-.156-4.202-.506-1.353-.327-2.747-.685-4.168-.557-2.163.162-4.009 1.274-5.34 3.216-2.072 3.028-2.675 7.929-1.458 11.917.641 2.109 1.575 4.171 2.476 6.168 1.673 3.707 3.256 7.208 3.211 11.079-.053 4.247-2.145 8.185-4.168 11.992-2.001 3.767-4.07 7.662-4.259 11.947-.399 8.945 7.104 15.76 13.721 21.772l.716.65c3.2 2.912 6.497 5.818 9.689 8.627 2.416 2.126 4.832 4.254 7.236 6.409 4.722 4.239 9.602 8.62 12.674 14.286 2.035 3.757 2.743 8.017 3.433 12.138.509 3.056 1.032 6.215 2.095 9.19 2.333 6.541 6.365 13.033 11.984 19.295 7.473 8.324 17.377 12.675 26.384 11.681 5.543-.621 10.619-3.159 15.526-5.615 2.879-1.439 5.856-2.929 8.898-4.015 11.486-4.102 25.185-2.23 35.725 4.907 1.496 1.013 2.759 2.117 3.984 3.186 2.562 2.243 4.985 4.36 8.924 5.005 4.062.674 8.136-.44 12.07-1.518 2.491-.681 5.069-1.387 7.567-1.604 11.378-1.014 21.59 6.513 31.08 14.284l2.091 1.72c8.928 7.356 18.161 14.961 29.429 17.88 4.375 1.134 9.591 1.554 14.908 1.554ZM355.522 12.7353c3.862 0 7.529.6209 10.849 1.8685 3.222 1.2099 5.435 3.1932 7.779 5.2931 1.56 1.4 3.173 2.8489 5.098 4.0192 3.743 2.2787 8.604 2.9373 13.303 3.5733 1.161.1581 2.299.3105 3.392.4874 2.766.4478 5.544.8637 8.317 1.2795 9.354 1.4019 19.028 2.8527 28.272 5.519 15.764 4.5442 28.852 13.6157 41.179 28.5449 17.799 21.562 30.046 51.0778 37.444 90.2388.961 5.088 1.79 10.306 2.593 15.353 2.137 13.473 4.349 27.403 9.304 40.337 5.487 14.31 14.215 27.053 21.963 37.874 2.476 3.463 5.258 6.948 7.948 10.32 6.298 7.884 12.806 16.039 16.559 25.152 3.505 8.497 3.562 15.872.174 21.917-3.988 7.119-12.806 12.107-24.831 14.047-9.595 1.547-27.435 3.69-39.11.661-11.106-2.878-20.271-10.427-29.135-17.73l-2.091-1.719c-9.614-7.875-19.981-15.479-31.637-14.457-2.567.224-5.178.937-7.703 1.627-3.859 1.056-7.85 2.142-11.739 1.502-3.724-.612-5.958-2.563-8.544-4.825-1.239-1.083-2.524-2.205-4.062-3.245-10.737-7.269-24.695-9.185-36.415-4.994-3.087 1.102-6.083 2.602-8.985 4.053-4.846 2.425-9.858 4.932-15.262 5.536-8.8.986-18.417-3.291-25.728-11.43-5.551-6.187-9.531-12.592-11.833-19.038-1.037-2.909-1.557-6.035-2.058-9.057-.697-4.183-1.417-8.509-3.516-12.378-3.132-5.784-8.068-10.211-12.839-14.492-2.405-2.157-4.82-4.288-7.24-6.417-3.188-2.805-6.482-5.709-9.677-8.616l-.716-.651c-6.494-5.899-13.854-12.584-13.473-21.169.185-4.109 2.212-7.927 4.172-11.619 2.069-3.889 4.202-7.91 4.254-12.346.049-4.038-1.643-7.782-3.278-11.404-.89-1.972-1.809-4.014-2.438-6.076-1.154-3.779-.596-8.408 1.356-11.256 1.195-1.743 2.842-2.738 4.764-2.883 1.296-.083 2.574.213 3.926.538 1.455.352 2.963.713 4.481.521 3.595-.457 5.973-3.874 6.663-6.856.716-3.111.207-6.27-.482-9.78-3.889-19.9001-6.637-42.7567 2.457-61.3984 4.906-10.0556 13.084-17.9492 21.876-21.118 1.884-.6792 3.784-1.112 5.623-1.5316 2.596-.5909 5.283-1.2024 7.929-2.5139 2.095-1.0387 4.123-2.2129 6.082-3.3513 3.094-1.7951 6.294-3.6504 9.776-4.9619 5.2-1.9607 10.386-2.9486 15.259-2.9486Z"
    />
    <path
        d="M267.707 72.3484c-4.052 2.7623-9.961 2.322-17.102-1.2795-16.966-8.5635-30.815-23.5566-37.994-41.1352-1.067-2.6061-1.994-5.5716-2.978-8.714l-.493-1.5637c-2.447-7.7522-5.089-15.06081-9.917-19.65586619l1.119-1e-7C204.933 4.73536 207.496 11.88 209.878 19.4227l.49 1.5674c.98 3.1255 1.903 6.076 2.959 8.6539 7.107 17.4073 20.825 32.2555 37.625 40.7362 4.793 2.4198 11.516 4.6119 16.317 1.3322 5.608-3.8254 4.613-11.512 3.648-18.9446-.606-4.6647-1.175-9.0735-.271-12.6957 3.184-12.769 12.154-21.7257 27.424-27.3782 3.618-1.3398 7.382-2.4932 11.023-3.61095 7.688-2.35776 15.639-4.7964 22.528-9.0828278l1.388-1.3e-7C332.681.213229 332.355.451 332.028.654955c-6.976 4.339125-14.972 6.792795-22.709 9.165585-3.629 1.11396-7.383 2.26556-10.978 3.59586-15.014 5.5585-23.828 14.3383-26.949 26.842-.867 3.4811-.305 7.8184.29 12.4115.995 7.6622 2.024 15.5859-3.975 19.6785Z"
    />
    <path
        d="m150.386.00017208 1.547-1.4e-7C136.952 8.14594 124.372 21.3926 119.151 32.5324c-5.265 11.2279-5.046 28.0011 5.717 36.9653 5.879 4.8961 14.565 7.1428 24.503 6.3506 6.425-.5193 12.801-2.1601 18.971-3.7464 2.174-.5588 4.42-1.1365 6.644-1.6577 17.282-4.0663 31.294-3.8819 42.837.5438 12.617 4.8359 24.966 17.7196 24.148 32.982-.241 4.567-1.624 9.111-2.958 13.506-2.035 6.697-3.957 13.024-2.212 19.427 1.24 4.561 4.085 7.786 7.096 11.199 1.986 2.253 4.04 4.58 5.559 7.309 3.467 6.236 3.58 13.862 3.689 21.238.03 2.004.057 3.899.151 5.743.671 12.938 7.315 26.993 17.343 36.681 2.939 2.84 6.154 5.307 9.267 7.693 7.48 5.741 14.55 11.164 17.463 21.099.652 2.218 1.191 4.512 1.711 6.73 1.134 4.836 2.306 9.838 4.695 14.232 3.434 6.314 9.833 10.751 16.024 15.044 1.986 1.377 3.863 2.679 5.649 4.041 11.268 8.605 21.119 12.591 28.491 11.507 2.242-.328 4.379-1.291 6.448-2.223.38-.171.765-.342 1.145-.509 14.728-6.477 32.183-7.326 47.861-2.339 1.673.53 3.184 1.07 4.642 1.592 5.05 1.802 9.037 3.221 15.124 2.758 22.505-1.731 33.871 6.031 50.581 18.828 10.209 7.816 25.645 12.225 40.802 15.827 3.546.843 7.202 1.603 10.737 2.339 11.889 2.476 24.186 5.035 35.013 11.22 8.072 4.614 12.806 11.574 17.814 18.945 3.524 5.187 7.171 10.552 12.089 14.989 10.191 9.19 22.755 13.196 33.578 10.705 4.843-1.114 9.376-3.502 13.763-5.813 4.824-2.54 9.809-5.167 15.259-6.136 1.748-.31 3.527-.436 5.317-.436 4.13 0 8.336.675 12.44 1.336 8.37 1.347 16.269 2.615 23.531-1.276 4.104-2.205 7.375-6.266 8.747-10.865 1.145-3.825.836-7.651-.86-10.771-2.027-3.733-5.732-6.314-9.003-8.591-14.015-9.777-28.17-19.859-41.861-29.608-14.998-10.682-30.51-21.73-45.878-32.406-2.355-1.636-4.729-3.267-7.107-4.904-22.661-15.582-46.093-31.697-60.5-55.703-12.195-20.318-16.639-44.889-20.562-66.568-.81-4.489-1.594-9.009-2.378-13.542-4.763-27.523-9.689-55.9835-22.321-81.2299-7.737-15.4598-17.75-27.6473-29.771-36.2221-20.633-14.7184-41.793-17.9793-65.324-20.47254-1.221-.12982-2.416-.22765-3.58-.32366-5.506-.45348-10.707-.88061-15.764-4.52164-1.444-1.03986-2.792-2.24316-4.094-3.49800904l1.135-1e-7C382.058 1.02518 383.181 2.01614 384.373 2.87344c4.884 3.51496 9.746 3.91387 15.372 4.37679 1.176.09783 2.374.19566 3.603.32553 23.64 2.50454 44.902 5.78424 65.693 20.61174 12.12 8.6501 22.219 20.9317 30.013 36.5044 12.681 25.3498 17.614 53.8661 22.389 81.4461.783 4.531 1.564 9.047 2.378 13.537 3.908 21.613 8.339 46.108 20.463 66.308 14.32 23.863 37.681 39.927 60.274 55.464 2.382 1.637 4.756 3.27 7.107 4.905 15.376 10.679 30.891 21.728 45.89 32.412 13.687 9.747 27.842 19.827 41.857 29.603 3.335 2.325 7.119 4.963 9.237 8.855 1.797 3.302 2.121 7.336.923 11.359-1.432 4.791-4.843 9.025-9.127 11.322-7.481 4.016-15.885 2.667-24.014 1.361-5.826-.941-11.852-1.91-17.501-.902-5.332.947-10.265 3.546-15.036 6.059-4.428 2.334-9.007 4.746-13.947 5.882-2.175.499-4.417.746-6.697.746-9.324 0-19.235-4.106-27.575-11.631-4.985-4.499-8.656-9.903-12.21-15.129-4.955-7.293-9.64-14.184-17.557-18.707-10.722-6.125-22.955-8.673-34.788-11.136-3.538-.736-7.198-1.498-10.759-2.344-15.24-3.621-30.766-8.06-41.088-15.963-16.567-12.688-27.827-20.378-50.054-18.673-6.267.496-10.507-1.041-15.444-2.8-1.454-.519-2.958-1.056-4.616-1.585-15.508-4.93-32.749-4.09-47.318 2.309-.377.168-.757.339-1.134.51-2.118.952-4.308 1.938-6.655 2.283-7.613 1.091-17.645-2.93-29.071-11.657-1.771-1.353-3.644-2.65-5.623-4.023-6.263-4.343-12.741-8.835-16.261-15.308-2.438-4.486-3.625-9.538-4.771-14.423-.516-2.209-1.051-4.493-1.696-6.689-2.845-9.696-9.817-15.044-17.196-20.708-3.127-2.397-6.361-4.879-9.33-7.748-10.164-9.819-16.899-24.071-17.577-37.193-.098-1.861-.124-3.762-.154-5.773-.106-7.281-.219-14.809-3.596-20.878-1.473-2.653-3.501-4.95-5.46-7.171-2.936-3.33-5.973-6.772-7.262-11.506-1.802-6.618.241-13.347 2.219-19.853 1.323-4.351 2.691-8.85 2.929-13.325.795-14.8948-11.298-27.4832-23.659-32.2212-11.393-4.3692-25.257-4.5348-42.385-.5137-2.212.5212-4.455 1.097-6.625 1.6559-6.199 1.5937-12.61 3.2421-19.103 3.7671-10.118.8015-19.024-1.5016-25.061-6.5275-11.057-9.2108-11.302-26.3942-5.92-37.8837 5.14-10.9614 17.33-23.92751 31.936-32.20472792Z"
    />
    <path
        d="M158.51 57.6055c1.349 0 2.781-.1223 4.296-.3688 9.952-1.6182 19.359-7.7656 23.967-15.6611 3.626-6.2113 4.214-13.0926 1.696-19.9005-1.469-3.9778-3.734-6.6178-6.73-7.8428-3.584-1.4696-8.144-.9239-13.571 1.622-7.205 3.3814-13.287 9.0414-14.98 10.6973-4.733 4.6232-7.608 9.3745-8.55 14.1163-1.191 5.9536 1.04 12.1499 5.415 15.0646 2.269 1.5129 5.099 2.273 8.457 2.273Zm18.914-43.8071c1.466 0 2.807.2484 4.025.747 2.784 1.1403 4.902 3.6298 6.297 7.3969 2.434 6.584 1.869 13.2394-1.64 19.2457-4.495 7.7036-13.691 13.7042-23.421 15.2886-5.095.8204-9.191.2239-12.202-1.7838-4.127-2.7492-6.218-8.6181-5.092-14.2744.912-4.5875 3.72-9.2032 8.34-13.7174 1.67-1.6332 7.669-7.2199 14.769-10.5505 3.335-1.5656 6.323-2.3521 8.924-2.3521ZM121.378 566.04c.727 0 1.413-.102 2.058-.303 1.771-.559 3.173-1.891 4.157-3.959 1.428-2.996 1.258-6.464.866-9.766-.524-4.358-1.503-9.965-4.477-14.669-2.819-4.46-7.413-7.288-11.988-7.382-.075-.002-.154-.002-.229-.002-3.784 0-7.18 1.906-9.584 5.387-3.6554 5.291-1.933 12.457.897 17.398 1.862 3.248 6.9 8.466 11.796 11.232 2.427 1.373 4.605 2.064 6.504 2.064Zm-9.617-35.31c.071 0 .147 0 .218.002 4.319.089 8.668 2.78 11.347 7.021 2.895 4.576 3.852 10.072 4.364 14.349.381 3.188.551 6.526-.791 9.345-.893 1.866-2.137 3.063-3.697 3.554-2.088.659-4.831.07-7.952-1.695-4.778-2.704-9.692-7.786-11.501-10.946-2.714-4.736-4.3868-11.58-.935-16.577 2.868-4.147 6.407-5.053 8.947-5.053Z"
    />
    <path
        d="M165.135 595.371c7.824 0 13.333-1.992 16.755-6.036 5.985-7.069 3.543-17.513.366-26.795-4.311-12.581-8.77-25.589-16.631-36.691-9.425-13.305-26.15-22.655-40.674-22.736-.067-.002-.135-.002-.203-.002-10.499 0-19.389 4.609-25.7203 13.334-7.5634 10.424-9.1764 25.092-4.2094 38.279 4.4242 11.747 13.7477 22.098 26.2557 29.145 10.484 5.908 22.935 9.559 38.062 11.164 2.133.226 4.134.338 5.999.338Zm-40.383-91.488h.196c14.29.081 30.755 9.297 40.044 22.41 7.801 11.012 12.24 23.967 16.533 36.495 3.109 9.079 5.513 19.274-.223 26.05-4.062 4.798-11.305 6.579-22.083 5.427-15.022-1.592-27.379-5.212-37.769-11.066-12.345-6.959-21.548-17.168-25.9082-28.746-4.8765-12.948-3.3012-27.339 4.1115-37.557 6.1767-8.516 14.8517-13.013 25.0987-13.013ZM.00024414 374.318C2.49337 379.694 4.58893 385.123 6.23083 390.516c6.08247 19.981 9.75297 40.923 13.29917 61.175 2.7059 15.432 5.5021 31.388 9.3423 46.799 4.526 18.151 8.7769 36.805 12.8844 54.847 5.914 25.977 12.0615 52.729 19.1388 78.663h-.8013c-7.057-25.885-13.1894-52.574-19.0912-78.492-4.1075-18.038-8.3549-36.689-12.8771-54.832-3.8512-15.437-6.6475-31.407-9.3533-46.851-3.5465-20.23-7.2093-41.149-13.2804-61.083-1.47515-4.846-3.32127-9.72-5.4919557-14.559l-1.6e-7-1.865ZM0 473.385c4.07518 8.561 7.0575 18.166 10.0028 27.656 1.1607 3.736 2.3589 7.597 3.595 11.274 11.057 32.882 19.4985 66.848 25.0872 100.955.8364 5.103 1.6356 10.334 2.4079 15.394.1698 1.11.3403 2.223.5106 3.336h-.7826c-.1642-1.074-.3293-2.148-.4928-3.22-.7688-5.057-1.5677-10.287-2.4045-15.386-5.5847-34.066-14.0152-67.992-25.0567-100.835-1.2398-3.684-2.4385-7.551-3.59893-11.29-2.76351-8.9-5.56069-17.902-9.26796984-26.033L0 473.385Zm-.0004882 84.018-8e-8-.937C5.24514 560.107 10.1391 564.83 14.4982 570.586c12.636 16.689 5.9847 36.395-.4445 55.455-.6887 2.041-1.3468 4.012-1.9815 5.959h-.8096c.6586-2.028 1.3412-4.079 2.0598-6.206 6.3651-18.869 12.9491-38.38.558-54.741-4.18551-5.528-8.86609-10.098-13.8808882-13.65Zm.00024598-281.073C17.0235 288.087 32.4808 302.469 45.585 318.849c10.0623 12.583 18.6619 26.221 25.551 40.535.8818 1.831 1.7976 3.65 2.7171 5.47 3.045 6.042 6.1915 12.289 8.0082 18.961.8291 3.056.8967 6.744.961 10.31.0904 5.071.1846 10.314 2.4495 13.87 4.1605 6.518 7.0359 6.58 13.1935 6.065 5.8417-.484 15.7377-3.47 17.4147-9.424.686-2.44.056-5.069-.505-7.389-.603-2.522-1.1-5.145-1.628-7.922-1.361-7.184-2.77-14.613-6.128-20.463-3.29-5.739-8.803-10.031-14.132-14.184-2.2875-1.782-4.6539-3.624-6.7643-5.53-7.4466-6.727-13.2389-15.703-18.839-24.383-2.6794-4.151-5.453-8.445-8.3098-12.323-13.1332-17.804-26.7153-36.215-45.2789-49.066-4.54766-3.149-9.35397-5.825-14.29524407-8.201l-7e-8-.852C5.08918 256.754 10.0443 259.497 14.7322 262.743c18.6729 12.924 32.2926 31.387 45.4599 49.244 2.8752 3.895 5.6526 8.2 8.3398 12.36 5.5735 8.639 11.3358 17.569 18.7109 24.229 2.0875 1.887 4.4431 3.722 6.7193 5.494 5.389 4.198 10.9589 8.537 14.3279 14.408 3.422 5.963 4.843 13.456 6.218 20.702.524 2.77 1.021 5.385 1.62 7.886.551 2.292 1.237 5.145.498 7.779-1.786 6.33-12.048 9.482-18.1004 9.982-1.2887.107-2.4421.179-3.4933.179-4.4395 0-7.017-1.283-10.4089-6.597-2.3853-3.739-2.4795-9.092-2.5737-14.271-.0641-3.518-.1281-7.156-.9346-10.119-1.7941-6.599-4.9255-12.811-7.9516-18.819-.9195-1.825-1.8391-3.647-2.7209-5.481-6.8663-14.263-15.4322-27.851-25.4605-40.388-12.9443-16.182-28.1928-30.407-44.98234214-42.065l-8e-8-.936Z"
    />
</svg>
