<svg
    xmlns="http://www.w3.org/2000/svg"
    width="24"
    height="24"
    viewBox="0 0 24 24"
    fill="currentColor"
    stroke="currentColor"
    stroke-width="2"
    stroke-linecap="round"
    stroke-linejoin="round"
>
    <path vector-effect="non-scaling-stroke" d="M10 2v5.632c0 .424-.272.795-.653.982A6 6 0 0 0 6 14c.006 4 3 7 5 8" />
    <path vector-effect="non-scaling-stroke" d="M10 5H8a2 2 0 0 0 0 4h.68" />
    <path vector-effect="non-scaling-stroke" d="M14 2v5.632c0 .424.272.795.652.982A6 6 0 0 1 18 14c0 4-3 7-5 8" />
    <path vector-effect="non-scaling-stroke" d="M14 5h2a2 2 0 0 1 0 4h-.68" />
    <path vector-effect="non-scaling-stroke" d="M18 22H6" />
    <path vector-effect="non-scaling-stroke" d="M9 2h6" />
</svg>
