
<svg
  
  xmlns="http://www.w3.org/2000/svg"
  width="24"
  height="24"
  viewBox="0 0 24 24"
  fill="none"
  stroke="currentColor"
  stroke-width="calc((100vw - 100vh) / 10)"
  stroke-linecap="round"
  stroke-linejoin="round"
>
  <path vector-effect="non-scaling-stroke" d="M14 4.5a1 1 0 0 1 5 0 .5.5 0 0 0 .5.5 1 1 0 0 1 0 5c-.81 0-1.8-.7-2.5 0l-1.958 1.957a.15.15 0 0 1-.252-.072l-.493-2.07a.15.15 0 0 0-.111-.112l-2.072-.494a.15.15 0 0 1-.072-.252L14 7c.7-.7 0-1.69 0-2.5" />
  <path vector-effect="non-scaling-stroke" d="m16 20-1-2" />
  <path vector-effect="non-scaling-stroke" d="m20 16-2-1" />
  <path vector-effect="non-scaling-stroke" d="m4 8 2 1" />
  <path vector-effect="non-scaling-stroke" d="m8 4 1 2" />
  <path vector-effect="non-scaling-stroke" d="M9.698 14.19a.15.15 0 0 0 .112.112l2.074.489a.15.15 0 0 1 .072.252L10 17c-.7.7 0 1.69 0 2.5a1 1 0 0 1-5 0 .495.495 0 0 0-.5-.5 1 1 0 0 1 0-5c.81 0 1.8.7 2.5 0l1.956-1.957a.15.15 0 0 1 .252.072z" />
</svg>