<svg
    xmlns="http://www.w3.org/2000/svg"
    width="24"
    height="24"
    viewBox="0 0 24 24"
    fill="currentColor"
    stroke="currentColor"
    stroke-width="2"
    stroke-linecap="round"
    stroke-linejoin="round"
>
    <path vector-effect="non-scaling-stroke" d="m15.228 16.852-.923-.383" />
    <path vector-effect="non-scaling-stroke" d="m15.228 19.148-.923.383" />
    <path vector-effect="non-scaling-stroke" d="M16 2v4" />
    <path vector-effect="non-scaling-stroke" d="m16.47 14.305.382.923" />
    <path vector-effect="non-scaling-stroke" d="m16.852 20.772-.383.924" />
    <path vector-effect="non-scaling-stroke" d="m19.148 15.228.383-.923" />
    <path vector-effect="non-scaling-stroke" d="m19.53 21.696-.382-.924" />
    <path vector-effect="non-scaling-stroke" d="m20.772 16.852.924-.383" />
    <path vector-effect="non-scaling-stroke" d="m20.772 19.148.924.383" />
    <path vector-effect="non-scaling-stroke" d="M21 11V6a2 2 0 0 0-2-2H5a2 2 0 0 0-2 2v14a2 2 0 0 0 2 2h6" />
    <path vector-effect="non-scaling-stroke" d="M3 10h18" />
    <path vector-effect="non-scaling-stroke" d="M8 2v4" />
    <circle vector-effect="non-scaling-stroke" cx="18" cy="18" r="3" />
</svg>
