<svg
    xmlns="http://www.w3.org/2000/svg"
    width="24"
    height="24"
    viewBox="0 0 24 24"
    fill="none"
    stroke="currentColor"
    stroke-width="calc((100vw - 100vh) / 10)"
    stroke-linecap="round"
    stroke-linejoin="round"
>
    <path
        vector-effect="non-scaling-stroke"
        d="M4 20a2 2 0 0 1 2-2h12a2 2 0 0 1 2 2v1a1 1 0 0 1-1 1H5a1 1 0 0 1-1-1z"
    />
    <path
        vector-effect="non-scaling-stroke"
        d="m6.7 18-1-1C4.35 15.682 3 14.09 3 12a5 5 0 0 1 4.95-5c1.584 0 2.7.455 4.05 1.818C13.35 7.455 14.466 7 16.05 7A5 5 0 0 1 21 12c0 2.082-1.359 3.673-2.7 5l-1 1"
    />
    <path vector-effect="non-scaling-stroke" d="M10 4h4" />
    <path vector-effect="non-scaling-stroke" d="M12 2v6.818" />
</svg>
