<svg
    xmlns="http://www.w3.org/2000/svg"
    width="24"
    height="24"
    viewBox="0 0 24 24"
    fill="currentColor"
    stroke="currentColor"
    stroke-width="calc((100vw - 100vh) / 10)"
    stroke-linecap="round"
    stroke-linejoin="round"
>
    <path vector-effect="non-scaling-stroke" d="M10 9h4" />
    <path vector-effect="non-scaling-stroke" d="M12 7v5" />
    <path vector-effect="non-scaling-stroke" d="M14 21v-3a2 2 0 0 0-4 0v3" />
    <path
        vector-effect="non-scaling-stroke"
        d="m18 9 3.52 2.147a1 1 0 0 1 .48.854V19a2 2 0 0 1-2 2H4a2 2 0 0 1-2-2v-6.999a1 1 0 0 1 .48-.854L6 9"
    />
    <path
        vector-effect="non-scaling-stroke"
        d="M6 21V7a1 1 0 0 1 .376-.782l5-3.999a1 1 0 0 1 1.249.001l5 4A1 1 0 0 1 18 7v14"
    />
</svg>
