<svg xmlns="http://www.w3.org/2000/svg" preserveAspectRatio="xMidYMid meet" style="width: inherit; height: inherit">
    <g id="tuiIconCirrus" xmlns="http://www.w3.org/2000/svg">
        <svg
            x="50%"
            y="50%"
            xmlns="http://www.w3.org/2000/svg"
            overflow="visible"
            preserveAspectRatio="xMidYMid meet"
            style="width: inherit; height: inherit"
            viewBox="0 0 32 32"
        >
            <svg x="-16" y="-16">
                <svg viewBox="0 0 500 500">
                    <rect
                        x="200.7"
                        y="132.6"
                        vector-effect="non-scaling-stroke"
                        fill="#2271ce"
                        height="177.4"
                        width="98.7"
                    />
                    <path
                        vector-effect="non-scaling-stroke"
                        d="M206.9,221.3c0-36,16.8-68,43.1-88.7c-19.2-15.1-43.4-24.1-69.7-24.1   C118,108.5,67.5,159,67.5,221.3S118,334.1,180.3,334.1c26.3,0,50.5-9,69.7-24.1C223.8,289.3,206.9,257.3,206.9,221.3"
                        fill="#005eb6"
                    />
                    <path
                        vector-effect="non-scaling-stroke"
                        d="M432.5,221.3c0,62.3-50.5,112.8-112.8,112.8c-26.3,0-50.5-9-69.7-24.1   c26.2-20.7,43.1-52.7,43.1-88.7s-16.8-68-43.1-88.7c19.2-15.1,43.4-24.1,69.7-24.1C382,108.5,432.5,159,432.5,221.3"
                        fill="#0099df"
                    />
                    <path
                        vector-effect="non-scaling-stroke"
                        d="M326.6,363.2c-3.1-2.1-7.5-3.1-12.2-3.1c-7.6,0-12.5,3.6-12.5,9.6c0,4.9,3.6,7.9,10.3,8.8   l3.1,0.4c3.6,0.5,5.3,1.4,5.3,3.1c0,2.3-2.4,3.6-6.8,3.6c-4.5,0-7.8-1.4-10-3.1l-3.1,5.1c3.6,2.6,8.1,3.9,13,3.9   c8.6,0,13.7-4.1,13.7-9.8c0-5.3-3.9-8-10.5-9l-3.1-0.4c-2.8-0.4-5.1-0.9-5.1-2.9c0-2.2,2.1-3.5,5.7-3.5c3.8,0,7.5,1.4,9.3,2.6   L326.6,363.2z M172.7,375.8c0,9.1,6.3,15.7,16,15.7c4.5,0,7.5-1,10.8-3.6l-3.1-5.3c-2.4,1.8-5,2.7-7.8,2.7c-5.2-0.1-9-3.8-9-9.6   s3.8-9.5,9-9.6c2.8,0,5.4,0.9,7.8,2.7l3.1-5.3c-3.3-2.6-6.3-3.6-10.8-3.6C179,360,172.7,366.7,172.7,375.8z M235.5,360.1   c-3.8,0-6.2,1.8-7.9,4.4v-3.6h-6.4v29.9h6.5V374c0-4.9,2.1-7.7,6.4-7.7c1.3,0,2.7,0.2,4.1,0.8l2-6.1   C238.7,360.3,236.8,360.1,235.5,360.1z M259.7,360.1c-3.8,0-6.2,1.8-7.9,4.4v-3.6h-6.4v29.9h6.5V374c0-4.9,2.1-7.7,6.4-7.7   c1.3,0,2.7,0.2,4.1,0.8l2-6.1C262.9,360.3,261,360.1,259.7,360.1z M214,390.7h-6.6v-29.9h6.6V390.7z M210.7,345.9   c0.6,0,1.2,0.1,1.8,0.4c0.6,0.2,1,0.6,1.5,1c0.4,0.4,0.7,0.9,1,1.5c0.2,0.6,0.4,1.2,0.4,1.8c0,0.6-0.1,1.2-0.4,1.8   c-0.2,0.6-0.6,1-1,1.5c-0.4,0.4-0.9,0.7-1.5,0.9c-0.6,0.2-1.2,0.3-1.8,0.3c-0.6,0-1.2-0.1-1.8-0.3c-0.6-0.2-1-0.5-1.5-0.9   c-0.4-0.4-0.7-0.9-0.9-1.5c-0.2-0.6-0.3-1.2-0.3-1.8c0-0.6,0.1-1.2,0.3-1.8c0.2-0.6,0.5-1,0.9-1.5c0.4-0.4,0.9-0.7,1.5-1   C209.5,346,210.1,345.9,210.7,345.9z M296.7,378.1c0,2.4-0.4,4.4-1.2,6.1c-0.8,1.7-1.8,3.1-3.1,4.2c-1.3,1.1-2.7,1.9-4.4,2.4   c-1.6,0.5-3.3,0.8-5.1,0.8c-1.7,0-3.4-0.3-5.1-0.8c-1.6-0.5-3.1-1.3-4.4-2.4c-1.3-1.1-2.3-2.5-3.1-4.2c-0.8-1.7-1.2-3.7-1.2-6.1   v-17.2h6.5v16.6c0,1.4,0.2,2.7,0.6,3.7c0.4,1,0.9,1.8,1.5,2.4c0.6,0.6,1.4,1.1,2.3,1.4c0.9,0.3,1.8,0.4,2.8,0.4c1,0,2-0.1,2.8-0.4   s1.6-0.7,2.3-1.4c0.7-0.6,1.2-1.4,1.5-2.4c0.4-1,0.6-2.2,0.6-3.7v-16.6h6.5V378.1z"
                        fill="currentColor"
                    />
                </svg>
            </svg>
        </svg>
    </g>
</svg>
