<svg
    xmlns="http://www.w3.org/2000/svg"
    width="24"
    height="24"
    viewBox="0 0 24 24"
    fill="none"
    stroke="currentColor"
    stroke-width="calc((100vw - 100vh) / 10)"
    stroke-linecap="round"
    stroke-linejoin="round"
>
    <path vector-effect="non-scaling-stroke" d="M16 4h2a2 2 0 0 1 2 2v2" />
    <path
        vector-effect="non-scaling-stroke"
        d="M21.34 15.664a1 1 0 1 0-3.004-3.004l-5.01 5.012a2 2 0 0 0-.506.854l-.837 2.87a.5.5 0 0 0 .62.62l2.87-.837a2 2 0 0 0 .854-.506z"
    />
    <path vector-effect="non-scaling-stroke" d="M8 22H6a2 2 0 0 1-2-2V6a2 2 0 0 1 2-2h2" />
    <rect x="8" y="2" vector-effect="non-scaling-stroke" width="8" height="4" rx="1" />
</svg>
