<svg
    xmlns="http://www.w3.org/2000/svg"
    width="24"
    height="24"
    viewBox="0 0 24 24"
    fill="none"
    stroke="currentColor"
    stroke-width="calc((100vw - 100vh) / 10)"
    stroke-linecap="round"
    stroke-linejoin="round"
>
    <path vector-effect="non-scaling-stroke" d="M10 22v-8" />
    <path vector-effect="non-scaling-stroke" d="M2.336 8.89 10 14l11.715-7.029" />
    <path
        vector-effect="non-scaling-stroke"
        d="M22 14a2 2 0 0 1-.971 1.715l-10 6a2 2 0 0 1-2.138-.05l-6-4A2 2 0 0 1 2 16v-6a2 2 0 0 1 .971-1.715l10-6a2 2 0 0 1 2.138.05l6 4A2 2 0 0 1 22 8z"
    />
</svg>
