<svg
    xmlns="http://www.w3.org/2000/svg"
    width="24"
    height="24"
    viewBox="0 0 24 24"
    fill="currentColor"
    stroke="currentColor"
    stroke-width="calc((100vw - 100vh) / 10)"
    stroke-linecap="round"
    stroke-linejoin="round"
>
    <path
        vector-effect="non-scaling-stroke"
        d="M4 9.8V4a2 2 0 0 1 2-2h8a2.4 2.4 0 0 1 1.706.706l3.588 3.588A2.4 2.4 0 0 1 20 8v12a2 2 0 0 1-2 2h-3"
    />
    <path vector-effect="non-scaling-stroke" d="M14 2v5a1 1 0 0 0 1 1h5" />
    <path vector-effect="non-scaling-stroke" d="M9 17v-2a2 2 0 0 0-4 0v2" />
    <rect x="3" y="17" vector-effect="non-scaling-stroke" width="8" height="5" rx="1" />
</svg>
