<svg
    xmlns="http://www.w3.org/2000/svg"
    width="24"
    height="24"
    viewBox="0 0 24 24"
    fill="currentColor"
    stroke="currentColor"
    stroke-width="calc((100vw - 100vh) / 10)"
    stroke-linecap="round"
    stroke-linejoin="round"
>
    <path vector-effect="non-scaling-stroke" d="M11.652 6H18" />
    <path vector-effect="non-scaling-stroke" d="M12 13v1" />
    <path
        vector-effect="non-scaling-stroke"
        d="M16 16v4a2 2 0 0 1-2 2h-4a2 2 0 0 1-2-2v-8a4 4 0 0 0-.8-2.4l-.6-.8A3 3 0 0 1 6 7V6"
    />
    <path vector-effect="non-scaling-stroke" d="m2 2 20 20" />
    <path
        vector-effect="non-scaling-stroke"
        d="M7.649 2H17a1 1 0 0 1 1 1v4a3 3 0 0 1-.6 1.8l-.6.8a4 4 0 0 0-.55 1.007"
    />
</svg>
