<svg
    xmlns="http://www.w3.org/2000/svg"
    width="24"
    height="24"
    viewBox="0 0 24 24"
    fill="currentColor"
    stroke="currentColor"
    stroke-width="2"
    stroke-linecap="round"
    stroke-linejoin="round"
>
    <path vector-effect="non-scaling-stroke" d="M12 7v4" />
    <path vector-effect="non-scaling-stroke" d="M14 21v-3a2 2 0 0 0-4 0v3" />
    <path vector-effect="non-scaling-stroke" d="M14 9h-4" />
    <path
        vector-effect="non-scaling-stroke"
        d="M18 11h2a2 2 0 0 1 2 2v6a2 2 0 0 1-2 2H4a2 2 0 0 1-2-2v-9a2 2 0 0 1 2-2h2"
    />
    <path vector-effect="non-scaling-stroke" d="M18 21V5a2 2 0 0 0-2-2H8a2 2 0 0 0-2 2v16" />
</svg>
