<svg
    xmlns="http://www.w3.org/2000/svg"
    width="24"
    height="24"
    viewBox="0 0 24 24"
    fill="none"
    stroke="currentColor"
    stroke-width="calc((100vw - 100vh) / 10)"
    stroke-linecap="round"
    stroke-linejoin="round"
>
    <path
        vector-effect="non-scaling-stroke"
        d="M12.35 21H5a2 2 0 0 1-2-2v-9a2 2 0 0 1 .71-1.53l7-6a2 2 0 0 1 2.58 0l7 6A2 2 0 0 1 21 10v2.35"
    />
    <path vector-effect="non-scaling-stroke" d="M14.8 12.4A1 1 0 0 0 14 12h-4a1 1 0 0 0-1 1v8" />
    <path vector-effect="non-scaling-stroke" d="M15 18h6" />
    <path vector-effect="non-scaling-stroke" d="M18 15v6" />
</svg>
