<svg
    xmlns="http://www.w3.org/2000/svg"
    width="24"
    height="24"
    viewBox="0 0 24 24"
    fill="none"
    stroke="currentColor"
    stroke-width="2"
    stroke-linecap="round"
    stroke-linejoin="round"
>
    <path
        vector-effect="non-scaling-stroke"
        d="M13.22 2.416a2 2 0 0 0-2.511.057l-7 5.999A2 2 0 0 0 3 10v9a2 2 0 0 0 2 2h14a2 2 0 0 0 2-2v-7.354"
    />
    <path vector-effect="non-scaling-stroke" d="M15 21v-8a1 1 0 0 0-1-1h-4a1 1 0 0 0-1 1v8" />
    <path vector-effect="non-scaling-stroke" d="M15 6h6" />
    <path vector-effect="non-scaling-stroke" d="M18 3v6" />
</svg>
