<svg
    xmlns="http://www.w3.org/2000/svg"
    width="24"
    height="24"
    viewBox="0 0 24 24"
    fill="currentColor"
    stroke="currentColor"
    stroke-width="2"
    stroke-linecap="round"
    stroke-linejoin="round"
>
    <path
        vector-effect="non-scaling-stroke"
        d="M15 15.003a1 1 0 0 1 1.517-.859l4.997 2.997a1 1 0 0 1 0 1.718l-4.997 2.997a1 1 0 0 1-1.517-.86z"
    />
    <path vector-effect="non-scaling-stroke" d="M21 12.17V5a2 2 0 0 0-2-2H5a2 2 0 0 0-2 2v14a2 2 0 0 0 2 2h6" />
    <path vector-effect="non-scaling-stroke" d="m6 21 5-5" />
    <circle vector-effect="non-scaling-stroke" cx="9" cy="9" r="2" />
</svg>
