<svg
    xmlns="http://www.w3.org/2000/svg"
    width="24"
    height="24"
    viewBox="0 0 24 24"
    fill="none"
    stroke="currentColor"
    stroke-width="calc((100vw - 100vh) / 10)"
    stroke-linecap="round"
    stroke-linejoin="round"
>
    <path vector-effect="non-scaling-stroke" d="m18 14-1-3" />
    <path vector-effect="non-scaling-stroke" d="m3 9 6 2a2 2 0 0 1 2-2h2a2 2 0 0 1 1.99 1.81" />
    <path
        vector-effect="non-scaling-stroke"
        d="M8 17h3a1 1 0 0 0 1-1 6 6 0 0 1 6-6 1 1 0 0 0 1-1v-.75A5 5 0 0 0 17 5"
    />
    <circle vector-effect="non-scaling-stroke" cx="19" cy="17" r="3" />
    <circle vector-effect="non-scaling-stroke" cx="5" cy="17" r="3" />
</svg>
