<svg
    xmlns="http://www.w3.org/2000/svg"
    width="24"
    height="24"
    viewBox="0 0 24 24"
    fill="none"
    stroke="currentColor"
    stroke-width="calc((100vw - 100vh) / 10)"
    stroke-linecap="round"
    stroke-linejoin="round"
>
    <path vector-effect="non-scaling-stroke" d="M12 22V12" />
    <path vector-effect="non-scaling-stroke" d="M20.27 18.27 22 20" />
    <path
        vector-effect="non-scaling-stroke"
        d="M21 10.498V8a2 2 0 0 0-1-1.73l-7-4a2 2 0 0 0-2 0l-7 4A2 2 0 0 0 3 8v8a2 2 0 0 0 1 1.729l7 4a2 2 0 0 0 2 .001l.98-.559"
    />
    <path vector-effect="non-scaling-stroke" d="M3.29 7 12 12l8.71-5" />
    <path vector-effect="non-scaling-stroke" d="m7.5 4.27 8.997 5.148" />
    <circle vector-effect="non-scaling-stroke" cx="18.5" cy="16.5" r="2.5" />
</svg>
