<svg
    xmlns="http://www.w3.org/2000/svg"
    width="24"
    height="24"
    viewBox="0 0 24 24"
    fill="none"
    stroke="currentColor"
    stroke-width="2"
    stroke-linecap="round"
    stroke-linejoin="round"
>
    <path
        vector-effect="non-scaling-stroke"
        d="M21 10V8a2 2 0 0 0-1-1.73l-7-4a2 2 0 0 0-2 0l-7 4A2 2 0 0 0 3 8v8a2 2 0 0 0 1 1.73l7 4a2 2 0 0 0 2 0l2-1.14"
    />
    <path vector-effect="non-scaling-stroke" d="m7.5 4.27 9 5.15" />
    <polyline vector-effect="non-scaling-stroke" points="3.29 7 12 12 20.71 7" />
    <line vector-effect="non-scaling-stroke" x1="12" x2="12" y1="22" y2="12" />
    <circle vector-effect="non-scaling-stroke" cx="18.5" cy="15.5" r="2.5" />
    <path vector-effect="non-scaling-stroke" d="M20.27 17.27 22 19" />
</svg>
