
<svg
  
  xmlns="http://www.w3.org/2000/svg"
  width="24"
  height="24"
  viewBox="0 0 24 24"
  fill="currentColor"
  stroke="currentColor"
  stroke-width="calc((100vw - 100vh) / 10)"
  stroke-linecap="round"
  stroke-linejoin="round"
>
  <path vector-effect="non-scaling-stroke" d="M10 3H8" />
  <path vector-effect="non-scaling-stroke" d="m15.007 5.008 3.987 3.986" />
  <path vector-effect="non-scaling-stroke" d="M20 15v4" />
  <path vector-effect="non-scaling-stroke" d="M21.174 6.813a2.82 2.82 0 0 0-3.986-3.987L3.842 16.175a2 2 0 0 0-.5.83l-1.321 4.352a.5.5 0 0 0 .623.622l4.353-1.32a2 2 0 0 0 .83-.497z" />
  <path vector-effect="non-scaling-stroke" d="M22 17h-4" />
  <path vector-effect="non-scaling-stroke" d="M4 5v4" />
  <path vector-effect="non-scaling-stroke" d="M6 7H2" />
  <path vector-effect="non-scaling-stroke" d="M9 2v2" />
</svg>
