
<svg
  
  xmlns="http://www.w3.org/2000/svg"
  width="24"
  height="24"
  viewBox="0 0 24 24"
  fill="currentColor"
  stroke="currentColor"
  stroke-width="calc((100vw - 100vh) / 10)"
  stroke-linecap="round"
  stroke-linejoin="round"
>
  <path vector-effect="non-scaling-stroke" d="M14 8.536V6a4 4 0 014-4h1.5a.5.5 0 01.5.5V4a4 4 0 01-4 4 4 4 0 00-4 4 5 5 0 01-8-4 5 5 0 018 4c0 2 1 3 1 5" />
  <path vector-effect="non-scaling-stroke" d="m18 17-1.085 3.58A2 2 0 0115 22H9.002a2 2 0 01-1.913-1.418L6 17" />
  <path vector-effect="non-scaling-stroke" d="M5 17h14" />
</svg>
