
<svg
  
  xmlns="http://www.w3.org/2000/svg"
  width="24"
  height="24"
  viewBox="0 0 24 24"
  fill="currentColor"
  stroke="currentColor"
  stroke-width="calc((100vw - 100vh) / 10)"
  stroke-linecap="round"
  stroke-linejoin="round"
>
  <path vector-effect="non-scaling-stroke" d="M12 6V2h-1" />
  <path vector-effect="non-scaling-stroke" d="M9 15a1 1 0 0 0-1-1H4a1 1 0 0 0-1 1v5a1 1 0 0 0 1 1h16a1 1 0 0 0 1-1v-3a1 1 0 0 0-1-1h-4a1 1 0 0 0-1 1" />
  <path vector-effect="non-scaling-stroke" d="M9 21V11a1 1 0 0 1 1-1h4a1 1 0 0 1 1 1v10" />
</svg>
