<svg
    xmlns="http://www.w3.org/2000/svg"
    width="24"
    height="24"
    viewBox="0 0 24 24"
    fill="none"
    stroke="currentColor"
    stroke-width="2"
    stroke-linecap="round"
    stroke-linejoin="round"
>
    <path vector-effect="non-scaling-stroke" d="M10 4.5V4a2 2 0 0 0-2.41-1.957" />
    <path vector-effect="non-scaling-stroke" d="M13.9 8.4a2 2 0 0 0-1.26-1.295" />
    <path vector-effect="non-scaling-stroke" d="M21.7 16.2A8 8 0 0 0 22 14v-3a2 2 0 1 0-4 0v-1a2 2 0 0 0-3.63-1.158" />
    <path
        vector-effect="non-scaling-stroke"
        d="m7 15-1.8-1.8a2 2 0 0 0-2.79 2.86L6 19.7a7.74 7.74 0 0 0 6 2.3h2a8 8 0 0 0 5.657-2.343"
    />
    <path vector-effect="non-scaling-stroke" d="M6 6v8" />
    <path vector-effect="non-scaling-stroke" d="m2 2 20 20" />
</svg>
