
<svg
  
  xmlns="http://www.w3.org/2000/svg"
  width="24"
  height="24"
  viewBox="0 0 24 24"
  fill="currentColor"
  stroke="currentColor"
  stroke-width="calc((100vw - 100vh) / 10)"
  stroke-linecap="round"
  stroke-linejoin="round"
>
  <path vector-effect="non-scaling-stroke" d="M12.5 21H5a2 2 0 0 1-2-2V5a2 2 0 0 1 2-2h10.2a2 2 0 0 1 1.4.6l3.8 3.8a2 2 0 0 1 .6 1.4v4.35" />
  <path vector-effect="non-scaling-stroke" d="m16 19 2 2 4-4" />
  <path vector-effect="non-scaling-stroke" d="M17 15.13V14a1 1 0 0 0-1-1H8a1 1 0 0 0-1 1v7" />
  <path vector-effect="non-scaling-stroke" d="M7 3v4a1 1 0 0 0 1 1h7" />
</svg>
