<svg
    xmlns="http://www.w3.org/2000/svg"
    width="24"
    height="24"
    viewBox="0 0 24 24"
    fill="none"
    stroke="currentColor"
    stroke-width="calc((100vw - 100vh) / 10)"
    stroke-linecap="round"
    stroke-linejoin="round"
>
    <path vector-effect="non-scaling-stroke" d="M12 13v8" />
    <path vector-effect="non-scaling-stroke" d="M12 3v3" />
    <path
        vector-effect="non-scaling-stroke"
        d="M2.354 10.354a1.207 1.207 0 0 1 0-1.708l2.06-2.06A2 2 0 0 1 5.828 6h12.344a2 2 0 0 1 1.414.586l2.06 2.06a1.207 1.207 0 0 1 0 1.708l-2.06 2.06a2 2 0 0 1-1.414.586H5.828a2 2 0 0 1-1.414-.586z"
    />
</svg>
