<svg
    xmlns="http://www.w3.org/2000/svg"
    width="24"
    height="24"
    viewBox="0 0 24 24"
    fill="currentColor"
    stroke="currentColor"
    stroke-width="2"
    stroke-linecap="round"
    stroke-linejoin="round"
>
    <path vector-effect="non-scaling-stroke" d="m10 20-1.25-2.5L6 18" />
    <path vector-effect="non-scaling-stroke" d="M10 4 8.75 6.5 6 6" />
    <path vector-effect="non-scaling-stroke" d="m14 20 1.25-2.5L18 18" />
    <path vector-effect="non-scaling-stroke" d="m14 4 1.25 2.5L18 6" />
    <path vector-effect="non-scaling-stroke" d="m17 21-3-6h-4" />
    <path vector-effect="non-scaling-stroke" d="m17 3-3 6 1.5 3" />
    <path vector-effect="non-scaling-stroke" d="M2 12h6.5L10 9" />
    <path vector-effect="non-scaling-stroke" d="m20 10-1.5 2 1.5 2" />
    <path vector-effect="non-scaling-stroke" d="M22 12h-6.5L14 15" />
    <path vector-effect="non-scaling-stroke" d="m4 10 1.5 2L4 14" />
    <path vector-effect="non-scaling-stroke" d="m7 21 3-6-1.5-3" />
    <path vector-effect="non-scaling-stroke" d="m7 3 3 6h4" />
</svg>
