
<svg
  
  xmlns="http://www.w3.org/2000/svg"
  width="24"
  height="24"
  viewBox="0 0 24 24"
  fill="currentColor"
  stroke="currentColor"
  stroke-width="calc((100vw - 100vh) / 10)"
  stroke-linecap="round"
  stroke-linejoin="round"
>
  <path vector-effect="non-scaling-stroke" d="M10 8a2.4 2.4 0 0 1 1.706.706l3.588 3.588A2.4 2.4 0 0 1 16 14v6a2 2 0 0 1-2 2H4a2 2 0 0 1-2-2V10a2 2 0 0 1 2-2z" />
  <path vector-effect="non-scaling-stroke" d="M10 8v5a1 1 0 0 0 1 1h5" />
  <path vector-effect="non-scaling-stroke" d="M8 4a2 2 0 0 1 2-2h6a2.4 2.4 0 0 1 1.706.706l3.588 3.588A2.4 2.4 0 0 1 22 8v6a2 2 0 0 1-2 2" />
  <path vector-effect="non-scaling-stroke" d="M16 2v5a1 1 0 0 0 1 1h5" />
</svg>
