
<svg
  
  xmlns="http://www.w3.org/2000/svg"
  width="24"
  height="24"
  viewBox="0 0 24 24"
  fill="currentColor"
  stroke="currentColor"
  stroke-width="calc((100vw - 100vh) / 10)"
  stroke-linecap="round"
  stroke-linejoin="round"
>
  <path vector-effect="non-scaling-stroke" d="M15 3v5a1 1 0 0 0 1 1h5" />
  <path vector-effect="non-scaling-stroke" d="m2 2 20 20" />
  <path vector-effect="non-scaling-stroke" d="M3.586 3.586A2 2 0 0 0 3 5v14a2 2 0 0 0 2 2h14a2 2 0 0 0 1.414-.586" />
  <path vector-effect="non-scaling-stroke" d="M8.656 3H15a2.4 2.4 0 0 1 1.706.706l3.588 3.588A2.4 2.4 0 0 1 21 9v6.344" />
</svg>
