<svg
    xmlns="http://www.w3.org/2000/svg"
    width="24"
    height="24"
    viewBox="0 0 24 24"
    fill="currentColor"
    stroke="currentColor"
    stroke-width="2"
    stroke-linecap="round"
    stroke-linejoin="round"
>
    <path vector-effect="non-scaling-stroke" d="M14 10h2" />
    <path vector-effect="non-scaling-stroke" d="M15 22v-8" />
    <path vector-effect="non-scaling-stroke" d="M15 2v4" />
    <path vector-effect="non-scaling-stroke" d="M2 10h2" />
    <path vector-effect="non-scaling-stroke" d="M20 10h2" />
    <path vector-effect="non-scaling-stroke" d="M3 19h18" />
    <path vector-effect="non-scaling-stroke" d="M3 22v-6a2 2 135 0 1 2-2h14a2 2 45 0 1 2 2v6" />
    <path vector-effect="non-scaling-stroke" d="M3 2v2a2 2 45 0 0 2 2h14a2 2 135 0 0 2-2V2" />
    <path vector-effect="non-scaling-stroke" d="M8 10h2" />
    <path vector-effect="non-scaling-stroke" d="M9 22v-8" />
    <path vector-effect="non-scaling-stroke" d="M9 2v4" />
</svg>
