<svg
    xmlns="http://www.w3.org/2000/svg"
    width="24"
    height="24"
    viewBox="0 0 24 24"
    fill="currentColor"
    stroke="currentColor"
    stroke-width="2"
    stroke-linecap="round"
    stroke-linejoin="round"
>
    <path vector-effect="non-scaling-stroke" d="m10 11 11 .9a1 1 0 0 1 .8 1.1l-.665 4.158a1 1 0 0 1-.988.842H20" />
    <path vector-effect="non-scaling-stroke" d="M16 18h-5" />
    <path vector-effect="non-scaling-stroke" d="M18 5a1 1 0 0 0-1 1v5.573" />
    <path vector-effect="non-scaling-stroke" d="M3 4h8.129a1 1 0 0 1 .99.863L13 11.246" />
    <path vector-effect="non-scaling-stroke" d="M4 11V4" />
    <path vector-effect="non-scaling-stroke" d="M7 15h.01" />
    <path vector-effect="non-scaling-stroke" d="M8 10.1V4" />
    <circle vector-effect="non-scaling-stroke" cx="18" cy="18" r="2" />
    <circle vector-effect="non-scaling-stroke" cx="7" cy="15" r="5" />
</svg>
