<svg xmlns="http://www.w3.org/2000/svg" preserveAspectRatio="xMidYMid meet" style="width: inherit; height: inherit">
    <g id="tuiIconSamsungPay" xmlns="http://www.w3.org/2000/svg">
        <svg
            x="50%"
            y="50%"
            xmlns="http://www.w3.org/2000/svg"
            overflow="visible"
            preserveAspectRatio="xMidYMid meet"
            style="width: inherit; height: inherit"
            viewBox="0 0 32 32"
        >
            <svg x="-16" y="-16">
                <svg viewBox="0 0 24 24">
                    <path
                        vector-effect="non-scaling-stroke"
                        d="M.035 13.424c.174 3.843 1.169 6.883 3.465 8.541 2.284 1.648 5.996 2.171 9.909 2.006 3.798-.16 6.883-1.168 8.535-3.468 1.649-2.297 2.175-5.687 2.034-9.801-.133-3.831-1.139-6.914-3.408-8.598C18.301.42 14.89-.165 10.604.04 8.658.133 6.902.386 5.477.957c-1.47.59-2.606 1.422-3.437 2.58C.369 5.863-.148 9.376.035 13.424zm21.28-3.875-3.426 6.976h-1.181l3.426-6.976h1.181zm-4.687.001 1.361 2.789-.592 1.204-1.949-3.993h1.18zm-4.107-.178c1.389 0 2.739 1.166 2.783 2.62v2.782H14.26v-2.782c-.021-.784-.853-1.566-1.739-1.566-.996 0-1.729.851-1.729 1.647 0 1.127.794 1.642 1.729 1.642h.368v1.059h-.368c-1.538-.001-2.785-.986-2.785-2.701 0-1.399 1.247-2.701 2.785-2.701zm-8.672 1.156c0-.639.517-1.156 1.155-1.156h1.599c1.49 0 2.725 1.209 2.725 2.7s-1.153 2.701-2.726 2.701h-.495v-1.064h.495c.946 0 1.636-.733 1.636-1.637s-.732-1.637-1.636-1.637H5.003a.13.13 0 0 0-.124.092v5.807h-1.03v-5.806z"
                        fill="#2F55CC"
                    />
                </svg>
            </svg>
        </svg>
    </g>
</svg>
