<svg xmlns="http://www.w3.org/2000/svg" width="2em" focusable="false" height="2em">
    <g id="tuiIconMir" xmlns="http://www.w3.org/2000/svg">
        <svg
            x="50%"
            y="50%"
            width="2em"
            height="2em"
            overflow="visible"
            viewBox="0 0 32 32"
            xmlns="http://www.w3.org/2000/svg"
            xmlns:xlink="http://www.w3.org/1999/xlink"
        >
            <svg x="-16" y="-16">
                <defs>
                    <linearGradient id="tui-mir-gradient" x1="-0.18041958%" y1="50%" x2="100%" y2="50%">
                        <stop stop-color="#00B4E6" offset="0%" />
                        <stop stop-color="#088CCB" offset="100%" />
                    </linearGradient>
                </defs>
                <g transform="translate(0, 12)">
                    <path
                        d="M28.4081633,0 L22.3346939,0 C22.6612245,2.0244898 24.6204082,3.91836735 26.7755102,3.91836735 L31.6081633,3.91836735 C31.6734694,3.72244898 31.6734694,3.46122449 31.6734694,3.26530612 C31.6734694,1.43673469 30.2367347,0 28.4081633,0 Z"
                        fill="url(#tui-mir-gradient) #049fd8"
                    />
                    <path
                        d="M22.8571429,4.24489796 L22.8571429,9.14285714 L25.7959184,9.14285714 L25.7959184,6.53061224 L28.4081633,6.53061224 C29.844898,6.53061224 31.0857143,5.55102041 31.477551,4.24489796 L22.8571429,4.24489796 Z"
                        fill="#4DB45F"
                    />
                    <path
                        d="M12.4081633,0 L12.4081633,9.14285714 L15.0204082,9.14285714 C15.0204082,9.14285714 15.6734694,9.14285714 16,8.48979592 C17.7632653,4.96326531 18.2857143,3.91836735 18.2857143,3.91836735 L18.6122449,3.91836735 L18.6122449,9.14285714 L21.5510204,9.14285714 L21.5510204,0 L18.9387755,0 C18.9387755,0 18.2857143,0.0653061224 17.9591837,0.653061224 C16.4571429,3.65714286 15.6734694,5.2244898 15.6734694,5.2244898 L15.3469388,5.2244898 L15.3469388,0 L12.4081633,0 Z"
                        fill="#4DB45F"
                    />
                    <path
                        d="M0,9.14285714 L0,0 L2.93877551,0 C2.93877551,0 3.7877551,0 4.24489796,1.30612245 C5.42040816,4.76734694 5.55102041,5.2244898 5.55102041,5.2244898 C5.55102041,5.2244898 5.8122449,4.3755102 6.85714286,1.30612245 C7.31428571,0 8.16326531,0 8.16326531,0 L11.1020408,0 L11.1020408,9.14285714 L8.16326531,9.14285714 L8.16326531,4.24489796 L7.83673469,4.24489796 L6.20408163,9.14285714 L4.89795918,9.14285714 L3.26530612,4.24489796 L2.93877551,4.24489796 L2.93877551,9.14285714 L0,9.14285714 Z"
                        fill="#4DB45F"
                    />
                </g>
            </svg>
        </svg>
    </g>
</svg>
