<svg
    xmlns="http://www.w3.org/2000/svg"
    style="width: inherit; height: inherit; max-width: 2rem; max-height: 2rem"
    preserveAspectRatio="xMidYMid meet"
>
    <g id="tuiIconMirMono" xmlns="http://www.w3.org/2000/svg">
        <svg
            x="50%"
            y="50%"
            xmlns="http://www.w3.org/2000/svg"
            overflow="visible"
            viewBox="0 0 32 32"
            style="width: inherit; height: inherit; max-width: 2rem; max-height: 2rem"
            preserveAspectRatio="xMidYMid meet"
        >
            <svg x="-16" y="-16">
                <path
                    vector-effect="non-scaling-stroke"
                    clip-rule="evenodd"
                    d="M0 12V21.1429H2.93878V16.2449H3.26531L4.89796 21.1429H6.20408L7.83673 16.2449H8.16327V21.1429H11.102V12H8.16327C8.16327 12 7.31429 12 6.85714 13.3061C5.81224 16.3755 5.55102 17.2245 5.55102 17.2245C5.55102 17.2245 5.42041 16.7673 4.2449 13.3061C3.78776 12 2.93878 12 2.93878 12H0ZM12.4081 12V21.1429H15.0204C15.0204 21.1429 15.6734 21.1429 16 20.4898L18.2857 15.9184H18.6122V21.1429H21.551V12H18.9388C18.9388 12 18.2857 12.0653 17.9592 12.6531L15.6734 17.2245H15.3469V12H12.4081ZM22.3347 12H28.4082C30.2368 12 31.6735 13.4367 31.6735 15.2653C31.6735 15.4612 31.6735 15.7224 31.6082 15.9184H26.7755C24.6204 15.9184 22.6612 14.0245 22.3347 12ZM22.8571 21.1429V16.2449H31.4775C31.0857 17.551 29.8449 18.5306 28.4081 18.5306H25.7959V21.1429H22.8571Z"
                    fill="currentColor"
                    stroke="none"
                    fill-rule="evenodd"
                />
            </svg>
        </svg>
    </g>
</svg>
