<svg xmlns="http://www.w3.org/2000/svg" preserveAspectRatio="xMidYMid meet" style="width: inherit; height: inherit">
    <g id="tuiIconHumo" xmlns="http://www.w3.org/2000/svg">
        <svg
            x="50%"
            y="50%"
            xmlns="http://www.w3.org/2000/svg"
            overflow="visible"
            preserveAspectRatio="xMidYMid meet"
            style="width: inherit; height: inherit"
            viewBox="0 0 32 32"
        >
            <svg x="-16" y="-16">
                <svg viewBox="0 0 512 512">
                    <g>
                        <path
                            vector-effect="non-scaling-stroke"
                            d="M 466.5,191.5 C 467.5,191.5 468.5,191.5 469.5,191.5C 467.3,195.88 464.467,199.88 461,203.5C 459.6,204.748 458.1,205.748 456.5,206.5C 455.833,206.5 455.167,206.5 454.5,206.5C 458.558,201.453 462.558,196.453 466.5,191.5 Z"
                            fill="#fce9a3"
                            style="opacity: 0.983"
                        />
                    </g>
                    <g>
                        <path
                            vector-effect="non-scaling-stroke"
                            d="M 107.5,193.5 C 109.099,193.232 110.432,193.566 111.5,194.5C 107.511,200.155 102.844,205.155 97.5,209.5C 97.5674,208.041 97.2341,206.708 96.5,205.5C 100.797,202.198 104.463,198.198 107.5,193.5 Z"
                            fill="#cbb35c"
                            style="opacity: 0.98"
                        />
                    </g>
                    <g>
                        <path
                            vector-effect="non-scaling-stroke"
                            d="M 171.5,201.5 C 165.217,207.626 159.384,214.293 154,221.5C 153.51,222.793 153.343,224.127 153.5,225.5C 150.5,228.833 147.5,232.167 144.5,235.5C 144.059,222.759 144.559,210.092 146,197.5C 152.546,191.92 159.713,191.087 167.5,195C 169.666,196.678 170.999,198.845 171.5,201.5 Z"
                            fill="#a58c30"
                            style="opacity: 0.954"
                        />
                    </g>
                    <g>
                        <path
                            vector-effect="non-scaling-stroke"
                            d="M 232.5,192.5 C 233.167,192.833 233.833,193.167 234.5,193.5C 229.592,201.41 223.925,208.743 217.5,215.5C 217.5,214.167 217.5,212.833 217.5,211.5C 219.017,211.489 220.184,210.823 221,209.5C 224.108,204.432 227.775,199.765 232,195.5C 232.483,194.552 232.649,193.552 232.5,192.5 Z"
                            fill="#cab25a"
                            style="opacity: 0.993"
                        />
                    </g>
                    <g>
                        <path
                            vector-effect="non-scaling-stroke"
                            d="M 237.5,193.5 C 239.463,194.96 241.296,196.627 243,198.5C 243.667,223.5 243.667,248.5 243,273.5C 237.606,299.643 221.439,311.976 194.5,310.5C 182.52,311.255 171.52,308.422 161.5,302C 159.959,300.629 158.625,299.129 157.5,297.5C 163.064,290.718 168.398,283.718 173.5,276.5C 181.482,288.003 192.149,291.169 205.5,286C 212.788,281.599 216.621,275.099 217,266.5C 217.5,250.837 217.667,235.17 217.5,219.5C 220.602,217.344 222.768,214.344 224,210.5C 229.438,205.564 233.938,199.897 237.5,193.5 Z"
                            fill="#bfa64a"
                            style="opacity: 0.985"
                        />
                    </g>
                    <g>
                        <path
                            vector-effect="non-scaling-stroke"
                            d="M 296.5,198.5 C 289.563,205.938 282.397,213.271 275,220.5C 274.667,221.5 274.333,222.5 274,223.5C 271.219,226.1 268.386,228.434 265.5,230.5C 265.097,219.769 265.597,209.102 267,198.5C 270.889,193.992 275.889,192.326 282,193.5C 285.5,193.667 289,193.833 292.5,194C 294.384,195.049 295.718,196.549 296.5,198.5 Z"
                            fill="#a58c30"
                            style="opacity: 0.961"
                        />
                    </g>
                    <g>
                        <path
                            vector-effect="non-scaling-stroke"
                            d="M 369.5,193.5 C 370.167,193.5 370.833,193.5 371.5,193.5C 357.407,209.049 343.074,224.382 328.5,239.5C 329.326,236.515 330.659,233.849 332.5,231.5C 345.559,219.442 357.893,206.775 369.5,193.5 Z"
                            fill="#c9b25a"
                            style="opacity: 0.984"
                        />
                    </g>
                    <g>
                        <path
                            vector-effect="non-scaling-stroke"
                            d="M 100.5,193.5 C 98.9092,196.431 96.9092,199.098 94.5,201.5C 93.7109,201.217 93.0442,200.717 92.5,200C 94.7512,197.242 97.4179,195.075 100.5,193.5 Z"
                            fill="#ddc775"
                            style="opacity: 0.973"
                        />
                    </g>
                    <g>
                        <path
                            vector-effect="non-scaling-stroke"
                            d="M 114.5,195.5 C 119.327,198.477 122.16,202.811 123,208.5C 123.667,239.5 123.667,270.5 123,301.5C 122.167,303.667 120.667,305.167 118.5,306C 112.833,306.667 107.167,306.667 101.5,306C 99.1853,304.891 97.6853,303.057 97,300.5C 96.5001,285.504 96.3334,270.504 96.5,255.5C 84.5,255.5 72.5,255.5 60.5,255.5C 66.4801,249.516 72.1467,243.183 77.5,236.5C 83.8333,236.5 90.1667,236.5 96.5,236.5C 96.9439,229.173 97.2772,221.84 97.5,214.5C 103.411,208.314 109.077,201.981 114.5,195.5 Z"
                            fill="#bfa64a"
                            style="opacity: 0.973"
                        />
                    </g>
                    <g>
                        <path
                            vector-effect="non-scaling-stroke"
                            d="M 373.5,194.5 C 376.711,196.212 378.544,198.879 379,202.5C 380,232.841 381.167,263.174 382.5,293.5C 382.005,305.773 375.672,310.273 363.5,307C 361.376,305.878 359.543,304.378 358,302.5C 356.432,277.213 355.099,251.88 354,226.5C 345.996,244.678 336.829,262.178 326.5,279C 322.167,281 317.833,281 313.5,279C 310.516,275.527 308.183,271.694 306.5,267.5C 309.967,262.25 314.134,257.583 319,253.5C 319.057,251.09 320.224,249.756 322.5,249.5C 323.5,248.167 324.5,246.833 325.5,245.5C 339.771,230.728 354.271,216.062 369,201.5C 370.76,199.279 372.26,196.945 373.5,194.5 Z"
                            fill="#bfa64a"
                            style="opacity: 0.972"
                        />
                    </g>
                    <g>
                        <path
                            vector-effect="non-scaling-stroke"
                            d="M 427.5,195.5 C 421.452,202.051 415.952,209.051 411,216.5C 406.126,220.373 401.959,224.873 398.5,230C 397.906,230.464 397.239,230.631 396.5,230.5C 401.607,214.067 411.94,202.401 427.5,195.5 Z"
                            fill="#a68d31"
                            style="opacity: 0.885"
                        />
                    </g>
                    <g>
                        <path
                            vector-effect="non-scaling-stroke"
                            d="M 475.5,193.5 C 476.167,193.5 476.833,193.5 477.5,193.5C 474.216,199.447 469.883,204.447 464.5,208.5C 463.209,208.737 462.209,208.404 461.5,207.5C 465.188,201.812 469.855,197.145 475.5,193.5 Z"
                            fill="#eeda8e"
                            style="opacity: 0.999"
                        />
                    </g>
                    <g>
                        <path
                            vector-effect="non-scaling-stroke"
                            d="M 225.5,193.5 C 223.967,197.704 221.3,201.037 217.5,203.5C 217.621,198.053 220.288,194.719 225.5,193.5 Z"
                            fill="#ddc775"
                            style="opacity: 0.999"
                        />
                    </g>
                    <g>
                        <path
                            vector-effect="non-scaling-stroke"
                            d="M 229.5,192.5 C 230.5,192.5 231.5,192.5 232.5,192.5C 232.649,193.552 232.483,194.552 232,195.5C 227.775,199.765 224.108,204.432 221,209.5C 220.184,210.823 219.017,211.489 217.5,211.5C 217.5,209.833 217.5,208.167 217.5,206.5C 221.845,202.153 225.845,197.486 229.5,192.5 Z"
                            fill="#d0b863"
                            style="opacity: 1"
                        />
                    </g>
                    <g>
                        <path
                            vector-effect="non-scaling-stroke"
                            d="M 362.5,193.5 C 363.167,193.5 363.833,193.5 364.5,193.5C 355.785,202.881 346.785,211.881 337.5,220.5C 338.596,217.968 339.929,215.635 341.5,213.5C 348.453,206.883 355.453,200.216 362.5,193.5 Z"
                            fill="#d7c06d"
                            style="opacity: 0.999"
                        />
                    </g>
                    <g>
                        <path
                            vector-effect="non-scaling-stroke"
                            d="M 465.5,190.5 C 466.167,190.5 466.5,190.833 466.5,191.5C 462.558,196.453 458.558,201.453 454.5,206.5C 453.167,206.5 451.833,206.5 450.5,206.5C 455.518,201.083 460.518,195.75 465.5,190.5 Z"
                            fill="#f6e39a"
                            style="opacity: 0.998"
                        />
                    </g>
                    <g>
                        <path
                            vector-effect="non-scaling-stroke"
                            d="M 107.5,193.5 C 104.463,198.198 100.797,202.198 96.5,205.5C 96.7709,203.62 96.1042,202.287 94.5,201.5C 96.9092,199.098 98.9092,196.431 100.5,193.5C 103.005,192.583 105.338,192.583 107.5,193.5 Z"
                            fill="#d3bc68"
                            style="opacity: 1"
                        />
                    </g>
                    <g>
                        <path
                            vector-effect="non-scaling-stroke"
                            d="M 444.5,190.5 C 445.5,190.5 446.5,190.5 447.5,190.5C 430.14,210.855 412.473,230.855 394.5,250.5C 394.5,249.5 394.5,248.5 394.5,247.5C 404.405,236.422 414.571,225.422 425,214.5C 431.721,206.62 438.221,198.62 444.5,190.5 Z"
                            fill="#cab360"
                            style="opacity: 0.999"
                        />
                    </g>
                    <g>
                        <path
                            vector-effect="non-scaling-stroke"
                            d="M 469.5,191.5 C 471.698,191.875 473.698,192.542 475.5,193.5C 469.855,197.145 465.188,201.812 461.5,207.5C 459.585,207.784 457.919,207.451 456.5,206.5C 458.1,205.748 459.6,204.748 461,203.5C 464.467,199.88 467.3,195.88 469.5,191.5 Z"
                            fill="#f8e59d"
                            style="opacity: 0.998"
                        />
                    </g>
                    <g>
                        <path
                            vector-effect="non-scaling-stroke"
                            d="M 364.5,193.5 C 365.167,193.5 365.833,193.5 366.5,193.5C 360.595,201.24 353.762,208.24 346,214.5C 343.287,219.609 339.454,223.609 334.5,226.5C 335.5,224.5 336.5,222.5 337.5,220.5C 346.785,211.881 355.785,202.881 364.5,193.5 Z"
                            fill="#d2bb66"
                            style="opacity: 1"
                        />
                    </g>
                    <g>
                        <path
                            vector-effect="non-scaling-stroke"
                            d="M 111.5,194.5 C 112.609,194.557 113.609,194.89 114.5,195.5C 109.077,201.981 103.411,208.314 97.5,214.5C 97.5,212.833 97.5,211.167 97.5,209.5C 102.844,205.155 107.511,200.155 111.5,194.5 Z"
                            fill="#c4ac53"
                            style="opacity: 0.999"
                        />
                    </g>
                    <g>
                        <path
                            vector-effect="non-scaling-stroke"
                            d="M 356.5,193.5 C 358.5,193.5 360.5,193.5 362.5,193.5C 355.453,200.216 348.453,206.883 341.5,213.5C 342.326,210.515 343.659,207.849 345.5,205.5C 349.898,202.105 353.564,198.105 356.5,193.5 Z"
                            fill="#dcc674"
                            style="opacity: 0.939"
                        />
                    </g>
                    <g>
                        <path
                            vector-effect="non-scaling-stroke"
                            d="M 477.5,193.5 C 478.71,193.932 479.71,194.599 480.5,195.5C 475.5,199.833 470.833,204.5 466.5,209.5C 465.508,209.672 464.842,209.338 464.5,208.5C 469.883,204.447 474.216,199.447 477.5,193.5 Z"
                            fill="#e8d386"
                            style="opacity: 1"
                        />
                    </g>
                    <g>
                        <path
                            vector-effect="non-scaling-stroke"
                            d="M 460.5,190.5 C 462.167,190.5 463.833,190.5 465.5,190.5C 460.518,195.75 455.518,201.083 450.5,206.5C 449.081,207.451 447.415,207.784 445.5,207.5C 450.157,201.511 455.157,195.844 460.5,190.5 Z"
                            fill="#ecd88e"
                            style="opacity: 0.902"
                        />
                    </g>
                    <g>
                        <path
                            vector-effect="non-scaling-stroke"
                            d="M 487.5,198.5 C 488.167,198.5 488.5,198.833 488.5,199.5C 485.529,204.138 481.862,208.138 477.5,211.5C 477.709,210.078 478.209,208.745 479,207.5C 482.404,204.932 485.237,201.932 487.5,198.5 Z"
                            fill="#d2bb66"
                            style="opacity: 0.999"
                        />
                    </g>
                    <g>
                        <path
                            vector-effect="non-scaling-stroke"
                            d="M 229.5,192.5 C 225.845,197.486 221.845,202.153 217.5,206.5C 217.5,205.5 217.5,204.5 217.5,203.5C 221.3,201.037 223.967,197.704 225.5,193.5C 226.833,193.167 228.167,192.833 229.5,192.5 Z"
                            fill="#d7c06d"
                            style="opacity: 0.999"
                        />
                    </g>
                    <g>
                        <path
                            vector-effect="non-scaling-stroke"
                            d="M 356.5,193.5 C 353.564,198.105 349.898,202.105 345.5,205.5C 346.462,198.876 350.129,194.876 356.5,193.5 Z"
                            fill="#e3ce7e"
                            style="opacity: 1"
                        />
                    </g>
                    <g>
                        <path
                            vector-effect="non-scaling-stroke"
                            d="M 485.5,197.5 C 486.492,197.328 487.158,197.662 487.5,198.5C 485.237,201.932 482.404,204.932 479,207.5C 478.209,208.745 477.709,210.078 477.5,211.5C 475.77,212.026 474.436,213.026 473.5,214.5C 472.5,213.833 471.5,213.167 470.5,212.5C 474.098,207.726 477.931,203.06 482,198.5C 483.011,197.663 484.178,197.33 485.5,197.5 Z"
                            fill="#d9c371"
                            style="opacity: 0.999"
                        />
                    </g>
                    <g>
                        <path
                            vector-effect="non-scaling-stroke"
                            d="M 493.5,202.5 C 503.381,210.596 509.381,220.93 511.5,233.5C 511.5,241.833 511.5,250.167 511.5,258.5C 502.016,298.124 477.016,314.958 436.5,309C 426.812,306.782 418.812,301.949 412.5,294.5C 417.157,288.177 422.49,282.51 428.5,277.5C 437.631,293.376 450.631,297.543 467.5,290C 475.202,283.959 480.035,276.125 482,266.5C 486.324,250.531 484.824,235.198 477.5,220.5C 478.239,220.631 478.906,220.464 479.5,220C 482.984,215.549 486.817,211.382 491,207.5C 492.094,205.922 492.928,204.255 493.5,202.5 Z"
                            fill="#bfa64a"
                            style="opacity: 0.971"
                        />
                    </g>
                    <g>
                        <path
                            vector-effect="non-scaling-stroke"
                            d="M 298.5,202.5 C 299.338,202.842 299.672,203.508 299.5,204.5C 291.374,212.299 283.374,219.965 275.5,227.5C 282.827,218.841 290.493,210.507 298.5,202.5 Z"
                            fill="#b79f47"
                            style="opacity: 0.998"
                        />
                    </g>
                    <g>
                        <path
                            vector-effect="non-scaling-stroke"
                            d="M 458.5,190.5 C 459.167,190.5 459.833,190.5 460.5,190.5C 455.157,195.844 450.157,201.511 445.5,207.5C 444.609,208.11 443.609,208.443 442.5,208.5C 447.462,202.203 452.795,196.203 458.5,190.5 Z"
                            fill="#e6d185"
                            style="opacity: 1"
                        />
                    </g>
                    <g>
                        <path
                            vector-effect="non-scaling-stroke"
                            d="M 53.5,199.5 C 52.8902,200.391 52.5569,201.391 52.5,202.5C 45.1898,209.649 38.3565,217.316 32,225.5C 30.6703,226.582 29.1703,227.249 27.5,227.5C 27.8333,226.833 28.1667,226.167 28.5,225.5C 36.5617,217.609 44.0617,209.275 51,200.5C 51.6708,199.748 52.5041,199.414 53.5,199.5 Z"
                            fill="#d4be6d"
                            style="opacity: 1"
                        />
                    </g>
                    <g>
                        <path
                            vector-effect="non-scaling-stroke"
                            d="M 234.5,193.5 C 235.5,193.5 236.5,193.5 237.5,193.5C 233.938,199.897 229.438,205.564 224,210.5C 222.768,214.344 220.602,217.344 217.5,219.5C 217.5,218.167 217.5,216.833 217.5,215.5C 223.925,208.743 229.592,201.41 234.5,193.5 Z"
                            fill="#c4ac53"
                            style="opacity: 0.999"
                        />
                    </g>
                    <g>
                        <path
                            vector-effect="non-scaling-stroke"
                            d="M 454.5,190.5 C 455.833,190.5 457.167,190.5 458.5,190.5C 452.795,196.203 447.462,202.203 442.5,208.5C 440.544,209.492 438.544,210.492 436.5,211.5C 438.43,207.734 441.264,204.734 445,202.5C 445.483,201.552 445.649,200.552 445.5,199.5C 448.833,196.833 451.833,193.833 454.5,190.5 Z"
                            fill="#e0cb7d"
                            style="opacity: 0.86"
                        />
                    </g>
                    <g>
                        <path
                            vector-effect="non-scaling-stroke"
                            d="M 491.5,201.5 C 492.492,201.328 493.158,201.662 493.5,202.5C 492.928,204.255 492.094,205.922 491,207.5C 486.817,211.382 482.984,215.549 479.5,220C 478.906,220.464 478.239,220.631 477.5,220.5C 477.167,219.833 476.833,219.167 476.5,218.5C 481.865,213.136 486.865,207.469 491.5,201.5 Z"
                            fill="#c4ac52"
                            style="opacity: 1"
                        />
                    </g>
                    <g>
                        <path
                            vector-effect="non-scaling-stroke"
                            d="M 49.5,196.5 C 50.1667,196.5 50.8333,196.5 51.5,196.5C 51.9382,196.435 52.2716,196.601 52.5,197C 44.6472,205.218 37.1472,213.718 30,222.5C 29.6012,222.272 29.4346,221.938 29.5,221.5C 29.5,220.5 29.5,219.5 29.5,218.5C 37.0819,212.006 43.7486,204.673 49.5,196.5 Z"
                            fill="#cab360"
                            style="opacity: 0.956"
                        />
                    </g>
                    <g>
                        <path
                            vector-effect="non-scaling-stroke"
                            d="M 296.5,198.5 C 297.167,198.5 297.5,198.833 297.5,199.5C 286.152,210.516 275.486,222.182 265.5,234.5C 265.5,233.167 265.5,231.833 265.5,230.5C 268.386,228.434 271.219,226.1 274,223.5C 274.333,222.5 274.667,221.5 275,220.5C 282.397,213.271 289.563,205.938 296.5,198.5 Z"
                            fill="#ab9237"
                            style="opacity: 0.998"
                        />
                    </g>
                    <g>
                        <path
                            vector-effect="non-scaling-stroke"
                            d="M 299.5,204.5 C 300.338,204.842 300.672,205.508 300.5,206.5C 289.136,217.362 277.803,228.528 266.5,240C 265.906,240.464 265.239,240.631 264.5,240.5C 264.433,239.041 264.766,237.708 265.5,236.5C 268.859,233.471 272.192,230.471 275.5,227.5C 283.374,219.965 291.374,212.299 299.5,204.5 Z"
                            fill="#bca44d"
                            style="opacity: 0.998"
                        />
                    </g>
                    <g>
                        <path
                            vector-effect="non-scaling-stroke"
                            d="M 371.5,193.5 C 372.167,193.833 372.833,194.167 373.5,194.5C 372.26,196.945 370.76,199.279 369,201.5C 354.271,216.062 339.771,230.728 325.5,245.5C 325.992,243.181 326.992,241.181 328.5,239.5C 343.074,224.382 357.407,209.049 371.5,193.5 Z"
                            fill="#c4ac52"
                            style="opacity: 0.999"
                        />
                    </g>
                    <g>
                        <path
                            vector-effect="non-scaling-stroke"
                            d="M 480.5,195.5 C 482.553,195.402 484.22,196.069 485.5,197.5C 484.178,197.33 483.011,197.663 482,198.5C 477.931,203.06 474.098,207.726 470.5,212.5C 469.128,211.488 467.795,210.488 466.5,209.5C 470.833,204.5 475.5,199.833 480.5,195.5 Z"
                            fill="#e1cb7c"
                            style="opacity: 0.996"
                        />
                    </g>
                    <g>
                        <path
                            vector-effect="non-scaling-stroke"
                            d="M 51.5,196.5 C 52.3864,195.224 53.3864,195.224 54.5,196.5C 53.8728,197.417 53.5394,198.417 53.5,199.5C 52.5041,199.414 51.6708,199.748 51,200.5C 44.0617,209.275 36.5617,217.609 28.5,225.5C 28.2322,223.901 28.5655,222.568 29.5,221.5C 29.4346,221.938 29.6012,222.272 30,222.5C 37.1472,213.718 44.6472,205.218 52.5,197C 52.2716,196.601 51.9382,196.435 51.5,196.5 Z"
                            fill="#cfb967"
                            style="opacity: 0.999"
                        />
                    </g>
                    <g>
                        <path
                            vector-effect="non-scaling-stroke"
                            d="M 297.5,199.5 C 298.11,200.391 298.443,201.391 298.5,202.5C 290.493,210.507 282.827,218.841 275.5,227.5C 272.192,230.471 268.859,233.471 265.5,236.5C 265.5,235.833 265.5,235.167 265.5,234.5C 275.486,222.182 286.152,210.516 297.5,199.5 Z"
                            fill="#b19940"
                            style="opacity: 0.999"
                        />
                    </g>
                    <g>
                        <path
                            vector-effect="non-scaling-stroke"
                            d="M 171.5,201.5 C 171.5,202.833 171.5,204.167 171.5,205.5C 169.983,205.511 168.816,206.177 168,207.5C 163.387,213.753 158.554,219.753 153.5,225.5C 153.343,224.127 153.51,222.793 154,221.5C 159.384,214.293 165.217,207.626 171.5,201.5 Z"
                            fill="#ac9339"
                            style="opacity: 0.996"
                        />
                    </g>
                    <g>
                        <path
                            vector-effect="non-scaling-stroke"
                            d="M 432.5,193.5 C 420.5,206.833 408.5,220.167 396.5,233.5C 396.5,232.5 396.5,231.5 396.5,230.5C 397.239,230.631 397.906,230.464 398.5,230C 401.959,224.873 406.126,220.373 411,216.5C 415.952,209.051 421.452,202.051 427.5,195.5C 428.93,194.463 430.597,193.796 432.5,193.5 Z"
                            fill="#ad943a"
                            style="opacity: 1"
                        />
                    </g>
                    <g>
                        <path
                            vector-effect="non-scaling-stroke"
                            d="M 49.5,196.5 C 43.7486,204.673 37.0819,212.006 29.5,218.5C 32.3883,207.617 39.0549,200.283 49.5,196.5 Z"
                            fill="#c3ac57"
                            style="opacity: 1"
                        />
                    </g>
                    <g>
                        <path
                            vector-effect="non-scaling-stroke"
                            d="M 442.5,190.5 C 426.903,208.101 410.903,225.434 394.5,242.5C 395.11,241.609 395.443,240.609 395.5,239.5C 410.654,224.025 424.987,208.025 438.5,191.5C 439.959,191.567 441.292,191.234 442.5,190.5 Z"
                            fill="#bca54e"
                            style="opacity: 1"
                        />
                    </g>
                    <g>
                        <path
                            vector-effect="non-scaling-stroke"
                            d="M 51.5,205.5 C 51.5674,206.959 51.2341,208.292 50.5,209.5C 44.4133,215.086 39.2467,221.42 35,228.5C 32.5644,231.447 29.7311,233.78 26.5,235.5C 26.6287,233.784 26.962,232.117 27.5,230.5C 30.3943,229.118 32.8943,227.118 35,224.5C 40.0356,217.761 45.5356,211.428 51.5,205.5 Z"
                            fill="#dec97a"
                            style="opacity: 0.999"
                        />
                    </g>
                    <g>
                        <path
                            vector-effect="non-scaling-stroke"
                            d="M 171.5,208.5 C 171.5,209.5 171.5,210.5 171.5,211.5C 167.716,216.097 163.716,220.43 159.5,224.5C 163.122,218.878 167.122,213.545 171.5,208.5 Z"
                            fill="#bca54e"
                            style="opacity: 0.997"
                        />
                    </g>
                    <g>
                        <path
                            vector-effect="non-scaling-stroke"
                            d="M 488.5,199.5 C 490.027,199.427 491.027,200.094 491.5,201.5C 486.865,207.469 481.865,213.136 476.5,218.5C 475.026,217.564 474.026,216.23 473.5,214.5C 474.436,213.026 475.77,212.026 477.5,211.5C 481.862,208.138 485.529,204.138 488.5,199.5 Z"
                            fill="#cdb55f"
                            style="opacity: 1"
                        />
                    </g>
                    <g>
                        <path
                            vector-effect="non-scaling-stroke"
                            d="M 49.5,215.5 C 49.5,216.167 49.5,216.833 49.5,217.5C 42.5321,224.972 35.6988,232.639 29,240.5C 28.3292,241.252 27.4959,241.586 26.5,241.5C 26.5,240.833 26.5,240.167 26.5,239.5C 34.2158,231.453 41.8824,223.453 49.5,215.5 Z"
                            fill="#ead68b"
                            style="opacity: 0.975"
                        />
                    </g>
                    <g>
                        <path
                            vector-effect="non-scaling-stroke"
                            d="M 366.5,193.5 C 367.5,193.5 368.5,193.5 369.5,193.5C 357.893,206.775 345.559,219.442 332.5,231.5C 332.893,229.716 333.559,228.05 334.5,226.5C 339.454,223.609 343.287,219.609 346,214.5C 353.762,208.24 360.595,201.24 366.5,193.5 Z"
                            fill="#ceb660"
                            style="opacity: 0.996"
                        />
                    </g>
                    <g>
                        <path
                            vector-effect="non-scaling-stroke"
                            d="M 447.5,190.5 C 449.833,190.5 452.167,190.5 454.5,190.5C 451.833,193.833 448.833,196.833 445.5,199.5C 443.351,201.046 441.184,202.712 439,204.5C 429.2,216.385 419.2,228.051 409,239.5C 404.856,244.49 400.023,248.49 394.5,251.5C 394.5,251.167 394.5,250.833 394.5,250.5C 412.473,230.855 430.14,210.855 447.5,190.5 Z"
                            fill="#d2bc6b"
                            style="opacity: 1"
                        />
                    </g>
                    <g>
                        <path
                            vector-effect="non-scaling-stroke"
                            d="M 21.5,222.5 C 17.8062,225.527 14.4729,228.86 11.5,232.5C 13.9812,225.881 18.1479,220.548 24,216.5C 24.008,218.821 23.1747,220.821 21.5,222.5 Z"
                            fill="#b69e47"
                            style="opacity: 0.736"
                        />
                    </g>
                    <g>
                        <path
                            vector-effect="non-scaling-stroke"
                            d="M 52.5,202.5 C 52.4431,203.609 52.1098,204.609 51.5,205.5C 45.5356,211.428 40.0356,217.761 35,224.5C 32.8943,227.118 30.3943,229.118 27.5,230.5C 27.5,229.5 27.5,228.5 27.5,227.5C 29.1703,227.249 30.6703,226.582 32,225.5C 38.3565,217.316 45.1898,209.649 52.5,202.5 Z"
                            fill="#d8c373"
                            style="opacity: 0.999"
                        />
                    </g>
                    <g>
                        <path
                            vector-effect="non-scaling-stroke"
                            d="M 171.5,211.5 C 171.5,212.833 171.5,214.167 171.5,215.5C 167.581,217.233 165.248,220.233 164.5,224.5C 163.115,225.614 161.615,226.614 160,227.5C 155.096,234.78 149.929,241.78 144.5,248.5C 144.5,247.167 144.5,245.833 144.5,244.5C 150.262,238.404 155.262,231.738 159.5,224.5C 163.716,220.43 167.716,216.097 171.5,211.5 Z"
                            fill="#c2ab56"
                            style="opacity: 1"
                        />
                    </g>
                    <g>
                        <path
                            vector-effect="non-scaling-stroke"
                            d="M 303.5,211.5 C 303.833,212.167 304.167,212.833 304.5,213.5C 298.833,219.5 293.167,225.5 287.5,231.5C 286.596,230.791 286.263,229.791 286.5,228.5C 291.806,222.527 297.473,216.86 303.5,211.5 Z"
                            fill="#d7c171"
                            style="opacity: 1"
                        />
                    </g>
                    <g>
                        <path
                            vector-effect="non-scaling-stroke"
                            d="M 50.5,209.5 C 50.6747,211.621 50.3414,213.621 49.5,215.5C 41.8824,223.453 34.2158,231.453 26.5,239.5C 26.5,238.167 26.5,236.833 26.5,235.5C 29.7311,233.78 32.5644,231.447 35,228.5C 39.2467,221.42 44.4133,215.086 50.5,209.5 Z"
                            fill="#e5d083"
                            style="opacity: 0.998"
                        />
                    </g>
                    <g>
                        <path
                            vector-effect="non-scaling-stroke"
                            d="M 49.5,217.5 C 49.5,218.833 49.5,220.167 49.5,221.5C 48.7611,221.369 48.0944,221.536 47.5,222C 40.781,229.968 33.781,237.468 26.5,244.5C 26.5,243.5 26.5,242.5 26.5,241.5C 27.4959,241.586 28.3292,241.252 29,240.5C 35.6988,232.639 42.5321,224.972 49.5,217.5 Z"
                            fill="#f0dc92"
                            style="opacity: 0.963"
                        />
                    </g>
                    <g>
                        <path
                            vector-effect="non-scaling-stroke"
                            d="M 442.5,190.5 C 443.167,190.5 443.833,190.5 444.5,190.5C 438.221,198.62 431.721,206.62 425,214.5C 414.571,225.422 404.405,236.422 394.5,247.5C 394.5,245.833 394.5,244.167 394.5,242.5C 410.903,225.434 426.903,208.101 442.5,190.5 Z"
                            fill="#c2ab56"
                            style="opacity: 1"
                        />
                    </g>
                    <g>
                        <path
                            vector-effect="non-scaling-stroke"
                            d="M 171.5,215.5 C 171.5,216.833 171.5,218.167 171.5,219.5C 162.787,229.544 154.454,239.877 146.5,250.5C 152.5,241.833 158.5,233.167 164.5,224.5C 165.248,220.233 167.581,217.233 171.5,215.5 Z"
                            fill="#ceb765"
                            style="opacity: 1"
                        />
                    </g>
                    <g>
                        <path
                            vector-effect="non-scaling-stroke"
                            d="M 171.5,205.5 C 171.5,206.5 171.5,207.5 171.5,208.5C 167.122,213.545 163.122,218.878 159.5,224.5C 154.735,230.354 149.735,236.021 144.5,241.5C 144.5,239.5 144.5,237.5 144.5,235.5C 147.5,232.167 150.5,228.833 153.5,225.5C 158.554,219.753 163.387,213.753 168,207.5C 168.816,206.177 169.983,205.511 171.5,205.5 Z"
                            fill="#b59d44"
                            style="opacity: 0.998"
                        />
                    </g>
                    <g>
                        <path
                            vector-effect="non-scaling-stroke"
                            d="M 438.5,191.5 C 424.987,208.025 410.654,224.025 395.5,239.5C 395.325,237.379 395.659,235.379 396.5,233.5C 408.5,220.167 420.5,206.833 432.5,193.5C 434.421,192.637 436.421,191.971 438.5,191.5 Z"
                            fill="#b59d45"
                            style="opacity: 0.998"
                        />
                    </g>
                    <g>
                        <path
                            vector-effect="non-scaling-stroke"
                            d="M 445.5,199.5 C 445.649,200.552 445.483,201.552 445,202.5C 441.264,204.734 438.43,207.734 436.5,211.5C 434.167,214.167 431.833,216.833 429.5,219.5C 428.504,219.414 427.671,219.748 427,220.5C 417.346,232.984 406.846,244.651 395.5,255.5C 395.167,254.167 394.833,252.833 394.5,251.5C 400.023,248.49 404.856,244.49 409,239.5C 419.2,228.051 429.2,216.385 439,204.5C 441.184,202.712 443.351,201.046 445.5,199.5 Z"
                            fill="#d8c273"
                            style="opacity: 0.998"
                        />
                    </g>
                    <g>
                        <path
                            vector-effect="non-scaling-stroke"
                            d="M 308.5,222.5 C 309.737,223.965 310.737,225.632 311.5,227.5C 305.185,232.817 299.519,238.817 294.5,245.5C 293.326,244.486 292.66,243.153 292.5,241.5C 297.082,234.581 302.415,228.247 308.5,222.5 Z"
                            fill="#fce8a1"
                            style="opacity: 0.967"
                        />
                    </g>
                    <g>
                        <path
                            vector-effect="non-scaling-stroke"
                            d="M 21.5,222.5 C 21.5674,223.959 21.2341,225.292 20.5,226.5C 16.8062,229.527 13.4729,232.86 10.5,236.5C 10.4326,235.041 10.7659,233.708 11.5,232.5C 14.4729,228.86 17.8062,225.527 21.5,222.5 Z"
                            fill="#bca54e"
                            style="opacity: 0.929"
                        />
                    </g>
                    <g>
                        <path
                            vector-effect="non-scaling-stroke"
                            d="M 48.5,224.5 C 48.5,227.167 48.5,229.833 48.5,232.5C 43.8942,237.279 39.3942,242.279 35,247.5C 32.5644,250.447 29.7311,252.78 26.5,254.5C 26.5,252.167 26.5,249.833 26.5,247.5C 33.861,239.807 41.1943,232.14 48.5,224.5 Z"
                            fill="#fce8a2"
                            style="opacity: 0.967"
                        />
                    </g>
                    <g>
                        <path
                            vector-effect="non-scaling-stroke"
                            d="M 305.5,216.5 C 306.674,217.514 307.34,218.847 307.5,220.5C 301.803,226.198 295.803,231.532 289.5,236.5C 289.5,236.167 289.5,235.833 289.5,235.5C 294.025,228.629 299.358,222.295 305.5,216.5 Z"
                            fill="#ead58a"
                            style="opacity: 0.972"
                        />
                    </g>
                    <g>
                        <path
                            vector-effect="non-scaling-stroke"
                            d="M 159.5,224.5 C 155.262,231.738 150.262,238.404 144.5,244.5C 144.5,243.5 144.5,242.5 144.5,241.5C 149.735,236.021 154.735,230.354 159.5,224.5 Z"
                            fill="#bca54e"
                            style="opacity: 0.999"
                        />
                    </g>
                    <g>
                        <path
                            vector-effect="non-scaling-stroke"
                            d="M 300.5,206.5 C 288.891,219.445 276.891,232.112 264.5,244.5C 264.5,243.167 264.5,241.833 264.5,240.5C 265.239,240.631 265.906,240.464 266.5,240C 277.803,228.528 289.136,217.362 300.5,206.5 Z"
                            fill="#c1aa54"
                            style="opacity: 1"
                        />
                    </g>
                    <g>
                        <path
                            vector-effect="non-scaling-stroke"
                            d="M 300.5,206.5 C 301.674,207.514 302.34,208.847 302.5,210.5C 301.761,210.369 301.094,210.536 300.5,211C 288.578,223.752 276.578,236.252 264.5,248.5C 264.5,247.167 264.5,245.833 264.5,244.5C 276.891,232.112 288.891,219.445 300.5,206.5 Z"
                            fill="#c9b25e"
                            style="opacity: 0.998"
                        />
                    </g>
                    <g>
                        <path
                            vector-effect="non-scaling-stroke"
                            d="M 49.5,221.5 C 49.4431,222.609 49.1098,223.609 48.5,224.5C 41.1943,232.14 33.861,239.807 26.5,247.5C 26.5,246.5 26.5,245.5 26.5,244.5C 33.781,237.468 40.781,229.968 47.5,222C 48.0944,221.536 48.7611,221.369 49.5,221.5 Z"
                            fill="#f5e199"
                            style="opacity: 0.999"
                        />
                    </g>
                    <g>
                        <path
                            vector-effect="non-scaling-stroke"
                            d="M 311.5,227.5 C 312.11,228.391 312.443,229.391 312.5,230.5C 307.19,236.814 301.856,243.147 296.5,249.5C 295.326,248.486 294.66,247.153 294.5,245.5C 299.519,238.817 305.185,232.817 311.5,227.5 Z"
                            fill="#f3df95"
                            style="opacity: 0.985"
                        />
                    </g>
                    <g>
                        <path
                            vector-effect="non-scaling-stroke"
                            d="M 304.5,213.5 C 305.11,214.391 305.443,215.391 305.5,216.5C 299.358,222.295 294.025,228.629 289.5,235.5C 288.326,234.486 287.66,233.153 287.5,231.5C 293.167,225.5 298.833,219.5 304.5,213.5 Z"
                            fill="#e0cc7e"
                            style="opacity: 0.978"
                        />
                    </g>
                    <g>
                        <path
                            vector-effect="non-scaling-stroke"
                            d="M 20.5,226.5 C 20.7845,228.415 20.4511,230.081 19.5,231.5C 17.4002,233.498 15.4002,235.665 13.5,238C 12.0993,238.41 10.766,238.91 9.5,239.5C 9.26269,238.209 9.59603,237.209 10.5,236.5C 13.4729,232.86 16.8062,229.527 20.5,226.5 Z"
                            fill="#c4ad58"
                            style="opacity: 1"
                        />
                    </g>
                    <g>
                        <path
                            vector-effect="non-scaling-stroke"
                            d="M 48.5,232.5 C 48.5,233.833 48.5,235.167 48.5,236.5C 41.5179,243.749 34.5179,251.083 27.5,258.5C 27.1667,257.167 26.8333,255.833 26.5,254.5C 29.7311,252.78 32.5644,250.447 35,247.5C 39.3942,242.279 43.8942,237.279 48.5,232.5 Z"
                            fill="#f6e299"
                            style="opacity: 0.967"
                        />
                    </g>
                    <g>
                        <path
                            vector-effect="non-scaling-stroke"
                            d="M 307.5,220.5 C 308.338,220.842 308.672,221.508 308.5,222.5C 302.415,228.247 297.082,234.581 292.5,241.5C 291.263,240.035 290.263,238.368 289.5,236.5C 295.803,231.532 301.803,226.198 307.5,220.5 Z"
                            fill="#f4e097"
                            style="opacity: 0.999"
                        />
                    </g>
                    <g>
                        <path
                            vector-effect="non-scaling-stroke"
                            d="M 424.5,231.5 C 424.167,232.833 423.833,234.167 423.5,235.5C 414.549,244.786 405.549,254.119 396.5,263.5C 396.5,262.833 396.5,262.167 396.5,261.5C 405.488,251.178 414.822,241.178 424.5,231.5 Z"
                            fill="#ebd78c"
                            style="opacity: 0.994"
                        />
                    </g>
                    <g>
                        <path
                            vector-effect="non-scaling-stroke"
                            d="M 19.5,231.5 C 19.5,233.5 19.5,235.5 19.5,237.5C 16.1733,240.818 12.5066,243.818 8.5,246.5C 8.67412,244.139 9.00745,241.806 9.5,239.5C 10.766,238.91 12.0993,238.41 13.5,238C 15.4002,235.665 17.4002,233.498 19.5,231.5 Z"
                            fill="#cbb462"
                            style="opacity: 0.999"
                        />
                    </g>
                    <g>
                        <path
                            vector-effect="non-scaling-stroke"
                            d="M 302.5,210.5 C 303.167,210.5 303.5,210.833 303.5,211.5C 297.473,216.86 291.806,222.527 286.5,228.5C 285.833,228.5 285.5,228.833 285.5,229.5C 278.833,236.833 271.833,243.833 264.5,250.5C 264.5,249.833 264.5,249.167 264.5,248.5C 276.578,236.252 288.578,223.752 300.5,211C 301.094,210.536 301.761,210.369 302.5,210.5 Z"
                            fill="#cfb967"
                            style="opacity: 1"
                        />
                    </g>
                    <g>
                        <path
                            vector-effect="non-scaling-stroke"
                            d="M 285.5,229.5 C 285.5,231.167 285.5,232.833 285.5,234.5C 278.427,241.244 271.427,247.91 264.5,254.5C 264.5,253.167 264.5,251.833 264.5,250.5C 271.833,243.833 278.833,236.833 285.5,229.5 Z"
                            fill="#d7c171"
                            style="opacity: 0.999"
                        />
                    </g>
                    <g>
                        <path
                            vector-effect="non-scaling-stroke"
                            d="M 48.5,236.5 C 48.8333,236.5 49.1667,236.5 49.5,236.5C 49.719,237.675 49.3857,238.675 48.5,239.5C 42.439,244.392 37.2724,250.059 33,256.5C 31.3492,258.21 29.5158,259.544 27.5,260.5C 27.5,259.833 27.5,259.167 27.5,258.5C 34.5179,251.083 41.5179,243.749 48.5,236.5 Z"
                            fill="#f0dc92"
                            style="opacity: 0.981"
                        />
                    </g>
                    <g>
                        <path
                            vector-effect="non-scaling-stroke"
                            d="M 69.5,236.5 C 71.1667,236.5 72.8333,236.5 74.5,236.5C 68.4558,242.269 63.1225,248.602 58.5,255.5C 56.8333,255.5 55.1667,255.5 53.5,255.5C 54.9997,250.932 57.9997,247.932 62.5,246.5C 64.0217,242.637 66.355,239.304 69.5,236.5 Z"
                            fill="#cbb35c"
                            style="opacity: 0.983"
                        />
                    </g>
                    <g>
                        <path
                            vector-effect="non-scaling-stroke"
                            d="M 429.5,219.5 C 427.895,222.378 426.561,225.378 425.5,228.5C 424.761,228.369 424.094,228.536 423.5,229C 413.964,238.368 404.631,247.868 395.5,257.5C 395.5,256.833 395.5,256.167 395.5,255.5C 406.846,244.651 417.346,232.984 427,220.5C 427.671,219.748 428.504,219.414 429.5,219.5 Z"
                            fill="#dec97a"
                            style="opacity: 0.999"
                        />
                    </g>
                    <g>
                        <path
                            vector-effect="non-scaling-stroke"
                            d="M 314.5,234.5 C 315.674,235.514 316.34,236.847 316.5,238.5C 309.399,242.934 304.066,248.934 300.5,256.5C 299.263,255.035 298.263,253.368 297.5,251.5C 303.779,246.554 309.446,240.888 314.5,234.5 Z"
                            fill="#e2cd7d"
                            style="opacity: 1"
                        />
                    </g>
                    <g>
                        <path
                            vector-effect="non-scaling-stroke"
                            d="M 312.5,230.5 C 313.674,231.514 314.34,232.847 314.5,234.5C 309.446,240.888 303.779,246.554 297.5,251.5C 297.167,250.833 296.833,250.167 296.5,249.5C 301.856,243.147 307.19,236.814 312.5,230.5 Z"
                            fill="#ebd78a"
                            style="opacity: 0.999"
                        />
                    </g>
                    <g>
                        <path
                            vector-effect="non-scaling-stroke"
                            d="M 171.5,238.5 C 171.5,241.167 171.5,243.833 171.5,246.5C 163.167,256.5 154.833,266.5 146.5,276.5C 145.539,274.735 145.205,272.735 145.5,270.5C 153.848,259.494 162.515,248.828 171.5,238.5 Z"
                            fill="#fbe8a1"
                            style="opacity: 0.961"
                        />
                    </g>
                    <g>
                        <path
                            vector-effect="non-scaling-stroke"
                            d="M 285.5,238.5 C 285.5,239.167 285.5,239.833 285.5,240.5C 278.84,247.826 271.84,254.826 264.5,261.5C 264.5,259.833 264.5,258.167 264.5,256.5C 271.75,250.926 278.75,244.926 285.5,238.5 Z"
                            fill="#e5d084"
                            style="opacity: 0.999"
                        />
                    </g>
                    <g>
                        <path
                            vector-effect="non-scaling-stroke"
                            d="M 49.5,236.5 C 50.5,236.5 51.5,236.5 52.5,236.5C 44.5,245.5 36.5,254.5 28.5,263.5C 27.596,262.791 27.2627,261.791 27.5,260.5C 29.5158,259.544 31.3492,258.21 33,256.5C 37.2724,250.059 42.439,244.392 48.5,239.5C 49.3857,238.675 49.719,237.675 49.5,236.5 Z"
                            fill="#ecd78b"
                            style="opacity: 0.999"
                        />
                    </g>
                    <g>
                        <path
                            vector-effect="non-scaling-stroke"
                            d="M 74.5,236.5 C 75.5,236.5 76.5,236.5 77.5,236.5C 72.1467,243.183 66.4801,249.516 60.5,255.5C 59.8333,255.5 59.1667,255.5 58.5,255.5C 63.1225,248.602 68.4558,242.269 74.5,236.5 Z"
                            fill="#c4ac53"
                            style="opacity: 0.941"
                        />
                    </g>
                    <g>
                        <path
                            vector-effect="non-scaling-stroke"
                            d="M 164.5,224.5 C 158.5,233.167 152.5,241.833 146.5,250.5C 146.5,251.833 145.833,252.5 144.5,252.5C 144.5,251.167 144.5,249.833 144.5,248.5C 149.929,241.78 155.096,234.78 160,227.5C 161.615,226.614 163.115,225.614 164.5,224.5 Z"
                            fill="#c9b35f"
                            style="opacity: 0.999"
                        />
                    </g>
                    <g>
                        <path
                            vector-effect="non-scaling-stroke"
                            d="M 318.5,241.5 C 318.5,241.833 318.5,242.167 318.5,242.5C 315.878,245.257 313.045,247.924 310,250.5C 307.978,254.003 305.811,257.337 303.5,260.5C 303.167,260.5 302.833,260.5 302.5,260.5C 301.326,259.486 300.66,258.153 300.5,256.5C 301.239,256.631 301.906,256.464 302.5,256C 305.843,252.292 309.176,248.625 312.5,245C 314.405,243.579 316.405,242.412 318.5,241.5 Z"
                            fill="#d6bf6c"
                            style="opacity: 0.999"
                        />
                    </g>
                    <g>
                        <path
                            vector-effect="non-scaling-stroke"
                            d="M 423.5,235.5 C 423.167,237.5 422.833,239.5 422.5,241.5C 415.823,247.185 409.823,253.519 404.5,260.5C 401.798,262.22 399.132,263.887 396.5,265.5C 396.5,264.833 396.5,264.167 396.5,263.5C 405.549,254.119 414.549,244.786 423.5,235.5 Z"
                            fill="#f3df96"
                            style="opacity: 0.999"
                        />
                    </g>
                    <g>
                        <path
                            vector-effect="non-scaling-stroke"
                            d="M 19.5,237.5 C 19.5,238.833 19.5,240.167 19.5,241.5C 16.027,245.395 12.3604,249.061 8.5,252.5C 8.5,250.5 8.5,248.5 8.5,246.5C 12.5066,243.818 16.1733,240.818 19.5,237.5 Z"
                            fill="#d5bf6f"
                            style="opacity: 1"
                        />
                    </g>
                    <g>
                        <path
                            vector-effect="non-scaling-stroke"
                            d="M 422.5,241.5 C 422.5,244.167 422.5,246.833 422.5,249.5C 415.141,256.547 408.141,264.047 401.5,272C 400.552,272.483 399.552,272.649 398.5,272.5C 397.985,270.106 397.319,267.772 396.5,265.5C 399.132,263.887 401.798,262.22 404.5,260.5C 409.823,253.519 415.823,247.185 422.5,241.5 Z"
                            fill="#fbe8a1"
                            style="opacity: 0.968"
                        />
                    </g>
                    <g>
                        <path
                            vector-effect="non-scaling-stroke"
                            d="M 52.5,236.5 C 53.8333,236.5 55.1667,236.5 56.5,236.5C 56.6716,237.492 56.3382,238.158 55.5,238.5C 45.8802,246.813 36.8802,255.813 28.5,265.5C 28.5,264.833 28.5,264.167 28.5,263.5C 36.5,254.5 44.5,245.5 52.5,236.5 Z"
                            fill="#e8d285"
                            style="opacity: 1"
                        />
                    </g>
                    <g>
                        <path
                            vector-effect="non-scaling-stroke"
                            d="M 171.5,219.5 C 171.5,221.5 171.5,223.5 171.5,225.5C 170.504,225.414 169.671,225.748 169,226.5C 161.381,237.283 153.214,247.617 144.5,257.5C 144.5,255.833 144.5,254.167 144.5,252.5C 145.833,252.5 146.5,251.833 146.5,250.5C 154.454,239.877 162.787,229.544 171.5,219.5 Z"
                            fill="#d6c070"
                            style="opacity: 0.996"
                        />
                    </g>
                    <g>
                        <path
                            vector-effect="non-scaling-stroke"
                            d="M 285.5,240.5 C 285.5,242.167 285.5,243.833 285.5,245.5C 278.264,252.281 271.264,259.281 264.5,266.5C 264.5,264.833 264.5,263.167 264.5,261.5C 271.84,254.826 278.84,247.826 285.5,240.5 Z"
                            fill="#eeda90"
                            style="opacity: 0.999"
                        />
                    </g>
                    <g>
                        <path
                            vector-effect="non-scaling-stroke"
                            d="M 171.5,231.5 C 171.5,233.833 171.5,236.167 171.5,238.5C 162.515,248.828 153.848,259.494 145.5,270.5C 144.662,270.158 144.328,269.492 144.5,268.5C 149.701,264.135 153.534,258.802 156,252.5C 160.588,247.637 164.421,242.304 167.5,236.5C 168.08,234.251 169.413,232.585 171.5,231.5 Z"
                            fill="#f2de95"
                            style="opacity: 0.999"
                        />
                    </g>
                    <g>
                        <path
                            vector-effect="non-scaling-stroke"
                            d="M 320.5,245.5 C 320.833,246.167 321.167,246.833 321.5,247.5C 316.535,251.963 311.702,256.63 307,261.5C 306.209,262.745 305.709,264.078 305.5,265.5C 304.263,264.035 303.263,262.368 302.5,260.5C 302.833,260.5 303.167,260.5 303.5,260.5C 309.463,255.872 315.13,250.872 320.5,245.5 Z"
                            fill="#cab25b"
                            style="opacity: 0.959"
                        />
                    </g>
                    <g>
                        <path
                            vector-effect="non-scaling-stroke"
                            d="M 316.5,238.5 C 317.401,239.29 318.068,240.29 318.5,241.5C 316.405,242.412 314.405,243.579 312.5,245C 309.176,248.625 305.843,252.292 302.5,256C 301.906,256.464 301.239,256.631 300.5,256.5C 304.066,248.934 309.399,242.934 316.5,238.5 Z"
                            fill="#dcc574"
                            style="opacity: 0.995"
                        />
                    </g>
                    <g>
                        <path
                            vector-effect="non-scaling-stroke"
                            d="M 63.5,236.5 C 65.5,236.5 67.5,236.5 69.5,236.5C 66.355,239.304 64.0217,242.637 62.5,246.5C 57.9997,247.932 54.9997,250.932 53.5,255.5C 52.1667,255.5 50.8333,255.5 49.5,255.5C 52.8236,250.956 56.657,246.622 61,242.5C 62.5588,240.783 63.3921,238.783 63.5,236.5 Z"
                            fill="#d1ba66"
                            style="opacity: 0.997"
                        />
                    </g>
                    <g>
                        <path
                            vector-effect="non-scaling-stroke"
                            d="M 171.5,248.5 C 171.5,249.5 171.5,250.5 171.5,251.5C 163.739,261.351 155.739,271.018 147.5,280.5C 146.662,280.158 146.328,279.492 146.5,278.5C 147.643,278.092 148.643,277.425 149.5,276.5C 156.506,266.837 163.84,257.503 171.5,248.5 Z"
                            fill="#f1dd92"
                            style="opacity: 0.967"
                        />
                    </g>
                    <g>
                        <path
                            vector-effect="non-scaling-stroke"
                            d="M 285.5,245.5 C 285.5,249.167 285.5,252.833 285.5,256.5C 278.826,261.059 272.992,266.726 268,273.5C 266.385,274.386 264.885,275.386 263.5,276.5C 264.051,273.193 264.384,269.86 264.5,266.5C 271.264,259.281 278.264,252.281 285.5,245.5 Z"
                            fill="#fae7a0"
                            style="opacity: 0.969"
                        />
                    </g>
                    <g>
                        <path
                            vector-effect="non-scaling-stroke"
                            d="M 318.5,242.5 C 319.401,243.29 320.068,244.29 320.5,245.5C 315.13,250.872 309.463,255.872 303.5,260.5C 305.811,257.337 307.978,254.003 310,250.5C 313.045,247.924 315.878,245.257 318.5,242.5 Z"
                            fill="#d0b964"
                            style="opacity: 0.997"
                        />
                    </g>
                    <g>
                        <path
                            vector-effect="non-scaling-stroke"
                            d="M 422.5,249.5 C 422.5,250.5 422.5,251.5 422.5,252.5C 416.108,258.944 409.941,265.611 404,272.5C 402.871,274.141 401.371,275.141 399.5,275.5C 399.443,274.391 399.11,273.391 398.5,272.5C 399.552,272.649 400.552,272.483 401.5,272C 408.141,264.047 415.141,256.547 422.5,249.5 Z"
                            fill="#f6e199"
                            style="opacity: 0.958"
                        />
                    </g>
                    <g>
                        <path
                            vector-effect="non-scaling-stroke"
                            d="M 19.5,241.5 C 19.5,242.833 19.5,244.167 19.5,245.5C 16.7352,249.598 13.0685,252.598 8.5,254.5C 8.5,253.833 8.5,253.167 8.5,252.5C 12.3604,249.061 16.027,245.395 19.5,241.5 Z"
                            fill="#ddc87a"
                            style="opacity: 1"
                        />
                    </g>
                    <g>
                        <path
                            vector-effect="non-scaling-stroke"
                            d="M 55.5,238.5 C 54.588,240.595 53.4213,242.595 52,244.5C 46.9805,251.02 41.1472,256.686 34.5,261.5C 33.3665,264.289 31.6999,266.622 29.5,268.5C 28.596,267.791 28.2627,266.791 28.5,265.5C 36.8802,255.813 45.8802,246.813 55.5,238.5 Z"
                            fill="#e4ce7f"
                            style="opacity: 0.964"
                        />
                    </g>
                    <g>
                        <path
                            vector-effect="non-scaling-stroke"
                            d="M 285.5,234.5 C 285.5,235.833 285.5,237.167 285.5,238.5C 278.75,244.926 271.75,250.926 264.5,256.5C 264.5,255.833 264.5,255.167 264.5,254.5C 271.427,247.91 278.427,241.244 285.5,234.5 Z"
                            fill="#dec97b"
                            style="opacity: 0.998"
                        />
                    </g>
                    <g>
                        <path
                            vector-effect="non-scaling-stroke"
                            d="M 425.5,228.5 C 424.89,229.391 424.557,230.391 424.5,231.5C 414.822,241.178 405.488,251.178 396.5,261.5C 395.566,260.432 395.232,259.099 395.5,257.5C 404.631,247.868 413.964,238.368 423.5,229C 424.094,228.536 424.761,228.369 425.5,228.5 Z"
                            fill="#e4cf82"
                            style="opacity: 1"
                        />
                    </g>
                    <g>
                        <path
                            vector-effect="non-scaling-stroke"
                            d="M 56.5,236.5 C 57.8333,236.5 59.1667,236.5 60.5,236.5C 50.8196,248.51 40.4863,259.843 29.5,270.5C 29.5,269.833 29.5,269.167 29.5,268.5C 31.6999,266.622 33.3665,264.289 34.5,261.5C 41.1472,256.686 46.9805,251.02 52,244.5C 53.4213,242.595 54.588,240.595 55.5,238.5C 56.3382,238.158 56.6716,237.492 56.5,236.5 Z"
                            fill="#dfc979"
                            style="opacity: 1"
                        />
                    </g>
                    <g>
                        <path
                            vector-effect="non-scaling-stroke"
                            d="M 19.5,245.5 C 19.5,246.5 19.5,247.5 19.5,248.5C 15.8333,251.5 12.5,254.833 9.5,258.5C 9.16667,257.167 8.83333,255.833 8.5,254.5C 13.0685,252.598 16.7352,249.598 19.5,245.5 Z"
                            fill="#e5d084"
                            style="opacity: 1"
                        />
                    </g>
                    <g>
                        <path
                            vector-effect="non-scaling-stroke"
                            d="M 422.5,252.5 C 422.5,253.167 422.5,253.833 422.5,254.5C 415.501,262.496 408.501,270.496 401.5,278.5C 400.599,277.71 399.932,276.71 399.5,275.5C 401.371,275.141 402.871,274.141 404,272.5C 409.941,265.611 416.108,258.944 422.5,252.5 Z"
                            fill="#f1dc92"
                            style="opacity: 0.978"
                        />
                    </g>
                    <g>
                        <path
                            vector-effect="non-scaling-stroke"
                            d="M 19.5,248.5 C 19.5,250.167 19.5,251.833 19.5,253.5C 16.1518,256.851 13.1518,260.518 10.5,264.5C 9.53862,262.735 9.20528,260.735 9.5,258.5C 12.5,254.833 15.8333,251.5 19.5,248.5 Z"
                            fill="#eeda90"
                            style="opacity: 0.998"
                        />
                    </g>
                    <g>
                        <path
                            vector-effect="non-scaling-stroke"
                            d="M 60.5,236.5 C 61.1667,236.5 61.8333,236.5 62.5,236.5C 59.1358,240.696 55.9692,245.03 53,249.5C 44.9005,257.094 37.4005,265.094 30.5,273.5C 29.8902,272.609 29.5569,271.609 29.5,270.5C 40.4863,259.843 50.8196,248.51 60.5,236.5 Z"
                            fill="#dbc573"
                            style="opacity: 0.98"
                        />
                    </g>
                    <g>
                        <path
                            vector-effect="non-scaling-stroke"
                            d="M 321.5,247.5 C 322.338,247.842 322.672,248.508 322.5,249.5C 320.224,249.756 319.057,251.09 319,253.5C 314.134,257.583 309.967,262.25 306.5,267.5C 305.662,267.158 305.328,266.492 305.5,265.5C 305.709,264.078 306.209,262.745 307,261.5C 311.702,256.63 316.535,251.963 321.5,247.5 Z"
                            fill="#c4ac53"
                            style="opacity: 0.999"
                        />
                    </g>
                    <g>
                        <path
                            vector-effect="non-scaling-stroke"
                            d="M 62.5,236.5 C 62.8333,236.5 63.1667,236.5 63.5,236.5C 63.3921,238.783 62.5588,240.783 61,242.5C 56.657,246.622 52.8236,250.956 49.5,255.5C 48.596,256.209 48.2627,257.209 48.5,258.5C 41.8333,263.167 36.1667,268.833 31.5,275.5C 30.6618,275.158 30.3284,274.492 30.5,273.5C 37.4005,265.094 44.9005,257.094 53,249.5C 55.9692,245.03 59.1358,240.696 62.5,236.5 Z"
                            fill="#d6c06c"
                            style="opacity: 0.999"
                        />
                    </g>
                    <g>
                        <path
                            vector-effect="non-scaling-stroke"
                            d="M 285.5,256.5 C 285.5,257.5 285.5,258.5 285.5,259.5C 279.27,263.893 273.77,269.227 269,275.5C 267.27,277.076 265.437,278.41 263.5,279.5C 263.5,278.5 263.5,277.5 263.5,276.5C 264.885,275.386 266.385,274.386 268,273.5C 272.992,266.726 278.826,261.059 285.5,256.5 Z"
                            fill="#f5e198"
                            style="opacity: 0.974"
                        />
                    </g>
                    <g>
                        <path
                            vector-effect="non-scaling-stroke"
                            d="M 171.5,225.5 C 171.5,227.5 171.5,229.5 171.5,231.5C 169.413,232.585 168.08,234.251 167.5,236.5C 162.768,240.984 158.268,245.651 154,250.5C 151.454,253.037 149.788,256.037 149,259.5C 147.729,260.883 146.229,261.883 144.5,262.5C 144.5,260.833 144.5,259.167 144.5,257.5C 153.214,247.617 161.381,237.283 169,226.5C 169.671,225.748 170.504,225.414 171.5,225.5 Z"
                            fill="#e1cc7e"
                            style="opacity: 0.998"
                        />
                    </g>
                    <g>
                        <path
                            vector-effect="non-scaling-stroke"
                            d="M 48.5,258.5 C 48.5,259.833 48.5,261.167 48.5,262.5C 43.1667,268.167 37.8333,273.833 32.5,279.5C 31.7659,278.292 31.4326,276.959 31.5,275.5C 36.1667,268.833 41.8333,263.167 48.5,258.5 Z"
                            fill="#d0b863"
                            style="opacity: 0.932"
                        />
                    </g>
                    <g>
                        <path
                            vector-effect="non-scaling-stroke"
                            d="M 167.5,236.5 C 164.421,242.304 160.588,247.637 156,252.5C 153.534,258.802 149.701,264.135 144.5,268.5C 144.5,266.5 144.5,264.5 144.5,262.5C 146.229,261.883 147.729,260.883 149,259.5C 149.788,256.037 151.454,253.037 154,250.5C 158.268,245.651 162.768,240.984 167.5,236.5 Z"
                            fill="#ebd78c"
                            style="opacity: 0.903"
                        />
                    </g>
                    <g>
                        <path
                            vector-effect="non-scaling-stroke"
                            d="M 285.5,259.5 C 285.5,260.167 285.5,260.833 285.5,261.5C 277.695,267.14 271.028,273.973 265.5,282C 264.906,282.464 264.239,282.631 263.5,282.5C 263.5,281.5 263.5,280.5 263.5,279.5C 265.437,278.41 267.27,277.076 269,275.5C 273.77,269.227 279.27,263.893 285.5,259.5 Z"
                            fill="#f0dc92"
                            style="opacity: 0.944"
                        />
                    </g>
                    <g>
                        <path
                            vector-effect="non-scaling-stroke"
                            d="M 171.5,251.5 C 171.5,252.5 171.5,253.5 171.5,254.5C 163.537,263.811 155.871,273.478 148.5,283.5C 147.596,282.791 147.263,281.791 147.5,280.5C 155.739,271.018 163.739,261.351 171.5,251.5 Z"
                            fill="#ecd88c"
                            style="opacity: 0.999"
                        />
                    </g>
                    <g>
                        <path
                            vector-effect="non-scaling-stroke"
                            d="M 422.5,254.5 C 422.433,255.959 422.766,257.292 423.5,258.5C 422.448,258.351 421.448,258.517 420.5,259C 414.987,264.849 409.82,271.016 405,277.5C 404.184,278.823 403.017,279.489 401.5,279.5C 401.5,279.167 401.5,278.833 401.5,278.5C 408.501,270.496 415.501,262.496 422.5,254.5 Z"
                            fill="#ecd78b"
                            style="opacity: 0.999"
                        />
                    </g>
                    <g>
                        <path
                            vector-effect="non-scaling-stroke"
                            d="M 285.5,261.5 C 285.5,262.833 285.5,264.167 285.5,265.5C 280.227,271.11 274.894,276.776 269.5,282.5C 267.736,284.278 265.736,285.611 263.5,286.5C 263.5,285.167 263.5,283.833 263.5,282.5C 264.239,282.631 264.906,282.464 265.5,282C 271.028,273.973 277.695,267.14 285.5,261.5 Z"
                            fill="#ebd689"
                            style="opacity: 0.999"
                        />
                    </g>
                    <g>
                        <path
                            vector-effect="non-scaling-stroke"
                            d="M 171.5,246.5 C 171.5,247.167 171.5,247.833 171.5,248.5C 163.84,257.503 156.506,266.837 149.5,276.5C 148.643,277.425 147.643,278.092 146.5,278.5C 146.5,277.833 146.5,277.167 146.5,276.5C 154.833,266.5 163.167,256.5 171.5,246.5 Z"
                            fill="#f6e299"
                            style="opacity: 0.979"
                        />
                    </g>
                    <g>
                        <path
                            vector-effect="non-scaling-stroke"
                            d="M 21.5,265.5 C 21.5,266.167 21.5,266.833 21.5,267.5C 19.5472,271.12 16.8805,274.12 13.5,276.5C 12.596,275.791 12.2627,274.791 12.5,273.5C 15.4546,270.884 18.4546,268.218 21.5,265.5 Z"
                            fill="#f1dd93"
                            style="opacity: 0.996"
                        />
                    </g>
                    <g>
                        <path
                            vector-effect="non-scaling-stroke"
                            d="M 48.5,262.5 C 48.8333,265.167 49.1667,267.833 49.5,270.5C 45.2676,270.956 42.7676,273.289 42,277.5C 39.5509,280.124 37.0509,282.457 34.5,284.5C 33.4625,283.07 32.7959,281.403 32.5,279.5C 37.8333,273.833 43.1667,268.167 48.5,262.5 Z"
                            fill="#c6ae55"
                            style="opacity: 0.999"
                        />
                    </g>
                    <g>
                        <path
                            vector-effect="non-scaling-stroke"
                            d="M 19.5,253.5 C 20.1667,257.5 20.8333,261.5 21.5,265.5C 18.4546,268.218 15.4546,270.884 12.5,273.5C 11.087,270.781 10.4203,267.781 10.5,264.5C 13.1518,260.518 16.1518,256.851 19.5,253.5 Z"
                            fill="#f9e59e"
                            style="opacity: 1"
                        />
                    </g>
                    <g>
                        <path
                            vector-effect="non-scaling-stroke"
                            d="M 171.5,257.5 C 171.5,259.167 171.5,260.833 171.5,262.5C 164.846,271.151 157.846,279.484 150.5,287.5C 149.662,287.158 149.328,286.492 149.5,285.5C 151.617,282.307 154.45,279.641 158,277.5C 160.986,272.175 163.986,266.842 167,261.5C 168.371,259.959 169.871,258.625 171.5,257.5 Z"
                            fill="#e1cb7c"
                            style="opacity: 0.996"
                        />
                    </g>
                    <g>
                        <path
                            vector-effect="non-scaling-stroke"
                            d="M 49.5,270.5 C 50.4941,283.477 53.8274,295.81 59.5,307.5C 59.2907,308.086 58.9574,308.586 58.5,309C 55.2975,308.914 52.2975,307.914 49.5,306C 42.386,300.26 37.386,293.093 34.5,284.5C 37.0509,282.457 39.5509,280.124 42,277.5C 42.7676,273.289 45.2676,270.956 49.5,270.5 Z"
                            fill="#bfa64b"
                            style="opacity: 0.948"
                        />
                    </g>
                    <g>
                        <path
                            vector-effect="non-scaling-stroke"
                            d="M 423.5,258.5 C 423.5,259.5 423.5,260.5 423.5,261.5C 422.017,265.147 419.35,267.647 415.5,269C 411.958,274.043 407.624,278.21 402.5,281.5C 402.167,280.833 401.833,280.167 401.5,279.5C 403.017,279.489 404.184,278.823 405,277.5C 409.82,271.016 414.987,264.849 420.5,259C 421.448,258.517 422.448,258.351 423.5,258.5 Z"
                            fill="#e6d183"
                            style="opacity: 0.996"
                        />
                    </g>
                    <g>
                        <path
                            vector-effect="non-scaling-stroke"
                            d="M 23.5,272.5 C 23.5569,273.609 23.8902,274.609 24.5,275.5C 21.1195,277.88 18.4528,280.88 16.5,284.5C 15.6618,284.158 15.3284,283.492 15.5,282.5C 17.4372,278.565 20.1039,275.232 23.5,272.5 Z"
                            fill="#e4ce7f"
                            style="opacity: 0.971"
                        />
                    </g>
                    <g>
                        <path
                            vector-effect="non-scaling-stroke"
                            d="M 426.5,273.5 C 421.912,280.425 416.578,286.758 410.5,292.5C 409.833,292.5 409.5,292.167 409.5,291.5C 414.491,284.843 420.157,278.843 426.5,273.5 Z"
                            fill="#cab25a"
                            style="opacity: 0.986"
                        />
                    </g>
                    <g>
                        <path
                            vector-effect="non-scaling-stroke"
                            d="M 284.5,272.5 C 284.5,273.5 284.5,274.5 284.5,275.5C 277.363,281.138 271.03,287.638 265.5,295C 264.906,295.464 264.239,295.631 263.5,295.5C 263.5,293.5 263.5,291.5 263.5,289.5C 269.982,284.518 275.982,279.018 281.5,273C 282.448,272.517 283.448,272.351 284.5,272.5 Z"
                            fill="#dec877"
                            style="opacity: 0.998"
                        />
                    </g>
                    <g>
                        <path
                            vector-effect="non-scaling-stroke"
                            d="M 21.5,267.5 C 22.3092,269.028 22.9759,270.694 23.5,272.5C 20.1039,275.232 17.4372,278.565 15.5,282.5C 14.2616,280.786 13.595,278.786 13.5,276.5C 16.8805,274.12 19.5472,271.12 21.5,267.5 Z"
                            fill="#e9d588"
                            style="opacity: 0.999"
                        />
                    </g>
                    <g>
                        <path
                            vector-effect="non-scaling-stroke"
                            d="M 171.5,262.5 C 171.5,264.833 171.5,267.167 171.5,269.5C 170.521,271.785 168.855,273.452 166.5,274.5C 161.886,280.123 157.22,285.789 152.5,291.5C 151.326,290.486 150.66,289.153 150.5,287.5C 157.846,279.484 164.846,271.151 171.5,262.5 Z"
                            fill="#d8c26f"
                            style="opacity: 1"
                        />
                    </g>
                    <g>
                        <path
                            vector-effect="non-scaling-stroke"
                            d="M 285.5,265.5 C 285.802,268.059 285.468,270.393 284.5,272.5C 283.448,272.351 282.448,272.517 281.5,273C 275.982,279.018 269.982,284.518 263.5,289.5C 263.5,288.5 263.5,287.5 263.5,286.5C 265.736,285.611 267.736,284.278 269.5,282.5C 274.894,276.776 280.227,271.11 285.5,265.5 Z"
                            fill="#e4ce80"
                            style="opacity: 0.998"
                        />
                    </g>
                    <g>
                        <path
                            vector-effect="non-scaling-stroke"
                            d="M 423.5,261.5 C 423.557,262.609 423.89,263.609 424.5,264.5C 419.053,269.116 414.053,274.283 409.5,280C 408.207,280.49 406.873,280.657 405.5,280.5C 405.567,281.959 405.234,283.292 404.5,284.5C 403.599,283.71 402.932,282.71 402.5,281.5C 407.624,278.21 411.958,274.043 415.5,269C 419.35,267.647 422.017,265.147 423.5,261.5 Z"
                            fill="#e1cb7b"
                            style="opacity: 1"
                        />
                    </g>
                    <g>
                        <path
                            vector-effect="non-scaling-stroke"
                            d="M 425.5,269.5 C 425.833,270.833 426.167,272.167 426.5,273.5C 420.157,278.843 414.491,284.843 409.5,291.5C 408.5,291.167 407.833,290.5 407.5,289.5C 410.037,284.783 413.204,280.449 417,276.5C 419.411,273.583 422.244,271.25 425.5,269.5 Z"
                            fill="#d0b964"
                            style="opacity: 1"
                        />
                    </g>
                    <g>
                        <path
                            vector-effect="non-scaling-stroke"
                            d="M 171.5,254.5 C 171.5,255.5 171.5,256.5 171.5,257.5C 169.871,258.625 168.371,259.959 167,261.5C 163.986,266.842 160.986,272.175 158,277.5C 154.45,279.641 151.617,282.307 149.5,285.5C 148.662,285.158 148.328,284.492 148.5,283.5C 155.871,273.478 163.537,263.811 171.5,254.5 Z"
                            fill="#e6d183"
                            style="opacity: 0.998"
                        />
                    </g>
                    <g>
                        <path
                            vector-effect="non-scaling-stroke"
                            d="M 9.5,279.5 C 6.52555,282.138 3.52555,284.805 0.5,287.5C 0.166667,287.5 -0.166667,287.5 -0.5,287.5C -0.5,283.167 -0.5,278.833 -0.5,274.5C 0.911703,272.02 2.57837,269.687 4.5,267.5C 6.53466,271.25 8.20133,275.25 9.5,279.5 Z"
                            fill="#f9e59e"
                            style="opacity: 0.998"
                        />
                    </g>
                    <g>
                        <path
                            vector-effect="non-scaling-stroke"
                            d="M 166.5,274.5 C 162.858,281.454 158.858,288.121 154.5,294.5C 153.094,294.027 152.427,293.027 152.5,291.5C 157.22,285.789 161.886,280.123 166.5,274.5 Z"
                            fill="#d1ba65"
                            style="opacity: 1"
                        />
                    </g>
                    <g>
                        <path
                            vector-effect="non-scaling-stroke"
                            d="M 424.5,264.5 C 424.629,266.216 424.962,267.883 425.5,269.5C 422.244,271.25 419.411,273.583 417,276.5C 413.204,280.449 410.037,284.783 407.5,289.5C 406.11,288.101 405.11,286.434 404.5,284.5C 405.234,283.292 405.567,281.959 405.5,280.5C 406.873,280.657 408.207,280.49 409.5,280C 414.053,274.283 419.053,269.116 424.5,264.5 Z"
                            fill="#d9c270"
                            style="opacity: 0.998"
                        />
                    </g>
                    <g>
                        <path
                            vector-effect="non-scaling-stroke"
                            d="M 24.5,275.5 C 24.4326,276.959 24.7659,278.292 25.5,279.5C 22.8333,282.167 20.1667,284.833 17.5,287.5C 16.596,286.791 16.2627,285.791 16.5,284.5C 18.4528,280.88 21.1195,277.88 24.5,275.5 Z"
                            fill="#ddc776"
                            style="opacity: 0.971"
                        />
                    </g>
                    <g>
                        <path
                            vector-effect="non-scaling-stroke"
                            d="M 426.5,273.5 C 427.345,274.671 428.011,276.005 428.5,277.5C 422.49,282.51 417.157,288.177 412.5,294.5C 411.5,294.167 410.833,293.5 410.5,292.5C 416.578,286.758 421.912,280.425 426.5,273.5 Z"
                            fill="#c4ac53"
                            style="opacity: 0.999"
                        />
                    </g>
                    <g>
                        <path
                            vector-effect="non-scaling-stroke"
                            d="M 9.5,279.5 C 10.2341,280.708 10.5674,282.041 10.5,283.5C 7.78517,286.882 4.78517,289.882 1.5,292.5C 0.962003,290.883 0.628669,289.216 0.5,287.5C 3.52555,284.805 6.52555,282.138 9.5,279.5 Z"
                            fill="#eeda8e"
                            style="opacity: 0.999"
                        />
                    </g>
                    <g>
                        <path
                            vector-effect="non-scaling-stroke"
                            d="M 284.5,279.5 C 284.5,281.833 284.5,284.167 284.5,286.5C 278.49,292.509 272.157,298.175 265.5,303.5C 264.833,303.5 264.5,303.167 264.5,302.5C 271.089,294.901 277.755,287.235 284.5,279.5 Z"
                            fill="#ccb55e"
                            style="opacity: 0.997"
                        />
                    </g>
                    <g>
                        <path
                            vector-effect="non-scaling-stroke"
                            d="M 10.5,283.5 C 11.7368,284.965 12.7368,286.632 13.5,288.5C 9.30189,289.692 6.30189,292.358 4.5,296.5C 3.02561,295.564 2.02561,294.23 1.5,292.5C 4.78517,289.882 7.78517,286.882 10.5,283.5 Z"
                            fill="#e7d284"
                            style="opacity: 1"
                        />
                    </g>
                    <g>
                        <path
                            vector-effect="non-scaling-stroke"
                            d="M 26.5,283.5 C 27.5375,284.93 28.2041,286.597 28.5,288.5C 25.3128,290.344 23.3128,293.011 22.5,296.5C 21.2632,295.035 20.2632,293.368 19.5,291.5C 21.117,288.216 23.4503,285.549 26.5,283.5 Z"
                            fill="#cbb35c"
                            style="opacity: 0.915"
                        />
                    </g>
                    <g>
                        <path
                            vector-effect="non-scaling-stroke"
                            d="M 25.5,279.5 C 26.2341,280.708 26.5674,282.041 26.5,283.5C 23.4503,285.549 21.117,288.216 19.5,291.5C 18.3263,290.486 17.6596,289.153 17.5,287.5C 20.1667,284.833 22.8333,282.167 25.5,279.5 Z"
                            fill="#d4bd69"
                            style="opacity: 1"
                        />
                    </g>
                    <g>
                        <path
                            vector-effect="non-scaling-stroke"
                            d="M 171.5,269.5 C 172.458,271.302 173.125,273.302 173.5,275.5C 171.983,275.511 170.816,276.177 170,277.5C 164.99,283.54 160.49,289.874 156.5,296.5C 155.5,296.167 154.833,295.5 154.5,294.5C 158.858,288.121 162.858,281.454 166.5,274.5C 168.855,273.452 170.521,271.785 171.5,269.5 Z"
                            fill="#ccb55e"
                            style="opacity: 0.998"
                        />
                    </g>
                    <g>
                        <path
                            vector-effect="non-scaling-stroke"
                            d="M 284.5,275.5 C 284.5,276.833 284.5,278.167 284.5,279.5C 277.755,287.235 271.089,294.901 264.5,302.5C 263.631,300.283 263.298,297.95 263.5,295.5C 264.239,295.631 264.906,295.464 265.5,295C 271.03,287.638 277.363,281.138 284.5,275.5 Z"
                            fill="#d3bc68"
                            style="opacity: 0.999"
                        />
                    </g>
                    <g>
                        <path
                            vector-effect="non-scaling-stroke"
                            d="M 284.5,288.5 C 285.092,294.105 284.259,299.439 282,304.5C 277.266,308.017 272.433,308.351 267.5,305.5C 271.066,303.807 273.566,301.14 275,297.5C 278.036,294.296 281.203,291.296 284.5,288.5 Z"
                            fill="#bfa64b"
                            style="opacity: 0.92"
                        />
                    </g>
                    <g>
                        <path
                            vector-effect="non-scaling-stroke"
                            d="M 28.5,288.5 C 31.905,296.103 36.905,302.603 43.5,308C 47.3736,310.937 51.7069,312.771 56.5,313.5C 57.0352,316.238 56.0352,318.072 53.5,319C 37.1575,322.383 23.1575,318.217 11.5,306.5C 14.2085,303.792 16.5419,300.792 18.5,297.5C 22.2104,303.707 27.3771,308.374 34,311.5C 34.5,311.333 35,311.167 35.5,311C 29.9044,307.241 25.5711,302.408 22.5,296.5C 23.3128,293.011 25.3128,290.344 28.5,288.5 Z"
                            fill="#bfa64b"
                            style="opacity: 0.907"
                        />
                    </g>
                    <g>
                        <path
                            vector-effect="non-scaling-stroke"
                            d="M 173.5,275.5 C 173.5,275.833 173.5,276.167 173.5,276.5C 168.398,283.718 163.064,290.718 157.5,297.5C 156.833,297.5 156.5,297.167 156.5,296.5C 160.49,289.874 164.99,283.54 170,277.5C 170.816,276.177 171.983,275.511 173.5,275.5 Z"
                            fill="#c4ac52"
                            style="opacity: 0.999"
                        />
                    </g>
                    <g>
                        <path
                            vector-effect="non-scaling-stroke"
                            d="M 14.5,290.5 C 15.2485,292.332 16.2485,293.999 17.5,295.5C 16.448,295.351 15.448,295.517 14.5,296C 13.3211,299.209 11.3211,301.709 8.5,303.5C 7.83333,302.5 7.16667,301.5 6.5,300.5C 9.16667,297.167 11.8333,293.833 14.5,290.5 Z"
                            fill="#d5be6b"
                            style="opacity: 0.971"
                        />
                    </g>
                    <g>
                        <path
                            vector-effect="non-scaling-stroke"
                            d="M 284.5,286.5 C 284.5,287.167 284.5,287.833 284.5,288.5C 281.203,291.296 278.036,294.296 275,297.5C 273.566,301.14 271.066,303.807 267.5,305.5C 266.5,305.167 265.833,304.5 265.5,303.5C 272.157,298.175 278.49,292.509 284.5,286.5 Z"
                            fill="#c5ad54"
                            style="opacity: 0.997"
                        />
                    </g>
                    <g>
                        <path
                            vector-effect="non-scaling-stroke"
                            d="M 13.5,288.5 C 13.8333,289.167 14.1667,289.833 14.5,290.5C 11.8333,293.833 9.16667,297.167 6.5,300.5C 5.32627,299.486 4.6596,298.153 4.5,296.5C 6.30189,292.358 9.30189,289.692 13.5,288.5 Z"
                            fill="#dec878"
                            style="opacity: 0.964"
                        />
                    </g>
                    <g>
                        <path
                            vector-effect="non-scaling-stroke"
                            d="M 17.5,295.5 C 17.8333,296.167 18.1667,296.833 18.5,297.5C 16.5419,300.792 14.2085,303.792 11.5,306.5C 10.1667,305.833 9.16667,304.833 8.5,303.5C 11.3211,301.709 13.3211,299.209 14.5,296C 15.448,295.517 16.448,295.351 17.5,295.5 Z"
                            fill="#ccb45e"
                            style="opacity: 0.997"
                        />
                    </g>
                </svg>
            </svg>
        </svg>
    </g>
</svg>
