<svg xmlns="http://www.w3.org/2000/svg" preserveAspectRatio="xMidYMid meet" style="width: inherit; height: inherit">
    <g id="tuiIconWorldPay" xmlns="http://www.w3.org/2000/svg">
        <svg
            x="50%"
            y="50%"
            xmlns="http://www.w3.org/2000/svg"
            overflow="visible"
            preserveAspectRatio="xMidYMid meet"
            style="width: inherit; height: inherit"
            viewBox="0 0 32 32"
        >
            <svg x="-16" y="-16">
                <svg xmlns="http://www.w3.org/2000/svg" viewBox="0 0 64 64">
                    <path
                        vector-effect="non-scaling-stroke"
                        d="M12.9 35.6h-2.2l-1.9-6.9c-.2-.7-.3-1.4-.4-2.1-.1.7-.2 1.4-.4 2.1l-1.9 7H3.9L1 24.4h1.9l1.7 6.8c.2.8.3 1.5.4 2.2.1-.7.2-1.4.4-2.1l1.9-6.9h2l2 6.9c.2.6.3 1.3.4 2.1.1-.7.2-1.3.4-2l1.7-7h1.8l-2.7 11.2"
                        fill="#366FC1"
                    />
                    <path
                        vector-effect="non-scaling-stroke"
                        d="M19.1 35.8c-2.3 0-3.8-1.3-3.8-4.2 0-2.5 1.6-4.4 4.1-4.4 2.2 0 3.8 1.2 3.8 4.1 0 2.6-1.6 4.5-4.1 4.5m.2-7.1c-1.1 0-2.1.8-2.1 2.7 0 1.9.7 2.8 2.1 2.8 1.1 0 2.1-.9 2.1-2.8 0-1.7-.7-2.7-2.1-2.7zM28.4 28.9c-1.6-.3-2.4.8-2.4 3.3v3.4h-1.8v-8.3h1.7c0 .5 0 1.2-.2 1.8.4-1.1 1.2-2.1 2.7-2v1.8M29.5 24.3h1.8v11.3h-1.8z"
                        fill="#203D74"
                    />
                    <path
                        vector-effect="non-scaling-stroke"
                        d="m31.3 30.5-1.8 1.8v3.3h1.8zM38 35.6c0-.4 0-1.1.1-1.5-.4 1-1.4 1.7-2.7 1.7-2 0-3-1.5-3-3.9 0-2.8 1.6-4.7 4.3-4.7.4 0 .8 0 1.2.1v-3h1.8v11.3H38m-.1-6.8c-.4-.1-.9-.1-1.3-.1-1.4 0-2.4.9-2.4 3.1 0 1.7.5 2.6 1.6 2.6 1.3 0 2-1.6 2-3v-2.6z"
                        fill="currentColor"
                    />
                    <path
                        vector-effect="non-scaling-stroke"
                        d="M43.6 31.5h-.8v4.1H41V24.4c.9 0 1.8-.1 2.9-.1 2.7 0 4.1 1.3 4.1 3.4 0 2.2-1.7 3.8-4.4 3.8m.1-5.7h-.9v4.1c.2 0 .5.1.8.1 1.5 0 2.5-.8 2.5-2.2 0-1.2-.7-2-2.4-2zM53.1 35.6c0-.5 0-1.1.1-1.5-.4 1-1.4 1.7-2.7 1.7-1.4 0-2.3-.9-2.3-2.3 0-1.9 1.8-2.9 4.9-2.9v-.5c0-1-.4-1.6-1.7-1.6-.8 0-1.7.2-2.4.6l-.3-1.4c.8-.3 1.9-.6 3-.6 2.5 0 3.2 1.1 3.2 2.7v5.7h-1.8m-.1-3.7c-2.5 0-3.2.7-3.2 1.5 0 .6.4 1.1 1.1 1.1 1.2 0 2-1.2 2-2.3v-.3z"
                        fill="#3466B7"
                    />
                    <path
                        vector-effect="non-scaling-stroke"
                        d="M59.6 36.2c-1 2.8-2.1 3.6-4 3.6-.3 0-.8 0-1-.1l.2-1.5c.3.1.7.1 1 .1.8 0 1.5-.4 2.1-1.9l.3-.8-3.2-8.3h2l1.3 3.8c.3.7.5 1.5.6 2.2.2-.7.5-1.7.8-2.6l1.2-3.4h1.9l-3.2 8.9M60.2 24.4h-.6v-.2H61v.2h-.6V26h-.2v-1.6M61.3 24.2h.4l.4 1.3c.1.2.1.2.1.3 0-.1 0-.1.1-.3l.4-1.3h.3V26h-.2v-1.5l-.6 1.5H62l-.5-1.5V26h-.2v-1.8"
                        fill="#3466B7"
                    />
                    <path
                        vector-effect="non-scaling-stroke"
                        d="M5 35.6h1l.4-1.4zM13.3 27.3l-1 4.1c-.2.6-.3 1.3-.4 2-.1-.7-.3-1.5-.4-2.1l-.5-1.6-1.5 1.5 1.2 4.4h2.2l2.8-10.7-2.4 2.4z"
                        fill="#203D74"
                    />
                </svg>
            </svg>
        </svg>
    </g>
</svg>
