<svg focusable="false" height="1.5em" width="1.5em" xmlns="http://www.w3.org/2000/svg">
    <g id="tuiIconHiliteLarge" xmlns="http://www.w3.org/2000/svg">
        <svg
            fill="none"
            stroke="none"
            height="1.5em"
            overflow="visible"
            viewBox="0 0 24 24"
            width="1.5em"
            x="50%"
            y="50%"
        >
            <svg x="-12" xmlns="http://www.w3.org/2000/svg" y="-12">
                <path clip-rule="evenodd" d="M0 18H4V22H0V18Z" fill="#E7E8EA" fill-rule="evenodd" />
                <path clip-rule="evenodd" d="M4 18H8V22H4V18Z" fill="#CBCFD3" fill-rule="evenodd" />
                <path clip-rule="evenodd" d="M8 18H12V22H8V18Z" fill="#E7E8EA" fill-rule="evenodd" />
                <path clip-rule="evenodd" d="M12 18H16V22H12V18Z" fill="#CBCFD3" fill-rule="evenodd" />
                <path clip-rule="evenodd" d="M16 18H20V22H16V18Z" fill="#E7E8EA" fill-rule="evenodd" />
                <path clip-rule="evenodd" d="M20 18H24V22H20V18Z" fill="#CBCFD3" fill-rule="evenodd" />
                <path
                    d="M8.18182 16H5L7.72727 12L10 13.7143L8.18182 16Z"
                    stroke="currentColor"
                    stroke-linecap="round"
                    stroke-linejoin="round"
                    stroke-width="2"
                />
                <path
                    d="M9 7.5L15.6667 1L19 4L14.2381 12M9 7.5L14.2381 12M9 7.5L7 11L11 14.5L14.2381 12"
                    stroke="currentColor"
                    stroke-linecap="round"
                    stroke-linejoin="round"
                    stroke-width="2"
                />
            </svg>
        </svg>
    </g>
</svg>
