<svg xmlns="http://www.w3.org/2000/svg" focusable="false" height="1.5em" width="1.5em">
    <g id="tuiIconChartLineLarge" xmlns="http://www.w3.org/2000/svg">
        <svg x="50%" y="50%" fill="none" height="1.5em" overflow="visible" viewBox="0 0 24 24" width="1.5em">
            <svg x="-12" y="-12" xmlns="http://www.w3.org/2000/svg">
                <path
                    vector-effect="non-scaling-stroke"
                    clip-rule="evenodd"
                    d="M21.425 3.095a1 1 0 0 1 .48 1.33l-5.143 10.948a1 1 0 0 1-1.628.265l-3.092-3.236-2.587 5.366a1 1 0 0 1-1.525.346l-2.024-1.619-2.015 3.959a1 1 0 1 1-1.782-.907l2.571-5.053a1 1 0 0 1 1.516-.327l2.003 1.602 2.669-5.536a1 1 0 0 1 1.624-.257l3.08 3.226 4.523-9.627a1 1 0 0 1 1.33-.48z"
                    fill="currentColor"
                    stroke="none"
                    fill-rule="evenodd"
                />
            </svg>
        </svg>
    </g>
</svg>
