<svg height="1.5em" width="1.5em" xmlns="http://www.w3.org/2000/svg">
    <g id="tuiIconSpoilerDeleteLarge" xmlns="http://www.w3.org/2000/svg">
        <svg height="1.5em" overflow="visible" viewBox="0 0 24 24" width="1.5em" x="50%" y="50%">
            <svg x="-12" y="-12">
                <svg fill="none" height="24" viewBox="0 0 24 24" width="24" xmlns="http://www.w3.org/2000/svg">
                    <path
                        d="M5 4C4.5 4 4 4.5 4 5V6.3125C4 6.86478 3.55228 7.3125 3 7.3125C2.44772 7.3125 2 6.86478 2 6.3125V5C2 3.37558 3.37558 2 5 2H6.3125C6.86478 2 7.3125 2.44772 7.3125 3C7.3125 3.55228 6.86478 4 6.3125 4H5ZM9.6875 3C9.6875 2.44772 10.1352 2 10.6875 2H13.3125C13.8648 2 14.3125 2.44772 14.3125 3C14.3125 3.55228 13.8648 4 13.3125 4H10.6875C10.1352 4 9.6875 3.55228 9.6875 3ZM3 9.6875C3.55228 9.6875 4 10.1352 4 10.6875V13.3125C4 13.8648 3.55228 14.3125 3 14.3125C2.44772 14.3125 2 13.8648 2 13.3125V10.6875C2 10.1352 2.44772 9.6875 3 9.6875ZM21 9.6875C21.5523 9.6875 22 10.1352 22 10.6875V13.3125C22 13.8648 21.5523 14.3125 21 14.3125C20.4477 14.3125 20 13.8648 20 13.3125V10.6875C20 10.1352 20.4477 9.6875 21 9.6875ZM9.6875 21C9.6875 20.4477 10.1352 20 10.6875 20H13.3125C13.8648 20 14.3125 20.4477 14.3125 21C14.3125 21.5523 13.8648 22 13.3125 22H10.6875C10.1352 22 9.6875 21.5523 9.6875 21ZM20 5V6.3125C20 6.86478 20.4477 7.3125 21 7.3125C21.5523 7.3125 22 6.86478 22 6.3125V5C22 3.37558 20.6244 2 19 2H17.6875C17.1352 2 16.6875 2.44772 16.6875 3C16.6875 3.55228 17.1352 4 17.6875 4H19C19.5 4 20 4.5 20 5ZM20 17.6875V19C20 19.5 19.5 20 19 20H17.6875C17.1352 20 16.6875 20.4477 16.6875 21C16.6875 21.5523 17.1352 22 17.6875 22H19C20.6244 22 22 20.6244 22 19V17.6875C22 17.1352 21.5523 16.6875 21 16.6875C20.4477 16.6875 20 17.1352 20 17.6875ZM4 19V17.6875C4 17.1352 3.55228 16.6875 3 16.6875C2.44772 16.6875 2 17.1352 2 17.6875V19C2 20.6244 3.37558 22 5 22H6.3125C6.86478 22 7.3125 21.5523 7.3125 21C7.3125 20.4477 6.86478 20 6.3125 20H5C4.5 20 4 19.5 4 19ZM8.29289 8.29289C8.68342 7.90237 9.31658 7.90237 9.70711 8.29289L12 10.5858L14.2929 8.29289C14.6834 7.90237 15.3166 7.90237 15.7071 8.29289C16.0976 8.68342 16.0976 9.31658 15.7071 9.70711L13.4142 12L15.7071 14.2929C16.0976 14.6834 16.0976 15.3166 15.7071 15.7071C15.3166 16.0976 14.6834 16.0976 14.2929 15.7071L12 13.4142L9.70711 15.7071C9.31658 16.0976 8.68342 16.0976 8.29289 15.7071C7.90237 15.3166 7.90237 14.6834 8.29289 14.2929L10.5858 12L8.29289 9.70711C7.90237 9.31658 7.90237 8.68342 8.29289 8.29289Z"
                        fill="currentColor"
                        stroke="none"
                    />
                </svg>
            </svg>
        </svg>
    </g>
</svg>
