<svg height="1.5em" width="1.5em" xmlns="http://www.w3.org/2000/svg">
    <g id="tuiIconPaintLarge" xmlns="http://www.w3.org/2000/svg">
        <svg height="1.5em" overflow="visible" viewBox="0 0 24 24" width="1.5em" x="50%" y="50%">
            <svg x="-12" y="-12">
                <svg fill="none" height="1.5em" viewBox="0 0 24 24" width="1.5em" xmlns="http://www.w3.org/2000/svg">
                    <path
                        clip-rule="evenodd"
                        d="M7.2395 3.45152L4.01497 3.49988C3.46275 3.50816 3.00837 3.06721 3.00008 2.51499C2.9918 1.96277 3.43275 1.50839 3.98497 1.50011L9.98497 1.41012C10.0214 1.40957 10.0575 1.41098 10.093 1.41425C10.6089 1.4111 11.1258 1.60635 11.5194 2L16 6.48053C16.781 7.26158 16.781 8.52791 16 9.30895L12.5492 12.7597L10.3089 15C9.52787 15.7811 8.26154 15.781 7.48049 15L5.24023 12.7597L2.99997 10.5195C2.21892 9.73843 2.21892 8.4721 2.99997 7.69105L7.2395 3.45152ZM10.1052 3.41422L4.41418 9.10527L5.80892 10.5H11.9805L14.5858 7.89474L10.1052 3.41422ZM20.4206 13.5445L20.4223 13.5453C20.6348 10.9945 18.7416 9.37791 17.9715 8.83085C17.9293 8.80059 17.8726 8.79856 17.8281 8.82545C17.7836 8.85234 17.7676 8.8632 17.7761 8.91357C17.9704 10.0886 16.2673 11.5428 16.2673 11.5428C15.8623 11.9726 15.5886 12.3895 15.4811 12.9331C15.2176 14.2662 16.0981 15.5842 17.4524 15.8519C18.8068 16.1196 20.1167 15.2659 20.3802 13.9329C20.4067 13.7992 20.4166 13.6763 20.4206 13.5445ZM3 18C2.44772 18 2 18.4477 2 19V21C2 21.5523 2.44772 22 3 22H21C21.5523 22 22 21.5523 22 21V19C22 18.4477 21.5523 18 21 18H3Z"
                        fill="currentColor"
                        stroke="none"
                        fill-rule="evenodd"
                    />
                </svg>
            </svg>
        </svg>
    </g>
</svg>
