<svg height="2em" width="2em" xmlns="http://www.w3.org/2000/svg">
    <g id="tuiIconVisaMono" xmlns="http://www.w3.org/2000/svg">
        <svg
            height="2em"
            overflow="visible"
            viewBox="0 0 32 32"
            width="2em"
            x="50%"
            xmlns="http://www.w3.org/2000/svg"
            y="50%"
        >
            <svg x="-16" y="-16">
                <path
                    transform="translate(0, -1)"
                    clip-rule="evenodd"
                    d="M23.2262 12.384C22.7136 12.1988 21.9105 12 20.9075 12C18.3512 12 16.5504 13.2401 16.5351 15.0174C16.5207 16.3313 17.8206 17.0642 18.802 17.5015C19.809 17.9497 20.1475 18.2355 20.1427 18.6357C20.1363 19.2486 19.3386 19.5286 18.5949 19.5286C17.5595 19.5286 17.0093 19.39 16.1597 19.0487L15.8264 18.9033L15.4633 20.9502C16.0675 21.2054 17.1849 21.4266 18.3451 21.438C21.0646 21.438 22.83 20.2121 22.8501 18.3142C22.8598 17.274 22.1706 16.4825 20.678 15.8299C19.7737 15.4069 19.2199 15.1247 19.2258 14.6964C19.2258 14.3163 19.6945 13.9099 20.7073 13.9099C21.5533 13.8973 22.1661 14.075 22.6436 14.2602L22.8755 14.3657L23.2262 12.384ZM11.2571 21.3023L12.8746 12.1589H15.4617L13.8431 21.3023H11.2571ZM27.8611 12.1676H29.8602L31.9542 21.3052H29.5536C29.5536 21.3052 29.3162 20.2552 29.2388 19.9351C29.0393 19.9351 28.207 19.934 27.4233 19.933L27.4216 19.933L27.4186 19.933C26.7222 19.9321 26.0651 19.9312 25.9256 19.9312C25.8251 20.1785 25.3809 21.3052 25.3809 21.3052H22.6642L26.5064 12.9259C26.7784 12.3305 27.2418 12.1676 27.8611 12.1676ZM27.7008 15.5051C27.7008 15.5051 26.8841 17.5341 26.6701 18.061H28.8176C28.7141 17.6033 28.2187 15.4207 28.2187 15.4207L28.0438 14.6324C27.9754 14.8122 27.8804 15.0497 27.8076 15.2316L27.8076 15.2317L27.8075 15.2318C27.7413 15.3972 27.6935 15.5167 27.7008 15.5051ZM9.0873 12.1656L6.55445 18.4007L6.28458 17.1336C6.28451 17.1334 6.28444 17.1332 6.28437 17.1329L5.37741 12.9318C5.2208 12.3529 4.76659 12.1801 4.2047 12.1599H0.0330182L0 12.3502C1.0148 12.5868 1.92225 12.9283 2.71752 13.353L5.01757 21.2944L7.75479 21.2914L11.8277 12.1656H9.0873Z"
                    fill="currentColor"
                    stroke="none"
                    fill-rule="evenodd"
                />
            </svg>
        </svg>
    </g>
</svg>
