<svg xmlns="http://www.w3.org/2000/svg" preserveAspectRatio="xMidYMid meet" style="width: inherit; height: inherit">
    <g id="tuiIconGooglePay" xmlns="http://www.w3.org/2000/svg">
        <svg
            x="50%"
            y="50%"
            xmlns="http://www.w3.org/2000/svg"
            overflow="visible"
            preserveAspectRatio="xMidYMid meet"
            style="width: inherit; height: inherit"
            viewBox="0 0 32 32"
        >
            <svg x="-16" y="-16">
                <svg viewBox="0 0 24 24">
                    <path
                        vector-effect="non-scaling-stroke"
                        d="M10.917 11.496V14.4h-.922V7.227h2.444a2.206 2.206 0 0 1 1.583.621c.429.386.67.938.661 1.514a1.985 1.985 0 0 1-.661 1.523c-.428.408-.956.612-1.583.611h-1.522zm0-3.386v2.505h1.545c.343.01.673-.124.912-.371.484-.47.496-1.245.024-1.729l-.024-.024a1.204 1.204 0 0 0-.912-.381h-1.545zm5.89 1.222c.682 0 1.219.182 1.613.546.394.364.591.864.591 1.497v3.026h-.881v-.682h-.04c-.382.561-.89.842-1.523.842-.541 0-.993-.16-1.357-.481a1.538 1.538 0 0 1-.546-1.202c0-.508.192-.912.576-1.212.384-.3.896-.451 1.538-.451.547 0 .998.1 1.352.3v-.211a1.046 1.046 0 0 0-.381-.815 1.304 1.304 0 0 0-.89-.336c-.514 0-.922.217-1.222.651l-.811-.511c.445-.641 1.106-.961 1.981-.961zm-1.193 3.566a.739.739 0 0 0 .305.601c.204.16.457.246.716.24a1.472 1.472 0 0 0 1.037-.431c.305-.288.458-.624.458-1.012-.288-.229-.688-.344-1.202-.344-.374 0-.687.09-.937.271-.251.185-.377.408-.377.675zm8.457-3.406-3.077 7.073h-.951l1.142-2.475-2.025-4.598h1.002l1.463 3.526h.02l1.423-3.526h1.003z"
                        fill="#5F6368"
                    />
                    <path
                        vector-effect="non-scaling-stroke"
                        d="M8.079 11.7c0-.281-.023-.561-.071-.838H4.121v1.587h2.226a1.905 1.905 0 0 1-.823 1.252v1.031h1.329c.778-.716 1.226-1.777 1.226-3.032z"
                        fill="#4285F4"
                    />
                    <path
                        vector-effect="non-scaling-stroke"
                        d="M4.121 15.728c1.112 0 2.049-.365 2.732-.995l-1.329-1.031c-.37.251-.846.394-1.403.394-1.075 0-1.987-.725-2.314-1.701H.439v1.062a4.12 4.12 0 0 0 3.682 2.271z"
                        fill="#34A853"
                    />
                    <path
                        vector-effect="non-scaling-stroke"
                        d="M1.808 12.395a2.464 2.464 0 0 1 0-1.578V9.756H.439a4.124 4.124 0 0 0 0 3.702l1.369-1.063z"
                        fill="#FBBC04"
                    />
                    <path
                        vector-effect="non-scaling-stroke"
                        d="M4.121 9.117a2.24 2.24 0 0 1 1.581.618l1.177-1.176a3.968 3.968 0 0 0-2.758-1.074A4.12 4.12 0 0 0 .439 9.756l1.369 1.062c.326-.977 1.238-1.701 2.313-1.701z"
                        fill="#EA4335"
                    />
                </svg>
            </svg>
        </svg>
    </g>
</svg>
