<svg xmlns="http://www.w3.org/2000/svg" width="1.5em" height="1.5em">
    <g id="tuiIconWifiOffLarge" xmlns="http://www.w3.org/2000/svg">
        <svg x="50%" y="50%" width="1.5em" height="1.5em" overflow="visible" viewBox="0 0 24 24">
            <svg x="-12" y="-12">
                <svg
                    xmlns="http://www.w3.org/2000/svg"
                    width="24"
                    height="24"
                    viewBox="0 0 24 24"
                    stroke="currentColor"
                    stroke-width="2"
                    stroke-linecap="round"
                    stroke-linejoin="round"
                >
                    <line vector-effect="non-scaling-stroke" x1="1" y1="1" x2="23" y2="23" />
                    <path vector-effect="non-scaling-stroke" d="M16.72 11.06A10.94 10.94 0 0 1 19 12.55" />
                    <path vector-effect="non-scaling-stroke" d="M5 12.55a10.94 10.94 0 0 1 5.17-2.39" />
                    <path vector-effect="non-scaling-stroke" d="M10.71 5.05A16 16 0 0 1 22.58 9" />
                    <path vector-effect="non-scaling-stroke" d="M1.42 9a15.91 15.91 0 0 1 4.7-2.88" />
                    <path vector-effect="non-scaling-stroke" d="M8.53 16.11a6 6 0 0 1 6.95 0" />
                    <line vector-effect="non-scaling-stroke" x1="12" y1="20" x2="12.01" y2="20" />
                </svg>
            </svg>
        </svg>
    </g>
</svg>
