<svg
    xmlns="http://www.w3.org/2000/svg"
    width="24"
    height="24"
    viewBox="0 0 24 24"
    fill="currentColor"
    stroke="currentColor"
    stroke-width="calc((100vw - 100vh) / 10)"
    stroke-linecap="round"
    stroke-linejoin="round"
>
    <path
        vector-effect="non-scaling-stroke"
        d="M13 6v5a1 1 0 0 0 1 1h6.102a1 1 0 0 1 .712.298l.898.91a1 1 0 0 1 .288.702V17a1 1 0 0 1-1 1h-3"
    />
    <path
        vector-effect="non-scaling-stroke"
        d="M5 18H3a1 1 0 0 1-1-1V8a2 2 0 0 1 2-2h12c1.1 0 2.1.8 2.4 1.8l1.176 4.2"
    />
    <path vector-effect="non-scaling-stroke" d="M9 18h5" />
    <circle vector-effect="non-scaling-stroke" cx="16" cy="18" r="2" />
    <circle vector-effect="non-scaling-stroke" cx="7" cy="18" r="2" />
</svg>
