<svg
    xmlns="http://www.w3.org/2000/svg"
    width="24"
    height="24"
    viewBox="0 0 24 24"
    fill="currentColor"
    stroke="currentColor"
    stroke-width="2"
    stroke-linecap="round"
    stroke-linejoin="round"
>
    <path vector-effect="non-scaling-stroke" d="M11 21c0-2.5 2-2.5 2-5" />
    <path vector-effect="non-scaling-stroke" d="M16 21c0-2.5 2-2.5 2-5" />
    <path vector-effect="non-scaling-stroke" d="m19 8-.8 3a1.25 1.25 0 0 1-1.2 1H7a1.25 1.25 0 0 1-1.2-1L5 8" />
    <path vector-effect="non-scaling-stroke" d="M21 3a1 1 0 0 1 1 1v2a2 2 0 0 1-2 2H4a2 2 0 0 1-2-2V4a1 1 0 0 1 1-1z" />
    <path vector-effect="non-scaling-stroke" d="M6 21c0-2.5 2-2.5 2-5" />
</svg>
