<svg xmlns="http://www.w3.org/2000/svg" preserveAspectRatio="xMidYMid meet" style="width: inherit; height: inherit">
    <g id="tuiIconAmazonPay" xmlns="http://www.w3.org/2000/svg">
        <svg
            x="50%"
            y="50%"
            xmlns="http://www.w3.org/2000/svg"
            overflow="visible"
            preserveAspectRatio="xMidYMid meet"
            style="width: inherit; height: inherit"
            viewBox="0 0 32 32"
        >
            <svg x="-16" y="-16">
                <svg viewBox="0 0 19 16">
                    <path
                        vector-effect="non-scaling-stroke"
                        d="m13.9940341 5.84940206c0 .65854021.0232078 1.31312165-.007736 1.97166186-.0309438.74922886.1934634 1.39196701.6577172 1.95978556.0541517.06703506.1044838.13407011.1508672.20506392.1664037.2563299.1354276.4337485-.0928314.6309278-.4875264.4180124-.9711363.8399176-1.4585979 1.2579299-.2901789.2484124-.4720222.2444866-.7660529 0-.3946303-.3272907-.7041652-.729501-.9788398-1.1593567-.0657717-.1024989-.1005997-.0985732-.1818433-.0197278-.4875264.4850144-1.0020801.9345649-1.65591311 1.1593567-1.00981602.3509443-2.03510392.4061691-3.04877172.0394227-.97498808-.3549031-1.55919762-1.0883629-1.77586883-2.10965775-.23987904-1.13962887-.11607155-2.22403299.57258944-3.19013609.52232198-.72950103 1.2458109-1.15932371 2.07763544-1.42350515.85891652-.26814021 1.74489267-.37067216 2.63475298-.46136082.2514991-.02761238.4991141-.05126598.7505809-.07491959.0618876-.00395876.1160716-.0118433.1121874-.09464742-.0077036-.41797939.0348279-.84387629-.0618876-1.25397114-.1238074-.52443711-.4604344-.83203299-.97498803-.94640825-.36753833-.08280412-.73122487-.05915051-1.08717547.06310928-.54164565.18926186-.87827257.57177732-1.0136678 1.13959588-.07350767.31152165-.21667121.42193814-.51458603.39036701-.63450937-.06703505-1.26901874-.1340701-1.89964395-.20110516-.2592351-.02761237-.39463033-.22871752-.34047871-.48504742.32885861-1.63645361 1.3812385-2.55524948 2.89787223-2.97718763 1.1645673-.32333196 2.34460646-.34305979 3.51302556-.00788453.9401601.2681402 1.7294531.74134433 2.1704991 1.67983505.2514992.53235464.309535 1.10805773.3172709 1.68379381.007736.73745155 0 1.48272165.0038842 2.22406598-.0038842 0 0 0 0 0zm-3.010092 1.23031753c0-.19717938-.0077036-.39432578.0038841-.59150516.007736-.12225979-.0348279-.16564123-.1547512-.15379794-.2940631.02757939-.5919455.03153815-.88600856.07096083-.51455366.06703505-1.01755196.19717938-1.43539012.52839588-.60744974.48504742-.73510903 1.1475134-.63454174 1.8927835.11995571.87538144.88600852 1.3604289 1.70624532 1.06863505.5571175-.19717938.8975639-.61512577 1.1335911-1.13962886.247615-.53228866.2669711-1.10406598.2669711-1.6758433z"
                        fill="currentColor"
                        fill-rule="nonzero"
                    />
                    <g fill="#f6a61f">
                        <path
                            vector-effect="non-scaling-stroke"
                            d="m9.55240375 15.9797443c-2.95202385-.0197278-5.60228109-.7925773-7.9971874-2.4211794-.48749403-.3312494-.95178023-.6940371-1.39282623-1.0922886-.03867973-.0354969-.07739182-.0709608-.10833561-.1143753-.04256388-.0591505-.07350766-.1301113-.02320783-.2011051.05029983-.0788784.1354276-.0867629.20893526-.051266.17022317.0828041.33274276.1734928.49908177.2602557 1.52440205.8201897 3.13001534 1.4116948 4.81302045 1.7862928 1.52436967.339134 3.06421124.4968907 4.62729304.4534762 2.2324191-.0630762 4.3835622-.5205113 6.4534616-1.3683464.1005997-.0433484.2050835-.0867298.309535-.1104164.1470477-.0276124.294063-.0078846.3598347.1537979.0618876.1498392-.019356.2681402-.1276916.3627876-.0773919.0670021-.1663714.1222268-.255351.1813773-1.3347904.883299-2.7972725 1.4511176-4.3448501 1.8020949-1.0214361.236668-2.0583117.3509773-3.02171205.3588948z"
                        />
                        <path
                            vector-effect="non-scaling-stroke"
                            d="m17.0002095 12.4662763c-.4449301-.0039588-.8859761.0551917-1.3270545.102499-.0851277.0078845-.1818432.0315381-.220523-.0630763-.0464156-.1064908.0425639-.169567.1160716-.220833.5494139-.3706392 1.1645673-.5165526 1.8106967-.5520495.4449302-.0275794.8859762-.0078516 1.3193186.1261856.1973152.0591505.2940307.1774515.2901789.3825154-.0232079 1.0962145-.3830426 2.0505072-1.1606831 2.8273485-.027092.0276124-.0580358.051266-.0889796.0749196-.0696235.0512989-.1547513.0985732-.2282913.0354969-.0696235-.0591505-.0309438-.1459134 0-.2168743.2282913-.5796618.4604344-1.1553649.5725894-1.7744824.0155043-.0788784.0193561-.1577237.0232402-.2326763.0038518-.2563299-.0851277-.3667134-.3327427-.4297897-.2592351-.0710268-.5184702-.0591835-.7738212-.0591835z"
                        />
                    </g>
                </svg>
            </svg>
        </svg>
    </g>
</svg>
