<svg
    xmlns="http://www.w3.org/2000/svg"
    width="24"
    height="24"
    viewBox="0 0 24 24"
    fill="currentColor"
    stroke="currentColor"
    stroke-width="2"
    stroke-linecap="round"
    stroke-linejoin="round"
>
    <path vector-effect="non-scaling-stroke" d="M10 19.655A6 6 0 0 1 6 14v-3a4 4 0 0 1 4-4h4a4 4 0 0 1 4 3.97" />
    <path
        vector-effect="non-scaling-stroke"
        d="M14 15.003a1 1 0 0 1 1.517-.859l4.997 2.997a1 1 0 0 1 0 1.718l-4.997 2.997a1 1 0 0 1-1.517-.86z"
    />
    <path vector-effect="non-scaling-stroke" d="M14.12 3.88 16 2" />
    <path vector-effect="non-scaling-stroke" d="M20.97 5c0 2.1-1.6 3.8-3.5 4" />
    <path vector-effect="non-scaling-stroke" d="M3 21c0-2.1 1.7-3.9 3.8-4" />
    <path vector-effect="non-scaling-stroke" d="M6 13H2" />
    <path vector-effect="non-scaling-stroke" d="M6.53 9C4.6 8.8 3 7.1 3 5" />
    <path vector-effect="non-scaling-stroke" d="m8 2 1.88 1.88" />
    <path vector-effect="non-scaling-stroke" d="M9 7.13v-1a3 3 0 0 1 4.18-2.895 3 3 0 0 1 1.821 2.896v1" />
</svg>
