<svg
    xmlns="http://www.w3.org/2000/svg"
    width="24"
    height="24"
    viewBox="0 0 24 24"
    fill="none"
    stroke="currentColor"
    stroke-width="calc((100vw - 100vh) / 10)"
    stroke-linecap="round"
    stroke-linejoin="round"
>
    <path
        vector-effect="non-scaling-stroke"
        d="M5 20a2 2 0 0 1 2-2h10a2 2 0 0 1 2 2v1a1 1 0 0 1-1 1H6a1 1 0 0 1-1-1z"
    />
    <path vector-effect="non-scaling-stroke" d="M10 2v2" />
    <path vector-effect="non-scaling-stroke" d="M14 2v2" />
    <path vector-effect="non-scaling-stroke" d="m17 18-1-9" />
    <path vector-effect="non-scaling-stroke" d="M6 2v5a2 2 0 0 0 2 2h8a2 2 0 0 0 2-2V2" />
    <path vector-effect="non-scaling-stroke" d="M6 4h12" />
    <path vector-effect="non-scaling-stroke" d="m7 18 1-9" />
</svg>
