<svg
    xmlns="http://www.w3.org/2000/svg"
    width="24"
    height="24"
    viewBox="0 0 24 24"
    fill="none"
    stroke="currentColor"
    stroke-width="2"
    stroke-linecap="round"
    stroke-linejoin="round"
>
    <path vector-effect="non-scaling-stroke" d="M10.1 2.18a9.93 9.93 0 0 1 3.8 0" />
    <path vector-effect="non-scaling-stroke" d="M17.6 3.71a9.95 9.95 0 0 1 2.69 2.7" />
    <path vector-effect="non-scaling-stroke" d="M21.82 10.1a9.93 9.93 0 0 1 0 3.8" />
    <path vector-effect="non-scaling-stroke" d="M20.29 17.6a9.95 9.95 0 0 1-2.7 2.69" />
    <path vector-effect="non-scaling-stroke" d="M13.9 21.82a9.94 9.94 0 0 1-3.8 0" />
    <path vector-effect="non-scaling-stroke" d="M6.4 20.29a9.95 9.95 0 0 1-2.69-2.7" />
    <path vector-effect="non-scaling-stroke" d="M2.18 13.9a9.93 9.93 0 0 1 0-3.8" />
    <path vector-effect="non-scaling-stroke" d="M3.71 6.4a9.95 9.95 0 0 1 2.7-2.69" />
    <circle vector-effect="non-scaling-stroke" cx="12" cy="12" r="1" />
</svg>
