<svg
    xmlns="http://www.w3.org/2000/svg"
    width="24"
    height="24"
    viewBox="0 0 24 24"
    fill="none"
    stroke="currentColor"
    stroke-width="2"
    stroke-linecap="round"
    stroke-linejoin="round"
>
    <path vector-effect="non-scaling-stroke" d="M4 3 2 5v15c0 .6.4 1 1 1h2c.6 0 1-.4 1-1V5Z" />
    <path vector-effect="non-scaling-stroke" d="M6 8h4" />
    <path vector-effect="non-scaling-stroke" d="M6 18h4" />
    <path vector-effect="non-scaling-stroke" d="m12 3-2 2v15c0 .6.4 1 1 1h2c.6 0 1-.4 1-1V5Z" />
    <path vector-effect="non-scaling-stroke" d="M14 8h4" />
    <path vector-effect="non-scaling-stroke" d="M14 18h4" />
    <path vector-effect="non-scaling-stroke" d="m20 3-2 2v15c0 .6.4 1 1 1h2c.6 0 1-.4 1-1V5Z" />
</svg>
