<svg
    xmlns="http://www.w3.org/2000/svg"
    width="24"
    height="24"
    viewBox="0 0 24 24"
    fill="currentColor"
    stroke="currentColor"
    stroke-width="calc((100vw - 100vh) / 10)"
    stroke-linecap="round"
    stroke-linejoin="round"
>
    <path
        vector-effect="non-scaling-stroke"
        d="M4.226 20.925A2 2 0 0 0 6 22h12a2 2 0 0 0 2-2V8a2.4 2.4 0 0 0-.706-1.706l-3.588-3.588A2.4 2.4 0 0 0 14 2H6a2 2 0 0 0-2 2v3.127"
    />
    <path vector-effect="non-scaling-stroke" d="M14 2v5a1 1 0 0 0 1 1h5" />
    <path vector-effect="non-scaling-stroke" d="m5 11-3 3" />
    <path vector-effect="non-scaling-stroke" d="m5 17-3-3h10" />
</svg>
