<svg
    xmlns="http://www.w3.org/2000/svg"
    width="24"
    height="24"
    viewBox="0 0 24 24"
    fill="currentColor"
    stroke="currentColor"
    stroke-width="calc((100vw - 100vh) / 10)"
    stroke-linecap="round"
    stroke-linejoin="round"
>
    <path
        vector-effect="non-scaling-stroke"
        d="M6 22a2 2 0 0 1-2-2V4a2 2 0 0 1 2-2h8a2.4 2.4 0 0 1 1.704.706l3.588 3.588A2.4 2.4 0 0 1 20 8v12a2 2 0 0 1-2 2z"
    />
    <path vector-effect="non-scaling-stroke" d="M14 2v5a1 1 0 0 0 1 1h5" />
    <path vector-effect="non-scaling-stroke" d="M10 12a1 1 0 0 0-1 1v1a1 1 0 0 1-1 1 1 1 0 0 1 1 1v1a1 1 0 0 0 1 1" />
    <path vector-effect="non-scaling-stroke" d="M14 18a1 1 0 0 0 1-1v-1a1 1 0 0 1 1-1 1 1 0 0 1-1-1v-1a1 1 0 0 0-1-1" />
</svg>
