<svg
    xmlns="http://www.w3.org/2000/svg"
    width="24"
    height="24"
    viewBox="0 0 24 24"
    fill="currentColor"
    stroke="currentColor"
    stroke-width="2"
    stroke-linecap="round"
    stroke-linejoin="round"
>
    <path vector-effect="non-scaling-stroke" d="M21 7h-3a2 2 0 0 1-2-2V2" />
    <path
        vector-effect="non-scaling-stroke"
        d="M21 6v6.5c0 .8-.7 1.5-1.5 1.5h-7c-.8 0-1.5-.7-1.5-1.5v-9c0-.8.7-1.5 1.5-1.5H17Z"
    />
    <path vector-effect="non-scaling-stroke" d="M7 8v8.8c0 .3.2.6.4.8.2.2.5.4.8.4H15" />
    <path vector-effect="non-scaling-stroke" d="M3 12v8.8c0 .3.2.6.4.8.2.2.5.4.8.4H11" />
</svg>
