<svg
    xmlns="http://www.w3.org/2000/svg"
    width="24"
    height="24"
    viewBox="0 0 24 24"
    fill="none"
    stroke="currentColor"
    stroke-width="calc((100vw - 100vh) / 10)"
    stroke-linecap="round"
    stroke-linejoin="round"
>
    <path
        vector-effect="non-scaling-stroke"
        d="M13.85 22H18a2 2 0 0 0 2-2V8a2 2 0 0 0-.586-1.414l-4-4A2 2 0 0 0 14 2H6a2 2 0 0 0-2 2v6.6"
    />
    <path vector-effect="non-scaling-stroke" d="M14 2v5a1 1 0 0 0 1 1h5" />
    <path vector-effect="non-scaling-stroke" d="m3.305 19.53.923-.382" />
    <path vector-effect="non-scaling-stroke" d="m4.228 16.852-.924-.383" />
    <path vector-effect="non-scaling-stroke" d="m5.852 15.228-.383-.923" />
    <path vector-effect="non-scaling-stroke" d="m5.852 20.772-.383.924" />
    <path vector-effect="non-scaling-stroke" d="m8.148 15.228.383-.923" />
    <path vector-effect="non-scaling-stroke" d="m8.53 21.696-.382-.924" />
    <path vector-effect="non-scaling-stroke" d="m9.773 16.852.922-.383" />
    <path vector-effect="non-scaling-stroke" d="m9.773 19.148.922.383" />
    <circle vector-effect="non-scaling-stroke" cx="7" cy="18" r="3" />
</svg>
