<svg
    xmlns="http://www.w3.org/2000/svg"
    width="24"
    height="24"
    viewBox="0 0 24 24"
    fill="currentColor"
    stroke="currentColor"
    stroke-width="2"
    stroke-linecap="round"
    stroke-linejoin="round"
>
    <path vector-effect="non-scaling-stroke" d="M14 2v4a2 2 0 0 0 2 2h4" />
    <path vector-effect="non-scaling-stroke" d="m3.2 12.9-.9-.4" />
    <path vector-effect="non-scaling-stroke" d="m3.2 15.1-.9.4" />
    <path
        vector-effect="non-scaling-stroke"
        d="M4.677 21.5a2 2 0 0 0 1.313.5H18a2 2 0 0 0 2-2V7l-5-5H6a2 2 0 0 0-2 2v2.5"
    />
    <path vector-effect="non-scaling-stroke" d="m4.9 11.2-.4-.9" />
    <path vector-effect="non-scaling-stroke" d="m4.9 16.8-.4.9" />
    <path vector-effect="non-scaling-stroke" d="m7.5 10.3-.4.9" />
    <path vector-effect="non-scaling-stroke" d="m7.5 17.7-.4-.9" />
    <path vector-effect="non-scaling-stroke" d="m9.7 12.5-.9.4" />
    <path vector-effect="non-scaling-stroke" d="m9.7 15.5-.9-.4" />
    <circle vector-effect="non-scaling-stroke" cx="6" cy="14" r="3" />
</svg>
