<svg
    xmlns="http://www.w3.org/2000/svg"
    width="24"
    height="24"
    viewBox="0 0 24 24"
    fill="currentColor"
    stroke="currentColor"
    stroke-width="2"
    stroke-linecap="round"
    stroke-linejoin="round"
>
    <circle vector-effect="non-scaling-stroke" cx="12" cy="13" r="2" />
    <path
        vector-effect="non-scaling-stroke"
        d="M20 20a2 2 0 0 0 2-2V8a2 2 0 0 0-2-2h-7.9a2 2 0 0 1-1.69-.9L9.6 3.9A2 2 0 0 0 7.93 3H4a2 2 0 0 0-2 2v13a2 2 0 0 0 2 2Z"
    />
    <path vector-effect="non-scaling-stroke" d="M14 13h3" />
    <path vector-effect="non-scaling-stroke" d="M7 13h3" />
</svg>
