<svg
    xmlns="http://www.w3.org/2000/svg"
    width="24"
    height="24"
    viewBox="0 0 24 24"
    fill="none"
    stroke="currentColor"
    stroke-width="calc((100vw - 100vh) / 10)"
    stroke-linecap="round"
    stroke-linejoin="round"
>
    <path
        vector-effect="non-scaling-stroke"
        d="M12.83 2.18a2 2 0 0 0-1.66 0L2.6 6.08a1 1 0 0 0 0 1.83l8.58 3.91a2 2 0 0 0 .83.18 2 2 0 0 0 .83-.18l8.58-3.9a1 1 0 0 0 0-1.831z"
    />
    <path vector-effect="non-scaling-stroke" d="M16 17h6" />
    <path vector-effect="non-scaling-stroke" d="M19 14v6" />
    <path vector-effect="non-scaling-stroke" d="M2 12a1 1 0 0 0 .58.91l8.6 3.91a2 2 0 0 0 .825.178" />
    <path vector-effect="non-scaling-stroke" d="M2 17a1 1 0 0 0 .58.91l8.6 3.91a2 2 0 0 0 1.65 0l2.116-.962" />
</svg>
