<!-- @license lucide-static v0.396.0 - ISC -->
<svg
    xmlns="http://www.w3.org/2000/svg"
    class="lucide lucide-map-pinned"
    width="24"
    height="24"
    viewBox="0 0 24 24"
    fill="none"
    stroke="currentColor"
    stroke-width="2"
    stroke-linecap="round"
    stroke-linejoin="round"
>
    <path vector-effect="non-scaling-stroke" d="M18 8c0 4.5-6 9-6 9s-6-4.5-6-9a6 6 0 0 1 12 0" />
    <circle vector-effect="non-scaling-stroke" cx="12" cy="8" r="2" />
    <path
        vector-effect="non-scaling-stroke"
        d="M8.835 14H5a1 1 0 0 0-.9.7l-2 6c-.1.1-.1.2-.1.3 0 .6.4 1 1 1h18c.6 0 1-.4 1-1 0-.1 0-.2-.1-.3l-2-6a1 1 0 0 0-.9-.7h-3.835"
    />
</svg>
