<svg
    xmlns="http://www.w3.org/2000/svg"
    width="24"
    height="24"
    viewBox="0 0 24 24"
    fill="none"
    stroke="currentColor"
    stroke-width="2"
    stroke-linecap="round"
    stroke-linejoin="round"
>
    <path vector-effect="non-scaling-stroke" d="M12 19h.01" />
    <path vector-effect="non-scaling-stroke" d="M12 3h.01" />
    <path vector-effect="non-scaling-stroke" d="M16 19h.01" />
    <path vector-effect="non-scaling-stroke" d="M16 3h.01" />
    <path vector-effect="non-scaling-stroke" d="M2 13h.01" />
    <path vector-effect="non-scaling-stroke" d="M2 17v4.286a.71.71 0 0 0 1.212.502l2.202-2.202A2 2 0 0 1 6.828 19H8" />
    <path vector-effect="non-scaling-stroke" d="M2 5a2 2 0 0 1 2-2" />
    <path vector-effect="non-scaling-stroke" d="M2 9h.01" />
    <path vector-effect="non-scaling-stroke" d="M20 3a2 2 0 0 1 2 2" />
    <path vector-effect="non-scaling-stroke" d="M22 13h.01" />
    <path vector-effect="non-scaling-stroke" d="M22 17a2 2 0 0 1-2 2" />
    <path vector-effect="non-scaling-stroke" d="M22 9h.01" />
    <path vector-effect="non-scaling-stroke" d="M8 3h.01" />
</svg>
