<svg
    xmlns="http://www.w3.org/2000/svg"
    width="24"
    height="24"
    viewBox="0 0 24 24"
    fill="currentColor"
    stroke="currentColor"
    stroke-width="2"
    stroke-linecap="round"
    stroke-linejoin="round"
>
    <path
        vector-effect="non-scaling-stroke"
        d="M4 22h16a2 2 0 0 0 2-2V4a2 2 0 0 0-2-2H8a2 2 0 0 0-2 2v16a2 2 0 0 1-2 2Zm0 0a2 2 0 0 1-2-2v-9c0-1.1.9-2 2-2h2"
    />
    <path vector-effect="non-scaling-stroke" d="M18 14h-8" />
    <path vector-effect="non-scaling-stroke" d="M15 18h-5" />
    <path vector-effect="non-scaling-stroke" d="M10 6h8v4h-8V6Z" />
</svg>
