<svg
    xmlns="http://www.w3.org/2000/svg"
    width="24"
    height="24"
    viewBox="0 0 24 24"
    fill="none"
    stroke="currentColor"
    stroke-width="calc((100vw - 100vh) / 10)"
    stroke-linecap="round"
    stroke-linejoin="round"
>
    <path vector-effect="non-scaling-stroke" d="M12.531 22H7a1 1 0 0 1-1-1v-6a1 1 0 0 1 1-1h6.377" />
    <path vector-effect="non-scaling-stroke" d="m16.5 16.5 5 5" />
    <path vector-effect="non-scaling-stroke" d="m16.5 21.5 5-5" />
    <path vector-effect="non-scaling-stroke" d="M6 18H4a2 2 0 0 1-2-2v-5a2 2 0 0 1 2-2h16a2 2 0 0 1 2 2v1.5" />
    <path vector-effect="non-scaling-stroke" d="M6 9V3a1 1 0 0 1 1-1h10a1 1 0 0 1 1 1v6" />
</svg>
