<svg
    xmlns="http://www.w3.org/2000/svg"
    width="24"
    height="24"
    viewBox="0 0 24 24"
    fill="currentColor"
    stroke="currentColor"
    stroke-width="2"
    stroke-linecap="round"
    stroke-linejoin="round"
>
    <path vector-effect="non-scaling-stroke" d="M7 18v-6a5 5 0 1 1 10 0v6" />
    <path
        vector-effect="non-scaling-stroke"
        d="M5 21a1 1 0 0 0 1 1h12a1 1 0 0 0 1-1v-1a2 2 0 0 0-2-2H7a2 2 0 0 0-2 2z"
    />
    <path vector-effect="non-scaling-stroke" d="M21 12h1" />
    <path vector-effect="non-scaling-stroke" d="M18.5 4.5 18 5" />
    <path vector-effect="non-scaling-stroke" d="M2 12h1" />
    <path vector-effect="non-scaling-stroke" d="M12 2v1" />
    <path vector-effect="non-scaling-stroke" d="m4.929 4.929.707.707" />
    <path vector-effect="non-scaling-stroke" d="M12 12v6" />
</svg>
