<svg
    xmlns="http://www.w3.org/2000/svg"
    width="24"
    height="24"
    viewBox="0 0 24 24"
    fill="none"
    stroke="currentColor"
    stroke-width="calc((100vw - 100vh) / 10)"
    stroke-linecap="round"
    stroke-linejoin="round"
>
    <path vector-effect="non-scaling-stroke" d="m15 10.42 4.8-5.07" />
    <path vector-effect="non-scaling-stroke" d="M19 18h3" />
    <path
        vector-effect="non-scaling-stroke"
        d="M9.5 22 21.414 9.415A2 2 0 0 0 21.2 6.4l-5.61-4.208A1 1 0 0 0 14 3v2a2 2 0 0 1-1.394 1.906L8.677 8.053A1 1 0 0 0 8 9c-.155 6.393-2.082 9-4 9a2 2 0 0 0 0 4h14"
    />
</svg>
