<svg
    xmlns="http://www.w3.org/2000/svg"
    width="24"
    height="24"
    viewBox="0 0 24 24"
    fill="currentColor"
    stroke="currentColor"
    stroke-width="2"
    stroke-linecap="round"
    stroke-linejoin="round"
>
    <path vector-effect="non-scaling-stroke" d="M8 7v7" />
    <path vector-effect="non-scaling-stroke" d="M12 7v4" />
    <path vector-effect="non-scaling-stroke" d="M16 7v9" />
    <path vector-effect="non-scaling-stroke" d="M5 3a2 2 0 0 0-2 2" />
    <path vector-effect="non-scaling-stroke" d="M9 3h1" />
    <path vector-effect="non-scaling-stroke" d="M14 3h1" />
    <path vector-effect="non-scaling-stroke" d="M19 3a2 2 0 0 1 2 2" />
    <path vector-effect="non-scaling-stroke" d="M21 9v1" />
    <path vector-effect="non-scaling-stroke" d="M21 14v1" />
    <path vector-effect="non-scaling-stroke" d="M21 19a2 2 0 0 1-2 2" />
    <path vector-effect="non-scaling-stroke" d="M14 21h1" />
    <path vector-effect="non-scaling-stroke" d="M9 21h1" />
    <path vector-effect="non-scaling-stroke" d="M5 21a2 2 0 0 1-2-2" />
    <path vector-effect="non-scaling-stroke" d="M3 14v1" />
    <path vector-effect="non-scaling-stroke" d="M3 9v1" />
</svg>
