<svg xmlns="http://www.w3.org/2000/svg" id="tuiIconRedo" fill="none" viewBox="0 0 24 24"><path stroke="currentColor" stroke-linecap="round" stroke-linejoin="round" stroke-width="2" d="M20.712 10.967c0 .374-.161.756-.483 1.016h-.002l-7.018 5.665-.001.002a1.277 1.277 0 01-1.598.008h0l.527-1.134-.936-.352h0v-.002l.909-2.414c-1.97.024-3.388.256-4.607.875-1.482.752-2.816 2.154-4.431 4.875a1 1 0 01-1.843-.695c.459-2.442 1.173-4.98 3.014-6.975C5.92 10.02 8.415 8.77 12.155 8.295L11.2 5.76h0a1.31 1.31 0 01.4-1.478 1.275 1.275 0 011.609 0l7.02 5.668h0l.008.007a1.306 1.306 0 01.474 1.01zm0 0v-.002h-1l1 .004v-.002zm-8.763 5.129l.002-.002-.002.002z"/></svg>