<svg xmlns="http://www.w3.org/2000/svg" width="1.5em" height="1.5em">
    <g id="tuiIconSignpostLarge" xmlns="http://www.w3.org/2000/svg">
        <svg x="50%" y="50%" width="1.5em" height="1.5em" overflow="visible" viewBox="0 0 24 24">
            <svg x="-12" y="-12">
                <svg
                    xmlns="http://www.w3.org/2000/svg"
                    width="24"
                    height="24"
                    viewBox="0 0 24 24"
                    stroke="currentColor"
                    stroke-width="2"
                    stroke-linecap="round"
                    stroke-linejoin="round"
                >
                    <path vector-effect="non-scaling-stroke" d="M12 13v8" />
                    <path vector-effect="non-scaling-stroke" d="M12 3v3" />
                    <path
                        vector-effect="non-scaling-stroke"
                        d="M18 6a2 2 0 0 1 1.414.586l2.293 2.207a1 1 0 0 1 0 1.414l-2.27 2.184a2 2 0 0 1-1.742.586L6 13a2 2 0 0 1-1.414-.586l-2.293-2.207a1 1 0 0 1 0-1.414l2.293-2.207A2 2 0 0 1 6 6z"
                    />
                </svg>
            </svg>
        </svg>
    </g>
</svg>
