<svg xmlns="http://www.w3.org/2000/svg" width="1em" height="1em" focusable="false">
    <g id="tuiIconAttach" xmlns="http://www.w3.org/2000/svg">
        <svg
            x="50%"
            y="50%"
            width="1em"
            height="1em"
            overflow="visible"
            viewBox="0 0 16 16"
            fill="none"
            xmlns="http://www.w3.org/2000/svg"
        >
            <svg x="-8" y="-8">
                <path
                    d="M14 7.563l-6.146 6.243A3.984 3.984 0 0 1 5.014 15a3.984 3.984 0 0 1-2.838-1.194A4.11 4.11 0 0 1 1 10.922 4.11 4.11 0 0 1 2.176 8.04l6.146-6.243A2.656 2.656 0 0 1 10.215 1c.71 0 1.39.286 1.892.796a2.74 2.74 0 0 1 .784 1.923 2.74 2.74 0 0 1-.784 1.922l-6.152 6.242a1.328 1.328 0 0 1-1.893 0 1.37 1.37 0 0 1 0-1.922l5.678-5.76"
                    stroke="currentColor"
                    stroke-width="2"
                    stroke-linecap="round"
                    stroke-linejoin="round"
                />
            </svg>
        </svg>
    </g>
</svg>
