<svg xmlns="http://www.w3.org/2000/svg" width="16" height="16">
    <g id="tuiIconNotificationOffOutline"
        xmlns="http://www.w3.org/2000/svg" transform="translate(-8,-8)">
        <svg x="50%" y="50%">
            <svg width="16" height="16" viewBox="0 0 16 16" fill="none"
                xmlns="http://www.w3.org/2000/svg">
                <path fill-rule="evenodd" clip-rule="evenodd" d="M3.12469 5.33015L0.320597 2.73377C-0.0846483 2.35854 -0.108983 1.72584 0.266244 1.3206C0.641471 0.915352 1.27417 0.891017 1.67941 1.26624L15.1794 13.7662C15.5847 14.1415 15.609 14.7742 15.2338 15.1794C14.8585 15.5847 14.2258 15.609 13.8206 15.2338L11.4081 13H4H2V11.5L2.31169 11L3.09091 9.75V5.90909C3.09091 5.71322 3.10238 5.52002 3.12469 5.33015ZM9.24813 11H4.66846L4.78814 10.808L5.09091 10.3223V9.75V7.15072L9.24813 11ZM10.9091 5.90909V7.10934L12.9091 8.95145V5.90909C12.9091 3.54054 11.2317 1.56377 9 1.10193V1C9 0.447716 8.55228 0 8 0C7.44772 0 7 0.447715 7 1V1.10193C6.34872 1.23671 5.74465 1.50051 5.2157 1.86541L6.75208 3.2805C7.13025 3.10065 7.55337 3 8 3C9.60665 3 10.9091 4.30244 10.9091 5.90909ZM10 14C10 15.1046 9.10457 16 8 16C6.89543 16 6 15.1046 6 14H10Z" fill="currentColor"/>
            </svg>
        </svg>
    </g>
</svg>