<svg xmlns="http://www.w3.org/2000/svg" width="1em" height="1em">
    <g id="tuiIconBellOff" xmlns="http://www.w3.org/2000/svg">
        <svg
            x="50%"
            y="50%"
            width="1em"
            height="1em"
            overflow="visible"
            viewBox="0 0 16 16"
            fill="none"
            xmlns="http://www.w3.org/2000/svg"
        >
            <svg x="-8" y="-8">
                <g clip-path="url(#clip0)">
                    <path
                        fill-rule="evenodd"
                        clip-rule="evenodd"
                        d="M1.70711 0.292893C1.31658 -0.0976311 0.683417 -0.0976311 0.292893 0.292893C-0.0976311 0.683417 -0.0976311 1.31658 0.292893 1.70711L3.01829 4.43251L3 4.46792C3 5.90989 2.82384 8.31798 2.12211 9.60449C1.91531 9.98361 1.71723 10.2264 1.58655 10.3643C1.52095 10.4336 1.47163 10.4772 1.44575 10.4987C1.43672 10.5062 1.43053 10.5111 1.42749 10.5134C1.07338 10.7606 0.917298 11.2083 1.04291 11.6231C1.17061 12.0449 1.55933 12.3333 2 12.3333H10.9191L14.2929 15.7071C14.6834 16.0976 15.3166 16.0976 15.7071 15.7071C16.0976 15.3166 16.0976 14.6834 15.7071 14.2929L4.89383 3.47962C4.8847 3.47012 4.87537 3.46079 4.86585 3.45164L1.70711 0.292893ZM4.96661 6.38083C4.85124 8.14142 4.45153 9.42281 3.9973 10.3333H8.91913L4.96661 6.38083ZM7.75908 0.333201C8.66381 0.289557 9.5634 0.492497 10.3618 0.920345C11.1601 1.34819 11.8273 1.98488 12.2919 2.76239C12.7566 3.5399 13.0013 4.42903 13 5.33481L12.9998 5.35234C12.9836 6.38234 13.1132 7.40945 13.3847 8.40317C13.5302 8.93594 13.2163 9.48581 12.6835 9.63134C12.1507 9.77687 11.6009 9.46295 11.4553 8.93019C11.1346 7.75594 10.9813 6.54228 11 5.32518C10.9996 4.78402 10.8528 4.25299 10.5752 3.78839C10.2964 3.32188 9.89608 2.93987 9.41706 2.68316C8.93804 2.42646 8.39829 2.30469 7.85545 2.33088C7.31261 2.35706 6.78708 2.53022 6.335 2.83184C5.87558 3.13836 5.25467 3.01441 4.94815 2.555C4.64163 2.09558 4.76558 1.47466 5.225 1.16815C5.97847 0.665436 6.85435 0.376846 7.75908 0.333201ZM6.3449 13.135C6.82262 12.8579 7.43455 13.0205 7.71167 13.4982C7.74097 13.5488 7.78303 13.5907 7.83363 13.6198C7.88423 13.649 7.9416 13.6643 8 13.6643C8.0584 13.6643 8.11577 13.649 8.16637 13.6198C8.21698 13.5907 8.25903 13.5488 8.28834 13.4982C8.56546 13.0205 9.17738 12.8579 9.65511 13.135C10.1328 13.4121 10.2955 14.0241 10.0183 14.5018C9.81322 14.8554 9.51882 15.1489 9.1646 15.3529C8.81038 15.5569 8.40878 15.6643 8 15.6643C7.59123 15.6643 7.18962 15.5569 6.8354 15.3529C6.48118 15.1489 6.18678 14.8554 5.98167 14.5018C5.70455 14.0241 5.86717 13.4121 6.3449 13.135Z"
                        fill="currentColor"
                    />
                </g>
            </svg>
        </svg>
    </g>
</svg>
