<svg xmlns="http://www.w3.org/2000/svg" width="1.5em" height="1.5em">
    <g id="tuiIconSlackLarge" xmlns="http://www.w3.org/2000/svg">
        <svg x="50%" y="50%" width="1.5em" height="1.5em" overflow="visible" viewBox="0 0 24 24">
            <svg x="-12" y="-12">
                <svg
                    xmlns="http://www.w3.org/2000/svg"
                    width="24"
                    height="24"
                    viewBox="0 0 24 24"
                    stroke="currentColor"
                    stroke-width="2"
                    stroke-linecap="round"
                    stroke-linejoin="round"
                >
                    <rect x="13" y="2" vector-effect="non-scaling-stroke" width="3" height="8" rx="1.5" />
                    <path vector-effect="non-scaling-stroke" d="M19 8.5V10h1.5A1.5 1.5 0 1 0 19 8.5" />
                    <rect x="8" y="14" vector-effect="non-scaling-stroke" width="3" height="8" rx="1.5" />
                    <path vector-effect="non-scaling-stroke" d="M5 15.5V14H3.5A1.5 1.5 0 1 0 5 15.5" />
                    <rect x="14" y="13" vector-effect="non-scaling-stroke" width="8" height="3" rx="1.5" />
                    <path vector-effect="non-scaling-stroke" d="M15.5 19H14v1.5a1.5 1.5 0 1 0 1.5-1.5" />
                    <rect x="2" y="8" vector-effect="non-scaling-stroke" width="8" height="3" rx="1.5" />
                    <path vector-effect="non-scaling-stroke" d="M8.5 5H10V3.5A1.5 1.5 0 1 0 8.5 5" />
                </svg>
            </svg>
        </svg>
    </g>
</svg>
