<svg xmlns="http://www.w3.org/2000/svg" width="1.5em" height="1.5em">
    <g id="tuiIconFuel" xmlns="http://www.w3.org/2000/svg">
        <svg x="50%" y="50%" width="1.5em" height="1.5em" overflow="visible" viewBox="0 0 24 24">
            <svg x="-12" y="-12">
                <svg
                    xmlns="http://www.w3.org/2000/svg"
                    class="lucide lucide-fuel"
                    width="24"
                    height="24"
                    viewBox="0 0 24 24"
                    fill="none"
                    stroke="currentColor"
                    stroke-width="2"
                    stroke-linecap="round"
                    stroke-linejoin="round"
                >
                    <line x1="3" x2="15" y1="22" y2="22" />
                    <line x1="4" x2="14" y1="9" y2="9" />
                    <path d="M14 22V4a2 2 0 0 0-2-2H6a2 2 0 0 0-2 2v18" />
                    <path d="M14 13h2a2 2 0 0 1 2 2v2a2 2 0 0 0 2 2a2 2 0 0 0 2-2V9.83a2 2 0 0 0-.59-1.42L18 5" />
                </svg>
            </svg>
        </svg>
    </g>
</svg>
