<svg xmlns="http://www.w3.org/2000/svg" width="1em" height="1em" focusable="false">
    <g id="tuiIconUsers" xmlns="http://www.w3.org/2000/svg">
        <svg
            x="50%"
            y="50%"
            width="1em"
            height="1em"
            overflow="visible"
            viewBox="0 0 16 16"
            fill="none"
            xmlns="http://www.w3.org/2000/svg"
        >
            <svg x="-8" y="-8">
                <path
                    d="M11 14v-1.333a2.76 2.76 0 0 0-.732-1.886A2.424 2.424 0 0 0 8.5 10h-5c-.663 0-1.299.281-1.768.781A2.76 2.76 0 0 0 1 12.667V14M6 7.333A2.667 2.667 0 1 0 6 2a2.667 2.667 0 0 0 0 5.333zM15 14v-1.363c0-.604-.197-1.19-.56-1.668A2.663 2.663 0 0 0 13 10M10.667 2.087a2.666 2.666 0 0 1 0 5.167"
                    stroke="currentColor"
                    stroke-width="2"
                    stroke-linecap="round"
                    stroke-linejoin="round"
                />
            </svg>
        </svg>
    </g>
</svg>
