<svg xmlns="http://www.w3.org/2000/svg" width="1.5em" height="1.5em">
    <g id="tuiIconTrainFrontLarge" xmlns="http://www.w3.org/2000/svg">
        <svg x="50%" y="50%" width="1.5em" height="1.5em" overflow="visible" viewBox="0 0 24 24">
            <svg x="-12" y="-12">
                <svg
                    xmlns="http://www.w3.org/2000/svg"
                    width="24"
                    height="24"
                    viewBox="0 0 24 24"
                    stroke="currentColor"
                    stroke-width="2"
                    stroke-linecap="round"
                    stroke-linejoin="round"
                >
                    <path vector-effect="non-scaling-stroke" d="M8 3.1V7a4 4 0 0 0 8 0V3.1" />
                    <path vector-effect="non-scaling-stroke" d="m9 15-1-1" />
                    <path vector-effect="non-scaling-stroke" d="m15 15 1-1" />
                    <path
                        vector-effect="non-scaling-stroke"
                        d="M9 19c-2.8 0-5-2.2-5-5v-4a8 8 0 0 1 16 0v4c0 2.8-2.2 5-5 5Z"
                    />
                    <path vector-effect="non-scaling-stroke" d="m8 19-2 3" />
                    <path vector-effect="non-scaling-stroke" d="m16 19 2 3" />
                </svg>
            </svg>
        </svg>
    </g>
</svg>
