<svg xmlns="http://www.w3.org/2000/svg" height="1em" width="1em">
    <g id="tuiIconRotate" xmlns="http://www.w3.org/2000/svg">
        <svg
            x="50%"
            y="50%"
            xmlns="http://www.w3.org/2000/svg"
            height="1em"
            overflow="visible"
            viewBox="0 0 16 16"
            width="1em"
        >
            <svg x="-8" y="-8">
                <path
                    vector-effect="non-scaling-stroke"
                    clip-rule="evenodd"
                    d="M14.0357 9C13.5031 9 13.0714 8.56245 13.0714 8.0227V5.62343C13.0714 5.21727 12.9151 4.83143 12.6415 4.54875L12.6405 4.54777C12.508 4.41052 12.3498 4.30142 12.1752 4.22685C12.0008 4.15237 11.8135 4.11384 11.6242 4.11351H9.29239L9.69624 4.60025C10.0728 4.98191 10.0728 5.6007 9.69624 5.98236C9.31965 6.36401 8.70907 6.36401 8.33248 5.98236L6.28244 3.82727C5.90585 3.44561 5.90585 2.82682 6.28244 2.44516L8.33248 0.286244C8.70907 -0.0954148 9.31965 -0.0954148 9.69624 0.286245C10.0728 0.667903 10.0728 1.28669 9.69624 1.66835L9.2924 2.15891L11.6261 2.15891C12.072 2.1595 12.5133 2.25018 12.9241 2.42564C13.3348 2.60102 13.7069 2.85758 14.0186 3.18033C14.6492 3.8319 15 4.71047 15 5.62343V8.0227C15 8.56245 14.5683 9 14.0357 9ZM4 9H9V13H4L4 9ZM2 9C2 7.89543 2.89543 7 4 7H9C10.1046 7 11 7.89543 11 9V13C11 14.1046 10.1046 15 9 15H4C2.89543 15 2 14.1046 2 13V9Z"
                    fill="currentColor"
                    stroke="none"
                    fill-rule="evenodd"
                />
            </svg>
        </svg>
    </g>
</svg>
