<svg xmlns="http://www.w3.org/2000/svg" width="1.5em" height="1.5em">
    <g id="tuiIconMedalLarge" xmlns="http://www.w3.org/2000/svg">
        <svg x="50%" y="50%" width="1.5em" height="1.5em" overflow="visible" viewBox="0 0 24 24">
            <svg x="-12" y="-12">
                <svg
                    xmlns="http://www.w3.org/2000/svg"
                    width="24"
                    height="24"
                    viewBox="0 0 24 24"
                    stroke="currentColor"
                    stroke-width="2"
                    stroke-linecap="round"
                    stroke-linejoin="round"
                >
                    <path
                        vector-effect="non-scaling-stroke"
                        d="M7.21 15 2.66 7.14a2 2 0 0 1 .13-2.2L4.4 2.8A2 2 0 0 1 6 2h12a2 2 0 0 1 1.6.8l1.6 2.14a2 2 0 0 1 .14 2.2L16.79 15"
                    />
                    <path vector-effect="non-scaling-stroke" d="M11 12 5.12 2.2" />
                    <path vector-effect="non-scaling-stroke" d="m13 12 5.88-9.8" />
                    <path vector-effect="non-scaling-stroke" d="M8 7h8" />
                    <circle vector-effect="non-scaling-stroke" cx="12" cy="17" r="5" />
                    <path vector-effect="non-scaling-stroke" d="M12 18v-2h-.5" />
                </svg>
            </svg>
        </svg>
    </g>
</svg>
