<svg xmlns="http://www.w3.org/2000/svg" width="1.5em" height="1.5em" focusable="false">
    <g id="tuiIconSublevelLarge" xmlns="http://www.w3.org/2000/svg">
        <svg x="50%" y="50%" width="1.5em" height="1.5em" overflow="visible" viewBox="0 0 24 24" fill="none">
            <svg x="-12" y="-12" xmlns="http://www.w3.org/2000/svg">
                <path
                    d="M15.6 16l-2.3-2.3c-.4-.4-.4-1 0-1.4.4-.4 1-.4 1.4 0l3.3 3.3c.8.8.8 2 0 2.8l-3.3 3.3c-.4.4-1 .4-1.4 0-.4-.4-.4-1 0-1.4l2.3-2.3H12c-3.3 0-6-2.7-6-6V3c0-.6.4-1 1-1s1 .4 1 1v9c0 2.2 1.8 4 4 4h3.6z"
                    fill="currentColor"
                />
            </svg>
        </svg>
    </g>
</svg>
