<svg xmlns="http://www.w3.org/2000/svg" width="1.5em" height="1.5em">
    <g id="tuiIconCherryLarge" xmlns="http://www.w3.org/2000/svg">
        <svg x="50%" y="50%" width="1.5em" height="1.5em" overflow="visible" viewBox="0 0 24 24">
            <svg x="-12" y="-12">
                <svg
                    xmlns="http://www.w3.org/2000/svg"
                    width="24"
                    height="24"
                    viewBox="0 0 24 24"
                    stroke="currentColor"
                    stroke-width="2"
                    stroke-linecap="round"
                    stroke-linejoin="round"
                >
                    <path
                        vector-effect="non-scaling-stroke"
                        d="M2 17a5 5 0 0 0 10 0c0-2.76-2.5-5-5-3-2.5-2-5 .24-5 3Z"
                    />
                    <path
                        vector-effect="non-scaling-stroke"
                        d="M12 17a5 5 0 0 0 10 0c0-2.76-2.5-5-5-3-2.5-2-5 .24-5 3Z"
                    />
                    <path vector-effect="non-scaling-stroke" d="M7 14c3.22-2.91 4.29-8.75 5-12 1.66 2.38 4.94 9 5 12" />
                    <path vector-effect="non-scaling-stroke" d="M22 9c-4.29 0-7.14-2.33-10-7 5.71 0 10 4.67 10 7Z" />
                </svg>
            </svg>
        </svg>
    </g>
</svg>
