<svg xmlns="http://www.w3.org/2000/svg" width="1.5em" height="1.5em">
    <g id="tuiIconCross" xmlns="http://www.w3.org/2000/svg">
        <svg x="50%" y="50%" width="1.5em" height="1.5em" overflow="visible" viewBox="0 0 24 24">
            <svg x="-12" y="-12">
                <svg
                    xmlns="http://www.w3.org/2000/svg"
                    class="lucide lucide-cross"
                    width="24"
                    height="24"
                    viewBox="0 0 24 24"
                    fill="none"
                    stroke="currentColor"
                    stroke-width="2"
                    stroke-linecap="round"
                    stroke-linejoin="round"
                >
                    <path
                        d="M11 2a2 2 0 0 0-2 2v5H4a2 2 0 0 0-2 2v2c0 1.1.9 2 2 2h5v5c0 1.1.9 2 2 2h2a2 2 0 0 0 2-2v-5h5a2 2 0 0 0 2-2v-2a2 2 0 0 0-2-2h-5V4a2 2 0 0 0-2-2h-2z"
                    />
                </svg>
            </svg>
        </svg>
    </g>
</svg>
