<svg xmlns="http://www.w3.org/2000/svg" width="1.5em" height="1.5em">
    <g id="tuiIconFlower2Large" xmlns="http://www.w3.org/2000/svg">
        <svg x="50%" y="50%" width="1.5em" height="1.5em" overflow="visible" viewBox="0 0 24 24">
            <svg x="-12" y="-12">
                <svg
                    xmlns="http://www.w3.org/2000/svg"
                    width="24"
                    height="24"
                    viewBox="0 0 24 24"
                    stroke="currentColor"
                    stroke-width="2"
                    stroke-linecap="round"
                    stroke-linejoin="round"
                >
                    <path
                        vector-effect="non-scaling-stroke"
                        d="M12 5a3 3 0 1 1 3 3m-3-3a3 3 0 1 0-3 3m3-3v1M9 8a3 3 0 1 0 3 3M9 8h1m5 0a3 3 0 1 1-3 3m3-3h-1m-2 3v-1"
                    />
                    <circle vector-effect="non-scaling-stroke" cx="12" cy="8" r="2" />
                    <path vector-effect="non-scaling-stroke" d="M12 10v12" />
                    <path vector-effect="non-scaling-stroke" d="M12 22c4.2 0 7-1.667 7-5-4.2 0-7 1.667-7 5Z" />
                    <path vector-effect="non-scaling-stroke" d="M12 22c-4.2 0-7-1.667-7-5 4.2 0 7 1.667 7 5Z" />
                </svg>
            </svg>
        </svg>
    </g>
</svg>
