<svg xmlns="http://www.w3.org/2000/svg" width="1.5em" height="1.5em">
    <g id="tuiIconStickerLarge" xmlns="http://www.w3.org/2000/svg">
        <svg x="50%" y="50%" width="1.5em" height="1.5em" overflow="visible" viewBox="0 0 24 24">
            <svg x="-12" y="-12">
                <svg
                    xmlns="http://www.w3.org/2000/svg"
                    width="24"
                    height="24"
                    viewBox="0 0 24 24"
                    stroke="currentColor"
                    stroke-width="2"
                    stroke-linecap="round"
                    stroke-linejoin="round"
                >
                    <path
                        vector-effect="non-scaling-stroke"
                        d="M15.5 3H5a2 2 0 0 0-2 2v14c0 1.1.9 2 2 2h14a2 2 0 0 0 2-2V8.5L15.5 3Z"
                    />
                    <path vector-effect="non-scaling-stroke" d="M14 3v4a2 2 0 0 0 2 2h4" />
                    <path vector-effect="non-scaling-stroke" d="M8 13h.01" />
                    <path vector-effect="non-scaling-stroke" d="M16 13h.01" />
                    <path vector-effect="non-scaling-stroke" d="M10 16s.8 1 2 1c1.3 0 2-1 2-1" />
                </svg>
            </svg>
        </svg>
    </g>
</svg>
