<svg xmlns="http://www.w3.org/2000/svg" width="1.5em" height="1.5em">
    <g id="tuiIconHammer" xmlns="http://www.w3.org/2000/svg">
        <svg x="50%" y="50%" width="1.5em" height="1.5em" overflow="visible" viewBox="0 0 24 24">
            <svg x="-12" y="-12">
                <svg
                    xmlns="http://www.w3.org/2000/svg"
                    class="lucide lucide-hammer"
                    width="24"
                    height="24"
                    viewBox="0 0 24 24"
                    fill="none"
                    stroke="currentColor"
                    stroke-width="2"
                    stroke-linecap="round"
                    stroke-linejoin="round"
                >
                    <path d="m15 12-8.373 8.373a1 1 0 1 1-3-3L12 9" />
                    <path d="m18 15 4-4" />
                    <path
                        d="m21.5 11.5-1.914-1.914A2 2 0 0 1 19 8.172V7l-2.26-2.26a6 6 0 0 0-4.202-1.756L9 2.96l.92.82A6.18 6.18 0 0 1 12 8.4V10l2 2h1.172a2 2 0 0 1 1.414.586L18.5 14.5"
                    />
                </svg>
            </svg>
        </svg>
    </g>
</svg>
