<svg height="1.5em" width="1.5em" xmlns="http://www.w3.org/2000/svg">
    <g id="tuiIconTableMergeLarge" xmlns="http://www.w3.org/2000/svg">
        <svg fill="none" height="1.5em" overflow="visible" viewBox="0 0 24 24" width="1.5em" x="50%" y="50%">
            <svg x="-12" xmlns="http://www.w3.org/2000/svg" y="-12">
                <path
                    clip-rule="evenodd"
                    d="M11 4H4V20H11V16.5C11 15.9477 11.4477 15.5 12 15.5C12.5523 15.5 13 15.9477 13 16.5V20H20V4H13V8C13 8.55228 12.5523 9 12 9C11.4477 9 11 8.55228 11 8V4ZM20 22H12H4C2.89543 22 2 21.1046 2 20V4C2 2.89543 2.89543 2 4 2H20C21.1046 2 22 2.89543 22 4V20C22 21.1046 21.1046 22 20 22ZM6.29289 8.29289C6.68342 7.90237 7.31658 7.90237 7.70711 8.29289L10.7071 11.2929C11.0976 11.6834 11.0976 12.3166 10.7071 12.7071L7.70711 15.7071C7.31658 16.0976 6.68342 16.0976 6.29289 15.7071C5.90237 15.3166 5.90237 14.6834 6.29289 14.2929L8.58579 12L6.29289 9.70711C5.90237 9.31658 5.90237 8.68342 6.29289 8.29289ZM16.2929 15.7071C16.6834 16.0976 17.3166 16.0976 17.7071 15.7071C18.0976 15.3166 18.0976 14.6834 17.7071 14.2929L15.4142 12L17.7071 9.70711C18.0976 9.31658 18.0976 8.68342 17.7071 8.29289C17.3166 7.90237 16.6834 7.90237 16.2929 8.29289L13.2929 11.2929C12.9024 11.6834 12.9024 12.3166 13.2929 12.7071L16.2929 15.7071Z"
                    fill="currentColor"
                    stroke="none"
                    fill-rule="evenodd"
                />
            </svg>
        </svg>
    </g>
</svg>
