<svg xmlns="http://www.w3.org/2000/svg" width="1.5em" height="1.5em">
    <g id="tuiIconFileArchive" xmlns="http://www.w3.org/2000/svg">
        <svg x="50%" y="50%" width="1.5em" height="1.5em" overflow="visible" viewBox="0 0 24 24">
            <svg x="-12" y="-12">
                <svg
                    xmlns="http://www.w3.org/2000/svg"
                    class="lucide lucide-file-archive"
                    width="24"
                    height="24"
                    viewBox="0 0 24 24"
                    fill="none"
                    stroke="currentColor"
                    stroke-width="2"
                    stroke-linecap="round"
                    stroke-linejoin="round"
                >
                    <path d="M10 12v-1" />
                    <path d="M10 18v-2" />
                    <path d="M10 7V6" />
                    <path d="M14 2v4a2 2 0 0 0 2 2h4" />
                    <path d="M15.5 22H18a2 2 0 0 0 2-2V7l-5-5H6a2 2 0 0 0-2 2v16a2 2 0 0 0 .274 1.01" />
                    <circle cx="10" cy="20" r="2" />
                </svg>
            </svg>
        </svg>
    </g>
</svg>
