<svg xmlns="http://www.w3.org/2000/svg" width="1.5em" height="1.5em">
    <g id="tuiIconImageUpLarge" xmlns="http://www.w3.org/2000/svg">
        <svg x="50%" y="50%" width="1.5em" height="1.5em" overflow="visible" viewBox="0 0 24 24">
            <svg x="-12" y="-12">
                <svg
                    xmlns="http://www.w3.org/2000/svg"
                    width="24"
                    height="24"
                    viewBox="0 0 24 24"
                    stroke="currentColor"
                    stroke-width="2"
                    stroke-linecap="round"
                    stroke-linejoin="round"
                >
                    <path
                        vector-effect="non-scaling-stroke"
                        d="M10.3 21H5a2 2 0 0 1-2-2V5a2 2 0 0 1 2-2h14a2 2 0 0 1 2 2v10l-3.1-3.1a2 2 0 0 0-2.814.014L6 21"
                    />
                    <path vector-effect="non-scaling-stroke" d="m14 19.5 3-3 3 3" />
                    <path vector-effect="non-scaling-stroke" d="M17 22v-5.5" />
                    <circle vector-effect="non-scaling-stroke" cx="9" cy="9" r="2" />
                </svg>
            </svg>
        </svg>
    </g>
</svg>
