<svg xmlns="http://www.w3.org/2000/svg" width="1.5em" height="1.5em">
    <g id="tuiIconLuggageLarge" xmlns="http://www.w3.org/2000/svg">
        <svg x="50%" y="50%" width="1.5em" height="1.5em" overflow="visible" viewBox="0 0 24 24">
            <svg x="-12" y="-12">
                <svg
                    xmlns="http://www.w3.org/2000/svg"
                    width="24"
                    height="24"
                    viewBox="0 0 24 24"
                    stroke="currentColor"
                    stroke-width="2"
                    stroke-linecap="round"
                    stroke-linejoin="round"
                >
                    <path
                        vector-effect="non-scaling-stroke"
                        d="M6 20a2 2 0 0 1-2-2V8a2 2 0 0 1 2-2h12a2 2 0 0 1 2 2v10a2 2 0 0 1-2 2"
                    />
                    <path vector-effect="non-scaling-stroke" d="M8 18V4a2 2 0 0 1 2-2h4a2 2 0 0 1 2 2v14" />
                    <path vector-effect="non-scaling-stroke" d="M10 20h4" />
                    <circle vector-effect="non-scaling-stroke" cx="16" cy="20" r="2" />
                    <circle vector-effect="non-scaling-stroke" cx="8" cy="20" r="2" />
                </svg>
            </svg>
        </svg>
    </g>
</svg>
