<svg xmlns="http://www.w3.org/2000/svg" width="1.5em" height="1.5em">
    <g id="tuiIconBrainCircuitLarge" xmlns="http://www.w3.org/2000/svg">
        <svg x="50%" y="50%" width="1.5em" height="1.5em" overflow="visible" viewBox="0 0 24 24">
            <svg x="-12" y="-12">
                <svg
                    xmlns="http://www.w3.org/2000/svg"
                    width="24"
                    height="24"
                    viewBox="0 0 24 24"
                    stroke="currentColor"
                    stroke-width="2"
                    stroke-linecap="round"
                    stroke-linejoin="round"
                >
                    <path
                        vector-effect="non-scaling-stroke"
                        d="M12 5a3 3 0 1 0-5.997.125 4 4 0 0 0-2.526 5.77 4 4 0 0 0 .556 6.588A4 4 0 1 0 12 18Z"
                    />
                    <path vector-effect="non-scaling-stroke" d="M9 13a4.5 4.5 0 0 0 3-4" />
                    <path vector-effect="non-scaling-stroke" d="M6.003 5.125A3 3 0 0 0 6.401 6.5" />
                    <path vector-effect="non-scaling-stroke" d="M3.477 10.896a4 4 0 0 1 .585-.396" />
                    <path vector-effect="non-scaling-stroke" d="M6 18a4 4 0 0 1-1.967-.516" />
                    <path vector-effect="non-scaling-stroke" d="M12 13h4" />
                    <path vector-effect="non-scaling-stroke" d="M12 18h6a2 2 0 0 1 2 2v1" />
                    <path vector-effect="non-scaling-stroke" d="M12 8h8" />
                    <path vector-effect="non-scaling-stroke" d="M16 8V5a2 2 0 0 1 2-2" />
                    <circle vector-effect="non-scaling-stroke" cx="16" cy="13" r=".5" />
                    <circle vector-effect="non-scaling-stroke" cx="18" cy="3" r=".5" />
                    <circle vector-effect="non-scaling-stroke" cx="20" cy="21" r=".5" />
                    <circle vector-effect="non-scaling-stroke" cx="20" cy="8" r=".5" />
                </svg>
            </svg>
        </svg>
    </g>
</svg>
