<svg xmlns="http://www.w3.org/2000/svg" width="1.5em" height="1.5em">
    <g id="tuiIconWifiOff" xmlns="http://www.w3.org/2000/svg">
        <svg x="50%" y="50%" width="1.5em" height="1.5em" overflow="visible" viewBox="0 0 24 24">
            <svg x="-12" y="-12">
                <svg
                    xmlns="http://www.w3.org/2000/svg"
                    class="lucide lucide-wifi-off"
                    width="24"
                    height="24"
                    viewBox="0 0 24 24"
                    fill="none"
                    stroke="currentColor"
                    stroke-width="2"
                    stroke-linecap="round"
                    stroke-linejoin="round"
                >
                    <path d="M12 20h.01" />
                    <path d="M8.5 16.429a5 5 0 0 1 7 0" />
                    <path d="M5 12.859a10 10 0 0 1 5.17-2.69" />
                    <path d="M19 12.859a10 10 0 0 0-2.007-1.523" />
                    <path d="M2 8.82a15 15 0 0 1 4.177-2.643" />
                    <path d="M22 8.82a15 15 0 0 0-11.288-3.764" />
                    <path d="m2 2 20 20" />
                </svg>
            </svg>
        </svg>
    </g>
</svg>
