<svg xmlns="http://www.w3.org/2000/svg" id="tuiIconOL" fill="none" viewBox="0 0 24 24"><path stroke="currentColor" stroke-linecap="round" stroke-linejoin="round" stroke-width="2" d="M8 6h13"/><path fill="currentColor" d="M3.125 5.451v2.005h1.159V4H3.253c-.034.219-.127.377-.277.474-.15.097-.381.147-.692.147v.83h.841zm1.167 4.628a1.838 1.838 0 00-.752-.143c-.461 0-.818.107-1.071.321-.254.213-.379.517-.376.911H3.21c0-.141.031-.247.093-.321a.307.307 0 01.248-.11c.071-.004.14.02.195.066a.234.234 0 01.07.18.302.302 0 01-.098.218 1.047 1.047 0 01-.24.175 14.67 14.67 0 01-.458.233c-.358.173-.609.379-.754.616-.145.237-.218.546-.218.927 0 .08.003.16.01.24h2.99v-.877H3.35a.288.288 0 01.068-.135.68.68 0 01.193-.133 4.4 4.4 0 01.415-.177c.301-.114.53-.252.689-.414.159-.162.237-.376.237-.643a.93.93 0 00-.17-.546 1.14 1.14 0 00-.49-.388zm-.002 5.975a2.214 2.214 0 00-.76-.118c-.463 0-.825.107-1.085.323-.26.215-.39.512-.39.892h1.09a.437.437 0 01.1-.305c.067-.073.163-.11.29-.11.103 0 .182.024.237.072a.255.255 0 01.083.203.25.25 0 01-.107.21.48.48 0 01-.293.08h-.12v.77h.08c.16 0 .277.026.352.077.076.052.113.131.113.238 0 .087-.03.155-.09.205a.38.38 0 01-.25.075c-.13 0-.229-.037-.297-.11-.069-.073-.103-.183-.103-.33H2c0 .403.132.711.398.923.265.211.647.317 1.147.317.293 0 .549-.043.767-.13.218-.087.388-.21.508-.37s.18-.347.18-.56a.747.747 0 00-.148-.48c-.098-.123-.255-.22-.472-.29v-.01c.203-.073.35-.168.44-.285a.708.708 0 00.135-.445.793.793 0 00-.172-.508 1.101 1.101 0 00-.493-.334z"/><path stroke="currentColor" stroke-linecap="round" stroke-linejoin="round" stroke-width="2" d="M8 12h13M8 18h13"/></svg>