<svg xmlns="http://www.w3.org/2000/svg" width="1.5em" height="1.5em">
    <g id="tuiIconHandMetal" xmlns="http://www.w3.org/2000/svg">
        <svg x="50%" y="50%" width="1.5em" height="1.5em" overflow="visible" viewBox="0 0 24 24">
            <svg x="-12" y="-12">
                <svg
                    xmlns="http://www.w3.org/2000/svg"
                    class="lucide lucide-hand-metal"
                    width="24"
                    height="24"
                    viewBox="0 0 24 24"
                    fill="none"
                    stroke="currentColor"
                    stroke-width="2"
                    stroke-linecap="round"
                    stroke-linejoin="round"
                >
                    <path d="M18 12.5V10a2 2 0 0 0-2-2a2 2 0 0 0-2 2v1.4" />
                    <path d="M14 11V9a2 2 0 1 0-4 0v2" />
                    <path d="M10 10.5V5a2 2 0 1 0-4 0v9" />
                    <path
                        d="m7 15-1.76-1.76a2 2 0 0 0-2.83 2.82l3.6 3.6C7.5 21.14 9.2 22 12 22h2a8 8 0 0 0 8-8V7a2 2 0 1 0-4 0v5"
                    />
                </svg>
            </svg>
        </svg>
    </g>
</svg>
