<svg xmlns="http://www.w3.org/2000/svg" width="1.5em" height="1.5em">
    <g id="tuiIconClipboardListLarge" xmlns="http://www.w3.org/2000/svg">
        <svg x="50%" y="50%" width="1.5em" height="1.5em" overflow="visible" viewBox="0 0 24 24">
            <svg x="-12" y="-12">
                <svg
                    xmlns="http://www.w3.org/2000/svg"
                    width="24"
                    height="24"
                    viewBox="0 0 24 24"
                    stroke="currentColor"
                    stroke-width="2"
                    stroke-linecap="round"
                    stroke-linejoin="round"
                >
                    <rect x="8" y="2" vector-effect="non-scaling-stroke" width="8" height="4" rx="1" ry="1" />
                    <path
                        vector-effect="non-scaling-stroke"
                        d="M16 4h2a2 2 0 0 1 2 2v14a2 2 0 0 1-2 2H6a2 2 0 0 1-2-2V6a2 2 0 0 1 2-2h2"
                    />
                    <path vector-effect="non-scaling-stroke" d="M12 11h4" />
                    <path vector-effect="non-scaling-stroke" d="M12 16h4" />
                    <path vector-effect="non-scaling-stroke" d="M8 11h.01" />
                    <path vector-effect="non-scaling-stroke" d="M8 16h.01" />
                </svg>
            </svg>
        </svg>
    </g>
</svg>
