<svg xmlns="http://www.w3.org/2000/svg" width="24" height="24" focusable="false"><g id="tuiIconCallTransferLarge" xmlns="http://www.w3.org/2000/svg" transform="translate(-12,-12)"><svg x="50%" y="50%"><svg width="24" height="24" viewBox="0 0 24 24" fill="none" xmlns="http://www.w3.org/2000/svg"><path d="M19 1l4 4-4 4M15 5h8M22 16.92v3a1.998 1.998 0 0 1-2.18 2 19.791 19.791 0 0 1-8.63-3.07 19.5 19.5 0 0 1-6-6 19.79 19.79 0 0 1-3.07-8.67A2 2 0 0 1 4.11 2h3a2 2 0 0 1 2 1.72c.127.96.361 1.903.7 2.81a2 2 0 0 1-.45 2.11L8.09 9.91a16 16 0 0 0 6 6l1.27-1.27a2 2 0 0 1 2.11-.45c.907.339 1.85.574 2.81.7A2 2 0 0 1 22 16.92z" stroke="currentColor" stroke-width="2" stroke-linecap="round" stroke-linejoin="round"/></svg></svg></g></svg>