<svg xmlns="http://www.w3.org/2000/svg" id="tuiIconMaestro" viewBox="0 0 32 32"><path fill="#0AADFC" d="M13.333 15.634a8.325 8.325 0 003.704-6.93c0-2.89-1.47-5.435-3.704-6.93a8.333 8.333 0 110 13.86z" transform="translate(3 8)"/><path fill="#F03727" d="M13.333 1.774a8.325 8.325 0 00-3.703 6.93 8.326 8.326 0 003.703 6.93 8.333 8.333 0 110-13.86z" transform="translate(3 8)"/><path fill="#726ECC" d="M13.333 1.774a8.325 8.325 0 013.704 6.93 8.324 8.324 0 01-3.704 6.93 8.325 8.325 0 01-3.703-6.93c0-2.89 1.47-5.435 3.703-6.93z" transform="translate(3 8)"/></svg>