<svg xmlns="http://www.w3.org/2000/svg" width="1.5em" height="1.5em">
    <g id="tuiIconBath" xmlns="http://www.w3.org/2000/svg">
        <svg x="50%" y="50%" width="1.5em" height="1.5em" overflow="visible" viewBox="0 0 24 24">
            <svg x="-12" y="-12">
                <svg
                    xmlns="http://www.w3.org/2000/svg"
                    class="lucide lucide-bath"
                    width="24"
                    height="24"
                    viewBox="0 0 24 24"
                    fill="none"
                    stroke="currentColor"
                    stroke-width="2"
                    stroke-linecap="round"
                    stroke-linejoin="round"
                >
                    <path
                        d="M9 6 6.5 3.5a1.5 1.5 0 0 0-1-.5C4.683 3 4 3.683 4 4.5V17a2 2 0 0 0 2 2h12a2 2 0 0 0 2-2v-5"
                    />
                    <line x1="10" x2="8" y1="5" y2="7" />
                    <line x1="2" x2="22" y1="12" y2="12" />
                    <line x1="7" x2="7" y1="19" y2="21" />
                    <line x1="17" x2="17" y1="19" y2="21" />
                </svg>
            </svg>
        </svg>
    </g>
</svg>
