<svg xmlns="http://www.w3.org/2000/svg" width="1.5em" height="1.5em">
    <g id="tuiIconLectern" xmlns="http://www.w3.org/2000/svg">
        <svg x="50%" y="50%" width="1.5em" height="1.5em" overflow="visible" viewBox="0 0 24 24">
            <svg x="-12" y="-12">
                <svg
                    xmlns="http://www.w3.org/2000/svg"
                    class="lucide lucide-lectern"
                    width="24"
                    height="24"
                    viewBox="0 0 24 24"
                    fill="none"
                    stroke="currentColor"
                    stroke-width="2"
                    stroke-linecap="round"
                    stroke-linejoin="round"
                >
                    <path
                        d="M16 12h3a2 2 0 0 0 1.902-1.38l1.056-3.333A1 1 0 0 0 21 6H3a1 1 0 0 0-.958 1.287l1.056 3.334A2 2 0 0 0 5 12h3"
                    />
                    <path d="M18 6V3a1 1 0 0 0-1-1h-3" />
                    <rect x="8" y="10" width="8" height="12" rx="1" />
                </svg>
            </svg>
        </svg>
    </g>
</svg>
