<svg xmlns="http://www.w3.org/2000/svg" id="tuiIconBold" fill="none" viewBox="0 0 24 24"><path fill="currentColor" d="M12.578 10.4H7v2h5.578v-2zM7 12.4h6.2v-2H7v2zm6.2 7.6H7.524v2H13.2v-2zM7.466 4h5.112V2H7.466v2zM8 20.476V3.466H6v17.01h2zM7.524 20c.263 0 .476.213.476.476H6C6 21.318 6.682 22 7.524 22v-2zm5.676-7.6a3.8 3.8 0 013.8 3.8h2a5.8 5.8 0 00-5.8-5.8v2zm2.578-5.2a3.2 3.2 0 01-3.2 3.2v2a5.2 5.2 0 005.2-5.2h-2zm2 0a5.2 5.2 0 00-5.2-5.2v2a3.2 3.2 0 013.2 3.2h2zm-.778 9a3.8 3.8 0 01-3.8 3.8v2a5.8 5.8 0 005.8-5.8h-2zM7.466 2C6.656 2 6 2.656 6 3.466h2C8 3.76 7.76 4 7.466 4V2z"/></svg>