<svg xmlns="http://www.w3.org/2000/svg" width="1.5em" height="1.5em">
    <g id="tuiIconFilePenLarge" xmlns="http://www.w3.org/2000/svg">
        <svg x="50%" y="50%" width="1.5em" height="1.5em" overflow="visible" viewBox="0 0 24 24">
            <svg x="-12" y="-12">
                <svg
                    xmlns="http://www.w3.org/2000/svg"
                    width="24"
                    height="24"
                    viewBox="0 0 24 24"
                    stroke="currentColor"
                    stroke-width="2"
                    stroke-linecap="round"
                    stroke-linejoin="round"
                >
                    <path vector-effect="non-scaling-stroke" d="M12.5 22H18a2 2 0 0 0 2-2V7l-5-5H6a2 2 0 0 0-2 2v9.5" />
                    <path vector-effect="non-scaling-stroke" d="M14 2v4a2 2 0 0 0 2 2h4" />
                    <path
                        vector-effect="non-scaling-stroke"
                        d="M13.378 15.626a1 1 0 1 0-3.004-3.004l-5.01 5.012a2 2 0 0 0-.506.854l-.837 2.87a.5.5 0 0 0 .62.62l2.87-.837a2 2 0 0 0 .854-.506z"
                    />
                </svg>
            </svg>
        </svg>
    </g>
</svg>
