<svg xmlns="http://www.w3.org/2000/svg" width="1.5em" height="1.5em">
    <g id="tuiIconQrCodeLarge" xmlns="http://www.w3.org/2000/svg">
        <svg x="50%" y="50%" width="1.5em" height="1.5em" overflow="visible" viewBox="0 0 24 24">
            <svg x="-12" y="-12">
                <svg
                    xmlns="http://www.w3.org/2000/svg"
                    width="24"
                    height="24"
                    viewBox="0 0 24 24"
                    stroke="currentColor"
                    stroke-width="2"
                    stroke-linecap="round"
                    stroke-linejoin="round"
                >
                    <rect x="3" y="3" vector-effect="non-scaling-stroke" width="5" height="5" rx="1" />
                    <rect x="16" y="3" vector-effect="non-scaling-stroke" width="5" height="5" rx="1" />
                    <rect x="3" y="16" vector-effect="non-scaling-stroke" width="5" height="5" rx="1" />
                    <path vector-effect="non-scaling-stroke" d="M21 16h-3a2 2 0 0 0-2 2v3" />
                    <path vector-effect="non-scaling-stroke" d="M21 21v.01" />
                    <path vector-effect="non-scaling-stroke" d="M12 7v3a2 2 0 0 1-2 2H7" />
                    <path vector-effect="non-scaling-stroke" d="M3 12h.01" />
                    <path vector-effect="non-scaling-stroke" d="M12 3h.01" />
                    <path vector-effect="non-scaling-stroke" d="M12 16v.01" />
                    <path vector-effect="non-scaling-stroke" d="M16 12h1" />
                    <path vector-effect="non-scaling-stroke" d="M21 12v.01" />
                    <path vector-effect="non-scaling-stroke" d="M12 21v-1" />
                </svg>
            </svg>
        </svg>
    </g>
</svg>
