<svg xmlns="http://www.w3.org/2000/svg" width="1.5em" height="1.5em">
    <g id="tuiIconWallet" xmlns="http://www.w3.org/2000/svg">
        <svg x="50%" y="50%" width="1.5em" height="1.5em" overflow="visible" viewBox="0 0 24 24">
            <svg x="-12" y="-12">
                <svg
                    xmlns="http://www.w3.org/2000/svg"
                    class="lucide lucide-wallet"
                    width="24"
                    height="24"
                    viewBox="0 0 24 24"
                    fill="none"
                    stroke="currentColor"
                    stroke-width="2"
                    stroke-linecap="round"
                    stroke-linejoin="round"
                >
                    <path
                        d="M19 7V4a1 1 0 0 0-1-1H5a2 2 0 0 0 0 4h15a1 1 0 0 1 1 1v4h-3a2 2 0 0 0 0 4h3a1 1 0 0 0 1-1v-2a1 1 0 0 0-1-1"
                    />
                    <path d="M3 5v14a2 2 0 0 0 2 2h15a1 1 0 0 0 1-1v-4" />
                </svg>
            </svg>
        </svg>
    </g>
</svg>
