<svg xmlns="http://www.w3.org/2000/svg" id="tuiIconTeX" fill="none" viewBox="0 0 24 24"><path stroke="currentColor" stroke-linecap="round" stroke-linejoin="round" stroke-width="2" d="M4 16V8H1h6"/><path stroke="currentColor" stroke-linecap="round" stroke-width="2" d="M9 13h3.667c.184 0 .333-.15.333-.333V12a2 2 0 00-2-2v0a2 2 0 00-2 2v1.784C9 15.008 9.992 16 11.216 16v0c.574 0 1.126-.223 1.54-.621l.244-.236"/><path stroke="currentColor" stroke-linecap="round" stroke-linejoin="round" stroke-width="2" d="M16 8l2.5 4m2.5 4l-2.5-4m0 0L16 16m2.5-4L21 8"/></svg>