<svg xmlns="http://www.w3.org/2000/svg" width="1.5em" height="1.5em">
    <g id="tuiIconFilesLarge" xmlns="http://www.w3.org/2000/svg">
        <svg x="50%" y="50%" width="1.5em" height="1.5em" overflow="visible" viewBox="0 0 24 24">
            <svg x="-12" y="-12">
                <svg
                    xmlns="http://www.w3.org/2000/svg"
                    width="24"
                    height="24"
                    viewBox="0 0 24 24"
                    stroke="currentColor"
                    stroke-width="2"
                    stroke-linecap="round"
                    stroke-linejoin="round"
                >
                    <path vector-effect="non-scaling-stroke" d="M20 7h-3a2 2 0 0 1-2-2V2" />
                    <path
                        vector-effect="non-scaling-stroke"
                        d="M9 18a2 2 0 0 1-2-2V4a2 2 0 0 1 2-2h7l4 4v10a2 2 0 0 1-2 2Z"
                    />
                    <path vector-effect="non-scaling-stroke" d="M3 7.6v12.8A1.6 1.6 0 0 0 4.6 22h9.8" />
                </svg>
            </svg>
        </svg>
    </g>
</svg>
