<svg xmlns="http://www.w3.org/2000/svg" width="1.5em" height="1.5em">
    <g id="tuiIconImagePlay" xmlns="http://www.w3.org/2000/svg">
        <svg x="50%" y="50%" width="1.5em" height="1.5em" overflow="visible" viewBox="0 0 24 24">
            <svg x="-12" y="-12">
                <svg
                    xmlns="http://www.w3.org/2000/svg"
                    class="lucide lucide-image-play"
                    width="24"
                    height="24"
                    viewBox="0 0 24 24"
                    fill="none"
                    stroke="currentColor"
                    stroke-width="2"
                    stroke-linecap="round"
                    stroke-linejoin="round"
                >
                    <path d="m11 16-5 5" />
                    <path d="M11 21H5a2 2 0 0 1-2-2V5a2 2 0 0 1 2-2h14a2 2 0 0 1 2 2v6.5" />
                    <path
                        d="M15.765 22a.5.5 0 0 1-.765-.424V13.38a.5.5 0 0 1 .765-.424l5.878 3.674a1 1 0 0 1 0 1.696z"
                    />
                    <circle cx="9" cy="9" r="2" />
                </svg>
            </svg>
        </svg>
    </g>
</svg>
