<svg xmlns="http://www.w3.org/2000/svg" width="1em" height="1em" focusable="false">
    <g id="tuiIconEyeClosed" xmlns="http://www.w3.org/2000/svg">
        <svg
            x="50%"
            y="50%"
            width="1em"
            height="1em"
            overflow="visible"
            viewBox="0 0 16 16"
            fill="none"
            xmlns="http://www.w3.org/2000/svg"
        >
            <svg x="-8" y="-8">
                <path
                    d="M6.664 3.15C7.102 3.05 7.55 2.999 8 3c4.454 0 7 5 7 5-.386.71-.847 1.378-1.374 1.994m-4.277-.669a1.909 1.909 0 0 1-1.363.596 1.94 1.94 0 0 1-1.384-.548 1.873 1.873 0 0 1-.558-1.36 1.847 1.847 0 0 1 .607-1.338m5.129 5.038A6.483 6.483 0 0 1 8 13c-4.455 0-7-5-7-5a11.59 11.59 0 0 1 3.22-3.712l7.56 7.425zM1 1l13.5 13.5"
                    stroke="currentColor"
                    stroke-width="2"
                    stroke-linecap="round"
                    stroke-linejoin="round"
                />
            </svg>
        </svg>
    </g>
</svg>
