<svg xmlns="http://www.w3.org/2000/svg" width="16" height="16" focusable="false"><g id="tuiIconCopy" xmlns="http://www.w3.org/2000/svg" transform="translate(-8,-8)"><svg x="50%" y="50%"><svg width="16" height="16" viewBox="0 0 16 16" fill="none" xmlns="http://www.w3.org/2000/svg"><path d="M13.615 6h-6.23C6.62 6 6 6.62 6 7.385v6.23C6 14.38 6.62 15 7.385 15h6.23C14.38 15 15 14.38 15 13.615v-6.23C15 6.62 14.38 6 13.615 6z" stroke="currentColor" stroke-width="2" stroke-linecap="round" stroke-linejoin="round"/><path d="M3.077 10h-.692A1.385 1.385 0 0 1 1 8.615v-6.23A1.385 1.385 0 0 1 2.385 1h6.23A1.385 1.385 0 0 1 10 2.385v.692" stroke="currentColor" stroke-width="2" stroke-linecap="round" stroke-linejoin="round"/></svg></svg></g></svg>