<svg xmlns="http://www.w3.org/2000/svg" width="24" height="24" focusable="false"><g id="tuiIconDragLarge" xmlns="http://www.w3.org/2000/svg" transform="translate(-12,-12)"><svg x="50%" y="50%"><svg width="24" height="24" viewBox="0 0 24 24" fill="none" xmlns="http://www.w3.org/2000/svg"><path d="M9 12a1 1 0 1 0-2 0 1 1 0 0 0 2 0zM17 12a1 1 0 1 0-2 0 1 1 0 0 0 2 0zM9 5a1 1 0 1 0-2 0 1 1 0 0 0 2 0zM17 5a1 1 0 1 0-2 0 1 1 0 0 0 2 0zM9 19a1 1 0 1 0-2 0 1 1 0 0 0 2 0zM17 19a1 1 0 1 0-2 0 1 1 0 0 0 2 0z" stroke="currentColor" stroke-width="2" stroke-linecap="round" stroke-linejoin="round"/></svg></svg></g></svg>