<svg xmlns="http://www.w3.org/2000/svg" width="1.5em" height="1.5em">
    <g id="tuiIconProjectorLarge" xmlns="http://www.w3.org/2000/svg">
        <svg x="50%" y="50%" width="1.5em" height="1.5em" overflow="visible" viewBox="0 0 24 24">
            <svg x="-12" y="-12">
                <svg
                    xmlns="http://www.w3.org/2000/svg"
                    width="24"
                    height="24"
                    viewBox="0 0 24 24"
                    stroke="currentColor"
                    stroke-width="2"
                    stroke-linecap="round"
                    stroke-linejoin="round"
                >
                    <path vector-effect="non-scaling-stroke" d="M5 7 3 5" />
                    <path vector-effect="non-scaling-stroke" d="M9 6V3" />
                    <path vector-effect="non-scaling-stroke" d="m13 7 2-2" />
                    <circle vector-effect="non-scaling-stroke" cx="9" cy="13" r="3" />
                    <path
                        vector-effect="non-scaling-stroke"
                        d="M11.83 12H20a2 2 0 0 1 2 2v4a2 2 0 0 1-2 2H4a2 2 0 0 1-2-2v-4a2 2 0 0 1 2-2h2.17"
                    />
                    <path vector-effect="non-scaling-stroke" d="M16 16h2" />
                </svg>
            </svg>
        </svg>
    </g>
</svg>
