<svg xmlns="http://www.w3.org/2000/svg" width="16" height="16" focusable="false"><g id="tuiIconLink" xmlns="http://www.w3.org/2000/svg" transform="translate(-8,-8)"><svg x="50%" y="50%"><svg width="16" height="16" viewBox="0 0 16 16" fill="none" xmlns="http://www.w3.org/2000/svg"><path d="M7 8.605c.288.4.655.73 1.076.97a3.236 3.236 0 0 0 2.776.206c.45-.175.859-.447 1.198-.8l2.01-2.087c.61-.656.947-1.534.94-2.446a3.547 3.547 0 0 0-.98-2.43A3.289 3.289 0 0 0 11.68 1a3.284 3.284 0 0 0-2.356.976l-1.152 1.19" stroke="currentColor" stroke-width="2" stroke-linecap="round" stroke-linejoin="round"/><path d="M9 7.395a3.39 3.39 0 0 0-1.076-.97 3.235 3.235 0 0 0-2.776-.206c-.45.175-.859.447-1.198.8L1.94 9.106A3.55 3.55 0 0 0 1 11.552c.008.912.36 1.784.98 2.43.622.644 1.462 1.01 2.34 1.018a3.284 3.284 0 0 0 2.356-.976l1.145-1.19" stroke="currentColor" stroke-width="2" stroke-linecap="round" stroke-linejoin="round"/></svg></svg></g></svg>