<svg xmlns="http://www.w3.org/2000/svg" width="1.5em" height="1.5em"><g
        id="tuiIconTrash2Large"
        xmlns="http://www.w3.org/2000/svg"
    >
            <svg x="50%" y="50%" width="1.5em" height="1.5em" overflow="visible" viewBox="0 0 24 24">
                <svg x="-12" y="-12"><svg
                    xmlns="http://www.w3.org/2000/svg"
                    width="24"
                    height="24"
                    viewBox="0 0 24 24"
                    stroke="currentColor"
                    stroke-width="2"
                    stroke-linecap="round"
                    stroke-linejoin="round"
                ><polyline points="3 6 5 6 21 6" /><path
                        d="M19 6v14a2 2 0 0 1-2 2H7a2 2 0 0 1-2-2V6m3 0V4a2 2 0 0 1 2-2h4a2 2 0 0 1 2 2v2"
                    /><line x1="10" y1="11" x2="10" y2="17" /><line x1="14" y1="11" x2="14" y2="17" /></svg></svg>
            </svg>
        </g></svg>
