<svg xmlns="http://www.w3.org/2000/svg" width="1.5em" height="1.5em"><g
        id="tuiIconWatchLarge"
        xmlns="http://www.w3.org/2000/svg"
    >
            <svg x="50%" y="50%" width="1.5em" height="1.5em" overflow="visible" viewBox="0 0 24 24">
                <svg x="-12" y="-12"><svg
                    xmlns="http://www.w3.org/2000/svg"
                    width="24"
                    height="24"
                    viewBox="0 0 24 24"
                    stroke="currentColor"
                    stroke-width="2"
                    stroke-linecap="round"
                    stroke-linejoin="round"
                ><circle cx="12" cy="12" r="7" /><polyline points="12 9 12 12 13.5 13.5" /><path
                        d="M16.51 17.35l-.35 3.83a2 2 0 0 1-2 1.82H9.83a2 2 0 0 1-2-1.82l-.35-3.83m.01-10.7l.35-3.83A2 2 0 0 1 9.83 1h4.35a2 2 0 0 1 2 1.82l.35 3.83"
                    /></svg></svg>
            </svg>
        </g></svg>
