<svg xmlns="http://www.w3.org/2000/svg" width="1.5em" height="1.5em">
    <g id="tuiIconServerOff" xmlns="http://www.w3.org/2000/svg">
        <svg x="50%" y="50%" width="1.5em" height="1.5em" overflow="visible" viewBox="0 0 24 24">
            <svg x="-12" y="-12">
                <svg
                    xmlns="http://www.w3.org/2000/svg"
                    class="lucide lucide-server-off"
                    width="24"
                    height="24"
                    viewBox="0 0 24 24"
                    fill="none"
                    stroke="currentColor"
                    stroke-width="2"
                    stroke-linecap="round"
                    stroke-linejoin="round"
                >
                    <path d="M7 2h13a2 2 0 0 1 2 2v4a2 2 0 0 1-2 2h-5" />
                    <path d="M10 10 2.5 2.5C2 2 2 2.5 2 5v3a2 2 0 0 0 2 2h6z" />
                    <path d="M22 17v-1a2 2 0 0 0-2-2h-1" />
                    <path d="M4 14a2 2 0 0 0-2 2v4a2 2 0 0 0 2 2h16.5l1-.5.5.5-8-8H4z" />
                    <path d="M6 18h.01" />
                    <path d="m2 2 20 20" />
                </svg>
            </svg>
        </svg>
    </g>
</svg>
