<svg xmlns="http://www.w3.org/2000/svg" width="1.5em" height="1.5em">
    <g id="tuiIconGroup" xmlns="http://www.w3.org/2000/svg">
        <svg x="50%" y="50%" width="1.5em" height="1.5em" overflow="visible" viewBox="0 0 24 24">
            <svg x="-12" y="-12">
                <svg
                    xmlns="http://www.w3.org/2000/svg"
                    class="lucide lucide-group"
                    width="24"
                    height="24"
                    viewBox="0 0 24 24"
                    fill="none"
                    stroke="currentColor"
                    stroke-width="2"
                    stroke-linecap="round"
                    stroke-linejoin="round"
                >
                    <path d="M3 7V5c0-1.1.9-2 2-2h2" />
                    <path d="M17 3h2c1.1 0 2 .9 2 2v2" />
                    <path d="M21 17v2c0 1.1-.9 2-2 2h-2" />
                    <path d="M7 21H5c-1.1 0-2-.9-2-2v-2" />
                    <rect x="7" y="7" width="7" height="5" rx="1" />
                    <rect x="10" y="12" width="7" height="5" rx="1" />
                </svg>
            </svg>
        </svg>
    </g>
</svg>
