<svg xmlns="http://www.w3.org/2000/svg" width="1.5em" height="1.5em">
    <g id="tuiIconBoneLarge" xmlns="http://www.w3.org/2000/svg">
        <svg x="50%" y="50%" width="1.5em" height="1.5em" overflow="visible" viewBox="0 0 24 24">
            <svg x="-12" y="-12">
                <svg
                    xmlns="http://www.w3.org/2000/svg"
                    width="24"
                    height="24"
                    viewBox="0 0 24 24"
                    stroke="currentColor"
                    stroke-width="2"
                    stroke-linecap="round"
                    stroke-linejoin="round"
                >
                    <path
                        vector-effect="non-scaling-stroke"
                        d="M17 10c.7-.7 1.69 0 2.5 0a2.5 2.5 0 1 0 0-5 .5.5 0 0 1-.5-.5 2.5 2.5 0 1 0-5 0c0 .81.7 1.8 0 2.5l-7 7c-.7.7-1.69 0-2.5 0a2.5 2.5 0 0 0 0 5c.28 0 .5.22.5.5a2.5 2.5 0 1 0 5 0c0-.81-.7-1.8 0-2.5Z"
                    />
                </svg>
            </svg>
        </svg>
    </g>
</svg>
