<svg xmlns="http://www.w3.org/2000/svg" width="1.5em" height="1.5em">
    <g id="tuiIconPopcornLarge" xmlns="http://www.w3.org/2000/svg">
        <svg x="50%" y="50%" width="1.5em" height="1.5em" overflow="visible" viewBox="0 0 24 24">
            <svg x="-12" y="-12">
                <svg
                    xmlns="http://www.w3.org/2000/svg"
                    width="24"
                    height="24"
                    viewBox="0 0 24 24"
                    stroke="currentColor"
                    stroke-width="2"
                    stroke-linecap="round"
                    stroke-linejoin="round"
                >
                    <path
                        vector-effect="non-scaling-stroke"
                        d="M18 8a2 2 0 0 0 0-4 2 2 0 0 0-4 0 2 2 0 0 0-4 0 2 2 0 0 0-4 0 2 2 0 0 0 0 4"
                    />
                    <path vector-effect="non-scaling-stroke" d="M10 22 9 8" />
                    <path vector-effect="non-scaling-stroke" d="m14 22 1-14" />
                    <path
                        vector-effect="non-scaling-stroke"
                        d="M20 8c.5 0 .9.4.8 1l-2.6 12c-.1.5-.7 1-1.2 1H7c-.6 0-1.1-.4-1.2-1L3.2 9c-.1-.6.3-1 .8-1Z"
                    />
                </svg>
            </svg>
        </svg>
    </g>
</svg>
