<svg xmlns="http://www.w3.org/2000/svg" width="1.5em" height="1.5em">
    <g id="tuiIconTableRowsSplit" xmlns="http://www.w3.org/2000/svg">
        <svg x="50%" y="50%" width="1.5em" height="1.5em" overflow="visible" viewBox="0 0 24 24">
            <svg x="-12" y="-12">
                <svg
                    xmlns="http://www.w3.org/2000/svg"
                    class="lucide lucide-table-rows-split"
                    width="24"
                    height="24"
                    viewBox="0 0 24 24"
                    fill="none"
                    stroke="currentColor"
                    stroke-width="2"
                    stroke-linecap="round"
                    stroke-linejoin="round"
                >
                    <path d="M14 10h2" />
                    <path d="M15 22v-8" />
                    <path d="M15 2v4" />
                    <path d="M2 10h2" />
                    <path d="M20 10h2" />
                    <path d="M3 19h18" />
                    <path d="M3 22v-6a2 2 135 0 1 2-2h14a2 2 45 0 1 2 2v6" />
                    <path d="M3 2v2a2 2 45 0 0 2 2h14a2 2 135 0 0 2-2V2" />
                    <path d="M8 10h2" />
                    <path d="M9 22v-8" />
                    <path d="M9 2v4" />
                </svg>
            </svg>
        </svg>
    </g>
</svg>
