<svg xmlns="http://www.w3.org/2000/svg" width="1.5em" height="1.5em">
    <g id="tuiIconMessageSquareHeart" xmlns="http://www.w3.org/2000/svg">
        <svg x="50%" y="50%" width="1.5em" height="1.5em" overflow="visible" viewBox="0 0 24 24">
            <svg x="-12" y="-12">
                <svg
                    xmlns="http://www.w3.org/2000/svg"
                    class="lucide lucide-message-square-heart"
                    width="24"
                    height="24"
                    viewBox="0 0 24 24"
                    fill="none"
                    stroke="currentColor"
                    stroke-width="2"
                    stroke-linecap="round"
                    stroke-linejoin="round"
                >
                    <path d="M21 15a2 2 0 0 1-2 2H7l-4 4V5a2 2 0 0 1 2-2h14a2 2 0 0 1 2 2z" />
                    <path
                        d="M14.8 7.5a1.84 1.84 0 0 0-2.6 0l-.2.3-.3-.3a1.84 1.84 0 1 0-2.4 2.8L12 13l2.7-2.7c.9-.9.8-2.1.1-2.8"
                    />
                </svg>
            </svg>
        </svg>
    </g>
</svg>
