<svg xmlns="http://www.w3.org/2000/svg" width="1.5em" height="1.5em">
    <g id="tuiIconFolderLockLarge" xmlns="http://www.w3.org/2000/svg">
        <svg x="50%" y="50%" width="1.5em" height="1.5em" overflow="visible" viewBox="0 0 24 24">
            <svg x="-12" y="-12">
                <svg
                    xmlns="http://www.w3.org/2000/svg"
                    width="24"
                    height="24"
                    viewBox="0 0 24 24"
                    stroke="currentColor"
                    stroke-width="2"
                    stroke-linecap="round"
                    stroke-linejoin="round"
                >
                    <rect x="14" y="17" vector-effect="non-scaling-stroke" width="8" height="5" rx="1" />
                    <path
                        vector-effect="non-scaling-stroke"
                        d="M10 20H4a2 2 0 0 1-2-2V5a2 2 0 0 1 2-2h3.9a2 2 0 0 1 1.69.9l.81 1.2a2 2 0 0 0 1.67.9H20a2 2 0 0 1 2 2v2.5"
                    />
                    <path vector-effect="non-scaling-stroke" d="M20 17v-2a2 2 0 1 0-4 0v2" />
                </svg>
            </svg>
        </svg>
    </g>
</svg>
