<svg xmlns="http://www.w3.org/2000/svg" width="1.5em" height="1.5em">
    <g id="tuiIconFoldersLarge" xmlns="http://www.w3.org/2000/svg">
        <svg x="50%" y="50%" width="1.5em" height="1.5em" overflow="visible" viewBox="0 0 24 24">
            <svg x="-12" y="-12">
                <svg
                    xmlns="http://www.w3.org/2000/svg"
                    width="24"
                    height="24"
                    viewBox="0 0 24 24"
                    stroke="currentColor"
                    stroke-width="2"
                    stroke-linecap="round"
                    stroke-linejoin="round"
                >
                    <path
                        vector-effect="non-scaling-stroke"
                        d="M20 17a2 2 0 0 0 2-2V9a2 2 0 0 0-2-2h-3.9a2 2 0 0 1-1.69-.9l-.81-1.2a2 2 0 0 0-1.67-.9H8a2 2 0 0 0-2 2v9a2 2 0 0 0 2 2Z"
                    />
                    <path vector-effect="non-scaling-stroke" d="M2 8v11a2 2 0 0 0 2 2h14" />
                </svg>
            </svg>
        </svg>
    </g>
</svg>
