<svg xmlns="http://www.w3.org/2000/svg" width="1.5em" height="1.5em">
    <g id="tuiIconChurch" xmlns="http://www.w3.org/2000/svg">
        <svg x="50%" y="50%" width="1.5em" height="1.5em" overflow="visible" viewBox="0 0 24 24">
            <svg x="-12" y="-12">
                <svg
                    xmlns="http://www.w3.org/2000/svg"
                    class="lucide lucide-church"
                    width="24"
                    height="24"
                    viewBox="0 0 24 24"
                    fill="none"
                    stroke="currentColor"
                    stroke-width="2"
                    stroke-linecap="round"
                    stroke-linejoin="round"
                >
                    <path d="m18 7 4 2v11a2 2 0 0 1-2 2H4a2 2 0 0 1-2-2V9l4-2" />
                    <path d="M14 22v-4a2 2 0 0 0-2-2a2 2 0 0 0-2 2v4" />
                    <path d="M18 22V5l-6-3-6 3v17" />
                    <path d="M12 7v5" />
                    <path d="M10 9h4" />
                </svg>
            </svg>
        </svg>
    </g>
</svg>
