<svg xmlns="http://www.w3.org/2000/svg" width="1.5em" height="1.5em">
    <g id="tuiIconAmpersands" xmlns="http://www.w3.org/2000/svg">
        <svg x="50%" y="50%" width="1.5em" height="1.5em" overflow="visible" viewBox="0 0 24 24">
            <svg x="-12" y="-12">
                <svg
                    xmlns="http://www.w3.org/2000/svg"
                    class="lucide lucide-ampersands"
                    width="24"
                    height="24"
                    viewBox="0 0 24 24"
                    fill="none"
                    stroke="currentColor"
                    stroke-width="2"
                    stroke-linecap="round"
                    stroke-linejoin="round"
                >
                    <path d="M10 17c-5-3-7-7-7-9a2 2 0 0 1 4 0c0 2.5-5 2.5-5 6 0 1.7 1.3 3 3 3 2.8 0 5-2.2 5-5" />
                    <path d="M22 17c-5-3-7-7-7-9a2 2 0 0 1 4 0c0 2.5-5 2.5-5 6 0 1.7 1.3 3 3 3 2.8 0 5-2.2 5-5" />
                </svg>
            </svg>
        </svg>
    </g>
</svg>
