<svg xmlns="http://www.w3.org/2000/svg" id="tuiIconCancel" viewBox="0 0 16 16"><path fill="currentColor" d="M6.855 1.232a2.333 2.333 0 013.14.823l.003.004 5.647 9.427.008.014a2.334 2.334 0 01-1.995 3.5H2.342a2.334 2.334 0 01-1.995-3.5l.008-.014L6.002 2.06l.858.514-.855-.518c.208-.343.5-.627.85-.823zm.861 1.858l-5.64 9.415a.334.334 0 00.285.495h11.278a.334.334 0 00.284-.495L8.284 3.09a.333.333 0 00-.568 0zM8 5a1 1 0 011 1v2.667a1 1 0 11-2 0V6a1 1 0 011-1zm0 5.333a1 1 0 100 2h.007a1 1 0 100-2H8z"/></svg>