<svg xmlns="http://www.w3.org/2000/svg" width="1.5em" height="1.5em">
    <g id="tuiIconSpellCheck2Large" xmlns="http://www.w3.org/2000/svg">
        <svg x="50%" y="50%" width="1.5em" height="1.5em" overflow="visible" viewBox="0 0 24 24">
            <svg x="-12" y="-12">
                <svg
                    xmlns="http://www.w3.org/2000/svg"
                    width="24"
                    height="24"
                    viewBox="0 0 24 24"
                    stroke="currentColor"
                    stroke-width="2"
                    stroke-linecap="round"
                    stroke-linejoin="round"
                >
                    <path vector-effect="non-scaling-stroke" d="m6 16 6-12 6 12" />
                    <path vector-effect="non-scaling-stroke" d="M8 12h8" />
                    <path
                        vector-effect="non-scaling-stroke"
                        d="M4 21c1.1 0 1.1-1 2.3-1s1.1 1 2.3 1c1.1 0 1.1-1 2.3-1 1.1 0 1.1 1 2.3 1 1.1 0 1.1-1 2.3-1 1.1 0 1.1 1 2.3 1 1.1 0 1.1-1 2.3-1"
                    />
                </svg>
            </svg>
        </svg>
    </g>
</svg>
