<svg xmlns="http://www.w3.org/2000/svg" width="1.5em" height="1.5em">
    <g id="tuiIconEarthLock" xmlns="http://www.w3.org/2000/svg">
        <svg x="50%" y="50%" width="1.5em" height="1.5em" overflow="visible" viewBox="0 0 24 24">
            <svg x="-12" y="-12">
                <svg
                    xmlns="http://www.w3.org/2000/svg"
                    class="lucide lucide-earth-lock"
                    width="24"
                    height="24"
                    viewBox="0 0 24 24"
                    fill="none"
                    stroke="currentColor"
                    stroke-width="2"
                    stroke-linecap="round"
                    stroke-linejoin="round"
                >
                    <path d="M7 3.34V5a3 3 0 0 0 3 3" />
                    <path d="M11 21.95V18a2 2 0 0 0-2-2 2 2 0 0 1-2-2v-1a2 2 0 0 0-2-2H2.05" />
                    <path d="M21.54 15H17a2 2 0 0 0-2 2v4.54" />
                    <path d="M12 2a10 10 0 1 0 9.54 13" />
                    <path d="M20 6V4a2 2 0 1 0-4 0v2" />
                    <rect x="14" y="6" width="8" height="5" rx="1" />
                </svg>
            </svg>
        </svg>
    </g>
</svg>
