<svg xmlns="http://www.w3.org/2000/svg" width="1.5em" height="1.5em" focusable="false">
    <g id="tuiIconMicOffLarge" xmlns="http://www.w3.org/2000/svg">
        <svg x="50%" y="50%" width="1.5em" height="1.5em" overflow="visible" viewBox="0 0 24 24" fill="none">
            <svg x="-12" y="-12" xmlns="http://www.w3.org/2000/svg">
                <g
                    clip-path="url(#a)"
                    stroke="currentColor"
                    stroke-width="2"
                    stroke-linecap="round"
                    stroke-linejoin="round"
                >
                    <path d="M1 1l22 22M15 9.34V4a3 3 0 0 0-5.94-.6M9 9v3a3 3 0 0 0 5.12 2.12L9 9z" />
                    <path d="M17 16.95A7 7 0 0 1 5 12v-2m14 0v2c0 .412-.037.824-.11 1.23M12 19v4M8 23h8" />
                </g>
                <defs>
                    <clipPath>
                        <path fill="#fff" d="M0 0h24v24H0z" />
                    </clipPath>
                </defs>
            </svg>
        </svg>
    </g>
</svg>
