<svg xmlns="http://www.w3.org/2000/svg" width="1.5em" height="1.5em">
    <g id="tuiIconLoaderPinwheelLarge" xmlns="http://www.w3.org/2000/svg">
        <svg x="50%" y="50%" width="1.5em" height="1.5em" overflow="visible" viewBox="0 0 24 24">
            <svg x="-12" y="-12">
                <svg
                    xmlns="http://www.w3.org/2000/svg"
                    width="24"
                    height="24"
                    viewBox="0 0 24 24"
                    stroke="currentColor"
                    stroke-width="2"
                    stroke-linecap="round"
                    stroke-linejoin="round"
                >
                    <path vector-effect="non-scaling-stroke" d="M2 12c0-2.8 2.2-5 5-5s5 2.2 5 5 2.2 5 5 5 5-2.2 5-5" />
                    <path vector-effect="non-scaling-stroke" d="M7 20.7a1 1 0 1 1 5-8.7 1 1 0 1 0 5-8.6" />
                    <path vector-effect="non-scaling-stroke" d="M7 3.3a1 1 0 1 1 5 8.6 1 1 0 1 0 5 8.6" />
                    <circle vector-effect="non-scaling-stroke" cx="12" cy="12" r="10" />
                </svg>
            </svg>
        </svg>
    </g>
</svg>
