<svg xmlns="http://www.w3.org/2000/svg" width="24" height="24">
    <g id="tuiIconNotificationOffLarge"
        xmlns="http://www.w3.org/2000/svg" transform="translate(-12,-12)">
        <svg x="50%" y="50%">
            <svg width="24" height="24" viewBox="0 0 24 24" fill="none"
                xmlns="http://www.w3.org/2000/svg">
                <path fill-rule="evenodd" clip-rule="evenodd" d="M3 19V17.5278L5 15.5833V10.75C5 9.68657 5.25273 8.66792 5.71032 7.75726L2.3344 4.74631C1.92223 4.3787 1.88611 3.74656 2.25371 3.3344C2.62132 2.92223 3.25346 2.88611 3.66562 3.25371L22.1656 19.7537C22.5778 20.1213 22.6139 20.7535 22.2463 21.1656C21.8787 21.5778 21.2466 21.6139 20.8344 21.2463L18.3158 19H3ZM19 14.3249L8.4256 4.89365C8.912 4.61357 9.43925 4.38792 10 4.22639V3.94444C10 2.87056 10.8954 2 12 2C13.1046 2 14 2.87056 14 3.94444V4.22639C16.97 5.08194 19 7.73611 19 10.75V14.3249ZM14 20C14 21.1046 13.1046 22 12 22C10.8954 22 10 21.1046 10 20H14Z" fill="currentColor"/>
            </svg>
        </svg>
    </g>
</svg>