<svg xmlns="http://www.w3.org/2000/svg" width="1.5em" height="1.5em">
    <g id="tuiIconCastleLarge" xmlns="http://www.w3.org/2000/svg">
        <svg x="50%" y="50%" width="1.5em" height="1.5em" overflow="visible" viewBox="0 0 24 24">
            <svg x="-12" y="-12">
                <svg
                    xmlns="http://www.w3.org/2000/svg"
                    width="24"
                    height="24"
                    viewBox="0 0 24 24"
                    stroke="currentColor"
                    stroke-width="2"
                    stroke-linecap="round"
                    stroke-linejoin="round"
                >
                    <path vector-effect="non-scaling-stroke" d="M22 20v-9H2v9a2 2 0 0 0 2 2h16a2 2 0 0 0 2-2Z" />
                    <path vector-effect="non-scaling-stroke" d="M18 11V4H6v7" />
                    <path vector-effect="non-scaling-stroke" d="M15 22v-4a3 3 0 0 0-3-3a3 3 0 0 0-3 3v4" />
                    <path vector-effect="non-scaling-stroke" d="M22 11V9" />
                    <path vector-effect="non-scaling-stroke" d="M2 11V9" />
                    <path vector-effect="non-scaling-stroke" d="M6 4V2" />
                    <path vector-effect="non-scaling-stroke" d="M18 4V2" />
                    <path vector-effect="non-scaling-stroke" d="M10 4V2" />
                    <path vector-effect="non-scaling-stroke" d="M14 4V2" />
                </svg>
            </svg>
        </svg>
    </g>
</svg>
