<svg xmlns="http://www.w3.org/2000/svg" width="16" height="16">
    <g id="tuiIconNotificationOff"
        xmlns="http://www.w3.org/2000/svg" transform="translate(-8,-8)">
        <svg x="50%" y="50%">
            <svg width="16" height="16" viewBox="0 0 16 16" fill="none"
                xmlns="http://www.w3.org/2000/svg">
                <path fill-rule="evenodd" clip-rule="evenodd" d="M11.4081 13L13.8206 15.2338C14.2258 15.609 14.8585 15.5847 15.2338 15.1794C15.609 14.7742 15.5847 14.1415 15.1794 13.7662L1.67941 1.26624C1.27417 0.891017 0.641471 0.915352 0.266244 1.3206C-0.108983 1.72584 -0.0846483 2.35854 0.320597 2.73377L3.12469 5.33015C3.10238 5.52002 3.09091 5.71322 3.09091 5.90909V9.75L2 11.5V13H11.4081ZM12.9091 5.90909V8.95145L5.2157 1.86541C5.74465 1.50051 6.34872 1.23671 7 1.10193V1C7 0.447715 7.44772 0 8 0C8.55228 0 9 0.447716 9 1V1.10193C11.2317 1.56377 12.9091 3.54054 12.9091 5.90909ZM10 14C10 15.1046 9.10457 16 8 16C6.89543 16 6 15.1046 6 14H10Z" fill="currentColor"/>
            </svg>
        </svg>
    </g>
</svg>