<svg xmlns="http://www.w3.org/2000/svg" width="1.5em" height="1.5em" focusable="false">
    <g id="tuiIconCallInLarge" xmlns="http://www.w3.org/2000/svg">
        <svg x="50%" y="50%" width="1.5em" height="1.5em" overflow="visible" viewBox="0 0 24 24" fill="none">
            <svg x="-12" y="-12" xmlns="http://www.w3.org/2000/svg">
                <path
                    d="M15.888 3v6h6M22.888 2l-7 7M21.888 17.92v3a2 2 0 0 1-2.18 2 19.791 19.791 0 0 1-8.63-3.07 19.5 19.5 0 0 1-6-6 19.79 19.79 0 0 1-3.07-8.67A2 2 0 0 1 3.998 3h3a2 2 0 0 1 2 1.72c.127.96.362 1.903.7 2.81a2 2 0 0 1-.45 2.11l-1.27 1.27a16 16 0 0 0 6 6l1.27-1.27a2 2 0 0 1 2.11-.45c.907.339 1.85.574 2.81.7a2 2 0 0 1 1.72 2.03z"
                    stroke="currentColor"
                    stroke-width="2"
                    stroke-linecap="round"
                    stroke-linejoin="round"
                />
            </svg>
        </svg>
    </g>
</svg>
