<svg xmlns="http://www.w3.org/2000/svg" width="1.5em" height="1.5em">
    <g id="tuiIconTurtleLarge" xmlns="http://www.w3.org/2000/svg">
        <svg x="50%" y="50%" width="1.5em" height="1.5em" overflow="visible" viewBox="0 0 24 24">
            <svg x="-12" y="-12">
                <svg
                    xmlns="http://www.w3.org/2000/svg"
                    width="24"
                    height="24"
                    viewBox="0 0 24 24"
                    stroke="currentColor"
                    stroke-width="2"
                    stroke-linecap="round"
                    stroke-linejoin="round"
                >
                    <path
                        vector-effect="non-scaling-stroke"
                        d="m12 10 2 4v3a1 1 0 0 0 1 1h2a1 1 0 0 0 1-1v-3a8 8 0 1 0-16 0v3a1 1 0 0 0 1 1h2a1 1 0 0 0 1-1v-3l2-4h4Z"
                    />
                    <path vector-effect="non-scaling-stroke" d="M4.82 7.9 8 10" />
                    <path vector-effect="non-scaling-stroke" d="M15.18 7.9 12 10" />
                    <path vector-effect="non-scaling-stroke" d="M16.93 10H20a2 2 0 0 1 0 4H2" />
                </svg>
            </svg>
        </svg>
    </g>
</svg>
