<svg xmlns="http://www.w3.org/2000/svg" width="1.5em" height="1.5em">
    <g id="tuiIconVibrateOffLarge" xmlns="http://www.w3.org/2000/svg">
        <svg x="50%" y="50%" width="1.5em" height="1.5em" overflow="visible" viewBox="0 0 24 24">
            <svg x="-12" y="-12">
                <svg
                    xmlns="http://www.w3.org/2000/svg"
                    width="24"
                    height="24"
                    viewBox="0 0 24 24"
                    stroke="currentColor"
                    stroke-width="2"
                    stroke-linecap="round"
                    stroke-linejoin="round"
                >
                    <path vector-effect="non-scaling-stroke" d="m2 8 2 2-2 2 2 2-2 2" />
                    <path vector-effect="non-scaling-stroke" d="m22 8-2 2 2 2-2 2 2 2" />
                    <path vector-effect="non-scaling-stroke" d="M8 8v10c0 .55.45 1 1 1h6c.55 0 1-.45 1-1v-2" />
                    <path vector-effect="non-scaling-stroke" d="M16 10.34V6c0-.55-.45-1-1-1h-4.34" />
                    <line vector-effect="non-scaling-stroke" x1="2" x2="22" y1="2" y2="22" />
                </svg>
            </svg>
        </svg>
    </g>
</svg>
