<svg xmlns="http://www.w3.org/2000/svg" width="1.5em" height="1.5em">
    <g id="tuiIconRotate3dLarge" xmlns="http://www.w3.org/2000/svg">
        <svg x="50%" y="50%" width="1.5em" height="1.5em" overflow="visible" viewBox="0 0 24 24">
            <svg x="-12" y="-12">
                <svg
                    xmlns="http://www.w3.org/2000/svg"
                    width="24"
                    height="24"
                    viewBox="0 0 24 24"
                    stroke="currentColor"
                    stroke-width="2"
                    stroke-linecap="round"
                    stroke-linejoin="round"
                >
                    <path
                        vector-effect="non-scaling-stroke"
                        d="M16.466 7.5C15.643 4.237 13.952 2 12 2 9.239 2 7 6.477 7 12s2.239 10 5 10c.342 0 .677-.069 1-.2"
                    />
                    <path vector-effect="non-scaling-stroke" d="m15.194 13.707 3.814 1.86-1.86 3.814" />
                    <path
                        vector-effect="non-scaling-stroke"
                        d="M19 15.57c-1.804.885-4.274 1.43-7 1.43-5.523 0-10-2.239-10-5s4.477-5 10-5c4.838 0 8.873 1.718 9.8 4"
                    />
                </svg>
            </svg>
        </svg>
    </g>
</svg>
