<svg xmlns="http://www.w3.org/2000/svg" width="1.5em" height="1.5em" focusable="false">
    <g id="tuiIconFlagLarge" xmlns="http://www.w3.org/2000/svg">
        <svg x="50%" y="50%" width="1.5em" height="1.5em" overflow="visible" viewBox="0 0 24 24" fill="none">
            <svg x="-12" y="-12" xmlns="http://www.w3.org/2000/svg">
                <path
                    d="M3 15V3c0-.3.1-.5.3-.7.2-.2.6-.5 1.2-.7C5.4 1.2 6.6 1 8 1s2.4.3 4.4 1.1c1.7.7 2.5.9 3.6.9 1.2 0 2.1-.2 2.8-.4.3-.1.5-.3.5-.3.6-.6 1.7-.2 1.7.7v12c0 .3-.1.5-.3.7-.2.2-.6.5-1.2.7-.9.4-2.1.6-3.5.6s-2.4-.3-4.4-1.1C9.9 15.2 9.1 15 8 15c-1.2 0-2.1.2-2.8.4-.1 0-.2.1-.2.1V22c0 .6-.4 1-1 1s-1-.4-1-1v-7zm5-2c1.4 0 2.4.3 4.4 1.1 1.8.7 2.5.9 3.6.9 1.2 0 2.1-.2 2.8-.4.1 0 .2-.1.2-.1V4.6c-.8.3-1.8.4-3 .4-1.4 0-2.4-.3-4.4-1.1C9.9 3.2 9.1 3 8 3c-1.2 0-2.1.2-2.8.4 0 .1-.1.1-.2.1v9.9c.8-.3 1.8-.4 3-.4z"
                    fill="currentColor"
                />
            </svg>
        </svg>
    </g>
</svg>
