<svg xmlns="http://www.w3.org/2000/svg" width="1.5em" height="1.5em">
    <g id="tuiIconScanFaceLarge" xmlns="http://www.w3.org/2000/svg">
        <svg x="50%" y="50%" width="1.5em" height="1.5em" overflow="visible" viewBox="0 0 24 24">
            <svg x="-12" y="-12">
                <svg
                    xmlns="http://www.w3.org/2000/svg"
                    width="24"
                    height="24"
                    viewBox="0 0 24 24"
                    stroke="currentColor"
                    stroke-width="2"
                    stroke-linecap="round"
                    stroke-linejoin="round"
                >
                    <path vector-effect="non-scaling-stroke" d="M3 7V5a2 2 0 0 1 2-2h2" />
                    <path vector-effect="non-scaling-stroke" d="M17 3h2a2 2 0 0 1 2 2v2" />
                    <path vector-effect="non-scaling-stroke" d="M21 17v2a2 2 0 0 1-2 2h-2" />
                    <path vector-effect="non-scaling-stroke" d="M7 21H5a2 2 0 0 1-2-2v-2" />
                    <path vector-effect="non-scaling-stroke" d="M8 14s1.5 2 4 2 4-2 4-2" />
                    <path vector-effect="non-scaling-stroke" d="M9 9h.01" />
                    <path vector-effect="non-scaling-stroke" d="M15 9h.01" />
                </svg>
            </svg>
        </svg>
    </g>
</svg>
