<svg xmlns="http://www.w3.org/2000/svg" width="1.5em" height="1.5em">
    <g id="tuiIconBookDashedLarge" xmlns="http://www.w3.org/2000/svg">
        <svg x="50%" y="50%" width="1.5em" height="1.5em" overflow="visible" viewBox="0 0 24 24">
            <svg x="-12" y="-12">
                <svg
                    xmlns="http://www.w3.org/2000/svg"
                    width="24"
                    height="24"
                    viewBox="0 0 24 24"
                    stroke="currentColor"
                    stroke-width="2"
                    stroke-linecap="round"
                    stroke-linejoin="round"
                >
                    <path vector-effect="non-scaling-stroke" d="M20 22h-2" />
                    <path vector-effect="non-scaling-stroke" d="M20 15v2h-2" />
                    <path vector-effect="non-scaling-stroke" d="M4 19.5V15" />
                    <path vector-effect="non-scaling-stroke" d="M20 8v3" />
                    <path vector-effect="non-scaling-stroke" d="M18 2h2v2" />
                    <path vector-effect="non-scaling-stroke" d="M4 11V9" />
                    <path vector-effect="non-scaling-stroke" d="M12 2h2" />
                    <path vector-effect="non-scaling-stroke" d="M12 22h2" />
                    <path vector-effect="non-scaling-stroke" d="M12 17h2" />
                    <path vector-effect="non-scaling-stroke" d="M8 22H6.5a2.5 2.5 0 0 1 0-5H8" />
                    <path vector-effect="non-scaling-stroke" d="M4 5v-.5A2.5 2.5 0 0 1 6.5 2H8" />
                </svg>
            </svg>
        </svg>
    </g>
</svg>
