<svg xmlns="http://www.w3.org/2000/svg" width="1.5em" height="1.5em">
    <g id="tuiIconWaves" xmlns="http://www.w3.org/2000/svg">
        <svg x="50%" y="50%" width="1.5em" height="1.5em" overflow="visible" viewBox="0 0 24 24">
            <svg x="-12" y="-12">
                <svg
                    xmlns="http://www.w3.org/2000/svg"
                    class="lucide lucide-waves"
                    width="24"
                    height="24"
                    viewBox="0 0 24 24"
                    fill="none"
                    stroke="currentColor"
                    stroke-width="2"
                    stroke-linecap="round"
                    stroke-linejoin="round"
                >
                    <path d="M2 6c.6.5 1.2 1 2.5 1C7 7 7 5 9.5 5c2.6 0 2.4 2 5 2 2.5 0 2.5-2 5-2 1.3 0 1.9.5 2.5 1" />
                    <path
                        d="M2 12c.6.5 1.2 1 2.5 1 2.5 0 2.5-2 5-2 2.6 0 2.4 2 5 2 2.5 0 2.5-2 5-2 1.3 0 1.9.5 2.5 1"
                    />
                    <path
                        d="M2 18c.6.5 1.2 1 2.5 1 2.5 0 2.5-2 5-2 2.6 0 2.4 2 5 2 2.5 0 2.5-2 5-2 1.3 0 1.9.5 2.5 1"
                    />
                </svg>
            </svg>
        </svg>
    </g>
</svg>
