<svg xmlns="http://www.w3.org/2000/svg" width="1.5em" height="1.5em"><g
        id="tuiIconInboxLarge"
        xmlns="http://www.w3.org/2000/svg"
    >
            <svg x="50%" y="50%" width="1.5em" height="1.5em" overflow="visible" viewBox="0 0 24 24">
                <svg x="-12" y="-12"><svg
                    xmlns="http://www.w3.org/2000/svg"
                    width="24"
                    height="24"
                    viewBox="0 0 24 24"
                    stroke="currentColor"
                    stroke-width="2"
                    stroke-linecap="round"
                    stroke-linejoin="round"
                ><polyline points="22 12 16 12 14 15 10 15 8 12 2 12" /><path
                        d="M5.45 5.11L2 12v6a2 2 0 0 0 2 2h16a2 2 0 0 0 2-2v-6l-3.45-6.89A2 2 0 0 0 16.76 4H7.24a2 2 0 0 0-1.79 1.11z"
                    /></svg></svg>
            </svg>
        </g></svg>
