<svg xmlns="http://www.w3.org/2000/svg" width="1.5em" height="1.5em">
    <g id="tuiIconLasso" xmlns="http://www.w3.org/2000/svg">
        <svg x="50%" y="50%" width="1.5em" height="1.5em" overflow="visible" viewBox="0 0 24 24">
            <svg x="-12" y="-12">
                <svg
                    xmlns="http://www.w3.org/2000/svg"
                    class="lucide lucide-lasso"
                    width="24"
                    height="24"
                    viewBox="0 0 24 24"
                    fill="none"
                    stroke="currentColor"
                    stroke-width="2"
                    stroke-linecap="round"
                    stroke-linejoin="round"
                >
                    <path d="M7 22a5 5 0 0 1-2-4" />
                    <path d="M3.3 14A6.8 6.8 0 0 1 2 10c0-4.4 4.5-8 10-8s10 3.6 10 8-4.5 8-10 8a12 12 0 0 1-5-1" />
                    <path d="M5 18a2 2 0 1 0 0-4 2 2 0 0 0 0 4z" />
                </svg>
            </svg>
        </svg>
    </g>
</svg>
