<svg xmlns="http://www.w3.org/2000/svg" id="tuiIconVisa" viewBox="0 0 32 32"><g fill="#1a1f71"><path d="M11.257 9.302L12.875.16h2.587l-1.619 9.143zM23.226.384A6.909 6.909 0 0020.907 0c-2.556 0-4.357 1.24-4.372 3.017-.014 1.314 1.286 2.047 2.267 2.485 1.007.448 1.346.734 1.34 1.134-.006.613-.803.893-1.547.893-1.036 0-1.586-.139-2.435-.48l-.334-.146-.363 2.047c.605.255 1.722.477 2.882.488 2.72 0 4.485-1.226 4.505-3.124.01-1.04-.68-1.832-2.172-2.484-.904-.423-1.458-.705-1.452-1.134 0-.38.469-.786 1.481-.786a4.93 4.93 0 011.937.35l.231.106.351-1.982M29.86.168h-1.999c-.62 0-1.083.162-1.355.758l-3.842 8.38h2.717s.444-1.127.545-1.375l3.313.004c.077.32.315 1.37.315 1.37h2.4L29.86.168zM26.67 6.06c.214-.527 1.03-2.556 1.03-2.556-.014.024.213-.53.344-.873l.175.789.599 2.64H26.67zM9.087.166L6.554 6.4l-.27-1.267c-.471-1.461-1.94-3.044-3.582-3.836l2.316 7.996 2.737-.003L11.828.166h-2.74" transform="translate(0 12)"/><path d="M4.205.16H.033L0 .35c3.246.757 5.393 2.586 6.285 4.784L5.377.932C5.221.352 4.767.18 4.205.16" transform="translate(0 12)"/></g></svg>