<svg xmlns="http://www.w3.org/2000/svg" id="tuiIconUndo2" fill="none" viewBox="0 0 24 24"><path stroke="currentColor" stroke-linecap="round" stroke-linejoin="round" stroke-width="2" d="M1.212 10.967c0 .374.161.756.484 1.016h.001l7.018 5.665.001.002a1.277 1.277 0 001.599.008h0l-.528-1.134.936-.352h0v-.002l-.909-2.414c1.97.024 3.388.256 4.607.875 1.482.752 2.816 2.154 4.431 4.875a1 1 0 001.843-.695c-.459-2.442-1.173-4.98-3.014-6.975-1.676-1.816-4.172-3.066-7.912-3.541l.954-2.535h0a1.31 1.31 0 00-.4-1.478 1.275 1.275 0 00-1.607-.001l-.002.001-7.02 5.668h0l-.008.007a1.306 1.306 0 00-.474 1.01zm0 0v-.002h1l-1 .004v-.002zm8.763 5.129l-.002-.002.002.002z"/></svg>