<svg xmlns="http://www.w3.org/2000/svg" width="1.5em" height="1.5em">
    <g id="tuiIconPocketKnife" xmlns="http://www.w3.org/2000/svg">
        <svg x="50%" y="50%" width="1.5em" height="1.5em" overflow="visible" viewBox="0 0 24 24">
            <svg x="-12" y="-12">
                <svg
                    xmlns="http://www.w3.org/2000/svg"
                    class="lucide lucide-pocket-knife"
                    width="24"
                    height="24"
                    viewBox="0 0 24 24"
                    fill="none"
                    stroke="currentColor"
                    stroke-width="2"
                    stroke-linecap="round"
                    stroke-linejoin="round"
                >
                    <path d="M3 2v1c0 1 2 1 2 2S3 6 3 7s2 1 2 2-2 1-2 2 2 1 2 2" />
                    <path d="M18 6h.01" />
                    <path d="M6 18h.01" />
                    <path d="M20.83 8.83a4 4 0 0 0-5.66-5.66l-12 12a4 4 0 1 0 5.66 5.66Z" />
                    <path d="M18 11.66V22a4 4 0 0 0 4-4V6" />
                </svg>
            </svg>
        </svg>
    </g>
</svg>
