<svg xmlns="http://www.w3.org/2000/svg" id="tuiIconHilite" fill="none" viewBox="0 0 24 24"><path fill="#E7E8EA" fill-rule="evenodd" d="M0 18h4v4H0v-4z" clip-rule="evenodd"/><path fill="#CBCFD3" fill-rule="evenodd" d="M4 18h4v4H4v-4z" clip-rule="evenodd"/><path fill="#E7E8EA" fill-rule="evenodd" d="M8 18h4v4H8v-4z" clip-rule="evenodd"/><path fill="#CBCFD3" fill-rule="evenodd" d="M12 18h4v4h-4v-4z" clip-rule="evenodd"/><path fill="#E7E8EA" fill-rule="evenodd" d="M16 18h4v4h-4v-4z" clip-rule="evenodd"/><path fill="#CBCFD3" fill-rule="evenodd" d="M20 18h4v4h-4v-4z" clip-rule="evenodd"/><path stroke="currentColor" stroke-linecap="round" stroke-linejoin="round" stroke-width="2" d="M8.182 16H5l2.727-4L10 13.714 8.182 16zM9 7.5L15.667 1 19 4l-4.762 8M9 7.5l5.238 4.5M9 7.5L7 11l4 3.5 3.238-2.5"/></svg>