<svg xmlns="http://www.w3.org/2000/svg" width="1.5em" height="1.5em">
    <g id="tuiIconPianoLarge" xmlns="http://www.w3.org/2000/svg">
        <svg x="50%" y="50%" width="1.5em" height="1.5em" overflow="visible" viewBox="0 0 24 24">
            <svg x="-12" y="-12">
                <svg
                    xmlns="http://www.w3.org/2000/svg"
                    width="24"
                    height="24"
                    viewBox="0 0 24 24"
                    stroke="currentColor"
                    stroke-width="2"
                    stroke-linecap="round"
                    stroke-linejoin="round"
                >
                    <path
                        vector-effect="non-scaling-stroke"
                        d="M18.5 8c-1.4 0-2.6-.8-3.2-2A6.87 6.87 0 0 0 2 9v11a2 2 0 0 0 2 2h16a2 2 0 0 0 2-2v-8.5C22 9.6 20.4 8 18.5 8"
                    />
                    <path vector-effect="non-scaling-stroke" d="M2 14h20" />
                    <path vector-effect="non-scaling-stroke" d="M6 14v4" />
                    <path vector-effect="non-scaling-stroke" d="M10 14v4" />
                    <path vector-effect="non-scaling-stroke" d="M14 14v4" />
                    <path vector-effect="non-scaling-stroke" d="M18 14v4" />
                </svg>
            </svg>
        </svg>
    </g>
</svg>
