<svg xmlns="http://www.w3.org/2000/svg" width="1.5em" height="1.5em">
    <g id="tuiIconFolderTree" xmlns="http://www.w3.org/2000/svg">
        <svg x="50%" y="50%" width="1.5em" height="1.5em" overflow="visible" viewBox="0 0 24 24">
            <svg x="-12" y="-12">
                <svg
                    xmlns="http://www.w3.org/2000/svg"
                    class="lucide lucide-folder-tree"
                    width="24"
                    height="24"
                    viewBox="0 0 24 24"
                    fill="none"
                    stroke="currentColor"
                    stroke-width="2"
                    stroke-linecap="round"
                    stroke-linejoin="round"
                >
                    <path
                        d="M20 10a1 1 0 0 0 1-1V6a1 1 0 0 0-1-1h-2.5a1 1 0 0 1-.8-.4l-.9-1.2A1 1 0 0 0 15 3h-2a1 1 0 0 0-1 1v5a1 1 0 0 0 1 1Z"
                    />
                    <path
                        d="M20 21a1 1 0 0 0 1-1v-3a1 1 0 0 0-1-1h-2.9a1 1 0 0 1-.88-.55l-.42-.85a1 1 0 0 0-.92-.6H13a1 1 0 0 0-1 1v5a1 1 0 0 0 1 1Z"
                    />
                    <path d="M3 5a2 2 0 0 0 2 2h3" />
                    <path d="M3 3v13a2 2 0 0 0 2 2h3" />
                </svg>
            </svg>
        </svg>
    </g>
</svg>
