<svg xmlns="http://www.w3.org/2000/svg" width="1.5em" height="1.5em">
    <g id="tuiIconAnvilLarge" xmlns="http://www.w3.org/2000/svg">
        <svg x="50%" y="50%" width="1.5em" height="1.5em" overflow="visible" viewBox="0 0 24 24">
            <svg x="-12" y="-12">
                <svg
                    xmlns="http://www.w3.org/2000/svg"
                    width="24"
                    height="24"
                    viewBox="0 0 24 24"
                    stroke="currentColor"
                    stroke-width="2"
                    stroke-linecap="round"
                    stroke-linejoin="round"
                >
                    <path vector-effect="non-scaling-stroke" d="M7 10H6a4 4 0 0 1-4-4 1 1 0 0 1 1-1h4" />
                    <path
                        vector-effect="non-scaling-stroke"
                        d="M7 5a1 1 0 0 1 1-1h13a1 1 0 0 1 1 1 7 7 0 0 1-7 7H8a1 1 0 0 1-1-1z"
                    />
                    <path vector-effect="non-scaling-stroke" d="M9 12v5" />
                    <path vector-effect="non-scaling-stroke" d="M15 12v5" />
                    <path
                        vector-effect="non-scaling-stroke"
                        d="M5 20a3 3 0 0 1 3-3h8a3 3 0 0 1 3 3 1 1 0 0 1-1 1H6a1 1 0 0 1-1-1"
                    />
                </svg>
            </svg>
        </svg>
    </g>
</svg>
