<svg xmlns="http://www.w3.org/2000/svg" width="1.5em" height="1.5em">
    <g id="tuiIconShellLarge" xmlns="http://www.w3.org/2000/svg">
        <svg x="50%" y="50%" width="1.5em" height="1.5em" overflow="visible" viewBox="0 0 24 24">
            <svg x="-12" y="-12">
                <svg
                    xmlns="http://www.w3.org/2000/svg"
                    width="24"
                    height="24"
                    viewBox="0 0 24 24"
                    stroke="currentColor"
                    stroke-width="2"
                    stroke-linecap="round"
                    stroke-linejoin="round"
                >
                    <path
                        vector-effect="non-scaling-stroke"
                        d="M14 11a2 2 0 1 1-4 0 4 4 0 0 1 8 0 6 6 0 0 1-12 0 8 8 0 0 1 16 0 10 10 0 1 1-20 0 11.93 11.93 0 0 1 2.42-7.22 2 2 0 1 1 3.16 2.44"
                    />
                </svg>
            </svg>
        </svg>
    </g>
</svg>
