<svg xmlns="http://www.w3.org/2000/svg" width="1.5em" height="1.5em">
    <g id="tuiIconCake" xmlns="http://www.w3.org/2000/svg">
        <svg x="50%" y="50%" width="1.5em" height="1.5em" overflow="visible" viewBox="0 0 24 24">
            <svg x="-12" y="-12">
                <svg
                    xmlns="http://www.w3.org/2000/svg"
                    class="lucide lucide-cake"
                    width="24"
                    height="24"
                    viewBox="0 0 24 24"
                    fill="none"
                    stroke="currentColor"
                    stroke-width="2"
                    stroke-linecap="round"
                    stroke-linejoin="round"
                >
                    <path d="M20 21v-8a2 2 0 0 0-2-2H6a2 2 0 0 0-2 2v8" />
                    <path d="M4 16s.5-1 2-1 2.5 2 4 2 2.5-2 4-2 2.5 2 4 2 2-1 2-1" />
                    <path d="M2 21h20" />
                    <path d="M7 8v3" />
                    <path d="M12 8v3" />
                    <path d="M17 8v3" />
                    <path d="M7 4h.01" />
                    <path d="M12 4h.01" />
                    <path d="M17 4h.01" />
                </svg>
            </svg>
        </svg>
    </g>
</svg>
