<svg xmlns="http://www.w3.org/2000/svg" width="1.5em" height="1.5em">
    <g id="tuiIconBoxSelect" xmlns="http://www.w3.org/2000/svg">
        <svg x="50%" y="50%" width="1.5em" height="1.5em" overflow="visible" viewBox="0 0 24 24">
            <svg x="-12" y="-12">
                <svg
                    xmlns="http://www.w3.org/2000/svg"
                    class="lucide lucide-box-select"
                    width="24"
                    height="24"
                    viewBox="0 0 24 24"
                    fill="none"
                    stroke="currentColor"
                    stroke-width="2"
                    stroke-linecap="round"
                    stroke-linejoin="round"
                >
                    <path d="M5 3a2 2 0 0 0-2 2" />
                    <path d="M19 3a2 2 0 0 1 2 2" />
                    <path d="M21 19a2 2 0 0 1-2 2" />
                    <path d="M5 21a2 2 0 0 1-2-2" />
                    <path d="M9 3h1" />
                    <path d="M9 21h1" />
                    <path d="M14 3h1" />
                    <path d="M14 21h1" />
                    <path d="M3 9v1" />
                    <path d="M21 9v1" />
                    <path d="M3 14v1" />
                    <path d="M21 14v1" />
                </svg>
            </svg>
        </svg>
    </g>
</svg>
