<svg xmlns="http://www.w3.org/2000/svg" width="1em" height="1em"><g
        id="tuiIconHexagon"
        xmlns="http://www.w3.org/2000/svg"
    >
            <svg x="50%" y="50%" width="1em" height="1em" overflow="visible" viewBox="0 0 16 16">
                <svg x="-8" y="-8"><svg
                    xmlns="http://www.w3.org/2000/svg"
                    width="16"
                    height="16"
                    viewBox="0 0 24 24"
                    stroke="currentColor"
                    stroke-width="3"
                    stroke-linecap="round"
                    stroke-linejoin="round"
                ><path
                        d="M21 16V8a2 2 0 0 0-1-1.73l-7-4a2 2 0 0 0-2 0l-7 4A2 2 0 0 0 3 8v8a2 2 0 0 0 1 1.73l7 4a2 2 0 0 0 2 0l7-4A2 2 0 0 0 21 16z"
                    /></svg></svg>
            </svg>
        </g></svg>
