<svg xmlns="http://www.w3.org/2000/svg" width="1em" height="1em" focusable="false">
    <g id="tuiIconSettings" xmlns="http://www.w3.org/2000/svg">
        <svg
            x="50%"
            y="50%"
            width="1em"
            height="1em"
            overflow="visible"
            viewBox="0 0 16 16"
            fill="none"
            xmlns="http://www.w3.org/2000/svg"
        >
            <svg x="-8" y="-8">
                <g
                    clip-path="url(#a)"
                    stroke="currentColor"
                    stroke-width="2"
                    stroke-linecap="round"
                    stroke-linejoin="round"
                >
                    <path d="M8 10a2 2 0 1 0 0-4 2 2 0 0 0 0 4z" />
                    <path
                        d="M12.933 10a1.1 1.1 0 0 0 .22 1.213l.04.04a1.333 1.333 0 1 1-1.886 1.887l-.04-.04a1.1 1.1 0 0 0-1.214-.22 1.1 1.1 0 0 0-.666 1.006V14a1.333 1.333 0 1 1-2.667 0v-.06A1.1 1.1 0 0 0 6 12.933a1.1 1.1 0 0 0-1.213.22l-.04.04a1.334 1.334 0 1 1-1.887-1.886l.04-.04a1.1 1.1 0 0 0 .22-1.214 1.1 1.1 0 0 0-1.007-.667H2A1.333 1.333 0 1 1 2 6.72h.06A1.1 1.1 0 0 0 3.067 6a1.1 1.1 0 0 0-.22-1.213l-.04-.04A1.333 1.333 0 1 1 4.693 2.86l.04.04a1.1 1.1 0 0 0 1.214.22H6a1.1 1.1 0 0 0 .667-1.007V2a1.333 1.333 0 1 1 2.666 0v.06A1.1 1.1 0 0 0 10 3.066a1.1 1.1 0 0 0 1.213-.22l.04-.04a1.334 1.334 0 1 1 1.887 1.887l-.04.04a1.1 1.1 0 0 0-.22 1.214V6a1.1 1.1 0 0 0 1.007.667H14a1.333 1.333 0 0 1 0 2.666h-.06a1.1 1.1 0 0 0-1.007.667z"
                    />
                </g>
                <defs>
                    <clipPath>
                        <path fill="#fff" d="M0 0h16v16H0z" />
                    </clipPath>
                </defs>
            </svg>
        </svg>
    </g>
</svg>
