<svg xmlns="http://www.w3.org/2000/svg" viewBox="0 0 32 32"><defs><linearGradient id="tui-mir-gradient" x1="-.18%" x2="100%" y1="50%" y2="50%"><stop offset="0%" stop-color="#00B4E6"/><stop offset="100%" stop-color="#088CCB"/></linearGradient></defs><path fill="url(#tui-mir-gradient) #049fd8" d="M28.408 0h-6.073c.326 2.024 2.285 3.918 4.44 3.918h4.833c.065-.196.065-.457.065-.653A3.234 3.234 0 0028.408 0z" transform="translate(0 12)"/><path fill="#4DB45F" d="M22.857 16.245v4.898h2.939V18.53h2.612c1.437 0 2.678-.98 3.07-2.286h-8.62zM12.408 12v9.143h2.612s.653 0 .98-.653l2.286-4.572h.326v5.225h2.939V12h-2.612s-.653.065-.98.653l-2.286 4.571h-.326V12h-2.939zM0 21.143V12h2.939s.849 0 1.306 1.306c1.175 3.461 1.306 3.918 1.306 3.918s.261-.848 1.306-3.918C7.314 12 8.163 12 8.163 12h2.939v9.143H8.163v-4.898h-.326l-1.633 4.898H4.898l-1.633-4.898H2.94v4.898H0z"/></svg>