<svg xmlns="http://www.w3.org/2000/svg" width="1em" height="1em" focusable="false">
    <g id="tuiIconCancel" xmlns="http://www.w3.org/2000/svg">
        <svg x="50%" y="50%" width="1em" height="1em" overflow="visible" viewBox="0 0 16 16">
            <svg x="-8" y="-8">
                <path
                    d="M6.855 1.232a2.333 2.333 0 0 1 3.14.823l.003.004 5.647 9.427.008.014a2.334 2.334 0 0 1-1.995 3.5H2.342a2.334 2.334 0 0 1-1.995-3.5l.008-.014L6.002 2.06l.858.514-.855-.518c.208-.343.5-.627.85-.823zm.861 1.858l-5.64 9.415a.334.334 0 0 0 .285.495h11.278a.334.334 0 0 0 .284-.495L8.284 3.09a.333.333 0 0 0-.568 0zM8 5a1 1 0 0 1 1 1v2.667a1 1 0 1 1-2 0V6a1 1 0 0 1 1-1zm0 5.333a1 1 0 1 0 0 2h.007a1 1 0 1 0 0-2H8z"
                    fill="currentColor"
                />
            </svg>
        </svg>
    </g>
</svg>
