<svg xmlns="http://www.w3.org/2000/svg" width="1.5em" height="1.5em">
    <g id="tuiIconGrabLarge" xmlns="http://www.w3.org/2000/svg">
        <svg x="50%" y="50%" width="1.5em" height="1.5em" overflow="visible" viewBox="0 0 24 24">
            <svg x="-12" y="-12">
                <svg
                    xmlns="http://www.w3.org/2000/svg"
                    width="24"
                    height="24"
                    viewBox="0 0 24 24"
                    stroke="currentColor"
                    stroke-width="2"
                    stroke-linecap="round"
                    stroke-linejoin="round"
                >
                    <path vector-effect="non-scaling-stroke" d="M18 11.5V9a2 2 0 0 0-2-2a2 2 0 0 0-2 2v1.4" />
                    <path vector-effect="non-scaling-stroke" d="M14 10V8a2 2 0 0 0-2-2a2 2 0 0 0-2 2v2" />
                    <path vector-effect="non-scaling-stroke" d="M10 9.9V9a2 2 0 0 0-2-2a2 2 0 0 0-2 2v5" />
                    <path vector-effect="non-scaling-stroke" d="M6 14a2 2 0 0 0-2-2a2 2 0 0 0-2 2" />
                    <path
                        vector-effect="non-scaling-stroke"
                        d="M18 11a2 2 0 1 1 4 0v3a8 8 0 0 1-8 8h-4a8 8 0 0 1-8-8 2 2 0 1 1 4 0"
                    />
                </svg>
            </svg>
        </svg>
    </g>
</svg>
