<svg xmlns="http://www.w3.org/2000/svg" width="1.5em" height="1.5em">
    <g id="tuiIconSwatchBookLarge" xmlns="http://www.w3.org/2000/svg">
        <svg x="50%" y="50%" width="1.5em" height="1.5em" overflow="visible" viewBox="0 0 24 24">
            <svg x="-12" y="-12">
                <svg
                    xmlns="http://www.w3.org/2000/svg"
                    width="24"
                    height="24"
                    viewBox="0 0 24 24"
                    stroke="currentColor"
                    stroke-width="2"
                    stroke-linecap="round"
                    stroke-linejoin="round"
                >
                    <path
                        vector-effect="non-scaling-stroke"
                        d="M11 17a4 4 0 0 1-8 0V5a2 2 0 0 1 2-2h4a2 2 0 0 1 2 2Z"
                    />
                    <path vector-effect="non-scaling-stroke" d="M16.7 13H19a2 2 0 0 1 2 2v4a2 2 0 0 1-2 2H7" />
                    <path vector-effect="non-scaling-stroke" d="M 7 17h.01" />
                    <path
                        vector-effect="non-scaling-stroke"
                        d="m11 8 2.3-2.3a2.4 2.4 0 0 1 3.404.004L18.6 7.6a2.4 2.4 0 0 1 .026 3.434L9.9 19.8"
                    />
                </svg>
            </svg>
        </svg>
    </g>
</svg>
