<svg xmlns="http://www.w3.org/2000/svg" width="1.5em" height="1.5em">
    <g id="tuiIconLayers3Large" xmlns="http://www.w3.org/2000/svg">
        <svg x="50%" y="50%" width="1.5em" height="1.5em" overflow="visible" viewBox="0 0 24 24">
            <svg x="-12" y="-12">
                <svg
                    xmlns="http://www.w3.org/2000/svg"
                    width="24"
                    height="24"
                    viewBox="0 0 24 24"
                    stroke="currentColor"
                    stroke-width="2"
                    stroke-linecap="round"
                    stroke-linejoin="round"
                >
                    <path
                        vector-effect="non-scaling-stroke"
                        d="m12.83 2.18a2 2 0 0 0-1.66 0L2.6 6.08a1 1 0 0 0 0 1.83l8.58 3.91a2 2 0 0 0 1.66 0l8.58-3.9a1 1 0 0 0 0-1.83Z"
                    />
                    <path
                        vector-effect="non-scaling-stroke"
                        d="m6.08 9.5-3.5 1.6a1 1 0 0 0 0 1.81l8.6 3.91a2 2 0 0 0 1.65 0l8.58-3.9a1 1 0 0 0 0-1.83l-3.5-1.59"
                    />
                    <path
                        vector-effect="non-scaling-stroke"
                        d="m6.08 14.5-3.5 1.6a1 1 0 0 0 0 1.81l8.6 3.91a2 2 0 0 0 1.65 0l8.58-3.9a1 1 0 0 0 0-1.83l-3.5-1.59"
                    />
                </svg>
            </svg>
        </svg>
    </g>
</svg>
