<svg xmlns="http://www.w3.org/2000/svg" width="1.5em" height="1.5em">
    <g id="tuiIconTableColumnsSplitLarge" xmlns="http://www.w3.org/2000/svg">
        <svg x="50%" y="50%" width="1.5em" height="1.5em" overflow="visible" viewBox="0 0 24 24">
            <svg x="-12" y="-12">
                <svg
                    xmlns="http://www.w3.org/2000/svg"
                    width="24"
                    height="24"
                    viewBox="0 0 24 24"
                    stroke="currentColor"
                    stroke-width="2"
                    stroke-linecap="round"
                    stroke-linejoin="round"
                >
                    <path vector-effect="non-scaling-stroke" d="M14 14v2" />
                    <path vector-effect="non-scaling-stroke" d="M14 20v2" />
                    <path vector-effect="non-scaling-stroke" d="M14 2v2" />
                    <path vector-effect="non-scaling-stroke" d="M14 8v2" />
                    <path vector-effect="non-scaling-stroke" d="M2 15h8" />
                    <path vector-effect="non-scaling-stroke" d="M2 3h6a2 2 0 0 1 2 2v14a2 2 0 0 1-2 2H2" />
                    <path vector-effect="non-scaling-stroke" d="M2 9h8" />
                    <path vector-effect="non-scaling-stroke" d="M22 15h-4" />
                    <path vector-effect="non-scaling-stroke" d="M22 3h-2a2 2 0 0 0-2 2v14a2 2 0 0 0 2 2h2" />
                    <path vector-effect="non-scaling-stroke" d="M22 9h-4" />
                    <path vector-effect="non-scaling-stroke" d="M5 3v18" />
                </svg>
            </svg>
        </svg>
    </g>
</svg>
