<svg xmlns="http://www.w3.org/2000/svg" width="1.5em" height="1.5em" focusable="false">
    <g id="tuiIconSettingsLarge" xmlns="http://www.w3.org/2000/svg">
        <svg x="50%" y="50%" width="1.5em" height="1.5em" overflow="visible" viewBox="0 0 24 24" fill="none">
            <svg x="-12" y="-12" xmlns="http://www.w3.org/2000/svg">
                <path
                    fill-rule="evenodd"
                    clip-rule="evenodd"
                    d="M12 2c-.413 0-.821.025-1.222.074l-.038.004c-.146.016-.454.05-.735.215a1.525 1.525 0 0 0-.561.584c-.155.288-.178.61-.189.764 0 .016-.002.03-.003.042L9.16 4.787a7.693 7.693 0 0 0-.252.105l-.846-.716a3.587 3.587 0 0 1-.031-.027c-.117-.1-.36-.313-.674-.407a1.525 1.525 0 0 0-.81-.016c-.314.082-.556.276-.67.367l-.03.024c-.317.247-.618.513-.902.796l-.002.002-.028.028-.002.002c-.283.284-.549.585-.796.901l-.024.03c-.091.115-.285.357-.367.672-.068.262-.062.55.016.809.094.313.306.557.407.674l.027.031.716.846a7.695 7.695 0 0 0-.105.252l-1.104.092a3.584 3.584 0 0 1-.042.003c-.154.011-.476.034-.764.189a1.525 1.525 0 0 0-.584.561c-.165.281-.199.59-.215.735l-.004.038a10.09 10.09 0 0 0 0 2.444l.004.038c.016.146.05.454.215.735.137.233.346.433.584.561.288.155.61.178.764.189.016 0 .03.002.042.003l1.104.092c.034.085.068.169.105.252l-.716.846-.027.031c-.1.117-.313.361-.407.674a1.525 1.525 0 0 0-.016.81c.082.314.276.556.367.67l.024.03c.245.315.509.613.79.895l.002.003.04.04.003.003c.282.28.58.544.894.789l.03.024c.115.091.357.285.672.367.262.068.55.062.809-.016.313-.094.557-.306.674-.407l.031-.027.846-.716c.083.037.167.072.252.105l.092 1.104.003.042c.011.153.034.476.189.764.128.238.328.447.561.584.281.165.59.199.735.215l.038.004a10.09 10.09 0 0 0 2.444 0l.038-.004c.146-.016.454-.05.735-.215.233-.137.433-.346.561-.584.155-.288.178-.61.189-.764 0-.016.002-.03.003-.042l.092-1.104c.085-.034.169-.068.252-.105l.846.716.02.017.011.01c.117.1.36.313.674.407.259.078.547.084.81.016.314-.082.556-.276.67-.367l.03-.024a10.058 10.058 0 0 0 1.73-1.73l.024-.03c.091-.114.285-.356.367-.67.068-.262.062-.551-.016-.81-.094-.313-.306-.557-.407-.674a2.51 2.51 0 0 1-.013-.015l-.014-.016-.716-.846c.037-.083.072-.167.105-.252l1.104-.092.042-.003c.153-.011.476-.034.764-.189.238-.128.447-.328.584-.561.165-.281.199-.59.215-.735l.004-.038a10.09 10.09 0 0 0 0-2.444l-.004-.038c-.016-.146-.05-.454-.215-.735a1.525 1.525 0 0 0-.584-.561c-.288-.155-.61-.178-.764-.189a3.71 3.71 0 0 1-.042-.003l-1.104-.092a7.626 7.626 0 0 0-.105-.252l.716-.846.027-.031c.1-.117.313-.36.407-.674.078-.259.084-.547.016-.809-.082-.315-.276-.557-.367-.672l-.024-.03a10.049 10.049 0 0 0-1.73-1.729l-.03-.024c-.114-.091-.356-.285-.67-.367a1.524 1.524 0 0 0-.81.016c-.313.094-.557.306-.674.407l-.031.027-.846.716a7.704 7.704 0 0 0-.252-.105l-.092-1.104-.003-.042c-.011-.154-.034-.476-.189-.764a1.525 1.525 0 0 0-.561-.584c-.281-.165-.59-.199-.735-.215l-.038-.004A10.09 10.09 0 0 0 12 2zm-.855 3.056l.085-1.02a8.11 8.11 0 0 1 1.54 0l.085 1.02.003.039c.01.135.03.412.14.657a1.466 1.466 0 0 0 .772.761 5.7 5.7 0 0 0 .274.11l.015.007c.095.036.189.075.281.116l.016.007c.086.039.184.082.27.115a1.465 1.465 0 0 0 1.085.009c.252-.096.462-.278.565-.366l.03-.026.78-.66c.397.327.762.692 1.09 1.09l-.661.78-.026.03c-.088.102-.27.312-.366.563a1.467 1.467 0 0 0 .009 1.085c.033.087.076.185.115.271l.007.016c.041.092.08.186.116.28l.006.016c.035.09.073.189.11.274a1.466 1.466 0 0 0 .761.773c.246.109.523.129.658.139l.039.003 1.02.085a8.132 8.132 0 0 1 0 1.54l-1.02.085-.039.003c-.135.01-.412.03-.657.14a1.466 1.466 0 0 0-.761.772 5.762 5.762 0 0 0-.11.274l-.006.015a5.747 5.747 0 0 1-.117.281l-.007.016a5.721 5.721 0 0 0-.115.27 1.465 1.465 0 0 0-.009 1.085c.096.252.278.462.366.565l.026.029.66.78a8.047 8.047 0 0 1-1.089 1.09l-.781-.66-.03-.026c-.102-.088-.312-.27-.563-.366a1.464 1.464 0 0 0-1.085.009 5.68 5.68 0 0 0-.271.115l-.016.007c-.092.041-.186.08-.28.116l-.016.007a5.762 5.762 0 0 0-.274.11 1.466 1.466 0 0 0-.773.761c-.109.245-.129.522-.139.657l-.003.039-.085 1.02a8.132 8.132 0 0 1-1.54 0l-.085-1.02-.003-.039c-.01-.135-.03-.412-.14-.657a1.466 1.466 0 0 0-.772-.761 5.758 5.758 0 0 0-.274-.11l-.015-.006a5.718 5.718 0 0 1-.281-.117l-.016-.007c-.086-.038-.184-.082-.27-.115a1.467 1.467 0 0 0-1.085-.009c-.252.096-.462.278-.565.366l-.029.026-.78.66a8.077 8.077 0 0 1-.553-.499v-.001l-.037-.036-.001-.001a8.035 8.035 0 0 1-.5-.552l.661-.78.026-.03c.088-.103.27-.313.366-.564a1.465 1.465 0 0 0-.009-1.085 5.712 5.712 0 0 0-.115-.271l-.007-.016a5.73 5.73 0 0 1-.116-.28l-.007-.016c-.034-.09-.072-.189-.11-.274a1.466 1.466 0 0 0-.761-.773c-.245-.109-.522-.129-.657-.139l-.039-.003-1.02-.085a8.11 8.11 0 0 1 0-1.54l1.02-.085.039-.003c.135-.01.412-.03.657-.14a1.466 1.466 0 0 0 .761-.772c.038-.085.076-.185.11-.274l.007-.015a5.7 5.7 0 0 1 .116-.281l.007-.016a5.73 5.73 0 0 0 .115-.27 1.465 1.465 0 0 0 .009-1.085c-.096-.252-.278-.462-.366-.565l-.026-.029-.66-.781c.16-.194.328-.38.506-.558l.025-.025V6.33c.178-.177.364-.346.558-.506l.781.661.03.026c.102.088.312.27.563.366a1.465 1.465 0 0 0 1.085-.009c.087-.033.185-.076.271-.115l.016-.007c.092-.041.186-.08.28-.116l.016-.007c.09-.034.189-.072.274-.11a1.466 1.466 0 0 0 .773-.761c.109-.245.129-.522.139-.657l.003-.039zM12 16a4 4 0 1 0 0-8 4 4 0 0 0 0 8zm2-4a2 2 0 1 1-4 0 2 2 0 0 1 4 0z"
                    fill="currentColor"
                />
            </svg>
        </svg>
    </g>
</svg>
