<svg xmlns="http://www.w3.org/2000/svg" id="tuiIconElectron" viewBox="0 0 32 32"><g fill="#1a1f71"><path d="M11.257 9.302L12.875.16h2.587l-1.619 9.143zM23.226.384A6.909 6.909 0 0020.907 0c-2.556 0-4.357 1.24-4.372 3.017-.014 1.314 1.286 2.047 2.267 2.485 1.007.448 1.346.734 1.34 1.134-.006.613-.803.893-1.547.893-1.036 0-1.586-.139-2.435-.48l-.334-.146-.363 2.047c.605.255 1.722.477 2.882.488 2.72 0 4.485-1.226 4.505-3.124.01-1.04-.68-1.832-2.172-2.484-.904-.423-1.458-.705-1.452-1.134 0-.38.469-.786 1.481-.786a4.93 4.93 0 011.937.35l.231.106.351-1.982M29.86.168h-1.999c-.62 0-1.083.162-1.355.758l-3.842 8.38h2.717s.444-1.127.545-1.375l3.313.004c.077.32.315 1.37.315 1.37h2.4L29.86.168zM26.67 6.06c.214-.527 1.03-2.556 1.03-2.556-.014.024.213-.53.344-.873l.175.789.599 2.64H26.67zM9.087.166L6.554 6.4l-.27-1.267c-.471-1.461-1.94-3.044-3.582-3.836l2.316 7.996 2.737-.003L11.828.166h-2.74" transform="translate(0 12)"/><path d="M4.205.16H.033L0 .35c3.246.757 5.393 2.586 6.285 4.784L5.377.932C5.221.352 4.767.18 4.205.16" transform="translate(0 12)"/></g><path fill="#1a1f71" d="M2.855 2.393H1.208v1.466H3.05V4.3H.652V.231h2.304v.441H1.208v1.286h1.647v.435zM3.902.013h.555V4.3h-.555V.014zm1.956 2.923c.012.718.486 1.014 1.047 1.014.398 0 .644-.066.847-.15l.1.38a2.591 2.591 0 01-1.022.187c-.94 0-1.502-.598-1.502-1.48 0-.88.542-1.57 1.432-1.57 1.004 0 1.263.834 1.263 1.371 0 .109-.007.187-.02.248H5.859zm1.628-.38c.007-.332-.145-.858-.77-.858-.568 0-.808.49-.852.857h1.622zm3.559 1.642a2.237 2.237 0 01-.877.169c-.922 0-1.521-.598-1.521-1.491 0-.9.643-1.558 1.64-1.558.328 0 .619.078.77.157l-.126.404a1.412 1.412 0 00-.644-.139c-.7 0-1.079.501-1.079 1.105 0 .677.455 1.093 1.06 1.093.316 0 .524-.072.682-.139l.095.399zm1.558-3.52v.7h.795v.404h-.795v1.576c0 .363.107.568.416.568.152 0 .24-.012.322-.036l.026.404a1.58 1.58 0 01-.493.073c-.259 0-.467-.085-.6-.223-.15-.164-.214-.423-.214-.767V1.782h-.474v-.404h.474V.835l.543-.157zm1.57 1.612c0-.344-.006-.64-.025-.912h.486l.026.58h.018c.14-.393.48-.64.852-.64.057 0 .101.006.152.012v.501c-.057-.012-.113-.012-.19-.012-.39 0-.669.278-.744.676a1.533 1.533 0 00-.02.248V4.3h-.554V2.29zm4.923.525c0 1.08-.79 1.552-1.521 1.552-.821 0-1.464-.58-1.464-1.503 0-.973.675-1.546 1.514-1.546.877 0 1.47.61 1.47 1.497zm-2.418.03c0 .64.38 1.123.922 1.123.53 0 .927-.477.927-1.135 0-.495-.258-1.117-.915-1.117-.65 0-.934.58-.934 1.13zm3.269-.676c0-.308-.007-.55-.025-.79h.492l.032.482h.012c.152-.272.505-.543 1.01-.543.423 0 1.08.241 1.08 1.243v1.74h-.556V2.615c0-.47-.183-.863-.707-.863a.796.796 0 00-.745.543.724.724 0 00-.038.248V4.3h-.555V2.17z" transform="translate(9 24)"/></svg>