<svg xmlns="http://www.w3.org/2000/svg" id="tuiIconPiechart" fill="none" viewBox="0 0 24 24"><path fill="currentColor" fill-rule="evenodd" d="M9.78 2.248a1 1 0 01.442 1.95 8.013 8.013 0 00-6.02 6.008 1 1 0 01-1.95-.447A10.013 10.013 0 019.78 2.248zm-7.514 12.05a1 1 0 011.946-.458 8.013 8.013 0 005.935 5.945 1 1 0 11-.461 1.946 10.014 10.014 0 01-7.42-7.433zm12.238 7.386a1 1 0 01-.5-1.937A8.004 8.004 0 0019.25 8.614a1 1 0 111.812-.848 10.003 10.003 0 01-6.558 13.918zM18.582 4.47a1 1 0 11-1.317 1.506 7.976 7.976 0 00-3.368-1.751 1 1 0 11.472-1.943 9.975 9.975 0 014.213 2.188z" clip-rule="evenodd"/></svg>