<svg height="1em" width="1em" xmlns="http://www.w3.org/2000/svg">
    <g id="tuiIconSortOff" xmlns="http://www.w3.org/2000/svg">
        <svg height="1em" overflow="visible" viewBox="0 0 16 16" width="1em" x="50%" y="50%">
            <svg x="-8" y="-8">
                <svg fill="none" height="16" viewBox="0 0 16 16" width="16" xmlns="http://www.w3.org/2000/svg">
                    <path
                        clip-rule="evenodd"
                        d="M11.7071 4.87883C12.0976 5.26935 12.0976 5.90252 11.7071 6.29304C11.3166 6.68357 10.6834 6.68357 10.2929 6.29304L8 4.00015L5.70711 6.29304C5.31658 6.68357 4.68342 6.68357 4.29289 6.29304C3.90237 5.90252 3.90237 5.26935 4.29289 4.87883L6.58579 2.58594C7.36684 1.80489 8.63317 1.80489 9.41421 2.58594L11.7071 4.87883Z"
                        fill="currentColor"
                        fill-rule="evenodd"
                        stroke="none"
                    />
                    <path
                        clip-rule="evenodd"
                        d="M4.29289 10.7071C3.90237 10.3166 3.90237 9.68342 4.29289 9.29289C4.68342 8.90237 5.31658 8.90237 5.70711 9.29289L8 11.5858L10.2929 9.29289C10.6834 8.90237 11.3166 8.90237 11.7071 9.29289C12.0976 9.68342 12.0976 10.3166 11.7071 10.7071L9.41421 13C8.63316 13.781 7.36683 13.781 6.58579 13L4.29289 10.7071Z"
                        fill="currentColor"
                        fill-rule="evenodd"
                        stroke="none"
                    />
                </svg>
            </svg>
        </svg>
    </g>
</svg>
