<svg xmlns="http://www.w3.org/2000/svg" width="1.5em" height="1.5em">
    <g id="tuiIconHandPlatterLarge" xmlns="http://www.w3.org/2000/svg">
        <svg x="50%" y="50%" width="1.5em" height="1.5em" overflow="visible" viewBox="0 0 24 24">
            <svg x="-12" y="-12">
                <svg
                    xmlns="http://www.w3.org/2000/svg"
                    width="24"
                    height="24"
                    viewBox="0 0 24 24"
                    stroke="currentColor"
                    stroke-width="2"
                    stroke-linecap="round"
                    stroke-linejoin="round"
                >
                    <path vector-effect="non-scaling-stroke" d="M12 3V2" />
                    <path vector-effect="non-scaling-stroke" d="M5 10a7.1 7.1 0 0 1 14 0" />
                    <path vector-effect="non-scaling-stroke" d="M4 10h16" />
                    <path vector-effect="non-scaling-stroke" d="M2 14h12a2 2 0 1 1 0 4h-2" />
                    <path
                        vector-effect="non-scaling-stroke"
                        d="m15.4 17.4 3.2-2.8a2 2 0 0 1 2.8 2.9l-3.6 3.3c-.7.8-1.7 1.2-2.8 1.2h-4c-1.1 0-2.1-.4-2.8-1.2L5 18"
                    />
                    <path vector-effect="non-scaling-stroke" d="M5 14v7H2" />
                </svg>
            </svg>
        </svg>
    </g>
</svg>
