<svg xmlns="http://www.w3.org/2000/svg" width="1.5em" height="1.5em">
    <g id="tuiIconSoup" xmlns="http://www.w3.org/2000/svg">
        <svg x="50%" y="50%" width="1.5em" height="1.5em" overflow="visible" viewBox="0 0 24 24">
            <svg x="-12" y="-12">
                <svg
                    xmlns="http://www.w3.org/2000/svg"
                    class="lucide lucide-soup"
                    width="24"
                    height="24"
                    viewBox="0 0 24 24"
                    fill="none"
                    stroke="currentColor"
                    stroke-width="2"
                    stroke-linecap="round"
                    stroke-linejoin="round"
                >
                    <path d="M12 21a9 9 0 0 0 9-9H3a9 9 0 0 0 9 9Z" />
                    <path d="M7 21h10" />
                    <path d="M19.5 12 22 6" />
                    <path d="M16.25 3c.27.1.8.53.75 1.36-.06.83-.93 1.2-1 2.02-.05.78.34 1.24.73 1.62" />
                    <path d="M11.25 3c.27.1.8.53.74 1.36-.05.83-.93 1.2-.98 2.02-.06.78.33 1.24.72 1.62" />
                    <path d="M6.25 3c.27.1.8.53.75 1.36-.06.83-.93 1.2-1 2.02-.05.78.34 1.24.74 1.62" />
                </svg>
            </svg>
        </svg>
    </g>
</svg>
