<svg xmlns="http://www.w3.org/2000/svg" width="1.5em" height="1.5em">
    <g id="tuiIconCalendarHeart" xmlns="http://www.w3.org/2000/svg">
        <svg x="50%" y="50%" width="1.5em" height="1.5em" overflow="visible" viewBox="0 0 24 24">
            <svg x="-12" y="-12">
                <svg
                    xmlns="http://www.w3.org/2000/svg"
                    class="lucide lucide-calendar-heart"
                    width="24"
                    height="24"
                    viewBox="0 0 24 24"
                    fill="none"
                    stroke="currentColor"
                    stroke-width="2"
                    stroke-linecap="round"
                    stroke-linejoin="round"
                >
                    <path d="M3 10h18V6a2 2 0 0 0-2-2H5a2 2 0 0 0-2 2v14a2 2 0 0 0 2 2h7" />
                    <path d="M8 2v4" />
                    <path d="M16 2v4" />
                    <path
                        d="M21.29 14.7a2.43 2.43 0 0 0-2.65-.52c-.3.12-.57.3-.8.53l-.34.34-.35-.34a2.43 2.43 0 0 0-2.65-.53c-.3.12-.56.3-.79.53-.95.94-1 2.53.2 3.74L17.5 22l3.6-3.55c1.2-1.21 1.14-2.8.19-3.74Z"
                    />
                </svg>
            </svg>
        </svg>
    </g>
</svg>
