<svg xmlns="http://www.w3.org/2000/svg" width="1.5em" height="1.5em">
    <g id="tuiIconCombineLarge" xmlns="http://www.w3.org/2000/svg">
        <svg x="50%" y="50%" width="1.5em" height="1.5em" overflow="visible" viewBox="0 0 24 24">
            <svg x="-12" y="-12">
                <svg
                    xmlns="http://www.w3.org/2000/svg"
                    width="24"
                    height="24"
                    viewBox="0 0 24 24"
                    stroke="currentColor"
                    stroke-width="2"
                    stroke-linecap="round"
                    stroke-linejoin="round"
                >
                    <rect x="2" y="2" vector-effect="non-scaling-stroke" width="8" height="8" rx="2" />
                    <path vector-effect="non-scaling-stroke" d="M14 2c1.1 0 2 .9 2 2v4c0 1.1-.9 2-2 2" />
                    <path vector-effect="non-scaling-stroke" d="M20 2c1.1 0 2 .9 2 2v4c0 1.1-.9 2-2 2" />
                    <path vector-effect="non-scaling-stroke" d="M10 18H5c-1.7 0-3-1.3-3-3v-1" />
                    <polyline vector-effect="non-scaling-stroke" points="7 21 10 18 7 15" />
                    <rect x="14" y="14" vector-effect="non-scaling-stroke" width="8" height="8" rx="2" />
                </svg>
            </svg>
        </svg>
    </g>
</svg>
