<svg xmlns="http://www.w3.org/2000/svg" id="tuiIconSubscript" fill="none" viewBox="0 0 24 24"><path fill="currentColor" d="M21 21a1 1 0 100-2v2zm-4.667-5.105a1 1 0 102 0h-2zm.753 3.86l-.943-.332.943.332zm1.833-2.188l-.466-.885.466.885zM19.08 15h.103v-2h-.102v2zm-1.819 6H21v-2h-3.74v2zm-.927-5.254v.149h2v-.149h-2zm3.034.455l-.914.48.932 1.77.913-.48-.931-1.77zm-3.185 3.111l-.039.11 1.887.664.038-.11-1.886-.664zM17.26 19c.563 0 .956.556.77 1.086l-1.887-.663c-.271.77.3 1.577 1.117 1.577v-2zm2.49-3.343a.733.733 0 01-.383.544l.931 1.77a2.733 2.733 0 001.432-2.029l-1.98-.285zm-1.297 1.025a4.757 4.757 0 00-2.271 2.63l1.887.664c.23-.656.7-1.2 1.316-1.524l-.932-1.77zM19.182 15c.35 0 .619.31.569.657l1.98.285A2.575 2.575 0 0019.18 13v2zm-.102-2a2.747 2.747 0 00-2.747 2.746h2c0-.412.335-.746.747-.746v-2z"/><path stroke="currentColor" stroke-linecap="round" stroke-linejoin="round" stroke-width="2" d="M6 6l4 5m4 5l-4-5m0 0l-4 5m4-5l4-5"/></svg>