<svg xmlns="http://www.w3.org/2000/svg" width="1.5em" height="1.5em">
    <g id="tuiIconTheaterLarge" xmlns="http://www.w3.org/2000/svg">
        <svg x="50%" y="50%" width="1.5em" height="1.5em" overflow="visible" viewBox="0 0 24 24">
            <svg x="-12" y="-12">
                <svg
                    xmlns="http://www.w3.org/2000/svg"
                    width="24"
                    height="24"
                    viewBox="0 0 24 24"
                    stroke="currentColor"
                    stroke-width="2"
                    stroke-linecap="round"
                    stroke-linejoin="round"
                >
                    <path vector-effect="non-scaling-stroke" d="M2 10s3-3 3-8" />
                    <path vector-effect="non-scaling-stroke" d="M22 10s-3-3-3-8" />
                    <path vector-effect="non-scaling-stroke" d="M10 2c0 4.4-3.6 8-8 8" />
                    <path vector-effect="non-scaling-stroke" d="M14 2c0 4.4 3.6 8 8 8" />
                    <path vector-effect="non-scaling-stroke" d="M2 10s2 2 2 5" />
                    <path vector-effect="non-scaling-stroke" d="M22 10s-2 2-2 5" />
                    <path vector-effect="non-scaling-stroke" d="M8 15h8" />
                    <path vector-effect="non-scaling-stroke" d="M2 22v-1a2 2 0 0 1 2-2h4a2 2 0 0 1 2 2v1" />
                    <path vector-effect="non-scaling-stroke" d="M14 22v-1a2 2 0 0 1 2-2h4a2 2 0 0 1 2 2v1" />
                </svg>
            </svg>
        </svg>
    </g>
</svg>
