<svg xmlns="http://www.w3.org/2000/svg" width="1.5em" height="1.5em">
    <g id="tuiIconCuboid" xmlns="http://www.w3.org/2000/svg">
        <svg x="50%" y="50%" width="1.5em" height="1.5em" overflow="visible" viewBox="0 0 24 24">
            <svg x="-12" y="-12">
                <svg
                    xmlns="http://www.w3.org/2000/svg"
                    class="lucide lucide-cuboid"
                    width="24"
                    height="24"
                    viewBox="0 0 24 24"
                    fill="none"
                    stroke="currentColor"
                    stroke-width="2"
                    stroke-linecap="round"
                    stroke-linejoin="round"
                >
                    <path
                        d="m21.12 6.4-6.05-4.06a2 2 0 0 0-2.17-.05L2.95 8.41a2 2 0 0 0-.95 1.7v5.82a2 2 0 0 0 .88 1.66l6.05 4.07a2 2 0 0 0 2.17.05l9.95-6.12a2 2 0 0 0 .95-1.7V8.06a2 2 0 0 0-.88-1.66Z"
                    />
                    <path d="M10 22v-8L2.25 9.15" />
                    <path d="m10 14 11.77-6.87" />
                </svg>
            </svg>
        </svg>
    </g>
</svg>
