<svg xmlns="http://www.w3.org/2000/svg" width="24" height="24">
    <g id="tuiIconNotificationOffOutlineLarge"
        xmlns="http://www.w3.org/2000/svg" transform="translate(-12,-12)">
        <svg x="50%" y="50%">
            <svg width="24" height="24" viewBox="0 0 24 24" fill="none"
                xmlns="http://www.w3.org/2000/svg">
                <path fill-rule="evenodd" clip-rule="evenodd" d="M5 15.5833L3.54286 17L3 17.5278V19H5H18.3158L20.8344 21.2463C21.2466 21.6139 21.8787 21.5778 22.2463 21.1656C22.5371 20.8396 22.5752 20.376 22.3746 20.0145L4.13444 3.74631C4.04828 3.66946 3.97855 3.58104 3.9255 3.4855L3.66562 3.25371C3.25346 2.88611 2.62132 2.92223 2.25371 3.3344C1.88611 3.74656 1.92223 4.3787 2.3344 4.74631L5.71032 7.75726C5.25273 8.66792 5 9.68657 5 10.75V15.5833ZM19 14.3249V10.75C19 7.73611 16.97 5.08194 14 4.22639V3.94444C14 2.87056 13.1046 2 12 2C10.8954 2 10 2.87056 10 3.94444V4.22639C9.43925 4.38792 8.912 4.61357 8.4256 4.89365L10.0341 6.32828C10.202 6.25983 10.3753 6.19962 10.5536 6.14824L12 5.73159L13.4464 6.14824C15.5872 6.76495 17 8.65563 17 10.75V12.5411L19 14.3249ZM16.0734 17L7.28109 9.15822C7.09786 9.6617 7 10.1988 7 10.75V15.5833V16.4283L6.41197 17H16.0734ZM14 20C14 21.1046 13.1046 22 12 22C10.8954 22 10 21.1046 10 20H14Z" fill="currentColor"/>
            </svg>
        </svg>
    </g>
</svg>