<svg xmlns="http://www.w3.org/2000/svg" width="1em" height="1em" focusable="false">
    <g id="tuiIconCloud" xmlns="http://www.w3.org/2000/svg">
        <svg
            x="50%"
            y="50%"
            width="1em"
            height="1em"
            overflow="visible"
            viewBox="0 0 16 16"
            fill="none"
            xmlns="http://www.w3.org/2000/svg"
        >
            <svg x="-8" y="-8">
                <path
                    d="M11.819 6.75h-.802a4.982 4.982 0 0 0-1.42-2.372 5.12 5.12 0 0 0-2.481-1.275 5.176 5.176 0 0 0-2.793.208A5.085 5.085 0 0 0 2.065 4.94a4.923 4.923 0 0 0-.544 5.264c.42.84 1.07 1.546 1.879 2.04A5.157 5.157 0 0 0 6.093 13h5.726a3.21 3.21 0 0 0 2.25-.915c.596-.586.931-1.381.931-2.21s-.335-1.624-.932-2.21a3.21 3.21 0 0 0-2.249-.915z"
                    stroke="currentColor"
                    stroke-width="2"
                    stroke-linecap="round"
                    stroke-linejoin="round"
                />
            </svg>
        </svg>
    </g>
</svg>
