<svg xmlns="http://www.w3.org/2000/svg" width="1.5em" height="1.5em">
    <g id="tuiIconCircleDashedLarge" xmlns="http://www.w3.org/2000/svg">
        <svg x="50%" y="50%" width="1.5em" height="1.5em" overflow="visible" viewBox="0 0 24 24">
            <svg x="-12" y="-12">
                <svg
                    xmlns="http://www.w3.org/2000/svg"
                    width="24"
                    height="24"
                    viewBox="0 0 24 24"
                    stroke="currentColor"
                    stroke-width="2"
                    stroke-linecap="round"
                    stroke-linejoin="round"
                >
                    <path vector-effect="non-scaling-stroke" d="M10.1 2.182a10 10 0 0 1 3.8 0" />
                    <path vector-effect="non-scaling-stroke" d="M13.9 21.818a10 10 0 0 1-3.8 0" />
                    <path vector-effect="non-scaling-stroke" d="M17.609 3.721a10 10 0 0 1 2.69 2.7" />
                    <path vector-effect="non-scaling-stroke" d="M2.182 13.9a10 10 0 0 1 0-3.8" />
                    <path vector-effect="non-scaling-stroke" d="M20.279 17.609a10 10 0 0 1-2.7 2.69" />
                    <path vector-effect="non-scaling-stroke" d="M21.818 10.1a10 10 0 0 1 0 3.8" />
                    <path vector-effect="non-scaling-stroke" d="M3.721 6.391a10 10 0 0 1 2.7-2.69" />
                    <path vector-effect="non-scaling-stroke" d="M6.391 20.279a10 10 0 0 1-2.69-2.7" />
                </svg>
            </svg>
        </svg>
    </g>
</svg>
