<svg xmlns="http://www.w3.org/2000/svg" id="tuiIconMastercard" viewBox="0 0 32 32"><path fill="#FBB735" d="M12.833 14.986c2.211-1.468 3.667-3.967 3.667-6.804s-1.456-5.336-3.667-6.804A8.26 8.26 0 0117.417 0c4.556 0 8.25 3.663 8.25 8.182s-3.694 8.182-8.25 8.182a8.26 8.26 0 01-4.584-1.378z" transform="translate(3 8)"/><path fill="#F03727" d="M12.833 1.378c-2.21 1.468-3.666 3.967-3.666 6.804s1.455 5.336 3.666 6.804a8.26 8.26 0 01-4.583 1.378C3.694 16.364 0 12.7 0 8.182S3.694 0 8.25 0a8.26 8.26 0 014.583 1.378z" transform="translate(3 8)"/><path fill="#F6772D" d="M12.833 1.378C15.044 2.846 16.5 5.345 16.5 8.182s-1.456 5.336-3.667 6.804c-2.21-1.468-3.666-3.967-3.666-6.804s1.455-5.336 3.666-6.804z" transform="translate(3 8)"/></svg>