<svg xmlns="http://www.w3.org/2000/svg" width="1.5em" height="1.5em">
    <g id="tuiIconAmbulanceLarge" xmlns="http://www.w3.org/2000/svg">
        <svg x="50%" y="50%" width="1.5em" height="1.5em" overflow="visible" viewBox="0 0 24 24">
            <svg x="-12" y="-12">
                <svg
                    xmlns="http://www.w3.org/2000/svg"
                    width="24"
                    height="24"
                    viewBox="0 0 24 24"
                    stroke="currentColor"
                    stroke-width="2"
                    stroke-linecap="round"
                    stroke-linejoin="round"
                >
                    <path vector-effect="non-scaling-stroke" d="M10 10H6" />
                    <path
                        vector-effect="non-scaling-stroke"
                        d="M14 18V6a2 2 0 0 0-2-2H4a2 2 0 0 0-2 2v11a1 1 0 0 0 1 1h2"
                    />
                    <path
                        vector-effect="non-scaling-stroke"
                        d="M19 18h2a1 1 0 0 0 1-1v-3.28a1 1 0 0 0-.684-.948l-1.923-.641a1 1 0 0 1-.578-.502l-1.539-3.076A1 1 0 0 0 16.382 8H14"
                    />
                    <path vector-effect="non-scaling-stroke" d="M8 8v4" />
                    <path vector-effect="non-scaling-stroke" d="M9 18h6" />
                    <circle vector-effect="non-scaling-stroke" cx="17" cy="18" r="2" />
                    <circle vector-effect="non-scaling-stroke" cx="7" cy="18" r="2" />
                </svg>
            </svg>
        </svg>
    </g>
</svg>
