<svg xmlns="http://www.w3.org/2000/svg" width="1.5em" height="1.5em">
    <g id="tuiIconClover" xmlns="http://www.w3.org/2000/svg">
        <svg x="50%" y="50%" width="1.5em" height="1.5em" overflow="visible" viewBox="0 0 24 24">
            <svg x="-12" y="-12">
                <svg
                    xmlns="http://www.w3.org/2000/svg"
                    class="lucide lucide-clover"
                    width="24"
                    height="24"
                    viewBox="0 0 24 24"
                    fill="none"
                    stroke="currentColor"
                    stroke-width="2"
                    stroke-linecap="round"
                    stroke-linejoin="round"
                >
                    <path d="M16.17 7.83 2 22" />
                    <path
                        d="M4.02 12a2.827 2.827 0 1 1 3.81-4.17A2.827 2.827 0 1 1 12 4.02a2.827 2.827 0 1 1 4.17 3.81A2.827 2.827 0 1 1 19.98 12a2.827 2.827 0 1 1-3.81 4.17A2.827 2.827 0 1 1 12 19.98a2.827 2.827 0 1 1-4.17-3.81A1 1 0 1 1 4 12"
                    />
                    <path d="m7.83 7.83 8.34 8.34" />
                </svg>
            </svg>
        </svg>
    </g>
</svg>
