<svg xmlns="http://www.w3.org/2000/svg" id="tuiIconCloud" fill="none" viewBox="0 0 24 24"><path stroke="currentColor" stroke-linecap="round" stroke-linejoin="round" stroke-width="2" d="M11.819 6.75h-.802a4.982 4.982 0 00-1.42-2.372 5.12 5.12 0 00-2.481-1.275 5.176 5.176 0 00-2.793.208A5.085 5.085 0 002.065 4.94a4.923 4.923 0 00-.544 5.264c.42.84 1.07 1.546 1.879 2.04A5.157 5.157 0 006.093 13h5.726a3.21 3.21 0 002.25-.915c.596-.586.931-1.381.931-2.21s-.335-1.624-.932-2.21a3.21 3.21 0 00-2.249-.915z"/></svg>
