<svg xmlns="http://www.w3.org/2000/svg" width="1.5em" height="1.5em">
    <g id="tuiIconFileBoxLarge" xmlns="http://www.w3.org/2000/svg">
        <svg x="50%" y="50%" width="1.5em" height="1.5em" overflow="visible" viewBox="0 0 24 24">
            <svg x="-12" y="-12">
                <svg
                    xmlns="http://www.w3.org/2000/svg"
                    width="24"
                    height="24"
                    viewBox="0 0 24 24"
                    stroke="currentColor"
                    stroke-width="2"
                    stroke-linecap="round"
                    stroke-linejoin="round"
                >
                    <path vector-effect="non-scaling-stroke" d="M14.5 22H18a2 2 0 0 0 2-2V7l-5-5H6a2 2 0 0 0-2 2v4" />
                    <path vector-effect="non-scaling-stroke" d="M14 2v4a2 2 0 0 0 2 2h4" />
                    <path
                        vector-effect="non-scaling-stroke"
                        d="M3 13.1a2 2 0 0 0-1 1.76v3.24a2 2 0 0 0 .97 1.78L6 21.7a2 2 0 0 0 2.03.01L11 19.9a2 2 0 0 0 1-1.76V14.9a2 2 0 0 0-.97-1.78L8 11.3a2 2 0 0 0-2.03-.01Z"
                    />
                    <path vector-effect="non-scaling-stroke" d="M7 17v5" />
                    <path vector-effect="non-scaling-stroke" d="M11.7 14.2 7 17l-4.7-2.8" />
                </svg>
            </svg>
        </svg>
    </g>
</svg>
