<svg xmlns="http://www.w3.org/2000/svg" width="1em" height="1em"><g
        id="tuiIconHeadphones"
        xmlns="http://www.w3.org/2000/svg"
    >
            <svg x="50%" y="50%" width="1em" height="1em" overflow="visible" viewBox="0 0 16 16">
                <svg x="-8" y="-8"><svg
                    xmlns="http://www.w3.org/2000/svg"
                    width="16"
                    height="16"
                    viewBox="0 0 24 24"
                    stroke="currentColor"
                    stroke-width="3"
                    stroke-linecap="round"
                    stroke-linejoin="round"
                ><path d="M3 18v-6a9 9 0 0 1 18 0v6" /><path
                        d="M21 19a2 2 0 0 1-2 2h-1a2 2 0 0 1-2-2v-3a2 2 0 0 1 2-2h3zM3 19a2 2 0 0 0 2 2h1a2 2 0 0 0 2-2v-3a2 2 0 0 0-2-2H3z"
                    /></svg></svg>
            </svg>
        </g></svg>
