<svg xmlns="http://www.w3.org/2000/svg" width="1.5em" height="1.5em">
    <g id="tuiIconZapOffLarge" xmlns="http://www.w3.org/2000/svg">
        <svg x="50%" y="50%" width="1.5em" height="1.5em" overflow="visible" viewBox="0 0 24 24">
            <svg x="-12" y="-12">
                <svg
                    xmlns="http://www.w3.org/2000/svg"
                    width="24"
                    height="24"
                    viewBox="0 0 24 24"
                    stroke="currentColor"
                    stroke-width="2"
                    stroke-linecap="round"
                    stroke-linejoin="round"
                >
                    <path
                        vector-effect="non-scaling-stroke"
                        d="M10.513 4.856 13.12 2.17a.5.5 0 0 1 .86.46l-1.377 4.317"
                    />
                    <path vector-effect="non-scaling-stroke" d="M15.656 10H20a1 1 0 0 1 .78 1.63l-1.72 1.773" />
                    <path
                        vector-effect="non-scaling-stroke"
                        d="M16.273 16.273 10.88 21.83a.5.5 0 0 1-.86-.46l1.92-6.02A1 1 0 0 0 11 14H4a1 1 0 0 1-.78-1.63l4.507-4.643"
                    />
                    <path vector-effect="non-scaling-stroke" d="m2 2 20 20" />
                </svg>
            </svg>
        </svg>
    </g>
</svg>
