<svg xmlns="http://www.w3.org/2000/svg" width="1.5em" height="1.5em">
    <g id="tuiIconSandwich" xmlns="http://www.w3.org/2000/svg">
        <svg x="50%" y="50%" width="1.5em" height="1.5em" overflow="visible" viewBox="0 0 24 24">
            <svg x="-12" y="-12">
                <svg
                    xmlns="http://www.w3.org/2000/svg"
                    class="lucide lucide-sandwich"
                    width="24"
                    height="24"
                    viewBox="0 0 24 24"
                    fill="none"
                    stroke="currentColor"
                    stroke-width="2"
                    stroke-linecap="round"
                    stroke-linejoin="round"
                >
                    <path d="M3 11v3a1 1 0 0 0 1 1h16a1 1 0 0 0 1-1v-3" />
                    <path d="M12 19H4a1 1 0 0 1-1-1v-2a1 1 0 0 1 1-1h16a1 1 0 0 1 1 1v2a1 1 0 0 1-1 1h-3.83" />
                    <path d="m3 11 7.77-6.04a2 2 0 0 1 2.46 0L21 11H3Z" />
                    <path d="M12.97 19.77 7 15h12.5l-3.75 4.5a2 2 0 0 1-2.78.27Z" />
                </svg>
            </svg>
        </svg>
    </g>
</svg>
