<svg xmlns="http://www.w3.org/2000/svg" width="1.5em" height="1.5em">
    <g id="tuiIconFileOutputLarge" xmlns="http://www.w3.org/2000/svg">
        <svg x="50%" y="50%" width="1.5em" height="1.5em" overflow="visible" viewBox="0 0 24 24">
            <svg x="-12" y="-12">
                <svg
                    xmlns="http://www.w3.org/2000/svg"
                    width="24"
                    height="24"
                    viewBox="0 0 24 24"
                    stroke="currentColor"
                    stroke-width="2"
                    stroke-linecap="round"
                    stroke-linejoin="round"
                >
                    <path vector-effect="non-scaling-stroke" d="M14 2v4a2 2 0 0 0 2 2h4" />
                    <path vector-effect="non-scaling-stroke" d="M4 7V4a2 2 0 0 1 2-2 2 2 0 0 0-2 2" />
                    <path
                        vector-effect="non-scaling-stroke"
                        d="M4.063 20.999a2 2 0 0 0 2 1L18 22a2 2 0 0 0 2-2V7l-5-5H6"
                    />
                    <path vector-effect="non-scaling-stroke" d="m5 11-3 3" />
                    <path vector-effect="non-scaling-stroke" d="m5 17-3-3h10" />
                </svg>
            </svg>
        </svg>
    </g>
</svg>
