<svg
    xmlns="http://www.w3.org/2000/svg"
    style="width: inherit; height: inherit; max-width: 2rem; max-height: 2rem"
    preserveAspectRatio="xMidYMid meet"
>
    <g id="tuiIconElectronMono" xmlns="http://www.w3.org/2000/svg">
        <svg
            x="50%"
            y="50%"
            xmlns="http://www.w3.org/2000/svg"
            overflow="visible"
            viewBox="0 0 32 32"
            style="width: inherit; height: inherit; max-width: 2rem; max-height: 2rem"
            preserveAspectRatio="xMidYMid meet"
            stroke="none"
        >
            <svg x="-16" y="-16">
                <path
                    vector-effect="non-scaling-stroke"
                    d="M11.2571 21.3023L12.8746 12.1589H15.4617L13.8431 21.3023H11.2571Z"
                    fill="currentColor"
                />
                <path
                    vector-effect="non-scaling-stroke"
                    d="M23.2262 12.384C22.7136 12.1988 21.9105 12 20.9075 12C18.3512 12 16.5504 13.2401 16.5351 15.0174C16.5207 16.3313 17.8206 17.0642 18.802 17.5015C19.809 17.9497 20.1475 18.2355 20.1427 18.6357C20.1363 19.2486 19.3386 19.5286 18.5949 19.5286C17.5595 19.5286 17.0093 19.39 16.1597 19.0487L15.8264 18.9033L15.4633 20.9502C16.0675 21.2054 17.1849 21.4266 18.3451 21.438C21.0646 21.438 22.83 20.2121 22.8501 18.3142C22.8598 17.274 22.1706 16.4825 20.678 15.8299C19.7737 15.4069 19.2199 15.1247 19.2258 14.6964C19.2258 14.3163 19.6945 13.9099 20.7073 13.9099C21.5533 13.8973 22.1661 14.075 22.6436 14.2602L22.8755 14.3657L23.2262 12.384Z"
                    fill="currentColor"
                />
                <path
                    vector-effect="non-scaling-stroke"
                    d="M29.8602 12.1676H27.8611C27.2418 12.1676 26.7784 12.3305 26.5064 12.9259L22.6642 21.3052H25.3809C25.3809 21.3052 25.8251 20.1785 25.9256 19.9312C26.2225 19.9312 28.8615 19.9351 29.2388 19.9351C29.3162 20.2552 29.5536 21.3052 29.5536 21.3052H31.9542L29.8602 12.1676ZM26.6701 18.061C26.884 17.5342 27.7008 15.5051 27.7008 15.5051C27.6855 15.5294 27.9132 14.9757 28.0438 14.6324L28.2187 15.4207C28.2187 15.4207 28.7141 17.6033 28.8176 18.061H26.6701V18.061Z"
                    fill="currentColor"
                />
                <path
                    vector-effect="non-scaling-stroke"
                    d="M9.0873 12.1656L6.55445 18.4007L6.28458 17.1336C5.81307 15.6729 4.34397 14.0904 2.7016 13.2981L5.01757 21.2944L7.75479 21.2914L11.8277 12.1656H9.0873Z"
                    fill="currentColor"
                />
                <path
                    vector-effect="non-scaling-stroke"
                    d="M4.2047 12.1599H0.0330182L0 12.3502C3.24553 13.107 5.39307 14.936 6.28451 17.1336L5.37741 12.9318C5.2208 12.3529 4.76659 12.1801 4.2047 12.1599Z"
                    fill="currentColor"
                />
                <path
                    vector-effect="non-scaling-stroke"
                    d="M11.8552 26.3926H10.2076V27.8594H12.0506V28.3004H9.65234V24.231H11.9561V24.672H10.2076V25.9577H11.8552V26.3926ZM12.9018 24.0139H13.4571V28.3003H12.9018V24.0139ZM14.8578 26.9358C14.8703 27.6545 15.3439 27.9502 15.9053 27.9502C16.3032 27.9502 16.5493 27.8837 16.7515 27.7994L16.8524 28.1798C16.6566 28.2641 16.316 28.3667 15.8297 28.3667C14.8896 28.3667 14.3279 27.7691 14.3279 26.8877C14.3279 26.0062 14.8703 25.3179 15.7604 25.3179C16.764 25.3179 17.0229 26.1512 17.0229 26.6884C17.0229 26.7969 17.0165 26.8754 17.0036 26.9358H14.8578ZM16.4862 26.5554C16.4926 26.2235 16.341 25.6982 15.7162 25.6982C15.1481 25.6982 14.9081 26.1873 14.8639 26.5554H16.4862ZM20.0448 28.1977C19.8997 28.2642 19.5777 28.3669 19.1675 28.3669C18.246 28.3669 17.6465 27.7692 17.6465 26.8755C17.6465 25.976 18.2899 25.318 19.2874 25.318C19.6155 25.318 19.9058 25.3961 20.0573 25.4749L19.9314 25.8794C19.7984 25.8129 19.5901 25.7403 19.2874 25.7403C18.5866 25.7403 18.2082 26.2414 18.2082 26.8455C18.2082 27.5216 18.6626 27.9381 19.2685 27.9381C19.5841 27.9381 19.7923 27.8658 19.95 27.7993L20.0448 28.1977ZM21.6028 24.6779V25.3782H22.3977V25.7825H21.6028V27.3584C21.6028 27.721 21.7101 27.926 22.0193 27.926C22.1705 27.926 22.2593 27.9141 22.3413 27.8895L22.3666 28.2944C22.2593 28.3306 22.0888 28.3667 21.8741 28.3667C21.6153 28.3667 21.407 28.2821 21.2747 28.1436C21.1231 27.9803 21.06 27.721 21.06 27.3768V25.7825H20.5864V25.3782H21.06V24.8348L21.6028 24.6779ZM23.1736 26.29C23.1736 25.9458 23.1668 25.65 23.1482 25.3782H23.6343L23.6596 25.9577H23.6782C23.8173 25.5654 24.1579 25.3178 24.5302 25.3178C24.5872 25.3178 24.6314 25.3239 24.6821 25.3297V25.8311C24.625 25.8189 24.5686 25.8189 24.4924 25.8189C24.1015 25.8189 23.8234 26.0966 23.7477 26.4953C23.7352 26.5676 23.7288 26.658 23.7288 26.7429V28.3005H23.1736V26.29ZM28.0958 26.8151C28.0958 27.8958 27.3067 28.3668 26.5745 28.3668C25.7539 28.3668 25.1105 27.787 25.1105 26.8635C25.1105 25.8914 25.7857 25.3179 26.6251 25.3179C27.5024 25.3179 28.0958 25.9275 28.0958 26.8151ZM25.6783 26.8455C25.6783 27.4854 26.057 27.9684 26.5998 27.9684C27.1301 27.9684 27.5274 27.4912 27.5274 26.8332C27.5274 26.3382 27.2688 25.7161 26.6123 25.7161C25.9625 25.7161 25.6783 26.2959 25.6783 26.8455ZM28.9469 26.169C28.9469 25.8613 28.9402 25.6198 28.9216 25.3783H29.4138L29.4455 25.8613H29.458C29.6095 25.5895 29.9629 25.3179 30.4679 25.3179C30.8905 25.3179 31.5471 25.5594 31.5471 26.5613V28.3003H30.9918V26.6159C30.9918 26.1451 30.8088 25.7525 30.285 25.7525C29.9251 25.7525 29.6409 26.0001 29.5403 26.2959C29.5147 26.3624 29.5022 26.4528 29.5022 26.5435V28.3003H28.9469V26.169Z"
                    fill="currentColor"
                />
            </svg>
        </svg>
    </g>
</svg>
