<svg xmlns="http://www.w3.org/2000/svg" width="1.5em" height="1.5em">
    <g id="tuiIconReplaceAll" xmlns="http://www.w3.org/2000/svg">
        <svg x="50%" y="50%" width="1.5em" height="1.5em" overflow="visible" viewBox="0 0 24 24">
            <svg x="-12" y="-12">
                <svg
                    xmlns="http://www.w3.org/2000/svg"
                    class="lucide lucide-replace-all"
                    width="24"
                    height="24"
                    viewBox="0 0 24 24"
                    fill="none"
                    stroke="currentColor"
                    stroke-width="2"
                    stroke-linecap="round"
                    stroke-linejoin="round"
                >
                    <path d="M14 4c0-1.1.9-2 2-2" />
                    <path d="M20 2c1.1 0 2 .9 2 2" />
                    <path d="M22 8c0 1.1-.9 2-2 2" />
                    <path d="M16 10c-1.1 0-2-.9-2-2" />
                    <path d="m3 7 3 3 3-3" />
                    <path d="M6 10V5c0-1.7 1.3-3 3-3h1" />
                    <rect x="2" y="14" width="8" height="8" rx="2" />
                    <path d="M14 14c1.1 0 2 .9 2 2v4c0 1.1-.9 2-2 2" />
                    <path d="M20 14c1.1 0 2 .9 2 2v4c0 1.1-.9 2-2 2" />
                </svg>
            </svg>
        </svg>
    </g>
</svg>
