<svg xmlns="http://www.w3.org/2000/svg" width="1.5em" height="1.5em">
    <g id="tuiIconPiggyBank" xmlns="http://www.w3.org/2000/svg">
        <svg x="50%" y="50%" width="1.5em" height="1.5em" overflow="visible" viewBox="0 0 24 24">
            <svg x="-12" y="-12">
                <svg
                    xmlns="http://www.w3.org/2000/svg"
                    class="lucide lucide-piggy-bank"
                    width="24"
                    height="24"
                    viewBox="0 0 24 24"
                    fill="none"
                    stroke="currentColor"
                    stroke-width="2"
                    stroke-linecap="round"
                    stroke-linejoin="round"
                >
                    <path
                        d="M19 5c-1.5 0-2.8 1.4-3 2-3.5-1.5-11-.3-11 5 0 1.8 0 3 2 4.5V20h4v-2h3v2h4v-4c1-.5 1.7-1 2-2h2v-4h-2c0-1-.5-1.5-1-2V5z"
                    />
                    <path d="M2 9v1c0 1.1.9 2 2 2h1" />
                    <path d="M16 11h.01" />
                </svg>
            </svg>
        </svg>
    </g>
</svg>
