<svg xmlns="http://www.w3.org/2000/svg" width="1.5em" height="1.5em">
    <g id="tuiIconKeySquareLarge" xmlns="http://www.w3.org/2000/svg">
        <svg x="50%" y="50%" width="1.5em" height="1.5em" overflow="visible" viewBox="0 0 24 24">
            <svg x="-12" y="-12">
                <svg
                    xmlns="http://www.w3.org/2000/svg"
                    width="24"
                    height="24"
                    viewBox="0 0 24 24"
                    stroke="currentColor"
                    stroke-width="2"
                    stroke-linecap="round"
                    stroke-linejoin="round"
                >
                    <path
                        vector-effect="non-scaling-stroke"
                        d="M12.4 2.7c.9-.9 2.5-.9 3.4 0l5.5 5.5c.9.9.9 2.5 0 3.4l-3.7 3.7c-.9.9-2.5.9-3.4 0L8.7 9.8c-.9-.9-.9-2.5 0-3.4Z"
                    />
                    <path vector-effect="non-scaling-stroke" d="m14 7 3 3" />
                    <path vector-effect="non-scaling-stroke" d="M9.4 10.6 2 18v3c0 .6.4 1 1 1h4v-3h3v-3h2l1.4-1.4" />
                </svg>
            </svg>
        </svg>
    </g>
</svg>
