<svg xmlns="http://www.w3.org/2000/svg" width="1.5em" height="1.5em">
    <g id="tuiIconAlignCenterHorizontalLarge" xmlns="http://www.w3.org/2000/svg">
        <svg x="50%" y="50%" width="1.5em" height="1.5em" overflow="visible" viewBox="0 0 24 24">
            <svg x="-12" y="-12">
                <svg
                    xmlns="http://www.w3.org/2000/svg"
                    width="24"
                    height="24"
                    viewBox="0 0 24 24"
                    stroke="currentColor"
                    stroke-width="2"
                    stroke-linecap="round"
                    stroke-linejoin="round"
                >
                    <path vector-effect="non-scaling-stroke" d="M2 12h20" />
                    <path vector-effect="non-scaling-stroke" d="M10 16v4a2 2 0 0 1-2 2H6a2 2 0 0 1-2-2v-4" />
                    <path vector-effect="non-scaling-stroke" d="M10 8V4a2 2 0 0 0-2-2H6a2 2 0 0 0-2 2v4" />
                    <path vector-effect="non-scaling-stroke" d="M20 16v1a2 2 0 0 1-2 2h-2a2 2 0 0 1-2-2v-1" />
                    <path vector-effect="non-scaling-stroke" d="M14 8V7c0-1.1.9-2 2-2h2a2 2 0 0 1 2 2v1" />
                </svg>
            </svg>
        </svg>
    </g>
</svg>
