<svg xmlns="http://www.w3.org/2000/svg" width="1.5em" height="1.5em">
    <g id="tuiIconSnail" xmlns="http://www.w3.org/2000/svg">
        <svg x="50%" y="50%" width="1.5em" height="1.5em" overflow="visible" viewBox="0 0 24 24">
            <svg x="-12" y="-12">
                <svg
                    xmlns="http://www.w3.org/2000/svg"
                    class="lucide lucide-snail"
                    width="24"
                    height="24"
                    viewBox="0 0 24 24"
                    fill="none"
                    stroke="currentColor"
                    stroke-width="2"
                    stroke-linecap="round"
                    stroke-linejoin="round"
                >
                    <path d="M2 13a6 6 0 1 0 12 0 4 4 0 1 0-8 0 2 2 0 0 0 4 0" />
                    <circle cx="10" cy="13" r="8" />
                    <path d="M2 21h12c4.4 0 8-3.6 8-8V7a2 2 0 1 0-4 0v6" />
                    <path d="M18 3 19.1 5.2" />
                    <path d="M22 3 20.9 5.2" />
                </svg>
            </svg>
        </svg>
    </g>
</svg>
