<svg xmlns="http://www.w3.org/2000/svg" width="1.5em" height="1.5em">
    <g id="tuiIconFileSymlinkLarge" xmlns="http://www.w3.org/2000/svg">
        <svg x="50%" y="50%" width="1.5em" height="1.5em" overflow="visible" viewBox="0 0 24 24">
            <svg x="-12" y="-12">
                <svg
                    xmlns="http://www.w3.org/2000/svg"
                    width="24"
                    height="24"
                    viewBox="0 0 24 24"
                    stroke="currentColor"
                    stroke-width="2"
                    stroke-linecap="round"
                    stroke-linejoin="round"
                >
                    <path vector-effect="non-scaling-stroke" d="m10 18 3-3-3-3" />
                    <path vector-effect="non-scaling-stroke" d="M14 2v4a2 2 0 0 0 2 2h4" />
                    <path
                        vector-effect="non-scaling-stroke"
                        d="M4 11V4a2 2 0 0 1 2-2h9l5 5v13a2 2 0 0 1-2 2H6a2 2 0 0 1-2-2v-3a2 2 0 0 1 2-2h7"
                    />
                </svg>
            </svg>
        </svg>
    </g>
</svg>
