<svg xmlns="http://www.w3.org/2000/svg" width="1.5em" height="1.5em">
    <g id="tuiIconTrainFrontTunnel" xmlns="http://www.w3.org/2000/svg">
        <svg x="50%" y="50%" width="1.5em" height="1.5em" overflow="visible" viewBox="0 0 24 24">
            <svg x="-12" y="-12">
                <svg
                    xmlns="http://www.w3.org/2000/svg"
                    class="lucide lucide-train-front-tunnel"
                    width="24"
                    height="24"
                    viewBox="0 0 24 24"
                    fill="none"
                    stroke="currentColor"
                    stroke-width="2"
                    stroke-linecap="round"
                    stroke-linejoin="round"
                >
                    <path d="M2 22V12a10 10 0 1 1 20 0v10" />
                    <path d="M15 6.8v1.4a3 2.8 0 1 1-6 0V6.8" />
                    <path d="M10 15h.01" />
                    <path d="M14 15h.01" />
                    <path d="M10 19a4 4 0 0 1-4-4v-3a6 6 0 1 1 12 0v3a4 4 0 0 1-4 4Z" />
                    <path d="m9 19-2 3" />
                    <path d="m15 19 2 3" />
                </svg>
            </svg>
        </svg>
    </g>
</svg>
