<svg xmlns="http://www.w3.org/2000/svg" width="1.5em" height="1.5em">
    <g id="tuiIconVenetianMaskLarge" xmlns="http://www.w3.org/2000/svg">
        <svg x="50%" y="50%" width="1.5em" height="1.5em" overflow="visible" viewBox="0 0 24 24">
            <svg x="-12" y="-12">
                <svg
                    xmlns="http://www.w3.org/2000/svg"
                    width="24"
                    height="24"
                    viewBox="0 0 24 24"
                    stroke="currentColor"
                    stroke-width="2"
                    stroke-linecap="round"
                    stroke-linejoin="round"
                >
                    <path
                        vector-effect="non-scaling-stroke"
                        d="M2 12a5 5 0 0 0 5 5 8 8 0 0 1 5 2 8 8 0 0 1 5-2 5 5 0 0 0 5-5V7h-5a8 8 0 0 0-5 2 8 8 0 0 0-5-2H2Z"
                    />
                    <path vector-effect="non-scaling-stroke" d="M6 11c1.5 0 3 .5 3 2-2 0-3 0-3-2Z" />
                    <path vector-effect="non-scaling-stroke" d="M18 11c-1.5 0-3 .5-3 2 2 0 3 0 3-2Z" />
                </svg>
            </svg>
        </svg>
    </g>
</svg>
