<svg xmlns="http://www.w3.org/2000/svg" width="1.5em" height="1.5em">
    <g id="tuiIconSaladLarge" xmlns="http://www.w3.org/2000/svg">
        <svg x="50%" y="50%" width="1.5em" height="1.5em" overflow="visible" viewBox="0 0 24 24">
            <svg x="-12" y="-12">
                <svg
                    xmlns="http://www.w3.org/2000/svg"
                    width="24"
                    height="24"
                    viewBox="0 0 24 24"
                    stroke="currentColor"
                    stroke-width="2"
                    stroke-linecap="round"
                    stroke-linejoin="round"
                >
                    <path vector-effect="non-scaling-stroke" d="M7 21h10" />
                    <path vector-effect="non-scaling-stroke" d="M12 21a9 9 0 0 0 9-9H3a9 9 0 0 0 9 9Z" />
                    <path
                        vector-effect="non-scaling-stroke"
                        d="M11.38 12a2.4 2.4 0 0 1-.4-4.77 2.4 2.4 0 0 1 3.2-2.77 2.4 2.4 0 0 1 3.47-.63 2.4 2.4 0 0 1 3.37 3.37 2.4 2.4 0 0 1-1.1 3.7 2.51 2.51 0 0 1 .03 1.1"
                    />
                    <path vector-effect="non-scaling-stroke" d="m13 12 4-4" />
                    <path vector-effect="non-scaling-stroke" d="M10.9 7.25A3.99 3.99 0 0 0 4 10c0 .73.2 1.41.54 2" />
                </svg>
            </svg>
        </svg>
    </g>
</svg>
