<svg
    xmlns="http://www.w3.org/2000/svg"
    width="24"
    height="24"
    viewBox="0 0 24 24"
    fill="none"
    stroke="currentColor"
    stroke-width="2"
    stroke-linecap="round"
    stroke-linejoin="round"
>
    <path vector-effect="non-scaling-stroke" d="m19 5 3-3" />
    <path vector-effect="non-scaling-stroke" d="m2 22 3-3" />
    <path
        vector-effect="non-scaling-stroke"
        d="M6.3 20.3a2.4 2.4 0 0 0 3.4 0L12 18l-6-6-2.3 2.3a2.4 2.4 0 0 0 0 3.4Z"
    />
    <path vector-effect="non-scaling-stroke" d="M7.5 13.5 10 11" />
    <path vector-effect="non-scaling-stroke" d="M10.5 16.5 13 14" />
    <path vector-effect="non-scaling-stroke" d="m12 6 6 6 2.3-2.3a2.4 2.4 0 0 0 0-3.4l-2.6-2.6a2.4 2.4 0 0 0-3.4 0Z" />
</svg>
