<svg width="600" height="632" viewBox="100 0 391 632" xmlns="http://www.w3.org/2000/svg">
    <path d="M0.000497066 312.601C0.268777 312.839 0.541986 313.073 0.808145 313.313C22.6808 333.048 39.3038 365.695 45.2769 400.645C46.818 409.677 47.5908 418.79 47.5717 427.732C47.5682 430.093 47.5079 432.458 47.3986 434.765C46.7241 448.49 46.9313 463.519 58.0448 468.146C66.1848 471.539 75.365 466.47 81.6321 461.619C82.74 460.762 83.8402 459.874 84.9521 458.984C90.8725 454.224 96.9926 449.301 104.564 448.266C111.456 447.325 118.092 449.821 124.51 452.238C126.681 453.055 128.927 453.9 131.128 454.589C139.63 457.249 150.623 456.717 154.655 449.254C157.421 444.13 155.804 438.365 154.094 432.263C152.993 428.337 151.855 424.277 151.9 420.267C151.987 412.906 156.012 406.576 159.904 400.453C162.007 397.149 164.178 393.734 165.704 390.2C171.821 376.048 167.981 357.423 155.918 342.75C144.921 329.366 129.59 320.614 114.769 312.152C100.55 304.033 84.4321 294.831 73.2357 281.146C68.2349 275.029 64.3797 267.592 60.6526 260.402C56.428 252.247 52.0603 243.815 46.057 237.489C37.0236 227.964 22.673 222.49 8.79744 217.197C5.76988 216.043 2.82831 214.92 0.000488427 213.779L0.000488281 212.116C2.99295 213.333 6.12154 214.528 9.34741 215.758C23.3855 221.111 37.9057 226.649 47.1798 236.428C53.3301 242.914 57.7508 251.444 62.0243 259.693C65.7137 266.815 69.5313 274.178 74.4339 280.171C85.4458 293.634 101.432 302.761 115.538 310.812C130.48 319.346 145.931 328.169 157.108 341.771C169.537 356.887 173.464 376.134 167.121 390.81C165.546 394.458 163.341 397.924 161.209 401.279C157.259 407.492 153.525 413.363 153.445 420.286C153.4 424.074 154.508 428.025 155.578 431.847C157.297 437.975 159.076 444.313 156.012 449.984C151.576 458.215 139.765 458.905 130.668 456.06C128.422 455.358 126.157 454.506 123.968 453.68C117.727 451.332 111.249 448.904 104.775 449.794C97.6295 450.771 91.6752 455.556 85.9169 460.185C84.8014 461.08 83.6894 461.974 82.574 462.838C75.9906 467.935 66.2866 473.249 57.4493 469.569C44.4062 464.138 45.3485 444.981 45.8533 434.69C45.9666 432.408 46.0231 430.067 46.0269 427.728C46.0457 418.873 45.2805 409.848 43.7544 400.905C37.8623 366.405 21.5128 334.198 0.000497246 314.666L0.000497066 312.601Z" fill="black"/>
    <path d="M179.381 632C176.617 630.417 173.782 629.099 170.886 628.19C163.605 625.905 155.857 625.625 148.357 625.354C143.828 625.19 139.143 625.021 134.583 624.415C127.212 623.436 121.567 621.606 116.815 618.653C115.224 617.665 113.306 615.953 111.083 613.97C104.985 608.534 97.3989 601.78 91.8893 605.512C89.8467 606.897 88.9234 609.307 88.5089 611.083C87.4725 615.526 88.2263 620.544 90.8756 626.876C91.6034 628.614 92.2431 630.306 92.8719 632L91.2171 632C90.6513 630.5 90.0955 629.008 89.451 627.471C86.6698 620.827 85.8935 615.507 87.009 610.733C87.4838 608.69 88.5654 605.903 91.0225 604.236C97.5308 599.829 105.957 607.331 112.108 612.82C114.278 614.754 116.155 616.425 117.629 617.344C122.189 620.177 127.642 621.937 134.787 622.887C139.275 623.483 143.922 623.651 148.414 623.813C156.015 624.088 163.869 624.372 171.346 626.718C175.131 627.906 178.819 629.733 182.369 632L179.381 632Z" fill="black"/>
    <path d="M278.603 632L263.136 612.927C261.414 610.803 259.368 608.547 256.843 608.547C256.801 608.547 256.756 608.549 256.711 608.549C254.08 608.63 252.128 611.345 251.759 613.925C251.386 616.491 252.106 619.16 252.803 621.739L252.999 622.475C253.84 625.634 254.491 628.816 255.045 632L253.486 632C252.947 628.947 252.313 625.897 251.506 622.87L251.31 622.14C250.576 619.41 249.814 616.584 250.229 613.705C250.681 610.54 253.093 607.119 256.665 607.01C259.835 606.842 262.201 609.328 264.334 611.956L280.589 632L278.603 632Z" fill="black"/>
    <path d="M0.000249776 66.2169C0.183721 62.2932 0.600835 58.3763 1.26368 54.4858C1.77997 51.4525 2.43592 48.3609 3.07257 45.371C5.13416 35.6521 7.26691 25.6059 4.95703 16.0226C3.92987 11.7584 2.1601 8.05711 0.000244387 4.57085L0.000244141 1.75777C2.78876 5.91963 5.19257 10.412 6.45691 15.6613C8.84998 25.5833 6.67926 35.8045 4.58374 45.689C3.95063 48.6657 3.29889 51.7423 2.78638 54.7454C-5.6137 104.026 25.9667 157.612 73.1865 174.201C80.3767 176.726 87.9818 178.548 95.338 180.307C105.984 182.857 116.996 185.493 127.065 190.329C131.87 192.636 137.252 195.547 140.229 200.898C142.053 204.178 143.688 207.637 145.271 210.982C146.666 213.929 148.109 216.975 149.665 219.873C156.456 232.514 164.148 244.86 172.522 256.571C190.011 281.033 210.576 300.826 236.082 323.019C248.216 333.577 257.02 343.126 263.78 353.071C278.395 374.556 286.011 406.988 270.096 431.01C267.884 434.348 265.246 437.678 262.458 441.203C253.635 452.346 244.512 463.867 247.105 477.553C248.051 482.547 250.918 486.857 253.952 491.421C256.409 495.114 258.949 498.932 260.426 503.194C262.371 508.816 263.162 514.394 263.931 519.789C265.122 528.156 266.249 536.059 271.419 543.573C280.17 556.291 289.776 557.766 301.933 559.633C306.15 560.282 310.514 560.952 315.229 562.149C320.817 563.566 326.293 565.801 331.588 567.963C339.735 571.288 348.162 574.728 357.071 575.19C371.772 575.937 381.197 567.662 391.15 558.884C396.508 554.161 402.044 549.276 408.545 545.81C418.686 540.402 430.252 538.24 440.231 536.838C442.025 536.586 443.826 536.347 445.624 536.108C452.249 535.226 459.096 534.313 465.688 532.766C469.969 531.765 473.914 529.919 477.728 528.134C480.89 526.655 484.161 525.125 487.598 524.086C501.82 519.79 521.081 523.539 533.853 529.167C535.846 530.047 537.836 530.964 539.834 531.882C548.84 536.031 558.156 540.321 568.034 541.108C577.617 541.87 585.131 538.504 593.091 534.942C597.602 532.923 602.263 530.836 607.392 529.513C614.632 527.648 622.142 528.794 629.853 530.236C638.328 531.824 646.517 533.623 653.515 538.127C662.635 544 667.094 550.228 666.766 556.643C666.053 570.528 643.397 582.023 628.406 589.629C625.097 591.307 622.244 592.756 620.096 593.99C612.499 598.359 605.907 606.131 608.323 613.639C610.652 620.894 620.077 623.544 628.153 622.379C672.75 616.049 718.64 599.137 754.06 575.977C768.637 566.446 787.691 551.619 784.864 532.994C783.692 525.262 782.23 515.639 787.819 509.255C791.81 504.699 798.872 502.793 807.182 504.031C810.046 504.459 812.887 505.17 815.638 505.858C819.297 506.775 823.081 507.721 826.868 507.973C831.76 508.305 836.798 507.473 841.664 506.673C847.569 505.704 853.685 504.703 859.696 505.715C872.053 507.81 880.276 517.621 884.079 523.283C888.71 530.179 891.895 537.995 894.973 545.554C895.674 547.274 896.375 548.992 897.091 550.701C907.127 574.618 920.626 596.867 937.211 616.826C941.36 621.822 946.316 627.437 952.681 630.82C953.517 631.264 954.366 631.657 955.222 632L951.674 632C945.206 628.471 940.2 622.842 936.02 617.81C919.341 597.733 905.763 575.354 895.667 551.295C894.947 549.583 894.246 547.859 893.545 546.134C890.493 538.648 887.342 530.907 882.797 524.141C879.134 518.684 871.228 509.232 859.44 507.236C853.674 506.259 847.697 507.243 841.916 508.194C836.968 509.008 831.888 509.849 826.763 509.513C822.84 509.249 818.988 508.286 815.265 507.354C812.548 506.675 809.744 505.971 806.955 505.556C803.27 505.012 794.15 504.368 788.979 510.271C783.866 516.115 785.267 525.347 786.39 532.764C789.349 552.266 769.839 567.502 754.904 577.268C719.303 600.544 673.184 617.545 628.372 623.907C619.659 625.141 609.442 622.181 606.853 614.109C604.178 605.783 611.187 597.334 619.327 592.654C621.509 591.399 624.381 589.943 627.705 588.255C642.379 580.809 664.557 569.557 665.224 556.564C665.522 550.742 661.301 544.975 652.679 539.422C645.918 535.07 637.887 533.31 629.566 531.752C622.044 530.339 614.714 529.216 607.777 531.007C602.776 532.296 598.174 534.356 593.72 536.349C585.576 539.996 577.843 543.443 567.913 542.643C557.757 541.836 548.317 537.487 539.185 533.282C537.199 532.367 535.217 531.455 533.227 530.578C520.72 525.065 501.892 521.375 488.042 525.561C484.715 526.568 481.497 528.073 478.384 529.53C474.495 531.348 470.477 533.229 466.042 534.268C459.375 535.83 452.49 536.748 445.831 537.636C444.033 537.875 442.236 538.114 440.446 538.366C430.602 539.747 419.199 541.876 409.272 547.169C402.934 550.55 397.462 555.375 392.171 560.039C382.422 568.635 372.322 577.552 356.988 576.73C347.819 576.254 339.272 572.763 331.004 569.389C325.758 567.248 320.331 565.033 314.852 563.643C310.205 562.463 305.883 561.799 301.699 561.157C289.666 559.309 279.277 557.714 270.145 544.446C264.772 536.635 263.622 528.557 262.405 520.005C261.648 514.684 260.864 509.18 258.964 503.698C257.555 499.623 255.071 495.886 252.667 492.275C249.679 487.783 246.592 483.139 245.59 477.839C242.865 463.463 252.629 451.128 261.248 440.247C264.018 436.749 266.633 433.444 268.808 430.159C284.33 406.732 276.827 374.996 262.507 353.936C255.818 344.105 247.101 334.649 235.064 324.182C209.483 301.916 188.839 282.051 171.263 257.467C162.851 245.703 155.13 233.299 148.309 220.603C146.729 217.67 145.279 214.604 143.877 211.641C142.305 208.318 140.681 204.882 138.88 201.647C136.121 196.691 130.988 193.923 126.395 191.718C116.476 186.953 105.547 184.338 94.9762 181.807C87.5861 180.038 79.9397 178.207 72.674 175.654C31.457 161.177 1.99006 118.907 0.000250591 75.5447L0.000249776 66.2169Z" fill="black"/>
    <path d="M248.551 15.5784C245.453 15.7422 242.435 14.3723 239.748 11.4275C236.471 7.83659 233.954 3.91024 231.629 0.000125086L233.424 0.000124929C235.578 3.57858 237.925 7.14365 240.886 10.3888C243.245 12.9742 245.819 14.1955 248.457 14.0392C253.59 13.7288 258.304 8.54855 261.319 4.32046C262.156 2.85722 263.096 1.41514 264.117 0.000122246L266.124 0.00012207C264.806 1.7296 263.588 3.45676 262.619 5.14837C259.371 9.71519 254.291 15.2304 248.551 15.5784Z" fill="black"/>
    <path d="M86.0662 35.447C88.723 31.1625 91.4703 26.7312 93.5731 22.0891C95.3293 18.2185 96.6898 14.0901 98.0012 10.0991C99.0988 6.76056 100.239 3.31288 101.608 0.000182297L103.308 0.000182149C103.249 0.137083 103.165 0.255391 103.108 0.393448C101.724 3.7127 100.579 7.2032 99.4672 10.5789C98.1406 14.6113 96.7726 18.7792 94.9826 22.7251C92.8383 27.4575 90.0609 31.9321 87.3814 36.258C85.06 39.9988 82.6594 43.8675 80.6998 47.8623C75.5294 58.3827 75.4125 70.0453 80.372 79.8601C85.5047 90.0155 95.3707 97.0943 107.441 99.2827C118.815 101.345 130.629 99.7155 142.048 98.1405C145.051 97.7246 148.051 97.3107 151.043 96.9607C175.799 94.061 204.018 99.5404 208.955 123.616C209.829 127.888 210.108 132.319 210.379 136.604C210.771 142.77 211.174 149.147 213.386 154.931C214.988 159.116 217.445 162.701 219.823 166.168C223.505 171.546 226.987 176.625 227.534 183.696C228.664 198.187 230.217 212.26 236.733 225.112C240.365 232.277 245.664 239.239 252.937 246.399C254.678 248.115 256.977 249.701 259.408 251.38C264.492 254.887 269.745 258.513 270.834 263.957C271.245 266.008 271.32 268.106 271.392 270.134C271.445 271.67 271.501 273.258 271.705 274.784C273.272 286.465 283.24 294.607 292.047 298.333C296.468 300.202 301.073 301.131 305.524 302.029C310.694 303.073 316.038 304.151 321.163 306.701C335.073 313.62 350.384 322.783 358.475 338.29C360.51 342.193 362.218 346.316 363.868 350.305C365.255 353.658 366.687 357.126 368.308 360.428C372.551 369.08 377.461 374.966 383.318 378.421C390.565 382.7 399.598 382.636 405.285 378.278C411.925 373.192 410.101 366.771 408.171 359.975C406.438 353.869 404.644 347.554 409.882 342.729C412.452 340.366 416.123 340.04 419.36 339.92C458.157 338.463 497.135 352.282 526.323 377.835C531.12 382.035 535.789 386.644 540.304 391.099C552.371 403.005 564.845 415.316 580.827 420.849C593.663 425.291 605.541 423.974 618.121 422.58C622.47 422.098 626.969 421.597 631.559 421.342C643.012 420.694 655.229 422.346 667.055 423.938C669.9 424.32 672.716 424.7 675.478 425.039L678.96 425.472C701.567 428.281 724.94 431.192 746.696 424.74C765.512 419.161 781.144 405.195 786.514 389.159C796.452 359.487 774.877 329.006 749.085 311.96C746.157 310.026 743.168 308.268 740.195 306.735C721.036 296.854 700.218 289.779 680.091 282.935C661.655 276.669 642.594 270.189 624.757 261.554C583.344 241.503 559.12 217.969 550.698 189.603C546.243 174.61 547.279 158.301 548.282 142.531C548.832 133.821 549.405 124.813 549.009 116.278C547.758 88.9862 543.123 64.1011 535.243 42.3132C529.342 25.9928 516.795 11.0338 500.89 0.000147391L503.539 0.00014716C518.861 11.0874 530.913 25.7941 536.697 41.7901C544.63 63.7229 549.292 88.7603 550.554 116.206C550.95 124.826 550.377 133.877 549.82 142.629C548.828 158.265 547.803 174.435 552.175 189.166C560.469 217.092 584.43 240.316 625.428 260.165C643.181 268.761 662.197 275.224 680.588 281.477C700.772 288.338 721.643 295.433 740.904 305.365C743.926 306.923 746.963 308.709 749.937 310.673C776.219 328.046 798.174 359.203 787.976 389.649C782.452 406.145 766.42 420.5 747.133 426.219C737.297 429.135 727.167 430.17 716.943 430.17C704.236 430.17 691.381 428.571 678.768 427.002L675.289 426.571C672.523 426.228 669.701 425.85 666.852 425.466C655.094 423.882 642.952 422.243 631.642 422.881C627.097 423.135 622.62 423.632 618.29 424.111C605.541 425.524 593.493 426.866 580.322 422.305C564.012 416.658 551.41 404.222 539.222 392.196C534.719 387.756 530.069 383.162 525.305 378.995C496.408 353.699 457.788 340.052 419.42 341.459C416.454 341.57 413.112 341.856 410.93 343.862C406.389 348.045 407.975 353.635 409.656 359.555C411.548 366.222 413.696 373.779 406.227 379.501C400.05 384.229 390.308 384.335 382.534 379.749C376.406 376.134 371.3 370.038 366.921 361.106C365.281 357.76 363.838 354.269 362.44 350.892C360.804 346.937 359.112 342.846 357.104 339.002C349.22 323.886 334.165 314.89 320.477 308.082C315.533 305.623 310.291 304.563 305.218 303.54C300.692 302.627 296.008 301.682 291.444 299.752C282.245 295.861 271.829 287.312 270.175 274.987C269.96 273.388 269.903 271.762 269.847 270.189C269.779 268.223 269.707 266.189 269.319 264.258C268.354 259.428 263.361 255.98 258.534 252.648C256.043 250.93 253.691 249.306 251.852 247.498C244.462 240.218 239.062 233.124 235.353 225.808C228.713 212.704 227.138 198.467 225.996 183.817C225.48 177.156 222.111 172.242 218.549 167.04C216.122 163.498 213.613 159.837 211.947 155.481C209.648 149.478 209.237 142.983 208.842 136.702C208.574 132.47 208.295 128.091 207.44 123.925C202.718 100.876 175.305 95.6661 151.224 98.4924C148.243 98.8405 145.251 99.2545 142.259 99.6665C130.723 101.26 118.785 102.903 107.163 100.799C94.617 98.5244 84.3478 91.1444 78.9927 80.5544C73.8147 70.305 73.9277 58.1419 79.313 47.1849C81.3103 43.1205 83.7297 39.2198 86.0662 35.447Z" fill="black"/>
    <path d="M374.813 465.702C383.284 465.702 391.605 461.287 396.331 453.866C397.526 451.992 398.487 449.922 399.417 447.92C401.272 443.937 403.02 440.175 406.412 437.895C410.456 435.175 416.131 435.059 423.77 437.537C424.727 437.846 425.688 438.175 426.649 438.504C431.684 440.226 436.869 441.993 442.239 441.285C448.035 440.501 452.241 437.291 454.076 432.246C456.417 425.81 454.506 417.187 449.532 411.741C444.29 405.995 435.946 403.133 428.273 404.493C425.198 405.029 422.27 406.183 419.44 407.299C416.76 408.352 413.994 409.442 411.164 409.972C406.261 410.898 401.14 410.157 396.192 409.447C393.833 409.109 391.394 408.759 388.986 408.584C378.355 407.85 367.995 413.006 361.148 422.459C356.034 429.525 353.475 438.316 354.127 446.577C354.87 455.975 360.455 462.862 369.066 465.004C370.961 465.474 372.891 465.702 374.813 465.702ZM414.126 434.225C410.765 434.225 407.923 435.021 405.553 436.615C401.799 439.136 399.877 443.272 398.019 447.271C397.107 449.228 396.165 451.251 395.027 453.038C389.668 461.455 378.905 465.862 369.439 463.508C361.382 461.506 356.362 455.291 355.665 446.456C355.043 438.553 357.496 430.136 362.399 423.362C368.93 414.344 378.868 409.37 388.873 410.123C391.228 410.292 393.64 410.639 395.969 410.974C401.049 411.7 406.288 412.451 411.45 411.489C414.424 410.93 417.262 409.813 420.005 408.732C422.764 407.645 425.616 406.521 428.537 406.01C435.72 404.76 443.491 407.415 448.393 412.78C452.999 417.827 454.781 425.792 452.626 431.719C451.472 434.888 448.699 438.856 442.032 439.757C437.035 440.437 432.012 438.713 427.15 437.046C426.178 436.715 425.209 436.382 424.245 436.069C420.446 434.841 417.084 434.225 414.126 434.225Z" fill="black"/>
    <path d="M501.556 278.331C509.379 278.331 516.969 275.068 519.694 267.925C523.116 258.972 517.165 249.91 511.916 241.915L511.69 241.571C502.739 227.919 496.125 212.994 492.037 197.203C489.847 188.748 488.366 179.925 486.938 171.394C484.5 156.869 481.982 141.854 475.881 128.178L475.176 128.492L475.881 128.178C452.064 74.7871 386.744 56.819 337.353 67.029C330.276 68.4929 321.608 71.0765 317.403 78.1177C313.076 85.3546 315.236 94.6876 317.24 101.08C320.282 110.789 323.153 119.958 318.804 129.971C316.856 134.453 313.86 138.478 310.966 142.369C307.996 146.358 304.925 150.485 302.901 155.176C297.557 167.567 296.623 180.063 300.263 190.361C302.984 198.055 308.177 204.528 313.201 210.787C317.531 216.181 322.008 221.761 324.838 228.066C325.999 230.653 326.997 233.527 327.962 236.304C330.875 244.698 333.886 253.378 342.015 256.682C350.856 260.28 360.258 255.107 368.542 250.541L369.099 250.234C378.359 245.136 384.464 243.607 394.073 248.68C402.406 253.081 412.174 255.514 424.813 256.334C427.259 256.494 429.724 256.613 432.196 256.733C443.438 257.283 455.063 257.849 465.374 262.327C469.516 264.124 473.458 266.569 477.268 268.932C482.031 271.886 486.96 274.942 492.376 276.811C495.278 277.81 498.436 278.331 501.556 278.331ZM474.471 128.806C480.49 142.301 482.992 157.219 485.415 171.648C486.851 180.213 488.336 189.068 490.544 197.59C494.675 213.543 501.352 228.623 510.401 242.414L510.627 242.76C515.673 250.447 521.39 259.161 518.254 267.376C514.881 276.216 502.419 278.647 492.881 275.354C487.627 273.542 482.774 270.531 478.082 267.622C474.223 265.229 470.236 262.756 465.992 260.912C455.421 256.323 443.652 255.749 432.271 255.194C429.81 255.074 427.353 254.955 424.911 254.795C412.498 253.99 402.93 251.613 394.797 247.317C384.611 241.936 377.903 243.627 368.353 248.883L367.795 249.191C359.814 253.587 350.777 258.577 342.595 255.256C335.118 252.213 332.22 243.87 329.42 235.8C328.444 232.99 327.434 230.085 326.247 227.436C323.334 220.95 318.797 215.293 314.407 209.823C309.462 203.665 304.352 197.295 301.718 189.849C298.209 179.916 299.133 167.819 304.318 155.785C306.27 151.26 309.285 147.207 312.202 143.289C315.153 139.326 318.201 135.23 320.221 130.584C324.8 120.045 321.842 110.61 318.71 100.621C316.8 94.5108 314.719 85.6143 318.729 78.908C322.626 72.3823 330.898 69.9381 337.67 68.5381C386.45 58.4524 450.982 76.1475 474.471 128.806Z" fill="black"/>
    <path d="M410.441 195.492C414.533 195.492 417.213 193.995 418.909 192.388C423.386 188.148 424.32 179.848 421.347 170.724C418.735 162.712 409.924 144.859 399.342 140.824C395.815 139.481 392.393 139.754 389.16 141.633C381.284 146.213 377.881 153.781 379.316 163.519C380.997 174.882 388.523 188.592 401.555 193.607C405.078 194.962 408.01 195.492 410.441 195.492ZM395.012 141.536C396.252 141.536 397.515 141.778 398.792 142.266C408.854 146.101 417.345 163.416 419.877 171.202C422.666 179.754 421.886 187.443 417.846 191.268C414.428 194.51 408.982 194.819 402.112 192.169C389.657 187.377 382.456 174.214 380.846 163.293C379.912 156.975 380.73 148.317 389.936 142.966C391.575 142.012 393.271 141.536 395.012 141.536Z" fill="black"/>
    <path d="M-0.000241417 609.11C2.03731 607.757 3.75101 606.127 4.99036 604.157C7.88452 599.554 7.30041 594.54 6.29777 591.145C5.15263 587.26 2.8699 583.399 -0.000243945 580.196L-0.000244141 577.961C3.56188 581.551 6.42637 586.117 7.77877 590.711C9.34267 596.015 8.83016 600.949 6.29424 604.977C4.76166 607.415 2.58326 609.362 -0.000241259 610.924L-0.000241417 609.11Z" fill="black"/>
    <path d="M-0.00048377 289.119C5.19092 292.925 10.131 296.957 14.7583 301.199C32.1313 317.131 46.5234 337.127 56.3706 359.026L57.0941 360.626C60.972 369.24 65.3699 379 68.1812 387.98C69.5869 392.473 69.1949 398.054 68.8181 403.449C68.2865 411.083 67.7365 418.976 72.059 424.305C78.1148 431.766 92.7483 428.37 103.421 425.891C106.443 425.19 109.296 424.527 111.602 424.185C118.382 423.182 127.615 421.007 129.48 413.745C130.471 409.884 129.175 404.587 127.916 399.465C127.004 395.741 126.062 391.89 126.047 388.683C125.972 374.975 123.209 365.706 116.513 356.687C110.574 348.698 102.882 342.035 95.4464 335.59C91.9117 332.527 88.2562 329.362 84.8268 326.086C73.8453 315.603 64.3031 303.195 55.0704 291.194C39.9661 271.557 24.3455 251.252 2.33719 239.567C1.567 239.158 0.785965 238.765 -0.000488206 238.38L-0.000488281 237.521C0.908905 237.961 1.81006 238.414 2.69897 238.886C24.8542 250.65 40.5276 271.023 55.6845 290.726C64.895 302.702 74.4219 315.086 85.362 325.529C88.7763 328.792 92.4242 331.951 95.9516 335.007C103.421 341.478 111.146 348.171 117.131 356.228C123.937 365.39 126.744 374.793 126.816 388.68C126.835 391.794 127.765 395.6 128.666 399.281C129.944 404.497 131.266 409.888 130.226 413.937C128.248 421.643 118.714 423.912 111.715 424.949C109.439 425.286 106.601 425.944 103.594 426.642C92.7219 429.167 77.8287 432.63 71.4598 424.791C66.9451 419.225 67.5066 411.179 68.0493 403.396C68.4372 397.826 68.8068 392.565 67.4423 388.209C64.6463 379.275 60.2597 369.535 56.3894 360.942L55.6696 359.342C45.8601 337.538 31.5319 317.628 14.2383 301.767C9.76665 297.668 5.0025 293.764 -0.000483687 290.072L-0.00048377 289.119Z" fill="black"/>
    <path d="M0 186.592C11.5414 193.333 24.7998 199.134 39.9289 204.079C41.8245 204.699 43.7424 205.307 45.6684 205.919C60.573 210.649 75.9825 215.54 86.2516 227.178C91.068 232.637 94.3916 239.266 97.6027 245.677C98.6162 247.701 99.664 249.794 100.742 251.813C112.715 274.229 131.429 289.094 151.237 304.832C154.184 307.171 157.134 309.516 160.108 311.924C177.722 326.191 197.688 342.36 204.806 364.846C210.501 382.841 207.486 399.915 204.573 416.429C202.67 427.199 200.706 438.339 201.14 449.695C201.825 467.499 205.39 501.503 221.591 529.195C233.116 548.883 250.926 570.421 274.532 593.211C283.208 601.587 307.268 624.791 330.932 632L328.555 632C305.414 624.036 282.446 601.922 273.997 593.765C250.338 570.927 232.483 549.333 220.928 529.583C204.641 501.745 201.056 467.601 200.371 449.725C199.93 438.286 201.904 427.105 203.811 416.293C206.709 399.872 209.709 382.892 204.068 365.08C197.02 342.812 177.153 326.722 159.58 312.491C156.652 310.116 153.701 307.773 150.758 305.435C130.883 289.646 112.112 274.731 100.063 252.174C98.9779 250.146 97.9305 248.049 96.913 246.023C93.721 239.655 90.4236 233.071 85.6715 227.686C75.5454 216.21 60.2373 211.351 45.4345 206.653C43.505 206.041 41.587 205.433 39.6877 204.812C24.6785 199.906 11.4971 194.159 7.83795e-08 187.488L0 186.592Z" fill="black"/>
    <path d="M484.854 620.674C477.103 623.932 469.198 627.284 462.351 632L461.04 632C468.143 626.912 476.427 623.38 484.552 619.963C495.624 615.311 506.078 610.918 513.468 602.902C516.871 599.21 518.017 595.84 516.871 592.888C515.142 588.434 507.932 585.024 498.5 584.2C472.116 581.891 437.4 592.965 414.733 604.966C409.596 607.687 404.445 610.799 398.988 614.092C387.494 621.035 375.752 628.124 363.419 632L360.617 632C373.807 628.378 386.343 620.831 398.588 613.434C404.053 610.133 409.215 607.015 414.371 604.285C437.14 592.233 471.999 581.11 498.568 583.432C505.95 584.078 515.36 586.866 517.591 592.609C518.85 595.859 517.655 599.498 514.034 603.425C506.534 611.563 496.001 615.989 484.854 620.674Z" fill="black"/>
    <path d="M0.000500662 338.99C5.31555 345.621 10.0609 352.732 14.0468 360.191C25.9591 382.474 32.7616 408.736 33.7226 436.143C34.5253 458.962 40.1932 486.058 50.5679 516.678C51.9734 520.825 53.4773 524.781 56.4353 527.624C59.0999 530.187 61.5342 531.209 63.6071 530.661C66.4071 529.929 68.7813 526.395 70.6653 520.157C71.668 516.84 72.5383 513.368 73.4618 509.692C76.9552 495.782 80.9158 480.018 93.3032 471.768C102.48 465.657 115.21 464.242 128.238 467.888C139.419 471.014 149.349 477.094 160.247 484.131C163.311 486.112 166.48 488.16 170.042 488.973C173.927 489.864 177.812 488.895 179.957 486.526C182.648 483.559 180.258 470.735 178.676 462.249C178.065 458.967 177.534 456.134 177.398 454.468C176.354 441.786 175.273 428.673 177.413 415.794C178.031 412.088 178.77 408.294 179.482 404.627C182.376 389.775 185.365 374.417 181.344 359.896C175.404 338.458 155.179 323.79 140.481 314.623C137.365 312.679 134.143 310.743 131.03 308.869C116.291 300.004 101.048 290.838 90.3976 277.191C84.4469 269.561 80.1133 260.726 75.9264 252.183C73.2847 246.796 70.5525 241.224 67.4394 236.009C58.3613 220.79 39.6766 213.825 21.6067 207.091C14.291 204.365 6.80365 201.571 0.000488356 198.233L0.000488281 197.372C6.86111 200.769 14.4578 203.604 21.8743 206.368C40.0725 213.15 58.8851 220.163 68.1027 235.613C71.2308 240.858 73.9705 246.442 76.6198 251.845C80.7916 260.354 85.1028 269.15 91.0081 276.717C101.571 290.253 116.747 299.381 131.426 308.208C134.546 310.084 137.768 312.022 140.888 313.968C155.695 323.205 176.079 337.993 182.09 359.689C186.156 374.385 183.149 389.833 180.24 404.774C179.527 408.437 178.789 412.225 178.174 415.922C176.049 428.705 177.127 441.769 178.167 454.404C178.303 456.032 178.826 458.847 179.433 462.108C181.14 471.26 183.477 483.794 180.53 487.042C177.696 490.173 173.166 490.48 169.869 489.725C166.175 488.88 162.946 486.795 159.825 484.778C148.983 477.777 139.106 471.729 128.026 468.63C115.217 465.043 102.713 466.425 93.7325 472.408C81.5943 480.494 77.8406 495.432 74.2118 509.88C73.2847 513.564 72.4104 517.045 71.4042 520.379C69.4106 526.984 66.9234 530.591 63.8031 531.408C61.4289 532.031 58.7721 530.939 55.9004 528.181C52.8175 525.215 51.2727 521.166 49.8366 516.927C39.4394 486.235 33.7565 459.063 32.9536 436.169C31.9928 408.881 25.2207 382.734 13.3687 360.552C9.55423 353.414 5.04422 346.594 0.000500769 340.214L0.000500662 338.99Z" fill="black"/>
    <path d="M296.833 632C287.533 624.063 279 614.48 270.601 605.028C263.396 596.918 256.59 589.258 249.527 582.92C243.125 577.183 226.389 570.33 215.75 573.051C211.371 574.176 208.439 576.784 207.033 580.803C206.363 582.715 206.016 584.764 205.677 586.748C205.443 588.117 205.202 589.536 204.855 590.912C201.969 602.394 190.904 612.035 177.326 614.901C169.273 616.604 160.371 616.265 150.132 613.868C125.78 608.17 104.853 597.104 84.2659 579.048L83.5046 578.376C80.4785 575.708 77.3468 572.947 73.6047 571.467C69.8814 569.995 64.7298 569.927 61.6019 573.096C59.2956 575.439 58.4401 579.257 59.3219 583.308C60.0304 586.558 61.6735 589.576 63.2601 592.494L63.8103 593.512C70.3647 605.663 75.1489 618.564 78.1137 632L77.3252 632C74.3744 618.693 69.6251 605.916 63.1319 593.877L62.5817 592.863C60.9688 589.896 59.2993 586.829 58.5682 583.472C57.6336 579.164 58.5607 575.083 61.0517 572.554C63.0453 570.533 65.785 569.724 68.5096 569.724C70.3939 569.724 72.2706 570.11 73.8911 570.752C77.7576 572.281 80.9382 575.087 84.0172 577.798L84.7784 578.468C105.264 596.44 126.085 607.45 150.306 613.119C160.439 615.486 169.224 615.821 177.168 614.149C190.463 611.339 201.29 601.927 204.109 590.724C204.448 589.376 204.686 587.974 204.916 586.618C205.258 584.604 205.613 582.523 206.302 580.549C207.798 576.27 210.915 573.497 215.558 572.306C226.423 569.504 243.52 576.5 250.04 582.348C257.14 588.714 263.961 596.389 271.178 604.516C279.767 614.185 288.502 623.981 298.044 632L296.833 632Z" fill="black"/>
    <path d="M0.000244141 170.71C5.82709 175.208 12.7838 179.243 20.9357 182.859C32.8179 188.792 44.4024 192.615 56.6614 196.661C61.7904 198.353 67.0928 200.102 72.429 202.022C84.4092 206.335 94.0941 211.257 102.046 217.075C112.673 224.854 117.067 232.507 122.558 243.291C140.006 277.556 167.739 303.293 192.57 323.95C207.938 336.74 219.519 352.299 226.053 368.947C233.184 387.108 234.265 405.808 229.268 424.525C228.009 429.243 226.355 433.919 224.757 438.442C223.001 443.415 221.185 448.558 219.892 453.75C214.978 473.501 223.382 494.403 230.802 512.845L231.145 513.703C246.554 552.042 273.854 584.066 308.012 603.878C324.021 613.159 337.297 617.035 349.763 616.164C368.357 614.819 383.737 604.366 398.608 594.256C401.694 592.158 404.89 589.986 408.044 587.945C418.136 581.419 429.913 576.447 444.041 572.744C448.013 571.702 452.196 571.331 456.244 570.972C463.053 570.368 469.483 569.798 475.071 566.324C480.811 562.758 487.794 558.918 496.085 557.48C506.165 555.732 517.222 556.468 527.186 559.561C529.738 560.354 532.346 561.225 534.867 562.066C544.605 565.314 554.67 568.672 564.97 568.844C566.56 568.872 568.335 568.735 570.193 568.59C576.826 568.08 584.329 567.493 587.551 574.547C590.147 580.241 585.648 586.409 581.412 590.579C567.069 604.71 549.428 615.983 530.39 623.183C524.933 625.247 519.468 626.955 514.185 628.607C510.632 629.719 507.133 630.819 503.686 632L501.387 632C505.502 630.536 509.687 629.206 513.955 627.872C519.227 626.223 524.68 624.518 530.118 622.462C549.055 615.302 566.605 604.085 580.869 590.029C584.928 586.031 589.262 580.156 586.85 574.867C583.846 568.298 576.931 568.842 570.253 569.359C568.377 569.502 566.632 569.643 564.955 569.615C554.539 569.44 544.416 566.063 534.626 562.796C532.104 561.957 529.5 561.087 526.96 560.299C517.113 557.241 506.196 556.511 496.213 558.24C488.058 559.654 481.154 563.451 475.478 566.979C469.735 570.548 462.91 571.154 456.311 571.74C452.298 572.097 448.145 572.464 444.237 573.49C430.188 577.172 418.487 582.111 408.466 588.592C405.316 590.628 402.127 592.797 399.041 594.894C384.087 605.06 368.621 615.571 349.816 616.932C337.173 617.854 323.772 613.91 307.627 604.545C273.319 584.648 245.903 552.488 230.429 513.989L230.086 513.133C222.624 494.582 214.168 473.558 219.146 453.565C220.446 448.336 222.27 443.176 224.03 438.186C225.624 433.676 227.271 429.013 228.522 424.326C238.022 388.742 224.399 351.439 192.072 324.541C167.185 303.835 139.381 278.03 121.872 243.641C116.43 232.955 112.082 225.375 101.586 217.696C93.6984 211.923 84.0776 207.035 72.1652 202.748C66.84 200.831 61.5417 199.083 56.4203 197.393C44.131 193.338 32.5239 189.507 20.6041 183.555C12.6234 180.015 5.77527 176.072 0.000244226 171.685L0.000244141 170.71Z" fill="black"/>
    <path d="M0 131.257C1.612 135.413 3.52216 139.415 5.80853 143.216C18.0412 163.557 41.4175 180.289 69.9491 189.119C79.7734 192.158 90.2163 195.263 100.414 196.923C109.831 198.456 121.514 201.393 128.339 210.587C131.964 215.47 133.343 221.202 134.678 226.747C135.654 230.798 136.663 234.987 138.544 238.761C143.236 248.177 149.906 257.187 156.339 265.605C169.329 282.601 185.801 298.742 208.175 316.397C225.054 329.721 243.912 346.329 255.795 368.491C263.769 383.358 267.711 413.26 253.982 428.439C251.981 430.652 249.976 432.466 248.039 434.222C243.894 437.972 239.982 441.515 237.31 448.065C233.556 457.261 232.294 467.894 233.658 478.817C236.617 502.519 249.305 530.795 266.776 552.612C289.809 581.381 320.237 597.185 350.253 595.977C369.329 595.21 388.067 587.862 403.013 575.283C411.906 567.799 429.506 554.731 447.459 551.286C450.583 550.686 453.786 550.253 456.888 549.835C461.606 549.199 466.482 548.541 471.137 547.282C475.625 546.072 479.699 543.603 483.637 541.217C487.876 538.649 492.259 535.994 497.068 535.002C507.292 532.898 520.041 536.707 526.734 539.162C532.692 541.347 538.522 544.384 544.16 547.321C557.229 554.131 570.754 561.167 586.401 557.736C591.726 556.57 596.787 554.216 601.683 551.939C604.773 550.499 607.972 549.011 611.228 547.826C616.154 546.03 628.549 542.604 637.186 549.598C641.516 553.107 643.434 556.857 642.888 560.745C641.305 572.035 619.741 581.212 611.624 584.665C604.871 587.54 583.074 598.217 586.137 614.892C587.814 624.024 596.631 629.688 605.986 632L603.185 632C594.595 629.256 586.959 623.635 585.376 615.031C582.211 597.793 604.434 586.889 611.323 583.957C618.562 580.875 640.6 571.497 642.127 560.638C642.632 557.036 640.804 553.523 636.696 550.196C628.383 543.452 616.305 546.792 611.492 548.548C608.27 549.724 605.086 551.205 602.007 552.637C597.074 554.931 591.975 557.303 586.567 558.489C570.645 561.974 556.995 554.876 543.805 548.006C538.186 545.08 532.379 542.054 526.47 539.885C519.849 537.457 507.239 533.685 497.226 535.758C492.546 536.722 488.412 539.226 484.036 541.876C480.053 544.29 475.93 546.787 471.34 548.027C466.633 549.297 461.73 549.959 456.989 550.599C453.903 551.017 450.707 551.448 447.602 552.042C429.822 555.456 412.347 568.437 403.51 575.874C388.432 588.56 369.529 595.974 350.283 596.749C320.044 597.964 289.365 582.055 266.173 553.094C248.619 531.171 235.867 502.746 232.889 478.911C231.51 467.86 232.792 457.093 236.594 447.775C239.334 441.062 243.31 437.462 247.519 433.651C249.444 431.909 251.434 430.106 253.409 427.924C266.904 413.002 262.985 383.526 255.116 368.856C243.298 346.816 224.512 330.276 207.693 317.003C185.27 299.304 168.756 283.122 155.729 266.072C149.273 257.623 142.572 248.582 137.851 239.104C135.932 235.252 134.915 231.02 133.928 226.926C132.612 221.458 131.252 215.803 127.721 211.046C121.058 202.076 109.564 199.192 100.293 197.683C90.0467 196.016 79.5702 192.903 69.723 189.857C41.0104 180.968 17.4759 164.114 5.14526 143.611C3.16626 140.32 1.46997 136.881 1.80914e-07 133.326L0 131.257Z" fill="black"/>
    <path d="M23.4947 0.574107C23.4937 0.383591 23.4612 0.191197 23.4561 0.000200518L24.2258 0.00020045C24.2305 0.190475 24.2625 0.380075 24.2634 0.570349C24.3087 12.6582 22.6129 26.1441 19.0855 41.7996C13.3648 67.1909 15.0645 89.5112 24.2785 110.036C37.1971 138.807 64.3155 161.159 95.0517 168.372C103.32 170.31 111.814 171.957 120.03 173.547C127.537 175.003 135.303 176.506 142.882 178.232C156.592 181.354 160.229 194.235 163.748 206.694C167.144 218.742 171.896 226.47 178.962 235.751C183.609 241.853 188.764 247.583 193.75 253.124C197.239 257.002 200.846 261.014 204.234 265.101C208.715 270.507 211.639 276.978 214.469 283.237C216.308 287.308 218.211 291.52 220.521 295.375C227.765 307.478 240.204 314.683 252.237 321.651C254.966 323.23 257.785 324.863 260.453 326.507C277.961 337.295 290.134 355.122 294.731 376.705C299.518 399.172 295.24 422.331 283 440.243C281.956 441.771 280.833 443.329 279.748 444.836C273.929 452.914 267.915 461.267 268.555 471.522C269.06 479.623 272.045 487.292 274.932 494.71C276.356 498.366 277.585 502.203 278.775 505.913C281.323 513.85 283.957 522.058 288.63 529.088C295.64 539.625 305.276 541.473 316.438 543.612C318.583 544.023 320.798 544.448 323.022 544.945C327.337 545.908 331.324 547.218 335.179 548.484C344.619 551.583 353.528 554.509 365.075 551.551C373.468 549.397 380.036 544.48 386.985 539.277C388.09 538.451 389.197 537.623 390.309 536.806C400.661 529.22 406.457 528.249 419.206 527.575C430.207 526.994 441.584 526.393 452.305 523.129C457.77 521.465 461.806 518.547 466.079 515.457C467.3 514.573 468.544 513.673 469.852 512.781C475.241 509.103 481.971 506.69 490.424 505.409C503.908 503.369 517.151 505.576 532.085 512.382C534.113 513.304 536.17 514.337 538.349 515.429C548.991 520.765 561.058 526.805 572.22 520.763C578.955 517.115 583.341 509.526 583.134 501.879C583.108 500.983 583.036 500.031 582.964 499.109C582.667 495.19 582.354 491.136 585.195 488.538C588.27 485.717 593.403 486.775 596.588 489.426C598.66 491.146 600.209 493.383 601.709 495.545C602.459 496.627 603.232 497.747 604.061 498.78C611.613 508.216 623.28 511.347 635.633 514.663C645.138 517.213 654.962 519.851 662.752 525.633C670.21 531.169 675.282 539.213 680.181 546.992C681.681 549.368 683.226 551.824 684.817 554.163C692.192 565.026 703.674 572.026 716.322 573.369C728.78 574.69 740.821 570.473 750.235 561.485C757.674 554.383 762.117 544.435 762.746 533.472C762.969 529.577 761.819 525.548 760.707 521.653C759.479 517.35 758.318 513.286 758.868 509.394C759.502 504.861 763.161 501.384 766.537 498.482C772.691 493.197 779.102 488.069 785.599 483.241C788.418 481.148 791.003 479.361 794.089 478.663C794.662 478.535 795.291 478.477 795.97 478.477C799.603 478.477 804.63 480.146 809.145 481.647C811.816 482.533 814.338 483.371 816.207 483.736C818.784 484.24 821.392 484.805 823.913 485.35C829.969 486.666 836.237 488.022 842.53 488.611C870.647 491.23 898.157 477.605 909.384 455.452C915.783 442.832 917.068 427.914 918.206 414.752C919.695 397.537 921.236 379.734 918.549 362.355C915.527 342.829 907.081 323.54 893.454 305.024L893.081 304.516C884.014 292.189 870.308 273.563 856.055 266.768C851.356 264.529 845.831 263.357 840.491 262.224C835.995 261.27 831.345 260.284 827.147 258.662C818.566 255.344 810.219 251.139 802.146 247.073L797.771 244.873C780.824 236.357 763.3 227.55 744.141 225.469C732.131 224.16 719.883 225.605 708.031 226.997C701.108 227.812 693.944 228.653 686.882 228.947C670.933 229.603 654.529 225.616 640.585 217.717C625.662 209.262 614.763 197.139 609.065 182.658C601.702 163.942 603.477 142.888 605.04 124.314C605.447 119.46 605.87 114.607 606.288 109.752C606.985 101.718 607.705 93.41 608.357 85.236C608.583 82.389 607.946 79.3614 607.332 76.4336C606.435 72.1528 605.504 67.7252 607.147 63.593C608.221 60.8966 610.245 59.348 612.204 57.8502C613.422 56.9207 614.684 55.9572 615.705 54.7229C623.258 45.6193 613.904 35.0971 606.386 26.6427C604.626 24.6613 602.964 22.7909 601.683 21.1087C597.138 15.1495 594.865 8.98135 592.461 2.45007C592.168 1.65318 591.842 0.816548 591.538 0.000150854L592.361 0.000150782C592.632 0.725987 592.925 1.47422 593.185 2.18291C595.57 8.65961 597.82 14.775 602.293 20.6421C603.559 22.2998 605.214 24.1608 606.962 26.1309C614.677 34.8054 624.271 45.6005 616.301 55.2158C615.219 56.5161 613.927 57.5058 612.675 58.4636C610.712 59.9614 608.858 61.3783 607.863 63.8791C606.307 67.7948 607.211 72.1057 608.089 76.2755C608.715 79.2561 609.363 82.3401 609.126 85.2962C608.474 93.474 607.754 101.783 607.057 109.818C606.638 114.673 606.216 119.526 605.809 124.378C604.253 142.87 602.485 163.828 609.781 182.375C621.784 212.881 655.426 228.241 683.697 228.241C684.756 228.241 685.808 228.218 686.852 228.175C693.884 227.885 701.033 227.044 707.94 226.233C719.838 224.837 732.134 223.392 744.224 224.702C763.523 226.8 781.11 235.638 798.122 244.184L802.497 246.386C810.55 250.443 818.879 254.639 827.426 257.943C831.564 259.542 836.184 260.523 840.649 261.469C846.038 262.612 851.605 263.793 856.387 266.072C870.817 272.949 884.591 291.672 893.703 304.059L894.08 304.569C907.778 323.184 916.269 342.588 919.31 362.238C922.012 379.708 920.467 397.557 918.975 414.82C917.833 428.05 916.537 443.047 910.07 455.801C898.704 478.226 870.911 492.025 842.455 489.379C836.116 488.786 829.83 487.422 823.748 486.105C821.23 485.559 818.626 484.995 816.056 484.492C814.142 484.118 811.598 483.273 808.903 482.377C803.635 480.627 797.662 478.636 794.263 479.416C791.319 480.08 788.806 481.82 786.058 483.858C779.577 488.677 773.181 493.793 767.042 499.066C763.621 502.005 760.229 505.232 759.63 509.5C759.106 513.231 760.244 517.218 761.45 521.441C762.58 525.4 763.749 529.49 763.515 533.517C762.878 544.674 758.348 554.805 750.77 562.041C742.343 570.087 731.84 574.38 720.802 574.38C719.291 574.38 717.769 574.299 716.239 574.137C703.365 572.769 691.679 565.647 684.176 554.596C682.582 552.246 681.029 549.784 679.529 547.402C674.664 539.683 669.637 531.701 662.292 526.25C654.619 520.556 644.866 517.939 635.434 515.408C623.503 512.205 611.168 508.896 603.458 499.261C602.614 498.208 601.83 497.077 601.076 495.984C599.606 493.863 598.088 491.671 596.094 490.017C593.166 487.578 588.485 486.57 585.715 489.106C583.153 491.451 583.447 495.314 583.733 499.051C583.805 499.982 583.88 500.944 583.903 501.856C584.118 509.788 579.573 517.657 572.59 521.441C561.047 527.688 548.806 521.535 538.006 516.117C535.831 515.028 533.781 514.001 531.765 513.082C516.977 506.346 503.882 504.15 490.537 506.171C482.201 507.435 475.58 509.804 470.289 513.417C468.989 514.305 467.749 515.201 466.532 516.082C462.205 519.209 458.116 522.163 452.532 523.866C441.716 527.157 430.293 527.761 419.244 528.346C406.665 529.011 400.952 529.965 390.769 537.427C389.653 538.242 388.553 539.068 387.449 539.894C380.745 544.913 373.81 550.104 365.263 552.296C353.506 555.311 344.491 552.351 334.938 549.216C331.098 547.955 327.13 546.653 322.856 545.697C320.64 545.202 318.428 544.779 316.291 544.369C305.434 542.286 295.176 540.32 287.99 529.513C283.256 522.395 280.603 514.136 278.041 506.148C276.854 502.449 275.629 498.624 274.216 494.988C271.306 487.516 268.295 479.79 267.786 471.571C267.127 461.039 273.224 452.574 279.122 444.386C280.204 442.883 281.323 441.329 282.359 439.81C294.483 422.07 298.719 399.127 293.978 376.865C289.425 355.491 277.374 337.839 260.046 327.162C257.389 325.525 254.574 323.894 251.849 322.317C239.733 315.3 227.207 308.044 219.858 295.77C217.529 291.877 215.615 287.645 213.764 283.553C210.957 277.341 208.051 270.919 203.638 265.594C200.262 261.516 196.659 257.512 193.173 253.64C188.18 248.087 183.013 242.344 178.344 236.217C171.406 227.099 166.417 219.015 163.002 206.903C159.546 194.661 155.974 182.003 142.709 178.985C135.145 177.261 127.386 175.757 119.883 174.303C111.66 172.711 103.158 171.063 94.8783 169.121C63.9085 161.856 36.5903 139.338 23.5776 110.353C14.2882 89.6692 12.5734 67.189 18.3318 41.6303C21.8478 26.0312 23.5361 12.6018 23.4947 0.574107Z" fill="black"/>
    <path d="M40.4791 13.6291L40.8296 12.7579C42.4943 8.63779 44.0917 4.37015 45.4107 0.000197403L46.2158 0.000197333C44.877 4.47338 43.2457 8.8377 41.5456 13.0477L41.1951 13.917C36.345 25.9258 32.1544 36.2957 31.5891 49.4561C30.4774 75.3215 36.6766 100.321 49.0526 119.846C58.8507 135.317 72.9827 146.221 89.911 151.38L90.5366 151.572C97.4971 153.695 106.104 156.32 113.457 156.32C113.687 156.32 113.913 156.318 114.143 156.312C117.286 156.241 120.436 156.094 123.481 155.953C131.9 155.565 139.855 155.195 148.312 156.213C160.089 157.628 168.266 165.293 171.971 178.377C175.43 190.604 179.387 201.344 184.068 211.21C189.355 222.368 195.321 229.052 204.512 238.735C209.694 244.196 216.636 252.689 220.261 262.156C221.61 265.679 222.865 269.354 224.079 272.906C227.007 281.468 230.029 290.323 234.698 298.107C239.368 305.899 249.825 311.576 259.054 316.585C261.365 317.838 263.547 319.022 265.51 320.174C267.831 321.538 270.19 322.802 272.47 324.025C279.695 327.898 286.52 331.556 291.931 338.004C303.504 351.788 318.567 373.113 315.827 399.07C314.305 413.469 307.702 424.834 300.708 436.865C299.246 439.387 297.731 441.993 296.273 444.62C291.935 452.421 282.917 472.118 292.764 486.528C297.712 493.771 305.675 497.342 314.101 501.126C318.748 503.211 323.553 505.367 327.762 508.188C331.599 510.758 335.266 514.044 338.812 517.22C347.219 524.754 355.148 531.903 365.531 530.77C372.273 530.055 377.624 525.927 383.288 521.557C386.05 519.425 388.907 517.22 391.918 515.478C402.413 509.4 414.917 508.811 427.007 508.243C430.647 508.071 434.412 507.895 438.049 507.569C447.274 506.741 455.09 504.519 461.278 500.963C464.278 499.243 466.535 496.529 468.721 493.906C470.895 491.294 472.949 488.828 475.666 487.268C486.606 480.992 509.037 488.515 515.654 490.971C519.363 492.348 522.995 494.07 526.504 495.735C530.073 497.427 533.758 499.177 537.516 500.556C546.417 503.83 554.173 504.255 560.579 501.822C567.389 499.229 573.637 491.552 571.847 483.67C571.334 481.399 570.196 479.173 569.092 477.02C567.253 473.424 565.354 469.706 566.424 465.781C567.05 463.489 568.629 461.63 570.992 460.403C574.055 458.807 578.001 458.557 581.287 459.735C586.985 461.78 591.138 466.916 594.473 471.042C606.352 485.732 622.278 491.744 639.142 498.108C640.585 498.652 642.032 499.199 643.491 499.754C655.313 504.267 663.615 513.278 671.642 521.994C681.142 532.304 690.111 542.043 704.466 545.11C713.925 547.124 726.267 544.25 731.592 534.834C734.527 529.633 735.228 523.68 735.907 517.922C736.589 512.13 737.293 506.139 740.24 500.782C745.648 490.956 755.04 481.794 763.323 473.712C765.124 471.955 766.888 470.233 768.565 468.549C773.954 463.152 779.169 461.094 784.63 461.094C790.829 461.094 797.334 463.751 804.739 467.196C818.973 473.821 838.241 473.513 852.675 466.432C860.604 462.543 870.734 454.895 873.963 440.565C876.145 430.876 874.035 420.794 871.989 411.043C871.521 408.806 871.039 406.495 870.613 404.23C867.647 388.316 869.577 376.366 876.353 368.713C878.252 366.572 880.536 364.775 882.744 363.038C885.08 361.201 887.496 359.301 889.418 357.011C896.729 348.299 895.712 335.428 891.461 326.536C877.057 296.41 841.852 281.232 810.791 267.842C805.44 265.536 800.383 263.357 795.548 261.148C780.873 254.445 765.697 247.515 749.873 243.183C733.906 238.806 717.403 238.775 701.443 238.743C698.918 238.739 696.393 238.733 693.869 238.712C682.83 238.618 671.016 238.208 659.417 235.873C636.869 231.334 607.369 220.234 594.861 193.121C587.019 176.128 587.637 156.491 588.184 139.166C588.775 120.165 588.771 105.727 588.165 92.3506C587.648 80.8931 588.866 69.0198 590.045 57.5378C590.43 53.8046 590.825 49.9434 591.153 46.1782C591.745 39.3854 591.997 32.8748 588.609 27.8733C586.895 25.3387 584.351 23.4382 581.894 21.5979C579.595 19.8781 577.217 18.0999 575.45 15.7798C572.476 11.8678 571.564 6.92845 570.682 2.15088C570.551 1.43752 570.369 0.723193 570.228 0.000150511L571.016 0.000150442C571.146 0.674974 571.318 1.34599 571.44 2.01166C572.307 6.70079 573.2 11.548 576.068 15.3132C577.767 17.5486 580.1 19.2929 582.357 20.9826C584.867 22.8586 587.46 24.8006 589.25 27.4405C592.777 32.6528 592.529 39.3101 591.922 46.2459C591.594 50.0149 591.198 53.8799 590.814 57.6169C589.638 69.0706 588.421 80.9138 588.934 92.3167C589.54 105.712 589.548 120.169 588.952 139.189C588.413 156.429 587.799 175.97 595.562 192.798C607.935 219.617 637.197 230.614 659.567 235.117C671.107 237.44 682.876 237.847 693.876 237.941C696.397 237.962 698.922 237.967 701.443 237.973C717.456 238.005 734.011 238.037 750.076 242.438C765.961 246.789 781.167 253.732 795.872 260.448C800.695 262.651 805.749 264.83 811.097 267.135C842.281 280.58 877.63 295.817 892.154 326.204C896.514 335.319 897.539 348.532 890.006 357.508C888.035 359.858 885.589 361.783 883.223 363.644C881.041 365.36 878.783 367.134 876.933 369.225C870.323 376.69 868.45 388.42 871.374 404.089C871.793 406.345 872.279 408.653 872.746 410.885C874.804 420.717 876.937 430.882 874.717 440.734C871.42 455.364 861.094 463.16 853.014 467.124C838.381 474.303 818.856 474.61 804.415 467.896C790.773 461.549 780.251 457.931 769.115 469.095C767.43 470.779 765.667 472.502 763.862 474.263C755.616 482.308 746.27 491.428 740.919 501.154C738.043 506.38 737.346 512.292 736.672 518.012C735.986 523.845 735.277 529.878 732.262 535.214C727.849 543.02 718.801 546.489 710.375 546.489C708.287 546.489 706.237 546.277 704.307 545.863C689.712 542.745 680.238 532.462 671.076 522.515C663.106 513.865 654.868 504.923 643.212 500.473C641.761 499.918 640.31 499.372 638.87 498.829C621.905 492.425 605.881 486.38 593.87 471.528C590.426 467.264 586.522 462.432 581.023 460.461C577.941 459.353 574.236 459.586 571.346 461.086C569.838 461.871 567.886 463.357 567.17 465.984C566.175 469.621 567.928 473.046 569.782 476.67C570.905 478.864 572.066 481.135 572.601 483.501C574.481 491.786 567.965 499.835 560.85 502.541C554.278 505.044 546.33 504.62 537.252 501.279C533.461 499.888 529.756 498.131 526.172 496.431C522.679 494.774 519.065 493.059 515.383 491.693C508.852 489.264 486.704 481.822 476.051 487.938C473.454 489.428 471.442 491.842 469.313 494.399C467.085 497.075 464.783 499.841 461.662 501.63C455.377 505.243 447.455 507.499 438.117 508.337C434.465 508.664 430.693 508.841 427.041 509.012C415.046 509.577 402.64 510.16 392.302 516.144C389.337 517.862 386.503 520.05 383.759 522.167C378.257 526.41 372.57 530.798 365.614 531.538C354.922 532.672 346.462 525.11 338.296 517.794C334.772 514.635 331.124 511.368 327.333 508.828C323.176 506.043 318.401 503.902 313.785 501.83C305.63 498.168 297.196 494.384 292.123 486.961C282.039 472.199 291.193 452.171 295.594 444.247C297.06 441.613 298.575 439.003 300.041 436.48C306.99 424.52 313.555 413.224 315.059 398.991C317.768 373.323 302.822 352.175 291.343 338.501C286.022 332.166 279.261 328.541 272.105 324.705C269.817 323.478 267.451 322.21 265.118 320.84C263.17 319.694 260.991 318.512 258.689 317.263C249.373 312.207 238.814 306.475 234.035 298.502C229.328 290.648 226.287 281.756 223.347 273.155C222.138 269.608 220.883 265.94 219.537 262.431C215.957 253.083 209.087 244.674 203.955 239.266C194.978 229.81 188.696 222.773 183.367 211.541C178.671 201.634 174.699 190.856 171.225 178.588C168.707 169.689 162.674 158.715 148.222 156.977C139.818 155.97 131.896 156.335 123.515 156.724C120.466 156.866 117.312 157.012 114.158 157.084C113.924 157.089 113.691 157.091 113.457 157.091C105.988 157.091 97.32 154.448 90.3105 152.308L89.6849 152.118C72.5758 146.902 58.3005 135.887 48.3968 120.26C35.9418 100.602 29.6973 75.4438 30.8203 49.4223C31.3894 36.132 35.6026 25.7038 40.4791 13.6291Z" fill="black"/>
    <path d="M60.1998 14.7035C64.471 10.1953 69.153 5.23924 71.3312 0.000190903L72.1716 0.00019083C69.9952 5.47985 65.1578 10.5895 60.7576 15.2342C58.602 17.511 56.5632 19.6617 54.9993 21.6845C46.9572 32.0921 43.3469 46.3664 44.8317 61.8807C45.9887 73.9705 49.9419 86.429 57.6486 102.276C64.1003 115.537 74.7464 133.772 92.6696 139.024C103.715 142.258 115.481 139.946 126.847 137.714C129.443 137.204 132.122 136.677 134.745 136.227C146.609 134.195 162.866 131.407 173.09 141.25C183.891 151.651 189.269 166.445 192.747 178.172C193.685 181.323 194.567 184.547 195.423 187.665C196.904 193.067 198.434 198.654 200.288 204.035C202.93 211.707 206.589 216.958 210.828 223.038C211.39 223.84 211.959 224.658 212.539 225.501C222.647 240.15 233.918 257.525 240.868 275.326C247.312 291.826 256.835 303.254 269.976 310.259C273.571 312.175 277.366 314.079 281.036 315.921C296.352 323.604 312.187 331.548 323.165 344.62C332.68 355.95 336.905 372.313 334.764 389.515C333.065 403.131 327.732 417.153 317.987 433.648C317.603 434.302 317.211 434.955 316.822 435.61C313.875 440.551 310.827 445.66 309.353 451.247C307.469 458.373 308.697 465.216 312.639 469.552C316.317 473.603 321.895 475.123 327.288 476.593C332.549 478.027 337.983 479.508 341.857 483.311C344.981 486.378 346.741 490.628 348.441 494.738C350.653 500.082 352.74 505.13 357.564 507.573C362.286 509.962 368.855 508.92 375.148 504.792C377.266 503.401 379.29 501.781 381.249 500.214C384.193 497.86 387.234 495.427 390.667 493.701C398.882 489.569 408.315 489.872 417.442 490.158C424.512 490.384 431.831 490.619 438.61 488.811C445.262 487.04 451.273 483.335 457.084 479.754C460.283 477.782 463.588 475.744 466.987 474.034C478.368 468.304 487.843 471.324 497 474.241C504.598 476.659 512.462 479.167 521.515 476.796C526.323 475.541 530.77 471.806 532.839 467.281C534.361 463.954 534.414 460.527 532.982 457.633C531.78 455.198 529.662 453.273 527.616 451.414C525.26 449.273 522.822 447.058 521.71 444.025C520.731 441.362 520.991 438.339 522.442 435.509C524.217 432.044 527.593 429.258 531.256 428.236C538.514 426.211 545.822 429.344 550.683 432.327C553.536 434.079 556.238 436.139 558.849 438.134C561.484 440.141 564.205 442.22 567.069 443.965C576.984 449.945 588.474 452.161 599.584 454.305C603.036 454.971 606.604 455.657 610.064 456.448L611.963 456.877C618.219 458.282 625.311 459.876 630.546 463.034C635.456 465.997 639.466 471.019 643.344 475.874C644.768 477.662 646.118 479.348 647.489 480.911C654.57 488.976 661.893 497.316 671.19 503.06C681.534 509.454 692.802 511.266 702.08 508.024C710.469 505.095 717.837 497.924 724.612 486.105C726.067 483.57 727.461 480.93 728.814 478.377C732.462 471.486 736.231 464.362 741.529 458.474C751.742 447.12 763.466 443.577 775.759 443.577C786.126 443.577 796.897 446.099 807.498 448.579L811.002 449.395C823.288 452.248 840.047 453.473 850.116 443.167C860.408 432.63 858.678 415.973 855.283 399.542L846.012 354.728C842.643 338.441 838.826 319.98 828.553 305.389C803.45 269.726 750.073 261.776 707.183 255.388C698.692 254.123 690.669 252.928 683.177 251.583C658.403 247.131 630.32 242.084 608.526 225.93C577.387 202.846 575.227 171.492 575.683 135.883C576.147 99.0267 575.092 57.0674 556.536 25.5927C551.14 16.4414 544.923 7.87611 538.04 0.000150102L539.052 0.000150014C545.791 7.77404 551.894 16.2027 557.199 25.2013C575.857 56.8472 576.92 98.9308 576.452 135.894C576.004 171.287 578.141 202.445 608.986 225.313C630.636 241.358 658.622 246.388 683.313 250.823C690.794 252.168 698.809 253.361 707.296 254.626C750.333 261.035 803.891 269.013 829.186 304.945C839.549 319.667 843.386 338.211 846.766 354.574L856.037 399.388C859.477 416.026 861.211 432.91 850.666 443.705C840.359 454.265 823.311 453.034 810.829 450.148L807.324 449.329C783.3 443.707 760.625 438.401 742.102 458.99C736.868 464.806 733.122 471.889 729.497 478.738C728.144 481.295 726.742 483.943 725.283 486.489C718.413 498.475 710.906 505.757 702.337 508.751C699.228 509.836 695.911 510.371 692.478 510.371C685.416 510.371 677.883 508.103 670.783 503.715C661.388 497.912 654.028 489.528 646.909 481.419C645.526 479.843 644.173 478.149 642.741 476.356C638.905 471.552 634.94 466.584 630.146 463.692C625.021 460.601 617.993 459.022 611.794 457.629L609.891 457.2C606.442 456.412 602.881 455.725 599.437 455.061C588.259 452.905 576.701 450.675 566.669 444.623C563.767 442.857 561.028 440.766 558.382 438.745C555.786 436.764 553.099 434.715 550.276 432.983C545.546 430.086 538.428 427.034 531.467 428.977C528.004 429.945 524.808 432.581 523.127 435.86C521.775 438.497 521.53 441.3 522.434 443.758C523.482 446.614 525.743 448.669 528.136 450.844C530.235 452.752 532.406 454.726 533.676 457.291C535.209 460.399 535.16 464.059 533.54 467.6C531.377 472.329 526.734 476.232 521.71 477.541C512.444 479.963 504.473 477.428 496.766 474.975C487.334 471.972 478.425 469.143 467.334 474.723C463.969 476.418 460.675 478.446 457.491 480.409C451.631 484.022 445.571 487.755 438.806 489.556C431.921 491.39 424.546 491.155 417.416 490.929C407.972 490.63 399.06 490.342 391.014 494.39C387.652 496.08 384.641 498.486 381.732 500.814C379.761 502.392 377.718 504.026 375.57 505.435C369.047 509.72 362.184 510.777 357.217 508.261C352.137 505.687 349.895 500.272 347.728 495.031C346.055 490.993 344.329 486.818 341.314 483.86C337.587 480.198 332.247 478.744 327.084 477.336C321.586 475.837 315.899 474.286 312.067 470.071C307.951 465.54 306.659 458.431 308.607 451.051C310.107 445.359 313.182 440.203 316.159 435.215L317.324 433.256C327.013 416.856 332.311 402.926 333.996 389.421C336.114 372.429 331.949 356.283 322.577 345.117C311.697 332.165 295.933 324.257 280.69 316.61C277.015 314.766 273.213 312.86 269.614 310.94C256.3 303.843 246.664 292.284 240.151 275.604C233.225 257.879 221.987 240.551 211.906 225.938C211.326 225.097 210.753 224.28 210.195 223.478C205.922 217.352 202.232 212.059 199.557 204.287C197.695 198.881 196.161 193.283 194.676 187.87C193.825 184.756 192.943 181.534 192.008 178.39C188.556 166.756 183.224 152.08 172.555 141.803C162.61 132.231 146.579 134.984 134.873 136.988C132.262 137.435 129.586 137.96 126.997 138.47C115.53 140.723 103.674 143.041 92.4511 139.763C74.2377 134.425 63.471 116.005 56.9551 102.613C49.2033 86.6792 45.2274 74.138 44.063 61.9523C42.5593 46.246 46.2261 31.7778 54.3888 21.2141C55.9753 19.1593 58.0254 16.9954 60.1998 14.7035Z" fill="black"/>
    <path d="M70.4086 25.8261C73.8493 21.534 77.4068 17.0952 79.9242 12.1896C81.8956 8.34398 83.2471 4.16806 84.4389 0.000187034L85.2411 0.000186964C84.0239 4.27534 82.647 8.56884 80.61 12.5397C78.0588 17.5148 74.4749 21.9856 71.0116 26.3078C66.5007 31.9321 61.839 37.7484 59.5552 44.6202C55.6774 56.2978 58.9749 68.5926 63.3426 82.2969C68.5131 98.5263 75.3115 116.406 90.6043 123.127C104.382 129.175 119.784 124.245 134.677 119.475L137.327 118.628C149.235 114.842 162.953 111.207 174.831 115.952C185.504 120.216 193.184 131.651 194.397 145.086C195.242 154.421 200.457 162.17 205.503 169.667C206.547 171.211 207.584 172.754 208.582 174.305C211.974 179.573 212.705 185.587 213.413 191.402C214.005 196.268 214.619 201.301 216.813 205.766C219.492 211.223 221.64 217.021 223.717 222.628C226.125 229.129 228.616 235.852 231.951 242.084C235.81 249.297 240.381 255.337 245.54 260.039C247.319 261.661 249.181 262.849 250.982 263.998C254.773 266.422 258.353 268.71 259.638 274.421C260.015 276.092 260.249 277.81 260.471 279.469C260.686 281.061 260.908 282.706 261.259 284.29C265.363 302.928 283.456 306.945 299.415 310.491C318.59 314.749 339.92 330.944 349.036 348.16C358.83 366.664 358.646 391.116 348.561 410.452C346.948 413.546 345.041 416.679 343.198 419.71C337.263 429.467 331.128 439.556 333.362 450.376C334.821 457.415 339.667 463.254 343.941 468.404C353.091 479.438 363.258 489.586 375.661 489.586C376.045 489.586 376.433 489.576 376.821 489.556C387.543 489.01 395.204 481.371 403.314 473.283C409.804 466.81 416.515 460.117 425.006 457.268C429.871 455.637 435.121 455.351 440.34 455.351C441.753 455.351 443.166 455.373 444.565 455.394C453.349 455.526 461.606 455.644 468.517 451.068C477.878 444.872 480.264 432.253 478.474 422.499C477.788 418.749 474.83 413.216 471.698 407.361C465.145 395.105 456.993 379.856 465.261 372.294C470.191 367.791 478.029 369.737 483.739 372.168C501.745 379.824 520.097 392.721 538.292 410.499C553.551 425.408 567.981 433.392 588.097 438.054C592.827 439.15 597.778 439.846 603.02 440.583C613.478 442.055 624.29 443.577 633.157 448.502C638.554 451.499 643.129 455.75 647.553 459.861C652.678 464.622 657.977 469.544 664.538 472.48C675.832 477.532 690.477 475.983 703.701 468.344C709.979 464.72 714.897 459.722 719.653 454.89C723.131 451.354 726.727 447.7 730.842 444.59C737.369 439.658 747.601 437.091 755.82 435.031C756.95 434.746 758.047 434.472 759.102 434.199C766.481 432.289 774.093 431.952 781.453 431.627C787.864 431.343 794.492 431.049 800.767 429.696C813.328 426.988 823.024 414.189 825.775 403.52C828.865 391.513 824.147 377.585 819.983 365.296C819.354 363.431 818.735 361.612 818.166 359.85C812.732 343.07 805.12 328.722 795.548 317.206C770.498 287.066 731.693 277.52 694.166 268.288C677.46 264.179 660.182 259.928 644.723 253.918L640.517 252.291C617.948 243.569 592.367 233.685 577.334 214.89C569.277 204.816 564.336 187.584 562.226 162.209C561.389 152.148 561.955 142.171 562.501 132.524C562.9 125.49 563.315 118.218 563.187 110.932C562.671 81.7172 557.225 56.4897 546.997 35.9494C540.677 23.2548 531.101 10.8569 519.511 0.000149047L520.617 0.000148951C532.012 10.7875 541.439 23.0485 547.691 35.607C557.967 56.2507 563.439 81.5893 563.956 110.917C564.088 118.233 563.673 125.521 563.274 132.567C562.727 142.19 562.162 152.139 562.995 162.145C565.094 187.364 569.982 204.459 577.937 214.409C592.842 233.039 618.317 242.886 640.796 251.572L645.002 253.199C660.415 259.192 677.668 263.438 694.351 267.541C731.999 276.801 770.928 286.377 796.143 316.713C805.779 328.304 813.433 342.739 818.898 359.613C819.47 361.371 820.085 363.189 820.714 365.05C824.912 377.44 829.668 391.483 826.521 403.712C823.714 414.603 813.791 427.675 800.933 430.449C794.59 431.817 787.928 432.11 781.487 432.396C774.165 432.72 766.594 433.057 759.298 434.944C758.239 435.217 757.139 435.494 756.004 435.778C747.853 437.823 737.712 440.367 731.309 445.203C727.239 448.279 723.663 451.915 720.203 455.43C715.41 460.3 710.454 465.335 704.085 469.01C690.647 476.775 675.742 478.335 664.222 473.183C657.544 470.195 652.2 465.23 647.029 460.426C642.635 456.346 638.094 452.128 632.781 449.175C624.041 444.32 613.301 442.809 602.911 441.347C597.654 440.608 592.683 439.908 587.924 438.805C567.656 434.107 553.121 426.066 537.749 411.049C519.626 393.34 501.353 380.496 483.437 372.875C477.931 370.538 470.402 368.644 465.781 372.862C457.954 380.02 465.951 394.977 472.38 406.998C475.538 412.908 478.527 418.491 479.235 422.359C481.067 432.364 478.594 445.32 468.947 451.712C461.832 456.421 453.036 456.295 444.553 456.164C438.056 456.066 431.311 455.968 425.255 457.998C416.934 460.789 410.286 467.418 403.861 473.827C396.003 481.662 387.878 489.765 376.859 490.327C376.456 490.346 376.056 490.357 375.657 490.357C362.942 490.356 352.62 480.074 343.345 468.897C339.015 463.675 334.105 457.757 332.609 450.53C330.31 439.415 336.528 429.194 342.539 419.309C344.374 416.289 346.273 413.168 347.875 410.095C357.847 390.977 358.031 366.807 348.35 348.521C339.332 331.484 318.22 315.458 299.25 311.243C283.06 307.649 264.715 303.575 260.505 284.456C260.151 282.839 259.925 281.18 259.706 279.573C259.484 277.928 259.254 276.227 258.885 274.59C257.671 269.188 254.378 267.084 250.564 264.647C248.736 263.481 246.848 262.275 245.02 260.608C239.797 255.847 235.173 249.737 231.273 242.449C227.911 236.17 225.412 229.421 222.993 222.895C220.924 217.307 218.784 211.528 216.119 206.105C213.866 201.523 213.248 196.426 212.645 191.494C211.948 185.766 211.228 179.843 207.934 174.723C206.939 173.176 205.903 171.638 204.866 170.096C199.764 162.52 194.492 154.687 193.629 145.154C192.442 132.007 184.95 120.824 174.545 116.667C162.9 112.012 149.348 115.621 137.56 119.362L134.915 120.209C120.579 124.8 104.333 130.008 90.2952 123.831C74.7086 116.982 67.8309 98.9214 62.604 82.5302C58.1986 68.6943 54.8747 56.2752 58.8242 44.3793C61.1493 37.3758 65.8562 31.5031 70.4086 25.8261Z" fill="black"/>
    <path d="M264.379 22.1624C263.742 23.7599 263.181 25.9465 262.585 28.2628C261.006 34.4215 259.039 42.0855 254.125 44.6107C251.879 45.7661 249.169 45.7454 246.079 44.5505C239.356 41.9482 235.878 34.8317 232.806 28.5544C228.223 19.1845 222.175 8.89856 214.573 0.000128047L215.563 0.00012796C223.019 8.84138 228.976 18.9673 233.5 28.2157C236.507 34.367 239.918 41.3385 246.358 43.8317C249.279 44.9588 251.698 44.9908 253.774 43.9239C258.38 41.5586 260.298 34.0809 261.839 28.0708C262.438 25.7301 263.007 23.521 263.663 21.8764C267.222 12.9481 274.359 5.43908 281.669 0.000122181L282.939 0.00012207C275.449 5.4017 268.015 13.0464 264.379 22.1624Z" fill="black"/>
    <path d="M124.656 0.000178649L125.698 0.000178558C117.919 8.76783 111.157 19.9108 104.811 34.4611C100.266 44.8704 95.0056 60.1157 101.729 72.2732C107.886 83.4164 121.883 87.3792 132.985 87.3792L133.128 87.3792C140.639 87.3548 148.176 85.9604 155.468 84.6132C160.118 83.7514 164.927 82.8632 169.702 82.3307C185.756 80.5469 198.761 81.1302 209.449 84.1334C214.653 85.5954 222.024 88.2391 225.955 94.2812C230.097 100.654 227.617 105.929 224.99 111.512C224.089 113.433 223.155 115.42 222.461 117.51C222.266 118.096 222.073 118.685 221.881 119.275C218.58 129.451 215.467 141.137 220.329 151.04C222.375 155.213 225.71 158.653 228.936 161.978C231.672 164.795 234.498 167.708 236.586 171.095C240.984 178.213 241.809 186.788 242.608 195.078C243.373 203.019 244.165 211.231 248.103 218.095C252.037 224.956 258.436 229.66 264.628 234.21C268.626 237.151 272.764 240.191 276.231 243.8C281.273 249.05 282.457 255.636 283.602 262.004C284.774 268.511 285.882 274.658 290.755 279.537C294.505 283.287 300.474 286.108 306.244 288.838C308.889 290.088 311.388 291.269 313.558 292.492L338.28 306.417C346.526 311.057 355.05 315.857 364.532 317.569C373.942 319.269 381.238 316.647 388.956 313.872C393.026 312.408 397.235 310.897 401.886 309.984C418.392 306.74 441.387 316.235 456.605 322.507L457.6 322.917C471.947 328.824 486.297 334.721 500.648 340.62L520.47 348.767C528.185 351.94 536.163 355.22 542.626 360.804C550.302 367.435 555.635 376.006 560.794 384.297C570.125 399.296 578.962 413.501 600.288 413.501C601.26 413.501 602.263 413.471 603.292 413.41C610.78 412.968 618.181 411.203 625.338 409.496C629.882 408.413 634.582 407.291 639.27 406.516C645.854 405.426 649.43 403.513 653.564 401.294C655.772 400.113 658.052 398.889 660.98 397.696C662.823 396.948 664.632 396.633 666.415 396.633C671.205 396.633 675.795 398.903 680.275 401.115C682.344 402.137 684.485 403.195 686.629 404.028C701.477 409.797 713.103 412.247 724.284 411.943C743.873 411.431 765.972 398.773 769.043 378.475C771.58 361.661 760.636 346.423 749.545 337.769C738.94 329.493 726.127 324.341 713.736 319.359C711.486 318.454 709.24 317.551 707.009 316.63C676.258 303.954 646.886 287.258 618.479 271.111C596.252 258.477 571.055 244.158 554.048 222.06C534.731 196.966 533.393 166.317 532.104 136.677L531.878 131.41C530.913 108.458 529.918 84.7223 523.12 62.5468C514.9 35.733 498.462 15.0648 478.014 5.84085C471.927 3.09386 465.457 1.32345 458.876 0.000149286L462.502 0.000148969C467.929 1.24676 473.258 2.84829 478.33 5.13712C498.982 14.4532 515.575 35.2965 523.858 62.321C530.683 84.5906 531.682 108.377 532.65 131.378L532.873 136.643C534.161 166.163 535.488 196.689 554.659 221.589C571.572 243.565 596.697 257.843 618.863 270.441C647.248 286.576 676.597 303.259 707.303 315.919C709.534 316.837 711.777 317.741 714.023 318.644C726.466 323.645 739.328 328.82 750.02 337.163C761.28 345.949 772.394 361.446 769.805 378.592C766.673 399.286 744.213 412.193 724.307 412.714C723.697 412.729 723.09 412.738 722.479 412.738C711.731 412.737 700.49 410.242 686.35 404.747C684.172 403.9 682.016 402.837 679.932 401.806C673.662 398.703 667.719 395.783 661.274 398.411C658.38 399.588 656.119 400.801 653.93 401.974C649.908 404.13 646.106 406.166 639.398 407.276C634.733 408.047 630.048 409.165 625.515 410.245C618.328 411.961 610.893 413.734 603.337 414.178C602.282 414.242 601.257 414.272 600.258 414.272C578.536 414.27 569.586 399.889 560.138 384.704C555.009 376.462 549.707 367.942 542.121 361.388C535.752 355.884 527.834 352.629 520.176 349.479L500.354 341.331C486.003 335.434 471.653 329.537 457.306 323.628L456.311 323.22C441.169 316.98 418.279 307.551 402.036 310.741C397.439 311.642 393.259 313.144 389.22 314.596C381.392 317.409 373.98 320.061 364.396 318.33C354.786 316.593 346.202 311.761 337.903 307.087L313.182 293.162C311.034 291.954 308.546 290.778 305.912 289.534C300.082 286.778 294.053 283.927 290.212 280.083C285.162 275.03 283.987 268.479 282.845 262.141C281.718 255.885 280.554 249.417 275.673 244.335C272.255 240.773 268.144 237.753 264.168 234.831C257.916 230.234 251.449 225.481 247.432 218.479C243.411 211.47 242.612 203.173 241.839 195.152C241.048 186.948 240.23 178.465 235.93 171.497C233.884 168.184 231.088 165.301 228.382 162.514C225.115 159.146 221.734 155.663 219.635 151.379C214.646 141.218 217.8 129.357 221.15 119.038C221.342 118.444 221.534 117.855 221.73 117.268C222.435 115.134 223.381 113.126 224.293 111.184C226.935 105.567 229.218 100.715 225.307 94.7027C221.519 88.877 214.321 86.3029 209.238 84.8747C198.652 81.9035 185.748 81.3165 169.785 83.0984C165.04 83.6253 160.247 84.5134 155.608 85.3696C148.285 86.7244 140.71 88.1262 133.128 88.1507L132.985 88.1507C121.664 88.1507 107.374 84.0807 101.05 72.6458C94.1652 60.191 99.4939 44.7124 104.103 34.1524C110.356 19.8144 117.016 8.75039 124.656 0.000178649Z" fill="black"/>
    <path d="M509.685 296.647C513.514 296.647 517.226 296.083 520.723 294.939C533.947 290.609 542.652 277.17 540.124 264.98C538.59 257.597 533.547 251.675 528.675 245.949C527.318 244.357 525.92 242.713 524.624 241.07C508.645 220.782 504.157 194.245 499.815 168.581C499.193 164.904 498.572 161.239 497.923 157.607C493.929 135.322 487.865 109.796 473.168 89.4227C445.522 51.1063 399.176 46.7446 357.903 45.6646C346.764 45.3673 330.728 46.9591 317.539 56.1699C306.229 64.071 299.095 76.7309 299.37 88.4255L299.37 88.4273L299.755 88.4161L299.37 88.4387C299.378 88.6852 299.386 88.9335 299.397 89.18C299.672 94.6331 301.025 100.054 302.333 105.298C304.239 112.949 306.214 120.86 304.839 128.938C303.335 137.759 297.942 145.671 292.727 153.322C285.838 163.429 279.329 172.974 280.939 184.485C282.442 195.274 290.398 202.551 298.816 210.254C304.364 215.331 310.103 220.581 313.774 226.912C317.158 232.748 318.741 239.484 320.275 245.998C321.183 249.856 322.121 253.843 323.425 257.634C326.926 267.818 335.115 277.876 345.656 277.876C345.912 277.876 346.168 277.87 346.428 277.859C354.218 277.497 360.338 271.894 366.258 266.475C372.416 260.833 378.246 255.495 385.802 255.495C386.009 255.495 386.213 255.499 386.42 255.508C392.928 255.757 398.001 259.945 403.371 264.38C408.089 268.275 412.969 272.304 418.912 273.401C424.222 274.389 429.494 272.859 434.601 271.389C438.358 270.309 442.243 269.192 446.121 269.066C446.381 269.056 446.641 269.052 446.901 269.052C457.095 269.052 465.793 275.548 474.216 281.835C477.279 284.123 480.453 286.49 483.648 288.511C492.131 293.87 501.187 296.647 509.685 296.647ZM355.495 46.404C356.313 46.404 357.108 46.4153 357.881 46.436C398.969 47.5105 445.104 51.8439 472.542 89.8743C487.149 110.121 493.186 135.544 497.162 157.742C497.814 161.372 498.432 165.034 499.054 168.709C503.41 194.469 507.914 221.104 524.021 241.548C525.321 243.2 526.726 244.852 528.087 246.448C532.899 252.101 537.874 257.947 539.37 265.139C542.027 277.958 531.75 290.519 520.482 294.205C509.451 297.819 496.175 295.511 484.063 287.86C480.89 285.856 477.732 283.496 474.675 281.216C466.155 274.855 457.351 268.281 446.905 268.281C446.637 268.281 446.366 268.287 446.099 268.294C442.123 268.424 438.192 269.555 434.39 270.65C429.14 272.159 424.181 273.582 419.056 272.645C413.305 271.583 408.504 267.619 403.865 263.786C398.63 259.465 393.218 254.996 386.45 254.737C386.239 254.729 386.032 254.725 385.821 254.725C377.944 254.725 371.741 260.406 365.734 265.906C359.92 271.231 353.905 276.739 346.391 277.087C346.146 277.098 345.901 277.104 345.656 277.104C335.492 277.104 327.567 267.306 324.156 257.386C322.864 253.628 321.929 249.66 321.028 245.821C319.479 239.252 317.882 232.46 314.445 226.525C310.714 220.091 304.929 214.802 299.337 209.686C291.023 202.078 283.17 194.894 281.7 184.379C280.136 173.163 286.561 163.736 293.363 153.757C298.628 146.037 304.07 138.053 305.6 129.066C307.002 120.83 305.008 112.84 303.079 105.112C301.782 99.9036 300.437 94.5202 300.166 89.1443C300.154 88.9034 300.147 88.6588 300.139 88.4161L299.755 88.4161L300.139 88.4066C299.875 76.9642 306.877 64.5584 317.983 56.8022C330.084 48.3497 344.653 46.404 355.495 46.404Z" fill="black"/>
    <path d="M474.849 253.645C479.767 253.645 484.828 252.148 487.714 247.872C491.114 242.835 489.972 236.334 488.513 230.108C484.259 212.01 480.008 193.914 475.757 175.818C472.753 163.035 469.648 149.819 463.223 138.024C440.073 95.5212 388.466 71.2646 345.742 82.8124C330.732 86.8674 331.373 96.4206 332.111 107.481C332.315 110.471 332.522 113.565 332.432 116.705C332.168 125.714 328.185 134.124 324.333 142.256C321.13 149.025 317.814 156.021 316.559 163.442C313.521 181.361 322.389 198.567 332.545 216.085C337.61 224.82 343.843 234.281 353.758 235.954C358.318 236.716 362.885 235.632 367.306 234.58C370.317 233.863 373.426 233.124 376.505 232.973C384.935 232.552 392.834 236.503 400.446 240.317C407.068 243.635 413.911 247.065 421.271 247.784C425.684 248.211 430.154 247.647 434.484 247.101C439.168 246.508 444.014 245.893 448.714 246.57C452.648 247.133 456.447 248.593 460.125 250.006C462.816 251.039 465.597 252.108 468.438 252.832C470.398 253.335 472.61 253.645 474.849 253.645ZM367.89 80.7106C404.758 80.7106 443.419 103.281 462.544 138.393C468.921 150.095 472.011 163.261 475.003 175.995C479.254 194.091 483.505 212.187 487.76 230.284C489.184 236.343 490.3 242.662 487.074 247.443C483.098 253.327 474.66 253.625 468.627 252.087C465.834 251.372 463.072 250.313 460.404 249.287C456.684 247.859 452.844 246.382 448.827 245.806C444.026 245.12 439.13 245.737 434.386 246.335C430.105 246.877 425.677 247.44 421.347 247.016C414.13 246.312 407.35 242.914 400.793 239.629C393.09 235.768 385.116 231.756 376.467 232.202C373.317 232.356 370.17 233.107 367.129 233.831C362.58 234.913 358.288 235.939 353.886 235.194C344.303 233.577 338.19 224.284 333.216 215.698C323.127 198.307 314.324 181.235 317.32 163.57C318.56 156.254 321.85 149.307 325.03 142.585C328.916 134.381 332.933 125.897 333.201 116.728C333.295 113.549 333.084 110.439 332.884 107.428C332.134 96.2644 331.542 87.447 345.946 83.5575C353.068 81.6326 360.443 80.7106 367.89 80.7106Z" fill="black"/>
    <path d="M456.138 237.67C458.324 237.67 460.362 237.399 462.149 236.731C468.472 234.362 471.585 227.097 471.864 220.948C472.222 213.118 469.776 204.882 467.409 196.919C466.347 193.338 465.341 189.955 464.587 186.632C462.978 179.549 460.566 172.367 458.237 165.421C457.607 163.538 456.978 161.664 456.368 159.803C452.166 146.977 446.992 132.5 438.776 123.025C427.821 110.384 416.459 101.11 405.014 95.459C393.007 89.5337 374.817 85.9133 359.799 93.5473C347.619 99.7361 341.601 116.846 337.207 129.338L336.619 131.008C332.688 142.132 328.437 155.099 327.778 168.238C326.7 189.635 338.401 215.126 359.844 220.75C365.783 222.31 372.013 222.731 378.035 223.14C381.378 223.365 384.833 223.601 388.195 224.026C395.868 224.997 403.491 226.88 410.866 228.702C417.616 230.369 424.595 232.095 431.582 233.111C434.02 233.464 436.922 234.178 439.993 234.934C445.307 236.242 451.114 237.668 456.138 237.67ZM378.951 89.9815C388.379 89.9815 397.609 92.661 404.675 96.1515C416.025 101.755 427.305 110.966 438.196 123.53C446.313 132.895 451.453 147.288 455.637 160.044C456.243 161.906 456.873 163.782 457.506 165.666C459.831 172.594 462.231 179.758 463.833 186.801C464.594 190.15 465.604 193.545 466.671 197.139C469.019 205.04 471.446 213.212 471.095 220.914C470.828 226.809 467.873 233.764 461.877 236.008C456.221 238.131 447.7 236.035 440.178 234.185C437.088 233.425 434.167 232.708 431.695 232.347C424.742 231.336 417.782 229.616 411.051 227.955C403.657 226.128 396.011 224.239 388.293 223.262C384.905 222.833 381.438 222.598 378.088 222.37C372.099 221.966 365.911 221.546 360.04 220.005C338.978 214.48 327.487 189.366 328.546 168.276C329.202 155.242 333.434 142.337 337.35 131.263L337.938 129.594C342.287 117.224 348.245 100.284 360.146 94.2359C366.104 91.2064 372.574 89.9815 378.951 89.9815Z" fill="black"/>
    <path d="M432.038 222.146C439.858 222.146 448.661 220.426 451.774 209.859C453.341 204.553 452.859 198.866 452.181 194.006C449.185 172.397 440.103 151.126 426.6 134.116C416.202 121.014 400.491 101.198 377.639 110.623C367.705 114.72 359.037 123.494 353.234 135.333C346.959 148.127 340.651 167.367 346.236 186.366C350.777 201.803 365.757 213.97 384.4 217.363C399.568 220.125 415.072 221.727 430.474 222.125C430.99 222.139 431.51 222.146 432.038 222.146ZM389.627 108.853C404.12 108.853 415.159 120.941 425.997 134.594C439.413 151.499 448.439 172.636 451.419 194.111C452.083 198.892 452.558 204.475 451.035 209.641C447.877 220.351 438.904 221.572 430.497 221.354C415.132 220.957 399.666 219.359 384.535 216.607C366.183 213.265 351.436 201.309 346.974 186.148C341.461 167.386 347.713 148.343 353.927 135.672C359.648 124.002 368.172 115.36 377.933 111.335C382.086 109.624 385.967 108.853 389.627 108.853Z" fill="black"/>
    <path d="M422.945 211.598C425.937 211.598 428.752 211.082 431.273 209.575C437.152 206.06 438.709 198.477 439.112 194.271C440.97 175.04 430.708 157.18 420.42 142.243C416.105 135.971 400.578 116.346 381.981 127.156C375.917 130.684 371.052 136.818 368.29 144.428C366.481 149.401 365.407 155.157 365.184 161.073C364.642 175.383 369.032 188.5 376.931 196.16C387.159 206.084 402.448 208.656 414.733 210.724C417.548 211.197 420.314 211.598 422.945 211.598ZM393.139 124.755C406.205 124.755 416.436 137.819 419.787 142.68C429.992 157.501 440.178 175.214 438.343 194.196C437.951 198.258 436.463 205.572 430.874 208.912C426.367 211.613 420.729 210.952 414.861 209.964C402.681 207.915 387.524 205.364 377.466 195.607C369.725 188.096 365.418 175.197 365.953 161.103C366.175 155.264 367.234 149.591 369.013 144.691C371.719 137.249 376.46 131.258 382.373 127.822C386.107 125.65 389.721 124.755 393.139 124.755Z" fill="black"/>
    <path d="M520.467 321.519C529.53 321.519 538.907 320.302 544.985 319.319C557.252 317.342 566.266 312.216 570.37 304.889C573.879 298.628 573.833 291.028 570.238 282.301C566.44 273.087 559.897 264.888 553.57 256.961C550.883 253.598 548.109 250.121 545.641 246.676C537.923 235.894 529.229 223.198 523.776 208.974C518.847 196.115 516.642 182.225 514.509 168.79C513.706 163.739 512.877 158.516 511.916 153.416C504.492 114.125 492.188 84.4946 474.306 62.8309C461.874 47.7738 448.669 38.6233 432.743 34.0339C423.45 31.3544 413.753 29.8998 404.373 28.4942C401.603 28.0784 398.83 27.6626 396.064 27.2166C394.967 27.0397 393.821 26.8835 392.653 26.7255C388.033 26.1008 383.254 25.4535 379.648 23.2576C377.786 22.1248 376.2 20.7004 374.662 19.323C372.371 17.2682 370 15.1438 366.643 13.8812C358.955 10.9985 349.484 11.3861 339.992 14.9613C336.449 16.2973 333.219 18.1696 330.099 19.9797C328.151 21.1106 326.135 22.281 324.058 23.3084C321.499 24.5785 318.974 25.1524 316.302 25.7602C314.445 26.1836 312.519 26.622 310.589 27.3163C301.613 30.5528 293.277 38.5913 288.283 48.8219C279.088 67.6687 281.85 90.6815 285.762 110.706C286.433 114.129 286.934 117.202 286.248 120.165C285.619 122.896 283.471 126.021 280.241 126.431C278.862 126.604 277.49 126.275 276.039 125.925C274.686 125.598 273.292 125.24 271.871 125.368C269.708 125.53 267.862 126.642 266.531 128.584C264.459 131.612 263.856 136.513 265.073 140.501C265.714 142.61 266.648 144.672 267.549 146.669C269.222 150.376 270.805 153.877 270.76 157.748C270.707 161.995 268.615 165.933 266.592 169.74C264.591 173.507 262.522 177.402 262.333 181.687C261.934 190.632 269.437 197.447 276.054 203.459L276.77 204.109C279.97 207.021 283.267 209.927 286.459 212.736C288.875 214.862 291.291 216.99 293.695 219.145C298.417 223.384 303.297 227.765 306.369 233.431C308.404 237.188 309.112 241.448 309.802 245.569C310.311 248.625 310.834 251.784 311.897 254.759C314.23 261.3 318.262 267.792 323.881 274.054C331.354 282.378 341.258 286.729 350.265 285.735C355.808 285.114 360.884 282.576 365.791 280.12C368.67 278.681 371.647 277.191 374.689 276.105C386.175 272.003 399.874 273.875 410.414 281.012C411.91 282.025 413.173 283.129 414.398 284.198C416.96 286.441 419.383 288.558 423.322 289.203C427.384 289.877 431.458 288.763 435.392 287.685C437.883 287.004 440.461 286.298 442.959 286.081C454.337 285.067 464.549 292.594 474.039 300.365L476.13 302.085C485.058 309.441 494.291 317.046 505.559 319.965C509.934 321.099 515.15 321.519 520.467 321.519ZM355.522 12.7353C359.384 12.7353 363.051 13.3562 366.371 14.6038C369.593 15.8137 371.806 17.797 374.15 19.8969C375.71 21.2969 377.323 22.7458 379.248 23.9161C382.991 26.1948 387.852 26.8534 392.551 27.4894C393.712 27.6475 394.85 27.7999 395.943 27.9768C398.709 28.4246 401.487 28.8405 404.26 29.2563C413.614 30.6582 423.288 32.109 432.532 34.7753C448.296 39.3195 461.384 48.391 473.711 63.3202C491.51 84.8822 503.757 114.398 511.155 153.559C512.116 158.647 512.945 163.865 513.748 168.912C515.885 182.385 518.097 196.315 523.052 209.249C528.539 223.559 537.267 236.302 545.015 247.123C547.491 250.586 550.273 254.071 552.963 257.443C559.261 265.327 565.769 273.482 569.522 282.595C573.027 291.092 573.084 298.467 569.696 304.512C565.708 311.631 556.89 316.619 544.865 318.559C535.27 320.106 517.43 322.249 505.755 319.22C494.649 316.342 485.484 308.793 476.62 301.49L474.529 299.771C464.915 291.896 454.548 284.292 442.892 285.314C440.325 285.538 437.714 286.251 435.189 286.941C431.33 287.997 427.339 289.083 423.45 288.443C419.726 287.831 417.492 285.88 414.906 283.618C413.667 282.535 412.382 281.413 410.844 280.373C400.107 273.104 386.149 271.188 374.429 275.379C371.342 276.481 368.346 277.981 365.444 279.432C360.598 281.857 355.586 284.364 350.182 284.968C341.382 285.954 331.765 281.677 324.454 273.538C318.903 267.351 314.923 260.946 312.621 254.5C311.584 251.591 311.064 248.465 310.563 245.443C309.866 241.26 309.146 236.934 307.047 233.065C303.915 227.281 298.979 222.854 294.208 218.573C291.803 216.416 289.388 214.285 286.968 212.156C283.78 209.351 280.486 206.447 277.291 203.54L276.575 202.889C270.081 196.99 262.721 190.305 263.102 181.72C263.287 177.611 265.314 173.793 267.274 170.101C269.343 166.212 271.476 162.191 271.528 157.755C271.577 153.717 269.885 149.973 268.25 146.351C267.36 144.379 266.441 142.337 265.812 140.275C264.658 136.496 265.216 131.867 267.168 129.019C268.363 127.276 270.01 126.281 271.932 126.136C273.228 126.053 274.506 126.349 275.858 126.674C277.313 127.026 278.821 127.387 280.339 127.195C283.934 126.738 286.312 123.321 287.002 120.339C287.718 117.228 287.209 114.069 286.52 110.559C282.631 90.6589 279.883 67.8023 288.977 49.1606C293.883 39.105 302.061 31.2114 310.853 28.0426C312.737 27.3634 314.637 26.9306 316.476 26.511C319.072 25.9201 321.759 25.3086 324.405 23.9971C326.5 22.9584 328.528 21.7842 330.487 20.6458C333.581 18.8507 336.781 16.9954 340.263 15.6839C345.463 13.7232 350.649 12.7353 355.522 12.7353Z" fill="black"/>
    <path d="M267.707 72.3484C263.655 75.1107 257.746 74.6704 250.605 71.0689C233.639 62.5054 219.79 47.5123 212.611 29.9337C211.544 27.3276 210.617 24.3621 209.633 21.2197L209.14 19.656C206.693 11.9038 204.051 4.59519 199.223 0.000133814L200.342 0.000133717C204.933 4.73536 207.496 11.88 209.878 19.4227L210.368 20.9901C211.348 24.1156 212.271 27.0661 213.327 29.644C220.434 47.0513 234.152 61.8995 250.952 70.3802C255.745 72.8 262.468 74.9921 267.269 71.7124C272.877 67.887 271.882 60.2004 270.917 52.7678C270.311 48.1031 269.742 43.6943 270.646 40.0721C273.83 27.3031 282.8 18.3464 298.07 12.6939C301.688 11.3541 305.452 10.2007 309.093 9.08295C316.781 6.72519 324.732 4.28655 331.621 0.000122192L333.009 0.00012207C332.681 0.213229 332.355 0.451 332.028 0.654955C325.052 4.99408 317.056 7.44775 309.319 9.82054C305.69 10.9345 301.936 12.0861 298.341 13.4164C283.327 18.9749 274.513 27.7547 271.392 40.2584C270.525 43.7395 271.087 48.0768 271.682 52.6699C272.677 60.3321 273.706 68.2558 267.707 72.3484Z" fill="black"/>
    <path d="M150.386 0.000172078L151.933 0.000171943C136.952 8.14594 124.372 21.3926 119.151 32.5324C113.886 43.7603 114.105 60.5335 124.868 69.4977C130.747 74.3938 139.433 76.6405 149.371 75.8483C155.796 75.329 162.172 73.6882 168.342 72.1019C170.516 71.5431 172.762 70.9654 174.986 70.4442C192.268 66.3779 206.28 66.5623 217.823 70.988C230.44 75.8239 242.789 88.7076 241.971 103.97C241.73 108.537 240.347 113.081 239.013 117.476C236.978 124.173 235.056 130.5 236.801 136.903C238.041 141.464 240.886 144.689 243.897 148.102C245.883 150.355 247.937 152.682 249.456 155.411C252.923 161.647 253.036 169.273 253.145 176.649C253.175 178.653 253.202 180.548 253.296 182.392C253.967 195.33 260.611 209.385 270.639 219.073C273.578 221.913 276.793 224.38 279.906 226.766C287.386 232.507 294.456 237.93 297.369 247.865C298.021 250.083 298.56 252.377 299.08 254.595C300.214 259.431 301.386 264.433 303.775 268.827C307.209 275.141 313.608 279.578 319.799 283.871C321.785 285.248 323.662 286.55 325.448 287.912C336.716 296.517 346.567 300.503 353.939 299.419C356.181 299.091 358.318 298.128 360.387 297.196C360.767 297.025 361.152 296.854 361.532 296.687C376.26 290.21 393.715 289.361 409.393 294.348C411.066 294.878 412.577 295.418 414.035 295.94C419.085 297.742 423.072 299.161 429.159 298.698C451.664 296.967 463.03 304.729 479.74 317.526C489.949 325.342 505.385 329.751 520.542 333.353C524.088 334.196 527.744 334.956 531.279 335.692C543.168 338.168 555.465 340.727 566.292 346.912C574.364 351.526 579.098 358.486 584.106 365.857C587.63 371.044 591.277 376.409 596.195 380.846C606.386 390.036 618.95 394.042 629.773 391.551C634.616 390.437 639.149 388.049 643.536 385.738C648.36 383.198 653.345 380.571 658.795 379.602C660.543 379.292 662.322 379.166 664.112 379.166C668.242 379.166 672.448 379.841 676.552 380.502C684.922 381.849 692.821 383.117 700.083 379.226C704.187 377.021 707.458 372.96 708.83 368.361C709.975 364.536 709.666 360.71 707.97 357.59C705.943 353.857 702.238 351.276 698.967 348.999C684.952 339.222 670.797 329.14 657.106 319.391C642.108 308.709 626.596 297.661 611.228 286.985C608.873 285.349 606.499 283.718 604.121 282.081C581.46 266.499 558.028 250.384 543.621 226.378C531.426 206.06 526.982 181.489 523.059 159.81C522.249 155.321 521.465 150.801 520.681 146.268C515.918 118.745 510.992 90.2845 498.36 65.0381C490.623 49.5783 480.61 37.3908 468.589 28.816C447.956 14.0976 426.796 10.8367 403.265 8.34346C402.044 8.21364 400.849 8.11581 399.685 8.0198C394.179 7.56632 388.978 7.13919 383.921 3.49816C382.477 2.4583 381.129 1.255 379.827 0.00015096L380.962 0.00015086C382.058 1.02518 383.181 2.01614 384.373 2.87344C389.257 6.3884 394.119 6.78731 399.745 7.25023C400.921 7.34806 402.119 7.44589 403.348 7.57576C426.988 10.0803 448.25 13.36 469.041 28.1875C481.161 36.8376 491.26 49.1192 499.054 64.6919C511.735 90.0417 516.668 118.558 521.443 146.138C522.226 150.669 523.007 155.185 523.821 159.675C527.729 181.288 532.16 205.783 544.284 225.983C558.604 249.846 581.965 265.91 604.558 281.447C606.94 283.084 609.314 284.717 611.665 286.352C627.041 297.031 642.556 308.08 657.555 318.764C671.242 328.511 685.397 338.591 699.412 348.367C702.747 350.692 706.531 353.33 708.649 357.222C710.446 360.524 710.77 364.558 709.572 368.581C708.14 373.372 704.729 377.606 700.445 379.903C692.964 383.919 684.56 382.57 676.431 381.264C670.605 380.323 664.579 379.354 658.93 380.362C653.598 381.309 648.665 383.908 643.894 386.421C639.466 388.755 634.887 391.167 629.947 392.303C627.772 392.802 625.53 393.049 623.25 393.049C613.926 393.049 604.015 388.943 595.675 381.418C590.69 376.919 587.019 371.515 583.465 366.289C578.51 358.996 573.825 352.105 565.908 347.582C555.186 341.457 542.953 338.909 531.12 336.446C527.582 335.71 523.922 334.948 520.361 334.102C505.121 330.481 489.595 326.042 479.273 318.139C462.706 305.451 451.446 297.761 429.219 299.466C422.952 299.962 418.712 298.425 413.775 296.666C412.321 296.147 410.817 295.61 409.159 295.081C393.651 290.151 376.41 290.991 361.841 297.39C361.464 297.558 361.084 297.729 360.707 297.9C358.589 298.852 356.399 299.838 354.052 300.183C346.439 301.274 336.407 297.253 324.981 288.526C323.21 287.173 321.337 285.876 319.358 284.503C313.095 280.16 306.617 275.668 303.097 269.195C300.659 264.709 299.472 259.657 298.326 254.772C297.81 252.563 297.275 250.279 296.63 248.083C293.785 238.387 286.813 233.039 279.434 227.375C276.307 224.978 273.073 222.496 270.104 219.627C259.94 209.808 253.205 195.556 252.527 182.434C252.429 180.573 252.403 178.672 252.373 176.661C252.267 169.38 252.154 161.852 248.777 155.783C247.304 153.13 245.276 150.833 243.317 148.612C240.381 145.282 237.344 141.84 236.055 137.106C234.253 130.488 236.296 123.759 238.274 117.253C239.597 112.902 240.965 108.403 241.203 103.928C241.998 89.0332 229.905 76.4448 217.544 71.7068C206.151 67.3376 192.287 67.172 175.159 71.1931C172.947 71.7143 170.704 72.2901 168.534 72.849C162.335 74.4427 155.924 76.0911 149.431 76.6161C139.313 77.4176 130.407 75.1145 124.37 70.0886C113.313 60.8778 113.068 43.6944 118.45 32.2049C123.59 21.2435 135.78 8.27739 150.386 0.000172078Z" fill="black"/>
    <path d="M158.51 57.6055C159.859 57.6055 161.291 57.4832 162.806 57.2367C172.758 55.6185 182.165 49.4711 186.773 41.5756C190.399 35.3643 190.987 28.483 188.469 21.6751C187 17.6973 184.735 15.0573 181.739 13.8323C178.155 12.3627 173.595 12.9084 168.168 15.4543C160.963 18.8357 154.881 24.4957 153.188 26.1516C148.455 30.7748 145.58 35.5261 144.638 40.2679C143.447 46.2215 145.678 52.4178 150.053 55.3325C152.322 56.8454 155.152 57.6055 158.51 57.6055ZM177.424 13.7984C178.89 13.7984 180.231 14.0468 181.449 14.5454C184.233 15.6857 186.351 18.1752 187.746 21.9423C190.18 28.5263 189.615 35.1817 186.106 41.188C181.611 48.8916 172.415 54.8922 162.685 56.4766C157.59 57.297 153.494 56.7005 150.483 54.6928C146.356 51.9436 144.265 46.0747 145.391 40.4184C146.303 35.8309 149.111 31.2152 153.731 26.701C155.401 25.0678 161.4 19.4811 168.5 16.1505C171.835 14.5849 174.823 13.7984 177.424 13.7984Z" fill="black"/>
    <path d="M121.378 566.04C122.105 566.04 122.791 565.938 123.436 565.737C125.207 565.178 126.609 563.846 127.593 561.778C129.021 558.782 128.851 555.314 128.459 552.012C127.935 547.654 126.956 542.047 123.982 537.343C121.163 532.883 116.569 530.055 111.994 529.961C111.919 529.959 111.84 529.959 111.765 529.959C107.981 529.959 104.585 531.865 102.181 535.346C98.5256 540.637 100.248 547.803 103.078 552.744C104.94 555.992 109.978 561.21 114.874 563.976C117.301 565.349 119.479 566.04 121.378 566.04ZM111.761 530.73C111.832 530.73 111.908 530.73 111.979 530.732C116.298 530.821 120.647 533.512 123.326 537.753C126.221 542.329 127.178 547.825 127.69 552.102C128.071 555.29 128.241 558.628 126.899 561.447C126.006 563.313 124.762 564.51 123.202 565.001C121.114 565.66 118.371 565.071 115.25 563.306C110.472 560.602 105.558 555.52 103.749 552.36C101.035 547.624 99.3622 540.78 102.814 535.783C105.682 531.636 109.221 530.73 111.761 530.73Z" fill="black"/>
    <path d="M165.135 595.371C172.959 595.371 178.468 593.379 181.89 589.335C187.875 582.266 185.433 571.822 182.256 562.54C177.945 549.959 173.486 536.951 165.625 525.849C156.2 512.544 139.475 503.194 124.951 503.113C124.884 503.111 124.816 503.111 124.748 503.111C114.249 503.111 105.359 507.72 99.0277 516.445C91.4643 526.869 89.8513 541.537 94.8183 554.724C99.2425 566.471 108.566 576.822 121.074 583.869C131.558 589.777 144.009 593.428 159.136 595.033C161.269 595.259 163.27 595.371 165.135 595.371ZM124.752 503.883C124.816 503.883 124.884 503.883 124.948 503.883C139.238 503.964 155.703 513.18 164.992 526.293C172.793 537.305 177.232 550.26 181.525 562.788C184.634 571.867 187.038 582.062 181.302 588.838C177.24 593.636 169.997 595.417 159.219 594.265C144.197 592.673 131.84 589.053 121.45 583.199C109.105 576.24 99.902 566.031 95.5418 554.453C90.6653 541.505 92.2406 527.114 99.6533 516.896C105.83 508.38 114.505 503.883 124.752 503.883Z" fill="black"/>
    <path d="M0.000244141 374.318C2.49337 379.694 4.58893 385.123 6.23083 390.516C12.3133 410.497 15.9838 431.439 19.53 451.691C22.2359 467.123 25.0321 483.079 28.8723 498.49C33.3983 516.641 37.6492 535.295 41.7567 553.337C47.6707 579.314 53.8182 606.066 60.8955 632L60.0942 632C53.0372 606.115 46.9048 579.426 41.003 553.508C36.8955 535.47 32.6481 516.819 28.1259 498.676C24.2747 483.239 21.4784 467.269 18.7726 451.825C15.2261 431.595 11.5633 410.676 5.4922 390.742C4.01705 385.896 2.17093 381.022 0.000244304 376.183L0.000244141 374.318Z" fill="black"/>
    <path d="M0 473.385C4.07518 481.946 7.0575 491.551 10.0028 501.041C11.1635 504.777 12.3617 508.638 13.5978 512.315C24.6548 545.197 33.0963 579.163 38.685 613.27C39.5214 618.373 40.3206 623.604 41.0929 628.664C41.2627 629.774 41.4332 630.887 41.6035 632L40.8209 632C40.6567 630.926 40.4916 629.852 40.3281 628.78C39.5593 623.723 38.7604 618.493 37.9236 613.394C32.3389 579.328 23.9084 545.402 12.8669 512.559C11.6271 508.875 10.4284 505.008 9.26797 501.269C6.50446 492.369 3.70728 483.367 1.61838e-07 475.236L0 473.385Z" fill="black"/>
    <path d="M-0.000488199 557.403L-0.000488281 556.466C5.24514 560.107 10.1391 564.83 14.4982 570.586C27.1342 587.275 20.4829 606.981 14.0537 626.041C13.365 628.082 12.7069 630.053 12.0722 632L11.2626 632C11.9212 629.972 12.6038 627.921 13.3224 625.794C19.6875 606.925 26.2715 587.414 13.8804 571.053C9.69489 565.525 5.01431 560.955 -0.000488199 557.403Z" fill="black"/>
    <path d="M-0.000242217 276.33C17.0235 288.087 32.4808 302.469 45.585 318.849C55.6473 331.432 64.2469 345.07 71.136 359.384C72.0178 361.215 72.9336 363.034 73.8531 364.854C76.8981 370.896 80.0446 377.143 81.8613 383.815C82.6904 386.871 82.758 390.559 82.8223 394.125C82.9127 399.196 83.0069 404.439 85.2718 407.995C89.4323 414.513 92.3077 414.575 98.4653 414.06C104.307 413.576 114.203 410.59 115.88 404.636C116.566 402.196 115.936 399.567 115.375 397.247C114.772 394.725 114.275 392.102 113.747 389.325C112.386 382.141 110.977 374.712 107.619 368.862C104.329 363.123 98.816 358.831 93.487 354.678C91.1995 352.896 88.8331 351.054 86.7227 349.148C79.2761 342.421 73.4838 333.445 67.8837 324.765C65.2043 320.614 62.4307 316.32 59.5739 312.442C46.4407 294.638 32.8586 276.227 14.295 263.376C9.74734 260.227 4.94103 257.551 -0.000244066 255.175L-0.000244141 254.323C5.08918 256.754 10.0443 259.497 14.7322 262.743C33.4051 275.667 47.0248 294.13 60.1921 311.987C63.0673 315.882 65.8447 320.187 68.5319 324.347C74.1054 332.986 79.8677 341.916 87.2428 348.576C89.3303 350.463 91.6859 352.298 93.9621 354.07C99.3511 358.268 104.921 362.607 108.29 368.478C111.712 374.441 113.133 381.934 114.508 389.18C115.032 391.95 115.529 394.565 116.128 397.066C116.679 399.358 117.365 402.211 116.626 404.845C114.84 411.175 104.578 414.327 98.5256 414.827C97.2369 414.934 96.0835 415.006 95.0323 415.006C90.5928 415.006 88.0153 413.723 84.6234 408.409C82.2381 404.67 82.1439 399.317 82.0497 394.138C81.9856 390.62 81.9216 386.982 81.1151 384.019C79.321 377.42 76.1896 371.208 73.1635 365.2C72.244 363.375 71.3244 361.553 70.4426 359.719C63.5763 345.456 55.0104 331.868 44.9821 319.331C32.0378 303.149 16.7893 288.924 -0.000242135 277.266L-0.000242217 276.33Z" fill="black"/>
</svg>
