<svg xmlns="http://www.w3.org/2000/svg" fill="none" height="24" width="24">
    <path
        d="M21.82 9.02a8.52 8.52 0 0 0-2.06-4.78 8.53 8.53 0 0 0-4.78-2.06C13.21 1.95 12 2.01 12 2.01s-1.2-.06-2.98.17a8.5 8.5 0 0 0-4.77 2.06 8.5 8.5 0 0 0-2.07 4.78C1.95 10.79 2.01 12 2.01 12s-.06 1.2.17 2.98c.25 1.86.9 3.54 2.07 4.77a8.5 8.5 0 0 0 4.77 2.07c1.77.23 2.98.17 2.98.17s1.2.06 2.98-.17a8.48 8.48 0 0 0 4.77-2.07 8.47 8.47 0 0 0 2.06-4.77C22.05 13.2 22 12 22 12s.07-1.21-.17-2.98z"
        fill="#7882ff"
    />
    <g fill="#fff">
        <path d="M17.12 10.52a5.34 5.34 0 1 1-10.28 2.86 5.34 5.34 0 0 1 10.28-2.86z" />
        <path d="M17.12 10.52a5.32 5.32 0 0 1-.16 3.35" />
        <path d="M17.04 10.52c.2.74.25 1.5.14 2.22z" />
    </g>
    <path
        d="M15.55 15.7c-1.35 0-3-.35-4.63-.97a13.57 13.57 0 0 1-4.11-2.35C5.17 10.92 5.27 9.8 5.48 9.25c.2-.54.88-1.45 3.07-1.45 1.35 0 3 .34 4.63.96 1.64.62 3.1 1.46 4.1 2.35 1.65 1.46 1.55 2.59 1.34 3.13-.2.54-.88 1.46-3.07 1.46zm-7-6.21c-1.01 0-1.44.25-1.49.36-.04.12.12.6.88 1.27.85.75 2.15 1.5 3.58 2.03 1.43.55 2.9.86 4.03.86 1.02 0 1.45-.25 1.5-.37.04-.1-.12-.59-.88-1.26-.84-.75-2.15-1.5-3.58-2.04-1.44-.54-2.9-.85-4.04-.85z"
        fill="#4d5cc1"
    />
    <path d="m7.06 9.87 9.98 3.79a5.34 5.34 0 0 0-9.98-3.79z" fill="#fff" />
</svg>
