<svg xmlns="http://www.w3.org/2000/svg" width="24" height="24" viewBox="0 0 24 24">
    <path
        vector-effect="non-scaling-stroke"
        d="M16.49 3c-2.21 0-4.21.9-5.66 2.34l1.06 1.06a6.47 6.47 0 0 1 9.18 0l1.06-1.06A7.932 7.932 0 0 0 16.49 3z"
    />
    <path
        vector-effect="non-scaling-stroke"
        d="M20.03 7.46a5.022 5.022 0 0 0-7.08 0l1.06 1.06c.63-.63 1.51-1.03 2.47-1.03s1.84.39 2.47 1.03l1.08-1.06zm-4.95 2.13L16.49 11l1.41-1.41c-.36-.37-.86-.59-1.41-.59s-1.05.22-1.41.59z"
    />
    <path
        vector-effect="non-scaling-stroke"
        d="m21 15-5-1-2.9 2.9c-2.5-1.43-4.57-3.5-6-6L10 8 9 3H3c0 3.28.89 6.35 2.43 9 1.58 2.73 3.85 4.99 6.57 6.57C14.65 20.1 17.72 21 21 21v-6z"
    />
</svg>
