<svg xmlns="http://www.w3.org/2000/svg" width="40" height="40" viewBox="0 0 40 40" fill="none">
    <rect y="27" width="40" height="13" fill="#D80027" />
    <rect y="13" width="40" height="14" fill="#F0F0F0" />
    <rect width="40" height="13" fill="#6DA544" />
    <path d="M20 20L0 0V40L20 20Z" fill="#0052B4" />
    <path
        d="M23.5105 16.5217V20.8695C23.5105 23.532 26.982 24.3479 26.982 24.3479C26.982 24.3479 30.4535 23.532 30.4535 20.8695V16.5217H23.5105Z"
        fill="#DEDDE0"
    />
    <rect x="26.1141" y="20.087" width="1.73575" height="2.52172" fill="#786145" />
    <path
        d="M28.7176 19.1305C28.7176 18.1699 27.9406 17.3913 26.9819 17.3913C26.0232 17.3913 25.2461 18.1699 25.2461 19.1305C24.7668 19.1305 24.3783 19.5198 24.3783 20C24.3783 20.4802 24.7668 20.8695 25.2461 20.8695C25.5307 20.8695 28.433 20.8695 28.7176 20.8695C29.1969 20.8695 29.5855 20.4802 29.5855 20C29.5855 19.5198 29.197 19.1305 28.7176 19.1305Z"
        fill="#6DA544"
    />
</svg>
