<svg xmlns="http://www.w3.org/2000/svg" width="40" height="40" viewBox="0 0 40 40" fill="none">
    <rect width="40" height="40" fill="#D80027" />
    <path
        fill-rule="evenodd"
        clip-rule="evenodd"
        d="M31.8194 16.4133H22.7901L20 7.82611L17.2098 16.4133H8.1806L15.4854 21.7205L12.6951 30.3079L20 25.0006L27.3048 30.308L24.5146 21.7206L31.8194 16.4133ZM17.5298 21.0562L18.4733 18.1524H21.5265L22.4701 21.0562V21.0563L20 22.8509L17.5299 21.0563L17.5298 21.0562ZM19.0385 16.4133H20.9615L20 13.4539L19.0385 16.4133ZM23.9494 19.9814L23.3551 18.1524H26.4668L23.9494 19.9814ZM16.0504 19.9814L16.6447 18.1524H13.533L16.0504 19.9814ZM16.0032 25.7548L16.9647 22.7955L18.5206 23.9258L16.0032 25.7548ZM23.0352 22.7956L21.4794 23.9259L23.9968 25.7549L23.0352 22.7956Z"
        fill="#006233"
    />
</svg>
