<svg width="64" height="64" viewBox="0 0 512 512" xmlns="http://www.w3.org/2000/svg">
    <!-- Created with Method Draw - http://github.com/duopixel/Method-Draw/ -->
    <!-- Mocked by cypress -->

    <g>
        <title>background</title>
        <rect id="canvas_background" x="-1" y="-1" width="514" height="514" fill="none" />
        <g id="canvasGrid" display="none">
            <rect id="svg_1" width="100%" height="100%" x="0" y="0" stroke-width="0" fill="url(#gridpattern)" />
        </g>
    </g>
    <g>
        <title>Layer 1</title>
        <style type="text/css">
.st0 {
    fill: #dd0031;
}

.st1 {
    fill: #c3002f;
}

.st2 {
    fill: #ffffff;
}
        </style>
        <g id="svg_8" stroke="null">
            <g
                id="svg_5"
                transform="matrix(2.5122204305161695,0,0,2.5122204305161695,-1123.5039578168125,-1123.4669114951682) "
                stroke="null"
            >
                <polygon
                    id="svg_6"
                    points="549.31640625,448.91835513710976 549.31640625,448.91835513710976 549.31640625,448.91835513710976 456.2164001464844,482.118367344141 470.4164123535156,605.2183429300785 549.31640625,648.9183551371098 549.31640625,648.9183551371098 549.31640625,648.9183551371098 628.2164306640625,605.2183429300785 642.4164428710938,482.118367344141 "
                    stroke="null"
                    class="st0"
                />
                <polygon
                    id="svg_7"
                    points="549.31640625,448.91835513710976 549.31640625,471.118367344141 549.31640625,471.0183612406254 549.31640625,572.3183795511723 549.31640625,572.3183795511723 549.31640625,648.9183551371098 549.31640625,648.9183551371098 628.2164306640625,605.2183429300785 642.4164428710938,482.118367344141 549.31640625,448.91835513710976 "
                    stroke="null"
                    class="st1"
                />
            </g>
        </g>
        <g id="svg_11" stroke="null">
            <path
                id="svg_10"
                stroke="null"
                fill="#ffffff"
                d="m371.966182,248.213831c0,-9.934647 -1.266314,-19.761545 -3.768731,-29.284829l14.55128,-10.704506l-28.243078,-48.91798l-16.57134,7.260535c-14.168113,-14.066909 -31.516361,-24.09118 -50.697869,-29.293892l-1.994381,-17.956481l-56.485653,0l-1.994885,17.955978c-19.181004,5.202712 -36.529252,15.226983 -50.696862,29.293892l-16.571844,-7.260535l-28.242575,48.91798l14.550777,10.705009c-2.502417,9.523284 -3.768228,19.350685 -3.768228,29.284829s1.266314,19.761545 3.768228,29.284829l-14.550777,10.704506l28.242575,48.91798l16.571844,-7.260535c14.168113,14.067412 31.516361,24.091684 50.696862,29.293892l1.994885,17.956481l56.486157,0l1.994885,-17.956481c19.181508,-5.202209 36.529756,-15.226983 50.697869,-29.293892l16.57134,7.260535l28.243078,-48.91798l-14.55128,-10.704506c2.501914,-9.524795 3.767724,-19.350685 3.767724,-29.284829zm-84.982498,-17.289841l10.792116,-10.569063l27.623264,28.205819l-28.205819,27.623768l-10.56856,-10.791612l17.413703,-17.054705l-17.054705,-17.414207zm-33.335019,69.867292l-14.781382,-3.111658l21.483027,-102.043245l14.781382,3.111658l-21.483027,102.043245zm-26.274376,-35.398884l-10.56856,10.791612l-28.206323,-27.623768l27.623264,-28.205819l10.792116,10.569063l-17.054705,17.414207l17.414207,17.054705z"
            />
        </g>
    </g>
</svg>
