<svg xmlns="http://www.w3.org/2000/svg" width="40" height="40" viewBox="0 0 40 40" fill="none">
    <rect width="40" height="40" fill="#F0F0F0" />
    <rect y="23" width="40" height="6" fill="#6DA544" />
    <rect y="34" width="40" height="6" fill="#6DA544" />
    <rect y="11" width="40" height="6" fill="#6DA544" />
    <rect width="40" height="6" fill="#6DA544" />
    <rect width="20" height="17" fill="#D80027" />
    <path
        d="M8.65219 12.6812L7.78265 10.9422V7.46387L9.95656 5.72473L12.1305 7.46387V10.0725L13 9.20301V10.9422L11.2609 12.6812H8.65219Z"
        fill="#F0F0F0"
    />
    <path
        d="M3.97523 7.34778L4.20547 8.05637H4.95047L4.34773 8.49442L4.57805 9.20293L3.97523 8.76497L3.37242 9.20293L3.60273 8.49442L3 8.05637H3.745L3.97523 7.34778Z"
        fill="#F0F0F0"
    />
    <path
        d="M5.71437 5.60864L5.9446 6.31724H6.68968L6.08687 6.75528L6.3171 7.4638L5.71437 7.02591L5.11164 7.4638L5.34195 6.75528L4.73914 6.31724H5.48406L5.71437 5.60864Z"
        fill="#F0F0F0"
    />
    <path
        d="M7.45352 3.86951L7.68376 4.5781H8.42868L7.82602 5.01615L8.05618 5.72466L7.45352 5.28677L6.85071 5.72466L7.08094 5.01615L6.47829 4.5781H7.22321L7.45352 3.86951Z"
        fill="#F0F0F0"
    />
    <path
        d="M15.9378 7.34778L15.7076 8.05637H14.9627L15.5653 8.49442L15.3351 9.20293L15.9378 8.76497L16.5406 9.20293L16.3104 8.49442L16.9131 8.05637H16.1681L15.9378 7.34778Z"
        fill="#F0F0F0"
    />
    <path
        d="M14.1987 5.60864L13.9684 6.31724H13.2235L13.8262 6.75528L13.5959 7.4638L14.1987 7.02591L14.8015 7.4638L14.5712 6.75528L15.1739 6.31724H14.429L14.1987 5.60864Z"
        fill="#F0F0F0"
    />
    <path
        d="M12.4596 3.86951L12.2293 4.5781H11.4844L12.087 5.01615L11.8568 5.72466L12.4596 5.28677L13.0623 5.72466L12.8321 5.01615L13.4348 4.5781H12.6898L12.4596 3.86951Z"
        fill="#F0F0F0"
    />
    <path
        d="M9.95656 3L9.72625 3.70859H8.98132L9.58398 4.14656L9.35375 4.85508L9.95656 4.41719L10.5593 4.85508L10.3291 4.14656L10.9317 3.70859H10.1868L9.95656 3Z"
        fill="#F0F0F0"
    />
</svg>
