<svg xmlns="http://www.w3.org/2000/svg" width="40" height="40" viewBox="0 0 40 40" fill="none">
    <rect width="40" height="40" fill="#0052B4" />
    <path
        d="M20.0117 0.0890125C20.0103 0.0890125 20.0088 0.0891125 20.0073 0.0891125L20.0117 0.0890125Z"
        fill="#F0F0F0"
    />
    <path
        d="M19.95 20.0576H20.0189C20.0189 20.0344 20.0189 20.0122 20.0189 19.9891C19.996 20.012 19.9731 20.0348 19.95 20.0576Z"
        fill="#F0F0F0"
    />
    <path
        d="M12.0621 23.5106L13.1598 25.8012L15.6385 25.2295L14.5285 27.5142L16.5218 29.0918L14.04 29.6501L14.0469 32.1892L12.0621 30.6007L10.0775 32.1892L10.0844 29.6501L7.60254 29.0918L9.5959 27.5142L8.48574 25.2295L10.9646 25.8012L12.0621 23.5106Z"
        fill="#F0F0F0"
    />
    <path
        d="M29.9441 27.8499L30.4929 28.9953L31.7323 28.7093L31.1772 29.8517L32.174 30.6406L30.933 30.9197L30.9365 32.1893L29.9441 31.3949L28.9518 32.1893L28.9552 30.9197L27.7144 30.6406L28.711 29.8517L28.156 28.7093L29.3953 28.9953L29.9441 27.8499Z"
        fill="#F0F0F0"
    />
    <path
        d="M24.8386 15.6997L25.3874 16.8451L26.6267 16.5591L26.0717 17.7015L27.0684 18.4904L25.8275 18.7695L25.8309 20.039L24.8386 19.2447L23.8463 20.039L23.8496 18.7695L22.6088 18.4904L23.6054 17.7015L23.0504 16.5591L24.2898 16.8451L24.8386 15.6997Z"
        fill="#F0F0F0"
    />
    <path
        d="M29.9441 8.75671L30.4929 9.90213L31.7323 9.61621L31.1773 10.7586L32.1739 11.5474L30.933 11.8266L30.9365 13.0961L29.9441 12.3018L28.9518 13.0961L28.9552 11.8266L27.7144 11.5474L28.7109 10.7586L28.156 9.61621L29.3953 9.90213L29.9441 8.75671Z"
        fill="#F0F0F0"
    />
    <path
        d="M34.4038 13.964L34.9525 15.1094L36.1919 14.8234L35.6369 15.9658L36.6336 16.7546L35.3926 17.0339L35.3961 18.3033L34.4038 17.5091L33.4115 18.3033L33.4148 17.0339L32.174 16.7546L33.1706 15.9658L32.6156 14.8234L33.8549 15.1094L34.4038 13.964Z"
        fill="#F0F0F0"
    />
    <path
        d="M31.2149 20.0391L31.6465 21.3651H33.0436L31.9133 22.1846L32.3451 23.5106L31.2149 22.6911L30.0847 23.5106L30.5164 22.1846L29.3862 21.3651H30.7832L31.2149 20.0391Z"
        fill="#F0F0F0"
    />
    <path fill-rule="evenodd" clip-rule="evenodd" d="M0 0H8H16H20V3V8L13 8L20 15V20H17L10 13V20H0V0Z" fill="#F0F0F0" />
    <path
        fill-rule="evenodd"
        clip-rule="evenodd"
        d="M8 0H3V3H0V8H3V20H8V8H20V3H8V0ZM20 16.5845L12.8943 9.49268C12.8943 9.49268 10.4348 9.49283 10.4348 9.49268V9.49283L19.9999 19.0392H20V16.5845Z"
        fill="#D80027"
    />
</svg>
