<svg xmlns="http://www.w3.org/2000/svg" width="40" height="40" viewBox="0 0 40 40" fill="none">
    <rect x="28" width="40" height="16" transform="rotate(90 28 0)" fill="#F0F0F0" />
    <rect x="40" width="40" height="12" transform="rotate(90 40 0)" fill="#338AF3" />
    <rect x="12" width="40" height="12" transform="rotate(90 12 0)" fill="#338AF3" />
    <path
        d="M25.2264 23.3819L21.8447 20.0001L25.0637 16.781L24.9178 15.0808L23.9962 14.1591L20 18.1554L16.0037 14.1591L15.0822 15.0808L14.9363 16.781L18.1553 20.0001L14.7735 23.3819L16.6182 25.2264L20 21.8447L23.3818 25.2264L25.2264 23.3819Z"
        fill="#ACABB1"
    />
    <path
        d="M24.919 15.081L23.0744 16.9256C23.8612 17.7124 24.3479 18.7994 24.3479 20C24.3479 22.4012 22.4013 24.3478 20.0001 24.3478C17.5989 24.3478 15.6522 22.4012 15.6522 20C15.6522 18.7994 16.1389 17.7124 16.9257 16.9256L15.0811 15.081C13.8221 16.3397 13.0435 18.0789 13.0435 20C13.0435 23.842 16.158 26.9565 20 26.9565C23.842 26.9565 26.9565 23.8419 26.9565 20C26.9565 18.079 26.1779 16.3398 24.919 15.081Z"
        fill="#6DA544"
    />
</svg>
