<svg xmlns="http://www.w3.org/2000/svg" width="40" height="40" viewBox="0 0 40 40" fill="none">
    <rect width="40" height="40" fill="#0052B4" />
    <path d="M40 9.00003V3.05176e-05H31L5.83447 34.1655L40 9.00003Z" fill="#F0F0F0" />
    <path d="M5.83447 34.1655L40 9V0L5.83447 34.1655Z" fill="#FF9811" />
    <path
        d="M17.3678 11.7283L14.9253 12.8772L16.226 15.2428L13.5737 14.7354L13.2376 17.4148L11.3901 15.4441L9.54259 17.4148L9.20665 14.7354L6.55431 15.2427L7.85485 12.8771L5.41235 11.7283L7.85493 10.5793L6.55431 8.21383L9.20649 8.72109L9.54267 6.04172L11.3901 8.01242L13.2376 6.04172L13.5737 8.72109L16.2261 8.21383L14.9254 10.5794L17.3678 11.7283Z"
        fill="#F0F0F0"
    />
</svg>
