<svg xmlns="http://www.w3.org/2000/svg" width="40" height="40" viewBox="0 0 40 40" fill="none">
    <path
        d="M0.000192951 -9.84645e-06L31.1112 -1.25438e-05L0.0001943 31.111L0.000192951 -9.84645e-06Z"
        fill="#0052B4"
    />
    <path d="M8.88881 39.9998L40 8.88885L40 39.9998H8.88881Z" fill="#496E2D" />
    <path d="M4.99998 39.9998L39.9998 4.99998L39.9998 8.88885L8.88885 39.9998L4.99998 39.9998Z" fill="#F0F0F0" />
    <path
        d="M-1.36907e-05 31.111L31.111 -1.62859e-05L34.9998 -1.66231e-05L-1.35222e-05 34.9998L-1.36907e-05 31.111Z"
        fill="#F0F0F0"
    />
    <path
        d="M-2.76732e-08 34.9998L34.9998 6.51365e-07L39.9998 0.000168901L39.9998 5.00014L4.99998 39.9998L-4.34243e-08 39.9998L-2.76732e-08 34.9998Z"
        fill="#A2001D"
    />
    <path
        d="M16.5223 11.3044L14.2812 12.3599L15.4746 14.5299L13.0301 14.0633L12.7213 16.521L11.0268 14.7133L9.33127 16.521L9.02349 14.0633L6.57906 14.5299L7.77239 12.3599L5.53129 11.3044L7.77239 10.2488L6.60017 8.07995L9.0446 8.54662L9.35349 6.08774L11.0479 7.89551L12.7435 6.08774L13.0524 8.54662L15.4968 8.07995L14.3035 10.2499L16.5223 11.3044Z"
        fill="#FFDA44"
    />
</svg>
