<svg xmlns="http://www.w3.org/2000/svg" width="40" height="40" viewBox="0 0 40 40" fill="none">
    <rect width="40" height="40" fill="#F0F0F0" />
    <rect x="20" y="10" width="20" height="5" fill="#338AF3" />
    <rect y="20" width="40" height="5" fill="#338AF3" />
    <rect y="30" width="40" height="5" fill="#338AF3" />
    <rect x="20" width="20" height="5" fill="#338AF3" />
    <path d="M20 0C20 1.73914 20 4.34781 20 4.34781H32.4498C29.0334 1.62688 24.707 0 20 0Z" fill="#338AF3" />
    <path
        d="M15.3913 7.70472L12.9487 8.8537L14.2494 11.2193L11.597 10.712L11.2609 13.3913L9.41359 11.4207L7.56609 13.3913L7.23007 10.712L4.57773 11.2192L5.87835 8.85362L3.43585 7.70472L5.87843 6.55589L4.57773 4.19026L7.22999 4.69761L7.56616 2.01831L9.41359 3.98894L11.261 2.01831L11.597 4.69761L14.2494 4.19026L12.9487 6.55597L15.3913 7.70472Z"
        fill="#FFDA44"
    />
</svg>
