<svg xmlns="http://www.w3.org/2000/svg" width="40" height="40" viewBox="0 0 40 40" fill="none">
    <path d="M39.9995 39.9998V0L0 0.000499083L5.29813e-07 39.9998H39.9995Z" fill="#F0F0F0" />
    <path d="M0 0.000488275V39.9997L19.9998 20.0002L0 0.000488275Z" fill="#3D3D3D" />
    <path
        d="M0 28.3335L4.82129e-05 32.2224L17.3909 20.0001L1.80467e-05 7.77823L1.41228e-05 11.6671L8.90768 20.0001L0 28.3335Z"
        fill="#FFDA44"
    />
    <path
        d="M0 7.77868L5.05905e-05 0.000976551L17.3909 17.3913H39.9995V22.609H17.3909L0.000671357 39.9998L0 32.2228L12.5932 20.0002L0 7.77868Z"
        fill="#6DA544"
    />
    <path d="M39.9995 25.218L39.9995 39.9998H3.88905L18.4709 25.218H39.9995Z" fill="#0052B4" />
    <path
        d="M4.26436 0.000488275C4.01918 0.000540714 3.88881 0.000569655 3.88881 0.000569655L18.4709 14.7825L39.9995 14.7825L39.9995 0.000488275H4.26436Z"
        fill="#D80027"
    />
</svg>
