<svg xmlns="http://www.w3.org/2000/svg" width="40" height="40" viewBox="0 0 40 40" fill="none">
    <rect width="40" height="40" fill="#0052B4" />
    <path
        d="M40 20.039C40 31.0631 31.0456 40 20 40C8.95437 40 0 31.0631 0 20.039C0 20.0438 20 0.0801861 20 0.0780029C31.0456 0.0780029 40 9.01492 40 20.039Z"
        fill="#0052B4"
    />
    <path
        d="M19.9499 20.0575H20.0184C20.0184 20.0345 20.0184 20.0121 20.0184 19.989C19.9956 20.0119 19.9728 20.0347 19.9499 20.0575Z"
        fill="#F0F0F0"
    />
    <path
        d="M32.1739 23.5105V24.3783H25.2174V23.5105H22.6087V26.9819H24.3478V27.8498H33.0435V26.9819H34.7826V23.5105H32.1739Z"
        fill="#FFDA44"
    />
    <path
        d="M22.6087 10.4924V20.039C22.6087 24.6892 28.6956 26.1141 28.6956 26.1141C28.6956 26.1141 34.7826 24.6892 34.7826 20.039V10.4924H22.6087Z"
        fill="#338AF3"
    />
    <path
        d="M28.6953 17.6132C27.1737 17.6132 27.1737 19.0018 25.652 19.0018C24.1304 19.0018 24.1304 17.6132 22.6087 17.6132V20.0432C24.1304 20.0432 24.1304 21.4318 25.652 21.4318C27.1737 21.4318 27.1737 20.0432 28.6953 20.0432C30.2171 20.0432 30.2171 21.4318 31.739 21.4318C33.2608 21.4318 33.2608 20.0432 34.7826 20.0432V17.6132C33.2608 17.6132 33.2608 19.0018 31.739 19.0018C30.2171 19.0018 30.2171 17.6132 28.6953 17.6132Z"
        fill="#F3F3F3"
    />
    <path
        d="M28.6953 12.7489C27.1737 12.7489 27.1737 14.1375 25.652 14.1375C24.1304 14.1375 24.1304 12.7489 22.6087 12.7489V15.1789C24.1304 15.1789 24.1304 16.5675 25.652 16.5675C27.1737 16.5675 27.1737 15.1789 28.6953 15.1789C30.2171 15.1789 30.2171 16.5675 31.739 16.5675C33.2608 16.5675 33.2608 15.1789 34.7826 15.1789V12.7489C33.2608 12.7489 33.2608 14.1375 31.739 14.1375C30.2171 14.1375 30.2171 12.7489 28.6953 12.7489Z"
        fill="#F3F3F3"
    />
    <path
        fill-rule="evenodd"
        clip-rule="evenodd"
        d="M0 0H7.99999H16H20V3V7.99999L13 7.99999L20 15V20H17L9.99999 13V20H0V0Z"
        fill="#F0F0F0"
    />
    <path
        fill-rule="evenodd"
        clip-rule="evenodd"
        d="M7.99999 0H3V3H0V7.99999H3V20H7.99999V7.99999H20V3H7.99999V0ZM20 16.5845L12.8943 9.49267C12.8943 9.49267 10.4348 9.49282 10.4348 9.49267V9.49282L19.9999 19.0392H20V16.5845Z"
        fill="#D80027"
    />
</svg>
