<svg xmlns="http://www.w3.org/2000/svg"
     width="250"
     height="250"
     viewBox="0 0 250 250">
    <polygon fill="#DD0031"
             points="125,30 125,30 125,30 31.9,63.2 46.1,186.3 125,230 125,230 125,230 203.9,186.3 218.1,63.2"/>
    <polygon fill="#C3002F"
             points="125,30 125,52.2 125,52.1 125,153.4 125,153.4 125,230 125,230 203.9,186.3 218.1,63.2 "/>
    <path fill="#FFFFFF"
          d="M125,52.1L66.8,182.6l0,0h21.7l0,0l11.7-29.2h49.4l11.7,29.2l0,0H183l0,0L125,52.1L125,52.1L125,52.1 L125,52.1L125,52.1z M142,135.4h-34l17-40.9L142,135.4z"/>
</svg>
