<svg xmlns="http://www.w3.org/2000/svg" width="24" height="24" viewBox="0 0 24 24">
    <path
        vector-effect="non-scaling-stroke"
        d="M9 11h6c.55 0 1 .45 1 1s-.45 1-1 1H9c-.55 0-1-.45-1-1s.45-1 1-1zm11.93 1c.62 0 1.07-.59.93-1.19A5.008 5.008 0 0 0 17 7h-3.05c-.52 0-.95.43-.95.95s.43.95.95.95H17c1.45 0 2.67 1 3.01 2.34.11.44.47.76.92.76zm-16.97-.62C4.24 9.91 5.62 8.9 7.12 8.9h2.93c.52 0 .95-.43.95-.95S10.57 7 10.05 7H7.22c-2.61 0-4.94 1.91-5.19 4.51A4.995 4.995 0 0 0 7 17h3.05c.52 0 .95-.43.95-.95s-.43-.95-.95-.95H7a3.11 3.11 0 0 1-3.04-3.72zM18 12c-.55 0-1 .45-1 1v2h-2c-.55 0-1 .45-1 1s.45 1 1 1h2v2c0 .55.45 1 1 1s1-.45 1-1v-2h2c.55 0 1-.45 1-1s-.45-1-1-1h-2v-2c0-.55-.45-1-1-1z"
    />
</svg>
