<svg xmlns="http://www.w3.org/2000/svg" width="24" height="24" viewBox="0 0 24 24">
    <path
        vector-effect="non-scaling-stroke"
        d="M12.03 6.3h-.06l-1.02 2.89h2.1zM4 22c.55 0 1-.45 1-1v-3c0-.55-.45-1-1-1s-1 .45-1 1v3c0 .55.45 1 1 1z"
    />
    <path
        vector-effect="non-scaling-stroke"
        d="M12 15c3.31 0 6-2.69 6-6s-2.69-6-6-6-6 2.69-6 6 2.69 6 6 6zm0-10c.38 0 .71.23.85.59l2.12 5.65a.56.56 0 0 1-.53.76c-.24 0-.45-.15-.53-.38l-.49-1.41h-2.83l-.5 1.41a.564.564 0 1 1-1.06-.38l2.12-5.65c.14-.36.47-.59.85-.59zM8 22c.55 0 1-.45 1-1v-3c0-.55-.45-1-1-1s-1 .45-1 1v3c0 .55.45 1 1 1zm4 0c.55 0 1-.45 1-1v-3c0-.55-.45-1-1-1s-1 .45-1 1v3c0 .55.45 1 1 1zm3-4v3c0 .55.45 1 1 1h4c.55 0 1-.45 1-1v-3c0-.55-.45-1-1-1h-4c-.55 0-1 .45-1 1z"
    />
</svg>
