<svg xmlns="http://www.w3.org/2000/svg" width="24" height="24" viewBox="0 0 24 24">
    <circle vector-effect="non-scaling-stroke" cx="7" cy="7" r="2" />
    <path
        vector-effect="non-scaling-stroke"
        d="M21 13h-1V4.83C20 3.27 18.73 2 17.17 2c-.75 0-1.47.3-2 .83l-1.25 1.25c-.16-.05-.33-.08-.51-.08-.4 0-.77.12-1.08.32l2.76 2.76c.2-.31.32-.68.32-1.08 0-.18-.03-.34-.07-.51l1.25-1.25a.828.828 0 0 1 1.41.59V13h-6.85c-.3-.21-.57-.45-.82-.72l-1.4-1.55c-.19-.21-.43-.38-.69-.5A2.251 2.251 0 0 0 5 12.25V13H3c-.55 0-1 .45-1 1v5c0 1.1.9 2 2 2 0 .55.45 1 1 1h14c.55 0 1-.45 1-1 1.1 0 2-.9 2-2v-5c0-.55-.45-1-1-1z"
    />
</svg>
