<svg xmlns="http://www.w3.org/2000/svg" width="24" height="24" viewBox="0 0 24 24">
    <path
        vector-effect="non-scaling-stroke"
        d="M4 10c0 .55.45 1 1 1h14c.55 0 1-.45 1-1s-.45-1-1-1H5c-.55 0-1 .45-1 1zm10.79-6H13V2c0-.55-.45-1-1-1s-1 .45-1 1v2H9.21a.5.5 0 0 0-.36.85l2.79 2.79c.2.2.51.2.71 0l2.79-2.79c.32-.31.1-.85-.35-.85zM9.21 19H11v2c0 .55.45 1 1 1s1-.45 1-1v-2h1.79c.45 0 .67-.54.35-.85l-2.79-2.79c-.2-.2-.51-.2-.71 0l-2.79 2.79a.5.5 0 0 0 .36.85zM5 14h14c.55 0 1-.45 1-1s-.45-1-1-1H5c-.55 0-1 .45-1 1s.45 1 1 1z"
    />
</svg>
