<svg xmlns="http://www.w3.org/2000/svg" width="24" height="24" viewBox="0 0 24 24">
    <path
        vector-effect="non-scaling-stroke"
        d="M10.67 13.02c-.22-.01-.44-.02-.67-.02-2.42 0-4.68.67-6.61 1.82-.88.52-1.39 1.5-1.39 2.53V19c0 .55.45 1 1 1h8.26a6.963 6.963 0 0 1-.59-6.98z"
    />
    <circle vector-effect="non-scaling-stroke" cx="10" cy="8" r="4" />
    <path
        vector-effect="non-scaling-stroke"
        d="M20.75 16c0-.22-.03-.42-.06-.63l.84-.73c.18-.16.22-.42.1-.63l-.59-1.02a.488.488 0 0 0-.59-.22l-1.06.36c-.32-.27-.68-.48-1.08-.63l-.22-1.09a.503.503 0 0 0-.49-.4h-1.18c-.24 0-.44.17-.49.4l-.22 1.09c-.4.15-.76.36-1.08.63l-1.06-.36a.496.496 0 0 0-.59.22l-.59 1.02c-.12.21-.08.47.1.63l.84.73c-.03.21-.06.41-.06.63s.03.42.06.63l-.84.73c-.18.16-.22.42-.1.63l.59 1.02c.12.21.37.3.59.22l1.06-.36c.32.27.68.48 1.08.63l.22 1.09c.05.23.25.4.49.4h1.18c.24 0 .44-.17.49-.4l.22-1.09c.4-.15.76-.36 1.08-.63l1.06.36c.23.08.47-.02.59-.22l.59-1.02c.12-.21.08-.47-.1-.63l-.84-.73c.03-.21.06-.41.06-.63zM17 18c-1.1 0-2-.9-2-2s.9-2 2-2 2 .9 2 2-.9 2-2 2z"
    />
</svg>
