<svg xmlns="http://www.w3.org/2000/svg" width="24" height="24" viewBox="0 0 24 24">
    <path
        vector-effect="non-scaling-stroke"
        d="M10 20h4c0 1.1-.9 2-2 2s-2-.9-2-2zm4-11c0 2.61 1.67 4.83 4 5.66V17h1c.55 0 1 .45 1 1s-.45 1-1 1H5c-.55 0-1-.45-1-1s.45-1 1-1h1v-7c0-2.79 1.91-5.14 4.5-5.8v-.7c0-.83.67-1.5 1.5-1.5s1.5.67 1.5 1.5v.7c.71.18 1.36.49 1.95.9A5.902 5.902 0 0 0 14 9zm9-1h-2V6c0-.55-.45-1-1-1s-1 .45-1 1v2h-2c-.55 0-1 .45-1 1s.45 1 1 1h2v2c0 .55.45 1 1 1s1-.45 1-1v-2h2c.55 0 1-.45 1-1s-.45-1-1-1z"
    />
</svg>
