<svg xmlns="http://www.w3.org/2000/svg" width="24" height="24" viewBox="0 0 24 24">
    <path
        vector-effect="non-scaling-stroke"
        d="M9.21 11H11v2c0 .55.45 1 1 1s1-.45 1-1v-2h1.79c.45 0 .67-.54.35-.85l-2.79-2.79c-.2-.2-.51-.2-.71 0l-2.79 2.79a.5.5 0 0 0 .36.85z"
    />
    <path
        vector-effect="non-scaling-stroke"
        d="M19 3H5c-1.1 0-2 .9-2 2v14c0 1.1.9 2 2 2h14c1.1 0 2-.9 2-2V5c0-1.1-.9-2-2-2zm0 11h-3.02c-.63 0-1.22.3-1.6.8-.54.73-1.4 1.2-2.38 1.2s-1.84-.47-2.38-1.2c-.38-.5-.97-.8-1.6-.8H5V5h14v9z"
    />
</svg>
