<svg xmlns="http://www.w3.org/2000/svg" width="24" height="24" viewBox="0 0 24 24">
    <path
        vector-effect="non-scaling-stroke"
        d="M7.5 4C5.57 4 4 5.57 4 7.5S5.57 11 7.5 11 11 9.43 11 7.5 9.43 4 7.5 4zm0 5C6.67 9 6 8.33 6 7.5S6.67 6 7.5 6 9 6.67 9 7.5 8.33 9 7.5 9zm9 4c-1.93 0-3.5 1.57-3.5 3.5s1.57 3.5 3.5 3.5 3.5-1.57 3.5-3.5-1.57-3.5-3.5-3.5zm0 5c-.83 0-1.5-.67-1.5-1.5s.67-1.5 1.5-1.5 1.5.67 1.5 1.5-.67 1.5-1.5 1.5zm2.79-13.29c.39.39.39 1.02 0 1.41L6.12 19.29a.996.996 0 1 1-1.41-1.41L17.88 4.71a.996.996 0 0 1 1.41 0z"
    />
</svg>
