<svg
    xmlns="http://www.w3.org/2000/svg"
    width="256px"
    height="287px"
    viewBox="0 0 256 287"
    preserveAspectRatio="xMidYMid"
>
    <path d="M7.964 72.363L129.707 1.479l121.742 70.884v141.653L129.707 284.9 7.964 214.016V72.363z" fill="#C00" />
    <path d="M133.12 143.132l113.209-65.194 4.551 131.413-117.76 71.111v-137.33z" fill="#FFF" />
    <path
        d="M248.036 73.956l-.342 139.264-118.101 68.494-.569-136.875 119.012-70.883zm-99.328 82.26l.34 91.478 39.254-22.87-.114-68.948 19.798-11.72v69.177l19.797-11.605.114-92.615-79.19 47.104z"
        fill="#C00"
    />
    <path
        d="M137.444 2.503c-5.462-3.072-14.223-3.072-19.684 0L9.899 64.512C4.437 67.584.114 75.321.114 81.465v124.018c0 6.257 4.437 13.88 9.785 16.953l107.861 62.008c5.461 3.072 14.222 3.072 19.684 0l107.86-62.008c5.462-3.072 9.786-10.81 9.786-16.953V81.465c0-6.258-4.438-13.881-9.785-16.953L137.444 2.503zm95.687 64.853c5.461 3.072 5.461 8.192 0 11.264l-94.436 54.272c-5.461 3.072-14.222 3.072-19.683 0L23.21 77.824c-5.462-3.072-5.462-8.192 0-11.264l94.435-54.272c5.462-3.072 14.222-3.072 19.684 0l95.8 55.068zM8.533 90.453c0-6.257 4.438-8.76 9.785-5.689l96.598 55.524c5.46 3.072 9.784 10.809 9.784 16.953v110.137c0 6.258-4.437 8.76-9.784 5.689l-96.598-55.524c-5.461-3.072-9.785-10.809-9.785-16.953V90.453zm134.6 180.907c-5.462 3.072-9.785.569-9.785-5.689v-108.43c0-6.258 4.437-13.881 9.784-16.953l93.753-53.817c5.462-3.072 9.785-.569 9.785 5.689v108.43c0 6.258-4.437 13.881-9.785 16.953l-93.753 53.817z"
        fill="#910505"
    />
</svg>
