<svg xmlns="http://www.w3.org/2000/svg" width="89" height="78" viewBox="0 0 89 78" fill="none">
    <path
        fill-rule="evenodd"
        clip-rule="evenodd"
        d="M6.07434 0.285645V7.43229L0.314331 8.49896L0.741008 1.35231L6.07434 0.285645Z"
        fill="url(#paint0_linear_150_2514)"
    />
    <path
        fill-rule="evenodd"
        clip-rule="evenodd"
        d="M16.741 20.979L3.72766 28.339L6.28765 38.579L23.6743 32.6057L16.741 20.979Z"
        fill="#116EC3"
    />
    <path
        fill-rule="evenodd"
        clip-rule="evenodd"
        d="M62.0743 31.5389L35.301 44.9789L0.314331 8.49893L8.421 5.72559L62.0743 31.5389Z"
        fill="url(#paint1_linear_150_2514)"
    />
    <path
        d="M4.68768 38.6856C3.08768 38.4722 1.59434 36.8722 0.847678 34.7389C0.421011 33.5655 0.314357 32.2856 0.527691 31.2189C0.741024 29.8322 1.48768 28.8722 2.55435 28.5522C2.98102 28.4456 3.40769 28.3389 3.94102 28.4455C5.54102 28.6589 7.03434 30.2589 7.78101 32.3922C8.20768 33.5655 8.31435 34.8455 8.10101 35.9122C7.88768 37.2989 7.14102 38.2589 6.07435 38.5789C5.64769 38.6855 5.22102 38.7922 4.68768 38.6856Z"
        fill="url(#paint2_linear_150_2514)"
    />
    <path
        d="M5.61649 37.2983C6.7821 36.8836 7.13471 34.8826 6.40408 32.8289C5.67345 30.7752 4.13625 29.4465 2.97064 29.8612C1.80503 30.2759 1.45239 32.2769 2.18302 34.3306C2.91365 36.3843 4.45087 37.713 5.61649 37.2983Z"
        fill="#116EC3"
    />
    <path
        fill-rule="evenodd"
        clip-rule="evenodd"
        d="M101.008 41.3522C101.008 41.3522 50.4477 62.5789 41.9144 65.7789C33.381 68.9789 20.3677 71.4322 14.821 71.2189C9.27436 71.0056 7.14103 70.5789 6.6077 68.3389C6.2877 66.8456 9.06103 63.5389 12.4744 59.3789C13.1144 58.6322 13.6477 57.8856 14.2877 57.2456C14.9277 56.3922 15.5677 55.6456 16.2077 54.7922C20.901 48.7122 25.381 45.9389 27.8344 44.5522C30.2877 43.1656 93.1144 19.3789 93.1144 19.3789L101.008 41.3522Z"
        fill="url(#paint3_linear_150_2514)"
    />
    <path
        fill-rule="evenodd"
        clip-rule="evenodd"
        d="M26.661 60.4456C26.661 60.4456 22.0743 61.7256 19.5143 61.7256C17.061 61.7256 14.2877 61.7256 12.581 59.5923C12.4743 59.4856 12.4743 59.4856 12.3677 59.3789C13.0077 58.6323 13.541 57.8856 14.181 57.2456C14.3943 57.7789 14.9277 58.3123 16.2077 58.6323C19.301 59.4856 23.9944 58.3123 23.9944 58.3123L26.661 60.4456Z"
        fill="#0E5BA2"
    />
    <path
        d="M88.8477 35.8054C88.3144 35.9121 87.9944 35.5921 87.9944 35.0587L88.101 33.7788C88.101 33.2454 88.6344 32.8188 89.061 32.7121C89.5944 32.6054 89.9144 32.9254 89.9144 33.4587L89.8077 34.7387C89.8077 35.1654 89.381 35.6987 88.8477 35.8054Z"
        fill="#1985D4"
    />
    <path
        fill-rule="evenodd"
        clip-rule="evenodd"
        d="M81.4877 57.2456L65.1677 69.6189L68.4744 82.8456L84.7944 75.1656C88.8477 73.2456 92.6877 71.1123 96.3144 68.5523L101.114 65.2456L81.4877 57.2456Z"
        fill="#116EC3"
    />
    <path
        d="M66.4476 83.0589C64.3143 82.7389 62.3943 80.7122 61.3276 77.9389C60.7943 76.3389 60.581 74.7389 60.901 73.2455C61.221 71.5389 62.181 70.2589 63.5676 69.7255C64.101 69.5122 64.741 69.5122 65.381 69.5122C67.5143 69.8322 69.4343 71.8589 70.501 74.6322C71.0343 76.2322 71.2476 77.8322 70.9276 79.3255C70.6076 81.0322 69.6476 82.3122 68.261 82.8455C67.7276 83.1655 67.0876 83.1655 66.4476 83.0589Z"
        fill="url(#paint4_linear_150_2514)"
    />
    <path
        d="M67.6445 81.1736C69.1987 80.6207 69.6902 78.0127 68.7424 75.3484C67.7945 72.6841 65.7662 70.9726 64.2121 71.5255C62.6579 72.0784 62.1664 74.6864 63.1143 77.3507C64.0621 80.0149 66.0904 81.7265 67.6445 81.1736Z"
        fill="#116EC3"
    />
    <path
        fill-rule="evenodd"
        clip-rule="evenodd"
        d="M48.6343 54.899L129.381 79.859L136.208 74.739L78.5009 41.7791L48.6343 54.899Z"
        fill="url(#paint5_linear_150_2514)"
    />
    <defs>
        <linearGradient
            id="paint0_linear_150_2514"
            x1="2.63156"
            y1="-1.93387"
            x2="3.76073"
            y2="10.5454"
            gradientUnits="userSpaceOnUse"
        >
            <stop stop-color="#91C4E9" />
            <stop offset="1" stop-color="#2C82CD" />
        </linearGradient>
        <linearGradient
            id="paint1_linear_150_2514"
            x1="-77.9369"
            y1="13.9513"
            x2="57.7505"
            y2="29.4142"
            gradientUnits="userSpaceOnUse"
        >
            <stop stop-color="#93C5E9" />
            <stop offset="1" stop-color="#2C82CD" />
        </linearGradient>
        <linearGradient
            id="paint2_linear_150_2514"
            x1="-0.417166"
            y1="17.3765"
            x2="4.84876"
            y2="35.4423"
            gradientUnits="userSpaceOnUse"
        >
            <stop stop-color="#95C6EA" />
            <stop offset="1" stop-color="#2C82CD" />
        </linearGradient>
        <linearGradient
            id="paint3_linear_150_2514"
            x1="42.835"
            y1="28.0233"
            x2="57.1742"
            y2="60.5904"
            gradientUnits="userSpaceOnUse"
        >
            <stop stop-color="#95C6EA" />
            <stop offset="1" stop-color="#2C82CD" />
        </linearGradient>
        <linearGradient
            id="paint4_linear_150_2514"
            x1="38.0422"
            y1="38.4376"
            x2="65.0193"
            y2="75.1364"
            gradientUnits="userSpaceOnUse"
        >
            <stop stop-color="#DEDEDE" />
            <stop offset="1" stop-color="#12A4E5" />
        </linearGradient>
        <linearGradient
            id="paint5_linear_150_2514"
            x1="113.325"
            y1="25.7025"
            x2="80.2716"
            y2="87.5962"
            gradientUnits="userSpaceOnUse"
        >
            <stop stop-color="#94C6EA" />
            <stop offset="1" stop-color="#2C82CD" />
        </linearGradient>
    </defs>
</svg>
