<svg xmlns="http://www.w3.org/2000/svg" width="100" height="104" viewBox="0 0 100 104" fill="none">
    <path
        d="M77.0229 70.3792L75.9291 72.7806C75.4587 73.8132 74.7575 74.724 73.8795 75.4427L68.9375 79.4881C67.9816 80.2706 66.196 80.3298 65.2918 79.4881L58.6578 73.3127C55.5847 70.452 55.486 67.4741 56.9902 62.1016L52.6465 70.7405L67.0884 85.1824L78.4609 74.7071L77.0229 70.3792Z"
        fill="url(#paint0_linear_1619_692)"
    />
    <path
        d="M40.5119 41.4807L19.1358 37.8513C18.1027 37.6723 12.8352 38.0235 10.4094 38.6519C9.6392 38.8514 9.27227 39.5738 9.27227 40.3694L9.27227 41.2977C9.27227 42.7614 10.5241 43.912 11.9826 43.7889L16.2636 43.4275C19.682 43.4275 31.7721 47.1292 39.3649 49.6244L39.6694 42.5162L40.5119 41.4807Z"
        fill="url(#paint1_linear_1619_692)"
    />
    <path
        d="M48.6269 43.7756C48.6138 43.7911 48.6105 43.7875 48.6149 43.7678C48.6106 43.7844 48.5945 43.7951 48.5775 43.7927L39.6738 42.5115L41.0229 40.854C41.295 40.5206 41.7168 40.3494 42.1429 40.4013L47.8608 41.2738C48.3391 41.3468 48.8227 41.2037 49.1621 40.8589C49.8737 40.1364 50.9285 39.002 51.6451 38.3759C51.8953 38.1572 52.2226 38.0646 52.5373 38.1713C53.9706 38.6574 57.5855 40.6463 61.5713 42.7455C65.1145 44.9105 67.0503 46.2933 67.7123 46.8247C68.0189 47.0707 68.5627 47.2037 68.8726 46.962C69.5461 46.4365 69.8689 45.9534 70.3092 45.8559C70.8253 45.7417 71.1314 45.9763 71.5294 46.2587C71.6409 46.3379 71.7474 46.4221 71.8476 46.5152C72.5575 47.1742 73.7389 48.2652 74.5325 48.9975C75.0447 49.4702 75.2842 50.1814 75.0352 50.8323C74.907 51.1674 74.7385 51.5294 74.5259 51.8368L74.3588 52.0819C73.7751 52.8647 72.6545 52.8518 71.9316 52.1953C71.309 51.6298 70.8578 51.2353 69.5692 50.1069C62.8571 45.0996 52.7135 39.9703 52.0431 40.3629C50.9413 41.0386 48.8546 43.5045 48.6269 43.7756Z"
        fill="url(#paint2_linear_1619_692)"
    />
    <path
        d="M88.04 71.6777L90.6389 74.3218L84.8158 80.1449L82.1944 77.5234L88.04 71.6777Z"
        fill="url(#paint3_linear_1619_692)"
    />
    <path
        d="M84.3101 80.6507L91.1673 73.7935C91.363 73.5978 91.6799 73.5974 91.8751 73.7927L93.7472 75.6647C93.9424 75.86 93.942 76.1769 93.7463 76.3726L93.2413 76.8776L95.3108 78.9812C95.5982 79.2736 95.6165 79.7297 95.3691 80.0439L104.733 89.0379C105.126 89.4309 105.145 90.0511 104.774 90.4217L101.31 93.8855C100.94 94.2562 100.319 94.238 99.9264 93.845L90.5637 84.8527C90.2465 85.1174 89.7751 85.1006 89.4787 84.8043L87.3967 82.7222L86.8892 83.2297C86.6935 83.4254 86.3766 83.4258 86.1813 83.2306L84.3093 81.3585C84.114 81.1633 84.1144 80.8464 84.3101 80.6507Z"
        fill="url(#paint4_linear_1619_692)"
    />
    <path
        d="M55.5419 63.0294C56.5065 62.3065 58.8254 62.2213 59.9992 62.3967C62.1014 62.7117 63.902 64.0466 64.9218 65.9102C66.9513 69.6203 68.4123 75.4661 69.1274 80.955L66.7018 81.3887C66.7018 81.3887 65.7456 70.3117 61.8023 66.7121C59.2039 64.3406 54.3374 65.6053 54.3374 65.6053L55.5419 63.0294Z"
        fill="url(#paint5_linear_1619_692)"
    />
    <path
        d="M73.123 53.4336L70.477 56.0797L88.4621 71.5201L88.5999 70.8978C88.7702 70.1289 88.5426 69.326 87.9942 68.7608L73.123 53.4336Z"
        fill="url(#paint6_linear_1619_692)"
    />
    <path
        d="M64.1386 85.4334L51.2285 71.2614C50.7398 70.7257 50.4165 70.0607 50.2954 69.3467C50.2237 68.926 50.0237 68.5381 49.7226 68.2369L42.7275 61.2418C41.9511 60.4654 42.3409 56.0934 42.5463 54.2287C42.6028 53.7195 42.338 53.2286 41.8823 52.9953L39.9496 52.0045C39.5589 51.8036 39.3202 51.3949 39.3378 50.9552L39.6691 42.5098C39.6691 42.5098 44.9524 43.0882 47.3181 43.4248C47.8742 43.5039 48.799 43.179 49.1917 42.7774C49.8759 42.0775 50.8736 41.123 51.5605 40.4837C51.7555 40.3021 52.0258 40.228 52.2787 40.3116C54.5696 41.0683 62.481 44.8416 68.5513 49.2486C68.9321 49.5251 69.3879 49.4438 69.7799 49.0824C70.2268 48.6704 70.6363 48.2752 71.0008 47.9956C71.2751 47.7852 71.7521 47.8659 72.1086 48.2752L74.3456 50.5562C74.6383 50.8489 74.8571 51.2353 74.6818 51.6103C74.384 52.2476 73.6092 53.1245 72.791 54.0238C72.4429 54.4062 72.4558 54.9939 72.821 55.3591L88.1998 70.7379C88.556 71.0941 88.5553 71.6738 88.1983 72.0308L82.0001 78.229C81.6873 78.5418 81.1799 78.5424 80.8679 78.2304C80.5252 77.8877 79.9791 77.855 79.5968 78.1561C79.5968 78.1561 69.6032 86.4904 68.5193 86.8528C68.3161 86.9208 68.0741 86.9572 67.8168 86.971C66.4236 87.0476 65.0763 86.4651 64.1386 85.4352V85.4334ZM64.4201 80.6197C64.975 81.1305 65.6219 81.5327 66.3389 81.7669C67.1502 82.0319 68.0363 81.9141 68.7352 81.4241C71.2324 79.6732 77.0522 75.3568 76.8417 73.2984C76.6712 71.6292 69.8039 64.2287 67.1682 61.4429C66.4135 60.6448 65.3939 60.144 64.2979 60.0514C63.5105 59.9855 62.712 60.0113 61.9017 60.1371C60.1513 60.4088 58.5378 61.3146 57.3612 62.6387C56.4202 63.6976 55.7529 64.8519 55.284 66.0755C54.9165 67.0343 54.7297 68.0731 54.9092 69.0841C55.717 73.6331 61.1133 77.5754 64.4201 80.6197Z"
        fill="url(#paint7_linear_1619_692)"
    />
    <defs>
        <linearGradient
            id="paint0_linear_1619_692"
            x1="49.4984"
            y1="71.0667"
            x2="74.2757"
            y2="77.8057"
            gradientUnits="userSpaceOnUse"
        >
            <stop offset="0.223958" stop-color="#2A6DDA" />
            <stop offset="1" stop-color="#7CAEFF" />
        </linearGradient>
        <linearGradient
            id="paint1_linear_1619_692"
            x1="40.4398"
            y1="45.007"
            x2="-1.30388"
            y2="36.0223"
            gradientUnits="userSpaceOnUse"
        >
            <stop offset="0.139828" stop-color="#266AD8" />
            <stop offset="1" stop-color="#7CAEFF" />
        </linearGradient>
        <linearGradient
            id="paint2_linear_1619_692"
            x1="80.2383"
            y1="52.7711"
            x2="24.5293"
            y2="27.9087"
            gradientUnits="userSpaceOnUse"
        >
            <stop stop-color="#7CAEFF" />
            <stop offset="1" stop-color="#CFE2FF" stop-opacity="0.68" />
        </linearGradient>
        <linearGradient
            id="paint3_linear_1619_692"
            x1="84.3241"
            y1="71.6777"
            x2="86.4279"
            y2="79.0836"
            gradientUnits="userSpaceOnUse"
        >
            <stop stop-color="#266AD8" />
            <stop offset="1" stop-color="#7CAEFF" />
        </linearGradient>
        <linearGradient
            id="paint4_linear_1619_692"
            x1="94.4473"
            y1="76.7237"
            x2="104.071"
            y2="85.4942"
            gradientUnits="userSpaceOnUse"
        >
            <stop stop-color="#266AD8" />
            <stop offset="1" stop-color="#7CAEFF" />
        </linearGradient>
        <linearGradient
            id="paint5_linear_1619_692"
            x1="62.8136"
            y1="63.0658"
            x2="68.2897"
            y2="81.2695"
            gradientUnits="userSpaceOnUse"
        >
            <stop offset="0.265866" stop-color="#266AD8" />
            <stop offset="1" stop-color="#7CAEFF" stop-opacity="0" />
        </linearGradient>
        <linearGradient
            id="paint6_linear_1619_692"
            x1="70.4769"
            y1="50.4494"
            x2="95.5545"
            y2="89.5096"
            gradientUnits="userSpaceOnUse"
        >
            <stop stop-color="#7CAEFF" />
            <stop offset="1" stop-color="#266AD8" />
        </linearGradient>
        <linearGradient
            id="paint7_linear_1619_692"
            x1="69.7406"
            y1="83.3968"
            x2="55.8283"
            y2="38.2773"
            gradientUnits="userSpaceOnUse"
        >
            <stop stop-color="#266AD8" />
            <stop offset="1" stop-color="#7CAEFF" />
        </linearGradient>
    </defs>
</svg>
