<svg xmlns="http://www.w3.org/2000/svg" width="1em" height="1em" viewBox="0 0 16 16" fill="none">
    <g>
        <path
            fill-rule="evenodd"
            clip-rule="evenodd"
            d="M9.75752 15.7579C13.157 14.8836 15.6735 11.7418 15.6735 8C15.6735 3.58172 12.1648 0 7.83673 0C3.50863 0 0 3.58172 0 8C0 11.8471 2.6601 15.06 6.20507 15.8264C6.20361 14.4519 6.20257 13.4123 6.20257 13.231C4.21655 13.6687 3.80298 12.3558 3.80298 12.3558C3.48381 11.5048 3.0109 11.2861 3.0109 11.2861C2.36088 10.8364 3.05825 10.8364 3.05825 10.8364C3.7793 10.885 4.15765 11.59 4.15765 11.59C4.79584 12.7083 5.82422 12.3923 6.23794 12.1978C6.29698 11.7237 6.48623 11.3955 6.68717 11.2132C5.10317 11.043 3.43661 10.4109 3.43661 7.59058C3.43661 6.78827 3.72012 6.13187 4.16934 5.62136C4.09847 5.43906 3.85018 4.68524 4.24037 3.67631C4.24037 3.67631 4.84319 3.48178 6.20242 4.42999C6.78436 4.26927 7.3845 4.18751 7.98736 4.18682C8.59018 4.18682 9.20469 4.272 9.77215 4.42999C11.1315 3.48178 11.7344 3.67631 11.7344 3.67631C12.1245 4.68524 11.8761 5.43906 11.8052 5.62136C12.2663 6.13187 12.5381 6.78827 12.5381 7.59058C12.5381 10.4109 10.8715 11.0307 9.27572 11.2132C9.53584 11.4441 9.76031 11.8817 9.76031 12.5746C9.76031 12.8878 9.75913 14.1602 9.75752 15.7579Z"
            fill="currentColor"
            fill-opacity="0.65"
        />
    </g>
</svg>
