<svg xmlns="http://www.w3.org/2000/svg" width="139" height="106" viewBox="0 0 139 106" fill="none">
    <path
        d="M69.5656 65.604L57.7263 41.8497C56.1842 38.7564 57.4194 34.9865 60.4869 33.4304C74.0555 26.5453 86.0814 20.4443 100.342 13.2074C103.408 11.6522 107.143 12.8986 108.686 15.9928L120.525 39.7471C120.803 40.3048 120.629 40.9754 120.131 41.346C117.702 43.15 116.842 46.5102 118.242 49.3216C119.643 52.1331 122.83 53.4395 125.714 52.5482C126.306 52.3652 126.943 52.624 127.221 53.1825L158.293 115.526C159.835 118.62 158.6 122.39 155.532 123.946L148.003 127.766C144.702 125.988 138.904 126.483 133.257 129.348C127.61 132.213 123.761 136.615 123.206 140.348L115.677 144.168C112.611 145.724 108.875 144.478 107.332 141.382L76.2612 79.0385C75.9834 78.4808 76.1566 77.8102 76.6549 77.4396C79.0842 75.6357 79.9446 72.2754 78.5437 69.464C77.1429 66.6526 73.9564 65.3461 71.0723 66.2375C70.4802 66.4204 69.8434 66.1617 69.5646 65.6031L69.5656 65.604ZM114.471 53.1808C115.312 52.7529 115.652 51.7184 115.228 50.8681C114.805 50.0178 113.779 49.6764 112.936 50.1034C112.095 50.5313 111.755 51.5658 112.179 52.4161C112.602 53.2664 113.628 53.6077 114.471 53.1808ZM109.37 55.7692C110.211 55.3414 110.551 54.3068 110.127 53.4565C109.704 52.6062 108.678 52.2649 107.835 52.6919C106.994 53.1197 106.654 54.1543 107.078 55.0046C107.501 55.8549 108.527 56.1962 109.37 55.7692ZM104.269 58.3577C105.11 57.9298 105.45 56.8953 105.026 56.045C104.603 55.1947 103.577 54.8534 102.734 55.2804C101.893 55.7082 101.553 56.7427 101.977 57.593C102.401 58.4424 103.426 58.7847 104.269 58.3577ZM99.1676 60.9461C100.009 60.5183 100.349 59.4838 99.9254 58.6335C99.5022 57.7832 98.4761 57.4418 97.6333 57.8688C96.7906 58.2958 96.4524 59.3312 96.8755 60.1815C97.2996 61.0309 98.3249 61.3731 99.1676 60.9461ZM94.0665 63.5346C94.9083 63.1068 95.2475 62.0722 94.8243 61.2219C94.4003 60.3726 93.375 60.0303 92.5323 60.4573C91.6905 60.8851 91.3513 61.9197 91.7745 62.77C92.1977 63.6203 93.2238 63.9616 94.0665 63.5346ZM88.9655 66.1231C89.8073 65.6952 90.1465 64.6607 89.7233 63.8104C89.3001 62.9601 88.274 62.6188 87.4313 63.0457C86.5886 63.4727 86.2503 64.5081 86.6735 65.3584C87.0975 66.2078 88.1228 66.5501 88.9655 66.1231ZM83.8645 68.7115C84.7062 68.2837 85.0454 67.2491 84.6223 66.3988C84.1982 65.5495 83.1729 65.2072 82.3302 65.6342C81.4875 66.0612 81.1492 67.0966 81.5724 67.9469C81.9956 68.7972 83.0217 69.1385 83.8645 68.7115Z"
        fill="url(#paint0_linear_1619_429)"
    />
    <path
        d="M65.2006 96.5867L48.434 73.115C46.2501 70.0585 46.9354 65.7936 49.9665 63.5897C63.3736 53.839 75.2567 45.1985 89.347 34.9499C92.3774 32.7472 96.6023 33.439 98.7873 36.4962L115.554 59.968C115.947 60.519 115.875 61.2697 115.403 61.7543C113.1 64.1138 112.748 67.8736 114.732 70.6516C116.716 73.4297 120.362 74.2811 123.309 72.8232C123.914 72.524 124.643 72.6916 125.037 73.2434L169.041 134.846C171.224 137.902 170.539 142.167 167.508 144.371L160.068 149.782C156.218 148.444 150.073 149.981 144.493 154.038C138.914 158.095 135.527 163.492 135.566 167.6L128.126 173.01C125.097 175.214 120.87 174.522 118.686 171.464L74.683 109.861C74.2895 109.31 74.3614 108.56 74.8337 108.075C77.1369 105.716 77.4891 101.956 75.5051 99.1777C73.5211 96.3997 69.8747 95.5483 66.9275 97.0061C66.3224 97.3054 65.5941 97.1377 65.1994 96.5859L65.2006 96.5867ZM111.336 75.4523C112.168 74.8466 112.356 73.6761 111.757 72.8359C111.157 71.9956 109.996 71.8067 109.164 72.4116C108.332 73.0173 108.144 74.1877 108.743 75.028C109.343 75.8683 110.503 76.0572 111.336 75.4523ZM106.296 79.118C107.128 78.5123 107.316 77.3419 106.716 76.5016C106.117 75.6613 104.956 75.4724 104.123 76.0774C103.292 76.683 103.103 77.8535 103.703 78.6938C104.302 79.5341 105.463 79.7229 106.296 79.118ZM101.256 82.7837C102.087 82.1781 102.275 81.0076 101.676 80.1673C101.076 79.327 99.9157 79.1382 99.0829 79.7431C98.2513 80.3488 98.063 81.5192 98.6625 82.3595C99.2628 83.1986 100.423 83.3886 101.256 82.7837ZM96.2152 86.4495C97.0468 85.8438 97.2351 84.6734 96.6356 83.8331C96.0361 82.9928 94.8754 82.8039 94.0426 83.4088C93.2098 84.0137 93.0226 85.185 93.6221 86.0252C94.2224 86.8644 95.3824 87.0544 96.2152 86.4495ZM91.1748 90.1152C92.0065 89.5095 92.1948 88.3391 91.5953 87.4988C90.995 86.6597 89.835 86.4697 89.0023 87.0746C88.1706 87.6803 87.9823 88.8507 88.5818 89.691C89.1813 90.5313 90.3421 90.7201 91.1748 90.1152ZM86.1345 93.781C86.9661 93.1753 87.1544 92.0049 86.5549 91.1646C85.9554 90.3243 84.7947 90.1354 83.9619 90.7403C83.1291 91.3452 82.942 92.5164 83.5415 93.3567C84.1417 94.1959 85.3017 94.3859 86.1345 93.781ZM81.0942 97.4467C81.9258 96.841 82.1141 95.6706 81.5146 94.8303C80.9143 93.9912 79.7543 93.8012 78.9216 94.4061C78.0888 95.011 77.9016 96.1822 78.5011 97.0225C79.1006 97.8628 80.2614 98.0516 81.0942 97.4467Z"
        fill="url(#paint1_linear_1619_429)"
    />
    <path
        d="M101.68 62.7168L104.443 60.7126L92.0168 43.2711L89.2538 45.2752L101.68 62.7168Z"
        fill="url(#paint2_linear_1619_429)"
    />
    <path
        d="M97.0758 66.057L100.76 63.3848L88.3332 45.9432L84.6493 48.6154L97.0758 66.057Z"
        fill="url(#paint3_linear_1619_429)"
    />
    <path
        d="M93.8241 68.4139L94.7451 67.7458L82.3186 50.3043L81.3976 50.9723L93.8241 68.4139Z"
        fill="url(#paint4_linear_1619_429)"
    />
    <path
        d="M91.0604 70.4198L92.9023 69.0837L80.4758 51.6422L78.6338 52.9783L91.0604 70.4198Z"
        fill="url(#paint5_linear_1619_429)"
    />
    <path
        d="M85.9675 74.1133L88.7305 72.1091L76.3039 54.6676L73.541 56.6717L85.9675 74.1133Z"
        fill="url(#paint6_linear_1619_429)"
    />
    <path
        d="M81.1901 77.5791L84.7568 74.9919L72.3303 57.5504L68.7635 60.1376L81.1901 77.5791Z"
        fill="url(#paint7_linear_1619_429)"
    />
    <path
        d="M77.6209 80.1679L79.4629 78.8318L67.0363 61.3902L65.1944 62.7263L77.6209 80.1679Z"
        fill="url(#paint8_linear_1619_429)"
    />
    <path
        d="M73.1296 83.4258L75.8926 81.4216L63.466 63.9801L60.7031 65.9842L73.1296 83.4258Z"
        fill="url(#paint9_linear_1619_429)"
    />
    <path
        d="M71.287 84.7618L72.208 84.0938L59.7814 66.6522L58.8605 67.3202L71.287 84.7618Z"
        fill="url(#paint10_linear_1619_429)"
    />
    <path
        d="M68.5242 86.7655L70.3662 85.4294L57.9397 67.9879L56.0977 69.324L68.5242 86.7655Z"
        fill="url(#paint11_linear_1619_429)"
    />
    <defs>
        <linearGradient
            id="paint0_linear_1619_429"
            x1="103.56"
            y1="24.9823"
            x2="91.9993"
            y2="83.7934"
            gradientUnits="userSpaceOnUse"
        >
            <stop stop-color="#F697BD" />
            <stop offset="1" stop-color="#D45D8C" />
        </linearGradient>
        <linearGradient
            id="paint1_linear_1619_429"
            x1="94.8106"
            y1="47.0442"
            x2="102.045"
            y2="117.079"
            gradientUnits="userSpaceOnUse"
        >
            <stop stop-color="#F697BD" />
            <stop offset="1" stop-color="#D45D8C" />
        </linearGradient>
        <linearGradient
            id="paint2_linear_1619_429"
            x1="103.062"
            y1="61.7147"
            x2="95.5896"
            y2="42.3004"
            gradientUnits="userSpaceOnUse"
        >
            <stop stop-color="#D45D8C" />
            <stop offset="1" stop-color="#D45D8C" stop-opacity="0.3" />
        </linearGradient>
        <linearGradient
            id="paint3_linear_1619_429"
            x1="98.9178"
            y1="64.7209"
            x2="90.1104"
            y2="45.5481"
            gradientUnits="userSpaceOnUse"
        >
            <stop stop-color="#D45D8C" />
            <stop offset="1" stop-color="#D45D8C" stop-opacity="0.3" />
        </linearGradient>
        <linearGradient
            id="paint4_linear_1619_429"
            x1="94.2846"
            y1="68.0799"
            x2="95.1024"
            y2="51.2311"
            gradientUnits="userSpaceOnUse"
        >
            <stop stop-color="#D45D8C" />
            <stop offset="1" stop-color="#D45D8C" stop-opacity="0.3" />
        </linearGradient>
        <linearGradient
            id="paint5_linear_1619_429"
            x1="91.9814"
            y1="69.7518"
            x2="87.0828"
            y2="50.3486"
            gradientUnits="userSpaceOnUse"
        >
            <stop stop-color="#D45D8C" />
            <stop offset="1" stop-color="#D45D8C" stop-opacity="0.3" />
        </linearGradient>
        <linearGradient
            id="paint6_linear_1619_429"
            x1="87.349"
            y1="73.1112"
            x2="79.8767"
            y2="53.6968"
            gradientUnits="userSpaceOnUse"
        >
            <stop stop-color="#D45D8C" />
            <stop offset="1" stop-color="#D45D8C" stop-opacity="0.3" />
        </linearGradient>
        <linearGradient
            id="paint7_linear_1619_429"
            x1="82.9735"
            y1="76.2855"
            x2="74.2978"
            y2="57.0811"
            gradientUnits="userSpaceOnUse"
        >
            <stop stop-color="#D45D8C" />
            <stop offset="1" stop-color="#D45D8C" stop-opacity="0.3" />
        </linearGradient>
        <linearGradient
            id="paint8_linear_1619_429"
            x1="78.5419"
            y1="79.4998"
            x2="73.6434"
            y2="60.0967"
            gradientUnits="userSpaceOnUse"
        >
            <stop stop-color="#D45D8C" />
            <stop offset="1" stop-color="#D45D8C" stop-opacity="0.3" />
        </linearGradient>
        <linearGradient
            id="paint9_linear_1619_429"
            x1="74.5111"
            y1="82.4237"
            x2="67.0388"
            y2="63.0094"
            gradientUnits="userSpaceOnUse"
        >
            <stop stop-color="#D45D8C" />
            <stop offset="1" stop-color="#D45D8C" stop-opacity="0.3" />
        </linearGradient>
        <linearGradient
            id="paint10_linear_1619_429"
            x1="71.7475"
            y1="84.4278"
            x2="72.5653"
            y2="67.579"
            gradientUnits="userSpaceOnUse"
        >
            <stop stop-color="#D45D8C" />
            <stop offset="1" stop-color="#D45D8C" stop-opacity="0.3" />
        </linearGradient>
        <linearGradient
            id="paint11_linear_1619_429"
            x1="69.4452"
            y1="86.0975"
            x2="64.5467"
            y2="66.6943"
            gradientUnits="userSpaceOnUse"
        >
            <stop stop-color="#D45D8C" />
            <stop offset="1" stop-color="#D45D8C" stop-opacity="0.3" />
        </linearGradient>
    </defs>
</svg>
