<svg xmlns="http://www.w3.org/2000/svg" width="24" height="24" viewBox="0 0 24 24">
    <path
        vector-effect="non-scaling-stroke"
        d="M14 8h2v2c0 .55.45 1 1 1s1-.45 1-1V8h2c.55 0 1-.45 1-1s-.45-1-1-1h-2V4c0-.55-.45-1-1-1s-1 .45-1 1v2h-2c-.55 0-1 .45-1 1s.45 1 1 1zm5.21 7.27-2.54-.29a1.99 1.99 0 0 0-1.64.57l-1.84 1.84A15.045 15.045 0 0 1 6.6 10.8l1.85-1.85c.43-.43.64-1.04.57-1.64l-.29-2.52a2 2 0 0 0-1.98-1.78H5.02c-1.13 0-2.07.94-2 2.07.53 8.54 7.36 15.36 15.89 15.89 1.13.07 2.07-.87 2.07-2v-1.73c.01-1-.76-1.86-1.77-1.97z"
    />
</svg>
