<svg xmlns="http://www.w3.org/2000/svg" width="24" height="24" viewBox="0 0 24 24">
    <path
        vector-effect="non-scaling-stroke"
        d="M16.53 11.16c1.23-.26 2.4-.18 3.47.14V10c0-.63-.3-1.22-.8-1.6l-6-4.5a2.01 2.01 0 0 0-2.4 0l-6 4.5c-.5.38-.8.97-.8 1.6v9c0 1.1.9 2 2 2h5.68a6.915 6.915 0 0 1-.55-4.35c.52-2.72 2.69-4.91 5.4-5.49z"
    />
    <path
        vector-effect="non-scaling-stroke"
        d="M18 13c-2.76 0-5 2.24-5 5s2.24 5 5 5 5-2.24 5-5-2.24-5-5-5zm3 5.5h-2.5V21h-1v-2.5H15v-1h2.5V15h1v2.5H21v1z"
    />
</svg>
