<svg xmlns="http://www.w3.org/2000/svg" width="24" height="24" viewBox="0 0 24 24">
    <path
        vector-effect="non-scaling-stroke"
        d="M20 18v-2c0-.55-.45-1-1-1s-1 .45-1 1v2h-2c-.55 0-1 .45-1 1s.45 1 1 1h2v2c0 .55.45 1 1 1s1-.45 1-1v-2h2c.55 0 1-.45 1-1s-.45-1-1-1h-2zM19 4c-.55 0-1 .45-1 1v7c0 .55.45 1 1 1s1-.45 1-1V5c0-.55-.45-1-1-1zM5 20c.55 0 1-.45 1-1V5c0-.55-.45-1-1-1s-1 .45-1 1v14c0 .55.45 1 1 1zm7-12c.55 0 1-.45 1-1V5c0-.55-.45-1-1-1s-1 .45-1 1v2c0 .55.45 1 1 1zm0 6c.55 0 1-.45 1-1v-2c0-.55-.45-1-1-1s-1 .45-1 1v2c0 .55.45 1 1 1zm0 6c.55 0 1-.45 1-1v-2c0-.55-.45-1-1-1s-1 .45-1 1v2c0 .55.45 1 1 1z"
    />
</svg>
