<svg xmlns="http://www.w3.org/2000/svg" width="24" height="24" viewBox="0 0 24 24">
    <path
        vector-effect="non-scaling-stroke"
        d="M5 5h2v1c0 1.1.9 2 2 2h6c1.1 0 2-.9 2-2V5h2v6h2V5c0-1.1-.9-2-2-2h-4.18C14.4 1.84 13.3 1 12 1s-2.4.84-2.82 2H5c-1.1 0-2 .9-2 2v14c0 1.1.9 2 2 2h5v-2H5V5zm7-2c.55 0 1 .45 1 1s-.45 1-1 1-1-.45-1-1 .45-1 1-1z"
    />
    <path
        vector-effect="non-scaling-stroke"
        d="m21.29 16.29-2.58-2.58a.996.996 0 1 0-1.41 1.41l.87.88H13c-.55 0-1 .45-1 1s.45 1 1 1h5.17l-.87.88a.996.996 0 1 0 1.41 1.41l2.58-2.58c.39-.4.39-1.03 0-1.42z"
    />
</svg>
