<svg xmlns="http://www.w3.org/2000/svg" width="24" height="24" viewBox="0 0 24 24">
    <path
        vector-effect="non-scaling-stroke"
        d="M10 5H4c-.55 0-1 .45-1 1s.45 1 1 1h2v3c0 .55.45 1 1 1s1-.45 1-1V7h2c.55 0 1-.45 1-1s-.45-1-1-1zm0-3H4c-.55 0-1 .45-1 1s.45 1 1 1h6c.55 0 1-.45 1-1s-.45-1-1-1zm10.89 11.11a.996.996 0 0 0-1.41 0l-6.36 6.36a.996.996 0 1 0 1.41 1.41l6.36-6.36a.996.996 0 0 0 0-1.41z"
    />
    <circle vector-effect="non-scaling-stroke" cx="14.5" cy="14.5" r="1.5" />
    <circle vector-effect="non-scaling-stroke" cx="19.5" cy="19.5" r="1.5" />
    <path
        vector-effect="non-scaling-stroke"
        d="M15.5 11A2.5 2.5 0 0 0 18 8.5V4h2c.55 0 1-.45 1-1s-.45-1-1-1h-2c-.55 0-1 .45-1 1v3.51c-.42-.32-.93-.51-1.5-.51a2.5 2.5 0 0 0 0 5zm-5.05 7.09a.996.996 0 1 0-1.41-1.41l-.71.71-.71-.71.35-.35c.98-.98.98-2.56 0-3.54a2.49 2.49 0 0 0-1.77-.73 2.499 2.499 0 0 0-1.77 4.27l.35.35-1.06 1.06c-.98.98-.98 2.56 0 3.54.5.48 1.14.72 1.78.72.64 0 1.28-.24 1.77-.73l1.06-1.06.71.71a.996.996 0 1 0 1.41-1.41l-.71-.71.71-.71zm-4.6-3.89c.12-.12.26-.15.35-.15s.23.03.35.15c.19.2.19.51 0 .71l-.35.35-.35-.36c-.12-.12-.15-.26-.15-.35s.03-.23.15-.35zm0 5.65c-.12.12-.26.15-.35.15s-.23-.03-.35-.15c-.12-.12-.15-.26-.15-.35s.03-.23.15-.35l1.06-1.06.71.71-1.07 1.05z"
    />
</svg>
