<svg xmlns="http://www.w3.org/2000/svg" width="24" height="24" viewBox="0 0 24 24">
    <path
        vector-effect="non-scaling-stroke"
        d="M12 3c-4.8 0-9 3.86-9 9 0 2.12.74 4.07 1.97 5.61l-1.68 1.68A.996.996 0 1 0 4.7 20.7l1.68-1.68A8.962 8.962 0 0 0 12 21c2.3 0 4.61-.88 6.36-2.64A8.95 8.95 0 0 0 21 12V5c0-1.1-.9-2-2-2h-7zm3.83 9.26-5.16 4.63c-.16.15-.41.14-.56-.01a.397.397 0 0 1-.04-.52l2.44-3.33-4.05-.4a.514.514 0 0 1-.3-.89l5.16-4.63c.16-.15.41-.14.56.01.14.14.16.36.04.52l-2.44 3.33 4.05.4c.45.04.63.59.3.89z"
    />
</svg>
