<svg xmlns="http://www.w3.org/2000/svg" width="24" height="24" viewBox="0 0 24 24">
    <path
        vector-effect="non-scaling-stroke"
        d="M18 11c.7 0 1.37.1 2 .29V10c0-1.1-.9-2-2-2h-1V6c0-2.76-2.24-5-5-5S7 3.24 7 6v2H6c-1.1 0-2 .9-2 2v10c0 1.1.9 2 2 2h6.26A6.995 6.995 0 0 1 18 11zM9 6c0-1.66 1.34-3 3-3s3 1.34 3 3v2H9V6z"
    />
    <path
        vector-effect="non-scaling-stroke"
        d="M18 13c-2.76 0-5 2.24-5 5s2.24 5 5 5 5-2.24 5-5-2.24-5-5-5zm2 7c-.2.2-.51.2-.71 0l-1.65-1.65a.51.51 0 0 1-.15-.35v-2.5c0-.28.22-.5.5-.5s.5.22.5.5v2.29l1.5 1.5c.21.2.21.51.01.71z"
    />
</svg>
