<svg xmlns="http://www.w3.org/2000/svg" width="24" height="24" viewBox="0 0 24 24">
    <path
        vector-effect="non-scaling-stroke"
        d="M19.88 18.47c.48-.77.75-1.67.69-2.66-.13-2.15-1.84-3.97-3.97-4.2a4.5 4.5 0 0 0-5.02 4.47c0 2.49 2.01 4.5 4.49 4.5.88 0 1.7-.26 2.39-.7l2.41 2.41c.39.39 1.03.39 1.42 0 .39-.39.39-1.03 0-1.42l-2.41-2.4zm-3.8.11a2.5 2.5 0 0 1 0-5 2.5 2.5 0 0 1 0 5zm-.36-8.5c-.74.02-1.45.18-2.1.45l-.55-.83-3.08 5.01a1 1 0 0 1-1.61.13l-2.12-2.47-3.06 4.9c-.31.49-.97.62-1.44.28-.42-.31-.54-.89-.26-1.34l3.78-6.05c.36-.57 1.17-.63 1.61-.12L9 12.5l3.18-5.17a.996.996 0 0 1 1.68-.03l1.86 2.78zm2.59.5c-.64-.28-1.33-.45-2.05-.49L20.8 2.9c.31-.49.97-.61 1.43-.27.43.31.54.9.26 1.34l-4.18 6.61z"
    />
</svg>
