<svg xmlns="http://www.w3.org/2000/svg" width="24" height="24" viewBox="0 0 24 24">
    <path
        vector-effect="non-scaling-stroke"
        d="M14 9h-4c-.55 0-1-.45-1-1s.45-1 1-1h4c.55 0 1 .45 1 1s-.45 1-1 1zm0 3h-4c-.55 0-1-.45-1-1s.45-1 1-1h4c.55 0 1 .45 1 1s-.45 1-1 1z"
    />
    <path
        vector-effect="non-scaling-stroke"
        d="M19.5 3.5 18 2l-1.5 1.5L15 2l-1.5 1.5L12 2l-1.5 1.5L9 2 7.5 3.5 6 2v14H4c-.55 0-1 .45-1 1v2c0 1.66 1.34 3 3 3h12c1.66 0 3-1.34 3-3V2l-1.5 1.5zM15 20H6c-.55 0-1-.45-1-1v-1h10v2zm4-1c0 .55-.45 1-1 1s-1-.45-1-1v-2c0-.55-.45-1-1-1H8V5h11v14z"
    />
    <circle vector-effect="non-scaling-stroke" cx="17" cy="8" r="1" />
    <circle vector-effect="non-scaling-stroke" cx="17" cy="11" r="1" />
</svg>
