<svg xmlns="http://www.w3.org/2000/svg" width="24" height="24" viewBox="0 0 24 24">
    <path
        vector-effect="non-scaling-stroke"
        d="M7 18c-1.1 0-1.99.9-1.99 2S5.9 22 7 22s2-.9 2-2-.9-2-2-2zm10 0c-1.1 0-1.99.9-1.99 2s.89 2 1.99 2 2-.9 2-2-.9-2-2-2zm2-2c0-.55-.45-1-1-1H7l1.1-2h7.45c.75 0 1.41-.41 1.75-1.03l3.24-6.14a.998.998 0 0 0-.4-1.34.996.996 0 0 0-1.36.41L15.55 11H8.53L4.54 2.57a.993.993 0 0 0-.9-.57H2c-.55 0-1 .45-1 1s.45 1 1 1h1l3.6 7.59-1.35 2.44C4.52 15.37 5.48 17 7 17h11c.55 0 1-.45 1-1zM11.29 2.71a.996.996 0 0 1 1.41 0l2.59 2.59c.39.39.39 1.02 0 1.41L12.7 9.3a.996.996 0 1 1-1.41-1.41l.88-.89H9c-.55 0-1-.45-1-1s.45-1 1-1h3.17l-.88-.88a.996.996 0 0 1 0-1.41z"
    />
</svg>
