<svg xmlns="http://www.w3.org/2000/svg" width="24" height="24" viewBox="0 0 24 24">
    <path
        vector-effect="non-scaling-stroke"
        d="M4 14h2c.55 0 1-.45 1-1v-2c0-.55-.45-1-1-1H4c-.55 0-1 .45-1 1v2c0 .55.45 1 1 1zm0 5h2c.55 0 1-.45 1-1v-2c0-.55-.45-1-1-1H4c-.55 0-1 .45-1 1v2c0 .55.45 1 1 1zM4 9h2c.55 0 1-.45 1-1V6c0-.55-.45-1-1-1H4c-.55 0-1 .45-1 1v2c0 .55.45 1 1 1zm5 5h11c.55 0 1-.45 1-1v-2c0-.55-.45-1-1-1H9c-.55 0-1 .45-1 1v2c0 .55.45 1 1 1zm0 5h11c.55 0 1-.45 1-1v-2c0-.55-.45-1-1-1H9c-.55 0-1 .45-1 1v2c0 .55.45 1 1 1zM8 6v2c0 .55.45 1 1 1h11c.55 0 1-.45 1-1V6c0-.55-.45-1-1-1H9c-.55 0-1 .45-1 1z"
    />
</svg>
