<svg xmlns="http://www.w3.org/2000/svg" width="40" height="40" viewBox="0 0 40 40" fill="none">
    <path d="M0 0H40V40H0V0Z" fill="#0052B4" />
    <path
        d="M19.95 20.0575H20.0189C20.0189 20.0345 20.0189 20.0121 20.0189 19.989C19.996 20.0119 19.973 20.0347 19.95 20.0575Z"
        fill="#F0F0F0"
    />
    <path fill-rule="evenodd" clip-rule="evenodd" d="M0 0H8H16H20V3V8L13 8L20 15V20H17L10 13V20H0V0Z" fill="#F0F0F0" />
    <path
        fill-rule="evenodd"
        clip-rule="evenodd"
        d="M8 0H3V3H0V8H3V20H8V8H20V3H8V0ZM20 16.5845L12.8943 9.49268C12.8943 9.49268 10.4348 9.49283 10.4348 9.49268V9.49283L19.9999 19.0392H20V16.5845Z"
        fill="#D80027"
    />
    <path d="M32 20C32 24.5 32.3459 26.4316 28.549 28C25.1147 26.5015 25.0398 24.2432 25 20H32Z" fill="white" />
    <path
        d="M25 21.4348L26 21L27.3068 21.7174L28.5 21L29.6932 21.7174L31 21L32 21.4348V22.8261L31.0455 22.3913L29.6932 23.1087L28.5 22.5L27.3068 23.1087L26.0341 22.3913L25 22.7391V21.4348Z"
        fill="#1B81B6"
    />
    <path
        fill-rule="evenodd"
        clip-rule="evenodd"
        d="M25.657 25.4182C25.4908 25.0487 25.3679 24.649 25.2767 24.2145L26 23.9L27.3068 24.6174L28.5 23.9L29.6932 24.6174L31 23.9L31.8826 24.2838C31.8128 24.736 31.7058 25.1443 31.5428 25.5179L31.0455 25.2913L29.6932 26.0087L28.5 25.4L27.3068 26.0087L26.0341 25.2913L25.657 25.4182Z"
        fill="#1B81B6"
    />
    <path d="M30 17.2113L29.6327 18H27.3061L27 17.2113L28.4694 14L30 17.2113Z" fill="#288549" />
    <path d="M26 18.5915L26.6122 18L30.4898 18L31 18.5915L28.551 21L26 18.5915Z" fill="#6BAAA7" />
    <path
        d="M36.8237 28.1396C37.7571 27.7287 34.7416 25.9205 33.4492 26.0027C32.444 26.0849 30.4336 28.0575 31.1516 28.304C34.6698 29.3725 34.598 29.1259 36.8237 28.1396Z"
        fill="#74948F"
    />
    <path
        d="M32.9727 19.1812C32.9112 18.9472 32.6654 18.4794 32.481 18.3039C32.2966 18.1284 31.8049 17.953 31.5591 18.0115C30.2629 18.0115 31.9152 19.3387 32 19.5C32.0615 19.617 32.5 21 32.5 21L32.9727 20C32.9727 20 33.0341 19.4151 32.9727 19.1812Z"
        fill="#E5C9BD"
    />
    <path
        d="M33.9175 23C33.9175 23.079 33.2286 24.4223 33.0318 24.9755C32.7365 25.9237 34.5985 27.2902 34.5001 26.5C34.3033 25.4728 35.0001 24.7384 35.0001 24.7384L33.9175 23Z"
        fill="#C6A397"
    />
    <path
        d="M33.648 24.2483C33.7257 24.326 33.5703 25.7246 33.5703 26.2685C33.648 27.2786 35.5128 28.2887 35.202 27.5894C34.7358 26.657 35.202 25.3293 35.202 25.3293L33.648 24.2483Z"
        fill="#E5C9BD"
    />
    <path
        d="M32.8709 20.6741C32.8709 20.7518 31.6277 21.5288 31.2392 21.8396C30.5399 22.5389 30.8507 24.6368 31.1615 23.9375C31.6277 23.0051 32.5601 22.4612 32.5601 22.4612L32.8709 20.6741Z"
        fill="#E5C9BD"
    />
    <path
        d="M33.2189 20C34.3005 20.068 35.8326 21.6994 36.2833 22.4471C36.7339 23.2628 37.3648 25.8459 36.7339 25.9819C35.9228 26.1858 33.2189 24.6223 32.588 23.7387C32.0473 23.0589 31.7769 21.2915 32.2275 20.5438C32.2275 20.4079 32.8584 20 33.2189 20Z"
        fill="#D66B3C"
    />
    <path
        d="M20.1763 28.1396C19.2429 27.7287 22.2584 25.9205 23.5508 26.0027C24.556 26.0849 26.5664 28.0575 25.8484 28.304C22.3302 29.3725 22.402 29.1259 20.1763 28.1396Z"
        fill="#74948F"
    />
    <path
        d="M24.0273 19.1812C24.0888 18.9472 24.3346 18.4794 24.519 18.3039C24.7034 18.1284 25.1951 17.953 25.4409 18.0115C26.7371 18.0115 25.0848 19.3387 25 19.5C24.9385 19.617 24.5 21 24.5 21L24.0273 20C24.0273 20 23.9659 19.4151 24.0273 19.1812Z"
        fill="#E5C9BD"
    />
    <path
        d="M23.0825 23C23.0825 23.079 23.7714 24.4223 23.9682 24.9755C24.2635 25.9237 22.4015 27.2902 22.4999 26.5C22.6967 25.4728 21.9999 24.7384 21.9999 24.7384L23.0825 23Z"
        fill="#C6A397"
    />
    <path
        d="M23.352 24.2483C23.2743 24.326 23.4297 25.7246 23.4297 26.2685C23.352 27.2786 21.4872 28.2887 21.798 27.5894C22.2642 26.657 21.798 25.3293 21.798 25.3293L23.352 24.2483Z"
        fill="#E5C9BD"
    />
    <path
        d="M24.1291 20.6741C24.1291 20.7518 25.3723 21.5288 25.7608 21.8396C26.4601 22.5389 26.1493 24.6368 25.8385 23.9375C25.3723 23.0051 24.4399 22.4612 24.4399 22.4612L24.1291 20.6741Z"
        fill="#E5C9BD"
    />
    <path
        d="M23.7811 20C22.6995 20.068 21.1674 21.6994 20.7167 22.4471C20.2661 23.2628 19.6352 25.8459 20.2661 25.9819C21.0772 26.1858 23.7811 24.6223 24.412 23.7387C24.9527 23.0589 25.2231 21.2915 24.7725 20.5438C24.7725 20.4079 24.1416 20 23.7811 20Z"
        fill="#D66B3C"
    />
    <path
        fill-rule="evenodd"
        clip-rule="evenodd"
        d="M26.2074 26.3292C25.9166 25.961 25.6973 25.5576 25.5316 25.1121L28.4882 22L31.6283 25.3052C31.4675 25.741 31.24 26.1306 30.9191 26.4872L28.4882 23.9284L26.2074 26.3292Z"
        fill="#288549"
    />
</svg>
