<svg xmlns="http://www.w3.org/2000/svg" width="40" height="40" viewBox="0 0 40 40" fill="none">
    <rect x="29" width="40" height="18" transform="rotate(90 29 0)" fill="#FFDA44" />
    <rect x="40" width="40" height="11" transform="rotate(90 40 0)" fill="#0052B4" />
    <rect x="11" width="40" height="11" transform="rotate(90 11 0)" fill="#0052B4" />
    <path
        d="M26.0869 12.1739L27.2536 12.7572L26.0869 12.1739L24.9202 11.5906C24.8499 11.7313 23.3266 14.8308 23.0777 19.5652H21.3044V12.1739L20 10.4348L18.6956 12.1739V19.5652H16.9223C16.6734 14.8308 15.1501 11.7313 15.0797 11.5906L12.7464 12.7573C12.7625 12.7893 14.3479 16.0162 14.3479 20.8696V22.174H18.6957V29.5653H21.3044V22.174H25.6522V20.8695C25.6522 18.3603 26.0863 16.2912 26.4506 14.9973C26.8477 13.5864 27.2511 12.7624 27.2551 12.7542L26.0869 12.1739Z"
        fill="black"
    />
</svg>
