<svg xmlns="http://www.w3.org/2000/svg" width="40" height="40" viewBox="0 0 40 40" fill="none">
    <rect x="28" width="40" height="16" transform="rotate(90 28 0)" fill="#F0F0F0" />
    <rect x="40" width="40" height="12" transform="rotate(90 40 0)" fill="#338AF3" />
    <rect x="12" width="40" height="12" transform="rotate(90 12 0)" fill="#338AF3" />
    <path
        d="M25.2263 23.3819L21.8446 20.0002L25.0636 16.781L24.9177 15.0809L23.9962 14.1591L19.9999 18.1554L16.0037 14.1591L15.0821 15.0809L14.9363 16.781L18.1552 20.0002L14.7734 23.3819L16.6181 25.2264L19.9999 21.8448L23.3817 25.2264L25.2263 23.3819Z"
        fill="#ACABB1"
    />
    <path
        d="M24.9189 15.081L23.0743 16.9256C23.8611 17.7124 24.3478 18.7994 24.3478 20C24.3478 22.4013 22.4012 24.3478 20 24.3478C17.5988 24.3478 15.6521 22.4013 15.6521 20C15.6521 18.7994 16.1388 17.7124 16.9256 16.9256L15.081 15.081C13.8221 16.3398 13.0435 18.0789 13.0435 20C13.0435 23.842 16.158 26.9565 19.9999 26.9565C23.8419 26.9565 26.9564 23.842 26.9564 20C26.9564 18.079 26.1778 16.3399 24.9189 15.081Z"
        fill="#6DA544"
    />
</svg>
