<svg xmlns="http://www.w3.org/2000/svg" width="40" height="40" viewBox="0 0 40 40" fill="none">
    <rect width="40" height="40" fill="#0052B4" />
    <path
        d="M19.95 20.0575H20.0189C20.0189 20.0345 20.0189 20.0121 20.0189 19.989C19.996 20.0119 19.9731 20.0347 19.95 20.0575Z"
        fill="#F0F0F0"
    />
    <path
        d="M22.6086 10.4924V20.0389C22.6086 24.6892 28.6956 26.1141 28.6956 26.1141C28.6956 26.1141 34.7825 24.6892 34.7825 20.0389V10.4924H22.6086Z"
        fill="#338AF3"
    />
    <path
        d="M22.6086 20.0389C22.6086 24.6892 28.6956 26.1141 28.6956 26.1141C28.6956 26.1141 34.7825 24.6892 34.7825 20.0389H22.6086V20.0389Z"
        fill="#A2001D"
    />
    <path
        d="M31.3044 14.8319H29.5652V13.0961H27.826V14.8319H26.087V16.5676H27.826V21.7747H29.5652V16.5676H31.3044V14.8319Z"
        fill="black"
    />
    <path fill-rule="evenodd" clip-rule="evenodd" d="M0 0H8H16H20V3V8L13 8L20 15V20H17L10 13V20H0V0Z" fill="#F0F0F0" />
    <path
        fill-rule="evenodd"
        clip-rule="evenodd"
        d="M8 0H3V3H0V8H3V20H8V8H20V3H8V0ZM20 16.5845L12.8943 9.49268C12.8943 9.49268 10.4348 9.49283 10.4348 9.49268V9.49283L19.9999 19.0392H20V16.5845Z"
        fill="#D80027"
    />
</svg>
