<svg xmlns="http://www.w3.org/2000/svg" width="40" height="40" viewBox="0 0 40 40" fill="none">
    <rect width="40" height="12" fill="#D80027" />
    <rect y="28" width="40" height="12" fill="#0052B4" />
    <rect width="40" height="16" transform="matrix(1 0 0 -1 0 28)" fill="#F0F0F0" />
    <path
        d="M24.919 14.2114L23.0744 16.056C23.8612 16.8428 24.3479 17.9298 24.3479 19.1304C24.3479 21.5317 22.4013 23.4782 20.0001 23.4782C17.5989 23.4782 15.6523 21.5316 15.6523 19.1304C15.6523 17.9298 16.139 16.8428 16.9258 16.056L15.0812 14.2114C13.8222 15.4702 13.0436 17.2093 13.0436 19.1304C13.0436 22.9724 16.1581 26.0869 20.0001 26.0869C23.842 26.0869 26.9566 22.9724 26.9566 19.1304C26.9565 17.2093 26.1779 15.4702 24.919 14.2114Z"
        fill="#6DA544"
    />
    <path
        d="M20 16.5216L20.6476 18.5146H22.743L21.0477 19.7461L21.6953 21.739L20 20.5074L18.3047 21.739L18.9523 19.7461L17.257 18.5146H19.3524L20 16.5216Z"
        fill="#FFDA44"
    />
</svg>
