<svg xmlns="http://www.w3.org/2000/svg" width="40" height="40" viewBox="0 0 40 40" fill="none">
    <rect width="40" height="40" fill="#D80027" />
    <rect width="20" height="20" fill="#0052B4" />
    <path
        d="M15.9555 9.68641L13.5129 10.8355L14.8135 13.201L12.1613 12.6935L11.8251 15.373L9.97773 13.4023L8.13023 15.373L7.79422 12.6935L5.14188 13.2009L6.4425 10.8353L4 9.68641L6.44258 8.53758L5.14188 6.17195L7.79414 6.67937L8.13031 4L9.97773 5.97063L11.8252 4L12.1613 6.67937L14.8136 6.17195L13.5129 8.53766L15.9555 9.68641Z"
        fill="#F0F0F0"
    />
    <path
        d="M9.97805 13.4089C12.0341 13.4089 13.7009 11.7421 13.7009 9.68603C13.7009 7.62993 12.0341 5.96313 9.97805 5.96313C7.92195 5.96313 6.25516 7.62993 6.25516 9.68603C6.25516 11.7421 7.92195 13.4089 9.97805 13.4089Z"
        fill="#0052B4"
    />
    <path
        d="M9.97774 11.6701C8.88391 11.6701 7.99406 10.7802 7.99406 9.68639C7.99406 8.59256 8.88399 7.70264 9.97774 7.70264C11.0716 7.70264 11.9615 8.59256 11.9615 9.68639C11.9614 10.7802 11.0714 11.6701 9.97774 11.6701Z"
        fill="#F0F0F0"
    />
</svg>
