<svg xmlns="http://www.w3.org/2000/svg" width="24" height="24" viewBox="0 0 24 24">
    <path
        vector-effect="non-scaling-stroke"
        d="M9.19 6.35c-2.04 2.29-3.44 5.58-3.57 5.89L2 10.69l4.81-4.81 2.38.47zM11.17 17s3.74-1.55 5.89-3.7c5.4-5.4 4.5-9.62 4.21-10.57-.95-.3-5.17-1.19-10.57 4.21C8.55 9.09 7 12.83 7 12.83L11.17 17zm6.48-2.19c-2.29 2.04-5.58 3.44-5.89 3.57L13.31 22l4.81-4.81-.47-2.38zM9 18c0 .83-.34 1.58-.88 2.12C6.94 21.3 2 22 2 22s.7-4.94 1.88-6.12A2.996 2.996 0 0 1 9 18zm4-9c0-1.1.9-2 2-2s2 .9 2 2-.9 2-2 2-2-.9-2-2z"
    />
</svg>
