<svg xmlns="http://www.w3.org/2000/svg" width="40" height="40" viewBox="0 0 40 40" fill="none">
    <path
        d="M40 20.0123C40 21.3515 39.866 22.6874 39.6 24L20 25.2178L0.4 24C0.137778 22.7078 0 21.37 0 20C0 18.63 0.137778 17.2922 0.4 16L20 14.7822L39.6 16C39.8622 17.2922 40 18.63 40 20C40 20.0041 40 20.0082 40 20.0123Z"
        fill="#0052B4"
    />
    <path d="M20 40C29.6756 40 37.7467 33.1289 39.6 24H0.400024C2.25336 33.1289 10.3245 40 20 40Z" fill="#F0F0F0" />
    <path d="M0 0V16H40V0H0Z" fill="#3D3D3D" />
    <path
        d="M14.8578 14.3289L11.3044 16H28.6956L25.1411 14.33L27.0333 10.8889L23.1778 11.6256L22.6889 7.72778L20 10.5944L17.3133 7.72889L16.8244 11.6267L12.9667 10.8889L14.8578 14.3289Z"
        fill="#FFDA44"
    />
    <path d="M0 40H19.9999L0 0V40Z" fill="#A2001D" />
    <path d="M20.0001 40H40V0L20.0001 40Z" fill="#A2001D" />
</svg>
