<svg xmlns="http://www.w3.org/2000/svg" width="41" height="40" viewBox="0 0 41 40" fill="none">
    <path
        d="M0.00286863 19.9999C0.00286863 21.3699 0.140646 22.7076 0.402866 23.9999L20.0027 25.2176L39.6026 23.9999C39.8694 22.6833 40.0034 21.3432 40.0026 19.9999C40.0026 18.6299 39.8648 17.2921 39.6026 15.9999L20.0027 14.7821L0.402866 15.9999C0.140646 17.2921 0.00286863 18.6299 0.00286863 19.9999Z"
        fill="#0052B4"
    />
    <path
        d="M39.6026 23.9999H0.402891C2.25621 33.1287 10.3273 39.9998 20.0028 39.9998C29.6783 39.9998 37.7493 33.1287 39.6026 23.9999Z"
        fill="#F0F0F0"
    />
    <path d="M0.00286863 15.9999H40.0027V0H0.00286863V15.9999Z" fill="#3D3D3D" />
    <path
        d="M28.6982 15.9999H11.3072L14.8606 14.3288L12.9695 10.8888L16.8272 11.6266L17.3161 7.72885L20.0027 10.5944L22.6916 7.72774L23.1805 11.6255L27.036 10.8888L25.1438 14.3299L28.6982 15.9999Z"
        fill="#FFDA44"
    />
    <path d="M0.00286831 40H20.0027L0.0028495 0C0.0028495 0 -0.0035744 35.6716 0.00286831 40Z" fill="#A2001D" />
    <path d="M20.0027 40H40.0026V0L20.0027 40Z" fill="#A2001D" />
</svg>
