<svg xmlns="http://www.w3.org/2000/svg" width="40" height="40" viewBox="0 0 40 40" fill="none">
    <rect y="20" width="40" height="20" fill="black" />
    <rect width="40" height="20" fill="#D80027" />
    <path
        d="M17.2577 15.9072L18.9531 17.1377L18.307 19.1305L20.0013 17.898L21.6969 19.1284L21.0483 17.1363L22.7423 15.9039L20.6474 15.9052L19.9988 13.9131L19.3526 15.9059L17.2577 15.9072Z"
        fill="#FFDA44"
    />
    <path
        d="M25 11.3398C23.424 10.4299 21.7008 10.0004 20 10.0034V12.6115C21.2571 12.6092 22.5307 12.9264 23.6956 13.5991C27.2252 15.6369 28.4388 20.1663 26.4009 23.6958C24.3632 27.2253 19.8339 28.439 16.3043 26.4012C15.276 25.8075 14.4459 25.0014 13.8341 24.0712L11.6562 25.509C12.4841 26.7675 13.6088 27.8571 15 28.6602C19.7753 31.4173 25.9032 29.7753 28.6602 25C31.4172 20.2247 29.7753 14.0968 25 11.3398Z"
        fill="#FFDA44"
    />
    <path
        d="M14.2336 18.2609C13.5422 19.5248 14.0064 21.1101 15.2703 21.8015L23.7429 26.4312C23.1667 27.4844 23.4727 28.7663 24.5259 29.3425L26.8146 30.5945C27.8678 31.1707 29.189 30.7838 29.7652 29.7306L31.0171 27.442L14.2336 18.2609Z"
        fill="#FFDA44"
    />
</svg>
