<svg xmlns="http://www.w3.org/2000/svg" width="40" height="40" viewBox="0 0 40 40" fill="none">
    <rect width="40" height="40" fill="#0052B4" />
    <path d="M40 0L3 20L40 40V0Z" fill="#F0F0F0" />
    <path d="M40 0H36.5L0 19.9978V20V20.0023L36 40H40L3.60153 20L40 0Z" fill="#D80027" />
    <path
        d="M34.7827 19.2541H32.4003C33.0198 18.5104 32.9816 17.4039 32.2837 16.7062C33.0229 15.967 33.0229 14.7685 32.2837 14.0292L32.2391 14.0739C32.9783 13.3348 33.0229 12.0916 32.2837 11.3524L21.5762 22.0599C22.3154 22.7992 23.4929 22.7904 24.232 22.0512L24.4381 21.8628L29.5653 21.3967V23.6019H31.3045V21.2386L33.9131 21.0015L34.7827 19.2541Z"
        fill="#A2001D"
    />
    <path d="M21.7398 24.3478L20 23.4783L21.7398 22.6086H33.0441V24.3478H21.7398Z" fill="#FFDA44" />
</svg>
