<svg xmlns="http://www.w3.org/2000/svg" width="40" height="40" viewBox="0 0 40 40" fill="none">
    <rect width="40" height="40" fill="#D80027" />
    <path d="M19.9999 9.62457V16.357L13.0435 9.62457H19.9999Z" fill="#0052B4" />
    <path d="M10.4347 20.039H16.3106L10.4347 12.2281L9.56519 18.3032L10.4347 20.039Z" fill="#0052B4" />
    <path
        d="M19.95 20.0576H20.0185C20.0185 20.0346 20.0185 20.0122 20.0185 19.9891C19.9957 20.012 19.9729 20.0348 19.95 20.0576Z"
        fill="#F0F0F0"
    />
    <path
        d="M20 10.4924C20 6.98015 20 4.67878 20 0.0780029H19.9966C8.95242 0.0798743 0 9.01594 0 20.039H10.4348V14.1746L16.3106 20.039H19.9466C19.9644 20.0212 19.9822 20.0035 20.0001 19.9856C20.0001 18.6408 20.0001 17.4409 20.0001 16.357L14.1241 10.4924H20Z"
        fill="#F0F0F0"
    />
    <path
        d="M10.1183 2.68158C6.99028 4.45928 4.38974 7.05468 2.60864 10.1766V20.9068H7.82606V7.88899V7.88883H20.8695C20.8695 6.24649 20.8695 4.68189 20.8695 2.68158L10.1183 2.68158Z"
        fill="#D80027"
    />
    <path
        d="M20.795 18.3777L12.8941 10.4924H10.4347V10.4926L20.7948 20.8325H20.7949C20.795 20.8325 20.795 19.14 20.795 18.3777Z"
        fill="#D80027"
    />
    <path
        d="M22.6086 10.4924V20.0389C22.6086 24.6892 34.7825 24.6892 34.7825 20.0389V10.4924H22.6086Z"
        fill="#F3F3F3"
    />
    <path
        d="M22.6086 20.039V20.0389C22.6086 24.6892 28.6956 26.1141 28.6956 26.1141C28.6956 26.1141 34.7825 24.6892 34.7825 20.0389V20.039H22.6086Z"
        fill="#6DA544"
    />
    <path
        d="M28.6956 16.2203L25.8695 17.4354V20.039L28.6956 21.7747L31.5217 20.039V17.4354L28.6956 16.2203Z"
        fill="#A2001D"
    />
    <rect x="25.8695" y="14.8317" width="5.65219" height="2.60359" fill="#338AF3" />
    <rect width="20" height="20" fill="#0052B4" />
    <path fill-rule="evenodd" clip-rule="evenodd" d="M0 0H8H16H20V3V8L13 8L20 15V20H17L10 13V20H0V0Z" fill="#F0F0F0" />
    <path
        fill-rule="evenodd"
        clip-rule="evenodd"
        d="M8 0H3V3H0V8H3V20H8V8H20V3H8V0ZM20 16.5845L12.8943 9.49268C12.8943 9.49268 10.4348 9.49283 10.4348 9.49268V9.49283L19.9999 19.0392H20V16.5845Z"
        fill="#D80027"
    />
</svg>
