<svg xmlns="http://www.w3.org/2000/svg" width="40" height="40" viewBox="0 0 40 40" fill="none">
    <g clip-path="url(#clip0_28106_2522)">
        <rect y="-0.00012207" width="40" height="40" fill="#FFDA44" />
        <path d="M8.57645e-06 8.33325L0 14.4444L40 37.7777V31.6666L8.57645e-06 8.33325Z" fill="#3D3D3D" />
        <path d="M8.57645e-06 2.22211L0 8.33322L40 31.6666V25.5554L8.57645e-06 2.22211Z" fill="#F0F0F0" />
        <path
            d="M25.65 17.8255C25.65 20.9478 23.12 23.4766 19.9989 23.4766C16.8778 23.4766 14.3478 20.9466 14.3478 17.8255C14.3462 16.887 14.5796 15.963 15.0267 15.1378C13.7536 16.4358 13.0414 18.1819 13.0433 20C13.0433 23.8414 16.1574 26.9555 19.9989 26.9555C23.8403 26.9555 26.9545 23.8414 26.9545 20C26.9564 18.1819 26.2442 16.4358 24.9711 15.1378C25.4156 15.9378 25.6489 16.8533 25.6489 17.8266L25.65 17.8255Z"
            fill="#D80027"
        />
        <path d="M18.6956 11.3055H21.3033V24.3467H18.6956V11.3055Z" fill="#D80027" />
    </g>
    <defs>
        <clipPath id="clip0_28106_2522">
            <rect width="40" height="40" fill="white" />
        </clipPath>
    </defs>
</svg>
