<svg xmlns="http://www.w3.org/2000/svg" width="40" height="40" viewBox="0 0 40 40" fill="none">
    <rect y="0.000183105" width="39.9998" height="39.9998" fill="#496E2D" />
    <path d="M18.6955 16.0868V0H16.0866V16.0891H18.6955V16.0868Z" fill="#FFDA44" />
    <path d="M23.9088 16.0868V0H21.2999V16.0891H23.9088V16.0868Z" fill="#F0F0F0" />
    <path d="M21.3043 0H19.9999H18.6955V16.0888H21.3043V0Z" fill="#3D3D3D" />
    <path d="M18.6955 23.9132H16.0866V39.9998H18.6955V23.911V23.9132Z" fill="#FFDA44" />
    <path d="M23.9088 23.9132H21.2999V39.9998H23.9088V23.911V23.9132Z" fill="#F0F0F0" />
    <path d="M18.6955 39.9998H19.9999H21.3043V23.911H18.6955V39.9998Z" fill="#3D3D3D" />
    <path d="M23.9132 18.6955H39.9998V16.0866H23.9132V18.6955Z" fill="#FFDA44" />
    <path d="M23.9132 23.9086H39.9998V21.2998H23.9132V23.9086Z" fill="#F0F0F0" />
    <path d="M23.9132 21.3045H39.9998V20.0001V18.6957H23.911V21.3045H23.9132Z" fill="#3D3D3D" />
    <path d="M16.0866 18.6955V16.0866H0V18.6955H16.0866Z" fill="#FFDA44" />
    <path d="M16.0866 23.9086V21.2998H0V23.9086H16.0866Z" fill="#F0F0F0" />
    <path d="M0 18.6957V20.0001V21.3045H16.0888V18.6957H0Z" fill="#3D3D3D" />
    <path
        d="M19.9999 29.5656C25.2828 29.5656 29.5654 25.283 29.5654 20.0001C29.5654 14.7172 25.2828 10.4346 19.9999 10.4346C14.717 10.4346 10.4344 14.7172 10.4344 20.0001C10.4344 25.283 14.717 29.5656 19.9999 29.5656Z"
        fill="#D80027"
    />
</svg>
