<svg xmlns="http://www.w3.org/2000/svg" width="40" height="40" viewBox="0 0 40 40" fill="none">
    <g clip-path="url(#clip0_28106_2511)">
        <rect width="40" height="40" fill="#496E2D" />
        <path d="M18.6956 16.0867V-0.000183105H16.0867V16.0889H18.6956V16.0867Z" fill="#FFDA44" />
        <path d="M23.9089 16.0867V-0.000183105H21.3V16.0889H23.9089V16.0867Z" fill="#F0F0F0" />
        <path d="M21.3044 -0.000183105H20H18.6956V16.0887H21.3044V-0.000183105Z" fill="#3D3D3D" />
        <path d="M18.6956 23.9132H16.0867V39.9998H18.6956V23.9109V23.9132Z" fill="#FFDA44" />
        <path d="M23.9089 23.9132H21.3V39.9998H23.9089V23.9109V23.9132Z" fill="#F0F0F0" />
        <path d="M18.6956 39.9998H20H21.3044V23.9109H18.6956V39.9998Z" fill="#3D3D3D" />
        <path d="M23.9133 18.6954H40V16.0865H23.9133V18.6954Z" fill="#FFDA44" />
        <path d="M23.9133 23.9086H40V21.2997H23.9133V23.9086Z" fill="#F0F0F0" />
        <path d="M23.9134 21.3044H40V20V18.6956H23.9111V21.3044H23.9134Z" fill="#3D3D3D" />
        <path d="M16.0867 18.6954V16.0865H0V18.6954H16.0867Z" fill="#FFDA44" />
        <path d="M16.0867 23.9086V21.2997H0V23.9086H16.0867Z" fill="#F0F0F0" />
        <path d="M0 18.6956V20V21.3044H16.0889V18.6956H0Z" fill="#3D3D3D" />
        <path
            d="M20 29.5656C25.2829 29.5656 29.5656 25.2829 29.5656 20C29.5656 14.7171 25.2829 10.4344 20 10.4344C14.7171 10.4344 10.4344 14.7171 10.4344 20C10.4344 25.2829 14.7171 29.5656 20 29.5656Z"
            fill="#D80027"
        />
    </g>
    <defs>
        <clipPath id="clip0_28106_2511">
            <rect width="40" height="40" fill="white" />
        </clipPath>
    </defs>
</svg>
