<svg xmlns="http://www.w3.org/2000/svg" width="40" height="40" viewBox="0 0 40 40" fill="none">
    <rect width="40" height="13" fill="#D80027" />
    <rect y="27" width="40" height="13" fill="black" />
    <rect y="13" width="40" height="14" fill="#F0F0F0" />
    <path
        d="M26.9565 17.8261H21.739C21.739 16.8656 20.9604 16.087 19.9999 16.087C19.0394 16.087 18.2608 16.8656 18.2608 17.8261H13.0433C13.0433 18.7867 13.88 19.5653 14.8404 19.5653H14.7825C14.7825 20.5258 15.5611 21.3044 16.5216 21.3044C16.5216 22.2649 17.3002 23.0435 18.2608 23.0435H21.739C22.6996 23.0435 23.4782 22.2649 23.4782 21.3044C24.4387 21.3044 25.2173 20.5258 25.2173 19.5653H25.1594C26.1199 19.5653 26.9565 18.7867 26.9565 17.8261Z"
        fill="#FF9811"
    />
</svg>
