<svg xmlns="http://www.w3.org/2000/svg" width="40" height="40" viewBox="0 0 40 40" fill="none">
    <rect width="40" height="40" fill="#0052B4" />
    <path
        fill-rule="evenodd"
        clip-rule="evenodd"
        d="M0 36.2013L11.2013 25H0V15H11.2014L0 3.7986V0.0266638L0.0266528 1.09673e-05H3.79869L15 11.2013L15 1.09673e-05L25 0V11.2013L36.2013 1.09673e-05H39.9733L40 0.0266643V3.7986L28.7986 15H40V25H28.7987L40 36.2013V39.9733L39.9733 40H36.2014L25 28.7986V40H15V28.7986L3.79859 40H0.0267143L0 39.9733V36.2013Z"
        fill="#F0F0F0"
    />
    <path
        fill-rule="evenodd"
        clip-rule="evenodd"
        d="M0.999979 40L15.7826 25.2171L13.3231 25.2172L5.7742e-05 38.5404L0 40H0.999979ZM17.3911 40H22.6086V22.6088L40 22.6088V17.3913H22.6087L22.6086 0H17.3912V17.3912L0 17.3913V22.6087H17.3911L17.3911 40ZM2.3476e-05 0L5.7742e-05 1.45961L13.3231 14.7828L15.7826 14.7829L0.999979 0H2.3476e-05ZM39 0L24.2174 14.7829L26.6769 14.7828L39.9999 1.45961L40 0H39ZM40 40L39.9999 38.5404L26.6769 25.2172L24.2174 25.2171L39 40H40Z"
        fill="#D80027"
    />
</svg>
