<svg xmlns="http://www.w3.org/2000/svg" width="40" height="40" viewBox="0 0 40 40" fill="none">
    <g clip-path="url(#clip0_28106_2504)">
        <path d="M0 5.55573H40V34.4446H0V5.55573Z" fill="#FFDA44" />
        <path
            d="M5.55557 5.55598L0 5.55579L2.67559e-05 34.4444L5.55557 34.4449L20 20.0778L5.55557 5.55598Z"
            fill="#496E2D"
        />
        <path d="M35 5.55573H40V34.4445H34.4445L20.3022 20.3023L35 5.55573Z" fill="#496E2D" />
        <path
            d="M20 25.9233C23.8421 25.9233 26.9567 22.8087 26.9567 18.9667C26.9567 15.1246 23.8421 12.01 20 12.01C16.1579 12.01 13.0433 15.1246 13.0433 18.9667C13.0433 22.8087 16.1579 25.9233 20 25.9233Z"
            fill="#A2001D"
        />
        <rect y="0.000152588" width="40" height="5.55556" fill="#A2001D" />
        <rect y="34.4446" width="40" height="5.55556" fill="#A2001D" />
        <path
            d="M20 12L21.5589 16.8H26.6055L22.5222 19.7778L24.0811 24.5778L20 21.6111L15.9166 24.5778L17.4766 19.7778L13.3944 16.8111H18.4411L20 12Z"
            fill="#FFDA44"
        />
        <path
            d="M20.0044 1.44461L20.3267 2.44128H21.3744L20.5267 3.05683L20.8489 4.0535L20.0044 3.43683L19.1567 4.05239L19.4789 3.05572L18.6311 2.44017H19.6789L20.0044 1.44461Z"
            fill="#FFDA44"
        />
        <path
            d="M15.1544 1.44461L15.4766 2.44128H16.5244L15.6766 3.05683L15.9988 4.0535L15.151 3.43794L14.3033 4.0535L14.6255 3.05683L13.7777 2.44128H14.8255L15.1544 1.44461Z"
            fill="#FFDA44"
        />
        <path
            d="M24.8534 1.44461L25.1756 2.44128H26.2234L25.3756 3.05683L25.6978 4.0535L24.85 3.43794L24.0022 4.0535L24.3245 3.05683L23.4767 2.44128H24.5245L24.8534 1.44461Z"
            fill="#FFDA44"
        />
        <path
            d="M20.0044 35.9337L20.3267 36.9304H21.3744L20.5267 37.5459L20.8489 38.5426L20.0044 37.927L19.1567 38.5426L19.4789 37.5459L18.6311 36.9304H19.6789L20.0044 35.9337Z"
            fill="#FFDA44"
        />
        <path
            d="M15.1544 35.9337L15.4766 36.9304H16.5244L15.6766 37.5459L15.9988 38.5426L15.151 37.927L14.3033 38.5426L14.6255 37.5459L13.7777 36.9304H14.8255L15.1544 35.9337Z"
            fill="#FFDA44"
        />
        <path
            d="M24.8534 35.9337L25.1756 36.9304H26.2234L25.3756 37.5459L25.6978 38.5426L24.85 37.927L24.0022 38.5426L24.3245 37.5459L23.4767 36.9304H24.5245L24.8534 35.9337Z"
            fill="#FFDA44"
        />
    </g>
    <defs>
        <clipPath id="clip0_28106_2504">
            <rect width="40" height="40" fill="white" />
        </clipPath>
    </defs>
</svg>
