<svg xmlns="http://www.w3.org/2000/svg" width="40" height="40" viewBox="0 0 40 40" fill="none">
    <rect width="40" height="40" fill="#D80027" />
    <path
        d="M22.0648 15.1303C21.6103 17.0208 20.8027 16.6603 20.4064 18.3091C18.0718 17.7477 16.634 15.4001 17.1953 13.0653C17.7564 10.7307 20.1043 9.29288 22.439 9.85421C21.6462 13.1516 22.4715 13.4394 22.0648 15.1303Z"
        fill="#F0F0F0"
    />
    <path
        d="M16.0068 16.5313C17.6644 17.5477 17.0719 18.2045 18.5173 19.0909C17.262 21.1379 14.5851 21.7797 12.538 20.5245C10.4911 19.2692 9.84913 16.5921 11.1044 14.5452C13.9955 16.318 14.524 15.6221 16.0068 16.5313Z"
        fill="#F0F0F0"
    />
    <path
        d="M15.467 22.7259C16.946 21.4636 17.3874 22.23 18.6771 21.1292C20.2361 22.9555 20.0192 25.6999 18.193 27.2589C16.3666 28.8179 13.6222 28.6008 12.0634 26.7746C14.6427 24.5728 14.1441 23.8549 15.467 22.7259Z"
        fill="#F0F0F0"
    />
    <path
        d="M21.1917 25.1535C20.448 23.3569 21.3133 23.1738 20.6649 21.6071C22.8836 20.6889 25.4267 21.7431 26.345 23.9618C27.2632 26.1805 26.2088 28.7235 23.9902 29.6418C22.6935 26.5083 21.8569 26.7606 21.1917 25.1535Z"
        fill="#F0F0F0"
    />
    <path
        d="M25.2695 20.4591C23.331 20.6112 23.4241 19.7315 21.7338 19.8641C21.5461 17.4705 23.3347 15.3774 25.7285 15.1895C28.1223 15.0021 30.2152 16.7906 30.4029 19.1845C27.0219 19.4495 27.0032 20.3232 25.2695 20.4591Z"
        fill="#F0F0F0"
    />
</svg>
