<svg xmlns="http://www.w3.org/2000/svg" width="40" height="40" viewBox="0 0 40 40" fill="none">
    <rect width="40" height="40" fill="#F0F0F0" />
    <rect y="4" width="40" height="6" fill="#0052B4" />
    <rect y="30" width="40" height="6" fill="#0052B4" />
    <path
        fill-rule="evenodd"
        clip-rule="evenodd"
        d="M22.0409 15.3478H27.0614L24.5509 19.6956L27.0614 24.0434H22.0409L19.5307 28.3913L17.0206 24.0434H12L14.5105 19.6956L12 15.3478H17.0206L19.5307 11L22.0409 15.3478ZM21.0728 22.3666L22.6147 19.6956L21.0727 17.0247H17.9887L16.4467 19.6956L17.9888 22.3666H21.0728ZM19.5307 14.3537L20.1046 15.3477H18.957L19.5307 14.3537ZM15.4785 18.0187L16.0524 17.0247H14.9046L15.4785 18.0187ZM14.9046 22.3666L15.4786 21.3725L16.0525 22.3666H14.9046ZM18.9569 24.0434L19.5307 25.0375L20.1046 24.0434H18.9569ZM24.1568 22.3666H23.009L23.583 21.3725L24.1568 22.3666ZM24.1568 17.0247H23.009L23.5829 18.0187L24.1568 17.0247Z"
        fill="#0052B4"
    />
</svg>
