<svg xmlns="http://www.w3.org/2000/svg" width="40" height="40" viewBox="0 0 40 40" fill="none">
    <rect width="40" height="40" fill="#F0F0F0" />
    <path
        d="M8.26111 9.56667H10.87V11.3056H13.4789V9.56667H16.0878V11.3056H18.6967V9.56667H21.3056V11.3056H23.9144V9.56667H26.5233V11.3056H29.1322V9.56667H31.7411V11.3056H40V0H0V11.3044H8.26222L8.26111 9.56667Z"
        fill="#6DA544"
    />
    <path
        d="M31.7389 28.6957V30.4346H29.13V28.6957H26.5222V30.4346H23.9133V28.6957H21.3044V30.4346H18.6956V28.6957H16.0867V30.4346H13.4778V28.6957H10.87V30.4346H8.26111V28.6957H1.19209e-06L0 40C3.85458 40 40 40 40 40V28.6957H31.7378H31.7389Z"
        fill="#D80027"
    />
    <path
        d="M26.3533 14.4445H23.7356L23.7689 15.3145C23.7689 17.2478 23.2856 19.1256 22.4422 20.4589C22.1822 20.87 21.7456 21.4522 21.16 21.8445V14.4445H18.5511V21.8445C17.9667 21.4522 17.5289 20.8711 17.2689 20.4589C16.4245 19.1256 15.9422 17.2478 15.9422 15.3145L15.9756 14.4445H13.3589L13.3333 15.3145C13.3333 20.6778 16.1978 24.8811 19.8556 24.8811C23.5133 24.8811 26.3778 20.6811 26.3778 15.3145C26.3778 15.0211 26.3689 14.7311 26.3522 14.4445H26.3533Z"
        fill="#D80027"
    />
</svg>
