<svg xmlns="http://www.w3.org/2000/svg" width="40" height="40" viewBox="0 0 40 40" fill="none">
    <g clip-path="url(#clip0_28106_2507)">
        <rect y="13.3333" width="40" height="13.3333" fill="#A2001D" />
        <rect width="40" height="13.3333" fill="#3D3D3D" />
        <rect y="26.6667" width="40" height="13.3333" fill="#496E2D" />
        <rect y="11.2223" width="40" height="2.66667" fill="#F0F0F0" />
        <rect y="26.0889" width="40" height="2.66667" fill="#F0F0F0" />
        <path
            d="M26.2278 9.24441L23.8589 8.15107L20 16.8889L16.1411 8.14996L13.7722 9.2433L18.5633 20L13.7722 30.7577L16.1411 31.8511L20 23.1133L23.8589 31.8522L26.2278 30.7589L21.4367 20L26.2278 9.24441Z"
            fill="#F0F0F0"
        />
        <path
            d="M21.6089 10.2733C20.6922 9.2733 20 8.69553 20 8.69553C20 8.69553 19.3078 9.27108 18.3911 10.2733V29.7289C19.3078 30.7289 20 31.3066 20 31.3066C20 31.3066 20.6922 30.7311 21.6089 29.7289V10.2733Z"
            fill="#F0F0F0"
        />
    </g>
    <defs>
        <clipPath id="clip0_28106_2507">
            <rect width="40" height="40" fill="white" />
        </clipPath>
    </defs>
</svg>
