<svg xmlns="http://www.w3.org/2000/svg" width="40" height="40" viewBox="0 0 40 40" fill="none">
    <path d="M0 0H40V40H0V0Z" fill="#D80027" />
    <path
        fill-rule="evenodd"
        clip-rule="evenodd"
        d="M21.8245 11.7795L22.0621 7.20034C22.0634 7.17988 22.0487 7.16125 22.0278 7.15798C22.0064 7.15459 21.9864 7.16847 21.9817 7.18921L20.8075 11.6028C20.8039 11.6175 20.801 11.6318 20.7988 11.6461C20.7544 11.9284 20.9473 12.1931 21.2296 12.2375C21.5118 12.2818 21.7766 12.089 21.8209 11.8067C21.8224 11.7975 21.8236 11.7883 21.8245 11.7795ZM23.0886 12.1659L24.0441 7.68121C24.0486 7.66107 24.037 7.64039 24.0169 7.63386C23.9963 7.62721 23.9743 7.63771 23.9664 7.65745L22.1121 11.8311C22.1062 11.8452 22.1011 11.8587 22.0966 11.8726C22.0084 12.1443 22.1572 12.4362 22.4289 12.5244C22.7007 12.6127 22.9925 12.4639 23.0808 12.1921C23.0837 12.1833 23.0863 12.1743 23.0886 12.1659ZM24.276 12.7465L25.9256 8.46817C25.9332 8.4491 25.9251 8.4268 25.9061 8.41708C25.8869 8.40729 25.8635 8.41429 25.8526 8.43258L23.3644 12.2622C23.3563 12.2752 23.3492 12.2878 23.3426 12.3008C23.2127 12.5552 23.3137 12.8668 23.5681 12.9968C23.8226 13.1268 24.1342 13.0257 24.2642 12.7712C24.2684 12.7629 24.2724 12.7545 24.276 12.7465ZM25.3574 13.5056L27.656 9.53814C27.6665 9.52041 27.6619 9.49709 27.6448 9.48466C27.6273 9.47192 27.6031 9.47514 27.5895 9.49154L24.5327 12.8847C24.5228 12.8963 24.5138 12.9077 24.5052 12.9194C24.3371 13.1504 24.3881 13.474 24.6191 13.6421C24.8501 13.8102 25.1737 13.7592 25.3419 13.5282C25.3473 13.5207 25.3526 13.513 25.3574 13.5056ZM26.3071 14.4236L29.1951 10.8622C29.2083 10.8463 29.2074 10.8226 29.1923 10.8076C29.1771 10.7923 29.1527 10.7917 29.1367 10.8057L25.5891 13.6819C25.5774 13.6917 25.5668 13.7016 25.5566 13.7118C25.3545 13.9138 25.3545 14.2415 25.5566 14.4434C25.7586 14.6455 26.0862 14.6455 26.2881 14.4434C26.2948 14.4368 26.3011 14.4301 26.3071 14.4236ZM27.1024 15.478L30.5096 12.4095C30.525 12.3958 30.5278 12.3724 30.5153 12.3552C30.5026 12.3377 30.4786 12.3333 30.4606 12.3447L26.5086 14.6337C26.4955 14.6416 26.4835 14.6496 26.4717 14.6581C26.2407 14.8262 26.1897 15.1499 26.3578 15.3809C26.526 15.6119 26.8496 15.6629 27.0806 15.4948C27.0881 15.4892 27.0955 15.4836 27.1024 15.478ZM27.7234 16.6443L31.5686 14.1466C31.586 14.1355 31.5924 14.1126 31.5828 14.0938C31.5729 14.0746 31.5499 14.0665 31.5304 14.075L27.269 15.7174C27.2548 15.7232 27.2417 15.7292 27.2287 15.7358C26.9743 15.8657 26.8733 16.1774 27.0032 16.4319C27.1331 16.6863 27.4447 16.7873 27.6992 16.6573C27.7075 16.6531 27.7157 16.6486 27.7234 16.6443ZM28.1533 17.8941L32.3438 16.033C32.3626 16.0248 32.3726 16.0033 32.3661 15.9831C32.3594 15.9626 32.3379 15.951 32.3173 15.9562L27.8504 16.9073C27.8356 16.9109 27.8216 16.9147 27.8078 16.9192C27.5361 17.0075 27.3873 17.2993 27.4755 17.5711C27.5637 17.8428 27.8556 17.9916 28.1274 17.9033C28.1362 17.9005 28.145 17.8974 28.1533 17.8941ZM28.3809 19.1962L32.8122 18.0179C32.8321 18.0128 32.8453 17.9932 32.842 17.9723C32.8387 17.9509 32.8193 17.9361 32.7981 17.9379L28.2372 18.174C28.2219 18.1751 28.2076 18.1768 28.1932 18.179C27.911 18.2234 27.7181 18.4882 27.7625 18.7705C27.8068 19.0527 28.0716 19.2456 28.3539 19.2012C28.3631 19.1998 28.3722 19.1981 28.3809 19.1962ZM28.4029 20.5166L32.9634 20.0405C32.9839 20.0386 33 20.0212 33 20C33 19.9784 32.9832 19.9607 32.9619 19.9594L28.4197 19.4845C28.4045 19.4832 28.39 19.4826 28.3754 19.4826C28.0898 19.4826 27.8581 19.7143 27.8581 20C27.8581 20.2857 28.0898 20.5173 28.3754 20.5173C28.3848 20.5173 28.3941 20.5171 28.4029 20.5166ZM28.2205 21.8246L32.7996 22.0621C32.8201 22.0634 32.8387 22.0487 32.842 22.0278C32.8454 22.0064 32.8315 21.9864 32.8107 21.9816L28.3973 20.8074C28.3824 20.8039 28.3682 20.801 28.3539 20.7987C28.0716 20.7544 27.8068 20.9473 27.7625 21.2296C27.7181 21.5119 27.911 21.7766 28.1932 21.821C28.2025 21.8225 28.2116 21.8237 28.2205 21.8246ZM27.8341 23.0886L32.3188 24.0441C32.3389 24.0486 32.3595 24.037 32.3661 24.0168C32.3727 23.9963 32.3622 23.9743 32.3424 23.9665L28.1689 22.1121C28.1547 22.1062 28.1412 22.1012 28.1274 22.0966C27.8556 22.0084 27.5637 22.1572 27.4755 22.429C27.3873 22.7006 27.5361 22.9925 27.8078 23.0808C27.8167 23.0837 27.8256 23.0863 27.8341 23.0886ZM27.2535 24.276L31.5318 25.9255C31.5509 25.9332 31.5731 25.925 31.5828 25.9062C31.5926 25.8868 31.5857 25.8635 31.5674 25.8526L27.7377 23.3643C27.7248 23.3563 27.7122 23.3492 27.6992 23.3426C27.4447 23.2127 27.1331 23.3137 27.0032 23.5681C26.8733 23.8226 26.9743 24.1342 27.2287 24.2642C27.2371 24.2684 27.2454 24.2724 27.2535 24.276ZM26.4944 25.3574L30.4619 27.656C30.4796 27.6665 30.5028 27.6619 30.5153 27.6448C30.5281 27.6274 30.5248 27.6032 30.5085 27.5895L27.1152 24.5328C27.1037 24.5228 27.0923 24.5138 27.0806 24.5052C26.8496 24.3371 26.526 24.3881 26.3579 24.6191C26.1897 24.8501 26.2407 25.1738 26.4717 25.3419C26.4793 25.3473 26.4869 25.3526 26.4944 25.3574ZM25.5764 26.3071L29.1378 29.1952C29.1537 29.2083 29.1774 29.2073 29.1923 29.1923C29.2077 29.1771 29.2082 29.1527 29.1942 29.1368L26.3181 25.5891C26.3082 25.5774 26.2985 25.5668 26.2881 25.5566C26.0862 25.3545 25.7586 25.3545 25.5566 25.5566C25.3545 25.7586 25.3545 26.0861 25.5566 26.2882C25.5631 26.2948 25.5699 26.3011 25.5764 26.3071ZM24.522 27.1024L27.5905 30.5095C27.6041 30.525 27.6276 30.5278 27.6448 30.5153C27.6623 30.5026 27.6666 30.4786 27.6553 30.4607L25.3663 26.5085C25.3584 26.4956 25.3504 26.4835 25.3419 26.4718C25.1737 26.2407 24.8501 26.1898 24.6191 26.3579C24.3881 26.526 24.3371 26.8496 24.5052 27.0806C24.5108 27.0882 24.5164 27.0956 24.522 27.1024ZM23.3558 27.7233L25.8534 31.5687C25.8644 31.586 25.8872 31.5925 25.9061 31.5828C25.9254 31.573 25.9334 31.55 25.925 31.5304L24.2826 27.269C24.2768 27.2548 24.2708 27.2417 24.2642 27.2288C24.1342 26.9743 23.8226 26.8733 23.5681 27.0032C23.3137 27.1332 23.2127 27.4448 23.3426 27.6992C23.3469 27.7076 23.3513 27.7157 23.3558 27.7233ZM22.1058 28.1533L23.967 32.3438C23.9752 32.3626 23.9967 32.3726 24.0169 32.3662C24.0374 32.3595 24.049 32.3379 24.0438 32.3174L23.0927 27.8505C23.0891 27.8356 23.0853 27.8216 23.0808 27.8078C22.9925 27.5361 22.7007 27.3872 22.4289 27.4755C22.1572 27.5638 22.0084 27.8556 22.0966 28.1274C22.0996 28.1363 22.1026 28.145 22.1058 28.1533ZM20.8038 28.3809L21.9821 32.8122C21.9871 32.8321 22.0068 32.8454 22.0278 32.842C22.0491 32.8387 22.0639 32.8193 22.062 32.7981L21.826 28.2372C21.8248 28.222 21.8232 28.2076 21.821 28.1933C21.7766 27.9109 21.5118 27.7181 21.2296 27.7625C20.9473 27.8068 20.7545 28.0716 20.7988 28.354C20.8003 28.3631 20.8019 28.3723 20.8038 28.3809ZM19.4834 28.403L19.9595 32.9634C19.9614 32.9838 19.9788 33 20 33C20.0216 33 20.0393 32.9833 20.0407 32.962L20.5154 28.4197C20.5167 28.4044 20.5173 28.3899 20.5173 28.3754C20.5173 28.0898 20.2857 27.8581 20 27.8581C19.7143 27.8581 19.4827 28.0898 19.4827 28.3754C19.4827 28.3848 19.483 28.394 19.4834 28.403ZM18.1755 28.2204L17.9379 32.7996C17.9366 32.8201 17.9513 32.8387 17.9722 32.842C17.9936 32.8454 18.0136 32.8315 18.0183 32.8107L19.1925 28.3972C19.1961 28.3824 19.199 28.3682 19.2012 28.354C19.2456 28.0716 19.0527 27.8068 18.7704 27.7625C18.4882 27.7181 18.2234 27.9109 18.1791 28.1933C18.1776 28.2025 18.1764 28.2117 18.1755 28.2204ZM16.9114 27.8341L15.9559 32.3188C15.9514 32.3389 15.963 32.3595 15.9831 32.3662C16.0037 32.3728 16.0257 32.3622 16.0336 32.3425L17.8879 28.1689C17.8938 28.1547 17.8989 28.1412 17.9034 28.1274C17.9916 27.8556 17.8428 27.5638 17.5711 27.4755C17.2993 27.3872 17.0075 27.5361 16.9192 27.8078C16.9163 27.8168 16.9137 27.8256 16.9114 27.8341ZM15.724 27.2535L14.0745 31.5318C14.0669 31.5509 14.075 31.5732 14.0939 31.5828C14.1132 31.5927 14.1366 31.5858 14.1474 31.5674L16.6356 27.7378C16.6437 27.7247 16.6508 27.7121 16.6574 27.6992C16.7873 27.4448 16.6864 27.1332 16.4319 27.0032C16.1774 26.8733 15.8658 26.9743 15.7359 27.2288C15.7316 27.2371 15.7276 27.2455 15.724 27.2535ZM14.6426 26.4944L12.344 30.4619C12.3335 30.4795 12.3381 30.5028 12.3552 30.5153C12.3727 30.528 12.3969 30.5249 12.4105 30.5085L15.4673 27.1153C15.4772 27.1037 15.4862 27.0924 15.4947 27.0806C15.6629 26.8496 15.6119 26.526 15.3809 26.3579C15.1499 26.1898 14.8263 26.2407 14.6582 26.4718C14.6527 26.4794 14.6474 26.4869 14.6426 26.4944ZM13.6929 25.5764L10.8049 29.1379C10.7917 29.1537 10.7926 29.1774 10.8076 29.1923C10.8229 29.2077 10.8473 29.2083 10.8633 29.1943L14.4109 26.3182C14.4226 26.3082 14.4332 26.2985 14.4434 26.2882C14.6455 26.0861 14.6455 25.7586 14.4434 25.5566C14.2414 25.3545 13.9138 25.3545 13.7119 25.5566C13.7052 25.5631 13.6989 25.57 13.6929 25.5764ZM12.8976 24.5219L9.49043 27.5904C9.47502 27.6041 9.47223 27.6276 9.48469 27.6448C9.49747 27.6622 9.52138 27.6667 9.53935 27.6553L13.4914 25.3664C13.5045 25.3584 13.5165 25.3504 13.5283 25.3419C13.7593 25.1738 13.8103 24.8501 13.6421 24.6191C13.474 24.3881 13.1504 24.3371 12.9194 24.5052C12.9119 24.5107 12.9045 24.5164 12.8976 24.5219ZM12.2766 23.3557L8.43143 25.8535C8.41404 25.8644 8.40756 25.8873 8.41719 25.9062C8.42706 25.9254 8.45006 25.9334 8.46961 25.925L12.731 24.2826C12.7452 24.2768 12.7583 24.2707 12.7712 24.2642C13.0257 24.1342 13.1267 23.8226 12.9968 23.5681C12.8669 23.3137 12.5553 23.2127 12.3008 23.3426C12.2925 23.3468 12.2843 23.3513 12.2766 23.3557ZM11.8467 22.1058L7.65624 23.967C7.63739 23.9751 7.62736 23.9967 7.63394 24.0168C7.64062 24.0374 7.66206 24.049 7.6827 24.0438L12.1496 23.0927C12.1644 23.0891 12.1784 23.0853 12.1922 23.0808C12.4639 22.9925 12.6127 22.7006 12.5245 22.429C12.4363 22.1572 12.1444 22.0084 11.8726 22.0966C11.8638 22.0995 11.855 22.1026 11.8467 22.1058ZM11.6191 20.8038L7.18783 21.9821C7.16792 21.9872 7.15467 22.0069 7.15797 22.0278C7.16132 22.0492 7.1807 22.064 7.2019 22.062L11.7628 21.826C11.7781 21.8248 11.7924 21.8232 11.8068 21.821C12.089 21.7766 12.2819 21.5119 12.2375 21.2296C12.1932 20.9473 11.9284 20.7544 11.6461 20.7987C11.6369 20.8003 11.6278 20.8019 11.6191 20.8038ZM11.5971 19.4834L7.03665 19.9594C7.01612 19.9613 7 19.9788 7 20C7 20.0216 7.01684 20.0393 7.03807 20.0407L11.5803 20.5155C11.5955 20.5167 11.61 20.5173 11.6246 20.5173C11.9102 20.5173 12.1419 20.2857 12.1419 20C12.1419 19.7143 11.9102 19.4826 11.6246 19.4826C11.6152 19.4826 11.6059 19.4829 11.5971 19.4834ZM11.7795 18.1754L7.20044 17.9379C7.17992 17.9366 7.16127 17.9513 7.15797 17.9723C7.15463 17.9935 7.16851 18.0136 7.18927 18.0183L11.6027 19.1925C11.6176 19.1961 11.6318 19.199 11.6461 19.2012C11.9284 19.2456 12.1932 19.0527 12.2375 18.7705C12.2819 18.4882 12.089 18.2234 11.8068 18.179C11.7975 18.1776 11.7884 18.1764 11.7795 18.1754ZM12.1658 16.9114L7.68124 15.9559C7.66115 15.9513 7.64046 15.9629 7.63394 15.9831C7.62725 16.0037 7.63783 16.0257 7.65757 16.0335L11.8311 17.8879C11.8453 17.8938 11.8588 17.8988 11.8726 17.9033C12.1444 17.9916 12.4363 17.8428 12.5245 17.5711C12.6127 17.2993 12.4639 17.0075 12.1922 16.9192C12.1833 16.9163 12.1744 16.9137 12.1658 16.9114ZM12.7465 15.724L8.46823 14.0744C8.44915 14.0668 8.42686 14.075 8.41719 14.0938C8.40736 14.1131 8.41436 14.1364 8.43264 14.1474L12.2623 16.6356C12.2752 16.6437 12.2878 16.6508 12.3008 16.6573C12.5553 16.7873 12.8669 16.6863 12.9968 16.4319C13.1267 16.1774 13.0257 15.8657 12.7712 15.7358C12.7629 15.7315 12.7546 15.7276 12.7465 15.724ZM13.5056 14.6426L9.53813 12.3439C9.52044 12.3334 9.49716 12.3381 9.48469 12.3553C9.47195 12.3727 9.47517 12.3968 9.49157 12.4104L12.8848 15.4673C12.8964 15.4772 12.9077 15.4861 12.9194 15.4948C13.1504 15.6629 13.474 15.6119 13.6421 15.3809C13.8103 15.1499 13.7593 14.8263 13.5283 14.6582C13.5207 14.6526 13.5131 14.6475 13.5056 14.6426ZM14.4236 13.6929L10.8622 10.8048C10.8463 10.7917 10.8226 10.7926 10.8076 10.8076C10.7923 10.8229 10.7918 10.8472 10.8058 10.8633L13.6819 14.4109C13.6918 14.4226 13.7015 14.4332 13.7119 14.4434C13.9138 14.6455 14.2414 14.6455 14.4434 14.4434C14.6455 14.2415 14.6455 13.9138 14.4434 13.7118C14.4369 13.7052 14.4301 13.6988 14.4236 13.6929ZM15.4781 12.8976L12.4095 9.49036C12.3959 9.47499 12.3724 9.47216 12.3552 9.48466C12.3377 9.49736 12.3334 9.52136 12.3448 9.53937L14.6337 13.4914C14.6416 13.5044 14.6496 13.5164 14.6582 13.5282C14.8263 13.7592 15.1499 13.8102 15.3809 13.6421C15.6119 13.474 15.6629 13.1504 15.4947 12.9194C15.4893 12.9118 15.4836 12.9045 15.4781 12.8976ZM16.6443 12.2766L14.1466 8.43135C14.1356 8.41397 14.1128 8.40752 14.0939 8.41708C14.0746 8.42703 14.0666 8.45003 14.075 8.46957L15.7174 12.731C15.7232 12.7451 15.7292 12.7583 15.7359 12.7712C15.8658 13.0257 16.1774 13.1268 16.4319 12.9968C16.6864 12.8668 16.7873 12.5552 16.6574 12.3008C16.6532 12.2924 16.6487 12.2843 16.6443 12.2766ZM17.8942 11.8467L16.033 7.6562C16.0248 7.63728 16.0033 7.62729 15.9831 7.63386C15.9626 7.64054 15.951 7.66202 15.9562 7.68263L16.9073 12.1495C16.9109 12.1644 16.9147 12.1783 16.9192 12.1921C17.0075 12.4639 17.2993 12.6127 17.5711 12.5244C17.8428 12.4362 17.9916 12.1443 17.9034 11.8726C17.9004 11.8637 17.8974 11.855 17.8942 11.8467ZM19.1963 11.619L18.0179 7.18775C18.0129 7.16788 17.9932 7.15463 17.9722 7.15798C17.9509 7.16128 17.9361 7.18063 17.938 7.20191L18.174 11.7627C18.1752 11.778 18.1768 11.7923 18.1791 11.8067C18.2234 12.089 18.4882 12.2818 18.7704 12.2375C19.0527 12.1931 19.2456 11.9284 19.2012 11.6461C19.1998 11.6369 19.1981 11.6277 19.1963 11.619ZM20.5166 11.5971L20.0405 7.03653C20.0386 7.01609 20.0212 7 20 7C19.9784 7 19.9607 7.01672 19.9593 7.03803L19.4846 11.5803C19.4833 11.5956 19.4827 11.61 19.4827 11.6245C19.4827 11.9103 19.7143 12.1419 20 12.1419C20.2857 12.1419 20.5173 11.9103 20.5173 11.6245C20.5173 11.6152 20.517 11.6059 20.5166 11.5971ZM20 12.1455C24.3378 12.1455 27.8544 15.6621 27.8544 20C27.8544 24.3378 24.3378 27.8545 20 27.8545C15.6622 27.8545 12.1456 24.3378 12.1456 20C12.1456 15.6621 15.6622 12.1455 20 12.1455ZM20 13.0871C23.8179 13.0871 26.9129 16.1821 26.9129 20C26.9129 23.8179 23.8179 26.9129 20 26.9129C16.1821 26.9129 13.0871 23.8179 13.0871 20C13.0871 16.1821 16.1821 13.0871 20 13.0871ZM14.2279 22.0748C14.9346 20.5965 15.9114 19.2903 17.0409 18.1915C17.2175 18.3074 17.3923 18.4277 17.5653 18.5522C16.3792 19.686 15.3455 21.0891 14.5657 22.8081C14.4377 22.5726 14.3249 22.3276 14.2279 22.0748ZM20.4876 18.5067C20.648 18.6411 20.806 18.78 20.9615 18.9232C21.1274 18.7872 21.2956 18.6556 21.4658 18.5288C21.3106 18.3882 21.1528 18.2517 20.9929 18.1189C20.8224 18.244 20.6539 18.3733 20.4876 18.5067ZM19.4832 17.7401C19.6575 17.8611 19.8298 17.9865 20 18.1165C20.1702 17.9865 20.3425 17.8611 20.5168 17.7401C20.3473 17.6107 20.175 17.485 20 17.3631C19.8258 17.4844 19.6535 17.6101 19.4832 17.7401ZM19.5295 19.3459C19.689 19.4898 19.8458 19.6383 20 19.7915C20.1541 19.6383 20.3111 19.4898 20.4705 19.3459C20.3163 19.1986 20.1594 19.0549 20 18.9155C19.8406 19.0549 19.6838 19.1986 19.5295 19.3459ZM18.5342 18.5288C18.7045 18.6556 18.8727 18.7872 19.0385 18.9232C19.1941 18.78 19.3521 18.6411 19.5124 18.5068C19.3461 18.3733 19.1776 18.2439 19.0071 18.1189C18.8472 18.2517 18.6895 18.3882 18.5342 18.5288ZM21.6266 17.0421C21.4554 16.9115 21.2821 16.7851 21.1071 16.6631C20.9079 16.7768 20.71 16.8961 20.514 17.0208C20.693 17.1394 20.8701 17.2626 21.0452 17.3904C21.2371 17.2693 21.431 17.1532 21.6266 17.0421ZM22.5416 17.8008C22.3879 17.6626 22.2319 17.5279 22.0737 17.3971C21.8868 17.5102 21.7012 17.6283 21.5176 17.7511C21.6795 17.8803 21.8392 18.0137 21.9966 18.1516C22.1764 18.03 22.3582 17.9133 22.5416 17.8008ZM19.3772 16.3398C19.5829 16.2082 19.7907 16.0824 20 15.9629C20.2093 16.0824 20.4171 16.2082 20.6229 16.3398C20.4135 16.4529 20.2057 16.5715 20 16.6957C19.7943 16.5715 19.5865 16.4529 19.3772 16.3398ZM18.3735 17.0421C18.5447 16.9115 18.7179 16.7851 18.8929 16.6631C19.0922 16.7768 19.29 16.8961 19.486 17.0208C19.307 17.1394 19.1299 17.2626 18.9549 17.3904C18.763 17.2693 18.569 17.1532 18.3735 17.0421ZM17.4584 17.8008C17.6121 17.6626 17.7681 17.5279 17.9263 17.3971C18.1132 17.5102 18.2988 17.6283 18.4825 17.7511C18.3206 17.8803 18.1608 18.0137 18.0035 18.1516C17.8236 18.03 17.6418 17.9133 17.4584 17.8008ZM14.5744 16.8975C15.2138 17.1537 15.8514 17.4684 16.4739 17.8373C15.5156 18.7506 14.6563 19.8393 13.9492 21.1278C13.8639 20.7188 13.819 20.295 13.819 19.8607C13.819 18.7869 14.0928 17.7772 14.5744 16.8975ZM15.0998 16.0934C15.8534 16.337 16.612 16.6643 17.3541 17.0683C17.1943 17.1963 17.0366 17.3285 16.8812 17.465C16.2036 17.0907 15.5073 16.7743 14.8051 16.5104C14.8977 16.3671 14.9961 16.2281 15.0998 16.0934ZM15.7588 15.3646C16.6108 15.588 17.477 15.9218 18.3257 16.3563C18.1467 16.4761 17.9695 16.6003 17.7945 16.7293C17.0093 16.3272 16.2028 15.9999 15.3944 15.7387C15.5106 15.609 15.6322 15.4842 15.7588 15.3646ZM16.7201 14.6211C16.7382 14.6277 16.7573 14.6344 16.7774 14.6412C16.8001 14.647 16.8227 14.6529 16.8454 14.6586C17.713 14.8845 18.5955 15.225 19.4597 15.6697C19.2401 15.7894 19.0226 15.9154 18.8074 16.0474C17.9712 15.6402 17.114 15.3153 16.2581 15.063C16.2507 15.0609 16.203 15.0444 16.1493 15.0257C16.3315 14.8806 16.522 14.7453 16.7201 14.6211ZM22.7531 14.3255C22.7198 14.3361 22.6956 14.3441 22.6883 14.3469C21.7855 14.61 20.8806 14.9533 20 15.3889C19.1362 14.9616 18.2489 14.623 17.3631 14.3619C17.346 14.3569 17.3289 14.3519 17.3117 14.3469C17.2876 14.3407 17.2655 14.3338 17.2451 14.3264C18.0746 13.9126 19.01 13.6794 20 13.6794C20.9893 13.6794 21.9241 13.9121 22.7531 14.3255ZM23.8566 15.0305C23.8336 15.0373 23.8123 15.0434 23.7944 15.0477C22.9211 15.302 22.046 15.6318 21.1926 16.0474C20.9774 15.9154 20.7599 15.7894 20.5404 15.6697C21.427 15.2133 22.3331 14.8667 23.2226 14.6412C23.2444 14.6377 23.2664 14.6325 23.288 14.6261C23.4853 14.7504 23.6752 14.8853 23.8566 15.0305ZM24.6056 15.7387C23.7972 15.9999 22.9908 16.3272 22.2055 16.7293C22.0305 16.6003 21.8534 16.4761 21.6744 16.3563C22.5231 15.9218 23.3891 15.588 24.2412 15.3646C24.3678 15.4842 24.4894 15.609 24.6056 15.7387ZM25.1949 16.5104C24.4927 16.7743 23.7965 17.0906 23.1189 17.465C22.9634 17.3285 22.8057 17.1963 22.646 17.0683C23.388 16.6643 24.1466 16.337 24.9002 16.0934C25.004 16.2281 25.1025 16.3671 25.1949 16.5104ZM26.0508 21.1278C25.3438 19.8393 24.4844 18.7506 23.5261 17.8373C24.1486 17.4684 24.7862 17.1537 25.4256 16.8975C25.907 17.7773 26.1811 18.7869 26.1811 19.8607C26.1811 20.295 26.1361 20.7188 26.0508 21.1278ZM25.4343 22.8081C24.6545 21.0891 23.6208 19.686 22.4347 18.5522C22.6077 18.4277 22.7826 18.3074 22.959 18.1915C24.0886 19.2903 25.0654 20.5965 25.7723 22.0748C25.6752 22.3275 25.5624 22.5726 25.4343 22.8081ZM24.4715 24.128C23.7186 22.1872 22.6576 20.6165 21.4131 19.3586C21.5764 19.2176 21.7422 19.0808 21.9103 18.948C23.1983 20.2147 24.2832 21.7532 24.9888 23.5099C24.8297 23.7271 24.6571 23.9337 24.4715 24.128ZM23.3048 25.0847L23.2226 24.8639C22.5399 23.0202 21.5826 21.5031 20.4537 20.2652C20.6075 20.106 20.7648 19.9507 20.9248 19.7995C22.2175 21.1488 23.2797 22.7822 23.9187 24.6408C23.7236 24.8008 23.5186 24.9491 23.3048 25.0847ZM17.3243 25.4341L17.4033 25.1871C17.9728 23.5145 18.885 22.0237 20 20.757C21.115 22.0237 22.0272 23.5145 22.5966 25.1871L22.6776 25.4333C21.8675 25.8232 20.9593 26.0417 20 26.0417C19.0415 26.0417 18.1339 25.8236 17.3243 25.4341ZM16.0814 24.6408C16.7204 22.7822 17.7825 21.1488 19.0752 19.7995C19.2352 19.9507 19.3925 20.106 19.5463 20.2652C18.4174 21.5031 17.4601 23.0202 16.7774 24.8639L16.6955 25.0849C16.4815 24.9492 16.2765 24.8009 16.0814 24.6408ZM15.0112 23.5099C15.7169 21.7532 16.8017 20.2147 18.0898 18.948C18.2578 19.0808 18.4237 19.2176 18.587 19.3586C17.3425 20.6165 16.2815 22.1872 15.5284 24.128C15.343 23.9337 15.1703 23.7271 15.0112 23.5099Z"
        fill="#FFFF00"
    />
</svg>
