<svg xmlns="http://www.w3.org/2000/svg" width="40" height="40" viewBox="0 0 40 40" fill="none">
    <rect width="40" height="40" fill="#D80027" />
    <path
        d="M16.7347 17.0649C15.9276 16.5636 15.0714 16.1477 14.1909 15.8053C13.4327 16.9304 12.9924 18.2756 12.9924 19.7309C12.9924 20.4525 13.1025 21.1496 13.3104 21.81C13.6773 20.9662 14.142 20.1468 14.7046 19.3641C15.2924 18.5236 15.9734 17.7523 16.7347 17.0649ZM14.5823 15.2916C15.5362 15.6219 16.4534 16.0499 17.334 16.5513C17.5297 16.3801 17.7375 16.2333 17.9332 16.0866C17.0038 15.5729 16.0131 15.1572 14.9981 14.8391C14.8513 14.9859 14.7046 15.1327 14.5823 15.2916ZM15.4384 14.4234C16.539 14.7169 17.5908 15.1204 18.5813 15.6463C18.8137 15.4995 19.0461 15.365 19.2662 15.2305C18.2145 14.6924 17.1016 14.3011 15.952 14.0198C15.7704 14.1406 15.5987 14.2756 15.4384 14.4234ZM16.4778 13.6896C17.6886 13.9342 18.8626 14.3255 19.9633 14.8636C21.0762 14.3255 22.2502 13.9342 23.4487 13.6896C22.4337 13.0904 21.2352 12.7479 19.9633 12.7479C18.6915 12.7479 17.5051 13.0904 16.4778 13.6896ZM23.9745 14.032C22.8268 14.301 21.7146 14.7032 20.6603 15.2305C20.8913 15.3646 21.1197 15.5032 21.3452 15.6463C22.348 15.1204 23.3998 14.7169 24.4882 14.4234C24.3292 14.2766 24.1579 14.1422 23.9745 14.032ZM24.9285 14.8514C23.9134 15.1572 22.9351 15.5729 21.9934 16.0866C22.2023 16.2346 22.4063 16.3896 22.6049 16.5513C23.4731 16.0499 24.3904 15.6219 25.3443 15.2916C25.222 15.1327 25.0874 14.9859 24.9285 14.8514ZM25.7356 15.8175C24.8527 16.1489 24.0048 16.5667 23.2041 17.0649C23.9501 17.7376 24.6227 18.508 25.2342 19.3641C25.7757 20.1332 26.2425 20.9522 26.6284 21.81C26.8241 21.1374 26.9341 20.4525 26.9341 19.7309C26.9341 18.2756 26.4938 16.9303 25.7356 15.8175ZM25.1364 20.6115C24.4026 19.4252 23.5221 18.3735 22.5437 17.4808L21.8833 17.9577C23.5343 19.4986 24.8673 21.4309 25.7112 23.6811C25.9069 23.3876 26.0903 23.0819 26.237 22.7761C25.9313 22.0424 25.5644 21.3208 25.1364 20.6115ZM21.2596 17.4319C21.4798 17.2729 21.6999 17.1138 21.9323 16.9671C21.7366 16.7959 21.5287 16.6369 21.3207 16.4779L20.6237 16.9304H20.6359C20.8438 17.0894 21.0517 17.2607 21.2596 17.4319ZM19.9633 16.4534L20.6603 16.0254L19.9633 15.5974C19.7309 15.7319 19.5108 15.8787 19.2784 16.0254C19.5108 16.1599 19.7309 16.3067 19.9633 16.4534ZM19.3029 16.9304C19.0705 16.7714 18.8504 16.6247 18.618 16.4779L17.9944 16.9549L18.667 17.4196C18.8737 17.2498 19.0858 17.0866 19.3029 16.9304ZM19.9633 17.4196C19.7553 17.5785 19.5475 17.7498 19.3274 17.9333C19.5475 18.1044 19.7554 18.2878 19.9633 18.4713C20.1712 18.2878 20.3791 18.1044 20.5992 17.9333C20.3913 17.762 20.1834 17.5785 19.9633 17.4196ZM19.9633 19.7065C19.0076 20.7371 18.1971 21.8933 17.5541 23.143C17.1016 23.9991 16.7469 24.8919 16.4778 25.7846C17.5052 26.3594 18.6914 26.7018 19.9633 26.7018C21.2352 26.7018 22.4215 26.3594 23.4487 25.7846C23.1796 24.8919 22.825 23.9991 22.3725 23.143C21.7121 21.859 20.9049 20.7093 19.9633 19.7065ZM15.9276 24.3415C16.7224 22.3114 17.8965 20.5381 19.3396 19.0705C19.1316 18.8749 18.9238 18.6915 18.7037 18.4958C17.0283 20.1223 15.6829 22.1402 14.8635 24.476C15.094 24.7309 15.3433 24.968 15.6095 25.1854C15.7074 24.9041 15.8175 24.6228 15.9276 24.3415ZM20.587 19.0705C22.03 20.5381 23.2041 22.3114 24.0113 24.3415C24.1213 24.6228 24.2192 24.9041 24.317 25.1854C24.586 24.9652 24.8428 24.7329 25.0752 24.4761C24.2436 22.1402 22.8984 20.1223 21.2229 18.4958L20.587 19.0705ZM14.2154 23.6811C15.0592 21.4309 16.3923 19.5108 18.0555 17.97C17.8363 17.8 17.612 17.6369 17.3828 17.4808C16.4045 18.3857 15.524 19.4374 14.7902 20.6237C14.368 21.3115 14 22.0311 13.6896 22.7761C13.8363 23.0941 14.0197 23.3876 14.2154 23.6811ZM20 12.1854C24.3048 12.1854 27.8146 15.6952 27.8146 20C27.8146 24.3048 24.3048 27.8147 20 27.8147C15.6952 27.8147 12.1853 24.3048 12.1853 20C12.1853 15.6952 15.6952 12.1854 20 12.1854ZM23.4487 10.4732C23.2286 10.7301 22.984 11.0602 22.7394 11.586C22.6783 11.4516 22.6783 11.2926 22.7149 11.1214C22.7761 10.5588 22.9351 10.2164 23.2286 9.73942C23.3264 9.56827 23.4243 9.42145 23.4731 9.23803C23.6566 8.68775 23.6199 7.95397 23.2163 7.3792C23.2775 8.02734 23.0818 8.56541 22.8618 8.89558C22.825 8.95675 22.7883 8.99343 22.7394 9.0424C22.507 9.27471 22.2502 9.5071 21.92 10.0452C21.7366 10.3387 21.5531 10.6933 21.3819 11.2559C21.3085 11.1336 21.2841 10.9869 21.2963 10.8156C21.2718 10.2408 21.3697 9.88623 21.5776 9.36036C21.651 9.17693 21.7244 9.01791 21.7488 8.82221C21.8344 8.25965 21.6877 7.53815 21.1985 7.03669C21.3574 7.66041 21.2596 8.22297 21.0884 8.58989C21.0517 8.65099 21.0273 8.69995 20.9906 8.74884C20.7949 9.01792 20.587 9.28692 20.3302 9.86168C20.2079 10.1919 20.0734 10.5711 20 11.1458C19.9021 11.0358 19.8532 10.889 19.841 10.7178C19.7309 10.1552 19.7676 9.78838 19.8899 9.2381C19.9388 9.0546 19.9877 8.88338 19.9755 8.68767C19.9755 8.11291 19.7187 7.42809 19.1562 7C19.413 7.59924 19.4008 8.17408 19.2906 8.56541C19.2662 8.6143 19.2417 8.67547 19.2173 8.72436C19.0705 9.03012 18.8993 9.32368 18.7403 9.93512C18.667 10.2776 18.5936 10.6811 18.6058 11.2559C18.508 11.1581 18.4347 11.0236 18.3857 10.8645C18.19 10.3143 18.1655 9.9596 18.2145 9.38484C18.2268 9.18914 18.239 9.01791 18.2145 8.83449C18.1166 8.25965 17.7498 7.62372 17.1382 7.29356C17.4807 7.84384 17.5541 8.41867 17.5051 8.81001L17.4685 8.99343C17.3706 9.3114 17.2483 9.62936 17.1872 10.2653C17.1627 10.6077 17.1505 11.0113 17.2606 11.5861C17.1382 11.5005 17.0526 11.3782 16.9793 11.2315C16.698 10.7178 16.6247 10.3631 16.5757 9.80059C16.5634 9.60488 16.5512 9.43373 16.4778 9.2503C16.3067 8.69995 15.8419 8.12519 15.1816 7.905C15.6096 8.38199 15.7808 8.93227 15.7808 9.33588C15.7808 9.39705 15.7808 9.45814 15.7685 9.51931C15.7196 9.84947 15.6585 10.1919 15.6952 10.8156C15.7319 11.1581 15.7808 11.5616 15.9764 12.1119C15.8419 12.0508 15.7319 11.9408 15.634 11.8062C15.2794 11.3537 15.1571 11.0113 15.0226 10.461C14.9737 10.2653 14.937 10.1063 14.8391 9.92292C14.5823 9.42145 14.032 8.92006 13.3472 8.7978C13.8363 9.21355 14.0931 9.73949 14.1665 10.1308C14.1787 10.1919 14.1787 10.2531 14.1787 10.3142C14.191 10.6444 14.1787 10.9869 14.3133 11.6106C14.3988 11.9408 14.509 12.3321 14.7902 12.8335C14.6557 12.7968 14.5334 12.7112 14.411 12.5889C13.983 12.1976 13.7996 11.8796 13.5917 11.3537C13.5183 11.1703 13.4449 11.0113 13.3349 10.8523C12.9924 10.3998 12.3809 9.99629 11.6717 9.98401C12.2342 10.3143 12.5644 10.779 12.699 11.1581L12.7356 11.3415C12.7968 11.6717 12.8335 12.0141 13.0658 12.6012C13.2003 12.9191 13.3838 13.286 13.7384 13.7386C13.5917 13.7263 13.4571 13.6529 13.3227 13.5551C12.8457 13.2371 12.6133 12.9436 12.3076 12.4666C12.2098 12.2955 12.1242 12.1487 11.9774 12.0141C11.5738 11.6106 10.9012 11.3048 10.2041 11.4027C10.8034 11.6473 11.2069 12.063 11.4026 12.4177C11.4271 12.4666 11.4515 12.5278 11.476 12.5889C11.586 12.8947 11.6717 13.2249 11.9897 13.7752C12.1731 14.0687 12.4055 14.3989 12.8335 14.8024C12.6867 14.8024 12.5399 14.7536 12.3932 14.6802C11.8673 14.4356 11.5983 14.191 11.2314 13.763C11.0969 13.6162 10.9868 13.4817 10.8279 13.3594C10.3631 13.0292 9.65377 12.8335 8.98116 13.0414C9.61709 13.1881 10.0818 13.5306 10.3142 13.8485C10.3631 13.8975 10.3876 13.9464 10.412 14.0076C10.571 14.301 10.7178 14.619 11.1213 15.096C11.3414 15.365 11.6227 15.6586 12.0997 15.9887C11.9652 16.0132 11.8184 15.9887 11.6472 15.9276C11.0969 15.7808 10.7912 15.573 10.3631 15.2061C10.2163 15.0837 10.0818 14.9737 9.91064 14.8759C9.39697 14.619 8.66319 14.5456 8.02726 14.8513C8.6754 14.8881 9.18907 15.1694 9.48255 15.4384C9.51924 15.4873 9.55592 15.524 9.59261 15.5852C9.80059 15.842 9.98401 16.1355 10.4609 16.5513C10.7178 16.7714 11.048 17.016 11.5738 17.2729C11.4393 17.3217 11.2804 17.3217 11.1213 17.2851C10.5465 17.2239 10.2163 17.0649 9.72714 16.7714C9.55599 16.6736 9.40918 16.5757 9.22575 16.5268C8.67547 16.3434 7.95389 16.3801 7.37906 16.7837C8.01506 16.7225 8.56534 16.9182 8.89558 17.1382C8.94447 17.175 8.99336 17.2117 9.03005 17.2606C9.27464 17.493 9.50703 17.7498 10.0329 18.08C10.3264 18.2634 10.6933 18.4591 11.2436 18.6181C11.1213 18.6915 10.9746 18.7159 10.8034 18.7159C10.2285 18.7282 9.87396 18.6303 9.34808 18.4224C9.16466 18.349 9.00564 18.2756 8.80994 18.2512C8.24738 18.1656 7.52587 18.3123 7.02441 18.8015C7.64813 18.6426 8.22297 18.7403 8.57762 18.9116C8.63871 18.9483 8.68767 18.9727 8.73656 19.0094C9.00564 19.2051 9.27464 19.413 9.86168 19.6698C10.1796 19.7921 10.5588 19.9266 11.1335 20C11.0235 20.0979 10.8767 20.1467 10.7178 20.159C10.143 20.2813 9.78838 20.2324 9.22582 20.1101C9.04233 20.0612 8.8711 20.0245 8.6754 20.0245C8.10064 20.0245 7.41582 20.2813 7 20.8438C7.58697 20.587 8.1618 20.5992 8.55314 20.7094C8.6143 20.7338 8.66319 20.7583 8.72429 20.7827C9.01784 20.9295 9.3236 21.1007 9.93505 21.2597C10.2653 21.333 10.6688 21.4064 11.2436 21.3942C11.1458 21.492 11.0113 21.5653 10.8523 21.6143C10.3142 21.81 9.94733 21.8345 9.38477 21.7855C9.18907 21.7732 9.01792 21.761 8.82221 21.7855C8.25965 21.8834 7.62365 22.2502 7.29348 22.874C7.83156 22.5193 8.40632 22.4459 8.81001 22.4948L8.98116 22.5315C9.29912 22.6416 9.61709 22.7517 10.253 22.8128C10.5955 22.8373 10.999 22.8495 11.5738 22.7394C11.4882 22.8618 11.3659 22.9474 11.2192 23.0207C10.7178 23.302 10.3509 23.3753 9.78831 23.4243C9.5926 23.4487 9.42145 23.461 9.23803 23.5222C8.68767 23.6933 8.12512 24.1581 7.89273 24.8184C8.38191 24.3904 8.93227 24.2315 9.33581 24.2192C9.39697 24.2192 9.45814 24.2192 9.51923 24.2315C9.8372 24.2803 10.1796 24.3415 10.8156 24.3048C11.158 24.2803 11.5616 24.2192 12.0997 24.0236C12.0507 24.1581 11.9407 24.2681 11.7939 24.366C11.3414 24.7206 10.9991 24.8429 10.4487 24.9774C10.2653 25.0263 10.0941 25.063 9.92285 25.1609C9.40918 25.4177 8.91999 25.968 8.79773 26.6528C9.20127 26.1637 9.72714 25.9069 10.1186 25.8335C10.1796 25.8213 10.2408 25.8213 10.302 25.8213C10.6321 25.809 10.9868 25.8213 11.5982 25.6867C11.9285 25.6012 12.3198 25.491 12.8335 25.2098C12.7968 25.3443 12.699 25.4788 12.5766 25.589C12.1853 26.017 11.8673 26.2004 11.3414 26.4083C11.1703 26.4939 11.0113 26.5551 10.8523 26.6651C10.3876 27.0076 9.98401 27.6191 9.97174 28.3283C10.302 27.7658 10.7789 27.4356 11.158 27.301L11.3292 27.2644C11.6594 27.2032 12.0019 27.1665 12.5889 26.9342C12.9069 26.7997 13.2737 26.6162 13.7384 26.2738C13.714 26.4083 13.6528 26.5429 13.5427 26.6773C13.2248 27.1543 12.9435 27.3867 12.4544 27.6924C12.2953 27.7902 12.1486 27.8758 12.0019 28.0226C11.5983 28.4262 11.3048 29.0988 11.4026 29.7959C11.635 29.1966 12.0507 28.7931 12.4055 28.5974C12.4666 28.5729 12.5155 28.5485 12.5766 28.524C12.8946 28.4262 13.2248 28.3283 13.7629 28.0103C14.0565 27.8269 14.3866 27.5945 14.7902 27.1665C14.8024 27.3133 14.7535 27.4601 14.6679 27.6068C14.4233 28.1327 14.1787 28.4017 13.7507 28.7686C13.604 28.9031 13.4694 29.0132 13.3593 29.1721C13.0291 29.6369 12.8335 30.3462 13.0414 31.0188C13.1759 30.3829 13.5183 29.9182 13.8485 29.6858C13.8974 29.6491 13.9463 29.6124 13.9953 29.588C14.2888 29.429 14.6067 29.2822 15.0959 28.8787C15.3527 28.6586 15.6462 28.3773 15.9764 27.9003C16.0009 28.0348 15.9764 28.1938 15.9276 28.3528C15.7685 28.9031 15.5729 29.2088 15.1938 29.6369C15.0714 29.7837 14.9614 29.9182 14.8758 30.1016C14.619 30.6152 14.5334 31.3368 14.8391 31.9727C14.888 31.3246 15.1571 30.8109 15.4384 30.5297C15.4751 30.4808 15.5239 30.4441 15.5729 30.4073C15.8419 30.1995 16.1232 30.016 16.539 29.5391C16.7591 29.2822 17.0037 28.952 17.2606 28.4262C17.3095 28.5607 17.3095 28.7196 17.285 28.8787C17.2116 29.4535 17.0649 29.7837 16.7714 30.2729C16.6613 30.444 16.5757 30.5908 16.5145 30.7742C16.3434 31.3245 16.3801 32.0583 16.7836 32.6331C16.7224 31.9849 16.9059 31.4347 17.1382 31.1044C17.1749 31.0555 17.2116 31.0066 17.2483 30.97C17.4807 30.7254 17.7375 30.493 18.0799 29.9671C18.2511 29.6736 18.4468 29.3067 18.6058 28.7564C18.6792 28.8787 18.7037 29.0254 18.7037 29.1966C18.7281 29.7715 18.6303 30.126 18.4101 30.6519C18.3367 30.8353 18.2756 30.9944 18.239 31.1901C18.1533 31.7526 18.3 32.4741 18.7892 32.9756C18.6303 32.3519 18.7281 31.777 18.9116 31.4224C18.936 31.3613 18.9605 31.3123 18.9971 31.2634C19.1928 30.9944 19.413 30.7254 19.6576 30.1383C19.7921 29.8204 19.9266 29.4412 20 28.8665C20.0856 28.9765 20.1345 29.1233 20.1589 29.2822C20.269 29.857 20.2323 30.2116 20.0978 30.7742C20.0489 30.9577 20.0122 31.1289 20.0122 31.3246C20.0122 31.8994 20.2813 32.5842 20.8438 33C20.587 32.413 20.587 31.8382 20.7093 31.4469C20.7216 31.3857 20.746 31.3368 20.7705 31.2757C20.9172 30.9822 21.0884 30.6764 21.2474 30.0649C21.3207 29.7347 21.3941 29.3312 21.3819 28.7564C21.492 28.8542 21.5531 28.9887 21.602 29.1477C21.81 29.6858 21.8222 30.0527 21.7855 30.6274C21.761 30.8109 21.7488 30.9822 21.7855 31.1778C21.8711 31.7526 22.238 32.3885 22.8617 32.7187C22.5192 32.1684 22.4337 31.5936 22.4948 31.2023C22.4948 31.1411 22.507 31.08 22.5315 31.0188C22.6293 30.7009 22.7516 30.3829 22.8128 29.747C22.825 29.4045 22.8372 29.001 22.7394 28.4262C22.8495 28.5118 22.9473 28.6341 23.0207 28.7808C23.302 29.2822 23.3753 29.6491 23.4242 30.2117C23.4365 30.4074 23.4487 30.5785 23.5099 30.762C23.6933 31.3123 24.1458 31.8749 24.8184 32.1073C24.3904 31.6181 24.2192 31.0677 24.2069 30.6642C24.2069 30.603 24.2069 30.5419 24.2192 30.4808C24.2681 30.1628 24.3414 29.8204 24.2926 29.1844C24.2681 28.842 24.2069 28.4384 24.0235 27.9003C24.1458 27.9615 24.2559 28.0593 24.3537 28.2061C24.7083 28.6586 24.8428 29.0009 24.9774 29.5513C25.0141 29.7347 25.063 29.9059 25.1486 30.0772C25.4177 30.5908 25.9557 31.08 26.6528 31.2023C26.1515 30.7987 25.8946 30.2729 25.8212 29.8814C25.809 29.8204 25.809 29.7592 25.809 29.698C25.809 29.3679 25.8213 29.0254 25.6867 28.4018C25.6011 28.0715 25.4788 27.6802 25.1976 27.1665C25.3443 27.2032 25.4666 27.301 25.5767 27.4234C26.0047 27.8147 26.1881 28.1327 26.4083 28.6586C26.4816 28.8297 26.5428 28.9887 26.6651 29.1477C27.0075 29.6124 27.619 30.016 28.316 30.0283C27.7658 29.698 27.4355 29.2211 27.301 28.842C27.2766 28.7808 27.2643 28.7319 27.2521 28.6708C27.2032 28.3406 27.1542 27.9981 26.9219 27.4111C26.7874 27.0931 26.6162 26.7263 26.2615 26.2737C26.4083 26.286 26.5428 26.3472 26.6773 26.4572C27.1542 26.7752 27.3866 27.0565 27.6801 27.5456C27.778 27.7047 27.8758 27.8636 28.0103 27.9981C28.4139 28.4017 29.0865 28.6952 29.7836 28.5974C29.1844 28.365 28.7808 27.9493 28.5973 27.5945C28.5606 27.5334 28.5362 27.4845 28.5239 27.4234C28.4139 27.1054 28.316 26.7752 27.9981 26.2371C27.8146 25.9435 27.5823 25.6134 27.1665 25.2098C27.301 25.2098 27.4478 25.2465 27.6067 25.3321C28.1204 25.5767 28.4017 25.8213 28.7685 26.2493C28.8909 26.396 29.0009 26.5306 29.1599 26.6407C29.6247 26.9831 30.334 27.1665 31.0065 26.9709C30.3828 26.8241 29.9181 26.4817 29.6735 26.1515C29.6369 26.1026 29.6002 26.0537 29.5757 26.0047C29.4167 25.7112 29.2822 25.3933 28.8786 24.9041C28.6463 24.6473 28.365 24.3538 27.888 24.0236C28.0348 23.9991 28.1815 24.0236 28.3405 24.0724C28.8908 24.2315 29.1966 24.4393 29.6368 24.8062C29.7836 24.9286 29.9181 25.0386 30.0894 25.1242C30.603 25.381 31.3245 25.4666 31.9605 25.1609C31.3123 25.112 30.8109 24.8429 30.5174 24.5616C30.4685 24.5249 30.4318 24.4761 30.395 24.4271C30.1993 24.1581 30.0037 23.8768 29.539 23.461C29.2699 23.2409 28.9398 22.9963 28.4262 22.7394C28.5606 22.6905 28.7074 22.6905 28.8786 22.715C29.4412 22.7884 29.7836 22.9351 30.2606 23.2409C30.4317 23.3387 30.5785 23.4243 30.762 23.4855C31.3123 23.6566 32.046 23.6199 32.6208 23.2164C31.9727 23.2776 31.4346 23.0941 31.1044 22.8618L30.9576 22.7517C30.7253 22.5193 30.4929 22.2625 29.9548 21.9201C29.6613 21.7489 29.3066 21.5532 28.7441 21.3942C28.8664 21.3208 29.0253 21.2963 29.1844 21.2963C29.7714 21.2719 30.126 21.3697 30.6396 21.5899C30.8231 21.6633 30.9821 21.7244 31.1778 21.761C31.7403 21.8467 32.4619 21.6999 32.9633 21.2108C32.3396 21.3697 31.777 21.2719 31.4101 21.0884C31.3612 21.064 31.3 21.0395 31.2512 21.0029C30.9821 20.8072 30.7131 20.5992 30.1383 20.3424C29.8203 20.2202 29.4289 20.0856 28.8542 20C28.9642 19.9144 29.111 19.8655 29.2822 19.8411C29.8448 19.731 30.2116 19.7677 30.7619 19.9022C30.9454 19.9511 31.1166 19.9878 31.3123 19.9878C31.8871 19.9878 32.5719 19.7187 33 19.1684C32.4008 19.413 31.8259 19.413 31.4468 19.2907C31.3857 19.2784 31.3245 19.254 31.2756 19.2295C30.9699 19.0828 30.6763 18.9116 30.0649 18.7526C29.7224 18.6793 29.3312 18.6059 28.7441 18.6181C28.8419 18.508 28.9764 18.4469 29.1355 18.398C29.6857 18.19 30.0526 18.1778 30.6152 18.2145C30.8109 18.239 30.9821 18.2512 31.1777 18.2145C31.7403 18.1289 32.3763 17.762 32.7065 17.1383C32.1562 17.4808 31.5936 17.5663 31.19 17.5174C31.1288 17.5052 31.0677 17.493 31.0066 17.4685C30.6886 17.3707 30.3706 17.2484 29.7469 17.1872C29.4045 17.1749 28.9887 17.1628 28.4261 17.2729C28.4995 17.1505 28.6218 17.0527 28.7808 16.9793C29.2822 16.698 29.6369 16.6247 30.1994 16.5758C30.3951 16.5635 30.5663 16.5513 30.7497 16.4901C31.3 16.3067 31.8748 15.8542 32.095 15.1816C31.618 15.6096 31.0677 15.7808 30.6641 15.7931C30.603 15.7931 30.5419 15.7931 30.4807 15.7808C30.1505 15.7319 29.8081 15.6586 29.1844 15.7074C28.8419 15.7319 28.4384 15.7931 27.8881 15.9887C27.9492 15.8542 28.0592 15.7441 28.1938 15.6463C28.6463 15.2917 28.9887 15.1572 29.539 15.0226C29.7252 14.9898 29.9062 14.9322 30.0771 14.8514C30.5785 14.5823 31.0799 14.0443 31.2022 13.3472C30.7865 13.8485 30.2728 14.1054 29.8692 14.1788C29.8081 14.191 29.7469 14.191 29.6857 14.191C29.3556 14.191 29.0131 14.1787 28.4017 14.3133C28.0592 14.3989 27.6679 14.5212 27.1665 14.8024C27.2032 14.6557 27.2888 14.5334 27.4111 14.4233C27.8024 13.9953 28.1204 13.8119 28.6463 13.5917C28.8297 13.5184 28.9887 13.4572 29.1477 13.335C29.6002 12.9925 30.0037 12.381 30.016 11.684C29.6857 12.2342 29.221 12.5645 28.8419 12.699C28.7808 12.7234 28.7196 12.7357 28.6585 12.7479C28.3283 12.8091 27.9859 12.8458 27.3988 13.0781C27.0931 13.2126 26.7262 13.3838 26.2614 13.7385C26.2737 13.604 26.3471 13.4572 26.4449 13.3227C26.7629 12.8458 27.0564 12.6134 27.5334 12.3199C27.7045 12.222 27.8513 12.1242 27.9859 11.9897C28.3894 11.5861 28.6952 10.9135 28.5973 10.2164C28.3527 10.8156 27.937 11.2192 27.5823 11.4149C27.5334 11.4394 27.4722 11.4638 27.4233 11.4761C27.1053 11.5861 26.7751 11.684 26.2248 12.0019C25.9313 12.1854 25.6011 12.4177 25.1976 12.8335C25.1976 12.699 25.2464 12.5522 25.3198 12.4055C25.5644 11.8796 25.809 11.6106 26.237 11.2315C26.3838 11.1091 26.5183 10.9991 26.6406 10.8401C26.9708 10.3753 27.1665 9.66605 26.9586 8.99351C26.8118 9.61716 26.4694 10.0819 26.1515 10.3265C26.1025 10.3631 26.0536 10.3998 25.9924 10.4243C25.6989 10.5833 25.381 10.7178 24.904 11.1214C24.635 11.3537 24.3414 11.635 24.0235 12.112C23.9868 11.9774 24.0112 11.8185 24.0724 11.6595C24.2314 11.1092 24.427 10.8034 24.7939 10.3632C24.9163 10.2164 25.0385 10.0941 25.1241 9.91064C25.381 9.39705 25.4544 8.67547 25.1487 8.03954C25.1119 8.68767 24.8428 9.18914 24.5616 9.48262C24.5127 9.53151 24.476 9.5682 24.4271 9.60495C24.158 9.80066 23.8645 9.99629 23.4487 10.4732Z"
        fill="#FFFF00"
    />
</svg>
