<svg xmlns="http://www.w3.org/2000/svg" width="40" height="40" viewBox="0 0 40 40" fill="none">
    <g clip-path="url(#clip0_28106_2524)">
        <rect y="0.000213623" width="40" height="20" fill="#D80027" />
        <rect y="20.0002" width="40" height="20" fill="#0052B4" />
        <path
            d="M40.0289 18.4199C38.4244 18.4576 38.3411 19.9421 36.6956 19.9421C35.0289 19.9421 35.0289 18.4176 33.3622 18.4176C31.6956 18.4176 31.6956 19.9421 30.0289 19.9421C28.3622 19.9421 28.3622 18.4176 26.6956 18.4176C25.0289 18.4176 25.0289 19.9421 23.3622 19.9421C21.6956 19.9421 21.6956 18.4176 20.0289 18.4176C18.3622 18.4176 18.3622 19.9421 16.6956 19.9421C15.0289 19.9421 15.0289 18.4176 13.3622 18.4176C11.6956 18.4176 11.6956 19.9421 10.0289 19.9421C8.36222 19.9421 8.36222 18.4176 6.69556 18.4176C5.02889 18.4176 5.02889 19.9421 3.36222 19.9421C1.71778 19.9421 1.60444 18.4576 0 18.4199L0 20.0002V21.0854C1.63667 21.1043 1.70556 22.6076 3.36222 22.6076C5.02889 22.6076 5.02889 21.0854 6.69556 21.0854C8.36222 21.0854 8.36222 22.6076 10.0289 22.6076C11.6956 22.6076 11.6956 21.0854 13.3622 21.0854C15.0289 21.0854 15.0289 22.6076 16.6956 22.6076C18.3622 22.6076 18.3622 21.0854 20.0289 21.0854C21.6956 21.0854 21.6956 22.6076 23.3622 22.6076C25.0289 22.6076 25.0289 21.0854 26.6956 21.0854C28.3622 21.0854 28.3622 22.6076 30.0289 22.6076C31.6956 22.6076 31.6956 21.0854 33.3622 21.0854C35.0289 21.0854 35.0289 22.6076 36.6956 22.6076C38.3511 22.6076 38.3622 21.1032 40 21.0854L40.0289 19.9999V18.4199Z"
            fill="#F0F0F0"
        />
        <path
            d="M40.0289 23.7025C38.4244 23.7403 38.3411 25.2248 36.6956 25.2248C35.0289 25.2248 35.0289 23.7003 33.3622 23.7003C31.6956 23.7003 31.6956 25.2248 30.0289 25.2248C28.3622 25.2248 28.3622 23.7003 26.6956 23.7003C25.0289 23.7003 25.0289 25.2248 23.3622 25.2248C21.6956 25.2248 21.6956 23.7003 20.0289 23.7003C18.3622 23.7003 18.3622 25.2248 16.6956 25.2248C15.0289 25.2248 15.0289 23.7003 13.3622 23.7003C11.6956 23.7003 11.6956 25.2248 10.0289 25.2248C8.36222 25.2248 8.36222 23.7003 6.69556 23.7003C5.02889 23.7003 5.02889 25.2248 3.36222 25.2248C1.71778 25.2248 1.60444 23.7403 0 23.7025L0 25.2829V26.3681C1.63667 26.387 1.70556 27.8903 3.36222 27.8903C5.02889 27.8903 5.02889 26.3681 6.69556 26.3681C8.36222 26.3681 8.36222 27.8903 10.0289 27.8903C11.6956 27.8903 11.6956 26.3681 13.3622 26.3681C15.0289 26.3681 15.0289 27.8903 16.6956 27.8903C18.3622 27.8903 18.3622 26.3681 20.0289 26.3681C21.6956 26.3681 21.6956 27.8903 23.3622 27.8903C25.0289 27.8903 25.0289 26.3681 26.6956 26.3681C28.3622 26.3681 28.3622 27.8903 30.0289 27.8903C31.6956 27.8903 31.6956 26.3681 33.3622 26.3681C35.0289 26.3681 35.0289 27.8903 36.6956 27.8903C38.3511 27.8903 38.3622 26.3859 40 26.3681L40.0289 25.2825V23.7025Z"
            fill="#F0F0F0"
        />
        <path
            d="M40.0289 28.8913C38.4244 28.9291 38.3411 30.4135 36.6956 30.4135C35.0289 30.4135 35.0289 28.8891 33.3622 28.8891C31.6956 28.8891 31.6956 30.4135 30.0289 30.4135C28.3622 30.4135 28.3622 28.8891 26.6956 28.8891C25.0289 28.8891 25.0289 30.4135 23.3622 30.4135C21.6956 30.4135 21.6956 28.8891 20.0289 28.8891C18.3622 28.8891 18.3622 30.4135 16.6956 30.4135C15.0289 30.4135 15.0289 28.8891 13.3622 28.8891C11.6956 28.8891 11.6956 30.4135 10.0289 30.4135C8.36222 30.4135 8.36222 28.8891 6.69556 28.8891C5.02889 28.8891 5.02889 30.4135 3.36222 30.4135C1.71778 30.4135 1.60444 28.9291 0 28.8913L0 30.4717V31.5569C1.63667 31.5758 1.70556 33.0791 3.36222 33.0791C5.02889 33.0791 5.02889 31.5569 6.69556 31.5569C8.36222 31.5569 8.36222 33.0791 10.0289 33.0791C11.6956 33.0791 11.6956 31.5569 13.3622 31.5569C15.0289 31.5569 15.0289 33.0791 16.6956 33.0791C18.3622 33.0791 18.3622 31.5569 20.0289 31.5569C21.6956 31.5569 21.6956 33.0791 23.3622 33.0791C25.0289 33.0791 25.0289 31.5569 26.6956 31.5569C28.3622 31.5569 28.3622 33.0791 30.0289 33.0791C31.6956 33.0791 31.6956 31.5569 33.3622 31.5569C35.0289 31.5569 35.0289 33.0791 36.6956 33.0791C38.3511 33.0791 38.3622 31.5747 40 31.5569L40.0289 30.4713V28.8913Z"
            fill="#F0F0F0"
        />
    </g>
    <defs>
        <clipPath id="clip0_28106_2524">
            <rect width="40" height="40" fill="white" />
        </clipPath>
    </defs>
</svg>
