<svg xmlns="http://www.w3.org/2000/svg" width="40" height="40" viewBox="0 0 40 40" fill="none">
    <rect width="40" height="40" fill="#F0F0F0" />
    <path
        d="M26.9564 20C26.9564 21.7391 23.8419 26.087 19.9999 26.087C16.158 26.087 13.0435 21.7391 13.0435 20C13.0435 16.158 16.158 13.0435 19.9999 13.0435C23.8419 13.0435 26.9564 16.158 26.9564 20Z"
        fill="#D80027"
    />
    <path
        d="M26.9564 20C26.9564 23.842 23.8419 26.9565 19.9999 26.9565C16.158 26.9565 13.0435 23.842 13.0435 20"
        fill="#0052B4"
    />
    <path d="M27.3783 26.1488L29.2229 24.3042L30.4526 25.534L28.608 27.3786L27.3783 26.1488Z" fill="black" />
    <path d="M24.3035 29.2234L26.1481 27.3788L27.3778 28.6085L25.5332 30.4531L24.3035 29.2234Z" fill="black" />
    <path d="M31.068 29.8373L32.9126 27.9927L34.1423 29.2224L32.2977 31.067L31.068 29.8373Z" fill="black" />
    <path d="M27.9933 32.9124L29.8379 31.0678L31.0676 32.2975L29.223 34.1421L27.9933 32.9124Z" fill="black" />
    <path d="M29.223 27.9932L31.0676 26.1486L32.2974 27.3783L30.4528 29.2229L29.223 27.9932Z" fill="black" />
    <path d="M26.1492 31.0677L27.9938 29.2232L29.2235 30.4529L27.3789 32.2975L26.1492 31.0677Z" fill="black" />
    <path d="M31.0686 13.8507L26.1497 8.93181L27.3794 7.70206L32.2983 12.621L31.0686 13.8507Z" fill="black" />
    <path d="M26.1495 12.6217L24.3049 10.7771L25.5346 9.54745L27.3792 11.392L26.1495 12.6217Z" fill="black" />
    <path d="M29.2234 15.6958L27.3788 13.8512L28.6085 12.6215L30.4531 14.4661L29.2234 15.6958Z" fill="black" />
    <path d="M29.8372 8.93246L27.9926 7.08787L29.2223 5.85813L31.0669 7.70272L29.8372 8.93246Z" fill="black" />
    <path d="M32.9127 12.0069L31.0681 10.1623L32.2979 8.93256L34.1425 10.7772L32.9127 12.0069Z" fill="black" />
    <path d="M7.08765 27.9936L12.0066 32.9125L10.7768 34.1423L5.8579 29.2233L7.08765 27.9936Z" fill="black" />
    <path d="M12.0062 29.2227L13.8508 31.0673L12.6211 32.297L10.7765 30.4524L12.0062 29.2227Z" fill="black" />
    <path d="M8.93213 26.1487L10.7767 27.9933L9.54697 29.2231L7.70238 27.3785L8.93213 26.1487Z" fill="black" />
    <path d="M10.7767 24.304L15.6957 29.2229L14.4659 30.4527L9.54699 25.5338L10.7767 24.304Z" fill="black" />
    <path d="M12.0065 7.08752L7.08754 12.0065L5.85779 10.7767L10.7767 5.85778L12.0065 7.08752Z" fill="black" />
    <path d="M13.8506 8.93167L8.93166 13.8506L7.70191 12.6209L12.6208 7.70192L13.8506 8.93167Z" fill="black" />
    <path d="M15.6963 10.7771L10.7774 15.696L9.54767 14.4663L14.4666 9.54741L15.6963 10.7771Z" fill="black" />
</svg>
