<svg xmlns="http://www.w3.org/2000/svg" width="40" height="40" viewBox="0 0 40 40" fill="none">
    <rect width="40" height="40" fill="#00A6C8" />
    <path
        d="M25.9777 16.5217L23.5352 17.6707L24.8359 20.0363L22.1835 19.5289L21.8474 22.2083L20 20.2375L18.1525 22.2083L17.8165 19.5289L15.1642 20.0361L16.4648 17.6706L14.0223 16.5217L16.4649 15.3728L15.1642 13.0072L17.8164 13.5146L18.1526 10.8352L20 12.8059L21.8475 10.8352L22.1835 13.5146L24.8359 13.0072L23.5352 15.3729L25.9777 16.5217Z"
        fill="#FFDA44"
    />
    <path
        d="M20.2279 24.1707C23.8921 24.1707 26.8625 21.2003 26.8625 17.5361C26.8625 13.872 23.8921 10.9016 20.2279 10.9016C16.5637 10.9016 13.5933 13.872 13.5933 17.5361C13.5933 21.2003 16.5637 24.1707 20.2279 24.1707Z"
        fill="#FFEC2D"
    />
    <path
        d="M20.228 9.99677C20.6224 9.99184 20.7704 9.74529 20.7704 9.44943C20.7704 9.05496 20.228 7.17627 20.228 7.17627C20.228 7.17627 19.6855 9.05496 19.6855 9.44943C19.6855 9.74529 19.8335 9.99677 20.228 9.99677Z"
        fill="#FFEC2D"
    />
    <path
        d="M27.7673 17.5362C27.7723 17.9307 28.0188 18.0786 28.3147 18.0786C28.7091 18.0786 30.5878 17.5362 30.5878 17.5362C30.5878 17.5362 28.7091 16.9938 28.3147 16.9938C28.0188 16.9938 27.7673 17.1417 27.7673 17.5362Z"
        fill="#FFEC2D"
    />
    <path
        d="M20.2279 25.0756C19.8334 25.0805 19.6855 25.327 19.6855 25.6229C19.6855 26.0174 20.2279 27.8961 20.2279 27.8961C20.2279 27.8961 20.7703 26.0174 20.7703 25.6229C20.7703 25.327 20.6224 25.0756 20.2279 25.0756Z"
        fill="#FFEC2D"
    />
    <path
        d="M12.6885 17.5361C12.6836 17.1417 12.437 16.9937 12.1411 16.9937C11.7467 16.9937 9.86798 17.5361 9.86798 17.5361C9.86798 17.5361 11.7467 18.0786 12.1411 18.0786C12.437 18.0786 12.6885 17.9306 12.6885 17.5361Z"
        fill="#FFEC2D"
    />
    <path
        d="M23.1131 10.5706C23.4794 10.717 23.7105 10.5459 23.8237 10.2725C23.9746 9.90809 24.1925 7.96484 24.1925 7.96484C24.1925 7.96484 22.9724 9.49296 22.8214 9.8574C22.7082 10.1307 22.7487 10.4197 23.1131 10.5706Z"
        fill="#FFEC2D"
    />
    <path
        d="M27.1934 20.4213C27.047 20.7877 27.2182 21.0187 27.4915 21.1319C27.856 21.2829 29.7992 21.5007 29.7992 21.5007C29.7992 21.5007 28.2711 20.2806 27.9066 20.1297C27.6333 20.0165 27.3444 20.0569 27.1934 20.4213Z"
        fill="#FFEC2D"
    />
    <path
        d="M17.3427 24.5016C16.9764 24.3552 16.7454 24.5264 16.6321 24.7997C16.4812 25.1642 16.2633 27.1074 16.2633 27.1074C16.2633 27.1074 17.4834 25.5793 17.6344 25.2149C17.7476 24.9415 17.7072 24.6526 17.3427 24.5016Z"
        fill="#FFEC2D"
    />
    <path
        d="M13.2624 14.651C13.4088 14.2847 13.2376 14.0537 12.9643 13.9405C12.5999 13.7895 10.6566 13.5717 10.6566 13.5717C10.6566 13.5717 12.1847 14.7917 12.5492 14.9427C12.8225 15.0559 13.1114 15.0155 13.2624 14.651Z"
        fill="#FFEC2D"
    />
    <path
        d="M25.5591 12.205C25.8415 12.4804 26.1204 12.4107 26.3296 12.2015C26.6086 11.9225 27.5535 10.2106 27.5535 10.2106C27.5535 10.2106 25.8415 11.1555 25.5626 11.4344C25.3533 11.6436 25.2801 11.926 25.5591 12.205Z"
        fill="#FFEC2D"
    />
    <path
        d="M25.5591 22.8673C25.2836 23.1497 25.3534 23.4287 25.5626 23.6379C25.8415 23.9168 27.5535 24.8617 27.5535 24.8617C27.5535 24.8617 26.6086 23.1497 26.3296 22.8708C26.1204 22.6616 25.838 22.5884 25.5591 22.8673Z"
        fill="#FFEC2D"
    />
    <path
        d="M14.8967 22.8673C14.6143 22.5919 14.3354 22.6616 14.1262 22.8708C13.8472 23.1497 12.9024 24.8617 12.9024 24.8617C12.9024 24.8617 14.6143 23.9168 14.8933 23.6379C15.1025 23.4287 15.1757 23.1462 14.8967 22.8673Z"
        fill="#FFEC2D"
    />
    <path
        d="M14.8967 12.205C15.1722 11.9226 15.1024 11.6436 14.8932 11.4344C14.6143 11.1555 12.9023 10.2106 12.9023 10.2106C12.9023 10.2106 13.8472 11.9226 14.1262 12.2015C14.3354 12.4107 14.6178 12.4839 14.8967 12.205Z"
        fill="#FFEC2D"
    />
    <path
        d="M27.1934 14.651C27.3489 15.0136 27.6333 15.0559 27.9066 14.9427C28.2711 14.7917 29.7992 13.5717 29.7992 13.5717C29.7992 13.5717 27.8559 13.7895 27.4915 13.9404C27.2181 14.0537 27.0424 14.2866 27.1934 14.651Z"
        fill="#FFEC2D"
    />
    <path
        d="M23.1131 24.5016C22.7505 24.6571 22.7082 24.9415 22.8214 25.2148C22.9724 25.5793 24.1924 27.1074 24.1924 27.1074C24.1924 27.1074 23.9746 25.1642 23.8236 24.7997C23.7104 24.5264 23.4775 24.3506 23.1131 24.5016Z"
        fill="#FFEC2D"
    />
    <path
        d="M13.2624 20.4213C13.1069 20.0587 12.8225 20.0164 12.5492 20.1296C12.1847 20.2806 10.6566 21.5007 10.6566 21.5007C10.6566 21.5007 12.5999 21.2828 12.9643 21.1319C13.2377 21.0186 13.4134 20.7857 13.2624 20.4213Z"
        fill="#FFEC2D"
    />
    <path
        d="M17.3427 10.5707C17.7052 10.4151 17.7476 10.1308 17.6343 9.8574C17.4834 9.49295 16.2633 7.96484 16.2633 7.96484C16.2633 7.96484 16.4812 9.90809 16.6321 10.2726C16.7453 10.5459 16.9782 10.7216 17.3427 10.5707Z"
        fill="#FFEC2D"
    />
    <path
        d="M21.6988 10.1416C22.0866 10.2137 22.2798 10.0008 22.3375 9.71054C22.4145 9.32365 22.249 7.37524 22.249 7.37524C22.249 7.37524 21.3505 9.11201 21.2736 9.49891C21.2158 9.78908 21.3119 10.0646 21.6988 10.1416Z"
        fill="#FFEC2D"
    />
    <path
        d="M27.6224 19.007C27.5503 19.3949 27.7633 19.588 28.0534 19.6458C28.4403 19.7227 30.3888 19.5573 30.3888 19.5573C30.3888 19.5573 28.652 18.6588 28.2651 18.5818C27.9749 18.5241 27.6994 18.6201 27.6224 19.007Z"
        fill="#FFEC2D"
    />
    <path
        d="M18.757 24.9308C18.3692 24.8587 18.176 25.0716 18.1183 25.3618C18.0413 25.7487 18.2068 27.6971 18.2068 27.6971C18.2068 27.6971 19.1053 25.9603 19.1822 25.5734C19.24 25.2832 19.1439 25.0077 18.757 24.9308Z"
        fill="#FFEC2D"
    />
    <path
        d="M12.8333 16.0654C12.9054 15.6775 12.6925 15.4843 12.4023 15.4266C12.0154 15.3496 10.067 15.5151 10.067 15.5151C10.067 15.5151 11.8038 16.4136 12.1907 16.4906C12.4808 16.5483 12.7563 16.4523 12.8333 16.0654Z"
        fill="#FFEC2D"
    />
    <path
        d="M24.4166 11.2675C24.7473 11.4825 25.0073 11.3597 25.1717 11.1137C25.3908 10.7857 25.9836 8.92224 25.9836 8.92224C25.9836 8.92224 24.4888 10.183 24.2697 10.511C24.1053 10.757 24.0886 11.0483 24.4166 11.2675Z"
        fill="#FFEC2D"
    />
    <path
        d="M26.4967 21.7248C26.2816 22.0556 26.4044 22.3155 26.6504 22.4799C26.9784 22.6991 28.8418 23.2918 28.8418 23.2918C28.8418 23.2918 27.5811 21.7971 27.2531 21.5779C27.0071 21.4135 26.7158 21.3968 26.4967 21.7248Z"
        fill="#FFEC2D"
    />
    <path
        d="M16.0393 23.8048C15.7085 23.5898 15.4486 23.7126 15.2842 23.9586C15.065 24.2866 14.4723 26.15 14.4723 26.15C14.4723 26.15 15.967 24.8892 16.1862 24.5612C16.3506 24.3153 16.3673 24.024 16.0393 23.8048Z"
        fill="#FFEC2D"
    />
    <path
        d="M13.9591 13.3475C14.1742 13.0168 14.0514 12.7568 13.8054 12.5924C13.4774 12.3733 11.614 11.7805 11.614 11.7805C11.614 11.7805 12.8747 13.2753 13.2027 13.4944C13.4487 13.6588 13.74 13.6755 13.9591 13.3475Z"
        fill="#FFEC2D"
    />
    <path
        d="M26.4967 13.3474C26.72 13.6727 27.0072 13.6587 27.2531 13.4944C27.5811 13.2752 28.8419 11.7805 28.8419 11.7805C28.8419 11.7805 26.9785 12.3732 26.6505 12.5924C26.4045 12.7567 26.2776 13.0195 26.4967 13.3474Z"
        fill="#FFEC2D"
    />
    <path
        d="M24.4166 23.805C24.0913 24.0283 24.1053 24.3155 24.2697 24.5615C24.4888 24.8895 25.9836 26.1502 25.9836 26.1502C25.9836 26.1502 25.3908 24.2868 25.1717 23.9588C25.0073 23.7128 24.7446 23.5859 24.4166 23.805Z"
        fill="#FFEC2D"
    />
    <path
        d="M13.9591 21.7249C13.7358 21.3997 13.4487 21.4136 13.2027 21.578C12.8747 21.7972 11.6139 23.2919 11.6139 23.2919C11.6139 23.2919 13.4774 22.6992 13.8054 22.48C14.0513 22.3156 14.1783 22.0529 13.9591 21.7249Z"
        fill="#FFEC2D"
    />
    <path
        d="M16.0392 11.2672C16.3645 11.044 16.3505 10.7568 16.1861 10.5108C15.967 10.1828 14.4722 8.92212 14.4722 8.92212C14.4722 8.92212 15.065 10.7855 15.2841 11.1135C15.4485 11.3595 15.7112 11.4864 16.0392 11.2672Z"
        fill="#FFEC2D"
    />
    <path
        d="M27.6225 16.0654C27.7043 16.4513 27.9749 16.5483 28.2651 16.4906C28.652 16.4136 30.3888 15.5151 30.3888 15.5151C30.3888 15.5151 28.4404 15.3496 28.0535 15.4266C27.7633 15.4843 27.5455 15.6785 27.6225 16.0654Z"
        fill="#FFEC2D"
    />
    <path
        d="M21.6988 24.9307C21.3128 25.0125 21.2159 25.2832 21.2736 25.5733C21.3505 25.9602 22.249 27.697 22.249 27.697C22.249 27.697 22.4145 25.7486 22.3375 25.3617C22.2798 25.0715 22.0857 24.8537 21.6988 24.9307Z"
        fill="#FFEC2D"
    />
    <path
        d="M12.8333 19.007C12.7515 18.6211 12.4809 18.5241 12.1907 18.5818C11.8038 18.6588 10.067 19.5573 10.067 19.5573C10.067 19.5573 12.0154 19.7227 12.4023 19.6458C12.6925 19.588 12.9103 19.3939 12.8333 19.007Z"
        fill="#FFEC2D"
    />
    <path
        d="M18.757 10.1416C19.143 10.0598 19.24 9.78908 19.1822 9.49891C19.1053 9.11201 18.2068 7.37524 18.2068 7.37524C18.2068 7.37524 18.0413 9.32365 18.1183 9.71055C18.176 10.0007 18.3701 10.2185 18.757 10.1416Z"
        fill="#FFEC2D"
    />
    <path
        d="M19.0442 31.9082C18.8667 31.9181 18.6941 31.941 18.5248 31.9953C18.293 32.0265 18.0711 32.1071 17.8411 32.1449L17.749 32.1597L17.5945 32.1745C17.6044 32.2172 17.6109 32.2599 17.6109 32.3027C17.6109 32.3471 17.606 32.3898 17.5945 32.426C17.5846 32.4605 17.5534 32.5032 17.5287 32.5295C17.4959 32.5656 17.4614 32.5969 17.4203 32.6166C17.3808 32.6363 17.3364 32.6445 17.292 32.6478C17.2477 32.6495 17.2017 32.6478 17.1589 32.6314C17.1145 32.6166 17.0735 32.5887 17.0356 32.5558C16.9902 32.567 16.9441 32.5753 16.8976 32.5804C16.8516 32.5854 16.8088 32.5854 16.7677 32.5804C16.7217 32.5673 16.6741 32.5525 16.6297 32.5344C16.585 32.5159 16.5421 32.4933 16.5015 32.467C16.3338 32.5656 16.1464 32.6593 16.0445 32.8319C15.987 32.9108 15.9755 33.0012 15.9624 33.0949C15.9541 33.21 15.9837 33.3316 16.033 33.4384C16.0511 33.4696 16.0659 33.325 16.1218 33.3053C16.2155 33.228 16.3322 33.1722 16.4505 33.1409C16.5508 33.09 16.5376 33.1442 16.4965 33.2231C16.4867 33.2642 16.4308 33.4203 16.5064 33.3414C16.8401 33.1935 17.2099 33.1639 17.5699 33.136C18.0925 33.0818 18.6168 33.0702 19.1412 33.0637L20.6204 33.0949C20.8555 33.1015 21.0922 33.1541 21.3239 33.1146C21.3798 33.0998 21.4669 33.0966 21.4998 33.0637C21.3946 33.0029 21.2713 33.0012 21.1547 32.9864H20.2145C19.9531 32.9601 19.6803 32.9568 19.4338 32.8582C19.368 32.8319 19.3072 32.7694 19.2447 32.8368C19.151 32.8697 19.0508 32.8927 18.9521 32.8993C18.7796 32.9124 18.607 32.8763 18.4476 32.8122C18.5626 32.6528 18.7007 32.513 18.8272 32.3651C18.7253 32.3487 18.6267 32.3273 18.5248 32.3027C18.704 32.1794 18.87 32.0397 19.0442 31.9082Z"
        fill="#FFEC2D"
    />
    <path
        d="M26.7234 33.6115C26.3661 33.826 26.0934 33.4457 25.7948 33.3317C25.5816 33.4475 25.5616 33.835 25.3624 34.0186C25.124 34.2899 24.8318 33.9428 24.8536 33.6751C24.5684 33.9155 24.4243 34.4602 23.9632 34.3874C23.7447 34.2092 23.5825 33.8351 23.4155 34.261C23.2794 34.4692 22.917 34.7655 22.7294 34.4511C22.6713 34.1734 22.5321 33.847 22.3811 34.2879C22.2774 34.5998 21.9447 34.8293 21.6228 34.6927C21.4465 34.5486 21.764 34.0159 21.5397 34.0538C21.2044 34.2754 21.0095 34.8259 20.5416 34.7818C20.3599 34.5778 20.6518 34.2323 20.4525 34.0059C20.2173 34.3078 19.9563 34.7499 19.5494 34.7818C19.3528 34.6224 19.5572 34.1654 19.4316 34.0977C19.0141 34.3481 18.5736 34.7944 18.0485 34.6546C18.2531 33.8719 19.1081 33.5973 19.8272 33.5363C21.0643 33.3842 22.3658 33.6638 23.5562 33.2172C23.7485 33.1002 24.2145 32.9343 24.0485 32.6629C23.9016 32.4485 24.4308 32.5323 24.4817 32.282C24.4502 31.9649 24.7247 32.0086 24.9928 31.9808C26.1947 31.9289 27.382 32.1821 28.5804 32.2251C28.6709 32.809 28.0232 33.219 27.5017 33.0387C27.2526 33.0791 26.8791 32.466 26.9523 32.912C26.9021 33.1461 26.9373 33.4552 26.7234 33.6115ZM16.4966 32.416C16.7748 32.6706 16.97 32.368 17.2301 32.2574C18.1024 31.9573 18.8636 31.433 19.614 30.9091C20.0686 30.5328 20.4628 30.0449 21.0734 29.9229C22.2645 29.5628 23.5306 29.6065 24.7262 29.2741C25.6367 28.0276 27.1831 27.5828 28.4785 26.8663C28.7694 26.7759 28.8818 26.5365 28.9747 26.2722C29.4692 25.4917 30.1428 24.8 30.9394 24.3275C31.3163 24.1216 31.766 24.003 32.1928 24.0972C32.1622 24.6054 31.8706 25.0558 31.5186 25.4073C31.8067 25.401 32.0543 25.219 32.3454 25.2293C32.4451 25.7509 31.8819 26.0238 31.5822 26.3486C31.7491 26.3874 32.3885 26.4358 32.0401 26.603C31.596 26.9112 31.0889 27.1227 30.679 27.4806C31.0572 27.5486 31.1003 27.6289 30.7158 27.7657C30.5076 27.9069 30.1072 27.9562 30.0685 28.2311C30.3542 28.4067 29.9369 28.581 29.776 28.6381C29.4682 28.7098 29.1449 28.8435 29.5537 29.0773C29.3991 29.3109 29.0673 29.3608 28.7965 29.3377C28.8787 29.6025 28.9976 29.8988 28.6539 30.0156C27.8835 30.5979 26.9794 31.0216 26.0109 31.1185C27.2207 31.2115 28.4669 30.9869 29.5007 30.329C29.6372 30.1676 30.3528 29.9942 29.9525 29.8585C29.7641 29.7801 29.36 29.6929 29.3327 29.5493C29.8926 29.2038 30.5982 29.3267 31.2006 29.1214C31.2161 28.9264 30.7424 28.9807 30.5658 28.9363C30.1445 28.9018 30.1692 28.7943 30.5754 28.7544C31.0893 28.6183 31.6713 28.5916 32.1036 28.2565C31.7516 28.0934 31.3089 28.237 30.9334 28.1038C31.57 27.8253 32.3211 27.7973 32.8923 27.3788C33.1525 27.0894 32.5589 27.1798 32.386 27.1868C32.0334 27.2482 31.8704 27.0794 32.271 26.9329C32.9549 26.4287 33.821 26.1011 34.3014 25.37C34.4152 25.2063 34.5693 24.7132 34.2063 24.8906C33.729 25.0493 33.309 25.5859 32.7651 25.4199C33.8367 24.5894 34.8565 23.6438 35.5889 22.4944C35.6268 22.1629 35.1064 22.1271 34.971 22.3873C34.2825 23.0507 33.6593 23.8338 32.7778 24.2497C33.6221 23.4349 34.32 22.47 34.929 21.4701C35.0596 21.1726 35.4105 20.8149 35.22 20.4847C34.9131 20.2306 34.5291 20.4632 34.3695 20.7672C33.8343 21.466 33.4279 22.2815 32.7397 22.8506C33.3422 21.7006 33.966 20.4765 33.9813 19.1501C33.9794 18.877 33.9246 18.4748 33.5538 18.5258C33.2598 18.5785 33.3296 19.0185 33.2084 19.2411C32.9416 20.1472 32.8163 21.1286 32.2691 21.922C32.3922 21.1857 32.6076 20.4181 32.4422 19.6745C32.365 19.3422 31.8283 19.4852 31.8975 19.814C31.2563 23.0616 29.0773 25.9018 26.2274 27.5448C24.9224 28.2831 23.4649 28.7591 21.982 28.9749C21.5831 29.0622 21.1516 29.0109 20.7704 29.1469C19.8465 29.8554 19.2872 31.0408 18.1174 31.412C17.5932 31.6725 16.9096 31.7254 16.5347 32.2124C16.5023 32.2747 16.4953 32.3469 16.4966 32.416Z"
        fill="#FFEC2D"
    />
    <path
        d="M19.9976 29.1215C19.825 29.4348 19.7234 29.795 19.5015 30.0755C18.8338 29.4679 17.8659 29.488 17.0189 29.4476C16.3199 29.4102 15.5597 29.3457 15.0188 28.8472C14.4498 28.3811 13.9854 27.776 13.3496 27.3978C12.7692 27.24 12.1842 27.0426 11.7177 26.6448C10.7206 25.8321 10.1496 24.6262 9.17537 23.7882C8.98962 23.6053 8.77058 23.4637 8.5625 23.3085C8.36477 23.3567 8.45426 23.7834 8.2123 23.5659C8.08065 23.4723 7.75136 23.4631 7.72167 23.594C8.01955 23.9865 8.31773 24.4347 8.359 24.9367C8.15584 24.9575 7.79465 24.8938 7.69396 24.9694C7.96373 25.3738 8.30954 25.7324 8.70244 26.0179C8.51398 26.0482 8.14263 26.0317 8.07039 26.1076C8.46038 26.4255 8.87857 26.7503 9.38927 26.832C9.49381 26.9698 9.23641 27.2358 9.45288 27.3535C9.57837 27.4048 9.99252 27.4906 9.70727 27.6333C9.51151 27.7652 9.58414 28.0727 9.83449 28.0658C9.99277 28.1466 10.3481 28.1664 10.376 28.3064C10.2357 28.4492 9.79913 28.6184 10.1707 28.7522C10.5178 28.9447 10.9136 29.0697 11.31 29.0834C11.1111 29.2507 10.866 29.3457 10.6613 29.5031C11.5759 30.0395 12.5899 30.3922 13.5919 30.7319C13.9908 30.8652 14.3943 30.9894 14.8078 31.0677C13.6063 30.9983 12.4449 30.6426 11.3505 30.1557C10.7833 29.9069 10.2122 29.6666 9.63094 29.4523C9.88582 29.3197 10.1806 29.2873 10.445 29.1725C9.89627 29.0625 9.29681 29.0265 8.81447 28.7249C8.88843 28.5929 9.16866 28.5867 9.32364 28.5196C9.61511 28.4497 9.79593 28.365 9.38493 28.3397C8.97049 28.2272 8.49514 28.2777 8.12991 28.0277C8.15343 27.8778 8.53567 27.93 8.69134 27.8653C8.8874 27.8316 9.10534 27.8034 9.262 27.6715C8.62127 27.4059 7.78321 27.5941 7.28134 27.0283C7.16561 26.8127 7.64076 26.9863 7.77606 26.9504C8.1199 26.9504 8.48942 27.0597 8.81684 26.9211C7.88321 26.5111 6.88317 26.1274 6.17114 25.3692C6.0921 25.2473 5.85521 24.9144 6.04634 24.8732C6.60052 24.9465 7.00166 25.5513 7.59445 25.4572C7.6732 25.351 7.25008 25.1771 7.14446 25.0254C6.28016 24.2837 5.44131 23.4788 4.83554 22.5073C4.79388 22.1829 5.30384 22.1343 5.43811 22.3848C6.0991 23.0215 6.69618 23.7644 7.51946 24.199C7.81156 24.3406 7.35171 24.0313 7.29046 23.9191C6.52977 23.0358 5.80561 22.1029 5.27395 21.0626C5.17879 20.8751 5.02109 20.5356 5.30581 20.4358C5.59047 20.2932 5.87292 20.4875 6.01724 20.732C6.57651 21.4374 6.98805 22.2758 7.68474 22.8634C7.0912 21.7116 6.45748 20.4991 6.44214 19.1737C6.4561 18.9168 6.47262 18.5281 6.82104 18.5387C7.11359 18.4943 7.06739 18.8689 7.16324 19.0475C7.45151 20.0212 7.5772 21.0751 8.15545 21.9348C8.02774 21.2125 7.83972 20.4686 7.96462 19.7343C7.99342 19.4932 8.26487 19.4202 8.44204 19.566C8.58528 19.9166 8.61511 20.3495 8.74563 20.7243C9.48823 23.2647 11.1556 25.499 13.3285 26.9984C15.118 28.2258 17.2418 28.9585 19.4093 29.0862C19.6051 29.1033 19.8015 29.1095 19.9976 29.1215Z"
        fill="#FFEC2D"
    />
    <path
        d="M17.246 32.4894C17.3105 32.4894 17.3628 32.4372 17.3628 32.3727C17.3628 32.3082 17.3105 32.256 17.246 32.256C17.1816 32.256 17.1293 32.3082 17.1293 32.3727C17.1293 32.4372 17.1816 32.4894 17.246 32.4894Z"
        fill="#FFEC2D"
    />
    <path
        d="M17.2362 32.4016C17.2625 32.4016 17.2838 32.3803 17.2838 32.354C17.2838 32.3277 17.2625 32.3064 17.2362 32.3064C17.2099 32.3064 17.1886 32.3277 17.1886 32.354C17.1886 32.3803 17.2099 32.4016 17.2362 32.4016Z"
        fill="#FFEC2D"
        stroke="#FFEC2D"
        stroke-width="0.1905"
    />
</svg>
