<svg xmlns="http://www.w3.org/2000/svg" width="41" height="40" viewBox="0 0 41 40" fill="none">
    <rect x="17.7778" y="3.33337" width="22.2222" height="33.3333" fill="#8D153A" />
    <rect y="3.33337" width="7.22222" height="33.3333" fill="#6DA544" />
    <rect x="14.4445" y="3.33337" width="3.33333" height="33.3333" fill="#FFDA44" />
    <rect x="7.22223" y="3.33337" width="7.22222" height="33.3333" fill="#FF9811" />
    <rect width="40" height="3.33333" fill="#FFDA44" />
    <rect y="36.6666" width="40" height="3.33333" fill="#FFDA44" />
    <path d="M32.2018 12.1687V12.6681L32.2282 12.6709L32.2018 12.1687Z" fill="#FFDA44" />
    <rect x="20" y="6.66663" width="20" height="26.6667" fill="#FFDA44" />
    <path
        d="M38.409 25.1681H34.6481L33.0571 26.9039V30.3754H29.5856V28.6397H31.3213V25.1681H23.5105V27.3378H21.7747V23.2028C21.2422 22.7261 20.9069 22.0336 20.9069 21.2627V9.98047C20.9069 8.54257 22.0726 7.37688 23.5105 7.37688V23.4325H26.982L28.1731 22.4398C27.9651 21.9443 27.8498 21.4001 27.8498 20.8289V18.2253H25.2462V13.0181H30.4534C30.4534 12.1503 31.7552 11.2824 31.7552 11.2824C31.7552 11.2824 33.0571 12.1502 33.0571 13.0181V14.32V18.2254C34.0226 18.2368 35.5566 18.2118 37.2139 18.2254C38.409 18.2253 39.0955 18.3384 39.4444 17.7781C39.4444 17.7781 39.5031 16.5087 40.5555 15.5559L40 6.66699H18.3333V34.4448H35.5555H40V30.3754H37.7778V28.6397H39.0955V25.9172L38.409 25.1681Z"
        fill="#8D153A"
    />
</svg>
