<svg xmlns="http://www.w3.org/2000/svg" width="40" height="40" viewBox="0 0 40 40" fill="none">
    <path
        fill-rule="evenodd"
        clip-rule="evenodd"
        d="M20 40C31.0457 40 40 31.0457 40 20C40 8.9543 31.0457 0 20 0C8.9543 0 0 8.9543 0 20C0 31.0457 8.9543 40 20 40Z"
        fill="#D8D8D8"
    />
    <rect width="40" height="40" fill="#0052B4" />
    <path
        d="M26.8273 12.6905C26.8273 12.4245 27.0434 12.2084 27.3094 12.2084H28.3426C29.9757 12.2084 31.3044 10.8798 31.3044 9.24671C31.3044 7.61367 29.9758 6.28499 28.3426 6.28499H27.3615C27.0412 6.04445 26.6116 5.89609 26.1377 5.89609C25.1492 5.89609 24.3479 6.5371 24.3479 7.32788C24.3479 8.11101 25.1339 8.74632 26.1092 8.75867L26.1087 8.76437H28.3426C28.6086 8.76437 28.8248 8.98062 28.8248 9.24656C28.8248 9.51249 28.6086 9.72867 28.3426 9.72867H27.3094C25.6763 9.72867 24.3478 11.0573 24.3478 12.6903C24.3478 14.3234 25.6762 15.652 27.3094 15.652H31.3043V13.1725H27.3094C27.0434 13.1726 26.8273 12.9564 26.8273 12.6905Z"
        fill="#F0F0F0"
    />
    <path
        d="M11.1752 12.6905C11.1752 12.4245 11.3913 12.2084 11.6574 12.2084H12.6905C14.3236 12.2084 15.6523 10.8798 15.6523 9.24671C15.6523 7.61367 14.3237 6.28499 12.6905 6.28499H11.7094C11.3892 6.04445 10.9596 5.89609 10.4856 5.89609C9.49713 5.89609 8.6958 6.5371 8.6958 7.32788C8.6958 8.11101 9.48182 8.74632 10.4571 8.75867L10.4567 8.76437H12.6906C12.9566 8.76437 13.1728 8.98062 13.1728 9.24656C13.1728 9.51249 12.9566 9.72867 12.6906 9.72867H11.6574C10.0243 9.72867 8.6958 11.0573 8.6958 12.6903C8.6958 14.3234 10.0242 15.652 11.6574 15.652H15.6522V13.1725H11.6574C11.3913 13.1726 11.1752 12.9564 11.1752 12.6905Z"
        fill="#F0F0F0"
    />
    <path
        d="M26.8273 31.1422C26.8273 30.8762 27.0435 30.6601 27.3095 30.6601H28.3426C29.9757 30.6601 31.3044 29.3315 31.3044 27.6984C31.3044 26.0654 29.9758 24.7367 28.3426 24.7367H27.3615C27.0413 24.4962 26.6117 24.3478 26.1377 24.3478C25.1492 24.3478 24.3478 24.9889 24.3478 25.7796C24.3478 26.5627 25.1338 27.198 26.1092 27.2104L26.1087 27.2161H28.3425C28.6085 27.2161 28.8247 27.4323 28.8247 27.6983C28.8247 27.9642 28.6085 28.1804 28.3425 28.1804H27.3094C25.6763 28.1804 24.3477 29.509 24.3477 31.142C24.3477 32.7751 25.6762 34.1037 27.3094 34.1037H31.3043V31.6243H27.3095C27.0435 31.6244 26.8273 31.408 26.8273 31.1422Z"
        fill="#F0F0F0"
    />
    <path
        d="M11.1752 31.1422C11.1752 30.8762 11.3913 30.6601 11.6573 30.6601H12.6905C14.3236 30.6601 15.6523 29.3315 15.6523 27.6984C15.6523 26.0654 14.3237 24.7367 12.6905 24.7367H11.7094C11.3891 24.4962 10.9595 24.3478 10.4856 24.3478C9.49704 24.3478 8.69571 24.9889 8.69571 25.7796C8.69571 26.5627 9.48172 27.198 10.457 27.2104L10.4566 27.2161H12.6905C12.9565 27.2161 13.1727 27.4323 13.1727 27.6983C13.1727 27.9642 12.9565 28.1804 12.6905 28.1804H11.6573C10.0242 28.1804 8.69571 29.509 8.69571 31.142C8.69571 32.7751 10.0241 34.1037 11.6573 34.1037H15.6522V31.6243H11.6573C11.3913 31.6244 11.1752 31.408 11.1752 31.1422Z"
        fill="#F0F0F0"
    />
    <path
        d="M40 17.3691H22.6311L22.631 0H17.3691V17.3689L0 17.369V22.6309H17.3689L17.369 40H22.6309V22.6311L40 22.631V17.3691Z"
        fill="#F0F0F0"
    />
</svg>
