<svg xmlns="http://www.w3.org/2000/svg" width="40" height="40" viewBox="0 0 40 40" fill="none">
    <rect x="6.10351e-05" y="13.3334" width="39.9999" height="13.3333" fill="#3D3D3D" />
    <rect x="6.10351e-05" width="39.9999" height="13.3333" fill="#006C35" />
    <rect x="6.10351e-05" y="12.2221" width="39.9999" height="2.22222" fill="#F0F0F0" />
    <rect x="6.10351e-05" y="26.6666" width="39.9999" height="13.3333" fill="#FFDA44" />
    <rect x="6.10351e-05" y="25.5555" width="39.9999" height="2.22222" fill="#F0F0F0" />
    <path d="M0 0L5.07301e-05 39.9999L20 19.9999L0 0Z" fill="#A2001D" />
    <path
        d="M8.0945 14.7824L9.38894 18.7669H13.58L10.1912 21.2302L11.4856 25.2158L8.09672 22.7524L4.70783 25.2158L6.00005 21.2313L2.61117 18.768H6.80005L8.0945 14.7824Z"
        fill="#FFDA44"
    />
    <path d="M4.3056 20H11.8856V23.4777H4.3056V20Z" fill="#F0F0F0" />
    <path
        d="M13.32 16.0113L12.09 14.7813L8.09447 18.778L4.10003 14.7825L2.86892 16.0113L6.86892 20.0036L2.86892 24.0036L4.09892 25.2169L8.09447 21.2169L12.09 25.2169L13.32 24.0036L9.32002 20.0036L13.32 16.0113Z"
        fill="#3D3D3D"
    />
</svg>
