<svg xmlns="http://www.w3.org/2000/svg" width="40" height="40" viewBox="0 0 40 40" fill="none">
    <g clip-path="url(#clip0_28106_2530)">
        <rect y="13.3333" width="40" height="13.3333" fill="#3D3D3D" />
        <rect width="40" height="13.3333" fill="#006C35" />
        <rect y="12.2222" width="40" height="2.22222" fill="#F0F0F0" />
        <rect y="26.6667" width="40" height="13.3333" fill="#FFDA44" />
        <rect y="25.5555" width="40" height="2.22222" fill="#F0F0F0" />
        <path d="M-0.00012207 0L-7.13401e-05 40L19.9999 20L-0.00012207 0Z" fill="#A2001D" />
        <path
            d="M8.09442 14.7824L9.38886 18.7669H13.58L10.1911 21.2302L11.4855 25.2158L8.09664 22.7524L4.70775 25.2158L5.99997 21.2313L2.61108 18.768H6.79997L8.09442 14.7824Z"
            fill="#FFDA44"
        />
        <path d="M4.30554 20H11.8855V23.4778H4.30554V20Z" fill="#F0F0F0" />
        <path
            d="M13.32 16.0113L12.09 14.7813L8.09445 18.778L4.10001 14.7825L2.8689 16.0113L6.8689 20.0036L2.8689 24.0036L4.0989 25.2169L8.09445 21.2169L12.09 25.2169L13.32 24.0036L9.32001 20.0036L13.32 16.0113Z"
            fill="#3D3D3D"
        />
    </g>
    <defs>
        <clipPath id="clip0_28106_2530">
            <rect width="40" height="40" fill="white" />
        </clipPath>
    </defs>
</svg>
