<svg xmlns="http://www.w3.org/2000/svg" width="40" height="40" viewBox="0 0 40 40" fill="none">
    <rect width="40" height="40" fill="#FFDA44" />
    <rect width="20" height="20" fill="#0052B4" />
    <path fill-rule="evenodd" clip-rule="evenodd" d="M0 0H8H16H20V3V8L13 8L20 15V20H17L10 13V20H0V0Z" fill="#F0F0F0" />
    <path
        fill-rule="evenodd"
        clip-rule="evenodd"
        d="M8 0H3V3H0V8H3V20H8V8H20V3H8V0ZM20 16.5845L12.8943 9.49268C12.8943 9.49268 10.4348 9.49283 10.4348 9.49268V9.49283L19.9999 19.0392H20V16.5845Z"
        fill="#D80027"
    />
    <path
        d="M14.4348 4L14.8665 5.32593H16.2634L15.1333 6.1455L15.5648 7.47142L14.4348 6.65193L13.3048 7.47142L13.7362 6.1455L12.6061 5.32593H14.003L14.4348 4Z"
        fill="#FFDA44"
    />
    <path
        d="M5.50015 1L6.32644 3.67368H9L6.83708 5.32632L7.66292 8L5.50015 6.34752L3.33723 8L4.16292 5.32632L2 3.67368H4.67371L5.50015 1Z"
        fill="#FFDA44"
    />
    <path
        d="M5.82867 12.6787L6.26039 14.0046H7.65727L6.52727 14.8243L6.95875 16.1502L5.82867 15.3306L4.69852 16.1502L5.13 14.8243L4 14.0046H5.39688L5.82867 12.6787Z"
        fill="#FFDA44"
    />
</svg>
