<svg xmlns="http://www.w3.org/2000/svg" width="40" height="40" viewBox="0 0 40 40" fill="none">
    <rect x="11" width="29" height="40" fill="#496E2D" />
    <rect width="11" height="40" transform="matrix(-1 0 0 1 11 0)" fill="#F0F0F0" />
    <path
        d="M28.551 23.3076C26.0208 25.1358 22.4875 24.5667 20.6594 22.0366C18.8311 19.5063 19.4002 15.9731 21.9305 14.1449C22.7194 13.5749 23.6058 13.238 24.5076 13.1209C22.7727 12.8614 20.9387 13.2523 19.4045 14.3609C16.2905 16.611 15.5899 20.9595 17.84 24.0738C20.0901 27.1877 24.4387 27.8884 27.5529 25.6381C29.0872 24.5295 30.0341 22.9113 30.3324 21.1825C29.9382 22.0017 29.34 22.7375 28.551 23.3076Z"
        fill="#F0F0F0"
    />
    <path
        d="M28.4426 13.0437L29.868 14.5797L31.7692 13.6991L30.7487 15.5291L32.1739 17.0652L30.118 16.6602L29.0975 18.4903L28.8474 16.4098L26.7915 16.0048L28.6928 15.1241L28.4426 13.0437Z"
        fill="#F0F0F0"
    />
</svg>
