<svg xmlns="http://www.w3.org/2000/svg" width="40" height="40" viewBox="0 0 40 40" fill="none">
    <rect width="40" height="40" fill="#0052B4" />
    <path
        fill-rule="evenodd"
        clip-rule="evenodd"
        d="M20 40C31.0457 40 40 31.0457 40 20C40 8.9543 31.0457 0 20 0C8.9543 0 0 8.9543 0 20C0 31.0457 8.9543 40 20 40Z"
        fill="#EAECEE"
    />
    <g opacity="0.3">
        <rect width="40" height="40" fill="#002395" />
        <rect width="20.4228" height="13.7268" fill="white" />
        <rect width="6.69601" height="13.392" fill="#002395" />
        <path d="M13.392 0H20.088V13.392H13.392V0Z" fill="#ED2939" />
        <path
            fill-rule="evenodd"
            clip-rule="evenodd"
            d="M23.4913 16.4282L24.5689 18.1441H27.6345V24.1286L25.3327 20.5295L22.2358 25.4678H23.7424L24.0464 24.9238H26.6151L28.597 28.481L30.5789 24.9238H33.1476L33.4516 25.4678H34.9582L31.8613 20.5295L29.5596 24.1286V20.8225H30.9406L31.9659 19.1903H29.5596V18.1441H32.6251L33.7027 16.4282H23.4913ZM32.4928 23.752H33.4516V24.9238H33.1476L32.4928 23.752ZM32.4928 23.752H31.2318L31.8613 22.622L32.4928 23.752ZM31.2318 23.752L30.5789 24.9238H30.1036V23.752H31.2318ZM25.9623 23.752L26.6151 24.9238H27.0904V23.752H25.9623ZM24.7013 23.752L24.0464 24.9238H23.7424V23.752H24.7013ZM24.7013 23.752H25.9623L25.3327 22.622L24.7013 23.752Z"
            fill="white"
        />
        <path
            d="M28.597 29.6528L29.6302 32.8325L26.9253 30.8674H30.2687L27.5638 32.8325L28.597 29.6528Z"
            fill="white"
        />
        <path
            d="M24.8305 26.807L25.8637 29.9868L23.1588 28.0216H26.5022L23.7973 29.9868L24.8305 26.807Z"
            fill="white"
        />
        <path
            d="M32.3635 26.807L33.3967 29.9868L30.6918 28.0216H34.0352L31.3304 29.9868L32.3635 26.807Z"
            fill="white"
        />
        <path
            d="M21.6499 18.3533L22.683 21.5331L19.9782 19.5679H23.3216L20.6167 21.5331L21.6499 18.3533Z"
            fill="white"
        />
        <path
            d="M35.5441 18.3533L36.5773 21.5331L33.8724 19.5679H37.2158L34.511 21.5331L35.5441 18.3533Z"
            fill="white"
        />
    </g>
    <rect width="40" height="40" fill="#0052B4" />
    <rect width="6.66667" height="14.6667" fill="#0052B4" />
    <path d="M13.392 0H20.0587V14.6667H13.392V0Z" fill="#D80027" />
    <path d="M6.66666 0H13.3333V14.6667H6.66666V0Z" fill="#F0F0F0" />
    <path
        fill-rule="evenodd"
        clip-rule="evenodd"
        d="M24.569 18.1441L23.4913 16.4282H33.7027L32.6251 18.1441H29.5596V19.1903H31.966L30.9406 20.8225H29.5596V24.1286L31.8613 20.5295L34.9582 25.4678H33.4516L33.1476 24.9238H33.4516V23.752H32.4928L31.8613 22.622L31.2318 23.752H30.1036V24.9238H30.5789L28.597 28.481L26.6151 24.9238H27.0904V23.752H25.9623L25.3327 22.622L24.7013 23.752H23.7424V24.9238H24.0465L23.7424 25.4678H22.2358L25.3327 20.5295L27.6345 24.1286V18.1441H24.569ZM24.0465 24.9238L24.7013 23.752H25.9623L26.6151 24.9238H24.0465ZM30.5789 24.9238L31.2318 23.752H32.4928L33.1476 24.9238H30.5789ZM22.0446 19.5679L21.6499 18.3533L21.2553 19.5679H19.9782L21.0114 20.3185L20.6168 21.533L21.6499 20.7824L22.6831 21.533L22.2884 20.3185L23.3216 19.5679H22.0446ZM25.2252 28.0216L24.8305 26.807L24.4359 28.0216H23.1588L24.192 28.7722L23.7974 29.9868L24.8305 29.2361L25.8637 29.9868L25.469 28.7722L26.5022 28.0216H25.2252ZM28.9917 30.8674L28.597 29.6528L28.2024 30.8674H26.9253L27.9585 31.618L27.5639 32.8326L28.597 32.0819L29.6302 32.8326L29.2356 31.618L30.2687 30.8674H28.9917ZM32.3635 26.807L32.7582 28.0216H34.0352L33.0021 28.7722L33.3967 29.9868L32.3635 29.2361L31.3304 29.9868L31.725 28.7722L30.6919 28.0216H31.9689L32.3635 26.807ZM35.5441 18.3533L35.9388 19.5679H37.2158L36.1827 20.3185L36.5773 21.533L35.5441 20.7824L34.511 21.533L34.9056 20.3185L33.8725 19.5679H35.1495L35.5441 18.3533Z"
        fill="white"
    />
</svg>
