<svg xmlns="http://www.w3.org/2000/svg" width="40" height="40" viewBox="0 0 40 40" fill="none">
    <rect width="40" height="40" fill="#D80027" />
    <rect width="20" height="20" fill="#0052B4" />
    <path
        d="M15.9555 9.68641L13.5129 10.8355L14.8135 13.201L12.1613 12.6935L11.8251 15.373L9.97773 13.4023L8.13023 15.373L7.79422 12.6935L5.14188 13.2009L6.4425 10.8353L4 9.68641L6.44258 8.53758L5.14188 6.17195L7.79414 6.67937L8.13031 4L9.97773 5.97063L11.8252 4L12.1613 6.67937L14.8136 6.17195L13.5129 8.53766L15.9555 9.68641Z"
        fill="#F0F0F0"
    />
    <path
        d="M9.97802 13.4089C12.0341 13.4089 13.7009 11.7421 13.7009 9.68602C13.7009 7.62992 12.0341 5.96313 9.97802 5.96313C7.92192 5.96313 6.25513 7.62992 6.25513 9.68602C6.25513 11.7421 7.92192 13.4089 9.97802 13.4089Z"
        fill="#0052B4"
    />
    <path
        d="M9.97769 11.6702C8.88386 11.6702 7.99402 10.7802 7.99402 9.68641C7.99402 8.59258 8.88394 7.70266 9.97769 7.70266C11.0715 7.70266 11.9614 8.59258 11.9614 9.68641C11.9614 10.7802 11.0714 11.6702 9.97769 11.6702Z"
        fill="#F0F0F0"
    />
</svg>
