<svg xmlns="http://www.w3.org/2000/svg" width="40" height="40" viewBox="0 0 40 40" fill="none">
    <g clip-path="url(#clip0_28106_2535)">
        <path
            d="M9.8465e-06 5.88181e-05L31.1111 5.61207e-05L1.11952e-05 31.1112L9.8465e-06 5.88181e-05Z"
            fill="#6DA544"
        />
        <path d="M8.88867 40.0001L40 8.88894L40 40.0001H8.88867Z" fill="#338AF3" />
        <path d="M4.99976 40.0001L39.9998 5.00005L39.9998 8.88894L8.88865 40.0001L4.99976 40.0001Z" fill="#FFDA44" />
        <path
            d="M-0.000257831 31.1112L31.1109 5.23785e-05L34.9997 5.20414e-05L-0.000257663 35.0001L-0.000257831 31.1112Z"
            fill="#FFDA44"
        />
        <path
            d="M-0.000244168 35.0001L34.9998 5.40571e-05L39.9998 0.000222307L39.9998 5.00022L4.99976 40.0001L-0.000244184 40.0001L-0.000244168 35.0001Z"
            fill="black"
        />
    </g>
    <defs>
        <clipPath id="clip0_28106_2535">
            <rect width="40" height="40" fill="white" />
        </clipPath>
    </defs>
</svg>
