<svg xmlns="http://www.w3.org/2000/svg" width="40" height="40" viewBox="0 0 40 40" fill="none">
    <rect width="40" height="40" fill="#F0F0F0" />
    <rect x="6.10351e-05" width="39.9999" height="39.9999" fill="#F0F0F0" />
    <path
        fill-rule="evenodd"
        clip-rule="evenodd"
        d="M20 1.52588e-05H0V20H20V1.52588e-05ZM9.99998 17.0557L11.236 18L10.7639 16.4721L12 15.5279H10.4721L9.99998 14L9.52787 15.5279H7.99999L9.2361 16.4721L8.76393 18L9.99998 17.0557ZM11.236 12L9.99998 11.0557L8.76393 12L9.2361 10.4721L7.99999 9.52787H9.52787L9.99998 8L10.4721 9.52787H12L10.7639 10.4721L11.236 12ZM9.99998 5.05576L11.236 6.00001L10.7639 4.47213L12 3.52788H10.4721L9.99998 2.00001L9.52787 3.52788H7.99999L9.2361 4.47213L8.76393 6.00001L9.99998 5.05576ZM5.23605 18L3.99999 17.0557L2.76394 18L3.23611 16.4721L2 15.5279H3.52788L3.99999 14L4.47211 15.5279H5.99999L4.76388 16.4721L5.23605 18ZM3.99999 11.0557L5.23605 12L4.76388 10.4721L5.99999 9.52787H4.47211L3.99999 8L3.52788 9.52787H2L3.23611 10.4721L2.76394 12L3.99999 11.0557ZM5.23605 6.00001L3.99999 5.05576L2.76394 6.00001L3.23611 4.47213L2 3.52788H3.52788L3.99999 2.00001L4.47211 3.52788H5.99999L4.76388 4.47213L5.23605 6.00001ZM16 17.0557L17.236 18L16.7639 16.4721L18 15.5279H16.4721L16 14L15.5279 15.5279H14L15.2361 16.4721L14.7639 18L16 17.0557ZM17.236 12L16 11.0557L14.7639 12L15.2361 10.4721L14 9.52787H15.5279L16 8L16.4721 9.52787H18L16.7639 10.4721L17.236 12ZM16 5.05576L17.236 6.00001L16.7639 4.47213L18 3.52788H16.4721L16 2.00001L15.5279 3.52788H14L15.2361 4.47213L14.7639 6.00001L16 5.05576Z"
        fill="#0052B4"
    />
    <rect x="20" y="15" width="20" height="4.99999" fill="#D80027" />
    <rect x="6.10351e-05" y="25" width="39.9999" height="4.99999" fill="#D80027" />
    <rect x="6.10351e-05" y="34.9999" width="39.9999" height="4.99999" fill="#D80027" />
    <rect x="20" y="4.99999" width="20" height="4.99999" fill="#D80027" />
</svg>
