<svg xmlns="http://www.w3.org/2000/svg" width="40" height="40" viewBox="0 0 40 40" fill="none">
    <rect y="26" width="40" height="14" fill="#6DA544" />
    <rect width="40" height="14" fill="#338AF3" />
    <rect width="40" height="12" transform="matrix(1 0 0 -1 0 26)" fill="#D80027" />
    <rect y="16" width="40" height="8" fill="#F0F0F0" />
    <path
        fill-rule="evenodd"
        clip-rule="evenodd"
        d="M20.2242 5.16312L19.9599 4.34781L19.6955 5.16312H18.8399L19.5321 5.66695L19.2676 6.48226L19.9599 5.97843L20.652 6.48226L20.3876 5.66695L21.0798 5.16312H20.2242ZM9.12176 8.26093C9.12176 6.38773 10.4357 4.82289 12.1903 4.43898C11.9207 4.37992 11.6408 4.34797 11.3534 4.34797C9.19654 4.34797 7.448 6.09984 7.448 8.26101C7.448 10.4222 9.19638 12.1741 11.3534 12.1741C11.6408 12.1741 11.9206 12.142 12.1903 12.083C10.4358 11.699 9.12176 10.1341 9.12176 8.26093ZM14.4986 10.0396L14.7629 10.8548H15.6184L14.9264 11.3587L15.1907 12.174L14.4986 11.6702L13.8064 12.174L14.0708 11.3587L13.3786 10.8548H14.2341L14.4986 10.0396ZM17.4936 10.8548L17.2292 10.0396L16.9648 10.8548H16.1094L16.8014 11.3587L16.537 12.174L17.2292 11.6702L17.9214 12.174L17.657 11.3587L18.3491 10.8548H17.4936ZM19.9599 10.0396L20.2242 10.8548H21.0798L20.3876 11.3587L20.652 12.174L19.9599 11.6702L19.2676 12.174L19.5321 11.3587L18.8399 10.8548H19.6955L19.9599 10.0396ZM22.955 10.8548L22.6906 10.0396L22.4261 10.8548H21.5706L22.2628 11.3587L21.9983 12.174L22.6906 11.6702L23.3827 12.174L23.1183 11.3587L23.8104 10.8548H22.955ZM25.4212 10.0396L25.6856 10.8548H26.5411L25.849 11.3587L26.1134 12.174L25.4212 11.6702L24.729 12.174L24.9934 11.3587L24.3013 10.8548H25.1568L25.4212 10.0396ZM17.4936 8.0089L17.2292 7.19375L16.9648 8.0089H16.1094L16.8014 8.51289L16.537 9.32804L17.2292 8.82421L17.9214 9.32804L17.657 8.51289L18.3491 8.0089H17.4936ZM19.9599 7.19375L20.2242 8.0089H21.0798L20.3876 8.51289L20.652 9.32804L19.9599 8.82421L19.2676 9.32804L19.5321 8.51289L18.8399 8.0089H19.6955L19.9599 7.19375ZM22.955 8.0089L22.6906 7.19375L22.4261 8.0089H21.5706L22.2628 8.51289L21.9983 9.32804L22.6906 8.82421L23.3827 9.32804L23.1183 8.51289L23.8104 8.0089H22.955ZM25.4212 7.19375L25.6856 8.0089H26.5411L25.849 8.51289L26.1134 9.32804L25.4212 8.82421L24.729 9.32804L24.9934 8.51289L24.3013 8.0089H25.1568L25.4212 7.19375ZM22.6906 4.34781L22.955 5.16312H23.8104L23.1183 5.66695L23.3827 6.48226L22.6906 5.97843L21.9983 6.48226L22.2628 5.66695L21.5706 5.16312H22.4261L22.6906 4.34781ZM25.6856 5.16312L25.4212 4.34781L25.1568 5.16312H24.3013L24.9934 5.66695L24.729 6.48226L25.4212 5.97843L26.1134 6.48226L25.849 5.66695L26.5411 5.16312H25.6856Z"
        fill="#F0F0F0"
    />
</svg>
