<svg xmlns="http://www.w3.org/2000/svg" width="40" height="40" viewBox="0 0 40 40" fill="none">
    <rect width="40" height="40" fill="#D80027" />
    <rect width="20" height="20" fill="#0052B4" />
    <path
        d="M16.0198 13.0435L16.3436 14.04H17.3913L16.5436 14.6557L16.8675 15.6522L16.0198 15.0363L15.1721 15.6522L15.496 14.6557L14.6483 14.04H15.696L16.0198 13.0435Z"
        fill="#F0F0F0"
    />
    <path
        d="M10.7576 5.21742L11.2972 6.87828H13.0434L11.6306 7.90445L12.1704 9.56524L10.7576 8.53875L9.34485 9.56524L9.88454 7.90445L8.4718 6.87828H10.2179L10.7576 5.21742Z"
        fill="#F0F0F0"
    />
    <path
        d="M15.9751 6.95648L16.5147 8.61742H18.2609L16.8482 9.64359L17.3878 11.3044L15.9751 10.2779L14.5624 11.3044L15.1021 9.64359L13.6893 8.61742H15.4354L15.9751 6.95648Z"
        fill="#F0F0F0"
    />
    <path
        d="M11.851 13.9131L12.3907 15.5739H14.1367L12.724 16.6001L13.2637 18.2609L11.851 17.2345L10.4382 18.2609L10.9779 16.6001L9.56519 15.5739H11.3114L11.851 13.9131Z"
        fill="#F0F0F0"
    />
    <path
        d="M7.27936 9.56523L7.81904 11.2261H9.56521L8.1524 12.2523L8.69209 13.913L7.27936 12.8866L5.8667 13.913L6.40631 12.2523L4.99365 11.2261H6.73975L7.27936 9.56523Z"
        fill="#F0F0F0"
    />
</svg>
