<svg xmlns="http://www.w3.org/2000/svg" width="40" height="40" viewBox="0 0 40 40" fill="none">
    <path d="M0 0H40V40H0V0Z" fill="#F5F5F5" />
    <path
        d="M8.8139 11.3849V8.15744H9.83724L10.5457 10.5977L11.2542 8.15744H12.2775V11.3849H11.6478V8.78718L10.9393 11.3849H10.2308L9.52237 8.78718V11.3849H8.8139ZM14.2455 8.78718L13.7732 10.1254H14.7178L14.2455 8.78718ZM13.8519 8.15744H14.6391L15.8986 11.3849H15.1901L14.9539 10.7551H13.6157L13.3796 11.3849H12.6711L13.8519 8.15744ZM17.7878 11.3849H17.0793V10.2041L15.8198 8.23616H16.6857L17.3942 9.65309L18.1027 8.23616H18.8899L17.7878 10.2041V11.3849ZM19.7558 9.7318C19.7558 10.0467 19.8345 10.3616 19.9919 10.519C20.1493 10.6764 20.3855 10.8339 20.7004 10.8339C21.0153 10.8339 21.2514 10.7551 21.4088 10.519C21.5663 10.3616 21.645 10.0467 21.645 9.7318C21.645 9.41693 21.5663 9.10206 21.4088 8.94462C21.2514 8.78718 21.0153 8.62975 20.7004 8.62975C20.3855 8.62975 20.1493 8.70847 19.9919 8.94462C19.8345 9.18078 19.7558 9.41693 19.7558 9.7318ZM19.0473 9.7318C19.0473 9.18078 19.2047 8.78718 19.5196 8.47231C19.8345 8.15744 20.2281 8 20.7791 8C21.3301 8 21.7237 8.15744 22.0386 8.47231C22.3535 8.78718 22.5109 9.18078 22.5109 9.7318C22.5109 10.2828 22.3535 10.6764 22.0386 10.9913C21.7237 11.3062 21.3301 11.4636 20.7791 11.4636C20.2281 11.4636 19.8345 11.3062 19.5196 10.9913C19.2047 10.6764 19.0473 10.2828 19.0473 9.7318ZM23.6917 11.3849V8.78718H22.6683V8.23616H25.4235V8.78718H24.4001V11.3849H23.6917ZM26.5255 11.3849V8.78718H25.5022V8.23616H28.2573V8.78718H27.234V11.3849H26.5255ZM28.6509 11.3849V8.15744H31.1699V8.70847H29.3594V9.41693H31.0125V9.96796H29.3594V10.7551H31.2486V11.3849H28.6509Z"
        fill="#ED4C5C"
    />
    <path
        d="M12.9179 29.8007C11.8945 30.1156 9.8964 31.0839 9.67976 31.3006C9.44951 31.5308 9.86111 32.4694 10.2308 32.8749C10.3095 32.8749 10.8605 32.6388 11.4903 32.3239C12.1373 32.0004 13.2688 31.4631 14.0093 31.3793C14.128 31.6463 14.2348 32.0019 14.4816 32.1665C14.7965 32.2452 15.5971 31.8516 15.5971 31.8516C16.463 31.5367 16.8431 31.5367 19.9919 31.5367C23.1406 31.5367 23.657 31.5972 24.1301 31.7318C24.6031 31.8663 25.1795 32.0512 25.3965 32.1423C25.6135 32.2335 25.7891 31.5925 25.9745 31.2219C26.8888 31.679 29.272 32.7152 29.7529 32.8749C29.7529 32.8749 29.9891 32.5601 30.2253 32.1665C30.6188 31.3793 30.6976 31.458 29.2019 30.6708C28.8136 30.4689 25.3748 28.7226 24.9451 29.9551C22.7236 29.3437 18.671 29.2662 16.3708 29.7262C15.8985 29.8049 15.5049 29.9257 15.19 30.0411C15.19 30.0411 15.0518 29.7901 15.0039 29.7262C14.7677 29.4113 14.1774 29.4071 12.9179 29.8007Z"
        fill="#3E4347"
    />
    <path
        d="M14.3242 29.6476C13.6158 29.6476 12.2775 30.1199 10.8606 30.8284C9.67984 31.3794 9.67984 31.4581 9.99471 32.0879C10.1521 32.4027 10.3096 32.6389 10.3096 32.6389C10.3883 32.6389 10.8606 32.4027 11.4904 32.0879C12.1201 31.773 12.9073 31.4581 13.3009 31.3007C13.537 31.2219 13.7031 31.1953 13.9414 31.1445C13.9414 31.1445 13.8398 30.9219 13.8398 30.7305C13.875 30.3945 14.4029 29.805 14.7965 29.7263C14.6211 29.6719 14.4817 29.6476 14.3242 29.6476Z"
        fill="#DFDFDF"
    />
    <path
        d="M16.4495 29.8837C15.5369 30.0141 14.2089 30.7285 14.0739 30.7926C13.9389 30.8568 14.189 31.3643 14.2605 31.5217C14.332 31.6792 14.4815 32.032 14.6033 32.0078C14.7252 31.9836 15.5836 31.6942 15.5836 31.6942C16.4495 31.3793 16.9218 31.3793 20.0706 31.3793C23.2193 31.3793 23.6509 31.4071 24.3593 31.6432C24.9104 31.8007 25.3217 31.9681 25.4313 31.9991C25.5408 32.0301 26.0888 30.6219 25.9998 30.5887C24.9786 30.2076 24.4127 29.998 23.6129 29.8837C21.2924 29.5936 18.7702 29.5936 16.4495 29.8837Z"
        fill="#DFDFDF"
    />
    <path
        d="M25.4235 29.7263C26.0694 30.081 26.2851 30.3596 26.026 31.1095C26.641 31.3925 28.5284 32.2582 29.7279 32.763C29.8877 32.4432 30.4483 31.5868 30.2703 31.4697C28.9467 30.598 26.2213 29.4083 25.4235 29.7263Z"
        fill="#DFDFDF"
    />
    <path
        d="M25.2529 29.8056C25.1742 29.8843 25.1086 30.0412 25.1086 30.0412C25.1086 30.0412 25.6128 30.2774 25.8958 30.2774C25.7198 30.1014 25.4737 29.916 25.2529 29.8056Z"
        fill="#DFDFDF"
    />
    <path
        d="M14.8099 29.8105C14.6189 29.9352 14.1686 30.2079 14.0251 30.6383C14.2681 30.3953 14.7254 30.2323 15.0461 30.1254C14.9431 30.0289 14.865 29.9078 14.8099 29.8105Z"
        fill="#DFDFDF"
    />
    <path
        d="M15.3475 14.2187C14.9539 14.3762 14.7965 14.6911 14.7178 15.0846C14.7178 15.6041 14.9214 15.918 15.2688 16.2654C15.0752 16.6527 14.7178 16.8856 14.7178 17.3675C14.7178 17.8475 15.039 18.0823 15.3475 18.3908C14.6409 19.0974 14.6842 19.7742 15.3475 20.4375H24.9512C25.6656 19.723 25.6052 19.0449 24.8724 18.3121C25.4269 17.7577 25.6863 17.0968 25.1086 16.4229C24.8724 16.1867 24.8724 16.108 25.0299 16.0293C25.3448 15.8718 25.5022 15.2421 25.3448 14.8485C25.1873 14.2975 24.2817 14.0773 23.8491 14.14C23.4165 14.2028 23.1602 14.5791 23.1406 14.6911C22.3856 14.3135 21.9623 13.9014 21.1727 14.6911C20.5135 14.0319 19.8288 13.9883 19.126 14.6911C18.7555 14.4441 18.5066 14.14 18.0239 14.14C17.5966 14.14 17.2845 14.4072 17.0006 14.6911C16.5308 14.2212 16.0127 13.8862 15.3475 14.2187Z"
        fill="#2A5F9E"
    />
    <path
        d="M15.3074 20.6736C14.7179 21.3614 14.7649 22.0039 15.19 22.6415C14.7585 22.8526 14.6231 23.0087 14.5675 23.3141C14.4361 24.0364 14.7983 24.3006 15.19 24.5154C14.8381 24.8457 14.5117 25.2155 14.5675 25.7009C14.6232 26.1862 14.8751 26.8923 15.741 26.8923C16.0559 26.8923 16.3708 26.8136 16.5282 26.5775C16.6857 26.42 16.8431 26.3413 17.0005 26.5775C17.2367 26.8136 17.5516 26.9711 17.7877 26.9711C18.2415 26.9711 18.5146 26.6377 18.8111 26.3413C19.5091 27.0394 20.088 27.0119 20.8577 26.4987C21.562 27.203 22.2663 27.0581 22.9044 26.42C23.2356 26.6408 23.5889 27.0498 24.0065 27.0498C24.585 27.0498 25.1872 26.4482 25.1872 25.869C25.1872 25.4354 24.8378 25.126 24.5575 24.8457C25.2467 24.1564 25.221 23.3838 24.5575 22.7203C25.2641 22.0137 25.2208 21.3369 24.5575 20.6736H15.3074Z"
        fill="#ED4C5C"
    />
    <path
        d="M14.0093 26.5287C14.0093 27.6578 15.6814 27.5788 17.193 27.5788C18.7046 27.5788 19.7524 27.5813 19.9919 29.0181C20.229 27.5955 21.1606 27.4754 22.5155 27.4754C23.3033 27.4754 26.0187 28.1335 25.9525 26.3811C25.9525 23.1775 25.9525 16.577 25.9525 13.2447L14.0093 13.2446V26.5287ZM25.817 25.4944C25.817 26.0196 25.8925 26.6762 25.491 27.0776C24.3772 28.1278 20.7171 26.2127 19.9919 28.3884C19.553 27.0719 17.9488 27.3402 16.8431 27.365C15.9572 27.385 14.2175 27.4277 14.1667 26.5287V13.4319H25.817V25.4944Z"
        fill="#3E4347"
    />
    <path
        d="M21.8024 16.3441C22.3459 17.4311 21.5888 19.0089 20.3354 19.1019C19.0368 19.1984 17.5769 17.8679 18.3388 16.3441C18.3388 18.5269 21.8024 18.614 21.8024 16.3441Z"
        fill="white"
    />
    <path
        d="M17.7091 23.4288C17.5436 23.2632 16.6748 22.5169 16.5283 22.9564C16.3361 23.3408 17.402 23.6675 17.6304 23.7436C17.3735 23.8721 16.4002 24.1812 16.6857 24.6095C16.9904 24.9142 17.6615 24.2635 17.8665 24.0585C17.8665 24.3373 17.5794 25.318 18.1027 25.318C18.533 25.318 18.4705 24.2432 18.3388 23.9798C18.5491 24.19 19.205 24.8454 19.5196 24.5308C19.8291 24.2213 18.7951 23.6963 18.575 23.5862C18.8977 23.4248 19.8566 23.2591 19.677 22.7203C19.503 22.3722 18.6622 23.1054 18.4963 23.2713C18.4963 23.0516 18.7534 21.9331 18.3388 21.9331C17.7206 22.0877 17.4212 22.853 17.7091 23.4288Z"
        fill="#FFCE31"
    />
    <path
        d="M18.2601 23.7437C18.2601 23.9011 18.1027 24.0586 17.9452 24.0586C17.7878 24.0586 17.6304 23.9011 17.6304 23.7437C17.6304 23.5863 17.7878 23.4288 17.9452 23.4288C18.1027 23.4288 18.2601 23.5863 18.2601 23.7437Z"
        fill="white"
    />
    <path
        d="M21.8811 23.4288C21.7156 23.2632 20.8469 22.5169 20.7004 22.9564C20.5082 23.3408 21.5741 23.6675 21.8024 23.7436C21.5456 23.8721 20.5722 24.1812 20.8578 24.6095C21.1624 24.9142 21.8336 24.2635 22.0386 24.0585C22.0386 24.2781 21.7756 25.318 22.196 25.318C22.6263 25.318 22.5639 24.2432 22.4322 23.9798C22.6424 24.19 23.2984 24.8454 23.6129 24.5308C23.9225 24.2213 22.8884 23.6963 22.6683 23.5862C22.9911 23.4248 23.95 23.2591 23.7704 22.7203C23.5963 22.3722 22.7555 23.1054 22.5896 23.2713C22.5896 23.0516 22.8467 21.9331 22.4322 21.9331C21.8017 22.0907 21.5999 22.8662 21.8811 23.4288Z"
        fill="#FFCE31"
    />
    <path
        d="M22.3534 23.7437C22.3534 23.9011 22.196 24.0586 22.0386 24.0586C21.8811 24.0586 21.7237 23.9011 21.7237 23.7437C21.7237 23.5863 21.8811 23.4288 22.0386 23.4288C22.196 23.4288 22.3534 23.5863 22.3534 23.7437Z"
        fill="white"
    />
    <path
        d="M13.2221 22.0118C12.9072 20.5949 12.12 19.4929 11.0967 18.8631H11.9626L13.1434 18.7844L12.12 18.1546C11.8052 17.9972 11.018 17.2887 11.018 16.7377C11.018 16.2321 11.6875 15.9108 12.0413 15.6357L11.2541 15.5569L11.569 14.7697L10.7031 15.0059L10.6244 14.2187L10.9393 13.9826L9.97142 13.3067L8.89258 13.589L8.65642 12.9592L8.26283 13.589L7.79052 12.9592L7.55437 13.9038L7.00334 13.589L6.8459 14.3762L6.05872 13.7464L6.13744 15.0059L4.95666 14.7697L5.27153 15.7144L4.2482 15.6357L5.03538 17.1313L4.09076 17.6823L5.42897 19.0205V19.4141L2.67383 18.7844L4.32691 20.4375L3.8546 22.0906L5.74384 22.248L5.03538 23.6649L7.31821 23.1139L7.86924 24.6095C7.79052 24.6095 7.63309 24.5308 7.55437 24.5308C6.29487 24.5308 5.19282 26.4988 5.19282 27.6008C5.19282 28.7029 7.08206 30.5921 8.9713 30.5921C9.75848 30.5921 10.4669 30.2773 11.0967 29.6475C13.0647 27.7583 13.8518 24.767 13.2221 22.0118ZM8.9713 23.35C9.44361 23.8224 10.3882 24.9244 10.4669 26.5775C10.4669 27.1285 10.1521 27.837 9.60104 28.4667C9.20745 28.8603 8.89258 29.0178 8.73514 29.0178C7.23949 28.7029 6.45231 28.0731 6.53103 27.1285C6.60975 26.4201 7.08206 25.9478 7.23949 25.9478C7.72118 25.9478 7.47849 26.6319 7.86924 26.8924C8.29884 27.0356 8.60853 26.8307 8.81386 26.4201C8.9713 26.0265 8.9713 25.4754 8.49899 25.0031C8.34155 24.8457 8.18411 24.767 8.02668 24.6883L8.9713 23.35Z"
        fill="#3E4347"
    />
    <path
        d="M28.9658 29.7262C29.5955 30.356 30.304 30.6709 31.0912 30.6709C32.9804 30.6709 34.7428 28.7778 34.7428 27.6758C34.7428 26.6386 33.8817 24.4699 32.2166 24.6095L32.7442 23.1926L35.0271 23.7436L34.2399 22.248L36.1291 22.0906L35.7355 20.4375L37.3886 18.7844L34.6335 19.4141V19.0205L35.9717 17.6823L35.0271 17.1313L35.8143 15.6357L34.7909 15.7144L35.1058 14.7697L33.925 15.0059L34.0037 13.7464L33.2166 14.3762L33.0591 13.589L32.4294 13.9038L32.1932 12.9592L31.7209 13.589L31.3273 12.9592L31.0912 13.589L30.3827 13.2741L29.753 13.3528L29.0445 13.9826L29.3594 14.2187L29.2806 15.0059L28.4147 14.7697L28.7296 15.5569L27.9424 15.6357C28.2962 15.9108 28.9658 16.2321 28.9658 16.7377C28.9658 17.6268 27.5722 18.349 26.9191 18.7844L28.9658 18.8631C27.9424 19.4929 27.234 20.5949 26.8404 22.0118C26.1319 24.767 26.9191 27.7583 28.9658 29.7262ZM31.9571 24.6095C31.7996 24.6883 31.6422 24.767 31.4848 24.9244C31.0124 25.3967 31.0124 25.9478 31.1699 26.3413C31.4569 26.9154 32.4294 27.1264 32.4294 26.2626C32.4294 25.2749 33.4527 26.5129 33.4527 27.0498C33.5314 27.9944 32.7442 28.6242 31.2486 28.9391C31.0912 28.9391 30.6976 28.7816 30.3827 28.388C29.8317 27.837 29.5168 27.0498 29.5168 26.4988C29.5955 24.8457 30.5401 23.7436 31.0124 23.2713L31.9571 24.6095Z"
        fill="#3E4347"
    />
    <path
        d="M9.91596 13.7195L8.65647 14.2188L8.57775 13.9827L8.34159 14.3762L8.02672 13.9827L7.86928 14.6124L7.31826 14.2975L7.16082 15.1634L6.53107 14.6911L6.60979 15.6357L5.50773 15.4783L5.74389 16.3442L4.87799 16.2655L5.50773 17.4463L4.72055 17.9186L5.82261 19.0206L5.90133 20.044L4.01208 19.5717L4.79927 20.4376L4.40568 21.8545L6.37364 22.0119L5.74389 23.2714L7.55441 22.7991L8.02672 24.0586L8.89262 22.8778C8.89262 22.8778 10.7819 24.1373 10.8606 26.6563C10.8606 28.0732 9.36493 29.6476 8.65647 29.4902C4.72055 28.703 6.37364 25.633 7.23954 25.633C8.18416 25.633 7.86928 26.4989 8.02672 26.5776C8.34159 26.735 8.73519 25.9478 8.18416 25.3181C7.0821 24.216 5.50773 26.4202 5.50773 27.7584C5.50773 28.8604 8.49903 31.773 10.7031 29.5689C14.088 26.184 13.4583 20.044 9.99468 19.0206C6.53107 17.9973 7.39697 16.5016 7.39697 16.5016C7.79057 19.0206 11.8052 18.7058 11.8052 18.7058C11.8052 18.7058 9.75852 17.1314 11.0967 15.9506H10.7031L10.9393 15.4783L10.3883 15.6357L10.3096 14.9273L9.91596 15.3209L9.28621 15.1634L9.12878 14.7698L10.3096 13.9827L9.91596 13.7195Z"
        fill="#DFDFDF"
    />
    <path
        d="M30.304 13.8252H29.9104L29.753 13.9827L30.9337 14.7698L30.6976 15.1634L30.0678 15.3209L29.6742 14.9273L29.5955 15.6357L29.0445 15.4783L29.2807 15.9506H28.8871C30.2253 17.0527 28.0212 18.5483 28.0212 18.5483C28.0212 18.5483 32.1145 18.8632 32.4294 16.3442C32.4294 16.3442 33.2953 17.8399 29.8317 18.8632C26.3681 19.9652 25.7383 26.0266 29.1232 29.4114C31.4061 31.6943 34.3186 28.703 34.3186 27.6009C34.3186 26.2627 32.7443 24.1373 31.6422 25.1607C31.0912 25.7117 31.4848 26.4989 31.7996 26.4202C31.9571 26.3414 31.7209 25.4755 32.5868 25.4755C33.5314 25.4755 35.1845 28.5455 31.1699 29.3327C30.4614 29.4902 28.8871 27.9158 28.9658 26.4989C29.0445 24.0586 30.9337 22.7204 30.9337 22.7204L31.7996 23.9012L32.272 22.6417L34.0825 23.114L33.4527 21.8545L35.4207 21.697L35.0271 20.2801L35.8143 19.4142L33.925 19.8865L34.0038 18.8632L35.1058 17.7611L34.3186 17.2888L34.9484 16.108L34.0825 16.1868L34.3186 15.3209L33.374 15.557L33.4527 14.6124L32.823 15.0847L32.6655 14.2188L32.1145 14.5337L31.9571 13.9039L31.6422 14.3762L31.4061 13.9827L31.3273 14.2188L30.304 13.8252Z"
        fill="#DFDFDF"
    />
</svg>
