<svg xmlns="http://www.w3.org/2000/svg" width="40" height="40" viewBox="0 0 40 40" fill="none">
    <g clip-path="url(#clip0_28106_2534)">
        <path d="M40 39.9998V-0.000442505L0 5.65847e-05L5.29819e-07 39.9998H40Z" fill="#F0F0F0" />
        <path d="M-0.00012207 7.62939e-05L-7.13401e-05 40.0001L19.9999 20L-0.00012207 7.62939e-05Z" fill="#3D3D3D" />
        <path
            d="M17.3911 20L1.8047e-05 7.77802L1.4123e-05 11.6669L8.90779 20L0 28.3336L4.82135e-05 32.2225L17.3911 20Z"
            fill="#FFDA44"
        />
        <path
            d="M40.0001 17.3911H17.3912L0.000111626 0.000518799L3.92066e-05 7.7783L12.5934 19.9999L3.92066e-05 32.2227L0 40.0005L17.3912 22.6088H40.0001V17.3911Z"
            fill="#6DA544"
        />
        <path d="M3.88879 40H39.9999V25.2178H18.4711L3.88879 40Z" fill="#0052B4" />
        <path
            d="M40 14.7822V-0.000396614C35.5956 -0.00695703 3.88892 8.13804e-05 3.88892 8.13804e-05L18.4712 14.7822L40 14.7822Z"
            fill="#D80027"
        />
    </g>
    <defs>
        <clipPath id="clip0_28106_2534">
            <rect width="40" height="40" fill="white" />
        </clipPath>
    </defs>
</svg>
