<svg xmlns="http://www.w3.org/2000/svg" width="40" height="40" viewBox="0 0 40 40" fill="none">
    <g clip-path="url(#clip0_28106_2536)">
        <rect y="13.3333" width="40" height="13.3333" fill="#F0F0F0" />
        <rect y="-3.05176e-05" width="40" height="5.55556" fill="#6DA544" />
        <rect y="5.55551" width="40" height="5.55556" fill="#FFDA44" />
        <rect y="11.1111" width="40" height="5.55556" fill="#D80027" />
        <rect y="16.6666" width="40" height="6.66667" fill="#3D3D3D" />
        <rect y="23.3333" width="40" height="5.55556" fill="#D80027" />
        <rect y="34.4444" width="40" height="5.55556" fill="#6DA544" />
        <rect y="28.8889" width="40" height="5.55556" fill="#FFDA44" />
        <path d="M0 -3.05176e-05L5.07302e-05 40L20.0001 19.9999L0 -3.05176e-05Z" fill="#F0F0F0" />
        <path d="M2.22222 -3.05176e-05H0L19.4595 20L0 40H2.22222L21.8378 20L2.22222 -3.05176e-05Z" fill="#3D3D3D" />
        <path
            d="M7.82699 14.7778L9.09186 18.7778H13.1675L9.85942 21.2222L11.1243 25.2222L7.82699 22.7555L4.5405 25.2222L5.80537 21.2222L2.48645 18.7778H6.56213L7.82699 14.7778Z"
            fill="#D80027"
        />
        <path
            d="M11.2865 20.3333L8.00006 19.1333L7.7406 16.7111C7.63249 16.1111 7.11357 15.6555 6.49735 15.6555C5.79465 15.6555 5.23249 16.2444 5.23249 16.9555C5.23249 17.0667 5.25411 17.1778 5.27573 17.2889L4.35681 18.2444H5.97843C5.97843 19.9889 4.71357 19.9889 4.71357 21.7333L5.41627 23.4778H9.63249L10.3352 21.7333C10.4109 21.5667 10.4433 21.4 10.4649 21.2222C11.0703 20.9667 11.2541 20.3333 11.2541 20.3333H11.2865Z"
            fill="#FFDA44"
        />
    </g>
    <defs>
        <clipPath id="clip0_28106_2536">
            <rect width="40" height="40" fill="white" />
        </clipPath>
    </defs>
</svg>
