<svg xmlns="http://www.w3.org/2000/svg" width="32" height="32" viewBox="0 0 32 32">
    <defs>
        <linearGradient
            id="vscodeIconsFileTypeLightCypress0"
            x1="-232.595"
            x2="-232.531"
            y1="266.492"
            y2="266.492"
            gradientTransform="scale(-271.077 271.077)rotate(76.525 52.57 280.658)"
            gradientUnits="userSpaceOnUse"
        >
            <stop offset="0" stop-color="#58d09e" />
            <stop offset="1" stop-color="#d2d2d2" stop-opacity="0" />
        </linearGradient>
        <linearGradient
            id="vscodeIconsFileTypeLightCypress1"
            x1="-232.6"
            x2="-232.537"
            y1="267.638"
            y2="267.638"
            gradientTransform="scale(250.185 -250.185)rotate(-30.831 -601.76 -288.04)"
            gradientUnits="userSpaceOnUse"
        >
            <stop offset="0" stop-color="#58d09e" />
            <stop offset="1" />
        </linearGradient>
    </defs>
    <path fill="#fafafa" d="M15.5 2.071A13.938 13.938 0 1 1 2.076 16.495A13.949 13.949 0 0 1 15.5 2.071Z" />
    <path d="m23.471 11.58l-2.624 6.584l-2.64-6.584h-2.16l3.7 8.986l-2.632 6.334l1.885.376l6.508-15.7h-2.037Z" />
    <path
        d="M11.942 13.245a2.6 2.6 0 0 1 2.448 1.592l.036.079l1.841-.62l-.04-.094a4.533 4.533 0 0 0-4.285-2.792a4.6 4.6 0 0 0-3.372 1.318A4.423 4.423 0 0 0 7.2 16.02a4.4 4.4 0 0 0 1.369 3.28a4.6 4.6 0 0 0 3.372 1.319a4.534 4.534 0 0 0 4.285-2.792l.04-.094l-1.844-.621l-.035.083a2.552 2.552 0 0 1-2.446 1.588a2.589 2.589 0 0 1-1.92-.786a2.717 2.717 0 0 1-.778-1.97a2.762 2.762 0 0 1 .778-1.988a2.577 2.577 0 0 1 1.92-.789Z"
    />
    <path
        fill="#58d09e"
        d="M2.961 19.547a13.349 13.349 0 0 1-.482-3.559a13.524 13.524 0 0 1 8.682-12.533l.681 1.745a11.639 11.639 0 0 0-7.473 10.788a11.49 11.49 0 0 0 .414 3.062Z"
    />
    <path
        fill="#58d09e"
        d="M11.07 3.5a13.611 13.611 0 0 1 16.992 6.4l-1.681.855a11.715 11.715 0 0 0-14.623-5.512L11.07 3.5Z"
    />
    <path
        fill="url(#vscodeIconsFileTypeLightCypress0)"
        d="M22.225 25.756a11.567 11.567 0 0 0 4.088-15.149l1.675-.866a13.426 13.426 0 0 1-4.748 17.6l-1.015-1.581Z"
    />
    <path
        fill="url(#vscodeIconsFileTypeLightCypress1)"
        d="m17.5 25.949l-.46 1.105a.611.611 0 0 1-.536.377c-.155.006-.312.01-.471.01a11.736 11.736 0 0 1-11.4-9.009l-1.843.413a13.461 13.461 0 0 0 4.71 7.482a13.7 13.7 0 0 0 8.51 2.987h.028c.182 0 .361 0 .542-.012a2.5 2.5 0 0 0 2.206-1.536l.6-1.444l-1.886-.373Z"
    />
</svg>
