<svg width="16" height="16" viewBox="0 0 16 16" fill="none" xmlns="http://www.w3.org/2000/svg">
    <path
        fill-rule="evenodd"
        clip-rule="evenodd"
        d="M1.09432 7.14066C5.3838 5.23899 8.23936 3.97538 9.67327 3.36235C13.7544 1.62332 14.6123 1.32306 15.1638 1.31055C15.2864 1.31055 15.556 1.33557 15.7398 1.4857C15.8869 1.61081 15.9236 1.77345 15.9482 1.89856C15.9727 2.02367 15.9972 2.2864 15.9727 2.48658C15.7521 4.86366 14.7961 10.6312 14.3059 13.2835C14.0976 14.4095 13.6931 14.7849 13.3009 14.8224C12.443 14.8975 11.7935 14.2469 10.9724 13.6964C9.67327 12.8331 8.95019 12.2952 7.68786 11.4444C6.22944 10.4686 7.17312 9.9306 8.0065 9.05484C8.2271 8.82964 11.9896 5.32657 12.0631 5.01379C12.0754 4.97626 12.0754 4.82613 11.9896 4.75106C11.9038 4.676 11.7812 4.70102 11.6832 4.72604C11.5484 4.75106 9.48944 6.15229 5.48184 8.91721C4.89357 9.33008 4.36658 9.53025 3.88861 9.51774C3.36162 9.50523 2.35665 9.21748 1.5968 8.96726C0.677631 8.66699 -0.0577073 8.50435 0.00357094 7.97889C0.0403379 7.70365 0.408007 7.42841 1.09432 7.14066Z"
        fill="currentColor"
        fill-opacity="0.65"
    />
</svg>
