<svg xmlns="http://www.w3.org/2000/svg">
    <g id="tuiIconAliPay" xmlns="http://www.w3.org/2000/svg">
        <svg
            xmlns="http://www.w3.org/2000/svg"
            preserveAspectRatio="xMidYMid meet"
            style="width: inherit; height: inherit"
        >
            <g id="tuiIconAlipay" xmlns="http://www.w3.org/2000/svg">
                <svg
                    x="50%"
                    y="50%"
                    overflow="visible"
                    preserveAspectRatio="xMidYMid meet"
                    style="width: inherit; height: inherit"
                    viewBox="0 0 32 32"
                >
                    <svg x="-16" y="-16">
                        <path
                            vector-effect="non-scaling-stroke"
                            d="M5.9944 23.1817L7.2343 25.895H4.7017L5.9944 23.1817ZM7.8543 27.3251H9.3449L6.5484 21.1902H6.1395C6.0735 21.1902 6.0076 21.2036 5.9548 21.2437C5.902 21.2838 5.8625 21.3239 5.8229 21.3907L3 27.3251H4.0025L4.5038 26.3227H7.3794L7.8543 27.3251ZM11.3103 27.3251H9.8989V21.4442C9.8989 21.3774 9.9253 21.3105 9.978 21.2571C10.0308 21.2036 10.11 21.1902 10.1759 21.1902H11.3235V27.3251H11.3103ZM12.4448 23.1684C12.4448 23.1015 12.4711 23.0347 12.5239 22.9813C12.5767 22.9278 12.6558 22.9144 12.7218 22.9144H13.8694V27.4855H12.4579V23.1684H12.4448ZM16.3889 26.2291C16.3889 26.3494 16.402 26.443 16.4416 26.5499C16.4812 26.6435 16.534 26.737 16.6131 26.8039C16.6791 26.8707 16.7846 26.9375 16.8769 26.9776C16.9693 27.0177 17.1012 27.0311 17.2199 27.0311C17.3386 27.0311 17.4441 26.991 17.5497 26.9108C17.642 26.8306 17.7475 26.7237 17.8135 26.5766C17.8794 26.4296 17.9586 26.2559 17.9981 26.0687C18.0377 25.8816 18.0641 25.6544 18.0641 25.4272C18.0641 25.1331 18.0509 24.8658 18.0113 24.6386C17.9718 24.4114 17.919 24.2243 17.8399 24.0639C17.7739 23.9035 17.6816 23.7966 17.5892 23.7164C17.4969 23.6362 17.3782 23.5961 17.2595 23.5961C17.1803 23.5961 17.088 23.6094 17.0088 23.6362C16.9297 23.6629 16.8505 23.703 16.7846 23.7698C16.7186 23.8233 16.6395 23.8901 16.5735 23.957C16.5076 24.0238 16.4416 24.104 16.3889 24.1842V26.2291ZM14.9774 23.1149C14.9774 23.0481 15.0038 22.9679 15.0434 22.9278C15.0961 22.8743 15.1621 22.8476 15.228 22.8476H16.3229V23.1951C16.4812 23.0615 16.6659 22.9545 16.8637 22.861C17.0616 22.7808 17.299 22.7273 17.5628 22.7273C17.8399 22.7273 18.1169 22.7808 18.3411 22.9011C18.5786 23.0214 18.7764 23.1684 18.9479 23.3555C19.1194 23.556 19.2381 23.7832 19.3304 24.0371C19.4096 24.2911 19.4755 24.5718 19.4755 24.8658C19.4755 25.2401 19.4228 25.5742 19.3172 25.895C19.1985 26.2158 19.0666 26.4831 18.8556 26.7103C18.6577 26.9375 18.4203 27.1246 18.1433 27.2583C17.8662 27.3919 17.5365 27.4588 17.1803 27.4588C16.9956 27.4588 16.8373 27.4588 16.7186 27.4454C16.5867 27.432 16.468 27.4053 16.3361 27.3519V29.183H14.9774V23.1149ZM21.1772 25.9084C21.1772 25.3604 21.5861 24.946 22.0873 24.9059C22.4171 24.8792 22.615 24.946 22.7205 25.0262V26.6435C22.549 26.8172 22.338 26.9108 22.0873 26.9108C21.5861 26.8974 21.1772 26.4563 21.1772 25.9084ZM23.103 22.9011C22.4567 22.7139 21.6257 22.6738 20.4912 22.9679C20.5308 23.0882 20.5704 23.2887 20.6232 23.3956C22.4171 23.0748 22.7469 23.3288 22.7469 24.104V24.3446C22.4171 24.3178 22.0346 24.2777 21.718 24.2644C20.4912 24.251 20.0559 25.2267 20.0559 25.8549C20.0559 26.9375 21.0716 27.9533 22.7469 27.1915V27.3652H24.1451V24.0639C24.1451 23.4223 23.5911 23.0347 23.103 22.9011ZM24.5672 22.754H26.0051L27.4297 25.5608L28.5905 22.9278C28.6169 22.8743 28.6432 22.8342 28.7092 22.7941C28.762 22.7674 28.8279 22.754 28.8807 22.754H29.659L27.4033 27.833C26.8493 29.2231 25.5434 29.0226 25.3059 29.0226V28.2474C25.4906 28.2474 26.0974 28.2607 26.3612 27.9533C26.414 27.8865 26.4931 27.7528 26.5195 27.6726C26.5591 27.5924 26.5855 27.5122 26.6382 27.4454L26.7965 27.0712L24.5672 22.754Z"
                            fill="currentColor"
                        />
                        <path
                            vector-effect="non-scaling-stroke"
                            d="M13.8562 21.5377C13.8562 21.8986 13.5396 22.1793 13.157 22.1793C12.7613 22.1793 12.4579 21.8986 12.4579 21.5377C12.4579 21.1769 12.7745 20.8962 13.157 20.8962C13.5396 20.8962 13.8562 21.1902 13.8562 21.5377Z"
                            fill="#00A0E9"
                        />
                        <path
                            vector-effect="non-scaling-stroke"
                            clip-rule="evenodd"
                            d="M11.2311 5H20.7686C22.0119 5 23.0168 6.00487 22.9998 7.23115V14.4866C22.9998 14.4866 22.5569 14.4526 20.5472 13.7713L20.5447 13.7704C19.9829 13.5661 19.2346 13.294 18.4013 12.9879C18.9122 12.1192 19.3039 11.1144 19.5594 10.0414H16.8174V9.03651H20.2066V8.4915H16.8344V6.83942H15.4549C15.2164 6.83942 15.2164 7.07787 15.2164 7.07787V8.4915H11.8102V9.03651H15.1994V10.0414H12.3722V10.5864H17.8222C17.6179 11.2677 17.3453 11.9319 17.0388 12.511C15.2846 11.9319 13.3771 11.455 12.2019 11.7445C11.4525 11.9149 10.9586 12.2725 10.6691 12.6132C9.35766 14.2141 10.3114 16.6497 13.0875 16.6497C14.7396 16.6497 16.3064 15.7129 17.5327 14.2141C19.3721 15.0998 22.9998 16.6156 22.9998 16.6156V16.7689C22.9998 17.9952 22.0119 19 20.7516 19H11.2311C10.0048 19 9 18.0122 9 16.7519V7.23115C9 6.00487 10.0048 5 11.2311 5ZM12.9172 15.5596C10.7031 15.5596 10.056 13.8734 11.146 12.9707C11.5036 12.6642 12.1678 12.5109 12.5255 12.4939C13.8199 12.3746 15.0461 12.8345 16.4597 13.5158C15.4719 14.7761 14.1946 15.5596 12.9172 15.5596Z"
                            fill="#00A0E9"
                            fill-rule="evenodd"
                        />
                    </svg>
                </svg>
            </g>
        </svg>
    </g>
</svg>
