<svg xmlns="http://www.w3.org/2000/svg" preserveAspectRatio="xMidYMid meet" style="width: inherit; height: inherit">
    <g id="tuiIconAndroidPay" xmlns="http://www.w3.org/2000/svg">
        <svg
            x="50%"
            y="50%"
            xmlns="http://www.w3.org/2000/svg"
            overflow="visible"
            preserveAspectRatio="xMidYMid meet"
            style="width: inherit; height: inherit"
            viewBox="0 0 32 32"
        >
            <svg x="-16" y="-16">
                <svg viewBox="0 0 299.99999 299.99999">
                    <g transform="translate(-910,-882.3622)">
                        <path
                            vector-effect="non-scaling-stroke"
                            d="m 1060,882.3622 c -82.84236,0 -150,67.15694 -150,150 0,82.8429 67.15764,150 150,150 82.8431,0 150,-67.1571 150,-150 0,-82.84306 -67.1569,-150 -150,-150 l 0,0 z m 0,4.81528 c 38.7806,0 75.2389,15.10138 102.6611,42.52361 27.4222,27.42083 42.5236,63.88055 42.5236,102.66111 0,38.7804 -15.1014,75.2403 -42.5236,102.6611 -27.4222,27.4225 -63.8805,42.5234 -102.6611,42.5234 -38.7804,0 -75.2393,-15.1009 -102.66111,-42.5234 -27.4225,-27.4208 -42.52443,-63.8807 -42.52443,-102.6611 0,-38.78056 15.10193,-75.23889 42.52443,-102.66111 C 984.7607,902.27886 1021.2196,887.17748 1060,887.17748"
                            style="fill: #d3d2d2; fill-opacity: 1; fill-rule: nonzero; stroke: none"
                        />
                        <path
                            vector-effect="non-scaling-stroke"
                            d="m 1029.5111,970.40386 -0.339,0 0,44.93754 c 0,3.7486 3.0675,6.8166 6.8175,6.8166 l 5.8778,0 0,15.6625 c 0,3.7625 3.0523,6.8138 6.8164,6.8138 3.7634,0 6.8148,-3.0513 6.8162,-6.8138 l 0,-15.6625 9.1847,0 0,15.6625 c 0,3.7625 3.0542,6.8138 6.8181,6.8138 3.7639,0 6.8139,-3.0513 6.8166,-6.8138 l 0,-15.6625 5.7278,0 c 3.75,0 6.8167,-3.068 6.8167,-6.8166 l 0,-44.93754 -61.3528,0 z m 13.5792,-16.18888 c 0,1.6 1.2966,2.89722 2.8965,2.89722 1.6,0 2.8978,-1.29722 2.8978,-2.89722 0,-1.6 -1.2978,-2.89723 -2.8978,-2.89723 -1.5999,0 -2.8965,1.29723 -2.8965,2.89723 z m 28.0625,0 c 0,1.6 1.2972,2.89722 2.8972,2.89722 1.6,0 2.8972,-1.29722 2.8972,-2.89722 0,-1.6 -1.2972,-2.89723 -2.8972,-2.89723 -1.6,0 -2.8972,1.29723 -2.8972,2.89723 z m -41.9036,13.80416 c -0.012,-0.31111 -0.02,-0.62222 -0.02,-0.93472 0,-2.09028 0.2632,-4.125 0.7596,-6.08056 1.9134,-7.5375 7.3084,-13.9 14.6007,-17.67638 l -4.731,-8.72778 c -0.2918,-0.53889 -0.092,-1.21111 0.446,-1.50278 0.5376,-0.29167 1.2104,-0.0917 1.5018,0.44583 l 4.7868,8.83195 c 4.0718,-1.76667 8.6468,-2.75695 13.4815,-2.75695 4.7986,0 9.3403,0.97639 13.3889,2.71806 l 4.7667,-8.79306 c 0.2916,-0.5375 0.9638,-0.7375 1.5013,-0.44583 0.5375,0.29167 0.7375,0.96389 0.4459,1.50278 l -4.7056,8.68055 c 7.65,3.93195 13.2264,10.70417 14.9139,18.69723 0.1917,0.90416 0.332,1.82361 0.4208,2.75555 l 0,3.28611 -61.5577,0 z m 77.655,8.00834 c -0,-3.7625 -3.0528,-6.81389 -6.8167,-6.81389 -3.7639,0 -6.8153,3.05139 -6.8167,6.81389 l 0,28.63332 c 0,3.7639 3.0528,6.8153 6.8167,6.8153 3.7639,0 6.8153,-3.0514 6.8167,-6.8153 l 0,-28.63332 z m -80.1741,0 0,28.63332 c -0,3.7639 -3.0533,6.8153 -6.8175,6.8153 -3.7636,0 -6.8147,-3.0514 -6.8163,-6.8153 l 0,-28.63332 c 0,-3.7625 3.0527,-6.81389 6.8163,-6.81389 3.7642,0 6.8159,3.05139 6.8175,6.81389"
                            style="fill: #6ec848; fill-opacity: 1; fill-rule: nonzero; stroke: none"
                        />
                        <path
                            vector-effect="non-scaling-stroke"
                            d="m 1149.0125,1059.6968 -8.7972,0 -19.1056,45.7573 3.9042,0 -19.0514,-45.7043 -9.0583,0 21.6027,50.1292 -1.718,3.904 c -1.925,4.3209 -5.5695,6.1942 -9.057,6.1942 l -2.8638,0 0,7.8614 2.7597,0 c 7.7555,0 13.8986,-4.164 17.1778,-12.0764 l 24.2069,-56.0654 0,0 z m -56.7931,52.1082 0,-52.0552 -7.8083,0 0,5.9349 c -4.3736,-4.3739 -10.4111,-6.9765 -17.2833,-6.9765 -14.8875,0 -26.5999,12.0773 -26.5999,27.0166 0,14.993 11.7124,27.1218 26.5999,27.1218 6.8722,0 12.9097,-2.6551 17.2833,-6.9758 l 0,5.9342 7.8083,0 0,0 z m -24.518,-6.5581 c -10.6722,0 -19.3132,-8.7457 -19.3132,-19.5221 0,-10.722 8.641,-19.4683 19.3132,-19.4683 6.6625,0 12.9611,3.1239 16.1889,8.4847 0.1555,0.3125 0.5208,0.8334 0.5208,1.7182 l 0,18.4793 c -0.053,0.9375 -0.3653,1.511 -0.5722,1.7709 -3.4889,5.2055 -9.475,8.5373 -16.1375,8.5373 l 0,0 z m -76.31418,22.175 0,-21.5511 c 4.37292,4.3733 10.41128,7.0274 17.28248,7.0274 14.8361,0 26.6004,-12.1289 26.6004,-27.0681 0,-14.9929 -11.7643,-27.1219 -26.6004,-27.1219 -6.8712,0 -12.90956,2.6552 -17.28248,6.9765 l 0,-5.9349 -7.80861,0 0,67.6721 7.80861,0 0,0 z m 16.71018,-22.1235 c -6.6635,0 -12.85809,-3.175 -16.1899,-8.4847 -0.20778,-0.3125 -0.52028,-0.8333 -0.52028,-1.7182 l 0,-18.6876 c 0.0521,-0.886 0.36403,-1.4583 0.57236,-1.7176 3.48806,-5.2057 9.47432,-8.3823 16.13782,-8.3823 10.619,0 19.2605,8.7457 19.2605,19.5221 0,10.7221 -8.6415,19.4683 -19.2605,19.4683 l 0,0"
                            style="fill: #7b7979; fill-opacity: 1; fill-rule: nonzero; stroke: none"
                        />
                    </g>
                </svg>
            </svg>
        </svg>
    </g>
</svg>
