<svg
    xmlns="http://www.w3.org/2000/svg"
    width="24"
    height="24"
    viewBox="0 0 24 24"
    fill="currentColor"
    stroke="currentColor"
    stroke-width="2"
    stroke-linecap="round"
    stroke-linejoin="round"
>
    <path vector-effect="non-scaling-stroke" d="M15 7.13V6a3 3 0 0 0-5.14-2.1L8 2" />
    <path vector-effect="non-scaling-stroke" d="M14.12 3.88 16 2" />
    <path vector-effect="non-scaling-stroke" d="M22 13h-4v-2a4 4 0 0 0-4-4h-1.3" />
    <path vector-effect="non-scaling-stroke" d="M20.97 5c0 2.1-1.6 3.8-3.5 4" />
    <path vector-effect="non-scaling-stroke" d="m2 2 20 20" />
    <path vector-effect="non-scaling-stroke" d="M7.7 7.7A4 4 0 0 0 6 11v3a6 6 0 0 0 11.13 3.13" />
    <path vector-effect="non-scaling-stroke" d="M12 20v-8" />
    <path vector-effect="non-scaling-stroke" d="M6 13H2" />
    <path vector-effect="non-scaling-stroke" d="M3 21c0-2.1 1.7-3.9 3.8-4" />
</svg>
