<svg
    xmlns="http://www.w3.org/2000/svg"
    width="24"
    height="24"
    viewBox="0 0 24 24"
    fill="currentColor"
    stroke="currentColor"
    stroke-width="2"
    stroke-linecap="round"
    stroke-linejoin="round"
>
    <path vector-effect="non-scaling-stroke" d="M14 4a2 2 0 0 1 2-2" />
    <path vector-effect="non-scaling-stroke" d="M16 10a2 2 0 0 1-2-2" />
    <path vector-effect="non-scaling-stroke" d="M20 2a2 2 0 0 1 2 2" />
    <path vector-effect="non-scaling-stroke" d="M22 8a2 2 0 0 1-2 2" />
    <path vector-effect="non-scaling-stroke" d="m3 7 3 3 3-3" />
    <path vector-effect="non-scaling-stroke" d="M6 10V5a3 3 0 0 1 3-3h1" />
    <rect x="2" y="14" vector-effect="non-scaling-stroke" width="8" height="8" rx="2" />
</svg>
