<svg
    xmlns="http://www.w3.org/2000/svg"
    width="24"
    height="24"
    viewBox="0 0 24 24"
    fill="currentColor"
    stroke="currentColor"
    stroke-width="2"
    stroke-linecap="round"
    stroke-linejoin="round"
>
    <path vector-effect="non-scaling-stroke" d="M17 12v4a1 1 0 0 1-1 1h-4" />
    <path vector-effect="non-scaling-stroke" d="M17 3h2a2 2 0 0 1 2 2v2" />
    <path vector-effect="non-scaling-stroke" d="M17 8V7" />
    <path vector-effect="non-scaling-stroke" d="M21 17v2a2 2 0 0 1-2 2h-2" />
    <path vector-effect="non-scaling-stroke" d="M3 7V5a2 2 0 0 1 2-2h2" />
    <path vector-effect="non-scaling-stroke" d="M7 17h.01" />
    <path vector-effect="non-scaling-stroke" d="M7 21H5a2 2 0 0 1-2-2v-2" />
    <rect x="7" y="7" vector-effect="non-scaling-stroke" width="5" height="5" rx="1" />
</svg>
