<svg xmlns="http://www.w3.org/2000/svg" width="24" height="24" viewBox="0 0 24 24">
    <path
        vector-effect="non-scaling-stroke"
        d="M12 4c-3.31 0-6 2.69-6 6s2.69 6 6 6 6-2.69 6-6-2.69-6-6-6zm2.31 9.69L12 11.93l-2.32 1.76.88-2.85L8.25 9h2.84L12 6.19 12.91 9h2.84l-2.32 1.84.88 2.85zM12 19l-4 1.02v-3.1c1.18.68 2.54 1.08 4 1.08s2.82-.4 4-1.08v3.1L12 19z"
        opacity=".3"
    />
    <path
        vector-effect="non-scaling-stroke"
        d="M9.68 13.69 12 11.93l2.31 1.76-.88-2.85L15.75 9h-2.84L12 6.19 11.09 9H8.25l2.31 1.84-.88 2.85zM20 10c0-4.42-3.58-8-8-8s-8 3.58-8 8c0 2.03.76 3.87 2 5.28V23l6-2 6 2v-7.72A7.96 7.96 0 0 0 20 10zm-8-6c3.31 0 6 2.69 6 6s-2.69 6-6 6-6-2.69-6-6 2.69-6 6-6zm0 15-4 1.02v-3.1c1.18.68 2.54 1.08 4 1.08s2.82-.4 4-1.08v3.1L12 19z"
    />
</svg>
