<svg xmlns="http://www.w3.org/2000/svg" width="81" height="15" viewBox="0 0 81 15" fill="none">
    <g clip-path="url(#clip0_1_6)">
        <path d="M21.8858 13V6.40125H18V4.00001H28.6015V6.40125H24.7158V13H21.8858Z" fill="#B0B0B0" />
        <path d="M34.7171 8.40902H26.7184V10.4133H34.7171V8.40902Z" fill="#B0B0B0" />
        <path
            d="M45.2347 8.32988C46.3659 8.65164 46.8759 9.53994 46.8759 10.4282C46.8759 11.4874 46.253 12.3757 45.2531 12.7544C44.7632 12.943 44.178 13 43.3862 13H36.7271V4H43.2541C44.0835 4 44.6687 4.05696 45.121 4.20783C46.1586 4.54884 46.6869 5.34246 46.6869 6.30696C46.6869 7.28994 46.0457 7.9704 45.2347 8.32988ZM42.8955 7.55474C43.1597 7.55474 43.367 7.53549 43.4991 7.4793C43.8385 7.32766 43.9898 7.06286 43.9898 6.76035C43.9898 6.45783 43.8385 6.19304 43.5175 6.07988C43.367 6.02292 43.1597 6.00445 42.8955 6.00445H39.3306V7.55474H42.8955ZM42.9899 10.9201C43.2541 10.9201 43.4615 10.9016 43.612 10.8447C43.9514 10.7123 44.1027 10.4475 44.1027 10.1265C44.1027 9.82321 43.9514 9.57766 43.6496 9.4645C43.4991 9.40754 43.2917 9.38907 42.9899 9.38907H39.3306V10.9201H42.9899Z"
            fill="#B0B0B0"
        />
        <path
            d="M50.6271 11.6953L50.1179 13H47.0238L50.7023 4H54.7012L58.3797 13H55.3048L54.7772 11.6953H50.6271ZM51.306 9.71006H54.1167L52.815 6.07988H52.6077L51.306 9.71006Z"
            fill="#B0B0B0"
        />
        <path
            d="M61.6739 4L66.4084 8.93491V4H69.0118V13H66.5973L61.7499 8.02737V13H59.1465V4H61.6739Z"
            fill="#B0B0B0"
        />
        <path
            d="M73.3418 9.5969V13H70.6063V4H73.3418V7.38462H74.096L77.3967 4H80.8303L76.4536 8.31141L81 13H77.3591L74.096 9.5969H73.3418Z"
            fill="#B0B0B0"
        />
        <path
            d="M3.22534 13.0622C2.60694 13.0622 2.08827 12.9126 1.66935 12.6134C1.25043 12.3102 0.933252 11.9012 0.717807 11.3865C0.502363 10.8719 0.394641 10.2914 0.394641 9.64502C0.394641 8.99869 0.500368 8.41818 0.711823 7.90351C0.927267 7.38884 1.24245 6.98388 1.65738 6.68864C2.0763 6.38941 2.59098 6.2398 3.2014 6.2398C3.80784 6.2398 4.33049 6.38941 4.76936 6.68864C5.21222 6.98388 5.55334 7.38884 5.79272 7.90351C6.0321 8.41419 6.1518 8.9947 6.1518 9.64502C6.1518 10.2914 6.0321 10.8739 5.79272 11.3925C5.55733 11.9072 5.2202 12.3141 4.78133 12.6134C4.34645 12.9126 3.82779 13.0622 3.22534 13.0622ZM0.185181 12.8827V4.26489H1.44194V8.23266H1.29831V12.8827H0.185181ZM3.05179 11.9311C3.45076 11.9311 3.77991 11.8294 4.03924 11.6259C4.30256 11.4224 4.49806 11.1491 4.62573 10.806C4.75739 10.4589 4.82322 10.0719 4.82322 9.64502C4.82322 9.22211 4.75739 8.8391 4.62573 8.49598C4.49806 8.15287 4.30057 7.87957 4.03326 7.6761C3.76595 7.47262 3.42483 7.37088 3.0099 7.37088C2.61891 7.37088 2.29574 7.46664 2.0404 7.65814C1.78904 7.84965 1.60153 8.11696 1.47785 8.46008C1.35816 8.80319 1.29831 9.19817 1.29831 9.64502C1.29831 10.0919 1.35816 10.4869 1.47785 10.83C1.59754 11.1731 1.78705 11.4424 2.04638 11.6379C2.30571 11.8334 2.64085 11.9311 3.05179 11.9311Z"
            fill="#B0B0B0"
        />
        <path
            d="M7.9495 15.7553L9.20028 12.3501L9.21823 13.3555L6.3995 6.41934H7.70414L9.8107 11.7755H9.42769L11.4385 6.41934H12.7072L9.14043 15.7553H7.9495Z"
            fill="#B0B0B0"
        />
    </g>
    <defs>
        <clipPath id="clip0_1_6">
            <rect width="81" height="15" fill="white" />
        </clipPath>
    </defs>
</svg>
