<svg width="95" height="15" viewBox="0 -2 95 13" fill="none" xmlns="http://www.w3.org/2000/svg">
    <path d="M21.7279 10.358H24.8144V3.17692H29.053V0.563755H17.4893V3.17692H21.7279V10.358Z" fill="black"/>
    <path d="M33.3747 10.358V0.563755H30.2883V10.358H33.3747Z" fill="black"/>
    <path d="M38.3904 0.563755H35.6332V10.358H38.4727V4.94647L43.7608 10.358H46.3945V0.563755H43.555V5.93412L38.3904 0.563755Z" fill="black"/>
    <path d="M51.6376 6.65429H52.4606L56.0203 10.358H59.9915L55.0327 5.25511L59.8063 0.563755H56.0615L52.4606 4.24688H51.6376V0.563755H48.6541V10.358H51.6376V6.65429Z" fill="black"/>
    <path d="M66.1306 0.296265C62.1182 0.296265 59.7108 2.55964 59.7108 5.48145C59.7108 8.40326 62.1182 10.6666 66.1306 10.6666C70.1224 10.6666 72.5298 8.40326 72.5298 5.48145C72.5298 2.55964 70.1224 0.296265 66.1306 0.296265ZM66.1306 8.2798C64.1347 8.2798 62.859 7.08639 62.859 5.48145C62.859 3.87651 64.1347 2.70367 66.1306 2.70367C68.1059 2.70367 69.4022 3.87651 69.4022 5.48145C69.4022 7.08639 68.1059 8.2798 66.1306 8.2798Z" fill="black"/>
    <path d="M83.7622 3.05347V0.563755H73.9474V10.358H76.931V6.88063H83.5153V4.82301H76.931V3.05347H83.7622Z" fill="black"/>
    <path d="M94.7938 3.05347V0.563755H84.979V10.358H87.9625V6.88063H94.5469V4.82301H87.9625V3.05347H94.7938Z" fill="black"/>
    <path d="M3.22534 10.0622C2.60694 10.0622 2.08827 9.9126 1.66935 9.61337C1.25043 9.31015 0.933252 8.9012 0.717807 8.38653C0.502363 7.87186 0.394641 7.29135 0.394641 6.64502C0.394641 5.99869 0.500368 5.41818 0.711823 4.90351C0.927267 4.38884 1.24245 3.98388 1.65738 3.68864C2.0763 3.38941 2.59098 3.2398 3.2014 3.2398C3.80784 3.2398 4.33049 3.38941 4.76936 3.68864C5.21222 3.98388 5.55334 4.38884 5.79272 4.90351C6.0321 5.41419 6.1518 5.9947 6.1518 6.64502C6.1518 7.29135 6.0321 7.87385 5.79272 8.39251C5.55733 8.90719 5.2202 9.31414 4.78133 9.61337C4.34645 9.9126 3.82779 10.0622 3.22534 10.0622ZM0.185181 9.88267V1.26489H1.44194V5.23266H1.29831V9.88267H0.185181ZM3.05179 8.93113C3.45076 8.93113 3.77991 8.82939 4.03924 8.62591C4.30256 8.42244 4.49806 8.14914 4.62573 7.80603C4.75739 7.45892 4.82322 7.07192 4.82322 6.64502C4.82322 6.22211 4.75739 5.8391 4.62573 5.49598C4.49806 5.15287 4.30057 4.87957 4.03326 4.6761C3.76595 4.47262 3.42483 4.37088 3.0099 4.37088C2.61891 4.37088 2.29574 4.46664 2.0404 4.65814C1.78904 4.84965 1.60153 5.11696 1.47785 5.46008C1.35816 5.80319 1.29831 6.19817 1.29831 6.64502C1.29831 7.09187 1.35816 7.48685 1.47785 7.82996C1.59754 8.17308 1.78705 8.44239 2.04638 8.63788C2.30571 8.83338 2.64085 8.93113 3.05179 8.93113Z" fill="black"/>
    <path d="M7.9495 12.7553L9.20028 9.35005L9.21823 10.3555L6.3995 3.41934H7.70414L9.8107 8.77553H9.42769L11.4385 3.41934H12.7072L9.14043 12.7553H7.9495Z" fill="black"/>
</svg>
