<svg xmlns="http://www.w3.org/2000/svg" width="25" height="24" fill="none">
    <path d="M21.16 12a9 9 0 1 1-18 0 9 9 0 0 1 18 0Z" fill="#119BFF" />
    <path
        d="M12.17 3.47a.13.13 0 0 0-.14.13v1.51a.13.13 0 1 0 .27 0v-1.5a.13.13 0 0 0-.13-.14Zm-.86.05h-.03a.13.13 0 0 0-.12.15l.07.63c0 .07.07.13.14.12.08 0 .13-.07.12-.15l-.07-.63a.13.13 0 0 0-.11-.12Zm1.72 0a.13.13 0 0 0-.12.12l-.06.63a.13.13 0 1 0 .26.03l.06-.63a.13.13 0 0 0-.14-.15Zm-2.6.13h-.03a.13.13 0 0 0-.1.16l.31 1.48c.02.07.09.12.16.1a.13.13 0 0 0 .1-.15l-.32-1.48a.13.13 0 0 0-.13-.1Zm3.48 0a.13.13 0 0 0-.13.1l-.31 1.49c-.02.07.03.14.1.15.07.02.14-.03.15-.1l.32-1.48a.13.13 0 0 0-.13-.16Zm-4.33.24h-.05c-.07.03-.1.1-.08.17l.2.6a.13.13 0 1 0 .24-.08l-.2-.6a.13.13 0 0 0-.1-.1Zm5.17 0c-.05 0-.1.04-.12.09l-.2.6a.13.13 0 1 0 .26.09l.2-.6a.13.13 0 0 0-.14-.18Zm-6 .3-.05.01c-.07.03-.1.11-.07.18l.62 1.38c.03.07.1.1.17.07s.1-.1.07-.18l-.62-1.38a.13.13 0 0 0-.12-.08Zm6.84 0c-.05 0-.1.04-.12.09l-.62 1.38a.13.13 0 1 0 .24.1l.62-1.38a.13.13 0 0 0-.12-.18Zm-7.61.41c-.03 0-.05 0-.08.02a.13.13 0 0 0-.04.18l.31.55a.13.13 0 1 0 .23-.13l-.32-.55a.13.13 0 0 0-.1-.07Zm8.37 0a.13.13 0 0 0-.1.07l-.32.55a.13.13 0 1 0 .23.13l.31-.55a.13.13 0 0 0-.12-.2Zm-9.12.47a.13.13 0 0 0-.1.2l.89 1.23a.13.13 0 1 0 .2-.15l-.88-1.23a.13.13 0 0 0-.11-.05Zm9.88 0a.13.13 0 0 0-.11.06l-.89 1.22a.13.13 0 1 0 .21.15l.9-1.21a.13.13 0 0 0-.1-.21Zm-10.55.56c-.04 0-.07.01-.1.04a.13.13 0 0 0 0 .18l.42.47c.05.06.13.06.19.01a.13.13 0 0 0 0-.18l-.42-.47a.13.13 0 0 0-.1-.05Zm11.21 0a.13.13 0 0 0-.09.05l-.42.47a.13.13 0 1 0 .2.18l.42-.48a.13.13 0 0 0-.1-.22Zm-11.85.62a.13.13 0 0 0-.09.23l1.13 1.01a.13.13 0 1 0 .18-.2L6 6.3a.13.13 0 0 0-.1-.04Zm12.5 0c-.03 0-.07.01-.1.04l-1.12 1a.13.13 0 1 0 .17.2l1.13-1a.13.13 0 0 0-.08-.24Zm-13.04.69a.13.13 0 0 0-.08.24l.51.37c.06.04.15.03.19-.03a.13.13 0 0 0-.03-.18l-.52-.38a.13.13 0 0 0-.07-.02Zm13.57 0c-.02 0-.05.01-.07.03l-.52.37a.13.13 0 1 0 .16.21l.51-.37a.13.13 0 0 0-.08-.24Zm-14.07.73a.13.13 0 0 0-.06.24l1.32.76a.13.13 0 1 0 .13-.23L4.96 7.7a.13.13 0 0 0-.08-.02Zm14.57 0c-.03 0-.05 0-.08.02l-1.3.75a.13.13 0 0 0-.05.18c.03.07.11.09.17.05l1.31-.76a.13.13 0 0 0-.05-.24ZM4.5 8.45c-.05 0-.1.03-.12.08-.03.07 0 .14.07.17l.58.26a.13.13 0 1 0 .1-.24l-.57-.26a.13.13 0 0 0-.06 0Zm15.33 0-.05.02-.58.26a.13.13 0 1 0 .1.24l.58-.26a.13.13 0 0 0-.05-.25Zm-15.66.82c-.05 0-.1.04-.12.09-.02.07.02.14.09.16l1.44.47a.13.13 0 1 0 .08-.25l-1.44-.47h-.05Zm16 0h-.06l-1.44.48a.13.13 0 1 0 .08.25l1.44-.47a.13.13 0 0 0-.03-.26Zm-16.21.85a.13.13 0 0 0-.03.26l.62.14a.13.13 0 1 0 .06-.26l-.63-.13h-.02Zm16.41 0h-.02l-.63.14a.13.13 0 1 0 .06.26l.62-.13a.13.13 0 0 0-.03-.26ZM3.8 11a.13.13 0 0 0 0 .26l1.5.16a.13.13 0 1 0 .03-.26L3.83 11H3.8Zm16.73 0h-.02l-1.51.17a.13.13 0 1 0 .03.26l1.5-.16a.13.13 0 0 0 0-.26Zm-16.76.88a.13.13 0 1 0 0 .26h.64a.13.13 0 1 0 0-.26h-.64Zm16.15 0a.13.13 0 1 0 0 .26h.64c.07 0 .13-.06.13-.13a.13.13 0 0 0-.13-.13h-.64Zm-14.59.71H5.3l-1.5.16a.13.13 0 1 0 .03.26l1.5-.15a.13.13 0 0 0 0-.27ZM19 12.6a.13.13 0 0 0 0 .26l1.5.16a.13.13 0 1 0 .03-.26l-1.5-.16H19Zm-14.42.89h-.03l-.62.14a.13.13 0 1 0 .05.25l.63-.13a.13.13 0 0 0-.03-.26Zm15.17 0a.13.13 0 0 0-.13.1c-.01.08.03.15.1.16l.63.13c.07.02.14-.03.15-.1a.13.13 0 0 0-.1-.15l-.62-.14h-.03ZM5.63 14h-.05l-1.44.47a.13.13 0 1 0 .08.25l1.44-.47a.13.13 0 0 0-.03-.25Zm13.07 0c-.05 0-.1.04-.11.1-.02.06.01.14.08.16l1.44.47a.13.13 0 1 0 .08-.25L18.75 14h-.05ZM5.08 15.02l-.05.01-.58.26c-.07.03-.1.11-.07.18.03.06.1.1.17.06l.58-.26a.13.13 0 0 0-.05-.25Zm14.17 0c-.05 0-.1.04-.12.09-.03.06 0 .14.06.17l.59.26a.13.13 0 1 0 .1-.24l-.58-.26a.13.13 0 0 0-.05-.01Zm-13.04.3c-.02-.01-.05 0-.07.01l-1.31.76a.13.13 0 0 0-.05.18c.03.06.11.08.18.04l1.3-.75a.13.13 0 0 0-.05-.25Zm11.9 0a.13.13 0 0 0-.06.24l1.32.75a.13.13 0 1 0 .13-.22l-1.3-.76a.13.13 0 0 0-.08-.02Zm-12.23 1.1c-.02 0-.05.01-.07.03l-.51.37a.13.13 0 1 0 .15.21l.52-.37a.13.13 0 0 0-.09-.24Zm12.56 0a.13.13 0 0 0-.08.24l.52.38c.06.04.14.03.18-.03a.13.13 0 0 0-.03-.18l-.51-.38a.13.13 0 0 0-.08-.02Zm-11.39.05c-.03 0-.07.01-.1.04l-1.12 1a.13.13 0 1 0 .18.2l1.12-1a.13.13 0 0 0-.08-.24Zm10.23 0a.13.13 0 0 0-.08.23l1.12 1.02a.13.13 0 1 0 .18-.2l-1.13-1.01a.13.13 0 0 0-.1-.03Zm-9.16.97a.13.13 0 0 0-.11.05l-.9 1.23a.13.13 0 1 0 .22.15l.89-1.22a.13.13 0 0 0-.1-.21Zm8.08 0c-.02 0-.05.01-.07.03a.13.13 0 0 0-.03.18l.9 1.23c.03.06.12.07.17.03a.13.13 0 0 0 .03-.19l-.89-1.22a.13.13 0 0 0-.1-.06Zm-9.23.2a.13.13 0 0 0-.1.04l-.42.47a.13.13 0 1 0 .2.17l.42-.47a.13.13 0 0 0-.1-.22Zm10.39 0c-.03 0-.07 0-.1.03a.13.13 0 0 0 0 .18l.42.47a.13.13 0 1 0 .2-.17l-.43-.47a.13.13 0 0 0-.09-.05Zm-8 .52c-.05 0-.1.03-.12.08l-.62 1.38a.13.13 0 1 0 .24.1l.62-1.38a.13.13 0 0 0-.12-.18Zm5.6 0-.05.01c-.07.03-.1.1-.07.18l.62 1.38a.13.13 0 1 0 .24-.1l-.62-1.4a.13.13 0 0 0-.12-.07Zm-6.68.42a.13.13 0 0 0-.1.07l-.32.55a.13.13 0 0 0 .04.18c.07.04.15.02.18-.05l.32-.55a.13.13 0 0 0-.12-.2Zm7.77 0c-.02 0-.05 0-.07.02a.13.13 0 0 0-.05.18l.32.55a.13.13 0 1 0 .22-.13l-.31-.55a.13.13 0 0 0-.1-.07Zm-5.31.02a.13.13 0 0 0-.13.1l-.32 1.49a.13.13 0 1 0 .26.05l.31-1.48a.13.13 0 0 0-.12-.16Zm2.85 0h-.03a.13.13 0 0 0-.1.16l.32 1.48a.13.13 0 1 0 .25-.05l-.31-1.48a.13.13 0 0 0-.13-.1Zm-1.42.15a.13.13 0 0 0-.14.14v1.51a.13.13 0 1 0 .27 0v-1.51a.13.13 0 0 0-.13-.14Zm-2.41.5c-.05 0-.1.03-.12.08l-.2.61a.13.13 0 1 0 .26.08l.2-.6a.13.13 0 0 0-.14-.18Zm4.81 0h-.05c-.07.02-.1.1-.08.17l.2.6c.02.07.09.1.16.09.07-.03.1-.1.08-.17l-.2-.6a.13.13 0 0 0-.1-.1Zm-3.23.33a.13.13 0 0 0-.12.12l-.06.63c-.01.07.04.14.11.15.08 0 .14-.05.15-.12l.06-.63a.13.13 0 0 0-.14-.15Zm1.64 0h-.02a.13.13 0 0 0-.12.15l.07.63c0 .07.07.12.14.12.07-.01.12-.08.12-.15l-.07-.63a.13.13 0 0 0-.12-.12Z"
        fill="#F4F2F3"
    />
    <g opacity=".41" filter="url(#a)"><path d="m18.32 6.75-7.18 4.17-4.54 7.15 6.64-4.92 5.08-6.4Z" fill="#000" /></g>
    <path d="m13.2 13.08-2.06-2.16 7.3-4.9-5.25 7.06Z" fill="#FF5150" />
    <path d="m13.2 13.08-2.06-2.16L5.89 18l7.3-4.91Z" fill="#F1F1F1" />
    <path opacity=".24" d="m5.9 17.99 7.3-4.91L18.43 6 5.89 18Z" fill="#000" />
    <defs>
        <filter
            id="a"
            x="5.92"
            y="6.08"
            width="13.06"
            height="12.66"
            filterUnits="userSpaceOnUse"
            color-interpolation-filters="sRGB"
        >
            <feFlood flood-opacity="0" result="BackgroundImageFix" />
            <feBlend in="SourceGraphic" in2="BackgroundImageFix" result="shape" />
            <feGaussianBlur stdDeviation=".34" result="effect1_foregroundBlur_5_917" />
        </filter>
    </defs>
</svg>
