<svg xmlns="http://www.w3.org/2000/svg" width="16" height="16" focusable="false"><g id="tuiIconCheckList" xmlns="http://www.w3.org/2000/svg" transform="translate(-8,-8)"><svg x="50%" y="50%"><svg width="16" height="16" viewBox="0 0 16 16" fill="none" xmlns="http://www.w3.org/2000/svg"><path d="M10.5 3h1.25c.332 0 .65.14.884.39.234.25.366.59.366.943v9.334c0 .353-.132.692-.366.943-.235.25-.553.39-.884.39h-7.5c-.332 0-.65-.14-.884-.39A1.38 1.38 0 0 1 3 13.667V4.333c0-.353.132-.692.366-.942.235-.25.552-.391.884-.391H5.5" stroke="currentColor" stroke-width="2" stroke-linecap="round" stroke-linejoin="round"/><path d="M10.25 1h-4.5a.75.75 0 0 0-.75.75v1.5c0 .414.336.75.75.75h4.5a.75.75 0 0 0 .75-.75v-1.5a.75.75 0 0 0-.75-.75z" stroke="currentColor" stroke-width="2" stroke-linecap="round" stroke-linejoin="round"/></svg></svg></g></svg>