<svg xmlns="http://www.w3.org/2000/svg" width="24" height="24" viewBox="0 0 24 24">
    <path
        vector-effect="non-scaling-stroke"
        d="M9.27 4.49A7.997 7.997 0 0 0 4 12c0 4.41 3.59 8 8 8 1.81 0 3.54-.62 4.93-1.71-3.91-1.39-9.29-6.26-7.66-13.8z"
        opacity=".3"
    />
    <path
        vector-effect="non-scaling-stroke"
        d="M12.34 2.02c-.12 0-.23-.01-.35-.01C6.4 2.01 2 6.54 2 12c0 5.52 4.48 10 10 10 3.71 0 6.93-2.02 8.66-5.02-7.51-.25-12.09-8.43-8.32-14.96zM12 20c-4.41 0-8-3.59-8-8 0-3.45 2.2-6.4 5.27-7.51-1.63 7.54 3.75 12.41 7.66 13.8A7.993 7.993 0 0 1 12 20z"
    />
</svg>
