<svg xmlns="http://www.w3.org/2000/svg" width="24" height="24" viewBox="0 0 24 24">
    <path
        vector-effect="non-scaling-stroke"
        d="M8.1 14.15A4.01 4.01 0 0 1 11 18c0 .68-.19 1.31-.48 1.87a8 8 0 0 0 5.61-1.01c-2.62-.92-5.23-2.82-6.8-5.86-1.59-3.06-1.55-5.91-1.04-8.1a7.966 7.966 0 0 0-4.3 7.1h.02c1.65 0 3.17.83 4.09 2.15z"
        opacity=".3"
    />
    <path
        vector-effect="non-scaling-stroke"
        d="M19.78 17.51c-2.47 0-6.57-1.33-8.68-5.43-2.33-4.51-.5-8.48.53-10.07C6.27 2.2 1.98 6.59 1.98 12c0 .14.02.28.02.42.61-.26 1.28-.42 1.98-.42 0-3.09 1.73-5.77 4.3-7.1-.5 2.19-.54 5.04 1.04 8.1 1.57 3.04 4.18 4.95 6.8 5.86a8 8 0 0 1-5.61 1.01c-.37.7-.94 1.27-1.64 1.64.98.32 2.03.5 3.11.5 3.5 0 6.58-1.8 8.37-4.52-.17.01-.37.02-.57.02z"
    />
    <path
        vector-effect="non-scaling-stroke"
        d="M7 16h-.18C6.4 14.84 5.3 14 4 14c-1.66 0-3 1.34-3 3s1.34 3 3 3h3c1.1 0 2-.9 2-2s-.9-2-2-2z"
    />
</svg>
