<svg xmlns="http://www.w3.org/2000/svg" width="24" height="24" viewBox="0 0 24 24">
    <path
        vector-effect="non-scaling-stroke"
        d="M11.71 17.99A5.993 5.993 0 0 1 6 12c0-3.31 2.69-6 6-6 3.22 0 5.84 2.53 5.99 5.71l-2.1-.63a3.999 3.999 0 1 0-4.81 4.81l.63 2.1zM22 12c0 .3-.01.6-.04.9l-1.97-.59c.01-.1.01-.21.01-.31 0-4.42-3.58-8-8-8s-8 3.58-8 8 3.58 8 8 8c.1 0 .21 0 .31-.01l.59 1.97c-.3.03-.6.04-.9.04-5.52 0-10-4.48-10-10S6.48 2 12 2s10 4.48 10 10zm-3.77 4.26 2.27-.76c.46-.15.45-.81-.01-.95l-7.6-2.28c-.38-.11-.74.24-.62.62l2.28 7.6c.14.47.8.48.95.01l.76-2.27 3.91 3.91c.2.2.51.2.71 0l1.27-1.27c.2-.2.2-.51 0-.71l-3.92-3.9z"
    />
</svg>
