<svg xmlns="http://www.w3.org/2000/svg" width="24" height="24" viewBox="0 0 24 24">
    <path
        vector-effect="non-scaling-stroke"
        d="M21 10V4c0-1.1-.9-2-2-2H3c-1.1 0-1.99.9-1.99 2L1 16c0 1.1.9 2 2 2h11v-5c0-1.66 1.34-3 3-3h4zm-9.47.67c-.32.2-.74.2-1.06 0L3.4 6.25a.85.85 0 1 1 .9-1.44L11 9l6.7-4.19a.85.85 0 1 1 .9 1.44l-7.07 4.42z"
    />
    <path
        vector-effect="non-scaling-stroke"
        d="M22 14c-.55 0-1 .45-1 1v3c0 1.1-.9 2-2 2s-2-.9-2-2v-4.5c0-.28.22-.5.5-.5s.5.22.5.5V17c0 .55.45 1 1 1s1-.45 1-1v-3.5a2.5 2.5 0 0 0-5 0V18c0 2.21 1.79 4 4 4s4-1.79 4-4v-3c0-.55-.45-1-1-1z"
    />
</svg>
