<svg xmlns="http://www.w3.org/2000/svg" width="24" height="24" viewBox="0 0 24 24">
    <path
        vector-effect="non-scaling-stroke"
        d="M18 12c0 .55.45 1 1 1h2c.55 0 1-.45 1-1s-.45-1-1-1h-2c-.55 0-1 .45-1 1zm-1.41 4.82a.966.966 0 0 0 .2 1.37c.53.39 1.09.81 1.62 1.21.44.33 1.06.24 1.38-.2 0-.01.01-.01.01-.02a.978.978 0 0 0-.2-1.38c-.53-.4-1.09-.82-1.61-1.21a.993.993 0 0 0-1.39.21c0 .01-.01.02-.01.02zm3.22-12.01c0-.01-.01-.01-.01-.02a.98.98 0 0 0-1.38-.2c-.53.4-1.1.82-1.62 1.22-.44.33-.52.95-.19 1.38 0 .01.01.01.01.02.33.44.94.53 1.38.2.53-.39 1.09-.82 1.62-1.22.43-.32.51-.94.19-1.38zM8 9H4c-1.1 0-2 .9-2 2v2c0 1.1.9 2 2 2h1v3c0 .55.45 1 1 1s1-.45 1-1v-3h1l5 3V6L8 9zm7.5 3c0-1.33-.58-2.53-1.5-3.35v6.69c.92-.81 1.5-2.01 1.5-3.34z"
    />
</svg>
