<svg xmlns="http://www.w3.org/2000/svg" width="24" height="24" viewBox="0 0 24 24">
    <path
        vector-effect="non-scaling-stroke"
        d="M11.15 3.4 7.43 9.48c-.41.66.07 1.52.85 1.52h7.43c.78 0 1.26-.86.85-1.52L12.85 3.4a.993.993 0 0 0-1.7 0z"
    />
    <circle vector-effect="non-scaling-stroke" cx="17.5" cy="17.5" r="4.5" />
    <path
        vector-effect="non-scaling-stroke"
        d="M4 21.5h6c.55 0 1-.45 1-1v-6c0-.55-.45-1-1-1H4c-.55 0-1 .45-1 1v6c0 .55.45 1 1 1z"
    />
</svg>
