<svg xmlns="http://www.w3.org/2000/svg" width="24" height="24" viewBox="0 0 24 24">
    <path
        vector-effect="non-scaling-stroke"
        d="M18.29 17.29a.996.996 0 0 0 0-1.41L14.42 12l3.88-3.88a.996.996 0 1 0-1.41-1.41L12.3 11.3a.996.996 0 0 0 0 1.41l4.59 4.59c.38.38 1.01.38 1.4-.01z"
    />
    <path
        vector-effect="non-scaling-stroke"
        d="M11.7 17.29a.996.996 0 0 0 0-1.41L7.83 12l3.88-3.88a.996.996 0 1 0-1.41-1.41L5.71 11.3a.996.996 0 0 0 0 1.41l4.59 4.59c.38.38 1.01.38 1.4-.01z"
    />
</svg>
