<svg xmlns="http://www.w3.org/2000/svg" width="24" height="24" viewBox="0 0 24 24">
    <path
        vector-effect="non-scaling-stroke"
        d="M17.29 5.71a.996.996 0 0 0-1.41 0L12 9.58 8.11 5.7A.996.996 0 1 0 6.7 7.11l4.59 4.59c.39.39 1.02.39 1.41 0l4.59-4.59a.984.984 0 0 0 0-1.4z"
    />
    <path
        vector-effect="non-scaling-stroke"
        d="M17.29 12.3a.996.996 0 0 0-1.41 0L12 16.17l-3.88-3.88a.996.996 0 1 0-1.41 1.41l4.59 4.59c.39.39 1.02.39 1.41 0l4.59-4.59a.993.993 0 0 0-.01-1.4z"
    />
</svg>
