<svg xmlns="http://www.w3.org/2000/svg" width="24" height="24" viewBox="0 0 24 24">
    <path
        vector-effect="non-scaling-stroke"
        d="M6.7 18.29c.39.39 1.02.39 1.41 0L12 14.42l3.88 3.88a.996.996 0 1 0 1.41-1.41L12.7 12.3a.996.996 0 0 0-1.41 0L6.7 16.88a.996.996 0 0 0 0 1.41z"
    />
    <path
        vector-effect="non-scaling-stroke"
        d="M6.7 11.7c.39.39 1.02.39 1.41 0L12 7.83l3.88 3.88a.996.996 0 1 0 1.41-1.41L12.7 5.71a.996.996 0 0 0-1.41 0L6.7 10.29a.996.996 0 0 0 0 1.41z"
    />
</svg>
