<svg xmlns="http://www.w3.org/2000/svg" width="24" height="24" viewBox="0 0 24 24">
    <path
        vector-effect="non-scaling-stroke"
        d="M16.23 7h2.6c-.06-.47-.36-.94-.79-1.17L11.4 2.45c-.56-.29-1.23-.29-1.8-.01L2.8 5.83c-.48.26-.8.81-.8 1.34V15c0 1.1.9 2 2 2V7.4L10.5 4l5.73 3z"
    />
    <path
        vector-effect="non-scaling-stroke"
        d="M20 8H7c-1.1 0-2 .9-2 2v9c0 1.1.9 2 2 2h13c1.1 0 2-.9 2-2v-9c0-1.1-.9-2-2-2zm0 3.46c0 .33-.19.64-.48.79l-5.61 2.88a.89.89 0 0 1-.81 0l-5.61-2.88a.887.887 0 1 1 .81-1.58l5.2 2.67 5.2-2.67c.6-.31 1.3.12 1.3.79z"
    />
</svg>
