<svg xmlns="http://www.w3.org/2000/svg" width="24" height="24" viewBox="0 0 24 24">
    <path
        vector-effect="non-scaling-stroke"
        d="m21.31 17.38-2.39-2.13c.52-2.36-1.36-4.25-3.42-4.25-1.16 0-3.5.9-3.5 3.5 0 .81.27 1.55.74 2.15.15.2.14.48-.04.66a.51.51 0 0 1-.75-.04c-.6-.77-.95-1.73-.95-2.77 0-1.7.96-3.17 2.35-3.93a5 5 0 0 0-2.28-.57c-2.38 0-4.37 1.65-4.91 3.87a2.993 2.993 0 0 1-2.15-3.14C4.15 9.16 5.54 8 7.11 8h2c1.58 0 2.75-.95 2.87-2.25A2.49 2.49 0 0 0 9.5 3H8.05c-.5 0-.96.34-1.04.83C6.91 4.46 7.39 5 8 5h1.5c.28 0 .5.22.5.5s-.22.5-.5.5H7.16c-2.67 0-4.99 2.03-5.15 4.7A4.995 4.995 0 0 0 6 15.9v.03C6 18.73 8.27 21 11.07 21h8.86c1.87 0 2.81-2.34 1.38-3.62zM18 19c-.55 0-1-.45-1-1s.45-1 1-1 1 .45 1 1-.45 1-1 1z"
    />
</svg>
