<svg xmlns="http://www.w3.org/2000/svg" width="24" height="24" viewBox="0 0 24 24">
    <path
        vector-effect="non-scaling-stroke"
        d="M21.5 1h-4c-.55 0-1 .45-1 1s.45 1 1 1h1.58l-3.97 3.97C14.23 6.36 13.16 6 12 6s-2.23.36-3.11.97l-.65-.65.7-.7a.996.996 0 1 0-1.41-1.41l-.7.7L4.92 3H6.5c.55 0 1-.45 1-1s-.45-1-1-1h-4c-.55 0-1 .45-1 1v4c0 .55.45 1 1 1s1-.45 1-1V4.42l1.91 1.9-.71.71a.996.996 0 1 0 1.41 1.41l.71-.71.65.65A5.5 5.5 0 0 0 11 16.91V19h-1c-.55 0-1 .45-1 1s.45 1 1 1h1v1c0 .55.45 1 1 1s1-.45 1-1v-1h1c.55 0 1-.45 1-1s-.45-1-1-1h-1v-2.09a5.5 5.5 0 0 0 3.53-8.53l3.97-3.96V6c0 .55.45 1 1 1s1-.45 1-1V2c0-.55-.45-1-1-1zM12 15c-1.93 0-3.5-1.57-3.5-3.5S10.07 8 12 8s3.5 1.57 3.5 3.5S13.93 15 12 15z"
    />
</svg>
