<svg
    xmlns="http://www.w3.org/2000/svg"
    width="24"
    height="24"
    viewBox="0 0 24 24"
    fill="none"
    stroke="currentColor"
    stroke-width="calc((100vw - 100vh) / 10)"
    stroke-linecap="round"
    stroke-linejoin="round"
>
    <path
        vector-effect="non-scaling-stroke"
        d="M9.5 22.5C9.5 22.5 9.44215 19.2402 9.7098 18.5C9.97746 17.7598 10.7098 17.2382 10.7098 16.75C10.7098 16.2618 9.7098 16 9.7098 16C6.91765 15.6844 4 14.5958 4 9.76778C4 8.39512 4.48627 7.25912 5.28627 6.37556C5.16078 6.06001 4.72157 4.76623 5.41176 3.03068C5.41176 3.03068 6.46274 2.69935 8.86274 4.32446C9.86667 4.04046 10.9333 3.89846 12 3.89846C13.0667 3.89846 14.1333 4.04046 15.1373 4.32446C17.5373 2.68357 18.5882 3.03068 18.5882 3.03068C19.2784 4.76623 18.8392 6.06001 18.7137 6.37556C19.5137 7.25912 20 8.37934 20 9.76778C20 14.6116 17.0667 15.6844 14.2745 16C14.2745 16 13.2745 16.2618 13.2745 16.75C13.2745 17.2382 14.0069 17.7598 14.2745 18.5C14.5422 19.2402 14.5 22.5 14.5 22.5M4 17.5C4.84211 17.5 5.57895 17.5 6.10526 19.25C6.56862 20.7906 8.44737 20.6944 9.5 20.5"
    />
</svg>
