<svg
    xmlns="http://www.w3.org/2000/svg"
    width="24"
    height="24"
    viewBox="0 0 24 24"
    fill="currentColor"
    stroke="currentColor"
    stroke-width="2"
    stroke-linecap="round"
    stroke-linejoin="round"
>
    <path vector-effect="non-scaling-stroke" d="m16 22-1-4" />
    <path
        vector-effect="non-scaling-stroke"
        d="M19 13.99a1 1 0 0 0 1-1V12a2 2 0 0 0-2-2h-3a1 1 0 0 1-1-1V4a2 2 0 0 0-4 0v5a1 1 0 0 1-1 1H6a2 2 0 0 0-2 2v.99a1 1 0 0 0 1 1"
    />
    <path vector-effect="non-scaling-stroke" d="M5 14h14l1.973 6.767A1 1 0 0 1 20 22H4a1 1 0 0 1-.973-1.233z" />
    <path vector-effect="non-scaling-stroke" d="m8 22 1-4" />
</svg>
