<svg
    xmlns="http://www.w3.org/2000/svg"
    width="24"
    height="24"
    viewBox="0 0 24 24"
    fill="currentColor"
    stroke="currentColor"
    stroke-width="2"
    stroke-linecap="round"
    stroke-linejoin="round"
>
    <path
        vector-effect="non-scaling-stroke"
        d="M17 19a1 1 0 0 1-1-1v-2a2 2 0 0 1 2-2h2a2 2 0 0 1 2 2v2a1 1 0 0 1-1 1z"
    />
    <path vector-effect="non-scaling-stroke" d="M17 21v-2" />
    <path vector-effect="non-scaling-stroke" d="M19 14V6.5a1 1 0 0 0-7 0v11a1 1 0 0 1-7 0V10" />
    <path vector-effect="non-scaling-stroke" d="M21 21v-2" />
    <path vector-effect="non-scaling-stroke" d="M3 5V3" />
    <path vector-effect="non-scaling-stroke" d="M4 10a2 2 0 0 1-2-2V6a1 1 0 0 1 1-1h4a1 1 0 0 1 1 1v2a2 2 0 0 1-2 2z" />
    <path vector-effect="non-scaling-stroke" d="M7 5V3" />
</svg>
