<svg
    xmlns="http://www.w3.org/2000/svg"
    width="24"
    height="24"
    viewBox="0 0 24 24"
    fill="none"
    stroke="currentColor"
    stroke-width="2"
    stroke-linecap="round"
    stroke-linejoin="round"
>
    <path vector-effect="non-scaling-stroke" d="M10 7v10.9" />
    <path vector-effect="non-scaling-stroke" d="M14 6.1V17" />
    <path
        vector-effect="non-scaling-stroke"
        d="M16 7V3a1 1 0 0 1 1.707-.707 2.5 2.5 0 0 0 2.152.717 1 1 0 0 1 1.131 1.131 2.5 2.5 0 0 0 .717 2.152A1 1 0 0 1 21 8h-4"
    />
    <path
        vector-effect="non-scaling-stroke"
        d="M16.536 7.465a5 5 0 0 0-7.072 0l-2 2a5 5 0 0 0 0 7.07 5 5 0 0 0 7.072 0l2-2a5 5 0 0 0 0-7.07"
    />
    <path
        vector-effect="non-scaling-stroke"
        d="M8 17v4a1 1 0 0 1-1.707.707 2.5 2.5 0 0 0-2.152-.717 1 1 0 0 1-1.131-1.131 2.5 2.5 0 0 0-.717-2.152A1 1 0 0 1 3 16h4"
    />
</svg>
