<svg
    xmlns="http://www.w3.org/2000/svg"
    width="24"
    height="24"
    viewBox="0 0 24 24"
    fill="none"
    stroke="currentColor"
    stroke-width="2"
    stroke-linecap="round"
    stroke-linejoin="round"
>
    <path vector-effect="non-scaling-stroke" d="M12 12H3a1 1 0 0 0-1 1v2a1 1 0 0 0 1 1h13" />
    <path vector-effect="non-scaling-stroke" d="M18 8c0-2.5-2-2.5-2-5" />
    <path vector-effect="non-scaling-stroke" d="m2 2 20 20" />
    <path vector-effect="non-scaling-stroke" d="M21 12a1 1 0 0 1 1 1v2a1 1 0 0 1-.5.866" />
    <path vector-effect="non-scaling-stroke" d="M22 8c0-2.5-2-2.5-2-5" />
    <path vector-effect="non-scaling-stroke" d="M7 12v4" />
</svg>
