<svg
    xmlns="http://www.w3.org/2000/svg"
    width="24"
    height="24"
    viewBox="0 0 24 24"
    fill="none"
    stroke="currentColor"
    stroke-width="2"
    stroke-linecap="round"
    stroke-linejoin="round"
>
    <path vector-effect="non-scaling-stroke" d="M4 22h14a2 2 0 0 0 2-2V7l-5-5H6a2 2 0 0 0-2 2v4" />
    <path vector-effect="non-scaling-stroke" d="M14 2v4a2 2 0 0 0 2 2h4" />
    <rect x="2" y="12" vector-effect="non-scaling-stroke" width="8" height="6" rx="1" />
    <path
        vector-effect="non-scaling-stroke"
        d="m10 13.843 3.033-1.755a.645.645 0 0 1 .967.56v4.704a.645.645 0 0 1-.967.56L10 16.157"
    />
</svg>
