<svg
    xmlns="http://www.w3.org/2000/svg"
    width="24"
    height="24"
    viewBox="0 0 24 24"
    fill="currentColor"
    stroke="currentColor"
    stroke-width="2"
    stroke-linecap="round"
    stroke-linejoin="round"
>
    <path
        vector-effect="non-scaling-stroke"
        d="M12.662 21H5a2 2 0 0 1-2-2v-9a2 2 0 0 1 .709-1.528l7-5.999a2 2 0 0 1 2.582 0l7 5.999A2 2 0 0 1 21 10v2.475"
    />
    <path vector-effect="non-scaling-stroke" d="M14.959 12.717A1 1 0 0 0 14 12h-4a1 1 0 0 0-1 1v8" />
    <path vector-effect="non-scaling-stroke" d="M15 18h6" />
    <path vector-effect="non-scaling-stroke" d="M18 15v6" />
</svg>
