<svg
    xmlns="http://www.w3.org/2000/svg"
    width="24"
    height="24"
    viewBox="0 0 24 24"
    fill="currentColor"
    stroke="currentColor"
    stroke-width="2"
    stroke-linecap="round"
    stroke-linejoin="round"
>
    <path vector-effect="non-scaling-stroke" d="M9.5 13.866a4 4 0 0 1 5 .01" />
    <path vector-effect="non-scaling-stroke" d="M12 17h.01" />
    <path
        vector-effect="non-scaling-stroke"
        d="M3 10a2 2 0 0 1 .709-1.528l7-5.999a2 2 0 0 1 2.582 0l7 5.999A2 2 0 0 1 21 10v9a2 2 0 0 1-2 2H5a2 2 0 0 1-2-2z"
    />
    <path vector-effect="non-scaling-stroke" d="M7 10.754a8 8 0 0 1 10 0" />
</svg>
