<svg
    xmlns="http://www.w3.org/2000/svg"
    width="24"
    height="24"
    viewBox="0 0 24 24"
    fill="currentColor"
    stroke="currentColor"
    stroke-width="2"
    stroke-linecap="round"
    stroke-linejoin="round"
>
    <path vector-effect="non-scaling-stroke" d="m14.305 19.53.923-.382" />
    <path vector-effect="non-scaling-stroke" d="m15.228 16.852-.923-.383" />
    <path vector-effect="non-scaling-stroke" d="m16.852 15.228-.383-.923" />
    <path vector-effect="non-scaling-stroke" d="m16.852 20.772-.383.924" />
    <path vector-effect="non-scaling-stroke" d="m19.148 15.228.383-.923" />
    <path vector-effect="non-scaling-stroke" d="m19.53 21.696-.382-.924" />
    <path vector-effect="non-scaling-stroke" d="M2 7.82a15 15 0 0 1 20 0" />
    <path vector-effect="non-scaling-stroke" d="m20.772 16.852.924-.383" />
    <path vector-effect="non-scaling-stroke" d="m20.772 19.148.924.383" />
    <path vector-effect="non-scaling-stroke" d="M5 11.858a10 10 0 0 1 11.5-1.785" />
    <path vector-effect="non-scaling-stroke" d="M8.5 15.429a5 5 0 0 1 2.413-1.31" />
    <circle vector-effect="non-scaling-stroke" cx="18" cy="18" r="3" />
</svg>
