<svg focusable="false" height="1.5em" width="1.5em" xmlns="http://www.w3.org/2000/svg">
    <g id="tuiIconCopyLarge" xmlns="http://www.w3.org/2000/svg">
        <svg fill="none" height="1.5em" overflow="visible" viewBox="0 0 24 24" width="1.5em" x="50%" y="50%">
            <svg x="-12" xmlns="http://www.w3.org/2000/svg" y="-12">
                <path
                    d="M20 9h-9a2 2 0 0 0-2 2v9a2 2 0 0 0 2 2h9a2 2 0 0 0 2-2v-9a2 2 0 0 0-2-2z"
                    stroke="currentColor"
                    stroke-linecap="round"
                    stroke-linejoin="round"
                    stroke-width="2"
                />
                <path
                    d="M5 15H4a2 2 0 0 1-2-2V4a2 2 0 0 1 2-2h9a2 2 0 0 1 2 2v1"
                    stroke="currentColor"
                    stroke-linecap="round"
                    stroke-linejoin="round"
                    stroke-width="2"
                />
            </svg>
        </svg>
    </g>
</svg>
