<svg xmlns="http://www.w3.org/2000/svg" viewBox="0 0 576 512">
    <path
        vector-effect="non-scaling-stroke"
        d="M123.6 34.5c66.4 50.1 137.9 151.5 164.2 206C314 186 385.5 84.5 452 34.5c48-36.1 125.6-64.1 125.6 24.9c0 17.8-10.1 149.2-16.1 170.5c-20.7 74.2-96.1 93.1-163.1 81.6c117.2 20 147 86.3 82.6 152.6C358.7 590 305.2 432.5 291.5 392.1c-2.5-7.5-3.7-10.9-3.7-7.9c0-3.1-1.2 .4-3.7 7.9C270.4 432.5 216.9 590 94.6 464.1C30.2 397.8 60 331.5 177.2 311.5C110.2 322.9 34.8 304 14.1 229.8C8.1 208.5-2 77.1-2 59.3c0-88.9 77.7-61 125.6-24.9z"
    />
</svg>
