<svg focusable="false" height="1em" width="1em" xmlns="http://www.w3.org/2000/svg">
    <g id="tuiIconCopy" xmlns="http://www.w3.org/2000/svg">
        <svg
            fill="none"
            height="1em"
            overflow="visible"
            viewBox="0 0 16 16"
            width="1em"
            x="50%"
            xmlns="http://www.w3.org/2000/svg"
            y="50%"
        >
            <svg x="-8" y="-8">
                <path
                    d="M13.615 6h-6.23C6.62 6 6 6.62 6 7.385v6.23C6 14.38 6.62 15 7.385 15h6.23C14.38 15 15 14.38 15 13.615v-6.23C15 6.62 14.38 6 13.615 6z"
                    stroke="currentColor"
                    stroke-linecap="round"
                    stroke-linejoin="round"
                    stroke-width="2"
                />
                <path
                    d="M3.077 10h-.692A1.385 1.385 0 0 1 1 8.615v-6.23A1.385 1.385 0 0 1 2.385 1h6.23A1.385 1.385 0 0 1 10 2.385v.692"
                    stroke="currentColor"
                    stroke-linecap="round"
                    stroke-linejoin="round"
                    stroke-width="2"
                />
            </svg>
        </svg>
    </g>
</svg>
