<svg xmlns="http://www.w3.org/2000/svg" width="24" height="24" viewBox="0 0 24 24">
    <circle vector-effect="non-scaling-stroke" cx="17.5" cy="17.5" r="2.5" opacity=".3" />
    <path vector-effect="non-scaling-stroke" d="M5 15.5h4v4H5zm7-9.66L10.07 9h3.86z" opacity=".3" />
    <path
        vector-effect="non-scaling-stroke"
        d="m12 2-5.5 9h11L12 2zm0 3.84L13.93 9h-3.87L12 5.84zM17.5 13c-2.49 0-4.5 2.01-4.5 4.5s2.01 4.5 4.5 4.5 4.5-2.01 4.5-4.5-2.01-4.5-4.5-4.5zm0 7a2.5 2.5 0 0 1 0-5 2.5 2.5 0 0 1 0 5zM11 13.5H3v8h8v-8zm-2 6H5v-4h4v4z"
    />
</svg>
