<svg xmlns="http://www.w3.org/2000/svg" width="24" height="24" viewBox="0 0 24 24">
    <path vector-effect="non-scaling-stroke" d="M12 10c-1.1 0-2 .9-2 2s.9 2 2 2 2-.9 2-2-.9-2-2-2z" opacity=".3" />
    <path
        vector-effect="non-scaling-stroke"
        d="M3 19c0 1.1.9 2 2 2h4v-2H5v-4H3v4zM3 5v4h2V5h4V3H5c-1.1 0-2 .9-2 2zm9 3c-2.21 0-4 1.79-4 4s1.79 4 4 4 4-1.79 4-4-1.79-4-4-4zm0 6c-1.1 0-2-.9-2-2s.9-2 2-2 2 .9 2 2-.9 2-2 2zm9-9c0-1.1-.9-2-2-2h-4v2h4v4h2V5zm-2 14h-4v2h4c1.1 0 2-.9 2-2v-4h-2v4z"
    />
</svg>
