<svg xmlns="http://www.w3.org/2000/svg" width="24" height="24" viewBox="0 0 24 24">
    <path
        vector-effect="non-scaling-stroke"
        d="M12 5.52 6 10.1V19h12v-8.9l-6-4.58zM8 15c-.55 0-1-.45-1-1s.45-1 1-1 1 .45 1 1-.45 1-1 1zm4 0c-.55 0-1-.45-1-1s.45-1 1-1 1 .45 1 1-.45 1-1 1zm4 0c-.55 0-1-.45-1-1s.45-1 1-1 1 .45 1 1-.45 1-1 1z"
        opacity=".3"
    />
    <path
        vector-effect="non-scaling-stroke"
        d="M12 3 1 11.4l1.21 1.59L4 11.62V21h16v-9.38l1.79 1.36L23 11.4 12 3zm6 16H6v-8.9l6-4.58 6 4.58V19zm-9-5c0 .55-.45 1-1 1s-1-.45-1-1 .45-1 1-1 1 .45 1 1zm3-1c.55 0 1 .45 1 1s-.45 1-1 1-1-.45-1-1 .45-1 1-1zm3 1c0-.55.45-1 1-1s1 .45 1 1-.45 1-1 1-1-.45-1-1z"
    />
</svg>
