<svg xmlns="http://www.w3.org/2000/svg" width="24" height="24" viewBox="0 0 24 24">
    <path
        vector-effect="non-scaling-stroke"
        d="M5 19.09h14V4.91H5v14.18zM6 7h12v2H6V7zm0 4h12v2H6v-2zm0 4h12v2H6v-2z"
        opacity=".3"
    />
    <path
        vector-effect="non-scaling-stroke"
        d="M19.5 3.5 18 2l-1.5 1.5L15 2l-1.5 1.5L12 2l-1.5 1.5L9 2 7.5 3.5 6 2 4.5 3.5 3 2v20l1.5-1.5L6 22l1.5-1.5L9 22l1.5-1.5L12 22l1.5-1.5L15 22l1.5-1.5L18 22l1.5-1.5L21 22V2l-1.5 1.5zM19 19.09H5V4.91h14v14.18zM6 15h12v2H6zm0-4h12v2H6zm0-4h12v2H6z"
    />
</svg>
