<svg xmlns="http://www.w3.org/2000/svg" width="24" height="24" viewBox="0 0 24 24">
    <path
        vector-effect="non-scaling-stroke"
        d="M9.1 5 5 9.1v5.8L9.1 19h5.8l4.1-4.1V9.1L14.9 5H9.1zM12 17c-.55 0-1-.45-1-1s.45-1 1-1 1 .45 1 1-.45 1-1 1zm1-3h-2V7h2v7z"
        opacity=".3"
    />
    <path
        vector-effect="non-scaling-stroke"
        d="M15.73 3H8.27L3 8.27v7.46L8.27 21h7.46L21 15.73V8.27L15.73 3zM19 14.9 14.9 19H9.1L5 14.9V9.1L9.1 5h5.8L19 9.1v5.8z"
    />
    <circle vector-effect="non-scaling-stroke" cx="12" cy="16" r="1" />
    <path vector-effect="non-scaling-stroke" d="M11 7h2v7h-2z" />
</svg>
