<svg xmlns="http://www.w3.org/2000/svg" width="24" height="24" viewBox="0 0 24 24">
    <path
        vector-effect="non-scaling-stroke"
        d="M12 6c-3.87 0-7 3.13-7 7s3.13 7 7 7 7-3.13 7-7-3.13-7-7-7zm1 8h-2V8h2v6z"
        opacity=".3"
    />
    <path
        vector-effect="non-scaling-stroke"
        d="M9 1h6v2H9zm10.03 6.39 1.42-1.42c-.43-.51-.9-.99-1.41-1.41l-1.42 1.42A8.962 8.962 0 0 0 12 4a9 9 0 0 0-9 9c0 4.97 4.02 9 9 9a8.994 8.994 0 0 0 7.03-14.61zM12 20c-3.87 0-7-3.13-7-7s3.13-7 7-7 7 3.13 7 7-3.13 7-7 7z"
    />
    <path vector-effect="non-scaling-stroke" d="M11 8h2v6h-2z" />
</svg>
