<svg xmlns="http://www.w3.org/2000/svg" width="24" height="24" viewBox="0 0 24 24">
    <circle vector-effect="non-scaling-stroke" cx="6" cy="17" r="2" opacity=".3" />
    <circle vector-effect="non-scaling-stroke" cx="12" cy="7" r="2" opacity=".3" />
    <circle vector-effect="non-scaling-stroke" cx="18" cy="17" r="2" opacity=".3" />
    <path
        vector-effect="non-scaling-stroke"
        d="M18 13c-2.2 0-4 1.8-4 4s1.8 4 4 4 4-1.8 4-4-1.8-4-4-4zm0 6c-1.1 0-2-.9-2-2s.9-2 2-2 2 .9 2 2-.9 2-2 2zM6 13c-2.2 0-4 1.8-4 4s1.8 4 4 4 4-1.8 4-4-1.8-4-4-4zm0 6c-1.1 0-2-.9-2-2s.9-2 2-2 2 .9 2 2-.9 2-2 2zM16 7c0-2.2-1.8-4-4-4S8 4.8 8 7s1.8 4 4 4 4-1.8 4-4zm-4 2c-1.1 0-2-.9-2-2s.9-2 2-2 2 .9 2 2-.9 2-2 2z"
    />
</svg>
