<?xml version="1.0" standalone="no"?>
<!DOCTYPE svg PUBLIC "-//W3C//DTD SVG 20010904//EN"
 "http://www.w3.org/TR/2001/REC-SVG-20010904/DTD/svg10.dtd">
<svg version="1.0" xmlns="http://www.w3.org/2000/svg"
 width="700.000000pt" height="700.000000pt" viewBox="0 0 700.000000 700.000000"
 preserveAspectRatio="xMidYMid meet">
<metadata>
Created by potrace 1.11, written by Peter Selinger 2001-2013
</metadata>
<g transform="translate(0.000000,700.000000) scale(0.100000,-0.100000)"
fill="#000000" stroke="none">
<path d="M3484 6517 c-6 -12 -67 -119 -136 -238 -70 -119 -136 -234 -147 -255
-12 -21 -31 -55 -42 -74 -28 -46 -147 -251 -241 -415 -41 -71 -101 -175 -133
-230 -32 -55 -66 -114 -76 -132 -33 -59 -291 -506 -391 -677 -54 -93 -98 -170
-98 -172 0 -2 -25 -44 -55 -95 -30 -50 -55 -93 -55 -95 0 -2 -14 -27 -31 -56
-38 -65 -115 -196 -384 -663 -282 -488 -385 -667 -473 -820 -120 -207 -293
-507 -314 -545 -11 -19 -39 -66 -62 -105 -22 -38 -47 -81 -53 -95 -7 -14 -22
-41 -34 -60 -12 -19 -80 -136 -151 -260 -71 -124 -147 -254 -168 -290 -112
-192 -211 -364 -248 -430 -14 -25 -62 -109 -107 -187 -48 -82 -78 -143 -71
-145 6 -2 500 -3 1099 -3 935 1 1089 3 1101 16 8 7 201 294 430 636 l415 623
-393 2 -392 3 173 280 c259 419 485 784 633 1025 73 118 143 231 155 250 30
47 107 170 191 307 38 62 71 113 74 113 4 0 345 -546 411 -658 14 -23 299
-484 453 -732 30 -47 106 -170 171 -275 64 -104 127 -206 139 -225 13 -19 30
-47 40 -62 l16 -28 -394 0 -395 0 415 -622 c228 -343 420 -630 427 -638 11
-13 146 -15 1112 -13 605 0 1101 1 1102 2 0 1 -96 169 -214 374 -119 204 -227
392 -241 417 -33 60 -274 475 -301 520 -11 19 -24 41 -28 49 -3 8 -66 117
-140 244 -73 126 -133 231 -133 233 0 1 -21 38 -47 81 -69 117 -143 245 -143
249 0 2 -16 28 -35 58 -19 30 -35 57 -35 60 0 2 -34 62 -75 131 -41 70 -75
128 -75 130 0 1 -37 65 -81 141 -45 76 -93 159 -107 184 -14 25 -63 109 -108
188 -46 79 -84 145 -84 147 0 2 -22 40 -50 85 -27 45 -50 83 -50 85 0 2 -62
111 -138 242 -77 131 -157 270 -179 308 -22 39 -136 237 -253 440 -117 204
-218 379 -224 390 -6 11 -30 52 -52 90 -61 102 -217 373 -246 425 -81 145
-443 767 -452 777 -8 9 -14 7 -22 -10z"/>
</g>
</svg>
