<?xml version="1.0" standalone="no"?>
<!DOCTYPE svg PUBLIC "-//W3C//DTD SVG 20010904//EN"
 "http://www.w3.org/TR/2001/REC-SVG-20010904/DTD/svg10.dtd">
<svg version="1.0" xmlns="http://www.w3.org/2000/svg"
 width="1088.000000pt" height="1088.000000pt" viewBox="0 0 1088.000000 1088.000000"
 preserveAspectRatio="xMidYMid meet">
<metadata>
Created by potrace 1.11, written by Peter Selinger 2001-2013
</metadata>
<g transform="translate(0.000000,1088.000000) scale(0.100000,-0.100000)"
fill="#000000" stroke="none">
<path d="M5414 10193 c-16 -27 -41 -68 -54 -93 -13 -25 -26 -47 -30 -50 -4 -3
-13 -18 -22 -35 -32 -65 -71 -130 -80 -133 -4 -2 -8 -12 -8 -23 0 -10 -4 -19
-9 -19 -5 0 -11 -8 -14 -17 -4 -10 -18 -36 -32 -58 -13 -22 -28 -47 -32 -55
-4 -8 -26 -48 -50 -88 -24 -41 -43 -78 -43 -83 0 -5 -4 -9 -9 -9 -5 0 -14 -12
-20 -27 -11 -30 -70 -135 -80 -143 -3 -3 -17 -27 -31 -55 -14 -27 -28 -52 -31
-55 -3 -3 -9 -12 -12 -20 -4 -8 -18 -33 -30 -55 -13 -22 -36 -62 -52 -90 -15
-27 -33 -57 -40 -65 -6 -8 -24 -40 -40 -70 -15 -30 -30 -57 -34 -60 -4 -3 -12
-16 -18 -30 -7 -14 -25 -46 -40 -72 -93 -157 -173 -300 -173 -308 0 -4 -4 -10
-8 -12 -4 -1 -29 -41 -56 -88 -27 -47 -57 -100 -67 -117 -11 -18 -27 -48 -38
-65 -10 -18 -36 -62 -56 -98 -21 -36 -45 -78 -53 -95 -9 -16 -22 -36 -29 -43
-7 -7 -13 -17 -13 -22 0 -12 -72 -133 -85 -142 -5 -4 -6 -8 -1 -8 5 0 3 -7 -4
-15 -7 -8 -22 -32 -34 -53 -11 -21 -41 -73 -66 -116 -54 -94 -77 -135 -115
-201 -15 -27 -38 -66 -50 -85 -19 -30 -53 -91 -99 -175 -6 -11 -13 -22 -16
-25 -8 -8 -39 -63 -52 -92 -7 -16 -16 -28 -20 -28 -4 0 -8 -4 -8 -9 0 -9 -229
-412 -239 -421 -3 -3 -19 -31 -36 -62 -16 -32 -33 -58 -37 -58 -4 0 -8 -8 -8
-18 0 -11 -9 -29 -20 -42 -11 -13 -20 -29 -20 -37 0 -7 -7 -16 -15 -19 -8 -4
-15 -12 -15 -19 0 -7 -17 -42 -38 -76 -22 -35 -50 -84 -64 -109 -14 -25 -51
-90 -83 -145 -32 -55 -67 -116 -78 -135 -51 -91 -72 -125 -80 -131 -5 -3 -7
-8 -6 -10 3 -4 -50 -98 -112 -202 -16 -26 -29 -52 -29 -57 0 -6 -4 -10 -8 -10
-4 0 -13 -12 -19 -27 -15 -37 -46 -87 -56 -91 -4 -2 -5 -8 -1 -13 3 -5 0 -9
-5 -9 -6 0 -11 -4 -11 -10 0 -5 -27 -55 -60 -111 -33 -55 -60 -105 -60 -110 0
-5 -4 -9 -10 -9 -5 0 -9 -3 -8 -7 3 -9 -78 -150 -100 -175 -8 -10 -12 -18 -7
-18 4 0 3 -6 -3 -12 -17 -22 -252 -430 -252 -439 0 -5 -4 -9 -10 -9 -5 0 -10
-4 -10 -10 0 -5 -20 -44 -45 -86 -25 -41 -45 -77 -45 -80 0 -2 -15 -27 -33
-56 -19 -29 -37 -60 -40 -68 -4 -8 -18 -33 -30 -55 -13 -22 -33 -56 -44 -75
-11 -19 -34 -58 -51 -86 -18 -28 -32 -56 -32 -63 0 -6 -4 -11 -10 -11 -5 0
-10 -6 -10 -14 0 -8 -6 -21 -12 -28 -7 -7 -20 -26 -28 -43 -12 -25 -54 -96
-101 -175 -5 -8 -21 -37 -35 -65 -15 -27 -31 -53 -36 -56 -5 -3 -10 -10 -10
-15 -1 -5 -6 -18 -13 -29 -27 -44 -115 -197 -115 -200 0 -2 -22 -40 -49 -84
-27 -44 -47 -82 -43 -85 3 -3 1 -6 -5 -6 -6 0 -13 -8 -17 -17 -3 -10 -10 -25
-15 -33 -30 -44 -90 -152 -96 -170 -3 -11 -10 -20 -15 -20 -5 0 -12 -10 -16
-22 -3 -11 -31 -61 -60 -110 -30 -49 -54 -93 -54 -98 0 -6 -4 -10 -10 -10 -5
0 -10 -5 -10 -11 0 -6 -16 -38 -36 -72 -20 -34 -50 -87 -67 -117 -17 -30 -37
-66 -46 -80 -36 -56 -42 -66 -53 -90 -7 -14 -27 -48 -45 -77 -18 -29 -33 -56
-33 -62 0 -5 -6 -16 -13 -23 -10 -11 -22 -31 -71 -123 -6 -11 -14 -22 -17 -25
-4 -3 -19 -30 -35 -60 -15 -30 -31 -57 -34 -60 -4 -3 -13 -18 -22 -35 -8 -16
-24 -46 -35 -65 -134 -231 -193 -334 -193 -337 0 -3 -7 -11 -15 -20 -8 -8 -13
-19 -10 -24 4 -5 2 -9 -4 -9 -5 0 -13 -10 -17 -22 -4 -13 -10 -25 -14 -28 -7
-5 -47 -74 -101 -175 -12 -22 -27 -43 -33 -47 -6 -5 -7 -8 -1 -8 7 0 7 -3 0
-8 -5 -4 -18 -23 -29 -42 -10 -19 -27 -49 -37 -67 l-18 -32 1650 0 1650 0 96
147 c53 81 122 188 154 237 32 50 61 95 66 100 4 6 14 22 22 38 8 15 18 27 23
27 4 0 8 6 8 14 0 8 6 21 13 28 7 7 31 42 52 78 22 36 47 74 57 84 10 11 18
23 18 27 0 4 20 37 45 73 25 37 45 69 45 72 0 2 5 10 10 17 22 25 150 229 150
238 0 5 7 12 15 15 8 4 15 10 15 15 0 11 131 212 144 221 6 4 8 8 4 8 -4 0 28
53 71 117 179 271 351 541 351 551 0 6 6 12 13 15 6 2 -212 4 -486 4 -274 0
-500 2 -502 5 -2 2 18 39 45 82 28 42 50 79 50 81 0 2 17 30 38 62 99 150 132
203 132 212 0 5 3 11 8 13 8 3 62 84 62 93 0 4 6 13 12 20 7 8 36 50 63 96 28
45 64 102 81 128 17 25 33 53 37 61 4 8 28 48 54 88 27 40 108 168 182 285 74
116 158 249 187 294 30 46 54 87 54 92 0 6 8 15 18 20 9 6 14 11 9 11 -8 0 82
141 98 152 6 4 7 8 3 8 -6 0 68 120 90 145 5 6 11 15 13 21 2 5 33 56 69 112
36 57 74 117 85 135 23 38 73 116 168 265 38 59 73 117 78 130 4 12 12 22 16
22 5 0 17 18 27 40 11 22 23 40 28 40 4 0 8 6 8 13 0 6 9 23 20 37 20 25 20
25 35 5 8 -11 19 -25 25 -32 5 -7 10 -15 10 -18 0 -4 14 -26 30 -50 17 -24 30
-48 30 -54 0 -6 4 -11 9 -11 5 0 14 -13 21 -30 7 -16 16 -30 21 -30 5 0 9 -5
9 -10 0 -6 19 -41 43 -78 128 -198 167 -261 167 -271 0 -6 4 -11 8 -11 5 0 23
-27 42 -60 19 -33 37 -60 42 -60 4 0 7 -3 6 -7 -2 -5 19 -42 46 -83 56 -86 78
-122 131 -205 21 -33 48 -76 60 -95 12 -19 37 -60 56 -90 18 -30 37 -56 41
-58 5 -2 8 -8 8 -13 0 -9 49 -89 61 -99 3 -3 8 -10 10 -15 3 -10 43 -74 139
-225 14 -22 82 -131 152 -242 69 -112 133 -211 142 -220 9 -10 16 -21 16 -25
0 -4 25 -44 55 -89 30 -46 55 -88 55 -93 0 -6 5 -11 10 -11 6 0 10 -7 10 -15
0 -8 5 -15 10 -15 6 0 10 -5 10 -11 0 -6 20 -41 45 -78 25 -37 45 -72 45 -79
0 -7 5 -12 10 -12 6 0 14 -8 18 -18 7 -19 102 -173 112 -182 3 -3 13 -20 23
-37 18 -33 18 -33 -5 -34 -13 0 -237 -1 -499 -1 l-477 -1 36 -56 c19 -31 39
-58 44 -59 4 -2 8 -8 8 -13 0 -8 142 -232 167 -265 14 -18 33 -48 45 -74 7
-14 18 -31 25 -38 6 -6 33 -47 59 -90 27 -42 51 -79 54 -82 3 -3 21 -30 40
-60 19 -30 71 -111 115 -180 45 -69 83 -129 85 -135 2 -5 7 -14 12 -20 4 -5
19 -24 33 -42 14 -18 25 -33 24 -35 -3 -5 94 -153 103 -156 4 -2 8 -9 8 -16 0
-7 9 -23 20 -36 11 -13 20 -29 20 -37 0 -7 3 -13 8 -13 4 0 16 -16 26 -35 11
-19 23 -35 28 -35 4 0 8 -4 8 -10 0 -8 59 -104 111 -180 5 -8 34 -53 64 -100
30 -47 59 -90 65 -97 5 -7 10 -14 10 -17 0 -2 25 -41 55 -86 30 -45 55 -86 55
-91 0 -5 5 -9 10 -9 6 0 10 -6 10 -13 0 -8 8 -21 18 -30 16 -15 160 -16 1665
-16 l1647 0 -31 52 c-17 29 -33 60 -36 70 -3 9 -9 17 -13 17 -4 0 -14 15 -21
33 -7 17 -27 55 -44 82 -30 47 -47 77 -111 193 -15 26 -32 54 -40 62 -7 8 -12
17 -11 20 0 3 -7 17 -16 33 -9 15 -25 39 -34 55 -9 15 -16 29 -16 32 0 3 -8
17 -18 32 -10 14 -19 31 -19 37 0 6 -4 11 -10 11 -5 0 -10 4 -10 10 0 5 -20
44 -45 86 -25 41 -45 80 -45 85 0 5 -5 9 -11 9 -5 0 -7 4 -4 10 3 5 1 10 -4
10 -6 0 -11 7 -11 15 0 8 -4 15 -9 15 -5 0 -11 8 -14 18 -3 9 -22 44 -41 77
-20 33 -39 67 -43 75 -4 8 -34 60 -66 115 -33 55 -69 118 -82 140 -12 22 -32
58 -45 80 -12 22 -31 52 -42 68 -11 15 -16 27 -12 27 4 0 0 8 -8 18 -9 9 -24
33 -33 52 -10 19 -21 37 -24 40 -3 3 -15 23 -26 45 -11 22 -22 42 -25 45 -3 3
-11 16 -18 29 -21 36 -50 87 -73 129 -12 20 -33 57 -47 82 -13 25 -30 52 -36
60 -7 8 -18 29 -26 45 -8 17 -32 57 -52 91 -21 34 -38 64 -38 67 0 3 -23 42
-50 86 -28 44 -50 85 -50 91 0 5 -5 10 -12 10 -6 0 -8 3 -5 7 4 3 2 12 -4 20
-13 15 -43 66 -61 103 -7 14 -16 27 -20 30 -4 3 -12 17 -17 30 -6 14 -15 32
-21 40 -20 30 -170 291 -170 296 0 3 -15 28 -33 57 -18 29 -51 84 -72 122 -21
39 -46 81 -56 94 -11 13 -19 27 -19 32 0 5 -25 49 -55 99 -30 50 -55 94 -55
99 0 5 -8 19 -18 32 -11 13 -32 49 -49 79 -17 30 -44 79 -62 108 -17 29 -31
57 -31 62 0 6 -4 10 -8 10 -5 0 -14 16 -22 35 -8 19 -17 35 -22 35 -4 0 -8 4
-8 10 0 5 -18 39 -40 75 -22 36 -40 67 -40 70 0 4 -106 187 -131 225 -5 8 -12
22 -16 30 -4 8 -34 60 -66 115 -33 55 -69 118 -82 140 -12 22 -31 56 -42 75
-11 19 -29 51 -39 70 -11 19 -22 37 -25 40 -3 3 -14 21 -24 40 -9 19 -24 43
-33 53 -8 9 -12 17 -8 17 4 0 -2 13 -13 29 -12 16 -21 34 -21 40 0 6 -3 11 -7
11 -5 0 -19 23 -32 50 -14 28 -29 50 -33 50 -4 0 -8 7 -8 14 0 8 -13 34 -29
58 -25 38 -46 74 -103 179 -9 17 -24 39 -34 50 -9 10 -14 19 -11 19 3 0 -21
46 -55 103 -33 56 -70 120 -83 142 -29 51 -200 349 -227 395 -12 19 -32 55
-46 80 -14 25 -34 59 -44 75 -10 17 -21 38 -24 48 -4 9 -10 17 -15 17 -5 0 -9
4 -9 9 0 5 -21 47 -48 93 -26 46 -53 95 -61 111 -8 15 -18 27 -23 27 -4 0 -8
9 -8 19 0 11 -3 21 -8 23 -10 4 -102 165 -102 178 0 5 -3 10 -7 10 -5 0 -13
10 -19 23 -10 22 -223 393 -271 472 -13 22 -26 48 -30 58 -3 9 -9 17 -14 17
-5 0 -9 6 -9 13 0 7 -18 41 -40 75 -22 33 -40 64 -40 68 0 3 -20 40 -45 81
-25 40 -45 78 -45 83 0 4 -3 10 -7 12 -10 4 -52 76 -60 101 -3 9 -9 17 -14 17
-5 0 -9 6 -9 13 0 7 -20 45 -45 85 -25 40 -45 74 -45 76 0 2 -43 77 -95 167
-52 89 -95 163 -95 165 0 2 -26 47 -58 101 -32 54 -62 105 -66 113 -4 8 -12
24 -19 35 -92 153 -104 174 -133 230 -15 28 -29 52 -33 55 -6 5 -36 58 -70
125 -9 16 -19 32 -22 35 -4 3 -17 25 -29 50 -12 25 -26 47 -29 50 -4 3 -12 16
-19 30 -6 14 -20 39 -30 55 -9 17 -35 62 -57 100 -21 39 -41 72 -44 75 -3 3
-16 23 -28 45 -11 22 -30 56 -42 75 -12 19 -27 47 -34 63 l-13 27 -30 -47z"/>
</g>
</svg>
