<svg xmlns="http://www.w3.org/2000/svg" width="24" height="24" viewBox="0 0 24 24">
    <path
        vector-effect="non-scaling-stroke"
        d="m15.95 7-1.83-2H9.88L8.05 7H4v12h16V7h-4.05zM12 9c1.1 0 2 .9 2 2s-.9 2-2 2-2-.9-2-2 .9-2 2-2zm4 8H8v-.57c0-.81.48-1.53 1.22-1.85a6.95 6.95 0 0 1 5.56 0A2.01 2.01 0 0 1 16 16.43V17z"
        opacity=".3"
    />
    <path
        vector-effect="non-scaling-stroke"
        d="M20 5h-3.17L15 3H9L7.17 5H4c-1.1 0-2 .9-2 2v12c0 1.1.9 2 2 2h16c1.1 0 2-.9 2-2V7c0-1.1-.9-2-2-2zm0 14H4V7h4.05l1.83-2h4.24l1.83 2H20v12zm-8-6c1.1 0 2-.9 2-2s-.9-2-2-2-2 .9-2 2 .9 2 2 2zm2.78 1.58a6.95 6.95 0 0 0-5.56 0A2.01 2.01 0 0 0 8 16.43V17h8v-.57c0-.81-.48-1.53-1.22-1.85z"
    />
</svg>
