<svg xmlns="http://www.w3.org/2000/svg" width="24" height="24" viewBox="0 0 24 24">
    <path
        vector-effect="non-scaling-stroke"
        d="M16.49 3c-2.21 0-4.21.9-5.66 2.34l1.06 1.06a6.47 6.47 0 0 1 9.18 0l1.06-1.06A7.932 7.932 0 0 0 16.49 3z"
    />
    <path
        vector-effect="non-scaling-stroke"
        d="M20.03 7.46a5.022 5.022 0 0 0-7.08 0l1.06 1.06c.63-.63 1.51-1.03 2.47-1.03s1.84.39 2.47 1.03l1.08-1.06zm-4.95 2.13L16.49 11l1.41-1.41c-.36-.37-.86-.59-1.41-.59s-1.05.22-1.41.59z"
    />
    <path
        vector-effect="non-scaling-stroke"
        d="M15 17.83c1.29.54 2.63.89 4 1.07v-2.23l-2.35-.47L15 17.83zM7.33 5H5.1c.18 1.37.53 2.7 1.07 4L7.8 7.35 7.33 5z"
        opacity=".3"
    />
    <path
        vector-effect="non-scaling-stroke"
        d="m20.2 14.87-3.67-.73c-.5-.1-.83.2-.9.27l-2.52 2.5c-2.5-1.43-4.57-3.5-6-6l2.5-2.52c.23-.24.33-.57.27-.9L9.13 3.8c-.09-.46-.5-.8-.98-.8H4c-.56 0-1.03.47-1 1.03.17 2.89 1.05 5.6 2.43 7.97 1.58 2.73 3.85 4.99 6.57 6.57 2.37 1.37 5.08 2.26 7.97 2.43.55.03 1.03-.43 1.03-1v-4.15c0-.48-.34-.89-.8-.98zM5.1 5h2.23l.47 2.35L6.17 9c-.54-1.3-.9-2.63-1.07-4zM19 18.9c-1.37-.18-2.7-.53-4-1.07l1.65-1.63 2.35.47v2.23z"
    />
</svg>
