<svg xmlns="http://www.w3.org/2000/svg" width="40" height="40" viewBox="0 0 40 40" fill="none">
    <g clip-path="url(#clip0_28106_2501)">
        <path
            d="M0 40L1.1656e-05 0.000241227C1.1656e-05 0.000241227 40 0.00220245 40 -6.10352e-05L0 40Z"
            fill="#EFB22D"
        />
        <path d="M0 40H40V0L0 40Z" fill="#E23D28" />
        <path
            d="M31.3133 11.3044V7.82666H24.6467L24.1378 8.33555C22.3267 10.1467 22.6311 12.2611 22.8533 13.8022C23.06 15.2333 23.0845 15.7822 22.5533 16.3133C22.0222 16.8444 21.4722 16.8211 20.0422 16.6133C18.4978 16.3911 16.3867 16.0867 14.5756 17.8978C12.7645 19.7089 13.0689 21.8222 13.2911 23.3644C13.4978 24.7955 13.5222 25.3444 12.9911 25.8755C12.46 26.4067 11.91 26.3833 10.48 26.1755L8.72445 26L8.68668 29.4778C9.07223 29.4822 9.51223 29.5444 9.9789 29.6133C10.5311 29.6933 11.1567 29.7833 11.8145 29.7833C12.4967 29.7833 13.2145 29.6855 13.9233 29.38V32.1633H19.1411V29.5667H16.5322V27.8278H18.2711V25.2189H16.8822C16.9489 24.3744 16.8322 23.5667 16.7322 22.8855C16.5256 21.4544 16.5011 20.9055 17.0322 20.3744C17.5633 19.8433 18.1133 19.8667 19.5433 20.0744C20.6678 20.2367 22.0945 20.4411 23.4878 19.8411V22.6244H28.7056V20H26.0967V18.2611H27.8356V15.6522H26.4445C26.5111 14.8078 26.3945 14 26.2945 13.3078C26.15 12.3078 26.0945 11.7389 26.2556 11.3044H31.3111H31.3133Z"
            fill="white"
        />
    </g>
    <defs>
        <clipPath id="clip0_28106_2501">
            <rect width="40" height="40" fill="white" />
        </clipPath>
    </defs>
</svg>
