<svg xmlns="http://www.w3.org/2000/svg" width="40" height="40" viewBox="0 0 40 40" fill="none">
    <rect width="40" height="40" fill="#0052B4" />
    <path
        d="M20 7.82611L20.6476 9.819H22.7429L21.0477 11.0506L21.6953 13.0435L20 11.8118L18.3047 13.0435L18.9523 11.0506L17.2571 9.819H19.3525L20 7.82611Z"
        fill="#FFDA44"
    />
    <path
        d="M11.3917 11.3917L13.2589 12.343L14.7406 10.8614L14.4127 12.9309L16.2798 13.8822L14.2102 14.2101L13.8824 16.2797L12.931 14.4126L10.8615 14.7405L12.3432 13.2589L11.3917 11.3917Z"
        fill="#FFDA44"
    />
    <path
        d="M7.82617 20L9.81906 19.3524V17.257L11.0506 18.9523L13.0436 18.3048L11.8118 20L13.0436 21.6952L11.0506 21.0477L9.81906 22.743V20.6476L7.82617 20Z"
        fill="#FFDA44"
    />
    <path
        d="M11.3917 28.6083L12.3431 26.7411L10.8615 25.2595L12.9311 25.5874L13.8823 23.7203L14.2102 25.7899L16.2797 26.1178L14.4128 27.0691L14.7406 29.1386L13.2589 27.657L11.3917 28.6083Z"
        fill="#FFDA44"
    />
    <path
        d="M20 32.1739L19.3524 30.181H17.2571L18.9524 28.9494L18.3047 26.9567L20 28.1882L21.6953 26.9567L21.0477 28.9494L22.7429 30.181H20.6475L20 32.1739Z"
        fill="#FFDA44"
    />
    <path
        d="M28.6083 28.6083L26.7412 27.6571L25.2595 29.1387L25.5874 27.069L23.7205 26.1178L25.79 25.7899L26.1178 23.7203L27.0691 25.5874L29.1386 25.2595L27.6569 26.7413L28.6083 28.6083Z"
        fill="#FFDA44"
    />
    <path
        d="M32.1739 20L30.181 20.6476V22.743L28.9494 21.0476L26.9567 21.6952L28.1883 20L26.9567 18.3048L28.9495 18.9523L30.181 17.257V19.3525L32.1739 20Z"
        fill="#FFDA44"
    />
    <path
        d="M28.6083 11.3917L27.657 13.2589L29.1387 14.7406L27.069 14.4126L26.1178 16.2797L25.79 14.2101L23.7205 13.8822L25.5874 12.931L25.2595 10.8615L26.7413 12.3431L28.6083 11.3917Z"
        fill="#FFDA44"
    />
</svg>
