<svg xmlns="http://www.w3.org/2000/svg" width="40" height="40" viewBox="0 0 40 40" fill="none">
    <rect width="40" height="11" fill="#FF9811" />
    <rect y="29" width="40" height="11" fill="#6DA544" />
    <rect y="11" width="40" height="18" fill="#F0F0F0" />
    <path
        d="M19.9999 26.9565C23.8419 26.9565 26.9564 23.842 26.9564 20C26.9564 16.158 23.8419 13.0435 19.9999 13.0435C16.158 13.0435 13.0435 16.158 13.0435 20C13.0435 23.842 16.158 26.9565 19.9999 26.9565Z"
        fill="#0052B4"
    />
    <path
        d="M20 24.3478C22.4013 24.3478 24.3478 22.4012 24.3478 20C24.3478 17.5988 22.4013 15.6522 20 15.6522C17.5988 15.6522 15.6522 17.5988 15.6522 20C15.6522 22.4012 17.5988 24.3478 20 24.3478Z"
        fill="#F0F0F0"
    />
    <path
        d="M20 14.6349L21.3413 17.6769L24.6463 17.3174L22.6825 20L24.6463 22.6826L21.3413 22.3231L20 25.3652L18.6586 22.3231L15.3536 22.6825L17.3174 20L15.3536 17.3174L18.6586 17.6769L20 14.6349Z"
        fill="#0052B4"
    />
</svg>
