<svg xmlns="http://www.w3.org/2000/svg" width="40" height="40" viewBox="0 0 40 40" fill="none">
    <rect width="40" height="40" fill="#496E2D" />
    <path
        d="M20 23.1055C16.6698 23.1055 13.8878 20.7651 13.2052 17.6397C13.1004 18.1201 13.0435 18.6184 13.0435 19.1304C13.0435 22.9725 16.158 26.0869 20 26.0869C23.842 26.0869 26.9565 22.9724 26.9565 19.1304C26.9565 18.6184 26.8996 18.1201 26.7948 17.6396C26.1122 20.7651 23.3302 23.1055 20 23.1055Z"
        fill="#FFDA44"
    />
    <path
        d="M19.9999 13.913L20.6474 15.9059H22.743L21.0477 17.1376L21.6952 19.1305L19.9999 17.8987L18.3047 19.1305L18.9523 17.1376L17.257 15.9059H19.3524L19.9999 13.913Z"
        fill="#FFDA44"
    />
</svg>
