<svg xmlns="http://www.w3.org/2000/svg" width="40" height="40" viewBox="0 0 40 40" fill="none">
    <rect x="40" width="40" height="11" transform="rotate(90 40 0)" fill="#D80027" />
    <rect x="11" width="40" height="11" transform="rotate(90 11 0)" fill="#0052B4" />
    <rect x="29" width="40" height="18" transform="rotate(90 29 0)" fill="#FFDA44" />
    <path
        d="M19.9999 26.9565C19.9999 23.765 19.9999 20 19.9999 20H25.2173V22.6087C25.2173 23.0619 24.3478 24.7225 22.2014 26.087C21.3885 26.6038 20.5471 26.7701 19.9999 26.9565Z"
        fill="#D80027"
    />
    <rect x="14.7825" y="14.7826" width="5.21742" height="5.21742" fill="#D80027" />
    <path
        fill-rule="evenodd"
        clip-rule="evenodd"
        d="M20.8695 11.3044C21.8299 11.3044 22.6086 12.083 22.6086 13.0435H26.9564V21.7391C26.9564 24.9763 24.3856 26.8484 22.3696 27.8188C22.5205 28.0765 22.6086 28.3755 22.6086 28.6957C22.6086 29.6563 21.8299 30.4349 20.8695 30.4349C20.5523 30.4349 20.256 30.3486 19.9999 30.2003C19.744 30.3486 19.4476 30.4349 19.1304 30.4349C18.1699 30.4349 17.3913 29.6563 17.3913 28.6957C17.3913 28.3755 17.4794 28.0765 17.6303 27.8188C15.6142 26.8484 13.0435 24.9763 13.0435 21.7391V13.0435H17.3913C17.3913 12.083 18.1699 11.3044 19.1304 11.3044C19.4476 11.3044 19.7439 11.3906 19.9999 11.5389C20.2559 11.3906 20.5523 11.3044 20.8695 11.3044ZM22.2015 24.9358C24.3478 23.5713 24.3478 22.1923 24.3478 21.7391V15.6522H15.6521V21.7391C15.6521 22.1923 15.6521 23.5713 17.7984 24.9358C18.6113 25.4527 19.4528 25.7878 19.9999 25.9741C20.5471 25.7878 21.3885 25.4527 22.2015 24.9358Z"
        fill="#FF9811"
    />
</svg>
