<svg xmlns="http://www.w3.org/2000/svg" width="40" height="40" viewBox="0 0 40 40" fill="none">
    <rect width="40" height="40" fill="#0052B4" />
    <path
        d="M19.95 20.0575H20.0189C20.0189 20.0345 20.0189 20.0121 20.0189 19.989C19.996 20.0119 19.9731 20.0347 19.95 20.0575Z"
        fill="#F0F0F0"
    />
    <path
        d="M33.8233 22.9609C34.3984 22.1712 34.7825 21.2068 34.7825 20.0389V11.3603C34.0558 11.9051 33.1527 12.2281 32.1739 12.2281C30.7515 12.2281 29.4888 11.5464 28.6956 10.4925C27.9023 11.5464 26.6396 12.2281 25.2173 12.2281C24.2384 12.2281 23.3353 11.905 22.6086 11.3604V20.0389C22.6086 21.2068 22.9928 22.1712 23.5679 22.9609H33.8233Z"
        fill="#F3F3F3"
    />
    <path
        d="M32.0145 18.4289C32.2913 17.7547 32.5067 16.7694 32.5067 16.279C32.5067 15.4911 31.4774 14.8524 31.4774 14.8524C31.4774 14.8524 30.4482 15.4911 30.4482 16.279C30.4482 16.7695 30.6636 17.7548 30.9403 18.4289L30.3462 19.7678C30.6954 19.9095 31.0771 19.9883 31.4775 19.9883C31.8779 19.9883 32.2596 19.9094 32.6088 19.7678L32.0145 18.4289Z"
        fill="#FF9811"
    />
    <path
        d="M27.9917 14.0937C27.2686 14.1915 26.3059 14.4983 25.8804 14.7434C25.1967 15.1374 25.157 16.3462 25.157 16.3462C25.157 16.3462 26.2259 16.9165 26.9095 16.5225C27.3352 16.2773 28.0824 15.5986 28.5287 15.0223L29.9877 14.8663C29.9361 14.4938 29.8133 14.1244 29.6134 13.7784C29.4131 13.4325 29.1541 13.1418 28.8564 12.9108L27.9917 14.0937Z"
        fill="#FF9811"
    />
    <path
        d="M26.2416 19.7384C26.6879 20.3145 27.4353 20.9931 27.861 21.2384C28.5446 21.6323 29.6135 21.0623 29.6135 21.0623C29.6135 21.0623 29.5736 19.8533 28.8901 19.4593C28.4644 19.2141 27.5018 18.9076 26.7785 18.8099L25.9139 17.6269C25.6163 17.8578 25.3573 18.1487 25.157 18.4943C24.957 18.8404 24.8345 19.2096 24.7826 19.5824L26.2416 19.7384Z"
        fill="#FF9811"
    />
    <path
        d="M23.3528 22.6428C24.9768 25.2435 28.6957 26.1141 28.6957 26.1141C28.6957 26.1141 32.4144 25.2435 34.0386 22.6428H23.3528Z"
        fill="#338AF3"
    />
    <path fill-rule="evenodd" clip-rule="evenodd" d="M0 0H8H16H20V3V8L13 8L20 15V20H17L10 13V20H0V0Z" fill="#F0F0F0" />
    <path
        fill-rule="evenodd"
        clip-rule="evenodd"
        d="M8 0H3V3H0V8H3V20H8V8H20V3H8V0ZM20 16.5845L12.8943 9.49268C12.8943 9.49268 10.4348 9.49283 10.4348 9.49268V9.49283L19.9999 19.0392H20V16.5845Z"
        fill="#D80027"
    />
</svg>
