<svg xmlns="http://www.w3.org/2000/svg" width="40" height="40" viewBox="0 0 40 40" fill="none">
    <rect width="40" height="40" fill="#D80027" />
    <path
        d="M31.3043 14.8445H24.0601C24.5073 14.3762 24.7826 13.7422 24.7826 13.0435C24.7826 11.6028 23.6146 10.4348 22.1739 10.4348C21.2662 10.4348 20.4672 10.8986 20 11.6018C19.5327 10.8986 18.7336 10.4348 17.8261 10.4348C16.3854 10.4348 15.2174 11.6028 15.2174 13.0435C15.2174 13.7422 15.4926 14.3763 15.9398 14.8445H8.69568C8.69568 16.7655 10.3689 18.3227 12.2897 18.3227H12.1738C12.1738 20.2438 13.7311 21.801 15.6522 21.801C15.6522 22.4232 15.8161 23.0065 16.1024 23.5115L13.2172 26.3967L15.4308 28.6102L18.5708 25.4702C18.6938 25.5153 18.8211 25.5515 18.9525 25.5761L17.0551 29.8601L20 33.0435L22.9449 29.8599L21.0475 25.5759C21.179 25.5513 21.3061 25.5152 21.4291 25.4701L24.5691 28.61L26.7827 26.3965L23.8975 23.5113C24.1838 23.0063 24.3478 22.423 24.3478 21.8008C26.2688 21.8008 27.8261 20.2436 27.8261 18.3224H27.7102C29.6311 18.3226 31.3043 16.7655 31.3043 14.8445Z"
        fill="black"
    />
</svg>
