<svg xmlns="http://www.w3.org/2000/svg" width="40" height="40" viewBox="0 0 40 40" fill="none">
    <rect width="40" height="40" fill="#0052B4" />
    <path
        d="M20.0117 0.0890125C20.0103 0.0890125 20.0088 0.0891125 20.0073 0.0891125L20.0117 0.0890125Z"
        fill="#F0F0F0"
    />
    <path
        d="M19.95 20.0576H20.0189C20.0189 20.0344 20.0189 20.0122 20.0189 19.9891C19.9959 20.012 19.973 20.0348 19.95 20.0576Z"
        fill="#F0F0F0"
    />
    <path
        d="M12.0621 23.5105L13.1597 25.8012L15.6384 25.2294L14.5284 27.5142L16.5217 29.0918L14.0399 29.6501L14.0469 32.1892L12.0621 30.6007L10.0774 32.1892L10.0844 29.6501L7.60248 29.0918L9.59584 27.5142L8.48568 25.2294L10.9645 25.8012L12.0621 23.5105Z"
        fill="#F0F0F0"
    />
    <path
        d="M29.9441 27.8499L30.4929 28.9952L31.7323 28.7093L31.1772 29.8516L32.1739 30.6405L30.933 30.9196L30.9364 32.1892L29.9441 31.3949L28.9517 32.1892L28.9552 30.9196L27.7143 30.6405L28.7109 29.8516L28.1559 28.7093L29.3952 28.9952L29.9441 27.8499Z"
        fill="#F0F0F0"
    />
    <path
        d="M24.8385 15.6997L25.3872 16.8451L26.6266 16.5591L26.0716 17.7015L27.0683 18.4903L25.8274 18.7695L25.8308 20.039L24.8385 19.2447L23.8461 20.039L23.8495 18.7695L22.6086 18.4903L23.6053 17.7015L23.0503 16.5591L24.2897 16.8451L24.8385 15.6997Z"
        fill="#F0F0F0"
    />
    <path
        d="M29.9441 8.75668L30.4929 9.9021L31.7323 9.61618L31.1773 10.7586L32.1738 11.5473L30.933 11.8265L30.9364 13.0961L29.9441 12.3018L28.9517 13.0961L28.9552 11.8265L27.7143 11.5473L28.7109 10.7586L28.1559 9.61618L29.3952 9.9021L29.9441 8.75668Z"
        fill="#F0F0F0"
    />
    <path
        d="M34.4037 13.9639L34.9525 15.1093L36.1919 14.8233L35.6369 15.9657L36.6335 16.7546L35.3926 17.0338L35.396 18.3033L34.4037 17.509L33.4114 18.3033L33.4147 17.0338L32.1739 16.7546L33.1705 15.9657L32.6155 14.8233L33.8548 15.1093L34.4037 13.9639Z"
        fill="#F0F0F0"
    />
    <path
        d="M31.2148 20.039L31.6465 21.365H33.0435L31.9133 22.1846L32.3451 23.5105L31.2148 22.691L30.0847 23.5105L30.5163 22.1846L29.3862 21.365H30.7831L31.2148 20.039Z"
        fill="#F0F0F0"
    />
    <path fill-rule="evenodd" clip-rule="evenodd" d="M0 0H8H16H20V3V8L13 8L20 15V20H17L10 13V20H0V0Z" fill="#F0F0F0" />
    <path
        fill-rule="evenodd"
        clip-rule="evenodd"
        d="M8 0H3V3H0V8H3V20H8V8H20V3H8V0ZM20 16.5845L12.8943 9.49268C12.8943 9.49268 10.4348 9.49283 10.4348 9.49268V9.49283L19.9999 19.0392H20V16.5845Z"
        fill="#D80027"
    />
</svg>
