<svg xmlns="http://www.w3.org/2000/svg" width="40" height="40" viewBox="0 0 40 40" fill="none">
    <path d="M0 0H40V40H0V0Z" fill="#0052B4" />
    <path d="M0 0V6.11111L34.7778 40V0H18.8889H0Z" fill="#FFDA44" />
    <path
        d="M0 13.2539V10.3378L0.449363 8.95264L1.09825 10.9449L3.1927 10.9437L1.49825 12.166L2.14714 14.1582L0.451585 12.9282L0 13.2539Z"
        fill="#F0F0F0"
    />
    <path
        d="M3.42312 18.8341L4.06756 16.8408L2.37201 15.6108L4.46645 15.6097L5.11312 13.6163L5.76201 15.6086L7.85645 15.6074L6.16201 16.8297L6.8109 18.8219L5.11534 17.5919L3.4209 18.8141L3.42312 18.8341Z"
        fill="#F0F0F0"
    />
    <path
        d="M8.08688 23.4977L8.73132 21.5044L7.03577 20.2744L9.13021 20.2733L9.77688 18.28L10.4258 20.2722L12.5202 20.2711L10.8258 21.4933L11.4747 23.4855L9.7791 22.2555L8.08466 23.4777L8.08688 23.4977Z"
        fill="#F0F0F0"
    />
    <path
        d="M12.7506 28.1619L13.3951 26.1686L11.6995 24.9386L13.794 24.9375L14.4406 22.9441L15.0895 24.9363H17.184L15.4895 26.1586L16.1384 28.1508L14.4429 26.9208L12.7484 28.143L12.7506 28.1619Z"
        fill="#F0F0F0"
    />
    <path
        d="M19.1088 31.6033L17.4144 32.8255L18.0588 30.8322L16.3633 29.6022L18.4577 29.6011L19.1044 27.6078L19.7533 29.6L21.8477 29.5989L20.1533 30.8211L20.8022 32.8133L19.1066 31.5833L19.1088 31.6033Z"
        fill="#F0F0F0"
    />
    <path
        d="M22.0781 37.4892L22.7226 35.4958L21.027 34.2658L23.1215 34.2647L23.7681 32.2714L24.417 34.2636L26.5115 34.2625L24.817 35.4847L25.4659 37.4769L23.7704 36.2469L22.0759 37.4692L22.0781 37.4892Z"
        fill="#F0F0F0"
    />
    <path
        d="M29.6865 40H27.1665L25.6908 38.9295L27.7852 38.9284L28.4319 36.9351L29.0808 38.9273L31.1752 38.9262L29.6865 40Z"
        fill="#F0F0F0"
    />
</svg>
