<svg xmlns="http://www.w3.org/2000/svg" width="40" height="40" viewBox="0 0 40 40" fill="none">
    <path d="M0 0H40V40H0V0Z" fill="#C8102E" />
    <path
        fill-rule="evenodd"
        clip-rule="evenodd"
        d="M0 7.99991V32.0001L20.0002 20L40 31.9999V8.0001L20.0002 20L0 7.99991Z"
        fill="#43B02A"
    />
    <path
        fill-rule="evenodd"
        clip-rule="evenodd"
        d="M40 35.1098L20.0001 23.1098L0 35.1099V28.8902L14.817 20L0 11.1098V4.89011L20.0001 16.8902L40 4.8902V11.1099L25.1831 20L40 28.8901V35.1098Z"
        fill="white"
    />
    <path
        d="M20 31C26.0751 31 31 26.0751 31 20C31 13.9249 26.0751 9 20 9C13.9249 9 9 13.9249 9 20C9 26.0751 13.9249 31 20 31Z"
        fill="white"
    />
    <path
        fill-rule="evenodd"
        clip-rule="evenodd"
        d="M20 11L20.6669 12.25H22L21.3338 13.5L22 14.75H20.6669L20 16L19.3331 14.75H18L18.6663 13.5L18 12.25H19.3331L20 11ZM27.1823 24.1467L25.7811 24.1468L25.0808 25.3598L24.38 24.1469L22.9793 24.1465L23.6796 22.9335L22.9791 21.72L24.3803 21.7199L25.0806 20.5069L25.7814 21.7198L27.1821 21.7202L26.4818 22.9332L27.1823 24.1467ZM13.5182 22.9332L12.8177 24.1467L14.2189 24.1468L14.9192 25.3598L15.62 24.1469L17.0207 24.1465L16.3204 22.9335L17.0209 21.72L15.6197 21.7199L14.9194 20.5069L14.2186 21.7198L12.8179 21.7202L13.5182 22.9332Z"
        fill="#C8102E"
    />
</svg>
