<svg xmlns="http://www.w3.org/2000/svg" width="40" height="40" viewBox="0 0 40 40" fill="none">
    <rect width="40" height="40" fill="#F0F0F0" />
    <path
        d="M35.6808 16.0738H29.1065C29.1065 14.8741 28.134 13.9016 26.9344 13.9016L25.1967 17.377C25.1967 17.377 27.0502 22.5902 26.9923 22.5902H29.1644C30.3641 22.5902 31.3365 21.6177 31.3365 20.418C32.5362 20.418 33.5086 19.4456 33.5086 18.2459H33.4363C34.6359 18.2459 35.6808 17.2734 35.6808 16.0738Z"
        fill="#ACABB1"
    />
    <path
        d="M4.28632 16.0738H10.8606C10.8606 14.8741 11.8331 13.9016 13.0327 13.9016L14.7705 17.377C14.7705 17.377 12.9169 22.5902 12.9748 22.5902H10.8027C9.60303 22.5902 8.63061 21.6177 8.63061 20.418C7.43093 20.418 6.4585 19.4456 6.4585 18.2459H6.53085C5.33116 18.2459 4.28632 17.2734 4.28632 16.0738Z"
        fill="#ACABB1"
    />
    <path
        d="M26.9343 27.8032V28.672H13.0327V27.8032H9.55731V31.2786H13.0327V32.1474H26.9343V31.2786H30.4097V27.8032H26.9343Z"
        fill="#FFDA44"
    />
    <path
        d="M13.0327 13.9016V22.59C13.0327 27.9106 19.9835 29.5409 19.9835 29.5409C19.9835 29.5409 26.9343 27.9106 26.9343 22.59V13.9016L19.9835 13.0327L13.0327 13.9016Z"
        fill="#0052B4"
    />
    <rect x="13.0328" y="17.3773" width="13.9016" height="5.21313" fill="#D80027" />
    <path
        d="M23.4589 9.55734V10.8606L22.5901 11.2951L21.7212 10.4262V7.81961H18.2458V10.4262L17.377 11.2951L16.5081 10.8606V9.55734H13.0327V13.9016H26.9344V9.55734H23.4589Z"
        fill="#FFDA44"
    />
</svg>
