<svg xmlns="http://www.w3.org/2000/svg" width="40" height="40" viewBox="0 0 40 40" fill="none">
    <rect width="39.9999" height="39.9999" fill="#FFDA44" />
    <path d="M8.57643e-06 8.33332L0 14.4444L39.9999 37.7777V31.6666L8.57643e-06 8.33332Z" fill="#3D3D3D" />
    <path d="M8.57643e-06 2.22219L0 8.33329L39.9999 31.6666V25.5555L8.57643e-06 2.22219Z" fill="#F0F0F0" />
    <path
        d="M25.6499 17.8256C25.6499 20.9478 23.12 23.4767 19.9988 23.4767C16.8777 23.4767 14.3478 20.9467 14.3478 17.8256C14.3462 16.887 14.5795 15.963 15.0266 15.1378C13.7536 16.4358 13.0414 18.1819 13.0433 20C13.0433 23.8415 16.1574 26.9556 19.9988 26.9556C23.8403 26.9556 26.9544 23.8415 26.9544 20C26.9563 18.1819 26.2441 16.4358 24.9711 15.1378C25.4155 15.9378 25.6488 16.8534 25.6488 17.8267L25.6499 17.8256Z"
        fill="#D80027"
    />
    <path d="M18.6955 11.3056H21.3033V24.3467H18.6955V11.3056Z" fill="#D80027" />
</svg>
