<svg xmlns="http://www.w3.org/2000/svg" width="40" height="40" viewBox="0 0 40 40" fill="none">
    <rect width="40" height="40" fill="#6DA544" />
    <path d="M20 7.82608L36.5217 20L20 32.1739L3.47829 20L20 7.82608Z" fill="#FFDA44" />
    <path
        d="M20 26.9565C23.842 26.9565 26.9565 23.842 26.9565 20C26.9565 16.158 23.842 13.0435 20 13.0435C16.158 13.0435 13.0435 16.158 13.0435 20C13.0435 23.842 16.158 26.9565 20 26.9565Z"
        fill="#F0F0F0"
    />
    <path
        d="M16.5217 19.5652C15.312 19.5652 14.1446 19.7492 13.0457 20.0906C13.0944 23.8906 16.1884 26.9566 20 26.9566C22.3569 26.9566 24.4384 25.7834 25.6968 23.9903C23.5439 21.2952 20.2313 19.5652 16.5217 19.5652Z"
        fill="#0052B4"
    />
    <path
        d="M26.8276 21.3328C26.9113 20.9013 26.9566 20.456 26.9566 20C26.9566 16.158 23.842 13.0435 20.0001 13.0435C17.1334 13.0435 14.6724 14.778 13.6074 17.2544C14.5488 17.0593 15.5235 16.9566 16.5219 16.9566C20.5623 16.9565 24.2174 18.636 26.8276 21.3328Z"
        fill="#0052B4"
    />
</svg>
