<svg xmlns="http://www.w3.org/2000/svg" width="40" height="40" viewBox="0 0 40 40" fill="none">
    <rect width="40" height="27" fill="#A2001D" />
    <rect y="27" width="40" height="13" fill="#6DA544" />
    <rect width="12" height="40" fill="#FCFCFC" />
    <path d="M8.26088 18.5507L6.08698 14.6067L8.26088 10.7246L10.4348 14.6067L8.26088 18.5507Z" fill="#A2001D" />
    <path d="M8.26082 9.82609L6.08691 5.88211L8.26082 2L10.4347 5.88211L8.26082 9.82609Z" fill="#A2001D" />
    <path d="M3.91304 18.5507L1.73914 14.6067L3.91304 10.7246L6.08695 14.6067L3.91304 18.5507Z" fill="#A2001D" />
    <path d="M3.91304 9.82609L1.73914 5.88211L3.91304 2L6.08695 5.88211L3.91304 9.82609Z" fill="#A2001D" />
    <path d="M8.26088 29.2754L6.08698 25.3314L8.26088 21.4493L10.4348 25.3314L8.26088 29.2754Z" fill="#A2001D" />
    <path d="M8.26082 37.8261L6.08691 33.8821L8.26082 30L10.4347 33.8821L8.26082 37.8261Z" fill="#A2001D" />
    <path d="M3.91304 29.2754L1.73914 25.3314L3.91304 21.4493L6.08695 25.3314L3.91304 29.2754Z" fill="#A2001D" />
    <path d="M3.91304 37.8261L1.73914 33.8821L3.91304 30L6.08695 33.8821L3.91304 37.8261Z" fill="#A2001D" />
</svg>
