<svg xmlns="http://www.w3.org/2000/svg" width="40" height="40" viewBox="0 0 40 40" fill="none">
    <rect width="40" height="40" fill="#0052B4" />
    <rect width="40" height="4" transform="matrix(1 0 0 -1 0 4)" fill="#A2001D" />
    <rect width="40" height="4" transform="matrix(1 0 0 -1 0 40)" fill="#A2001D" />
    <path
        d="M31.2724 3.47828C28.0627 1.28406 24.1816 0 20 0C15.8185 0 11.9374 1.28406 8.7276 3.47828H31.2724Z"
        fill="#A2001D"
    />
    <path
        d="M20 29.5652C25.2827 29.5652 29.5652 25.2827 29.5652 20C29.5652 14.7173 25.2827 10.4348 20 10.4348C14.7173 10.4348 10.4348 14.7173 10.4348 20C10.4348 25.2827 14.7173 29.5652 20 29.5652Z"
        fill="#F0F0F0"
    />
    <path
        d="M20 27.8261C24.3222 27.8261 27.8261 24.3222 27.8261 20C27.8261 15.6778 24.3222 12.1739 20 12.1739C15.6778 12.1739 12.1739 15.6778 12.1739 20C12.1739 24.3222 15.6778 27.8261 20 27.8261Z"
        fill="#6DA544"
    />
    <path
        d="M20 25.2174C22.8815 25.2174 25.2174 22.8815 25.2174 20C25.2174 17.1185 22.8815 14.7826 20 14.7826C17.1185 14.7826 14.7826 17.1185 14.7826 20C14.7826 22.8815 17.1185 25.2174 20 25.2174Z"
        fill="#F0F0F0"
    />
    <path d="M20 18.6956L17.1739 20V22.1739L20 23.913L22.8261 22.1739V20L20 18.6956Z" fill="#0052B4" />
    <rect x="17.1739" y="17.3913" width="5.65219" height="2.60867" fill="#FFDA44" />
</svg>
