<svg xmlns="http://www.w3.org/2000/svg" width="40" height="40" viewBox="0 0 40 40" fill="none">
    <rect width="40" height="40" fill="#6DA544" />
    <path
        d="M30.7019 28.6956L31.2507 29.8432L32.4901 29.5568L31.9351 30.7014L32.9317 31.4917L31.6908 31.7714L31.6943 33.0435L30.7019 32.2476L29.7095 33.0435L29.713 31.7714L28.4721 31.4917L29.4687 30.7014L28.9137 29.5568L30.153 29.8432L30.7019 28.6956Z"
        fill="#FFDA44"
    />
    <path
        d="M25.5963 16.5217L26.1452 17.6693L27.3846 17.3828L26.8295 18.5275L27.8261 19.3178L26.5853 19.5975L26.5887 20.8695L25.5963 20.0738L24.6039 20.8695L24.6073 19.5975L23.3665 19.3178L24.3632 18.5275L23.8081 17.3828L25.0475 17.6693L25.5963 16.5217Z"
        fill="#FFDA44"
    />
    <path
        d="M30.7019 9.56525L31.2507 10.7128L32.4901 10.4263L31.9351 11.5709L32.9317 12.3613L31.6908 12.6409L31.6941 13.9131L30.7019 13.1172L29.7095 13.9131L29.7129 12.6409L28.4722 12.3613L29.4687 11.5709L28.9137 10.4263L30.153 10.7128L30.7019 9.56525Z"
        fill="#FFDA44"
    />
    <path
        d="M35.1615 14.7826L35.7103 15.9302L36.9497 15.6437L36.3947 16.7884L37.3913 17.5787L36.1505 17.8584L36.1539 19.1305L35.1615 18.3346L34.1691 19.1305L34.1725 17.8584L32.9317 17.5787L33.9283 16.7884L33.3733 15.6437L34.6126 15.9302L35.1615 14.7826Z"
        fill="#FFDA44"
    />
    <path
        d="M31.9726 20.8695L32.4044 22.1982H33.8013L32.6711 23.0193L33.1029 24.3478L31.9726 23.5268L30.8425 24.3478L31.2741 23.0193L30.144 22.1982H31.5409L31.9726 20.8695Z"
        fill="#FFDA44"
    />
    <path
        d="M22.1739 25.6522C19.0523 25.6522 16.5217 23.1216 16.5217 20C16.5217 16.8785 19.0522 14.3478 22.1739 14.3478C23.1472 14.3478 24.0631 14.594 24.8626 15.0272C23.6083 13.8005 21.8931 13.0435 19.9999 13.0435C16.158 13.0435 13.0435 16.158 13.0435 19.9999C13.0435 23.8419 16.158 26.9564 19.9999 26.9564C21.893 26.9564 23.6083 26.1994 24.8625 24.9727C24.0631 25.406 23.1472 25.6522 22.1739 25.6522Z"
        fill="#FFDA44"
    />
    <path
        d="M12.5771 7.82609C11.9755 6.78671 10.8525 6.08694 9.56526 6.08694C8.27808 6.08694 7.15503 6.78671 6.55347 7.82609H12.5771Z"
        fill="#FFDA44"
    />
    <path
        d="M12.5886 7.84616L9.56524 10.8695L6.54188 7.84616C6.2529 8.35327 6.08704 8.93975 6.08704 9.56522C6.08704 11.4862 7.6443 13.0435 9.56532 13.0435C11.4863 13.0435 13.0436 11.4863 13.0436 9.56522C13.0435 8.93975 12.8776 8.35327 12.5886 7.84616Z"
        fill="#FFDA44"
    />
    <path
        d="M8.69562 10V12.9339C8.97351 13.0054 9.26491 13.0434 9.56515 13.0434C9.86538 13.0434 10.1568 13.0053 10.4347 12.9339V10H8.69562Z"
        fill="#A2001D"
    />
</svg>
