<svg xmlns="http://www.w3.org/2000/svg" width="40" height="40" viewBox="0 0 40 40" fill="none">
    <path d="M0.000253986 5.11884e-05L31.1112 4.8491e-05L0.000255334 31.111L0.000253986 5.11884e-05Z" fill="#338AF3" />
    <path d="M8.88884 39.9998L40 8.8889L40 39.9998H8.88884Z" fill="#338AF3" />
    <path d="M4.99997 39.9998L39.9998 5.00003L39.9998 8.8889L8.88884 39.9998L4.99997 39.9998Z" fill="#FFDA44" />
    <path
        d="M-1.36907e-05 31.111L31.1109 4.47489e-05L34.9998 4.44117e-05L-1.35221e-05 34.9999L-1.36907e-05 31.111Z"
        fill="#FFDA44"
    />
    <path
        d="M-2.76732e-08 34.9999L34.9998 6.16862e-05L39.9998 0.000229936L39.9998 5.0002L4.99997 39.9998L-4.34243e-08 39.9998L-2.76732e-08 34.9999Z"
        fill="#D80027"
    />
    <path
        d="M10.6579 6.08664L11.7357 9.40884H15.2279L12.4024 11.4622L13.4801 14.7844L10.6546 12.731L7.82907 14.7844L8.90684 11.4622L6.0813 9.40884H9.57795L10.6579 6.08664Z"
        fill="#FFDA44"
    />
</svg>
