<svg xmlns="http://www.w3.org/2000/svg" width="40" height="40" viewBox="0 0 40 40" fill="none">
    <rect width="40" height="40" fill="#0052B4" />
    <rect y="25" width="40" height="8" fill="#F0F0F0" />
    <rect y="27" width="40" height="4" fill="#D80027" />
    <path
        fill-rule="evenodd"
        clip-rule="evenodd"
        d="M14.6198 22.3007L14.2961 21.3043L13.9724 22.3007H12.9247L13.7723 22.9166L13.4484 23.913L14.2961 23.2971L15.1437 23.913L14.82 22.9166L15.6676 22.3007H14.6198ZM14.6198 35.3443L14.2961 34.3478L13.9724 35.3443H12.9247L13.7723 35.96L13.4484 36.9565L14.2961 36.3407L15.1437 36.9565L14.82 35.96L15.6676 35.3443H14.6198ZM8.22456 29.9366L8.54831 30.933H9.59604L8.74846 31.5488L9.07221 32.5453L8.22456 31.9295L7.3769 32.5453L7.70081 31.5488L6.85315 30.933H7.90081L8.22456 29.9366ZM10.8674 23.6051L10.5437 22.6086L10.2199 23.6051H9.17218L10.0199 24.2209L9.69601 25.2174L10.5437 24.6015L11.3913 25.2174L11.0676 24.2209L11.9151 23.6051H10.8674ZM6.85315 26.7121L7.90065 26.7122L8.22448 25.7156L8.54831 26.7121L9.59604 26.7121L8.74838 27.3279L9.07221 28.3244L8.22448 27.7085L7.3769 28.3242L7.70065 27.3278L6.85315 26.7121ZM10.0199 34.4655L9.6961 35.4618L10.5436 34.8461L11.3913 35.462L11.0675 34.4655L11.9152 33.8497H10.8675L10.5437 32.8533L10.2199 33.8498H9.17212L10.0199 34.4655ZM20.3654 29.9366L20.0417 30.933H18.994L19.8415 31.5488L19.5177 32.5453L20.3654 31.9295L21.213 32.5453L20.8892 31.5488L21.7368 30.933H20.6891L20.3654 29.9366ZM17.7226 23.6051L18.0463 22.6086L18.37 23.6051H19.4178L18.5701 24.2209L18.8939 25.2174L18.0463 24.6015L17.1986 25.2174L17.5224 24.2209L16.6749 23.6051H17.7226ZM21.7368 26.7121L20.6893 26.7122L20.3654 25.7156L20.0417 26.7121L18.994 26.7121L19.8415 27.3279L19.5177 28.3244L20.3654 27.7085L21.213 28.3242L20.8893 27.3278L21.7368 26.7121ZM18.5701 34.4655L18.8938 35.4618L18.0463 34.8461L17.1987 35.462L17.5224 34.4655L16.6747 33.8497H17.7225L18.0462 32.8533L18.3701 33.8498H19.4178L18.5701 34.4655Z"
        fill="#FFDA44"
    />
</svg>
