<svg xmlns="http://www.w3.org/2000/svg" width="40" height="40" viewBox="0 0 40 40" fill="none">
    <path d="M0 0L40 40H0V0Z" fill="#0052B4" />
    <path d="M40 40L0 0L40 3.49691e-06L40 40Z" fill="#6DA544" />
    <path
        d="M20 25.2174C22.8703 25.2174 25.1971 22.8815 25.1971 20C25.1971 17.1185 22.8703 14.7826 20 14.7826C17.1297 14.7826 14.8029 17.1185 14.8029 20C14.8029 22.8815 17.1297 25.2174 20 25.2174Z"
        fill="#FFDA44"
    />
    <path
        d="M7.49612 28.6957L8.04281 29.8433L9.27728 29.5568L8.72444 30.7014L9.71728 31.4918L8.48117 31.7714L8.4846 33.0435L7.49612 32.2476L6.50763 33.0435L6.51106 31.7714L5.27495 31.4918L6.26779 30.7014L5.71487 29.5568L6.94942 29.8433L7.49612 28.6957Z"
        fill="#F0F0F0"
    />
    <path
        d="M3.92 19.1305L4.4667 20.2781L5.70117 19.9915L5.14841 21.1362L6.14109 21.9266L4.90506 22.2062L4.90849 23.4783L3.92 22.6825L2.9316 23.4783L2.93494 22.2062L1.69891 21.9266L2.69168 21.1362L2.13884 19.9915L3.37331 20.2781L3.92 19.1305Z"
        fill="#F0F0F0"
    />
    <path
        d="M7.49611 11.3044L8.04281 12.452L9.27728 12.1654L8.72452 13.3101L9.71728 14.1005L8.48117 14.3801L8.4846 15.6522L7.49611 14.8564L6.50763 15.6522L6.51106 14.3801L5.27502 14.1005L6.26771 13.3101L5.71487 12.1654L6.94942 12.452L7.49611 11.3044Z"
        fill="#F0F0F0"
    />
    <path
        d="M11.9384 17.3914L12.4851 18.5389L13.7196 18.2524L13.1667 19.3971L14.1594 20.1875L12.9234 20.4671L12.9268 21.7392L11.9384 20.9434L10.9499 21.7392L10.9533 20.4671L9.71727 20.1875L10.71 19.3971L10.1572 18.2524L11.3917 18.5389L11.9384 17.3914Z"
        fill="#F0F0F0"
    />
    <path
        d="M8.76194 22.6088L9.19198 23.9374H10.5834L9.45766 24.7585L9.8877 26.087L8.76194 25.266L7.63618 26.087L8.06622 24.7585L6.94046 23.9374H8.3319L8.76194 22.6088Z"
        fill="#F0F0F0"
    />
    <path
        d="M20 23.4783H21.7324C21.7324 23.4783 22.483 22.1451 21.7324 20.8696L23.4647 19.1305L22.5986 17.3914H21.7324C21.7324 17.3914 21.2994 18.6957 19.567 18.6957C17.8346 18.6957 17.4015 17.3914 17.4015 17.3914H16.5354L17.4015 19.1305L16.5354 20.8696L17.4015 21.7392C17.4015 21.7392 18.2677 20 20.0001 20.8696C20 20.8696 20.7363 21.9566 20 23.4783Z"
        fill="#6DA544"
    />
    <path
        d="M32.9302 10.9549C32.971 10.7412 32.9928 10.5208 32.9928 10.2952C32.9928 8.74835 31.9867 7.43812 30.5959 6.98608C31.0208 7.85327 31.2604 8.82858 31.2604 9.86046C31.2604 10.2084 31.2325 10.5498 31.1801 10.883C30.9708 10.5445 30.7019 10.2352 30.3735 9.9728C29.136 8.98437 27.4451 8.95819 26.1949 9.79062C27.1601 10.0022 28.0933 10.4323 28.9187 11.0916C29.565 11.6078 30.0872 12.3061 30.487 12.9801L25.1971 14.643C30.3942 15.5126 34.7251 12.0344 34.7251 12.0344C34.2452 11.0709 33.5 10.9084 32.9302 10.9549Z"
        fill="#FFDA44"
    />
</svg>
