<svg xmlns="http://www.w3.org/2000/svg" width="40" height="40" viewBox="0 0 40 40" fill="none">
    <rect width="40" height="40" fill="#F0F0F0" />
    <path
        d="M31.3044 17.3913C30.6957 17.3913 29.942 17.3913 28.6957 17.3913C28.6957 22.1938 24.8024 26.0869 20.0001 26.0869C15.1975 26.0869 11.3044 22.1938 11.3044 17.3913C10.4638 17.3913 9.53624 17.3913 8.69577 17.3913C8.69577 22.5643 12.1705 26.9258 16.9134 28.269C16.3934 29.2568 16.4726 30.5005 17.2155 31.4275C18.1911 30.6455 19.2012 29.8361 20.058 29.1495C20.9149 29.8361 21.9251 30.6456 22.9006 31.4275C23.6508 30.4913 23.7246 29.2318 23.1873 28.2393C27.8783 26.8631 31.3044 22.5275 31.3044 17.3913Z"
        fill="#6DA544"
    />
    <path
        d="M13.0435 16.5217C13.0435 16.5217 13.0435 20.8695 17.3913 20.8695L18.2609 21.739H20C20 21.739 20.8695 19.1304 22.6087 19.1304C22.6087 19.1304 22.6087 17.3912 24.3478 17.3912C26.087 17.3912 26.9565 17.3912 26.9565 17.3912C26.9565 17.3912 26.087 13.913 30.4348 11.3043L28.6956 10.4348C28.6956 10.4348 22.6087 14.7826 18.2609 13.913V15.6522H16.5217L15.6522 14.7826L13.0435 16.5217Z"
        fill="#FFDA44"
    />
</svg>
