<svg xmlns="http://www.w3.org/2000/svg" width="40" height="40" viewBox="0 0 40 40" fill="none">
    <rect width="40" height="40" fill="#F0F0F0" />
    <rect width="14.4444" height="14.4444" fill="#0052B4" />
    <rect x="25.5555" width="14.4444" height="14.4444" fill="#D80027" />
    <rect x="25.5555" y="25.5555" width="14.4444" height="14.4444" fill="#0052B4" />
    <rect y="25.5555" width="14.4444" height="14.4444" fill="#D80027" />
    <path
        d="M25.2178 20C25.2178 22.8811 22.8822 25.2178 20 25.2178C17.1178 25.2178 14.7822 22.8811 14.7822 20C14.7822 17.1189 20 14.7822 20 14.7822C20 14.7822 25.2178 17.1178 25.2178 20Z"
        fill="#496E2D"
    />
    <path
        d="M14.7822 20C14.7822 17.1189 17.1178 14.7822 20 14.7822C22.8822 14.7822 25.2178 17.1178 25.2178 20"
        fill="#0052B4"
    />
    <path
        d="M17.0667 17.3911V20.6522C17.0667 22.2732 18.3807 23.5872 20.0017 23.5872C21.6226 23.5872 22.9366 22.2732 22.9366 20.6522V17.3911H17.0667Z"
        fill="#D80027"
    />
</svg>
