<svg xmlns="http://www.w3.org/2000/svg" width="40" height="40" viewBox="0 0 40 40" fill="none">
    <path d="M20 8.52372e-07L20 40H0L1.79329e-06 0L20 8.52372e-07Z" fill="#496E2D" />
    <path d="M19.9999 0L19.9999 40H39.9999L39.9999 8.52372e-07L19.9999 0Z" fill="#F0F0F0" />
    <path
        d="M24.2192 16.1638L22.5782 18.4251L19.9207 17.5632L21.5642 19.8226L19.9235 22.0839L22.58 21.219L24.2236 23.4783L24.2219 20.6845L26.8785 19.8195L24.221 18.9577L24.2192 16.1638Z"
        fill="#D80027"
    />
    <path
        d="M21.5812 25.6522C18.4596 25.6522 15.929 23.1216 15.929 20C15.929 16.8785 18.4596 14.3478 21.5812 14.3478C22.5545 14.3478 23.4703 14.5939 24.2699 15.0272C23.0155 13.8006 21.3002 13.0435 19.4073 13.0435C15.5653 13.0435 12.4508 16.158 12.4508 19.9999C12.4508 23.8419 15.5653 26.9564 19.4073 26.9564C21.3003 26.9564 23.0156 26.1993 24.2699 24.9727C23.4703 25.4061 22.5545 25.6522 21.5812 25.6522Z"
        fill="#D80027"
    />
</svg>
