<svg xmlns="http://www.w3.org/2000/svg" width="40" height="40" viewBox="0 0 40 40" fill="none">
    <rect width="40" height="40" fill="#FFDA44" />
    <rect y="30" width="40" height="10" fill="#D80027" />
    <rect width="40" height="10" transform="matrix(1 0 0 -1 0 30)" fill="#0052B4" />
    <path
        d="M37.3237 30C39.0255 27.0583 40 23.643 40 20H0C0 23.643 0.974531 27.0583 2.67625 30H37.3237Z"
        fill="#0052B4"
    />
    <path
        d="M20 26.9565C23.842 26.9565 26.9565 23.842 26.9565 20C26.9565 16.158 23.842 13.0435 20 13.0435C16.158 13.0435 13.0435 16.158 13.0435 20C13.0435 23.842 16.158 26.9565 20 26.9565Z"
        fill="#FFDA44"
    />
    <path
        d="M20 24.3478C17.6026 24.3478 15.6522 22.3973 15.6522 20V17.3913C15.6522 14.9939 17.6026 13.0435 20 13.0435C22.3973 13.0435 24.3478 14.994 24.3478 17.3913V20C24.3478 22.3974 22.3974 24.3478 20 24.3478Z"
        fill="#338AF3"
    />
    <path
        d="M26.9565 9.56525H21.739C21.739 8.60478 20.9604 7.82611 19.9999 7.82611C19.0394 7.82611 18.2608 8.60478 18.2608 9.56525H13.0433C13.0433 10.5258 13.88 11.3044 14.8404 11.3044H14.7825C14.7825 12.2649 15.5611 13.0435 16.5216 13.0435C16.5216 14.0041 17.3002 14.7827 18.2608 14.7827H21.739C22.6996 14.7827 23.4782 14.0041 23.4782 13.0435C24.4387 13.0435 25.2173 12.2649 25.2173 11.3044H25.1594C26.1199 11.3044 26.9565 10.5257 26.9565 9.56525Z"
        fill="black"
    />
</svg>
