<svg xmlns="http://www.w3.org/2000/svg" width="40" height="40" viewBox="0 0 40 40" fill="none">
    <rect x="7.62939e-06" width="40" height="20" fill="#6DA544" />
    <rect x="7.62939e-06" width="40" height="20" fill="#6DA544" />
    <rect x="7.62939e-06" width="40" height="20" fill="#6DA544" />
    <rect x="7.62939e-06" y="20" width="40" height="20" fill="#338AF3" />
    <path
        d="M18.2611 18.2611L5.85777 34.1422C9.47777 37.7611 14.4778 40 20 40C31.0444 40 40 31.0444 40 20L18.2611 18.2611Z"
        fill="#338AF3"
    />
    <path
        d="M18.2611 20L5.85777 5.85777C9.47777 2.23889 14.4778 0 20 0C31.0444 0 40 8.95555 40 20H18.2611Z"
        fill="#6DA544"
    />
    <path d="M0 3.33282L1.11262e-05 36.6661L40 20L0 3.33282Z" fill="#D80027" />
</svg>
