<svg xmlns="http://www.w3.org/2000/svg" width="40" height="40" viewBox="0 0 40 40" fill="none">
    <rect width="40" height="13" fill="#6DA544" />
    <rect y="27" width="40" height="13" fill="#D80027" />
    <rect y="13" width="40" height="14" fill="#FFDA44" />
    <path
        d="M20 29.5652C25.2827 29.5652 29.5652 25.2827 29.5652 20C29.5652 14.7173 25.2827 10.4348 20 10.4348C14.7173 10.4348 10.4348 14.7173 10.4348 20C10.4348 25.2827 14.7173 29.5652 20 29.5652Z"
        fill="#0052B4"
    />
    <path
        d="M19.9979 12.593L21.7247 17.9072H27.3213L22.7918 21.1917L24.5321 26.5217L19.9979 23.2216L15.4708 26.5156L17.204 21.1917L12.6786 17.9072H18.2712L19.9979 12.593Z"
        fill="#FFDA44"
    />
    <path
        d="M26.8847 21.3226L21.4069 19.5426L24.7922 14.8832L23.3854 13.8609L19.9998 18.5206L16.6146 13.861L15.2076 14.8832L18.5929 19.5429L13.1153 21.3225L13.6526 22.9767L19.1305 21.1969V26.9564H20.8695V21.1968L26.3471 22.9767L26.8847 21.3226Z"
        fill="#FFDA44"
    />
</svg>
