<svg xmlns="http://www.w3.org/2000/svg" width="40" height="40" viewBox="0 0 40 40" fill="none">
    <rect width="40" height="40" fill="#0052B4" />
    <path
        d="M40 20.039C40 31.0631 31.0456 40 20 40C8.95438 40 0 31.0631 0 20.039C0 20.0438 20 0.0801862 20 0.0780029C31.0456 0.0780029 40 9.01492 40 20.039Z"
        fill="#0052B4"
    />
    <path
        d="M19.95 20.0576H20.0185C20.0185 20.0346 20.0185 20.0122 20.0185 19.9891C19.9957 20.012 19.9729 20.0348 19.95 20.0576Z"
        fill="#F0F0F0"
    />
    <path
        d="M32.1739 23.5105V24.3783H25.2174V23.5105H22.6086V26.9819H24.3478V27.8498H33.0435V26.9819H34.7825V23.5105H32.1739Z"
        fill="#FFDA44"
    />
    <path
        d="M22.6086 10.4924V20.039C22.6086 24.6892 28.6956 26.1141 28.6956 26.1141C28.6956 26.1141 34.7825 24.6892 34.7825 20.039V10.4924H22.6086Z"
        fill="#338AF3"
    />
    <path
        d="M28.6953 17.6132C27.1737 17.6132 27.1737 19.0018 25.652 19.0018C24.1304 19.0018 24.1304 17.6132 22.6088 17.6132V20.0432C24.1304 20.0432 24.1304 21.4318 25.652 21.4318C27.1737 21.4318 27.1737 20.0432 28.6953 20.0432C30.2171 20.0432 30.2171 21.4318 31.739 21.4318C33.2609 21.4318 33.2608 20.0432 34.7827 20.0432V17.6132C33.2609 17.6132 33.2609 19.0018 31.739 19.0018C30.2171 19.0018 30.2171 17.6132 28.6953 17.6132Z"
        fill="#F3F3F3"
    />
    <path
        d="M28.6953 12.7488C27.1737 12.7488 27.1737 14.1375 25.652 14.1375C24.1304 14.1375 24.1304 12.7488 22.6088 12.7488V15.1789C24.1304 15.1789 24.1304 16.5675 25.652 16.5675C27.1737 16.5675 27.1737 15.1789 28.6953 15.1789C30.2171 15.1789 30.2171 16.5675 31.739 16.5675C33.2609 16.5675 33.2608 15.1789 34.7827 15.1789V12.7488C33.2609 12.7488 33.2609 14.1375 31.739 14.1375C30.2171 14.1375 30.2171 12.7488 28.6953 12.7488Z"
        fill="#F3F3F3"
    />
    <path fill-rule="evenodd" clip-rule="evenodd" d="M0 0H8H16H20V3V8L13 8L20 15V20H17L10 13V20H0V0Z" fill="#F0F0F0" />
    <path
        fill-rule="evenodd"
        clip-rule="evenodd"
        d="M8 0H3V3H0V8H3V20H8V8H20V3H8V0ZM20 16.5845L12.8943 9.49268C12.8943 9.49268 10.4348 9.49283 10.4348 9.49268V9.49283L19.9999 19.0392H20V16.5845Z"
        fill="#D80027"
    />
</svg>
