<svg xmlns="http://www.w3.org/2000/svg" width="40" height="40" viewBox="0 0 40 40" fill="none">
    <rect width="40" height="40" fill="#338AF3" />
    <path
        d="M19.9999 8.69562L20.8632 11.3528H23.6573L21.3969 12.9951L22.2602 15.6522L19.9999 14.01L17.7395 15.6522L18.603 12.9951L16.3427 11.3528H19.1366L19.9999 8.69562Z"
        fill="#F0F0F0"
    />
    <path
        d="M8.69562 20.0002L11.3528 19.1367V16.3427L12.9951 18.6031L15.6522 17.7398L14.01 20.0002L15.6522 22.2603L12.9951 21.3969L11.3528 23.6573V20.8634L8.69562 20.0002Z"
        fill="#F0F0F0"
    />
    <path
        d="M20.0001 31.3044L19.1367 28.6472H16.3427L18.6031 27.0049L17.7398 24.3478L20.0001 25.99L22.2603 24.3478L21.3969 27.0049L23.6573 28.6472H20.8634L20.0001 31.3044Z"
        fill="#F0F0F0"
    />
    <path
        d="M31.3043 19.9999L28.6472 20.8633V23.6573L27.0049 21.3969L24.3478 22.2602L25.99 19.9999L24.3478 17.7397L27.0049 18.6031L28.6472 16.3427V19.1366L31.3043 19.9999Z"
        fill="#F0F0F0"
    />
</svg>
