<svg xmlns="http://www.w3.org/2000/svg" width="40" height="40" viewBox="0 0 40 40" fill="none">
    <path d="M0 5.5557H39.9998V34.4445H0V5.5557Z" fill="#FFDA44" />
    <path
        d="M5.55555 5.55596L0 5.55576L2.67557e-05 34.4442L5.55555 34.4448L19.9999 20.0777L5.55555 5.55596Z"
        fill="#496E2D"
    />
    <path d="M34.9999 5.5557H39.9998V34.4444H34.4443L20.3022 20.3022L34.9999 5.5557Z" fill="#496E2D" />
    <path
        d="M19.9999 25.9232C23.842 25.9232 26.9565 22.8086 26.9565 18.9666C26.9565 15.1245 23.842 12.01 19.9999 12.01C16.1579 12.01 13.0433 15.1245 13.0433 18.9666C13.0433 22.8086 16.1579 25.9232 19.9999 25.9232Z"
        fill="#A2001D"
    />
    <rect y="0.000183105" width="39.9998" height="5.55553" fill="#A2001D" />
    <rect y="34.4445" width="39.9998" height="5.55553" fill="#A2001D" />
    <path
        d="M19.9999 11.9999L21.5588 16.7999H26.6055L22.5221 19.7777L24.081 24.5777L19.9999 21.611L15.9166 24.5777L17.4766 19.7777L13.3944 16.811H18.4411L19.9999 11.9999Z"
        fill="#FFDA44"
    />
    <path
        d="M20.0043 1.44463L20.3266 2.4413H21.3743L20.5266 3.05685L20.8488 4.05351L20.0043 3.43685L19.1566 4.0524L19.4788 3.05574L18.631 2.44019H19.6788L20.0043 1.44463Z"
        fill="#FFDA44"
    />
    <path
        d="M15.1544 1.44463L15.4766 2.4413H16.5244L15.6766 3.05685L15.9988 4.05351L15.151 3.43796L14.3033 4.05351L14.6255 3.05685L13.7777 2.4413H14.8255L15.1544 1.44463Z"
        fill="#FFDA44"
    />
    <path
        d="M24.8532 1.44463L25.1755 2.4413H26.2232L25.3755 3.05685L25.6977 4.05351L24.8499 3.43796L24.0021 4.05351L24.3244 3.05685L23.4766 2.4413H24.5244L24.8532 1.44463Z"
        fill="#FFDA44"
    />
    <path
        d="M20.0043 35.9336L20.3266 36.9302H21.3743L20.5266 37.5458L20.8488 38.5424L20.0043 37.9269L19.1566 38.5424L19.4788 37.5458L18.631 36.9302H19.6788L20.0043 35.9336Z"
        fill="#FFDA44"
    />
    <path
        d="M15.1544 35.9336L15.4766 36.9302H16.5244L15.6766 37.5458L15.9988 38.5424L15.151 37.9269L14.3033 38.5424L14.6255 37.5458L13.7777 36.9302H14.8255L15.1544 35.9336Z"
        fill="#FFDA44"
    />
    <path
        d="M24.8532 35.9336L25.1755 36.9302H26.2232L25.3755 37.5458L25.6977 38.5424L24.8499 37.9269L24.0021 38.5424L24.3244 37.5458L23.4766 36.9302H24.5244L24.8532 35.9336Z"
        fill="#FFDA44"
    />
</svg>
