<svg xmlns="http://www.w3.org/2000/svg" width="40" height="40" viewBox="0 0 40 40" fill="none">
    <rect width="39.9999" height="39.9999" fill="#F0F0F0" />
    <path
        d="M40 17.369H22.6312L22.6311 0H17.3691V17.3688L0.00012207 17.3689V22.6309H17.369L17.369 39.9999H22.631V22.631L40 22.631V17.369Z"
        fill="#D80027"
    />
    <path
        d="M12.1739 9.5652V6.95646H9.5652V9.5652H6.95646V12.1739H9.5652V14.7825H12.1739V12.1739H14.7825V9.5652H12.1739Z"
        fill="#D80027"
    />
    <path
        d="M30.4347 9.5652V6.95646H27.826V9.5652H25.2173V12.1739H27.826V14.7825H30.4347V12.1739H33.0434V9.5652H30.4347Z"
        fill="#D80027"
    />
    <path
        d="M12.1739 27.826V25.2173H9.5652V27.826H6.95646V30.4347H9.5652V33.0434H12.1739V30.4347H14.7825V27.826H12.1739Z"
        fill="#D80027"
    />
    <path
        d="M30.4347 27.826V25.2173H27.826V27.826H25.2173V30.4347H27.826V33.0434H30.4347V30.4347H33.0434V27.826H30.4347Z"
        fill="#D80027"
    />
</svg>
