<svg xmlns="http://www.w3.org/2000/svg" width="40" height="40" viewBox="0 0 40 40" fill="none">
    <rect width="40" height="40" fill="#F9F9F9" />
    <rect y="27" width="40" height="13" fill="#D80027" />
    <path
        d="M27.8261 16.5217V13.913H28.6956V12.1739H26.9565V13.0435H25.2174V12.1739H23.4783V13.913H24.3478V16.5217H22.6087V10.4349H23.4783V8.69586H21.7391V9.56524H20.8695V8.69586H19.1305V9.56524H18.2608V8.69586H16.5217V10.4349H17.3913V16.5217H15.6522V13.913H16.5217V12.1739H14.7826V13.0435H13.0435V12.1739H11.3044V13.913H12.1739V16.5217H10.4348V23.4783H29.5652V16.5217H27.8261Z"
        fill="#D80027"
    />
    <path
        fill-rule="evenodd"
        clip-rule="evenodd"
        d="M17.3913 25.2173C17.3913 23.7766 18.5593 22.6086 20 22.6086C21.4407 22.6086 22.6087 23.7767 22.6087 25.2174C22.6087 26.3531 21.8826 27.319 20.8696 27.6771V34.7826H16.5218V31.3043H19.1305V27.677C18.1174 27.3189 17.3913 26.3529 17.3913 25.2173ZM19.1305 25.2174C19.1305 25.6975 19.5198 26.0869 20 26.0869C20.4802 26.0869 20.8695 25.6975 20.8695 25.2174C20.8695 24.7372 20.4802 24.3479 20 24.3479C19.5198 24.3479 19.1305 24.7372 19.1305 25.2174Z"
        fill="#FFDA44"
    />
</svg>
