<svg xmlns="http://www.w3.org/2000/svg" width="40" height="40" viewBox="0 0 40 40" fill="none">
    <rect y="27" width="40" height="13" fill="#D80027" />
    <rect y="13" width="40" height="14" fill="#F0F0F0" />
    <rect width="40" height="13" fill="#6DA544" />
    <path d="M20 20L0 0V40L20 20Z" fill="#0052B4" />
    <path
        d="M23.5105 16.5217V20.8695C23.5105 23.532 26.982 24.3479 26.982 24.3479C26.982 24.3479 30.4535 23.532 30.4535 20.8695V16.5217H23.5105Z"
        fill="#DEDDE0"
    />
    <rect x="26.1141" y="20.087" width="1.73575" height="2.52172" fill="#786145" />
    <path
        d="M28.7177 19.1305C28.7177 18.17 27.9406 17.3914 26.9819 17.3914C26.0233 17.3914 25.2462 18.17 25.2462 19.1305C24.7669 19.1305 24.3784 19.5198 24.3784 20C24.3784 20.4803 24.7669 20.8696 25.2462 20.8696C25.5308 20.8696 28.4331 20.8696 28.7177 20.8696C29.197 20.8696 29.5855 20.4803 29.5855 20C29.5855 19.5198 29.1971 19.1305 28.7177 19.1305Z"
        fill="#6DA544"
    />
</svg>
