<svg xmlns="http://www.w3.org/2000/svg" width="40" height="40" viewBox="0 0 40 40" fill="none">
    <rect width="40" height="40" fill="#0052B4" />
    <path
        d="M34.7839 25.2358V28.7073H32.9354C31.8398 27.6446 30.3454 26.9895 28.697 26.9895C27.0485 26.9895 25.5541 27.6446 24.4585 28.7073H22.61L22.61 25.2358L24.44 25.2358C25.5373 24.1625 27.0392 23.5 28.697 23.5C30.3547 23.5 31.8567 24.1625 32.9539 25.2358L34.7839 25.2358Z"
        fill="#FFDA44"
    />
    <path
        d="M34.7825 10.4924H22.6086V20.039C22.6086 24.6892 28.6956 26.1141 28.6956 26.1141C28.6956 26.1141 34.7825 24.6892 34.7825 20.039V10.4924Z"
        fill="white"
    />
    <path
        d="M27.2 9.15L26.2 10.5H31.2L30.2 9.15L31.2 7.35C30.2 5.55 27.2 5.55001 26.2 7.35L27.2 9.15Z"
        fill="#C4C4C4"
    />
    <path
        d="M31.2815 25.0834L30.2174 23.7556L28.6848 25.6679L28.9791 26.035C29.4199 25.9066 30.3195 25.6089 31.2815 25.0834Z"
        fill="#338AF3"
    />
    <path
        d="M28.4108 26.0346L28.7048 25.6679L27.1722 23.7556L26.1086 25.0828C27.0701 25.6082 27.9694 25.9059 28.4108 26.0346Z"
        fill="#338AF3"
    />
    <path
        d="M34.5432 21.5704L33.2525 19.96L31.72 21.8722L33.1844 23.6995C33.7718 23.1185 34.2658 22.4148 34.5432 21.5704Z"
        fill="#338AF3"
    />
    <path d="M28.6848 21.8681L30.2174 19.9558L31.75 21.8681L30.2174 23.7803L28.6848 21.8681Z" fill="#338AF3" />
    <path d="M25.6396 21.8681L27.1722 19.9558L28.7048 21.8681L27.1722 23.7803L25.6396 21.8681Z" fill="#338AF3" />
    <path
        d="M24.2035 23.6974L25.6697 21.8681L24.1371 19.9558L22.8469 21.5656C23.1232 22.4111 23.6165 23.1156 24.2035 23.6974Z"
        fill="#338AF3"
    />
    <path d="M31.72 18.0685L33.2525 16.1562L34.7851 18.0685L33.2525 19.9807L31.72 18.0685Z" fill="#338AF3" />
    <path d="M28.6848 18.0685L30.2174 16.1562L31.75 18.0685L30.2174 19.9807L28.6848 18.0685Z" fill="#338AF3" />
    <path d="M25.6396 18.0685L27.1722 16.1562L28.7048 18.0685L27.1722 19.9807L25.6396 18.0685Z" fill="#338AF3" />
    <path d="M22.6046 18.0685L24.1371 16.1562L25.6697 18.0685L24.1371 19.9807L22.6046 18.0685Z" fill="#338AF3" />
    <path d="M31.72 14.2688L33.2525 12.3566L34.7851 14.2688L33.2525 16.1811L31.72 14.2688Z" fill="#338AF3" />
    <path d="M22.6046 14.2688L24.1371 12.3566L25.6697 14.2688L24.1371 16.1811L22.6046 14.2688Z" fill="#338AF3" />
    <path d="M31.7218 10.49L31.72 10.4923L33.2525 12.4045L34.7677 10.514V10.49H31.7218Z" fill="#338AF3" />
    <path d="M25.6633 10.49L25.6651 10.4923L24.1325 12.4045L22.6086 10.5031V10.49H25.6633Z" fill="#338AF3" />
    <path d="M33.07 10.49L28.7 24.09L24.33 10.49H33.07Z" fill="#6DA544" />
    <path fill-rule="evenodd" clip-rule="evenodd" d="M0 0H8H16H20V3V8L13 8L20 15V20H17L10 13V20H0V0Z" fill="#F0F0F0" />
    <path
        fill-rule="evenodd"
        clip-rule="evenodd"
        d="M8 0H3V3H0V8H3V20H8V8H20V3H8V0ZM20 16.5845L12.8943 9.49268C12.8943 9.49268 10.4348 9.49283 10.4348 9.49268V9.49283L19.9999 19.0392H20V16.5845Z"
        fill="#D80027"
    />
</svg>
