<svg xmlns="http://www.w3.org/2000/svg" width="40" height="40" viewBox="0 0 40 40" fill="none">
    <rect y="3" width="40" height="34" fill="#0052B4" />
    <rect width="40" height="5" fill="#D80027" />
    <rect y="35" width="40" height="5" fill="#D80027" />
    <path
        d="M18.8682 32.6248C18.5949 32.3904 12.1739 26.8085 12.1739 20C12.1739 13.1915 18.5949 7.60954 18.8682 7.37525L20 6.40509L21.1318 7.37517C21.4051 7.60954 27.8261 13.1914 27.8261 20C27.8261 26.8086 21.4052 32.3906 21.1318 32.6248L20 33.5949L18.8682 32.6248Z"
        fill="#D80027"
    />
    <path
        d="M26.087 20C26.087 13.913 20 8.69562 20 8.69562C20 8.69562 13.9131 13.9132 13.9131 20C13.9131 21.8621 14.4831 23.6425 15.2739 25.2174H24.7261C25.5169 23.6425 26.087 21.8621 26.087 20Z"
        fill="#338AF3"
    />
    <path
        d="M26.087 20C26.087 21.8621 25.5169 23.6425 24.7261 25.2174L20 26.087L15.2739 25.2174C14.4831 23.6426 13.9131 21.8621 13.9131 20H26.087Z"
        fill="#0052B4"
    />
    <path
        d="M20 31.3044C20 31.3044 22.9319 28.7905 24.7261 25.2174H15.2739C17.0681 28.7905 20 31.3044 20 31.3044Z"
        fill="#FFDA44"
    />
    <path d="M16.0869 16.5217H23.913L20 20.4348L16.0869 16.5217Z" fill="#6DA544" />
    <rect x="18.6956" y="19.1305" width="2.60867" height="7.82609" fill="#A2001D" />
</svg>
