<svg xmlns="http://www.w3.org/2000/svg" width="40" height="40" viewBox="0 0 40 40" fill="none">
    <g clip-path="url(#clip0_28106_2520)">
        <rect y="-0.000183105" width="40" height="40" fill="#6DA544" />
        <path
            d="M5.55555 -9.15527e-05L2.22221 0.000134316L22.46 20L1.66666 39.9999H5.55555L40 20L5.55555 -9.15527e-05Z"
            fill="#F0F0F0"
        />
        <path
            d="M4.44445 0.000231127L1.66666 -0.000213623L20 20L1.66666 39.9998H4.44443L36.5778 20L4.44445 0.000231127Z"
            fill="#FFDA44"
        />
        <path
            d="M1.6667 0.00012207H3.05176e-05L18.2611 20L3.05176e-05 40.0001H1.6667L22.46 20L1.6667 0.00012207Z"
            fill="#3D3D3D"
        />
        <path d="M-6.10352e-05 -0.000183105L-1.0305e-05 39.9998L20 19.9998L-6.10352e-05 -0.000183105Z" fill="#D80027" />
    </g>
    <defs>
        <clipPath id="clip0_28106_2520">
            <rect width="40" height="40" fill="white" />
        </clipPath>
    </defs>
</svg>
