<svg xmlns="http://www.w3.org/2000/svg" width="40" height="40" viewBox="0 0 40 40" fill="none">
    <rect width="40" height="40" fill="#0052B4" />
    <path
        d="M40 20.039C40 31.0631 31.0456 40 20 40C8.95437 40 0 31.0631 0 20.039C0 20.0437 20 0.0802641 20 0.0780029C31.0456 0.0780029 40 9.01492 40 20.039Z"
        fill="#0052B4"
    />
    <path
        d="M20.0117 0.0890124C20.0103 0.0890124 20.0088 0.0891124 20.0074 0.0891124L20.0117 0.0890124Z"
        fill="#F0F0F0"
    />
    <path
        d="M19.95 20.0576H20.0189C20.0189 20.0344 20.0189 20.0122 20.0189 19.9891C19.996 20.012 19.973 20.0348 19.95 20.0576Z"
        fill="#F0F0F0"
    />
    <path
        d="M12.0621 23.5105L13.1598 25.8012L15.6384 25.2294L14.5284 27.5142L16.5217 29.0918L14.0399 29.6501L14.0469 32.1892L12.0621 30.6006L10.0774 32.1892L10.0844 29.6501L7.6025 29.0918L9.59586 27.5142L8.48571 25.2294L10.9645 25.8012L12.0621 23.5105Z"
        fill="#F0F0F0"
    />
    <path
        d="M29.944 27.8498L30.4929 28.9952L31.7322 28.7092L31.1772 29.8516L32.1739 30.6405L30.9329 30.9196L30.9364 32.1892L29.944 31.3949L28.9517 32.1892L28.9551 30.9196L27.7143 30.6405L28.7109 29.8516L28.1559 28.7092L29.3952 28.9952L29.944 27.8498Z"
        fill="#F0F0F0"
    />
    <path
        d="M24.8385 15.6997L25.3872 16.8451L26.6266 16.5591L26.0716 17.7015L27.0683 18.4903L25.8274 18.7694L25.8308 20.039L24.8385 19.2447L23.8462 20.039L23.8495 18.7694L22.6087 18.4903L23.6053 17.7015L23.0503 16.5591L24.2897 16.8451L24.8385 15.6997Z"
        fill="#F0F0F0"
    />
    <path
        d="M29.944 8.75668L30.4929 9.90209L31.7322 9.61617L31.1772 10.7585L32.1738 11.5473L30.9329 11.8265L30.9364 13.0961L29.944 12.3018L28.9517 13.0961L28.9551 11.8265L27.7143 11.5473L28.7108 10.7585L28.1559 9.61617L29.3952 9.90209L29.944 8.75668Z"
        fill="#F0F0F0"
    />
    <path
        d="M34.4037 13.9639L34.9525 15.1093L36.1919 14.8233L35.6369 15.9657L36.6335 16.7546L35.3926 17.0338L35.396 18.3033L34.4037 17.509L33.4114 18.3033L33.4148 17.0338L32.1739 16.7546L33.1705 15.9657L32.6155 14.8233L33.8548 15.1093L34.4037 13.9639Z"
        fill="#F0F0F0"
    />
    <path
        d="M31.2148 20.039L31.6465 21.365H33.0435L31.9133 22.1846L32.3451 23.5105L31.2148 22.691L30.0847 23.5105L30.5163 22.1846L29.3861 21.365H30.7831L31.2148 20.039Z"
        fill="#F0F0F0"
    />
    <path
        fill-rule="evenodd"
        clip-rule="evenodd"
        d="M0 3.05176e-05H7.99999H16H20V3.00003V8.00002L13 8.00002L20 15V20H17L9.99999 13V20H0V3.05176e-05Z"
        fill="#F0F0F0"
    />
    <path
        fill-rule="evenodd"
        clip-rule="evenodd"
        d="M7.99999 3.05176e-05H3V3.00003H0V8.00002H3V20H7.99999V8.00002H20V3.00003H7.99999V3.05176e-05ZM20 16.5845L12.8943 9.4927C12.8943 9.4927 10.4348 9.49286 10.4348 9.4927V9.49286L19.9999 19.0392H20V16.5845Z"
        fill="#D80027"
    />
</svg>
