<svg xmlns="http://www.w3.org/2000/svg" width="40" height="40" viewBox="0 0 40 40" fill="none">
    <rect width="39.9999" height="39.9999" fill="#0052B4" />
    <path
        d="M39.9999 20.039C39.9999 31.0631 31.0456 40 20 40C8.95436 40 0 31.0631 0 20.039C0 20.0437 20 0.080264 20 0.0780028C31.0456 0.0780028 39.9999 9.01491 39.9999 20.039Z"
        fill="#0052B4"
    />
    <path
        d="M20.0117 0.0890124C20.0103 0.0890124 20.0088 0.0891124 20.0074 0.0891124L20.0117 0.0890124Z"
        fill="#F0F0F0"
    />
    <path
        d="M19.95 20.0575H20.0189C20.0189 20.0343 20.0189 20.0121 20.0189 19.989C19.996 20.0119 19.973 20.0347 19.95 20.0575Z"
        fill="#F0F0F0"
    />
    <path
        d="M12.0621 23.5105L13.1597 25.8012L15.6384 25.2294L14.5284 27.5142L16.5217 29.0918L14.0399 29.6501L14.0468 32.1892L12.0621 30.6006L10.0774 32.1892L10.0843 29.6501L7.60247 29.0918L9.59582 27.5142L8.48567 25.2294L10.9645 25.8012L12.0621 23.5105Z"
        fill="#F0F0F0"
    />
    <path
        d="M29.944 27.8499L30.4928 28.9952L31.7322 28.7093L31.1771 29.8517L32.1739 30.6405L30.9329 30.9197L30.9364 32.1892L29.944 31.3949L28.9517 32.1892L28.9551 30.9197L27.7143 30.6405L28.7109 29.8517L28.1559 28.7093L29.3952 28.9952L29.944 27.8499Z"
        fill="#F0F0F0"
    />
    <path
        d="M24.8384 15.6997L25.3872 16.8451L26.6266 16.5591L26.0716 17.7015L27.0682 18.4903L25.8274 18.7695L25.8307 20.039L24.8384 19.2447L23.8461 20.039L23.8495 18.7695L22.6086 18.4903L23.6052 17.7015L23.0502 16.5591L24.2896 16.8451L24.8384 15.6997Z"
        fill="#F0F0F0"
    />
    <path
        d="M29.944 8.7567L30.4928 9.90212L31.7322 9.61619L31.1772 10.7586L32.1738 11.5473L30.9329 11.8266L30.9364 13.0961L29.944 12.3018L28.9517 13.0961L28.9551 11.8266L27.7143 11.5473L28.7108 10.7586L28.1559 9.61619L29.3952 9.90212L29.944 8.7567Z"
        fill="#F0F0F0"
    />
    <path
        d="M34.4037 13.964L34.9524 15.1094L36.1918 14.8234L35.6368 15.9658L36.6334 16.7546L35.3925 17.0338L35.3959 18.3033L34.4037 17.5091L33.4113 18.3033L33.4147 17.0338L32.1738 16.7546L33.1705 15.9658L32.6155 14.8234L33.8548 15.1094L34.4037 13.964Z"
        fill="#F0F0F0"
    />
    <path
        d="M31.2148 20.039L31.6464 21.365H33.0435L31.9132 22.1846L32.345 23.5105L31.2148 22.691L30.0846 23.5105L30.5163 22.1846L29.3861 21.365H30.7831L31.2148 20.039Z"
        fill="#F0F0F0"
    />
    <path
        fill-rule="evenodd"
        clip-rule="evenodd"
        d="M0 6.10351e-05H7.99999H16H20V3.00006V8.00005L13 8.00005L20 15V20H17L9.99998 13V20H0V6.10351e-05Z"
        fill="#F0F0F0"
    />
    <path
        fill-rule="evenodd"
        clip-rule="evenodd"
        d="M7.99999 6.10351e-05H3V3.00006H0V8.00005H3V20H7.99999V8.00005H20V3.00006H7.99999V6.10351e-05ZM19.9999 16.5846L12.8942 9.49272C12.8942 9.49272 10.4348 9.49288 10.4348 9.49272V9.49288L19.9999 19.0392H19.9999V16.5846Z"
        fill="#D80027"
    />
</svg>
