<svg xmlns="http://www.w3.org/2000/svg" width="40" height="40" viewBox="0 0 40 40" fill="none">
    <rect y="11" width="40" height="18" fill="#F0F0F0" />
    <rect width="40" height="11" fill="#338AF3" />
    <rect y="29" width="40" height="11" fill="#338AF3" />
    <path
        d="M12.3082 13.0435L12.9557 15.0364H15.0511L13.3559 16.268L14.0035 18.2609L12.3082 17.0292L10.6129 18.2609L11.2605 16.268L9.56525 15.0364H11.6606L12.3082 13.0435Z"
        fill="#338AF3"
    />
    <path
        d="M12.3082 21.7391L12.9557 23.7321H15.0511L13.3559 24.9637L14.0035 26.9565L12.3082 25.7248L10.6129 26.9565L11.2605 24.9637L9.56525 23.7321H11.6606L12.3082 21.7391Z"
        fill="#338AF3"
    />
    <path
        d="M27.6918 13.0435L28.3394 15.0364H30.4348L28.7396 16.268L29.3871 18.2609L27.6918 17.0292L25.9965 18.2609L26.6441 16.268L24.9489 15.0364H27.0443L27.6918 13.0435Z"
        fill="#338AF3"
    />
    <path
        d="M27.6918 21.7391L28.3394 23.7321H30.4348L28.7396 24.9637L29.3871 26.9565L27.6918 25.7248L25.9965 26.9565L26.6441 24.9637L24.9489 23.7321H27.0443L27.6918 21.7391Z"
        fill="#338AF3"
    />
    <path
        d="M20 17.3914L20.6476 19.3843H22.743L21.0477 20.6159L21.6953 22.6087L20 21.3771L18.3047 22.6087L18.9523 20.6159L17.257 19.3843H19.3524L20 17.3914Z"
        fill="#338AF3"
    />
</svg>
