<svg xmlns="http://www.w3.org/2000/svg" width="40" height="40" viewBox="0 0 40 40" fill="none">
    <rect y="13" width="40" height="13" fill="#F0F0F0" />
    <rect width="40" height="13" fill="#D80027" />
    <rect y="26" width="40" height="14" fill="#0052B4" />
    <path
        d="M25.2174 13.9131H21.7391L22.3189 9.56525L24.6377 7.82611L26.9565 9.56525V13.0435L25.2174 13.9131Z"
        fill="#338AF3"
    />
    <path
        d="M14.7826 13.9131H18.2609L17.6811 9.56525L15.3623 7.82611L13.0435 9.56525V13.0435L14.7826 13.9131Z"
        fill="#338AF3"
    />
    <path d="M22.3189 13.9131H17.6811V9.56525L20 7.82611L22.3189 9.56525V13.9131Z" fill="#0052B4" />
    <path
        d="M13.0435 13.0436V22.6088C13.0435 24.8864 14.1437 26.9118 15.8405 28.1816L17.058 27.877L18.5942 29.4225C19.0485 29.5161 19.5186 29.5654 20.0001 29.5654C20.479 29.5654 20.9467 29.5167 21.3986 29.424L23.1523 27.9639L24.1595 28.1788C25.8556 26.9091 26.9566 24.8857 26.9566 22.6088V13.0436H13.0435Z"
        fill="#F0F0F0"
    />
    <rect x="13.0435" y="13.0435" width="2.78258" height="2.78258" fill="#D80027" />
    <rect x="18.6087" y="13.0435" width="2.78258" height="2.78258" fill="#D80027" />
    <rect x="24.1739" y="13.0435" width="2.78258" height="2.78258" fill="#D80027" />
    <rect x="15.8261" y="15.8261" width="2.78258" height="2.78258" fill="#D80027" />
    <rect x="21.3914" y="15.8261" width="2.78258" height="2.78258" fill="#D80027" />
    <rect x="13.0435" y="18.6078" width="2.78258" height="2.78258" fill="#D80027" />
    <rect x="15.8261" y="21.3904" width="2.78258" height="2.78258" fill="#D80027" />
    <rect x="18.6087" y="18.6078" width="2.78258" height="2.78258" fill="#D80027" />
    <rect x="24.1739" y="18.6078" width="2.78258" height="2.78258" fill="#D80027" />
    <rect x="21.3914" y="21.3904" width="2.78258" height="2.78258" fill="#D80027" />
    <rect x="18.6087" y="24.173" width="2.78258" height="2.78258" fill="#D80027" />
    <path d="M15.8261 24.1733H13.223C13.4618 25.2077 13.9311 26.1541 14.5747 26.9559H15.8261V24.1733Z" fill="#D80027" />
    <path
        d="M24.1739 26.9559H25.4251C26.0689 26.1542 26.5381 25.2076 26.7769 24.1733H24.1739V26.9559H24.1739Z"
        fill="#D80027"
    />
    <path
        d="M15.8261 26.9559V28.1701C16.6354 28.7791 17.5812 29.2157 18.6087 29.4252V26.9559H15.8261V26.9559Z"
        fill="#D80027"
    />
    <path
        d="M21.3914 26.9559V29.4252C22.4189 29.2159 23.3646 28.7791 24.1739 28.1701V26.9559H21.3914V26.9559Z"
        fill="#D80027"
    />
</svg>
