<svg xmlns="http://www.w3.org/2000/svg" width="40" height="40" viewBox="0 0 40 40" fill="none">
    <rect width="40" height="20" fill="#0052B4" />
    <rect y="20" width="40" height="20" fill="#A2001D" />
    <path d="M26.9565 25.2174L20 24.3478L13.0435 25.2174V14.7826H26.9565V25.2174Z" fill="#F0F0F0" />
    <path
        d="M20 24.3478C21.921 24.3478 23.4783 22.7905 23.4783 20.8695C23.4783 18.9485 21.921 17.3912 20 17.3912C18.079 17.3912 16.5217 18.9485 16.5217 20.8695C16.5217 22.7905 18.079 24.3478 20 24.3478Z"
        fill="#0052B4"
    />
    <path
        d="M20 22.6087C20.9605 22.6087 21.7391 21.8301 21.7391 20.8696C21.7391 19.9091 20.9605 19.1304 20 19.1304C19.0395 19.1304 18.2609 19.9091 18.2609 20.8696C18.2609 21.8301 19.0395 22.6087 20 22.6087Z"
        fill="#A2001D"
    />
    <path d="M17.3914 16.5217H22.6087L20 19.1305L17.3914 16.5217Z" fill="#6DA544" />
    <rect x="19.1305" y="18.2609" width="1.73914" height="5.21742" fill="#FFDA44" />
    <path d="M22.7826 22.9565H17.2173L13.0435 25.2174H26.9565L22.7826 22.9565Z" fill="#6DA544" />
</svg>
