<svg xmlns="http://www.w3.org/2000/svg" width="40" height="40" viewBox="0 0 40 40" fill="none">
    <rect width="40" height="39.911" fill="#F0F0F0" />
    <rect width="20" height="19.9555" fill="#0052B4" />
    <path
        d="M36.6664 22.378C34.9998 22.378 34.9998 20.8604 33.333 20.8604C31.6664 20.8604 31.6664 22.378 29.9998 22.378C28.3333 22.378 28.3332 20.8604 26.6666 20.8604C25 20.8604 25 22.378 23.3333 22.378C21.6666 22.378 21.6665 20.8604 19.9997 20.8604C18.333 20.8604 18.333 22.378 16.6665 22.378C15.0001 22.378 15.0001 20.8604 13.3334 20.8604C11.6666 20.8604 11.6666 22.378 9.99984 22.378C8.33305 22.378 8.33305 20.8604 6.66625 20.8604C4.99984 20.8604 4.99984 22.378 3.3332 22.378C1.67555 22.378 1.66594 20.8771 0.0260143 20.8611L0.026001 23.516C1.35444 23.7103 1.79133 25.0334 3.33336 25.0334C5 25.0334 5 23.516 6.6664 23.516C8.3332 23.516 8.3332 25.0334 10 25.0334C11.6668 25.0334 11.6668 23.516 13.3336 23.516C15.0002 23.516 15.0002 25.0334 16.6666 25.0334C18.3333 25.0334 18.3333 23.516 19.9998 23.516C21.6666 23.516 21.6666 25.0334 23.3334 25.0334C25.0002 25.0334 25.0002 23.516 26.6668 23.516C28.3334 23.516 28.3334 25.0334 30 25.0334C31.6666 25.0334 31.6666 23.516 33.3332 23.516C35 23.516 35 25.0334 36.6666 25.0334C38.2087 25.0334 38.6457 23.7104 39.9742 23.516V20.8611C38.3339 20.8772 38.3241 22.378 36.6664 22.378Z"
        fill="#0052B4"
    />
    <path
        d="M36.6664 27.3668C34.9998 27.3668 34.9998 25.8492 33.333 25.8492C31.6664 25.8492 31.6664 27.3668 29.9998 27.3668C28.3333 27.3668 28.3332 25.8492 26.6666 25.8492C25 25.8492 25 27.3668 23.3333 27.3668C21.6666 27.3668 21.6665 25.8492 19.9997 25.8492C18.333 25.8492 18.333 27.3668 16.6665 27.3668C15.0001 27.3668 15.0001 25.8492 13.3334 25.8492C11.6666 25.8492 11.6666 27.3668 9.99984 27.3668C8.33305 27.3668 8.33305 25.8492 6.66625 25.8492C4.99984 25.8492 4.99984 27.3668 3.3332 27.3668C1.67555 27.3668 1.66594 25.866 0.0260143 25.8499L0.026001 28.5048C1.35444 28.6991 1.79133 30.0222 3.33336 30.0222C5 30.0222 5 28.5048 6.6664 28.5048C8.3332 28.5048 8.3332 30.0222 10 30.0222C11.6668 30.0222 11.6668 28.5048 13.3336 28.5048C15.0002 28.5048 15.0002 30.0222 16.6666 30.0222C18.3333 30.0222 18.3333 28.5048 19.9998 28.5048C21.6666 28.5048 21.6666 30.0222 23.3334 30.0222C25.0002 30.0222 25.0002 28.5048 26.6668 28.5048C28.3334 28.5048 28.3334 30.0222 30 30.0222C31.6666 30.0222 31.6666 28.5048 33.3332 28.5048C35 28.5048 35 30.0222 36.6666 30.0222C38.2087 30.0222 38.6457 28.6992 39.9742 28.5048V25.8499C38.3339 25.866 38.3241 27.3668 36.6664 27.3668Z"
        fill="#0052B4"
    />
    <path
        d="M36.6664 32.3557C34.9998 32.3557 34.9998 30.8381 33.333 30.8381C31.6664 30.8381 31.6664 32.3557 29.9998 32.3557C28.3333 32.3557 28.3332 30.8381 26.6666 30.8381C25 30.8381 25 32.3557 23.3333 32.3557C21.6666 32.3557 21.6665 30.8381 19.9997 30.8381C18.333 30.8381 18.333 32.3557 16.6665 32.3557C15.0001 32.3557 15.0001 30.8381 13.3334 30.8381C11.6666 30.8381 11.6666 32.3557 9.99984 32.3557C8.33305 32.3557 8.33305 30.8381 6.66625 30.8381C4.99984 30.8381 4.99984 32.3557 3.3332 32.3557C1.67555 32.3557 1.66594 30.8549 0.0260143 30.8388L0.026001 33.4937C1.35444 33.688 1.79133 35.0111 3.33336 35.0111C5 35.0111 5 33.4937 6.6664 33.4937C8.3332 33.4937 8.3332 35.0111 10 35.0111C11.6668 35.0111 11.6668 33.4937 13.3336 33.4937C15.0002 33.4937 15.0002 35.0111 16.6666 35.0111C18.3333 35.0111 18.3333 33.4937 19.9998 33.4937C21.6666 33.4937 21.6666 35.0111 23.3334 35.0111C25.0002 35.0111 25.0002 33.4937 26.6668 33.4937C28.3334 33.4937 28.3334 35.0111 30 35.0111C31.6666 35.0111 31.6666 33.4937 33.3332 33.4937C35 33.4937 35 35.0111 36.6666 35.0111C38.2087 35.0111 38.6457 33.6881 39.9742 33.4937V30.8388C38.3339 30.8549 38.3241 32.3557 36.6664 32.3557Z"
        fill="#0052B4"
    />
    <path
        d="M36.6664 37.3446C34.9998 37.3446 34.9998 35.827 33.333 35.827C31.6664 35.827 31.6664 37.3446 29.9998 37.3446C28.3333 37.3446 28.3332 35.827 26.6666 35.827C25 35.827 25 37.3446 23.3333 37.3446C21.6666 37.3446 21.6665 35.827 19.9997 35.827C18.333 35.827 18.333 37.3446 16.6665 37.3446C15.0001 37.3446 15.0001 35.827 13.3334 35.827C11.6666 35.827 11.6666 37.3446 9.99984 37.3446C8.33305 37.3446 8.33305 35.827 6.66625 35.827C4.99984 35.827 4.99984 37.3446 3.3332 37.3446C1.67555 37.3446 1.66594 35.8438 0.0260143 35.8277L0.026001 38.4826C1.35444 38.6769 1.79133 40 3.33336 40C5 40 5 38.4826 6.6664 38.4826C8.3332 38.4826 8.3332 40 10 40C11.6668 40 11.6668 38.4826 13.3336 38.4826C15.0002 38.4826 15.0002 40 16.6666 40C18.3333 40 18.3333 38.4826 19.9998 38.4826C21.6666 38.4826 21.6666 40 23.3334 40C25.0002 40 25.0002 38.4826 26.6668 38.4826C28.3334 38.4826 28.3334 40 30 40C31.6666 40 31.6666 38.4826 33.3332 38.4826C35 38.4826 35 40 36.6666 40C38.2087 40 38.6457 38.677 39.9742 38.4826V35.8277C38.3339 35.8438 38.3241 37.3446 36.6664 37.3446Z"
        fill="#0052B4"
    />
    <path
        d="M36.6664 17.3891C34.9998 17.3891 34.9998 15.8715 33.333 15.8715C31.6664 15.8715 31.6664 17.3891 29.9998 17.3891C28.3333 17.3891 28.3332 15.8715 26.6666 15.8715C25 15.8715 25 17.3891 23.3333 17.3891C21.6666 17.3891 21.6665 15.8715 19.9997 15.8715C18.333 15.8715 18.333 17.3891 16.6665 17.3891C15.0001 17.3891 15.0001 15.8715 13.3334 15.8715C11.6666 15.8715 11.6666 17.3891 9.99984 17.3891C8.33305 17.3891 8.33305 15.8715 6.66625 15.8715C4.99984 15.8715 4.99984 17.3891 3.3332 17.3891C1.67555 17.3891 1.66594 15.8882 0.0260143 15.8722L0.026001 18.5271C1.35444 18.7214 1.79133 20.0445 3.33336 20.0445C5 20.0445 5 18.5271 6.6664 18.5271C8.3332 18.5271 8.3332 20.0445 10 20.0445C11.6668 20.0445 11.6668 18.5271 13.3336 18.5271C15.0002 18.5271 15.0002 20.0445 16.6666 20.0445C18.3333 20.0445 18.3333 18.5271 19.9998 18.5271C21.6666 18.5271 21.6666 20.0445 23.3334 20.0445C25.0002 20.0445 25.0002 18.5271 26.6668 18.5271C28.3334 18.5271 28.3334 20.0445 30 20.0445C31.6666 20.0445 31.6666 18.5271 33.3332 18.5271C35 18.5271 35 20.0445 36.6666 20.0445C38.2087 20.0445 38.6457 18.7215 39.9742 18.5271V15.8722C38.3339 15.8883 38.3241 17.3891 36.6664 17.3891Z"
        fill="#0052B4"
    />
    <path
        d="M36.6664 12.4002C34.9998 12.4002 34.9998 10.8826 33.333 10.8826C31.6664 10.8826 31.6664 12.4002 29.9998 12.4002C28.3333 12.4002 28.3332 10.8826 26.6666 10.8826C25 10.8826 25 12.4002 23.3333 12.4002C21.6666 12.4002 21.6665 10.8826 19.9997 10.8826C18.333 10.8826 18.333 12.4002 16.6665 12.4002C15.0001 12.4002 15.0001 10.8826 13.3334 10.8826C11.6666 10.8826 11.6666 12.4002 9.99984 12.4002C8.33305 12.4002 8.33305 10.8826 6.66625 10.8826C4.99984 10.8826 4.99984 12.4002 3.3332 12.4002C1.67555 12.4002 1.66594 10.8994 0.0260143 10.8833L0.026001 13.5382C1.35444 13.7325 1.79133 15.0556 3.33336 15.0556C5 15.0556 5 13.5382 6.6664 13.5382C8.3332 13.5382 8.3332 15.0556 10 15.0556C11.6668 15.0556 11.6668 13.5382 13.3336 13.5382C15.0002 13.5382 15.0002 15.0556 16.6666 15.0556C18.3333 15.0556 18.3333 13.5382 19.9998 13.5382C21.6666 13.5382 21.6666 15.0556 23.3334 15.0556C25.0002 15.0556 25.0002 13.5382 26.6668 13.5382C28.3334 13.5382 28.3334 15.0556 30 15.0556C31.6666 15.0556 31.6666 13.5382 33.3332 13.5382C35 13.5382 35 15.0556 36.6666 15.0556C38.2087 15.0556 38.6457 13.7326 39.9742 13.5382V10.8833C38.3339 10.8994 38.3241 12.4002 36.6664 12.4002Z"
        fill="#0052B4"
    />
    <path
        d="M36.6664 7.41135C34.9998 7.41135 34.9998 5.8938 33.333 5.8938C31.6664 5.8938 31.6664 7.41135 29.9998 7.41135C28.3333 7.41135 28.3332 5.8938 26.6666 5.8938C25 5.8938 25 7.41135 23.3333 7.41135C21.6666 7.41135 21.6665 5.8938 19.9997 5.8938C18.333 5.8938 18.333 7.41135 16.6665 7.41135C15.0001 7.41135 15.0001 5.8938 13.3334 5.8938C11.6666 5.8938 11.6666 7.41135 9.99984 7.41135C8.33305 7.41135 8.33305 5.8938 6.66625 5.8938C4.99984 5.8938 4.99984 7.41135 3.3332 7.41135C1.67555 7.41135 1.66594 5.91053 0.0260143 5.8945L0.026001 8.5494C1.35444 8.74366 1.79133 10.0668 3.33336 10.0668C5 10.0668 5 8.5494 6.6664 8.5494C8.3332 8.5494 8.3332 10.0668 10 10.0668C11.6668 10.0668 11.6668 8.5494 13.3336 8.5494C15.0002 8.5494 15.0002 10.0668 16.6666 10.0668C18.3333 10.0668 18.3333 8.5494 19.9998 8.5494C21.6666 8.5494 21.6666 10.0668 23.3334 10.0668C25.0002 10.0668 25.0002 8.5494 26.6668 8.5494C28.3334 8.5494 28.3334 10.0668 30 10.0668C31.6666 10.0668 31.6666 8.5494 33.3332 8.5494C35 8.5494 35 10.0668 36.6666 10.0668C38.2087 10.0668 38.6457 8.74374 39.9742 8.5494V5.8945C38.3339 5.9106 38.3241 7.41135 36.6664 7.41135Z"
        fill="#0052B4"
    />
    <path
        d="M36.6664 2.42246C34.9998 2.42246 34.9998 0.904907 33.333 0.904907C31.6664 0.904907 31.6664 2.42246 29.9998 2.42246C28.3333 2.42246 28.3332 0.904907 26.6666 0.904907C25 0.904907 25 2.42246 23.3333 2.42246C21.6666 2.42246 21.6665 0.904907 19.9997 0.904907C18.333 0.904907 18.333 2.42246 16.6665 2.42246C15.0001 2.42246 15.0001 0.904907 13.3334 0.904907C11.6666 0.904907 11.6666 2.42246 9.99984 2.42246C8.33305 2.42246 8.33305 0.904907 6.66625 0.904907C4.99984 0.904907 4.99984 2.42246 3.3332 2.42246C1.67555 2.42246 1.66594 0.921634 0.0260143 0.905607L0.026001 3.5605C1.35444 3.75477 1.79133 5.0779 3.33336 5.0779C5 5.0779 5 3.5605 6.6664 3.5605C8.3332 3.5605 8.3332 5.0779 10 5.0779C11.6668 5.0779 11.6668 3.5605 13.3336 3.5605C15.0002 3.5605 15.0002 5.0779 16.6666 5.0779C18.3333 5.0779 18.3333 3.5605 19.9998 3.5605C21.6666 3.5605 21.6666 5.0779 23.3334 5.0779C25.0002 5.0779 25.0002 3.5605 26.6668 3.5605C28.3334 3.5605 28.3334 5.0779 30 5.0779C31.6666 5.0779 31.6666 3.5605 33.3332 3.5605C35 3.5605 35 5.0779 36.6666 5.0779C38.2087 5.0779 38.6457 3.75485 39.9742 3.5605V0.905607C38.3339 0.921712 38.3241 2.42246 36.6664 2.42246Z"
        fill="#0052B4"
    />
    <path
        d="M19.9918 20.0129H20.1441C20.1441 19.9899 20.1441 19.9676 20.1441 19.9445C20.0934 19.9674 20.0427 19.9901 19.9918 20.0129Z"
        fill="#F0F0F0"
    />
    <path d="M26.087 10.469H33.9131L30 14.3657L26.087 10.469Z" fill="#6DA544" />
    <rect x="29.1305" y="13.4999" width="1.73914" height="4.76263" fill="#A2001D" />
    <rect x="29.1305" y="26.056" width="1.73914" height="4.76263" fill="#A2001D" />
    <path
        d="M35.2174 23.4582C35.2174 22.0235 34.0495 20.8604 32.6087 20.8604C31.9405 20.8604 31.3312 21.1109 30.8696 21.5224V19.9944H31.7391V18.2625H30.8696V17.3966H29.1305V18.2625H28.2609V19.9944H29.1305V21.5224C28.6688 21.1109 28.0596 20.8604 27.3913 20.8604C25.9506 20.8604 24.7827 22.0235 24.7827 23.4582C24.7827 24.2274 25.1187 24.9182 25.6522 25.394V26.9219H34.3478V25.394C34.8814 24.9182 35.2174 24.2274 35.2174 23.4582Z"
        fill="#FFDA44"
    />
    <path
        d="M32.6087 22.5922C32.3344 22.5922 32.1423 22.7121 32.0294 22.8126L30.8695 23.8467H29.1305L27.9705 22.8126C27.8576 22.7121 27.6656 22.5922 27.3913 22.5922C26.9119 22.5922 26.5218 22.9806 26.5218 23.4581C26.5218 23.7944 26.7039 24.0069 26.8124 24.1037L27.3914 24.62V25.19H32.6088V24.62L33.1878 24.1037C33.2963 24.0069 33.4784 23.7944 33.4784 23.4581C33.4783 22.9806 33.0882 22.5922 32.6087 22.5922Z"
        fill="#D80027"
    />
    <path
        fill-rule="evenodd"
        clip-rule="evenodd"
        d="M0 0H8H16H20V2.99332V7.98219L13 7.98219L20 14.9666V19.9555H17L10 12.9711V19.9555H0V0Z"
        fill="#F0F0F0"
    />
    <path
        fill-rule="evenodd"
        clip-rule="evenodd"
        d="M8 0H3V2.99332H0V7.98219H3V19.9555H8V7.98219H20V2.99332H8V0ZM20 16.5476L12.8943 9.47155C12.8943 9.47155 10.4348 9.4717 10.4348 9.47155V9.4717L19.9999 18.9968H20V16.5476Z"
        fill="#D80027"
    />
</svg>
