<svg xmlns="http://www.w3.org/2000/svg" width="40" height="40" viewBox="0 0 40 40" fill="none">
    <rect width="40" height="13" fill="#A2001D" />
    <rect y="27" width="40" height="13" fill="black" />
    <rect y="13" width="40" height="14" fill="#F0F0F0" />
    <path
        d="M15.2174 18.6956C15.2065 18.6956 15.1958 18.6963 15.1848 18.6965V18.6956H11.3616C11.5555 17.9467 12.235 17.3913 13.0435 17.3913V14.7826C10.6461 14.7826 8.6957 16.7331 8.6957 19.1304V21.2609V21.3044H15.1848C15.1995 21.3044 15.2111 21.3044 15.2174 21.3044C15.4572 21.3044 15.6522 21.4995 15.6522 21.7392V22.6087H6.95648V25.2174H18.2609V21.7391C18.2609 20.061 16.8955 18.6956 15.2174 18.6956Z"
        fill="#496E2D"
    />
    <path d="M21.7392 22.6087V14.7826H19.1305V25.2174H23.4783V22.6087H21.7392Z" fill="#496E2D" />
    <path
        d="M30.4348 22.6088V14.7826H27.8261V22.6088H26.9565V20.0001H24.3478V25.2175H32.1739V22.6088H30.4348Z"
        fill="#496E2D"
    />
</svg>
