<svg xmlns="http://www.w3.org/2000/svg" width="40" height="40" viewBox="0 0 40 40" fill="none">
    <rect width="40" height="40" fill="#D80027" />
    <path d="M36.1111 7.61983e-06L3.88892 0.000196633L20 16.3109L36.1111 7.61983e-06Z" fill="#D80027" />
    <path d="M20 23.6887L3.88892 40H36.1111L20 23.6887Z" fill="#D80027" />
    <path d="M16.3111 20.0001L2.42392e-05 3.88892L0 36.1111L16.3111 20.0001Z" fill="#6DA544" />
    <path d="M23.6888 20.0001L40 36.1111V3.88892L23.6888 20.0001Z" fill="#6DA544" />
    <path
        d="M16.5217 6.08695L20 6.95648L23.4783 6.08695V3.13046L22.087 3.82609L20 1.73914L17.9131 3.82609L16.5217 3.13046V6.08695Z"
        fill="#FFDA44"
    />
    <path
        d="M16.5217 6.08698V8.26104C16.5217 10.9235 20 11.7393 20 11.7393C20 11.7393 23.4783 10.9235 23.4783 8.26104V6.08698H16.5217Z"
        fill="#D80027"
    />
</svg>
