<svg xmlns="http://www.w3.org/2000/svg" width="40" height="40" viewBox="0 0 40 40" fill="none">
    <rect y="13.3334" width="40" height="13.3333" fill="#A2001D" />
    <rect width="40" height="13.3333" fill="#3D3D3D" />
    <rect y="26.6666" width="40" height="13.3333" fill="#496E2D" />
    <rect y="11.2223" width="40" height="2.66667" fill="#F0F0F0" />
    <rect y="26.0889" width="40" height="2.66667" fill="#F0F0F0" />
    <path
        d="M26.2278 9.24435L23.8589 8.15101L20 16.8888L16.1411 8.1499L13.7722 9.24324L18.5634 19.9999L13.7722 30.7577L16.1411 31.851L20 23.1132L23.8589 31.8521L26.2278 30.7588L21.4367 19.9999L26.2278 9.24435Z"
        fill="#F0F0F0"
    />
    <path
        d="M21.6089 10.2733C20.6923 9.27333 20 8.69556 20 8.69556C20 8.69556 19.3078 9.27111 18.3911 10.2733V29.7289C19.3078 30.7289 20 31.3067 20 31.3067C20 31.3067 20.6923 30.7311 21.6089 29.7289V10.2733Z"
        fill="#F0F0F0"
    />
</svg>
