<svg xmlns="http://www.w3.org/2000/svg" width="40" height="40" viewBox="0 0 40 40" fill="none">
    <rect y="0.000244139" width="39.9998" height="19.9999" fill="#D80027" />
    <path
        d="M26.9554 18.5999L24.1132 19.9365L25.6265 22.6898L22.5399 22.1009L22.1488 25.2187L19.9999 22.9243L17.8499 25.2176L17.4588 22.0998L14.3721 22.6887L15.8855 19.9354L13.0433 18.5987L15.8855 17.2621L14.3721 14.5099L17.4588 15.0988L17.8499 11.981L19.9999 14.2754L22.1499 11.9821L22.541 15.0999L25.6276 14.511L24.1143 17.2643L26.9554 18.5999Z"
        fill="#EECC2F"
    />
    <rect y="20.0001" width="39.9998" height="19.9999" fill="#0052B4" />
    <path
        d="M39.9998 18.4999C38.3953 18.5377 38.3409 19.9419 36.6953 19.9419C35.0287 19.9419 35.0287 18.4175 33.362 18.4175C31.6954 18.4175 31.6954 19.9419 30.0287 19.9419C28.362 19.9419 28.362 18.4175 26.6954 18.4175C25.0287 18.4175 25.0287 19.9419 23.3621 19.9419C21.6954 19.9419 21.6954 18.4175 20.0288 18.4175C18.3621 18.4175 18.3621 19.9419 16.6955 19.9419C15.0288 19.9419 15.0288 18.4175 13.3621 18.4175C11.6955 18.4175 11.6955 19.9419 10.0288 19.9419C8.36217 19.9419 8.36217 18.4175 6.69552 18.4175C5.02886 18.4175 5.02886 19.9419 3.3622 19.9419C1.71777 19.9419 1.60443 18.4575 0 18.4197L0 21.0853C1.63666 21.1041 1.70555 22.6075 3.3622 22.6075C5.02886 22.6075 5.02886 21.0853 6.69552 21.0853C8.36217 21.0853 8.36217 22.6075 10.0288 22.6075C11.6955 22.6075 11.6955 21.0853 13.3621 21.0853C15.0288 21.0853 15.0288 22.6075 16.6955 22.6075C18.3621 22.6075 18.3621 21.0853 20.0288 21.0853C21.6954 21.0853 21.6954 22.6075 23.3621 22.6075C25.0287 22.6075 25.0287 21.0853 26.6954 21.0853C28.362 21.0853 28.362 22.6075 30.0287 22.6075C31.6954 22.6075 31.6954 21.0853 33.362 21.0853C35.0287 21.0853 35.0287 22.6075 36.6953 22.6075C38.3509 22.6075 38.362 21.103 39.9998 21.0853L39.9998 18.4999Z"
        fill="#F0F0F0"
    />
    <path
        d="M39.9998 23.4999C38.3953 23.5376 38.3409 25.2246 36.6953 25.2246C35.0287 25.2246 35.0287 23.7001 33.362 23.7001C31.6954 23.7001 31.6954 25.2246 30.0287 25.2246C28.362 25.2246 28.362 23.7001 26.6954 23.7001C25.0287 23.7001 25.0287 25.2246 23.3621 25.2246C21.6954 25.2246 21.6954 23.7001 20.0288 23.7001C18.3621 23.7001 18.3621 25.2246 16.6955 25.2246C15.0288 25.2246 15.0288 23.7001 13.3621 23.7001C11.6955 23.7001 11.6955 25.2246 10.0288 25.2246C8.36217 25.2246 8.36217 23.7001 6.69552 23.7001C5.02886 23.7001 5.02886 25.2246 3.3622 25.2246C1.71777 25.2246 1.60443 23.7401 0 23.7023L0 26.3679C1.63666 26.3868 1.70555 27.8901 3.3622 27.8901C5.02886 27.8901 5.02886 26.3679 6.69552 26.3679C8.36217 26.3679 8.36217 27.8901 10.0288 27.8901C11.6955 27.8901 11.6955 26.3679 13.3621 26.3679C15.0288 26.3679 15.0288 27.8901 16.6955 27.8901C18.3621 27.8901 18.3621 26.3679 20.0288 26.3679C21.6954 26.3679 21.6954 27.8901 23.3621 27.8901C25.0287 27.8901 25.0287 26.3679 26.6954 26.3679C28.362 26.3679 28.362 27.8901 30.0287 27.8901C31.6954 27.8901 31.6954 26.3679 33.362 26.3679C35.0287 26.3679 35.0287 27.8901 36.6953 27.8901C38.3509 27.8901 38.362 26.3857 39.9998 26.3679L39.9998 23.4999Z"
        fill="#F0F0F0"
    />
    <path
        d="M39.9998 28.8889C38.3953 28.9267 38.3409 30.4133 36.6953 30.4133C35.0287 30.4133 35.0287 28.8889 33.362 28.8889C31.6954 28.8889 31.6954 30.4133 30.0287 30.4133C28.362 30.4133 28.362 28.8889 26.6954 28.8889C25.0287 28.8889 25.0287 30.4133 23.3621 30.4133C21.6954 30.4133 21.6954 28.8889 20.0288 28.8889C18.3621 28.8889 18.3621 30.4133 16.6955 30.4133C15.0288 30.4133 15.0288 28.8889 13.3621 28.8889C11.6955 28.8889 11.6955 30.4133 10.0288 30.4133C8.36217 30.4133 8.36217 28.8889 6.69552 28.8889C5.02886 28.8889 5.02886 30.4133 3.3622 30.4133C1.71777 30.4133 1.60443 28.9289 0 28.8911L0 31.5567C1.63666 31.5755 1.70555 33.0789 3.3622 33.0789C5.02886 33.0789 5.02886 31.5567 6.69552 31.5567C8.36217 31.5567 8.36217 33.0789 10.0288 33.0789C11.6955 33.0789 11.6955 31.5567 13.3621 31.5567C15.0288 31.5567 15.0288 33.0789 16.6955 33.0789C18.3621 33.0789 18.3621 31.5567 20.0288 31.5567C21.6954 31.5567 21.6954 33.0789 23.3621 33.0789C25.0287 33.0789 25.0287 31.5567 26.6954 31.5567C28.362 31.5567 28.362 33.0789 30.0287 33.0789C31.6954 33.0789 31.6954 31.5567 33.362 31.5567C35.0287 31.5567 35.0287 33.0789 36.6953 33.0789C38.3509 33.0789 38.362 31.5744 39.9998 31.5567V28.8889Z"
        fill="#F0F0F0"
    />
    <path
        d="M25.2176 6.52218H21.3043C21.3043 5.80218 20.7199 5.21774 19.9999 5.21774C19.2799 5.21774 18.6954 5.80218 18.6954 6.52218H14.7821C14.7821 7.24217 15.4099 7.82661 16.1299 7.82661H16.0855C16.0855 8.54661 16.6699 9.13105 17.3899 9.13105C17.3899 9.85105 17.9743 10.4355 18.6943 10.4355H21.3032C22.0232 10.4355 22.6076 9.85105 22.6076 9.13105C23.3276 9.13105 23.9121 8.54661 23.9121 7.82661H23.8676C24.5876 7.82661 25.2154 7.24217 25.2154 6.52218H25.2176Z"
        fill="#EECC2F"
    />
</svg>
