<svg xmlns="http://www.w3.org/2000/svg" width="40" height="40" viewBox="0 0 40 40" fill="none">
    <rect y="30" width="40" height="10" fill="#0052B4" />
    <rect y="20" width="40" height="10" fill="#D80027" />
    <rect y="10" width="40" height="10" fill="#F0F0F0" />
    <rect width="40" height="10" fill="#FFDA44" />
    <path d="M20 20L0 0V40L20 20Z" fill="#6DA544" />
    <path
        d="M5.34311 19.9421C5.34311 17.0282 7.387 14.5939 10.1164 13.9967C9.69687 13.9049 9.26162 13.8552 8.81453 13.8552C5.45928 13.8552 2.73944 16.5803 2.73944 19.9421C2.73944 23.3039 5.45928 26.0291 8.81453 26.0291C9.26155 26.0291 9.69679 25.9793 10.1164 25.8875C7.387 25.2902 5.34311 22.856 5.34311 19.9421Z"
        fill="#F0F0F0"
    />
    <path
        d="M10.0494 14.7247L10.3725 15.7211H11.4182L10.5722 16.3369L10.8954 17.3333L10.0494 16.7176L9.20335 17.3333L9.52655 16.3369L8.68054 15.7211H9.72616L10.0494 14.7247Z"
        fill="#F0F0F0"
    />
    <path
        d="M10.0494 17.3334L10.3725 18.3299H11.4182L10.5722 18.9456L10.8954 19.9421L10.0494 19.3263L9.20335 19.9421L9.52655 18.9456L8.68054 18.3299H9.72616L10.0494 17.3334Z"
        fill="#F0F0F0"
    />
    <path
        d="M10.0494 19.9421L10.3725 20.9385H11.4182L10.5722 21.5544L10.8954 22.5508L10.0494 21.935L9.20335 22.5508L9.52655 21.5544L8.68054 20.9385H9.72616L10.0494 19.9421Z"
        fill="#F0F0F0"
    />
    <path
        d="M10.0494 22.5508L10.3725 23.5472H11.4182L10.5722 24.163L10.8954 25.1595L10.0494 24.5437L9.20335 25.1595L9.52655 24.163L8.68054 23.5472H9.72616L10.0494 22.5508Z"
        fill="#F0F0F0"
    />
</svg>
