<svg xmlns="http://www.w3.org/2000/svg" width="40" height="40" viewBox="0 0 40 40" fill="none">
    <path
        d="M0.000192951 -9.84645e-06L31.1112 -1.25438e-05L0.0001943 31.111L0.000192951 -9.84645e-06Z"
        fill="#6DA544"
    />
    <path d="M8.88881 39.9998L40 8.88885L40 39.9998H8.88881Z" fill="#D80027" />
    <path d="M4.99998 39.9998L39.9998 4.99998L39.9998 8.88884L8.88885 39.9998L4.99998 39.9998Z" fill="#FFDA44" />
    <path
        d="M-1.36907e-05 31.111L31.111 -1.62859e-05L34.9998 -1.66231e-05L-1.35222e-05 34.9998L-1.36907e-05 31.111Z"
        fill="#FFDA44"
    />
    <path
        d="M3.095e-07 34.9998L34.9998 -4.74341e-06L39.9998 0.000163506L39.9998 5.00014L4.99998 39.9998H-4.34243e-08L3.095e-07 34.9998Z"
        fill="#3D3D3D"
    />
    <path
        d="M12.7157 23.5932L14.5823 24.5444L16.0646 23.0632L15.7368 25.1332L17.6034 26.0843L15.5334 26.4121L15.2057 28.4821L14.2546 26.6155L12.1846 26.9432L13.6657 25.4621L12.7157 23.5932Z"
        fill="white"
    />
    <path
        d="M23.6045 12.7044L25.4711 13.6555L26.9534 12.1744L26.6256 14.2444L28.4922 15.1955L26.4223 15.5233L26.0945 17.5932L25.1434 15.7266L23.0734 16.0544L24.5545 14.5733L23.6045 12.7044Z"
        fill="white"
    />
</svg>
