<svg xmlns="http://www.w3.org/2000/svg" width="40" height="40" viewBox="0 0 40 40" fill="none">
    <rect y="33" width="40" height="7" fill="#0052B4" />
    <rect width="40" height="7" fill="#0052B4" />
    <rect width="40" height="3" transform="matrix(1 0 0 -1 0 33)" fill="#F0F0F0" />
    <rect width="40" height="3" transform="matrix(1 0 0 -1 0 10)" fill="#F0F0F0" />
    <rect y="10" width="40" height="20" fill="#D80027" />
    <path
        d="M12.3044 27.6956C16.5546 27.6956 20 24.2501 20 19.9999C20 15.7498 16.5546 12.3043 12.3044 12.3043C8.05421 12.3043 4.60876 15.7498 4.60876 19.9999C4.60876 24.2501 8.05421 27.6956 12.3044 27.6956Z"
        fill="#F0F0F0"
    />
    <path
        d="M12.3044 12.3043L14.031 17.6185H19.6278L15.0983 20.903L16.8385 26.233L12.3044 22.9328L7.77722 26.2268L9.5105 20.903L4.98511 17.6185H10.5777L12.3044 12.3043Z"
        fill="#D80027"
    />
</svg>
