<svg xmlns="http://www.w3.org/2000/svg" width="40" height="40" viewBox="0 0 40 40" fill="none">
    <rect width="40" height="40" fill="#0052B4" />
    <path fill-rule="evenodd" clip-rule="evenodd" d="M0 0H8H16H20V3V8L13 8L20 15V20H17L10 13V20H0V0Z" fill="#F0F0F0" />
    <path
        fill-rule="evenodd"
        clip-rule="evenodd"
        d="M8 0H3V3H0V8H3V20H8V8H20V3H8V0ZM20 16.5845L12.8943 9.49268C12.8943 9.49268 10.4348 9.49283 10.4348 9.49268V9.49283L19.9999 19.0392H20V16.5845Z"
        fill="#D80027"
    />
    <path
        d="M19.9499 20.0576H20.0184C20.0184 20.0346 20.0184 20.0122 20.0184 19.9891C19.9956 20.012 19.9728 20.0348 19.9499 20.0576Z"
        fill="#F0F0F0"
    />
    <path
        d="M28.6956 14.8319C30.6166 14.8319 32.1739 13.2776 32.1739 11.3604C32.1739 9.4431 30.6166 7.88885 28.6956 7.88885C26.7746 7.88885 25.2173 9.4431 25.2173 11.3604C25.2173 13.2776 26.7746 14.8319 28.6956 14.8319Z"
        fill="#6DA544"
    />
    <rect x="22.6087" y="10.4924" width="12.1739" height="5.20725" fill="#D80027" />
    <path
        d="M22.6087 23.5105V26.982H24.4387C25.5359 28.0552 27.0379 28.7177 28.6956 28.7177C30.3534 28.7177 31.8553 28.0552 32.9526 26.982H33.0434H34.7826V23.5105H22.6087Z"
        fill="#FFDA44"
    />
    <path
        d="M22.6087 14.8317V20.039C22.6087 24.6892 28.6956 26.1141 28.6956 26.1141C28.6956 26.1141 34.7826 24.6892 34.7826 20.039V14.8317L22.6087 14.8317Z"
        fill="#338AF3"
    />
    <path
        d="M28.6953 17.6132C27.1737 17.6132 27.1737 19.0018 25.652 19.0018C24.1304 19.0018 24.1304 17.6132 22.6087 17.6132V20.0432C24.1304 20.0432 24.1304 21.4318 25.652 21.4318C27.1737 21.4318 27.1737 20.0432 28.6953 20.0432C30.2171 20.0432 30.2171 21.4318 31.739 21.4318C33.2609 21.4318 33.2608 20.0432 34.7827 20.0432V17.6132C33.2609 17.6132 33.2609 19.0018 31.739 19.0018C30.2171 19.0018 30.2171 17.6132 28.6953 17.6132Z"
        fill="#F3F3F3"
    />
    <path
        d="M28.6953 12.7488C27.1737 12.7488 27.1737 14.1375 25.652 14.1375C24.1304 14.1375 24.1304 12.7488 22.6087 12.7488V15.1789C24.1304 15.1789 24.1304 16.5675 25.652 16.5675C27.1737 16.5675 27.1737 15.1789 28.6953 15.1789C30.2171 15.1789 30.2171 16.5675 31.739 16.5675C33.2609 16.5675 33.2608 15.1789 34.7827 15.1789V12.7488C33.2609 12.7488 33.2609 14.1375 31.739 14.1375C30.2171 14.1375 30.2171 12.7488 28.6953 12.7488Z"
        fill="#F3F3F3"
    />
</svg>
