<svg xmlns="http://www.w3.org/2000/svg" width="40" height="40" viewBox="0 0 40 40" fill="none">
    <path d="M0 0H40V40H0V0Z" fill="#00A6C8" />
    <path
        d="M20.2279 25.0757C19.8334 25.0806 19.6855 25.3271 19.6855 25.623C19.6855 26.0175 20.2279 27.8962 20.2279 27.8962C20.2279 27.8962 20.7703 26.0175 20.7703 25.623C20.7703 25.3271 20.6224 25.0757 20.2279 25.0757Z"
        fill="#FFEC2D"
    />
    <path
        d="M20.2279 24.1708C23.8921 24.1708 26.8625 21.2004 26.8625 17.5362C26.8625 13.8721 23.8921 10.9017 20.2279 10.9017C16.5637 10.9017 13.5933 13.8721 13.5933 17.5362C13.5933 21.2004 16.5637 24.1708 20.2279 24.1708Z"
        fill="#FFEC2D"
    />
    <path
        d="M20.228 9.99677C20.6224 9.99184 20.7704 9.74529 20.7704 9.44943C20.7704 9.05496 20.228 7.17627 20.228 7.17627C20.228 7.17627 19.6855 9.05496 19.6855 9.44943C19.6855 9.74529 19.8335 9.99677 20.228 9.99677Z"
        fill="#FFEC2D"
    />
    <path
        d="M27.7673 17.5363C27.7723 17.9308 28.0188 18.0787 28.3147 18.0787C28.7091 18.0787 30.5878 17.5363 30.5878 17.5363C30.5878 17.5363 28.7091 16.9939 28.3147 16.9939C28.0188 16.9939 27.7673 17.1418 27.7673 17.5363Z"
        fill="#FFEC2D"
    />
    <path
        d="M12.6885 17.5362C12.6836 17.1418 12.437 16.9938 12.1411 16.9938C11.7467 16.9938 9.86798 17.5362 9.86798 17.5362C9.86798 17.5362 11.7467 18.0787 12.1411 18.0787C12.437 18.0787 12.6885 17.9307 12.6885 17.5362Z"
        fill="#FFEC2D"
    />
    <path
        d="M23.1131 10.5707C23.4794 10.7171 23.7105 10.546 23.8237 10.2726C23.9746 9.90814 24.1925 7.96489 24.1925 7.96489C24.1925 7.96489 22.9724 9.49301 22.8214 9.85745C22.7082 10.1308 22.7487 10.4198 23.1131 10.5707Z"
        fill="#FFEC2D"
    />
    <path
        d="M27.1934 20.4214C27.047 20.7878 27.2182 21.0188 27.4915 21.132C27.856 21.283 29.7992 21.5008 29.7992 21.5008C29.7992 21.5008 28.2711 20.2807 27.9066 20.1298C27.6333 20.0166 27.3444 20.057 27.1934 20.4214Z"
        fill="#FFEC2D"
    />
    <path
        d="M17.3427 24.5017C16.9764 24.3553 16.7454 24.5265 16.6321 24.7998C16.4812 25.1643 16.2633 27.1075 16.2633 27.1075C16.2633 27.1075 17.4834 25.5794 17.6344 25.215C17.7476 24.9416 17.7072 24.6527 17.3427 24.5017Z"
        fill="#FFEC2D"
    />
    <path
        d="M13.2624 14.651C13.4088 14.2847 13.2376 14.0537 12.9643 13.9405C12.5999 13.7895 10.6566 13.5717 10.6566 13.5717C10.6566 13.5717 12.1847 14.7917 12.5492 14.9427C12.8225 15.0559 13.1114 15.0155 13.2624 14.651Z"
        fill="#FFEC2D"
    />
    <path
        d="M25.5591 12.2051C25.8415 12.4805 26.1204 12.4108 26.3296 12.2016C26.6086 11.9226 27.5535 10.2107 27.5535 10.2107C27.5535 10.2107 25.8415 11.1556 25.5626 11.4345C25.3533 11.6437 25.2801 11.9261 25.5591 12.2051Z"
        fill="#FFEC2D"
    />
    <path
        d="M25.5591 22.8674C25.2836 23.1498 25.3534 23.4288 25.5626 23.638C25.8415 23.9169 27.5535 24.8618 27.5535 24.8618C27.5535 24.8618 26.6086 23.1498 26.3296 22.8709C26.1204 22.6617 25.838 22.5885 25.5591 22.8674Z"
        fill="#FFEC2D"
    />
    <path
        d="M14.8967 22.8674C14.6143 22.592 14.3354 22.6617 14.1262 22.8709C13.8472 23.1498 12.9024 24.8618 12.9024 24.8618C12.9024 24.8618 14.6143 23.9169 14.8933 23.638C15.1025 23.4288 15.1757 23.1463 14.8967 22.8674Z"
        fill="#FFEC2D"
    />
    <path
        d="M14.8967 12.2051C15.1722 11.9227 15.1024 11.6437 14.8932 11.4345C14.6143 11.1556 12.9023 10.2107 12.9023 10.2107C12.9023 10.2107 13.8472 11.9227 14.1262 12.2016C14.3354 12.4108 14.6178 12.484 14.8967 12.2051Z"
        fill="#FFEC2D"
    />
    <path
        d="M27.1934 14.651C27.3489 15.0136 27.6333 15.0559 27.9066 14.9427C28.2711 14.7917 29.7992 13.5717 29.7992 13.5717C29.7992 13.5717 27.8559 13.7895 27.4915 13.9404C27.2181 14.0537 27.0424 14.2866 27.1934 14.651Z"
        fill="#FFEC2D"
    />
    <path
        d="M23.1131 24.5017C22.7505 24.6572 22.7082 24.9416 22.8214 25.2149C22.9724 25.5794 24.1924 27.1075 24.1924 27.1075C24.1924 27.1075 23.9746 25.1643 23.8236 24.7998C23.7104 24.5265 23.4775 24.3507 23.1131 24.5017Z"
        fill="#FFEC2D"
    />
    <path
        d="M13.2624 20.4214C13.1069 20.0588 12.8225 20.0165 12.5492 20.1297C12.1847 20.2807 10.6566 21.5008 10.6566 21.5008C10.6566 21.5008 12.5999 21.2829 12.9643 21.132C13.2377 21.0187 13.4134 20.7858 13.2624 20.4214Z"
        fill="#FFEC2D"
    />
    <path
        d="M17.3427 10.5708C17.7052 10.4152 17.7476 10.1309 17.6343 9.85748C17.4834 9.49303 16.2633 7.96492 16.2633 7.96492C16.2633 7.96492 16.4812 9.90817 16.6321 10.2727C16.7453 10.546 16.9782 10.7217 17.3427 10.5708Z"
        fill="#FFEC2D"
    />
    <path
        d="M21.6988 10.1417C22.0866 10.2138 22.2798 10.0009 22.3375 9.71065C22.4145 9.32376 22.249 7.37535 22.249 7.37535C22.249 7.37535 21.3505 9.11212 21.2736 9.49902C21.2158 9.78919 21.3119 10.0647 21.6988 10.1417Z"
        fill="#FFEC2D"
    />
    <path
        d="M27.6224 19.0071C27.5503 19.395 27.7633 19.5881 28.0534 19.6459C28.4403 19.7228 30.3888 19.5574 30.3888 19.5574C30.3888 19.5574 28.652 18.6589 28.2651 18.5819C27.9749 18.5242 27.6994 18.6202 27.6224 19.0071Z"
        fill="#FFEC2D"
    />
    <path
        d="M18.757 24.9308C18.3692 24.8587 18.176 25.0716 18.1183 25.3618C18.0413 25.7487 18.2068 27.6971 18.2068 27.6971C18.2068 27.6971 19.1053 25.9603 19.1822 25.5734C19.24 25.2832 19.1439 25.0077 18.757 24.9308Z"
        fill="#FFEC2D"
    />
    <path
        d="M12.8333 16.0654C12.9054 15.6775 12.6925 15.4843 12.4023 15.4266C12.0154 15.3496 10.067 15.5151 10.067 15.5151C10.067 15.5151 11.8038 16.4136 12.1907 16.4906C12.4808 16.5483 12.7563 16.4523 12.8333 16.0654Z"
        fill="#FFEC2D"
    />
    <path
        d="M24.4166 11.2675C24.7473 11.4825 25.0073 11.3597 25.1717 11.1137C25.3908 10.7857 25.9836 8.92225 25.9836 8.92225C25.9836 8.92225 24.4888 10.183 24.2697 10.511C24.1053 10.757 24.0886 11.0483 24.4166 11.2675Z"
        fill="#FFEC2D"
    />
    <path
        d="M26.4967 21.7249C26.2816 22.0557 26.4044 22.3156 26.6504 22.48C26.9784 22.6992 28.8418 23.2919 28.8418 23.2919C28.8418 23.2919 27.5811 21.7972 27.2531 21.578C27.0071 21.4136 26.7158 21.3969 26.4967 21.7249Z"
        fill="#FFEC2D"
    />
    <path
        d="M16.0393 23.805C15.7085 23.59 15.4486 23.7128 15.2842 23.9588C15.065 24.2868 14.4723 26.1502 14.4723 26.1502C14.4723 26.1502 15.967 24.8894 16.1862 24.5614C16.3506 24.3155 16.3673 24.0242 16.0393 23.805Z"
        fill="#FFEC2D"
    />
    <path
        d="M13.9591 13.3476C14.1742 13.0169 14.0514 12.7569 13.8054 12.5925C13.4774 12.3734 11.614 11.7806 11.614 11.7806C11.614 11.7806 12.8747 13.2754 13.2027 13.4945C13.4487 13.6589 13.74 13.6756 13.9591 13.3476Z"
        fill="#FFEC2D"
    />
    <path
        d="M26.4967 13.3475C26.72 13.6728 27.0072 13.6588 27.2531 13.4945C27.5811 13.2753 28.8419 11.7806 28.8419 11.7806C28.8419 11.7806 26.9785 12.3733 26.6505 12.5925C26.4045 12.7568 26.2776 13.0196 26.4967 13.3475Z"
        fill="#FFEC2D"
    />
    <path
        d="M24.4166 23.805C24.0913 24.0283 24.1053 24.3155 24.2697 24.5615C24.4888 24.8895 25.9836 26.1502 25.9836 26.1502C25.9836 26.1502 25.3908 24.2868 25.1717 23.9588C25.0073 23.7128 24.7446 23.5859 24.4166 23.805Z"
        fill="#FFEC2D"
    />
    <path
        d="M13.9591 21.7249C13.7358 21.3997 13.4487 21.4136 13.2027 21.578C12.8747 21.7972 11.6139 23.2919 11.6139 23.2919C11.6139 23.2919 13.4774 22.6992 13.8054 22.48C14.0513 22.3156 14.1783 22.0529 13.9591 21.7249Z"
        fill="#FFEC2D"
    />
    <path
        d="M16.0392 11.2674C16.3645 11.0442 16.3505 10.757 16.1861 10.511C15.967 10.183 14.4722 8.92223 14.4722 8.92223C14.4722 8.92223 15.065 10.7857 15.2841 11.1137C15.4485 11.3597 15.7112 11.4866 16.0392 11.2674Z"
        fill="#FFEC2D"
    />
    <path
        d="M27.6225 16.0654C27.7043 16.4513 27.9749 16.5483 28.2651 16.4906C28.652 16.4136 30.3888 15.5151 30.3888 15.5151C30.3888 15.5151 28.4404 15.3496 28.0535 15.4266C27.7633 15.4843 27.5455 15.6785 27.6225 16.0654Z"
        fill="#FFEC2D"
    />
    <path
        d="M21.6988 24.9308C21.3128 25.0126 21.2159 25.2833 21.2736 25.5734C21.3505 25.9603 22.249 27.6971 22.249 27.6971C22.249 27.6971 22.4145 25.7487 22.3375 25.3618C22.2798 25.0716 22.0857 24.8538 21.6988 24.9308Z"
        fill="#FFEC2D"
    />
    <path
        d="M12.8333 19.0071C12.7515 18.6212 12.4809 18.5242 12.1907 18.5819C11.8038 18.6589 10.067 19.5574 10.067 19.5574C10.067 19.5574 12.0154 19.7228 12.4023 19.6459C12.6925 19.5881 12.9103 19.394 12.8333 19.0071Z"
        fill="#FFEC2D"
    />
    <path
        d="M18.757 10.1417C19.143 10.0599 19.24 9.78916 19.1822 9.49899C19.1053 9.11209 18.2068 7.37532 18.2068 7.37532C18.2068 7.37532 18.0413 9.32373 18.1183 9.71063C18.176 10.0008 18.3701 10.2186 18.757 10.1417Z"
        fill="#FFEC2D"
    />
    <path
        d="M19.0442 31.9083C18.5516 31.9357 18.0845 32.1276 17.5945 32.1746C17.6738 32.5167 17.3035 32.7884 17.0356 32.5559C16.8411 32.6038 16.6524 32.5648 16.5015 32.4671C16.2323 32.6253 16.0077 32.7708 15.9624 33.095C15.9541 33.2101 15.9837 33.3317 16.033 33.4385C16.0664 33.2969 16.2461 33.1641 16.4505 33.141C16.5623 33.1283 16.5376 33.1443 16.4965 33.2232C16.4867 33.2643 16.4308 33.4204 16.5064 33.3415C17.9487 32.9131 19.9593 33.1503 21.4998 33.0638C21.143 32.8576 20.4525 32.8369 19.2447 32.8369C18.9871 32.9273 18.6981 32.913 18.4476 32.8123C18.5626 32.6529 18.7007 32.5131 18.8272 32.3652C18.7253 32.3488 18.6267 32.3274 18.5248 32.3028C18.704 32.1795 18.87 32.0398 19.0442 31.9083Z"
        fill="#FFEC2D"
    />
    <path
        d="M26.7234 33.6116C26.3661 33.8261 26.0934 33.4458 25.7948 33.3318C25.5816 33.4476 25.5616 33.8351 25.3624 34.0187C25.124 34.29 24.8318 33.9429 24.8536 33.6752C24.5684 33.9156 24.4243 34.4603 23.9632 34.3875C23.7447 34.2093 23.5825 33.8352 23.4155 34.2611C23.2794 34.4693 22.917 34.7656 22.7294 34.4512C22.6713 34.1735 22.5321 33.8471 22.3811 34.288C22.2774 34.5999 21.9447 34.8294 21.6228 34.6928C21.4465 34.5487 21.764 34.016 21.5397 34.0539C21.2044 34.2755 21.0095 34.826 20.5416 34.7819C20.3599 34.5779 20.6518 34.2324 20.4525 34.006C20.2173 34.3079 19.9563 34.75 19.5494 34.7819C19.3528 34.6225 19.5572 34.1655 19.4316 34.0978C19.0141 34.3482 18.5736 34.7945 18.0485 34.6547C18.2531 33.872 19.1081 33.5974 19.8272 33.5364C20.1395 33.498 24.5674 33.5113 24.0485 32.663C23.9561 32.528 24.7786 32.0031 24.9928 31.9809C26.1947 31.929 27.382 32.1822 28.5804 32.2252C28.6709 32.8091 28.0232 33.2191 27.5017 33.0388C27.2526 33.0792 26.8791 32.4661 26.9523 32.9121C26.9021 33.1462 26.9373 33.4553 26.7234 33.6116ZM16.4966 32.4161C17.0247 32.8994 19.1833 31.2099 19.614 30.9092C20.0686 30.5329 20.4628 30.045 21.0734 29.923C22.2645 29.5629 23.5306 29.6066 24.7262 29.2742C25.6367 28.0277 27.1831 27.5829 28.4785 26.8664C29.3507 26.5953 30.0224 24.8715 30.9394 24.3276C31.3163 24.1217 31.766 24.0031 32.1928 24.0973C32.1622 24.6055 31.8706 25.0559 31.5186 25.4074C31.8067 25.4011 32.0543 25.2191 32.3454 25.2294C32.4451 25.751 31.8819 26.0239 31.5822 26.3487C31.7491 26.3875 32.3885 26.4359 32.0401 26.6031C31.596 26.9113 31.0889 27.1228 30.679 27.4807C31.4758 27.6239 30.1166 27.8897 30.0685 28.2312C30.5794 28.5452 28.8304 28.6637 29.5537 29.0774C29.3991 29.311 29.0673 29.3609 28.7965 29.3378C29.1516 30.4815 26.8334 31.0363 26.0109 31.1186C27.2207 31.2116 28.4669 30.987 29.5007 30.3291C29.6372 30.1677 30.3528 29.9943 29.9525 29.8586C29.7641 29.7802 29.36 29.693 29.3327 29.5494C29.8926 29.2039 30.5982 29.3268 31.2006 29.1215C31.2161 28.9265 30.7424 28.9808 30.5658 28.9364C29.7792 28.8719 31.8395 28.4613 32.1036 28.2566C31.7516 28.0935 31.3089 28.2371 30.9334 28.1039C31.57 27.8254 32.3211 27.7974 32.8923 27.3789C33.1525 27.0895 32.5589 27.1799 32.386 27.1869C31.5499 27.3325 34.0654 25.7292 34.3014 25.3701C34.4152 25.2064 34.5693 24.7133 34.2063 24.8907C33.729 25.0494 33.309 25.586 32.7651 25.42C33.8367 24.5895 34.8565 23.6439 35.5889 22.4945C35.6771 21.7228 33.0678 24.113 32.7778 24.2498C33.2929 23.7527 35.7319 21.3721 35.22 20.4848C34.481 19.8729 33.1938 22.4751 32.7397 22.8507C32.9284 22.4906 34.8667 18.3453 33.5538 18.5259C33.0005 18.625 32.6186 21.4153 32.2691 21.9221C32.3922 21.1858 32.6076 20.4182 32.4422 19.6746C32.365 19.3423 31.8283 19.4853 31.8975 19.8141C31.2563 23.0617 29.0773 25.9019 26.2274 27.5449C24.4498 28.5506 22.5814 28.5009 20.7704 29.147C19.8465 29.8555 19.2872 31.0409 18.1174 31.4121C17.6889 31.625 16.4844 31.7673 16.4966 32.4161Z"
        fill="#FFEC2D"
    />
    <path
        d="M19.9976 29.1215C19.825 29.4348 19.7234 29.795 19.5015 30.0755C18.8338 29.4679 17.8659 29.488 17.0189 29.4476C15.1316 29.3466 13.1177 27.8386 11.7177 26.6448C10.7206 25.8321 10.1496 24.6262 9.17537 23.7882C8.98962 23.6053 8.77058 23.4637 8.5625 23.3085C8.50398 23.3227 7.73046 23.5552 7.72167 23.594C8.01955 23.9865 8.31773 24.4347 8.359 24.9367C8.15584 24.9575 7.79465 24.8938 7.69396 24.9694C7.96373 25.3738 8.30954 25.7324 8.70244 26.0179C8.51398 26.0482 8.14263 26.0317 8.07039 26.1076C8.46038 26.4255 8.87857 26.7503 9.38927 26.832C9.49381 26.9698 9.23641 27.2358 9.45288 27.3535C9.57837 27.4048 9.99252 27.4906 9.70727 27.6333C9.14962 28.009 10.342 28.1358 10.376 28.3064C10.2357 28.4492 9.79913 28.6184 10.1707 28.7522C10.5178 28.9447 10.9136 29.0697 11.31 29.0834C11.1111 29.2507 10.866 29.3457 10.6613 29.5031C11.5759 30.0395 12.5899 30.3922 13.5919 30.7319C13.9908 30.8652 14.3943 30.9894 14.8078 31.0677C13.6063 30.9983 12.4449 30.6426 11.3505 30.1557C10.7833 29.9069 10.2122 29.6666 9.63094 29.4523C9.88582 29.3197 10.1806 29.2873 10.445 29.1725C9.89627 29.0625 9.29681 29.0265 8.81447 28.7249C8.89476 28.5816 10.0325 28.3795 9.38493 28.3397C8.97049 28.2272 8.49514 28.2777 8.12991 28.0277C8.15642 27.8587 9.08389 27.8214 9.262 27.6715C8.62127 27.4059 7.78321 27.5941 7.28134 27.0283C7.23389 26.9399 8.63814 26.9967 8.81684 26.9211C8.55757 26.8072 5.5353 24.9833 6.04634 24.8732C6.60052 24.9465 7.00166 25.5513 7.59445 25.4572C7.70048 25.3142 5.65111 23.8152 4.83554 22.5073C4.79388 22.1829 5.30384 22.1343 5.43811 22.3848C6.0991 23.0215 6.69618 23.7644 7.51946 24.199C7.89504 24.381 5.95756 22.4002 5.27395 21.0626C5.17879 20.8751 5.02109 20.5356 5.30581 20.4358C5.59047 20.2932 5.87292 20.4875 6.01724 20.732C6.57651 21.4374 6.98805 22.2758 7.68474 22.8634C7.0912 21.7116 6.45748 20.4991 6.44214 19.1737C6.4561 18.9168 6.47262 18.5281 6.82104 18.5387C7.11359 18.4943 7.06739 18.8689 7.16324 19.0475C7.45151 20.0212 7.5772 21.0751 8.15545 21.9348C8.02774 21.2125 7.83972 20.4686 7.96462 19.7343C7.99342 19.4932 8.26487 19.4202 8.44204 19.566C8.58528 19.9166 8.61511 20.3495 8.74563 20.7243C9.48823 23.2647 11.1556 25.499 13.3285 26.9984C15.3322 28.3727 17.6016 28.9748 19.9976 29.1215Z"
        fill="#FFEC2D"
    />
    <path
        fill-rule="evenodd"
        clip-rule="evenodd"
        d="M17.246 32.5847C17.363 32.5847 17.458 32.49 17.458 32.3727C17.458 31.7757 16.666 32.5847 17.246 32.5847Z"
        fill="#FFEC2D"
    />
</svg>
