<svg xmlns="http://www.w3.org/2000/svg" width="40" height="40" viewBox="0 0 40 40" fill="none">
    <rect width="40" height="11" fill="#D80027" />
    <rect y="29" width="40" height="11" fill="#496E2D" />
    <rect y="11" width="40" height="18" fill="black" />
    <path
        d="M24.6552 16.3427L26.2961 18.604L28.9537 17.7423L27.3101 20.0016L28.9509 22.2629L26.2943 21.3979L24.6507 23.6573L24.6524 20.8634L21.9957 19.9984L24.6534 19.1367L24.6552 16.3427Z"
        fill="#F0F0F0"
    />
    <path
        d="M20.1767 25.6522C17.0551 25.6522 14.5245 23.1216 14.5245 20C14.5245 16.8785 17.0551 14.3478 20.1767 14.3478C21.1499 14.3478 22.0658 14.5939 22.8653 15.0272C21.611 13.8006 19.8956 13.0435 18.0027 13.0435C14.1607 13.0435 11.0463 16.158 11.0463 19.9999C11.0463 23.8419 14.1608 26.9564 18.0027 26.9564C19.8957 26.9564 21.611 26.1993 22.8653 24.9727C22.0657 25.4061 21.15 25.6522 20.1767 25.6522Z"
        fill="#F0F0F0"
    />
</svg>
