<svg xmlns="http://www.w3.org/2000/svg" width="40" height="40" viewBox="0 0 40 40" fill="none">
    <rect width="40" height="40" fill="#D80027" />
    <path
        fill-rule="evenodd"
        clip-rule="evenodd"
        d="M31.8194 16.4132H22.7902L20 7.82605L17.2099 16.4132H8.18063L15.4854 21.7204L12.6952 30.3078L20 25.0006L27.3049 30.3079L24.5146 21.7205L31.8194 16.4132ZM17.5299 21.0561L18.4734 18.1523H21.5266L22.4702 21.0561V21.0562L20 22.8508L17.5299 21.0562L17.5299 21.0561ZM19.0385 16.4132H20.9616L20 13.4539L19.0385 16.4132ZM23.9495 19.9814L23.3552 18.1524H26.4668L23.9495 19.9814ZM16.0505 19.9814L16.6448 18.1524H13.5331L16.0505 19.9814ZM16.0032 25.7547L16.9648 22.7954L18.5206 23.9257L16.0032 25.7547ZM23.0352 22.7955L21.4794 23.9258L23.9968 25.7548L23.0352 22.7955Z"
        fill="#006233"
    />
</svg>
