<svg xmlns="http://www.w3.org/2000/svg" width="40" height="40" viewBox="0 0 40 40" fill="none">
    <rect x="28" width="40" height="16" transform="rotate(90 28 0)" fill="#FFDA44" />
    <rect x="40" width="40" height="12" transform="rotate(90 40 0)" fill="#D80027" />
    <rect x="12" width="40" height="12" transform="rotate(90 12 0)" fill="#0052B4" />
    <path
        d="M26.9565 15.7359H22.1739C22.1739 14.5353 21.2006 13.562 20 13.562C18.7994 13.562 17.8261 14.5353 17.8261 15.7359H13.0435C13.0435 16.918 14.0733 17.8762 15.2552 17.8762H15.184C15.184 19.0584 16.1423 20.0168 17.3245 20.0168C17.3245 21.0634 18.0762 21.9331 19.069 22.119L17.3823 25.927C18.1905 26.2555 19.0738 26.4381 20 26.4381C20.9262 26.4381 21.8095 26.2555 22.6177 25.927L20.931 22.119C21.9238 21.9331 22.6755 21.0634 22.6755 20.0168C23.8577 20.0168 24.816 19.0584 24.816 17.8762H24.7447C25.9268 17.8762 26.9565 16.9179 26.9565 15.7359Z"
        fill="#FF9811"
    />
    <path d="M20 18.6957L17.1739 20.0001V22.6087L20 24.3479L22.8261 22.6087V20.0001L20 18.6957Z" fill="#0052B4" />
    <rect x="17.1739" y="17.3914" width="5.65219" height="2.60867" fill="#D80027" />
</svg>
