<svg xmlns="http://www.w3.org/2000/svg" width="40" height="40" viewBox="0 0 40 40" fill="none">
    <rect y="20" width="40" height="20" fill="#0052B4" />
    <rect width="40" height="20" fill="#D80027" />
    <path d="M20 20L0 0V40L20 20Z" fill="#F0F0F0" />
    <path
        d="M2.26596 20.0001C2.25504 20.1437 2.24763 20.2884 2.24763 20.4348C2.24763 23.5564 4.77333 26.087 7.8888 26.087C11.0043 26.087 13.53 23.5564 13.53 20.4348C13.53 20.2884 13.5226 20.1436 13.5117 20.0001H2.26596Z"
        fill="#FFDA44"
    />
    <path
        d="M7.88881 17.3914C8.84744 17.3914 9.62456 16.6127 9.62456 15.6522C9.62456 14.6917 8.84744 13.9131 7.88881 13.9131C6.93018 13.9131 6.15306 14.6917 6.15306 15.6522C6.15306 16.6127 6.93018 17.3914 7.88881 17.3914Z"
        fill="#FFDA44"
    />
    <path
        d="M3.98338 15.2174V20.8696C3.98338 23.8649 7.8888 24.7826 7.8888 24.7826C7.8888 24.7826 11.7942 23.8649 11.7942 20.8696V15.2174H3.98338V15.2174Z"
        fill="#D80027"
    />
    <path
        d="M7.89067 22.9626C7.16615 22.7013 5.71906 22.0337 5.71906 20.8696V16.9565H10.0585V20.8696C10.0585 22.0375 8.61153 22.7035 7.89067 22.9626Z"
        fill="#338AF3"
    />
    <path
        d="M8.75664 19.1305V18.2609L7.88881 17.8262L7.02089 18.2609V19.1305L6.58698 19.5653V21.3045H9.19064V19.5653L8.75664 19.1305Z"
        fill="#F3F3F3"
    />
</svg>
