<svg xmlns="http://www.w3.org/2000/svg" width="40" height="40" viewBox="0 0 40 40" fill="none">
    <rect width="40" height="40" fill="#0052B4" />
    <path d="M40 9V0H31L5.83447 34.1655L40 9Z" fill="#F0F0F0" />
    <path d="M5.83447 34.1655L40 9V0L5.83447 34.1655Z" fill="#FF9811" />
    <path
        d="M17.3678 11.7282L14.9253 12.8771L16.226 15.2427L13.5737 14.7353L13.2376 17.4147L11.3901 15.444L9.54259 17.4147L9.20665 14.7353L6.55431 15.2426L7.85485 12.877L5.41235 11.7282L7.85493 10.5792L6.55431 8.21374L9.20649 8.721L9.54267 6.04163L11.3901 8.01233L13.2376 6.04163L13.5737 8.721L16.2261 8.21374L14.9254 10.5793L17.3678 11.7282Z"
        fill="#F0F0F0"
    />
</svg>
