<svg width="40" height="40" viewBox="0 0 40 40" fill="none" xmlns="http://www.w3.org/2000/svg">
  <path d="M0 0H40V40H0V0Z" fill="#DA2031" />
  <path d="M13 0H27V40H13V0Z" fill="#0066B2" />
  <path
    d="M6.66668 17.6667C7.6792 17.6667 8.50001 16.8459 8.50001 15.8333C8.50001 14.8208 7.6792 14 6.66668 14C5.65415 14 4.83334 14.8208 4.83334 15.8333C4.83334 16.8459 5.65415 17.6667 6.66668 17.6667Z"
    fill="#FFD300"
  />
  <path
    d="M6.66666 17C7.77123 17 8.66666 16.1046 8.66666 15C8.66666 13.8954 7.77123 13 6.66666 13C5.56209 13 4.66666 13.8954 4.66666 15C4.66666 16.1046 5.56209 17 6.66666 17Z"
    fill="#DA2031"
  />
  <path
    d="M6.66668 16.6667C7.40306 16.6667 8.00001 16.0697 8.00001 15.3333C8.00001 14.597 7.40306 14 6.66668 14C5.9303 14 5.33334 14.597 5.33334 15.3333C5.33334 16.0697 5.9303 16.6667 6.66668 16.6667Z"
    fill="#FFD300"
  />
  <path
    d="M6.80678 11.0001C6.64112 11.0752 6.57922 11.2108 6.56588 11.3458C6.55755 11.4594 6.60772 11.5875 6.61272 11.6986C6.61272 11.8899 6.41478 11.9529 6.41478 12.226C6.41478 12.3198 6.50145 12.4232 6.50145 12.6667C6.48645 12.7946 6.41512 12.8234 6.33478 12.8334C6.29058 12.8334 6.24819 12.8158 6.21693 12.7846C6.18568 12.7533 6.16812 12.7109 6.16812 12.6667C6.16824 12.624 6.18477 12.5829 6.21428 12.5521C6.21955 12.5461 6.22523 12.5405 6.23128 12.5354C6.26928 12.4971 6.32145 12.4822 6.32112 12.3811C6.32112 12.3291 6.28745 12.2817 6.25528 12.1897C6.22495 12.1003 6.24695 11.951 6.31912 11.8628C6.20245 11.9078 6.13055 12.0197 6.09388 12.12C6.05522 12.2433 6.08888 12.3144 6.03588 12.4169C6.00355 12.4832 5.96505 12.5107 5.92855 12.566C5.88538 12.6264 5.83472 12.7675 5.83472 12.833C5.83472 13.054 5.92251 13.2659 6.07879 13.4222C6.23507 13.5785 6.44704 13.6663 6.66805 13.6663C6.88906 13.6663 7.10103 13.5785 7.25731 13.4222C7.41359 13.2659 7.50138 13.054 7.50138 12.833C7.50138 12.7675 7.45138 12.6264 7.40822 12.566C7.37172 12.5107 7.33255 12.4832 7.30022 12.4169C7.24788 12.3144 7.28155 12.2433 7.24288 12.12C7.20622 12.0197 7.13422 11.9079 7.01762 11.8628C7.08978 11.951 7.11178 12.1003 7.08145 12.1897C7.04912 12.2817 7.01512 12.329 7.01512 12.3811C7.01512 12.4822 7.06695 12.4971 7.10495 12.5354C7.11101 12.5405 7.11669 12.5461 7.12195 12.5521C7.15147 12.5829 7.16799 12.624 7.16812 12.6667C7.16812 12.7109 7.15056 12.7533 7.1193 12.7846C7.08805 12.8158 7.04565 12.8334 7.00145 12.8334C6.90928 12.8217 6.84312 12.7787 6.83478 12.6667C6.83478 12.3459 6.97212 12.3254 6.97212 12.088C6.97212 11.7489 6.66808 11.5884 6.66808 11.3406C6.66808 11.2566 6.68775 11.1134 6.80675 10.9996L6.80678 11.0001ZM3 18.0001H4.66667V26H3V18.0001ZM8.66667 18.0001H10.3333V26H8.66667V18.0001ZM5 18.0001H8.33333L6.66667 19L5 18.0001ZM5 19.3334H8.33333V20.0001H5V19.3334ZM5 24.0001H8.33333V24.6667H5V24.0001ZM5 25H8.33333L6.66667 26L5 25Z"
    fill="#FFD300"
  />
  <path
    d="M6.66667 23.6667C7.58714 23.6667 8.33333 22.9205 8.33333 22C8.33333 21.0796 7.58714 20.3334 6.66667 20.3334C5.74619 20.3334 5 21.0796 5 22C5 22.9205 5.74619 23.6667 6.66667 23.6667Z"
    fill="#FFD300"
  />
  <path
    d="M6.66665 21.45C6.85074 21.45 6.99998 21.3008 6.99998 21.1167C6.99998 20.9326 6.85074 20.7833 6.66665 20.7833C6.48255 20.7833 6.33331 20.9326 6.33331 21.1167C6.33331 21.3008 6.48255 21.45 6.66665 21.45Z"
    fill="#DA2032"
  />
  <path
    d="M6.66665 23.2166C6.85074 23.2166 6.99998 23.0674 6.99998 22.8833C6.99998 22.6992 6.85074 22.5499 6.66665 22.5499C6.48255 22.5499 6.33331 22.6992 6.33331 22.8833C6.33331 23.0674 6.48255 23.2166 6.66665 23.2166Z"
    fill="#DA2032"
  />
  <path
    d="M6.66665 20.1333C6.92745 20.1333 7.17756 20.2369 7.36197 20.4213C7.54638 20.6057 7.64999 20.8558 7.64999 21.1166C7.64999 21.3774 7.54638 21.6275 7.36197 21.812C7.17756 21.9964 6.92745 22.1 6.66665 22.1C6.4589 22.1 6.25966 22.1825 6.11275 22.3294C5.96585 22.4763 5.88332 22.6755 5.88332 22.8833C5.88332 23.0911 5.96585 23.2903 6.11275 23.4372C6.25966 23.5841 6.4589 23.6666 6.66665 23.6666V23.8666C6.40586 23.8666 6.15574 23.763 5.97133 23.5786C5.78692 23.3942 5.68332 23.1441 5.68332 22.8833C5.68332 22.6225 5.78692 22.3724 5.97133 22.188C6.15574 22.0036 6.40586 21.9 6.66665 21.9C6.87441 21.9 7.07365 21.8174 7.22055 21.6705C7.36746 21.5236 7.44999 21.3244 7.44999 21.1166C7.44999 20.9089 7.36746 20.7096 7.22055 20.5627C7.07365 20.4158 6.87441 20.3333 6.66665 20.3333V20.1333Z"
    fill="#DA2032"
  />
</svg>
