<svg xmlns="http://www.w3.org/2000/svg" width="40" height="40" viewBox="0 0 40 40" fill="none">
    <rect x="27" width="40" height="14" transform="rotate(90 27 0)" fill="#0052B4" />
    <rect x="40" width="40" height="13" transform="rotate(90 40 0)" fill="#A2001D" />
    <rect x="13" width="40" height="13" transform="rotate(90 13 0)" fill="#A2001D" />
    <rect x="9.56519" y="20" width="1.73914" height="6.95648" fill="#FFDA44" />
    <rect x="2.60864" y="20" width="1.73914" height="6.95648" fill="#FFDA44" />
    <path
        d="M6.95643 24.3478C7.91693 24.3478 8.69557 23.5692 8.69557 22.6087C8.69557 21.6482 7.91693 20.8695 6.95643 20.8695C5.99592 20.8695 5.21729 21.6482 5.21729 22.6087C5.21729 23.5692 5.99592 24.3478 6.95643 24.3478Z"
        fill="#FFDA44"
    />
    <path
        d="M6.95645 17.3912C7.43667 17.3912 7.82598 17.0019 7.82598 16.5217C7.82598 16.0415 7.43667 15.6522 6.95645 15.6522C6.47622 15.6522 6.08691 16.0415 6.08691 16.5217C6.08691 17.0019 6.47622 17.3912 6.95645 17.3912Z"
        fill="#FFDA44"
    />
    <rect x="5.21741" y="25.2174" width="3.47828" height="1.73914" fill="#FFDA44" />
    <rect x="5.21741" y="18.2608" width="3.47828" height="1.73914" fill="#FFDA44" />
    <path
        d="M6.95645 10.4348L7.57239 12.3301H9.5652L7.95309 13.5015L8.56856 15.3968L6.95645 14.2254L5.34442 15.3968L5.95989 13.5015L4.34778 12.3301H6.34059L6.95645 10.4348Z"
        fill="#FFDA44"
    />
</svg>
