<svg xmlns="http://www.w3.org/2000/svg" width="40" height="40" viewBox="0 0 40 40" fill="none">
    <rect x="27" width="40" height="14" transform="rotate(90 27 0)" fill="#0052B4" />
    <rect x="40" width="40" height="13" transform="rotate(90 40 0)" fill="#A2001D" />
    <rect x="13" width="40" height="13" transform="rotate(90 13 0)" fill="#A2001D" />
    <rect x="9.56523" y="20" width="1.73914" height="6.95648" fill="#FFDA44" />
    <rect x="2.60867" y="20" width="1.73914" height="6.95648" fill="#FFDA44" />
    <path
        d="M6.95649 24.3479C7.91699 24.3479 8.69563 23.5693 8.69563 22.6088C8.69563 21.6483 7.91699 20.8696 6.95649 20.8696C5.99599 20.8696 5.21735 21.6483 5.21735 22.6088C5.21735 23.5693 5.99599 24.3479 6.95649 24.3479Z"
        fill="#FFDA44"
    />
    <path
        d="M6.95649 17.3913C7.43672 17.3913 7.82602 17.002 7.82602 16.5218C7.82602 16.0415 7.43672 15.6522 6.95649 15.6522C6.47626 15.6522 6.08696 16.0415 6.08696 16.5218C6.08696 17.002 6.47626 17.3913 6.95649 17.3913Z"
        fill="#FFDA44"
    />
    <rect x="5.21742" y="25.2175" width="3.47828" height="1.73914" fill="#FFDA44" />
    <rect x="5.21742" y="18.2609" width="3.47828" height="1.73914" fill="#FFDA44" />
    <path
        d="M6.95648 10.4348L7.57242 12.3301H9.56523L7.95312 13.5015L8.56859 15.3968L6.95648 14.2254L5.34445 15.3968L5.95992 13.5015L4.34781 12.3301H6.34062L6.95648 10.4348Z"
        fill="#FFDA44"
    />
</svg>
