<svg xmlns="http://www.w3.org/2000/svg" width="40" height="40" viewBox="0 0 40 40" fill="none">
    <rect width="40" height="40" fill="#338AF3" />
    <path
        d="M19.3695 32.593C18.8304 32.5669 18.3843 32.2165 18.2095 31.7408C17.9008 32.1434 17.3704 32.3461 16.8478 32.2113C16.3243 32.0765 15.9583 31.6435 15.8826 31.1408C15.4982 31.4729 14.9382 31.5633 14.4539 31.3261C13.9687 31.0878 13.6974 30.5894 13.7252 30.0825C13.2826 30.3311 12.7157 30.3068 12.2887 29.9764C11.8626 29.6459 11.6966 29.1042 11.8252 28.6129C11.3417 28.7676 10.7922 28.6303 10.44 28.2207C10.0878 27.812 10.0338 27.2476 10.2583 26.7929C9.7539 26.8467 9.24265 26.6015 8.97999 26.1303C8.71647 25.659 8.77741 25.0947 9.08952 24.6936C8.58429 24.645 8.1321 24.3015 7.97038 23.7867C7.8078 23.2719 7.98171 22.7311 8.36866 22.4015C7.88343 22.2518 7.51124 21.824 7.45647 21.2876C7.40171 20.7511 7.67999 20.258 8.12429 20.0128C7.67991 19.7693 7.39991 19.2763 7.45296 18.7406C7.45296 18.7406 7.45296 18.7406 7.45382 18.7406C7.50686 18.2032 7.87905 17.7746 8.36335 17.6232C7.9764 17.2945 7.80077 16.7545 7.96163 16.2397C8.12249 15.724 8.57374 15.3797 9.07905 15.3292C8.76686 14.9292 8.70429 14.3647 8.966 13.8927C9.22772 13.4214 9.73905 13.1753 10.2443 13.2283C10.0182 12.7736 10.0712 12.2092 10.4226 11.7988C10.773 11.3893 11.3226 11.251 11.8069 11.404C11.6765 10.9136 11.8417 10.371 12.2678 10.0397C12.693 9.70833 13.26 9.6831 13.7026 9.93005C13.6739 9.42318 13.9443 8.92482 14.4287 8.68568C14.9122 8.4474 15.473 8.53615 15.8582 8.86825C15.9321 8.36575 16.2982 7.93099 16.8208 7.79521C17.3425 7.65958 17.873 7.86044 18.1825 8.26216C18.3573 7.78654 18.8025 7.43521 19.3416 7.40825C19.8799 7.38052 20.3581 7.68302 20.5808 8.13794C20.8469 7.70661 21.353 7.45099 21.886 7.53185C22.4199 7.61185 22.8295 8.00482 22.9565 8.49622C23.3043 8.12568 23.8521 7.9788 24.3582 8.16482C24.8651 8.35177 25.1869 8.81958 25.2112 9.3274C25.626 9.03529 26.193 9.0013 26.6512 9.28654C27.1095 9.57091 27.3295 10.0935 27.2512 10.5952C27.7165 10.3926 28.2782 10.4735 28.6695 10.8439C29.0609 11.2152 29.1721 11.7708 28.9948 12.2465C29.4912 12.1412 30.0252 12.3326 30.3348 12.7751C30.6443 13.2168 30.6417 13.7838 30.373 14.2143C30.88 14.2108 31.3644 14.5065 31.5791 15.0012C31.793 15.4968 31.6756 16.0526 31.3252 16.4204C31.8235 16.5195 32.2383 16.9065 32.3478 17.4351C32.4565 17.9638 32.2295 18.4829 31.813 18.7726C32.2791 18.9701 32.6078 19.4317 32.6087 19.9708C32.6087 19.9768 32.6087 19.9822 32.6087 19.9883C32.6087 19.9918 32.6087 19.9961 32.6087 19.9996C32.6087 20.5386 32.2817 21.0013 31.8156 21.2004C32.233 21.4883 32.4617 22.0074 32.353 22.5361C32.2452 23.0647 31.8313 23.4526 31.333 23.5535C31.6844 23.9204 31.8035 24.4752 31.5905 24.9718C31.3774 25.4674 30.893 25.764 30.3852 25.7613C30.6548 26.1918 30.6591 26.7587 30.3505 27.2013C30.0418 27.644 29.5087 27.837 29.0122 27.7326C29.1905 28.2074 29.08 28.764 28.6896 29.1361C28.2983 29.5076 27.7374 29.5892 27.2722 29.3883C27.3513 29.8892 27.1322 30.4127 26.6748 30.6988C26.2173 30.9849 25.6504 30.9518 25.2348 30.6605C25.2112 31.1683 24.8912 31.6371 24.3852 31.8249C24.3852 31.8249 24.3852 31.8249 24.3844 31.8249C23.8783 32.0118 23.3305 31.8658 22.9818 31.4963C22.8566 31.9885 22.4479 32.3823 21.914 32.4641C21.3809 32.545 20.874 32.2911 20.607 31.8597C20.3948 32.2972 19.9462 32.5945 19.4348 32.5945C19.413 32.5948 19.3913 32.594 19.3695 32.593Z"
        fill="#F3F3F3"
    />
    <path
        d="M20 28.6957C24.8024 28.6957 28.6956 24.8025 28.6956 20.0001C28.6956 15.1976 24.8024 11.3044 20 11.3044C15.1975 11.3044 11.3044 15.1976 11.3044 20.0001C11.3044 24.8025 15.1975 28.6957 20 28.6957Z"
        fill="#338AF3"
    />
    <path
        d="M21.9034 17.0484C22.3305 16.7315 22.6087 16.2251 22.6087 15.6523V14.7827C22.6087 13.8222 21.8301 13.0436 20.8695 13.0436H19.1305C18.1699 13.0436 17.3913 13.8222 17.3913 14.7827V15.6523C17.3913 16.2251 17.6694 16.7315 18.0966 17.0484L16.5218 33.0435C16.5218 33.0435 17.3913 33.9132 20.0001 33.9132C22.6088 33.9132 23.4784 33.0435 23.4784 33.0435L21.9034 17.0484Z"
        fill="#BDBCC1"
    />
    <path
        d="M19.9999 13.0436L21.5107 17.6934H26.4002L22.4447 20.5675L23.9554 25.2175L19.9999 22.3437L16.0443 25.2175L17.5553 20.5675L13.5998 17.6934H18.4891L19.9999 13.0436Z"
        fill="#F0F0F0"
    />
</svg>
