<svg xmlns="http://www.w3.org/2000/svg" width="40" height="40" viewBox="0 0 40 40" fill="none">
    <rect width="40" height="40" fill="#338AF3" />
    <path
        d="M19.3695 32.593C18.8304 32.5669 18.3843 32.2165 18.2095 31.7408C17.9008 32.1434 17.3704 32.346 16.8478 32.2112C16.3243 32.0765 15.9583 31.6434 15.8826 31.1408C15.4982 31.4729 14.9382 31.5633 14.4539 31.326C13.9687 31.0877 13.6974 30.5894 13.7252 30.0824C13.2826 30.3311 12.7157 30.3068 12.2887 29.9763C11.8626 29.6458 11.6966 29.1041 11.8252 28.6128C11.3417 28.7676 10.7922 28.6302 10.44 28.2206C10.0878 27.8119 10.0338 27.2476 10.2583 26.7928C9.7539 26.8466 9.24265 26.6015 8.97999 26.1302C8.71647 25.6589 8.77741 25.0946 9.08952 24.6936C8.58429 24.6449 8.1321 24.3014 7.97038 23.7866C7.8078 23.2719 7.98171 22.731 8.36866 22.4014C7.88343 22.2517 7.51124 21.8239 7.45647 21.2875C7.40171 20.751 7.67999 20.258 8.12429 20.0127C7.67991 19.7692 7.39991 19.2762 7.45296 18.7405C7.45296 18.7405 7.45296 18.7405 7.45382 18.7405C7.50686 18.2031 7.87905 17.7745 8.36335 17.6231C7.9764 17.2944 7.80077 16.7544 7.96163 16.2396C8.12249 15.724 8.57374 15.3796 9.07905 15.3291C8.76686 14.9291 8.70429 14.3647 8.966 13.8926C9.22772 13.4213 9.73905 13.1752 10.2443 13.2283C10.0182 12.7735 10.0712 12.2091 10.4226 11.7987C10.773 11.3892 11.3226 11.2509 11.8069 11.404C11.6765 10.9135 11.8417 10.3709 12.2678 10.0397C12.693 9.70827 13.26 9.68304 13.7026 9.92999C13.6739 9.42312 13.9443 8.92476 14.4287 8.68562C14.9122 8.44733 15.473 8.53608 15.8582 8.86819C15.9321 8.36569 16.2982 7.93093 16.8208 7.79515C17.3425 7.65952 17.873 7.86038 18.1825 8.2621C18.3573 7.78647 18.8025 7.43515 19.3416 7.40819C19.8799 7.38046 20.3581 7.68296 20.5808 8.13788C20.8469 7.70655 21.353 7.45093 21.886 7.53179C22.4199 7.61179 22.8295 8.00476 22.9565 8.49616C23.3043 8.12562 23.8521 7.97874 24.3582 8.16476C24.8651 8.35171 25.1869 8.81952 25.2112 9.32733C25.626 9.03522 26.193 9.00124 26.6512 9.28647C27.1095 9.57085 27.3295 10.0934 27.2512 10.5951C27.7165 10.3926 28.2782 10.4734 28.6695 10.8438C29.0609 11.2151 29.1721 11.7708 28.9948 12.2464C29.4912 12.1412 30.0252 12.3325 30.3348 12.7751C30.6443 13.2168 30.6417 13.7837 30.373 14.2142C30.88 14.2107 31.3644 14.5064 31.5791 15.0012C31.793 15.4968 31.6756 16.0525 31.3252 16.4203C31.8235 16.5194 32.2383 16.9064 32.3478 17.4351C32.4565 17.9637 32.2295 18.4829 31.813 18.7725C32.2791 18.97 32.6078 19.4316 32.6087 19.9708C32.6087 19.9768 32.6087 19.9821 32.6087 19.9882C32.6087 19.9917 32.6087 19.996 32.6087 19.9995C32.6087 20.5386 32.2817 21.0012 31.8156 21.2004C32.233 21.4883 32.4617 22.0073 32.353 22.536C32.2452 23.0647 31.8313 23.4526 31.333 23.5534C31.6844 23.9204 31.8035 24.4751 31.5905 24.9717C31.3774 25.4673 30.893 25.7639 30.3852 25.7612C30.6548 26.1917 30.6591 26.7587 30.3505 27.2012C30.0418 27.644 29.5087 27.8369 29.0122 27.7326C29.1905 28.2073 29.08 28.7639 28.6896 29.1361C28.2983 29.5075 27.7374 29.5891 27.2722 29.3883C27.3513 29.8891 27.1322 30.4126 26.6748 30.6987C26.2173 30.9848 25.6504 30.9517 25.2348 30.6605C25.2112 31.1683 24.8912 31.637 24.3852 31.8248C24.3852 31.8248 24.3852 31.8248 24.3844 31.8248C23.8783 32.0118 23.3305 31.8658 22.9818 31.4962C22.8566 31.9884 22.4479 32.3823 21.914 32.4641C21.3809 32.5449 20.874 32.291 20.607 31.8597C20.3948 32.2971 19.9462 32.5944 19.4348 32.5944C19.413 32.5948 19.3913 32.5939 19.3695 32.593Z"
        fill="#F3F3F3"
    />
    <path
        d="M19.9999 28.6956C24.8024 28.6956 28.6956 24.8024 28.6956 20C28.6956 15.1975 24.8024 11.3044 19.9999 11.3044C15.1975 11.3044 11.3043 15.1975 11.3043 20C11.3043 24.8024 15.1975 28.6956 19.9999 28.6956Z"
        fill="#338AF3"
    />
    <path
        d="M21.9033 17.0483C22.3305 16.7315 22.6086 16.225 22.6086 15.6522V14.7826C22.6086 13.8221 21.83 13.0435 20.8695 13.0435H19.1304C18.1699 13.0435 17.3913 13.8221 17.3913 14.7826V15.6522C17.3913 16.225 17.6694 16.7315 18.0966 17.0483L16.5217 33.0434C16.5217 33.0434 17.3913 33.9131 20 33.9131C22.6088 33.9131 23.4783 33.0434 23.4783 33.0434L21.9033 17.0483Z"
        fill="#BDBCC1"
    />
    <path
        d="M19.9999 13.0435L21.5107 17.6933H26.4001L22.4447 20.5674L23.9554 25.2174L19.9999 22.3436L16.0443 25.2174L17.5553 20.5674L13.5997 17.6933H18.489L19.9999 13.0435Z"
        fill="#F0F0F0"
    />
</svg>
