<svg xmlns="http://www.w3.org/2000/svg" width="40" height="40" viewBox="0 0 40 40" fill="none">
    <path
        fill-rule="evenodd"
        clip-rule="evenodd"
        d="M20 40C31.0457 40 40 31.0457 40 20C40 8.9543 31.0457 0 20 0C8.9543 0 0 8.9543 0 20C0 31.0457 8.9543 40 20 40Z"
        fill="#D8D8D8"
    />
    <rect width="40" height="40" fill="#0052B4" />
    <path
        d="M26.8272 12.6905C26.8272 12.4246 27.0434 12.2084 27.3094 12.2084H28.3425C29.9757 12.2084 31.3043 10.8798 31.3043 9.24674C31.3043 7.6137 29.9757 6.28502 28.3425 6.28502H27.3615C27.0412 6.04448 26.6116 5.89612 26.1377 5.89612C25.1492 5.89612 24.3479 6.53713 24.3479 7.32792C24.3479 8.11104 25.1339 8.74635 26.1092 8.7587L26.1087 8.7644H28.3425C28.6086 8.7644 28.8247 8.98065 28.8247 9.24659C28.8247 9.51252 28.6086 9.7287 28.3425 9.7287H27.3094C25.6763 9.7287 24.3478 11.0573 24.3478 12.6903C24.3478 14.3234 25.6762 15.6521 27.3094 15.6521H31.3043V13.1725H27.3094C27.0434 13.1726 26.8272 12.9564 26.8272 12.6905Z"
        fill="#F0F0F0"
    />
    <path
        d="M11.1751 12.6905C11.1751 12.4246 11.3913 12.2084 11.6573 12.2084H12.6904C14.3236 12.2084 15.6522 10.8798 15.6522 9.24674C15.6522 7.6137 14.3236 6.28502 12.6904 6.28502H11.7093C11.3891 6.04448 10.9595 5.89612 10.4856 5.89612C9.49707 5.89612 8.69574 6.53713 8.69574 7.32792C8.69574 8.11104 9.48176 8.74635 10.4571 8.7587L10.4566 8.7644H12.6905C12.9565 8.7644 13.1727 8.98065 13.1727 9.24659C13.1727 9.51252 12.9565 9.7287 12.6905 9.7287H11.6574C10.0243 9.7287 8.69574 11.0573 8.69574 12.6903C8.69574 14.3234 10.0242 15.6521 11.6574 15.6521H15.6521V13.1725H11.6573C11.3913 13.1726 11.1751 12.9564 11.1751 12.6905Z"
        fill="#F0F0F0"
    />
    <path
        d="M26.8272 31.1422C26.8272 30.8762 27.0434 30.66 27.3094 30.66H28.3426C29.9757 30.66 31.3044 29.3315 31.3044 27.6984C31.3044 26.0654 29.9758 24.7367 28.3426 24.7367H27.3615C27.0412 24.4961 26.6116 24.3478 26.1377 24.3478C25.1491 24.3478 24.3478 24.9889 24.3478 25.7796C24.3478 26.5627 25.1338 27.198 26.1091 27.2104L26.1087 27.2161H28.3425C28.6085 27.2161 28.8247 27.4323 28.8247 27.6982C28.8247 27.9642 28.6085 28.1804 28.3425 28.1804H27.3094C25.6762 28.1804 24.3477 29.509 24.3477 31.142C24.3477 32.775 25.6762 34.1037 27.3094 34.1037H31.3043V31.6243H27.3094C27.0434 31.6243 26.8272 31.408 26.8272 31.1422Z"
        fill="#F0F0F0"
    />
    <path
        d="M11.1751 31.1422C11.1751 30.8762 11.3913 30.66 11.6573 30.66H12.6904C14.3236 30.66 15.6522 29.3315 15.6522 27.6984C15.6522 26.0654 14.3236 24.7367 12.6904 24.7367H11.7094C11.3891 24.4961 10.9595 24.3478 10.4856 24.3478C9.49701 24.3478 8.69568 24.9889 8.69568 25.7796C8.69568 26.5627 9.48169 27.198 10.457 27.2104L10.4565 27.2161H12.6904C12.9565 27.2161 13.1726 27.4323 13.1726 27.6982C13.1726 27.9642 12.9565 28.1804 12.6904 28.1804H11.6573C10.0242 28.1804 8.69568 29.509 8.69568 31.142C8.69568 32.775 10.0241 34.1037 11.6573 34.1037H15.6522V31.6243H11.6573C11.3913 31.6243 11.1751 31.408 11.1751 31.1422Z"
        fill="#F0F0F0"
    />
    <path
        d="M40 17.3691H22.6311L22.631 0H17.3691V17.3689L0 17.369V22.6309H17.3689L17.369 40H22.6309V22.6311L40 22.631V17.3691Z"
        fill="#F0F0F0"
    />
</svg>
