<svg xmlns="http://www.w3.org/2000/svg" width="40" height="40" viewBox="0 0 40 40" fill="none">
    <rect x="40" width="40" height="11" transform="rotate(90 40 0)" fill="#D80027" />
    <rect x="11" width="40" height="11" transform="rotate(90 11 0)" fill="#6DA544" />
    <rect x="29" width="40" height="18" transform="rotate(90 29 0)" fill="#F0F0F0" />
    <path
        d="M14.7826 20C14.7826 22.8815 17.1185 25.2174 20 25.2174C22.8815 25.2174 25.2174 22.8815 25.2174 20V18.2609H14.7826V20Z"
        fill="#6DA544"
    />
    <path
        d="M26.9565 16.5217H21.739C21.739 15.5613 20.9604 14.7826 19.9999 14.7826C19.0394 14.7826 18.2608 15.5613 18.2608 16.5217H13.0433C13.0433 17.4823 13.88 18.2609 14.8404 18.2609H14.7825C14.7825 19.2214 15.5611 20 16.5216 20C16.5216 20.9606 17.3002 21.7392 18.2608 21.7392H21.739C22.6996 21.7392 23.4782 20.9606 23.4782 20C24.4387 20 25.2173 19.2214 25.2173 18.2609H25.1594C26.1199 18.2609 26.9565 17.4823 26.9565 16.5217Z"
        fill="#FF9811"
    />
</svg>
