<svg xmlns="http://www.w3.org/2000/svg" width="40" height="40" viewBox="0 0 40 40" fill="none">
    <rect width="40" height="40" fill="#0052B4" />
    <path fill-rule="evenodd" clip-rule="evenodd" d="M0 0H8H16H20V3V8L13 8L20 15V20H17L10 13V20H0V0Z" fill="#F0F0F0" />
    <path
        d="M19.95 20.0575H20.0189C20.0189 20.0345 20.0189 20.0121 20.0189 19.989C19.996 20.0119 19.9731 20.0347 19.95 20.0575Z"
        fill="#F0F0F0"
    />
    <path
        d="M34.6351 14.8896L35.0668 16.2157H36.4637L35.3336 17.0351L35.7653 18.3611L34.6351 17.5417L33.5049 18.3611L33.9366 17.0351L32.8064 16.2157H34.2033L34.6351 14.8896Z"
        fill="#D80027"
    />
    <path
        d="M29.6415 24.4362L30.289 26.4252H32.3844L30.6891 27.6544L31.3368 29.6434L29.6415 28.4142L27.9462 29.6434L28.5938 27.6544L26.8985 26.4252H28.9939L29.6415 24.4362Z"
        fill="#D80027"
    />
    <path
        d="M29.8301 8.81445L30.3698 10.4721H32.1159L30.7031 11.4962L31.2428 13.1538L29.8301 12.1293L28.4174 13.1538L28.957 11.4962L27.5444 10.4721H29.2905L29.8301 8.81445Z"
        fill="#D80027"
    />
    <path
        d="M25.0251 14.8318L25.6726 16.8209H27.7681L26.0728 18.05L26.7204 20.039L25.0251 18.8098L23.3298 20.039L23.9775 18.05L22.2822 16.8209H24.3776L25.0251 14.8318Z"
        fill="#D80027"
    />
    <path
        fill-rule="evenodd"
        clip-rule="evenodd"
        d="M8 0H3V3H0V8H3V20H8V8H20V3H8V0ZM20 16.5845L12.8943 9.49268C12.8943 9.49268 10.4348 9.49283 10.4348 9.49268V9.49283L19.9999 19.0392H20V16.5845Z"
        fill="#D80027"
    />
</svg>
