<svg xmlns="http://www.w3.org/2000/svg" width="40" height="40" viewBox="0 0 40 40" fill="none">
    <path d="M2.75503e-05 39.9999L1.00664e-05 0L39.9995 39.9999H2.75503e-05Z" fill="#3D3D3D" />
    <path d="M6.10344e-05 0.000377253L39.9996 0.000244138V40" fill="#A2001D" />
    <path
        d="M33.351 12.9309C32.4861 12.0661 31.351 11.5471 30.1402 11.4607L33.7726 8.62826C32.324 7.16882 30.3997 6.52018 28.497 6.67153C28.2808 5.86072 27.8484 5.08236 27.1997 4.44453L25.7511 7.30936C25.643 7.13639 25.5349 6.98504 25.3943 6.83369C24.5727 6.01207 23.2322 6.01207 22.3998 6.83369C21.5674 7.6553 21.5782 8.99582 22.3998 9.82824C22.5403 9.96878 22.7025 10.0877 22.8755 10.185L19.9998 11.6228C20.6485 12.2715 21.4052 12.7039 22.2268 12.9201C22.0863 14.812 22.7457 16.7579 24.1727 18.2173L27.3511 14.1309C27.5889 13.8931 27.8916 13.7633 28.2376 13.7633C28.5835 13.7633 28.8862 13.8931 29.1348 14.1309C29.3835 14.3687 29.5024 14.693 29.5024 15.0282C29.5024 15.3633 29.3727 15.6768 29.1348 15.9255L30.324 17.1146C30.8862 16.5525 31.1889 15.8174 31.1889 15.0174C31.1889 14.3687 30.9727 13.7525 30.6051 13.2444C31.1782 13.3972 31.7005 13.6994 32.1186 14.1201C33.4375 15.439 33.4375 17.5795 32.1186 18.9092L33.3078 20.0984C34.2807 19.1254 34.7996 17.8606 34.7996 16.5092C34.7996 15.1579 34.2591 13.8822 33.3078 12.9201L33.351 12.9309Z"
        fill="#FFDA44"
    />
</svg>
