<svg xmlns="http://www.w3.org/2000/svg" width="40" height="40" viewBox="0 0 40 40" fill="none">
    <g clip-path="url(#clip0_28106_2516)">
        <path d="M-3.34846e-05 40L-5.09686e-05 -0.000396729L40 40H-3.34846e-05Z" fill="#3D3D3D" />
        <path d="M0 5.68231e-05L40 -7.62939e-05V40.0001" fill="#A2001D" />
        <path
            d="M33.3514 12.9307C32.4865 12.0659 31.3514 11.5469 30.1405 11.4604L33.773 8.62801C32.3243 7.16855 30.4 6.51991 28.4973 6.67126C28.2811 5.86045 27.8486 5.08207 27.2 4.44423L25.7514 7.30909C25.6432 7.13612 25.5351 6.98477 25.3946 6.83342C24.573 6.0118 23.2324 6.0118 22.4 6.83342C21.5676 7.65504 21.5784 8.99558 22.4 9.82801C22.5405 9.96855 22.7027 10.0875 22.8757 10.1848L20 11.6226C20.6486 12.2713 21.4054 12.7037 22.227 12.9199C22.0865 14.8118 22.7459 16.7577 24.173 18.2172L27.3514 14.1307C27.5892 13.8929 27.8919 13.7631 28.2378 13.7631C28.5838 13.7631 28.8865 13.8929 29.1351 14.1307C29.3838 14.3686 29.5027 14.6929 29.5027 15.028C29.5027 15.3631 29.373 15.6767 29.1351 15.9253L30.3243 17.1145C30.8865 16.5523 31.1892 15.8172 31.1892 15.0172C31.1892 14.3686 30.973 13.7523 30.6054 13.2442C31.1785 13.397 31.7008 13.6992 32.1189 14.1199C33.4378 15.4388 33.4378 17.5794 32.1189 18.9091L33.3081 20.0983C34.2811 19.1253 34.8 17.8604 34.8 16.5091C34.8 15.1577 34.2595 13.8821 33.3081 12.9199L33.3514 12.9307Z"
            fill="#FFDA44"
        />
    </g>
    <defs>
        <clipPath id="clip0_28106_2516">
            <rect width="40" height="40" fill="white" />
        </clipPath>
    </defs>
</svg>
