<svg xmlns="http://www.w3.org/2000/svg" width="40" height="40" viewBox="0 0 40 40" fill="none">
    <rect width="40" height="20" fill="#0052B4" />
    <rect y="20" width="40" height="20" fill="#D80027" />
    <path d="M24 20L0 0V40L24 20Z" fill="white" />
    <path
        d="M13.6946 20L11.2521 18.8511L12.5528 16.4855L9.90046 16.9929L9.56437 14.3135L7.71687 16.2841L5.86945 14.3135L5.53328 16.9929L2.88101 16.4854L4.18171 18.8511L1.73914 20L4.18171 21.1489L2.88101 23.5144L5.53351 23.0071L5.86937 25.6864L7.71687 23.7158L9.56437 25.6864L9.90046 23.0071L12.5527 23.5145L11.252 21.1489L13.6946 20Z"
        fill="#FFDA44"
    />
    <path
        d="M5.33383 7.82605L6.14664 8.96222L7.47828 8.54042L6.64875 9.66449L7.46156 10.8007L6.13609 10.3592L5.30664 11.4832L5.31703 10.0863L3.99164 9.64472L5.32351 9.22292L5.33383 7.82605Z"
        fill="#FFDA44"
    />
    <path
        d="M5.33383 28.5168L6.14664 29.653L7.47828 29.2311L6.64875 30.3553L7.46156 31.4915L6.13609 31.05L5.30664 32.174L5.31703 30.7771L3.99164 30.3355L5.32351 29.9137L5.33383 28.5168Z"
        fill="#FFDA44"
    />
    <path
        d="M16.927 18.1715L16.1143 19.3077L14.7826 18.8857L15.6121 20.0099L14.7993 21.1461L16.1248 20.7046L16.9543 21.8285L16.9438 20.4317L18.2692 19.9902L16.9374 19.5684L16.927 18.1715Z"
        fill="#FFDA44"
    />
</svg>
