<svg xmlns="http://www.w3.org/2000/svg" width="40" height="40" viewBox="0 0 40 40" fill="none">
    <rect x="11" width="29" height="40" fill="#496E2D" />
    <rect width="11" height="40" transform="matrix(-1 0 0 1 11 0)" fill="#F0F0F0" />
    <path
        d="M28.551 23.3075C26.0208 25.1357 22.4875 24.5667 20.6594 22.0365C18.8311 19.5062 19.4002 15.973 21.9305 14.1449C22.7194 13.5749 23.6058 13.2379 24.5076 13.1208C22.7727 12.8613 20.9387 13.2523 19.4045 14.3608C16.2905 16.611 15.5899 20.9595 17.84 24.0737C20.0901 27.1877 24.4387 27.8883 27.5529 25.638C29.0872 24.5295 30.0341 22.9113 30.3324 21.1824C29.9382 22.0017 29.34 22.7374 28.551 23.3075Z"
        fill="#F0F0F0"
    />
    <path
        d="M28.4427 13.0437L29.868 14.5797L31.7692 13.6991L30.7487 15.5291L32.1739 17.0653L30.118 16.6602L29.0975 18.4903L28.8474 16.4099L26.7915 16.0048L28.6928 15.1242L28.4427 13.0437Z"
        fill="#F0F0F0"
    />
</svg>
