<svg xmlns="http://www.w3.org/2000/svg" width="40" height="40" viewBox="0 0 40 40" fill="none">
    <rect x="40" width="40" height="27" transform="rotate(90 40 0)" fill="#D80027" />
    <rect x="13" width="40" height="13" transform="rotate(90 13 0)" fill="#6DA544" />
    <path
        d="M13.0435 26.9564C16.8855 26.9564 20 23.8419 20 19.9999C20 16.158 16.8855 13.0435 13.0435 13.0435C9.20156 13.0435 6.08704 16.158 6.08704 19.9999C6.08704 23.8419 9.20156 26.9564 13.0435 26.9564Z"
        fill="#FFDA44"
    />
    <path
        d="M9.13046 16.5217V20.8695C9.13046 23.0306 10.8823 24.7826 13.0435 24.7826C15.2047 24.7826 16.9566 23.0307 16.9566 20.8695V16.5217H9.13046Z"
        fill="#D80027"
    />
    <path
        d="M13.0435 22.1739C12.3243 22.1739 11.7391 21.5888 11.7391 20.8696V19.1305H14.3478V20.8696C14.3478 21.5888 13.7627 22.1739 13.0435 22.1739Z"
        fill="#F0F0F0"
    />
</svg>
