<svg xmlns="http://www.w3.org/2000/svg" width="40" height="40" viewBox="0 0 40 40" fill="none">
    <rect y="27" width="40" height="13" fill="#F0F0F0" />
    <rect width="40" height="13" fill="#D80027" />
    <rect y="13" width="40" height="14" fill="#0052B4" />
    <path
        d="M5.17169 11.3043V21.2814C5.17169 26.9567 12.5858 28.6957 12.5858 28.6957C12.5858 28.6957 19.9999 26.9567 19.9999 21.2814V11.3043H5.17169Z"
        fill="#D80027"
    />
    <path
        d="M8.23798 13.0435H16.9337V9.56519L15.1945 10.4347L12.5859 7.82605L9.97712 10.4347L8.23798 9.56519V13.0435Z"
        fill="#FFDA44"
    />
    <path
        d="M18.2609 22.6705L12.6087 17.0183L6.95648 22.6705L8.80109 24.5151L12.6087 20.7075L16.4162 24.5151L18.2609 22.6705Z"
        fill="#FFDA44"
    />
    <path
        d="M18.2609 17.3912H15.6237C15.772 17.1353 15.8582 16.8389 15.8582 16.5219C15.8582 15.5612 15.0795 14.7827 14.1191 14.7827C13.4554 14.7827 12.8791 15.1544 12.5859 15.7009C12.2927 15.1545 11.7163 14.7827 11.0527 14.7827C10.0922 14.7827 9.31351 15.5612 9.31351 16.5219C9.31351 16.8389 9.39976 17.1354 9.54804 17.3912H6.95648C6.95648 18.3518 7.79312 19.1304 8.75351 19.1304H8.69562C8.69562 20.0909 9.47422 20.8695 10.4348 20.8695C10.4348 21.72 11.0455 22.4265 11.8522 22.5778L10.4819 25.6717C11.1386 25.9387 11.8562 26.0869 12.6087 26.0869C13.3612 26.0869 14.0789 25.9387 14.7356 25.6717L13.3653 22.5778C14.172 22.4267 14.7827 21.7201 14.7827 20.8695C15.7433 20.8695 16.5219 20.0909 16.5219 19.1304H16.464C17.4243 19.1304 18.2609 18.3517 18.2609 17.3912Z"
        fill="#F0F0F0"
    />
</svg>
