<svg xmlns="http://www.w3.org/2000/svg" width="40" height="40" viewBox="0 0 40 40" fill="none">
    <rect width="40" height="40" fill="#6DA544" />
    <path
        d="M11.3044 23.9131C11.3044 25.3538 12.4724 26.5218 13.9131 26.5218H21.7391C21.7391 27.7224 22.7124 28.6957 23.9131 28.6957H26.5217C27.7224 28.6957 28.6956 27.7224 28.6956 26.5218V23.9131H11.3044Z"
        fill="#F0F0F0"
    />
    <path
        d="M28.913 11.3043V17.3913C28.913 18.3503 28.1329 19.1304 27.1739 19.1304V21.7391C29.5713 21.7391 31.5217 19.7886 31.5217 17.3913V11.3043L28.913 11.3043Z"
        fill="#F0F0F0"
    />
    <path
        d="M10.2174 17.3913C10.2174 18.3503 9.43726 19.1304 8.47827 19.1304V21.7391C10.8757 21.7391 12.8261 19.7886 12.8261 17.3913V11.3043H10.2174V17.3913Z"
        fill="#F0F0F0"
    />
    <rect x="25" y="11.3043" width="2.60867" height="6.08695" fill="#F0F0F0" />
    <path
        d="M21.087 14.7826C21.087 15.0224 20.8919 15.2174 20.6522 15.2174C20.4125 15.2174 20.2174 15.0223 20.2174 14.7826V11.3043H17.6088V14.7826C17.6088 15.0224 17.4137 15.2174 17.174 15.2174C16.9343 15.2174 16.7392 15.0223 16.7392 14.7826V11.3043H14.1305V14.7826C14.1305 16.4608 15.4958 17.8261 17.174 17.8261C17.8203 17.8261 18.4197 17.623 18.9131 17.278C19.4065 17.6229 20.006 17.8261 20.6523 17.8261C20.7824 17.8261 20.9104 17.817 21.0363 17.801C20.8514 18.5626 20.1655 19.1304 19.3479 19.1304V21.7391C21.7453 21.7391 23.6957 19.7886 23.6957 17.3913V14.7826V11.3043H21.0871V14.7826H21.087Z"
        fill="#F0F0F0"
    />
    <rect x="14.1305" y="19.1305" width="3.91305" height="2.60867" fill="#F0F0F0" />
</svg>
