<svg xmlns="http://www.w3.org/2000/svg" width="40" height="40" viewBox="0 0 40 40" fill="none">
    <path d="M39.9999 0V39.9999H0L39.9999 0Z" fill="#496E2D" />
    <path d="M0 0H39.9999L0 39.9999V0Z" fill="#0052B4" />
    <path d="M0 38.3332L38.3332 0H39.9999V1.66666L1.66666 39.9999H0V38.3332Z" fill="#FFDA44" />
    <path
        d="M8.42663 6.95567L8.85996 8.28455H10.2555L9.12552 9.10677L9.55551 10.4334L8.42552 9.61121L7.29552 10.4334L7.72885 9.10455L6.59886 8.28233H7.99552L8.42663 6.95567Z"
        fill="#F0F0F0"
    />
    <path
        d="M15.5622 6.95567L15.9955 8.28455H17.3922L16.2622 9.10677L16.6955 10.4357L15.5655 9.61344L14.4355 10.4357L14.8688 9.10677L13.7388 8.28455H15.1355L15.5622 6.95567Z"
        fill="#F0F0F0"
    />
    <path
        d="M8.42662 13.9134L8.85995 15.2423H10.2555L9.1255 16.0645L9.55661 17.3934L8.42662 16.5712L7.29662 17.3934L7.72995 16.0645L6.59996 15.2423H7.99662L8.42662 13.9134Z"
        fill="#F0F0F0"
    />
    <path
        d="M15.5622 13.9134L15.9955 15.2423H17.3922L16.2622 16.0645L16.6955 17.3934L15.5655 16.5712L14.4355 17.3934L14.8688 16.0645L13.7388 15.2423H15.1355L15.5622 13.9134Z"
        fill="#F0F0F0"
    />
    <path
        d="M11.9944 10.4334L12.4277 11.7623H13.8244L12.6944 12.5845L13.1277 13.9134L11.9977 13.0912L10.8677 13.9134L11.301 12.5845L10.1711 11.7623H11.5677L11.9944 10.4334Z"
        fill="#F0F0F0"
    />
</svg>
