<svg xmlns="http://www.w3.org/2000/svg" width="40" height="40" viewBox="0 0 40 40" fill="none">
    <rect y="0.000976539" width="39.999" height="39.999" fill="#F0F0F0" />
    <path
        d="M38.8879 0.000366202L19.9995 0.000577065C19.9995 0.000577065 17.7699 0.00895543 17.7773 0.000731901L7.82536 11.3047L0 25.5555L2.84771e-06 32.222L19.9995 20.0001L38.8879 0.000366202Z"
        fill="#FFDA44"
    />
    <path d="M39.999 30.0002L2.64903e-06 38.8889L0 40C0 40 39.4435 39.9996 39.999 39.9996V30.0002Z" fill="#6DA544" />
    <path d="M38.8879 0L0 31.6659L6.6888e-06 36.6658L39.999 20.0002V0H38.8879Z" fill="#D80027" />
    <path d="M6.37423e-06 0.000854471L0 25.5558L17.7773 0.000935002L6.37423e-06 0.000854471Z" fill="#0052B4" />
</svg>
