<svg xmlns="http://www.w3.org/2000/svg" width="40" height="40" viewBox="0 0 40 40" fill="none">
    <g clip-path="url(#clip0_28106_2519)">
        <rect y="0.000343323" width="40" height="40" fill="#F0F0F0" />
        <path
            d="M38.8889 -0.000190735L20 2.01331e-05C20 2.01331e-05 17.7704 0.0083987 17.7778 0.000174973L7.82556 11.3045L0 25.5556L2.84778e-06 32.2222L20 20L38.8889 -0.000190735Z"
            fill="#FFDA44"
        />
        <path d="M40 30.0004L2.6491e-06 38.8893L0 40.0004C0 40.0004 39.4444 40 40 40V30.0004Z" fill="#6DA544" />
        <path d="M38.8889 -0.00063324L0 31.666L6.68897e-06 36.666L40 20.0001V-0.00063324H38.8889Z" fill="#D80027" />
        <path d="M6.37439e-06 0.00019455L0 25.5557L17.7778 0.000275082L6.37439e-06 0.00019455Z" fill="#0052B4" />
    </g>
    <defs>
        <clipPath id="clip0_28106_2519">
            <rect width="40" height="40" fill="white" />
        </clipPath>
    </defs>
</svg>
