<svg xmlns="http://www.w3.org/2000/svg" width="40" height="40" viewBox="0 0 40 40" fill="none">
    <rect width="40" height="40" fill="#0052B4" />
    <path
        d="M40 20.0389C40 31.063 31.0456 39.9999 20 39.9999C8.95438 39.9999 0 31.063 0 20.0389C0 20.0437 20 0.0800641 20 0.0778809C31.0456 0.0778809 40 9.0148 40 20.0389Z"
        fill="#0052B4"
    />
    <path
        d="M19.95 20.0575H20.0189C20.0189 20.0345 20.0189 20.0121 20.0189 19.989C19.996 20.0119 19.973 20.0347 19.95 20.0575Z"
        fill="#F0F0F0"
    />
    <path d="M22.5698 12.2222V21.7687C22.5698 26.419 34.8117 26.419 34.8117 21.7687V12.2222H22.5698Z" fill="#FFDA44" />
    <path
        d="M22.5698 21.7688V21.7687C22.5698 26.419 28.6908 27.8439 28.6908 27.8439C28.6908 27.8439 34.8117 26.419 34.8117 21.7687V21.7688V16.3699L22.5698 16.3699V21.7688Z"
        fill="#338AF3"
    />
    <path
        d="M22.5698 21.7688V21.7687C22.5698 26.419 28.6908 27.8439 28.6908 27.8439C28.6908 27.8439 34.8117 26.419 34.8117 21.7687V21.7688V16.3699L22.5698 16.3699V21.7688Z"
        fill="#338AF3"
    />
    <mask
        id="mask0_18551_379"
        x="22"
        y="16"
        style="mask-type: luminance"
        maskUnits="userSpaceOnUse"
        width="13"
        height="12"
    >
        <path
            d="M22.5698 21.7688V21.7687C22.5698 26.419 28.6908 27.8439 28.6908 27.8439C28.6908 27.8439 34.8117 26.419 34.8117 21.7687V21.7688V16.3699L22.5698 16.3699V21.7688Z"
            fill="white"
        />
    </mask>
    <g mask="url(#mask0_18551_379)">
        <path
            d="M28.8556 21.3333C27.3255 21.3333 27.3255 22.7219 25.7953 22.7219C24.2652 22.7219 23.7401 21.3333 22.21 21.3333L21.9983 26.2221C23.5284 26.2221 23.0508 27.8438 24.581 27.8438C26.1111 27.8438 27.0732 28.9999 28.6033 28.9999C30.1336 28.9999 32.2126 26.6666 33.743 26.6666C35.2734 26.6666 34.6368 24.9999 34.977 23.7633V21.3333C33.4467 21.3333 33.4467 22.7219 31.9163 22.7219C30.3859 22.7219 30.3859 21.3333 28.8556 21.3333Z"
            fill="#00276B"
        />
    </g>
    <path fill-rule="evenodd" clip-rule="evenodd" d="M0 0H8H16H20V3V8L13 8L20 15V20H17L10 13V20H0V0Z" fill="#F0F0F0" />
    <path
        fill-rule="evenodd"
        clip-rule="evenodd"
        d="M8 0H3V3H0V8H3V20H8V8H20V3H8V0ZM20 16.5845L12.8943 9.49268C12.8943 9.49268 10.4348 9.49283 10.4348 9.49268V9.49283L19.9999 19.0392H20V16.5845Z"
        fill="#D80027"
    />
</svg>
