<svg xmlns="http://www.w3.org/2000/svg" width="40" height="40" viewBox="0 0 40 40" fill="none">
    <rect width="40" height="13" fill="#F0F0F0" />
    <rect y="27" width="40" height="13" fill="#D80027" />
    <rect y="13" width="40" height="14" fill="#0052B4" />
    <path
        d="M38.756 13.0435H17.3913V7.82605H6.95648V13.0435H1.24398C0.440078 15.21 0 17.5535 0 20C0 22.4464 0.440078 24.7898 1.24398 26.9564H38.756C39.5599 24.7898 40 22.4464 40 20C40 17.5535 39.5599 15.21 38.756 13.0435Z"
        fill="#0052B4"
    />
    <path
        d="M6.95648 13.0435V14.7825C6.95648 18.7764 12.1739 20 12.1739 20C12.1739 20 17.3913 18.7764 17.3913 14.7825V13.0435L15.6522 14.7826L12.1739 12.174L8.69562 14.7826L6.95648 13.0435Z"
        fill="#F0F0F0"
    />
</svg>
