<svg xmlns="http://www.w3.org/2000/svg" width="40" height="40" viewBox="0 0 40 40" fill="none">
    <rect y="20" width="40" height="20" fill="#338AF3" />
    <rect width="40" height="20" fill="#F0F0F0" />
    <path
        d="M27.9387 13.8003L20 21.7391L12.0612 13.8003C11.0346 15.3243 10.4348 17.1586 10.4348 19.1304V21.739C10.4348 25.9278 13.1415 29.496 16.8975 30.7875C16.3961 31.77 16.4807 32.9962 17.2153 33.9129C18.1909 33.131 19.201 32.3215 20.0579 31.635C20.9147 32.3216 21.9249 33.1311 22.9004 33.9129C23.6436 32.9854 23.7221 31.7409 23.201 30.7526C26.9057 29.4331 29.5651 25.8911 29.5651 21.739V19.1304C29.5652 17.1586 28.9654 15.3244 27.9387 13.8003Z"
        fill="#6DA544"
    />
    <path
        d="M19.9999 28.6956C16.1641 28.6956 13.0435 25.5749 13.0435 21.7391V19.1304C13.0435 15.2946 16.1642 12.174 19.9999 12.174C23.8357 12.174 26.9564 15.2947 26.9564 19.1304V21.7391C26.9564 25.5749 23.8358 28.6956 19.9999 28.6956Z"
        fill="#FFDA44"
    />
    <path
        d="M24.3478 21.7391V19.1304C24.3478 16.733 22.3973 14.7826 20 14.7826C17.6026 14.7826 15.6522 16.7331 15.6522 19.1304V21.7391L20 22.6086L24.3478 21.7391Z"
        fill="#338AF3"
    />
    <path
        d="M15.6522 21.7391C15.6522 24.1366 17.6026 26.0869 20 26.0869C22.3973 26.0869 24.3478 24.1365 24.3478 21.7391H15.6522Z"
        fill="#6DA544"
    />
    <path
        d="M25.2174 12.1739C25.2174 10.7332 24.0495 9.5652 22.6087 9.5652C21.9404 9.5652 21.3312 9.81676 20.8696 10.23V8.69559H21.7391V6.95645H20.8696V6.08691H19.1305V6.95645H18.2609V8.69559H19.1305V10.23C18.6688 9.81676 18.0596 9.5652 17.3913 9.5652C15.9506 9.5652 14.7827 10.7332 14.7827 12.1739C14.7827 12.9463 15.1187 13.64 15.6522 14.1178V15.6521H24.3478V14.1178C24.8814 13.64 25.2174 12.9463 25.2174 12.1739Z"
        fill="#FFDA44"
    />
</svg>
