<svg xmlns="http://www.w3.org/2000/svg" width="40" height="40" viewBox="0 0 40 40" fill="none">
    <rect y="20" width="40" height="20" fill="#0052B4" />
    <rect width="40" height="20" fill="#D80027" />
    <path d="M20 20L0 0V40L20 20Z" fill="#F0F0F0" />
    <path
        d="M2.26597 20.0001C2.25506 20.1437 2.24765 20.2884 2.24765 20.4348C2.24765 23.5563 4.77334 26.087 7.88882 26.087C11.0043 26.087 13.53 23.5563 13.53 20.4348C13.53 20.2884 13.5226 20.1436 13.5117 20.0001H2.26597Z"
        fill="#FFDA44"
    />
    <path
        d="M7.88883 17.3913C8.84746 17.3913 9.62458 16.6127 9.62458 15.6522C9.62458 14.6917 8.84746 13.913 7.88883 13.913C6.9302 13.913 6.15308 14.6917 6.15308 15.6522C6.15308 16.6127 6.9302 17.3913 7.88883 17.3913Z"
        fill="#FFDA44"
    />
    <path
        d="M3.9834 15.2174V20.8696C3.9834 23.8649 7.88882 24.7827 7.88882 24.7827C7.88882 24.7827 11.7942 23.8649 11.7942 20.8696V15.2174H3.9834V15.2174Z"
        fill="#D80027"
    />
    <path
        d="M7.8907 22.9625C7.16618 22.7012 5.71909 22.0336 5.71909 20.8695V16.9565H10.0585V20.8695C10.0585 22.0374 8.61156 22.7034 7.8907 22.9625Z"
        fill="#338AF3"
    />
    <path
        d="M8.75664 19.1305V18.2609L7.88881 17.8261L7.02089 18.2609V19.1305L6.58698 19.5652V21.3044H9.19064V19.5652L8.75664 19.1305Z"
        fill="#F3F3F3"
    />
</svg>
