<svg xmlns="http://www.w3.org/2000/svg" width="40" height="40" viewBox="0 0 40 40" fill="none">
    <path d="M0 0H40V40H0V0Z" fill="#0052B4" />
    <path
        d="M19.95 20.0575H20.0189C20.0189 20.0345 20.0189 20.0121 20.0189 19.989C19.996 20.0119 19.9731 20.0347 19.95 20.0575Z"
        fill="#F0F0F0"
    />
    <path fill-rule="evenodd" clip-rule="evenodd" d="M0 0H8H16H20V3V8L13 8L20 15V20H17L10 13V20H0V0Z" fill="#F0F0F0" />
    <path
        fill-rule="evenodd"
        clip-rule="evenodd"
        d="M8 0H3V3H0V8H3V20H8V8H20V3H8V0ZM20 16.5845L12.8943 9.49268C12.8943 9.49268 10.4348 9.49283 10.4348 9.49268V9.49283L19.9999 19.0392H20V16.5845Z"
        fill="#D80027"
    />
    <path
        d="M28.3493 14.1142C28.1804 13.6337 27.0767 13.2215 26.5891 13.4085C27.151 12.36 28.0821 12.0412 28.553 11.5547C29.024 11.0682 29.0419 10.6368 29.0419 10.6368C29.0419 10.6368 29.4721 11.3666 29.9035 12.0412C30.3349 12.7159 30.9172 13.0897 30.9172 13.0897C30.9172 13.0897 29.3978 13.5475 28.3493 14.1142Z"
        fill="#C0E6E9"
    />
    <path
        d="M29.2732 14.5888C28.4668 14.5888 27.1882 14.5516 27.0756 14.3264C26.9629 14.1011 26.9258 13.5211 26.9258 13.5211C26.9258 13.5211 27.8808 13.9896 29.1726 13.9896C30.4643 13.9896 31.2887 13.5211 31.2887 13.5211C31.2887 13.5211 31.2983 14.3108 30.9161 14.457C30.6488 14.5612 30.1911 14.5888 29.2732 14.5888Z"
        fill="#C7E9EB"
    />
    <path
        d="M22.8547 16.9047C22.7049 17.2785 22.6857 17.7662 22.9673 17.9723C23.2477 18.1784 23.6971 17.7662 23.6971 17.7662C23.6971 17.7662 22.893 17.6919 22.8547 16.9047Z"
        fill="#9FC2FF"
    />
    <path
        d="M24.6905 17.5421C24.3346 17.2234 23.5905 17.4679 23.5905 17.4679C23.5905 17.4679 23.6791 17.0365 23.9044 16.9059C23.2861 16.8495 22.959 17.0185 22.7481 17.5421C22.5 17.2617 22.8559 16.5691 22.8559 16.5691C22.8559 16.5691 23.6612 16.0826 24.4281 16.5691C25.0644 15.6896 25.165 14.1726 24.3945 14.3032C24.597 13.7975 26.0457 14.1151 25.7701 14.9862C25.4957 15.8574 25.0464 16.1941 25.0464 16.1941C25.0464 16.1941 25.7977 15.4847 26.3118 15.8022C26.8258 16.1198 27.0499 17.6057 25.9271 17.1156C24.8031 16.6255 24.5982 16.9322 24.5791 17.1156C24.5587 17.2989 24.6905 17.5421 24.6905 17.5421Z"
        fill="#00A3D6"
    />
    <path
        d="M27.2919 17.2797C26.8126 18.69 25.8684 18.69 25.8684 18.69C25.8684 18.69 25.9247 18.2035 26.1116 17.9855C25.3064 18.291 24.1836 17.8045 24.4269 16.5691C24.6138 17.3552 25.3999 17.6176 26.1308 17.2617C26.8618 16.9046 27.365 17.0664 27.2919 17.2797Z"
        fill="#9FC2FF"
    />
    <path
        d="M22.0315 15.2019C21.8949 14.979 22.2208 14.5836 22.6594 14.7334C22.3682 15.0521 22.5012 15.3696 22.6594 15.5949C22.8176 15.8202 22.1813 15.4451 22.0315 15.2019Z"
        fill="#00A3D6"
    />
    <path
        d="M25.008 14.2277C24.6521 14.115 24.3933 14.302 24.3933 14.302C24.3933 14.302 24.2028 13.8718 23.6216 14.0395C23.0404 14.2073 22.6857 14 22.6857 14C22.6857 14 22.8727 14.6063 23.7534 14.6135C23.2106 15.3121 22.2927 15.4439 22.0303 15.2007C22.1801 15.5374 22.7037 15.9496 22.8918 15.9688C23.0788 15.9879 24.065 15.4056 24.277 14.7333C24.3142 14.6147 24.4268 14.7513 24.277 14.985C24.1273 15.2198 23.9966 15.4823 24.0901 15.8933C24.2255 15.6656 24.5203 15.65 24.6701 15.2941C24.8199 14.9383 24.6893 14.5644 25.0068 14.4518C25.3267 14.3403 25.008 14.2277 25.008 14.2277Z"
        fill="#9FC2FF"
    />
    <path
        d="M35.4443 16.9047C35.594 17.2785 35.6132 17.7662 35.3316 17.9723C35.0512 18.1784 34.6019 17.7662 34.6019 17.7662C34.6019 17.7662 35.4059 17.6919 35.4443 16.9047Z"
        fill="#9FC2FF"
    />
    <path
        d="M33.6085 17.5421C33.9644 17.2234 34.7085 17.4679 34.7085 17.4679C34.7085 17.4679 34.6199 17.0365 34.3946 16.9059C35.0129 16.8495 35.34 17.0185 35.5509 17.5421C35.799 17.2617 35.4431 16.5691 35.4431 16.5691C35.4431 16.5691 34.6378 16.0826 33.8709 16.5691C33.2347 15.6896 33.134 14.1726 33.9045 14.3032C33.702 13.7975 32.2533 14.1151 32.5289 14.9862C32.8033 15.8574 33.2526 16.1941 33.2526 16.1941C33.2526 16.1941 32.5013 15.4847 31.9872 15.8022C31.4732 16.1198 31.2491 17.6057 32.3719 17.1156C33.4959 16.6255 33.7008 16.9322 33.72 17.1156C33.7403 17.2989 33.6085 17.5421 33.6085 17.5421Z"
        fill="#00A3D6"
    />
    <path
        d="M31.007 17.2797C31.4863 18.69 32.4306 18.69 32.4306 18.69C32.4306 18.69 32.3742 18.2035 32.1873 17.9855C32.9926 18.291 34.1153 17.8045 33.8721 16.5691C33.6852 17.3552 32.8991 17.6176 32.1681 17.2617C31.4372 16.9046 30.9339 17.0664 31.007 17.2797Z"
        fill="#9FC2FF"
    />
    <path
        d="M36.2675 15.2019C36.4041 14.979 36.0781 14.5836 35.6396 14.7334C35.9307 15.0521 35.7977 15.3696 35.6396 15.5949C35.4814 15.8202 36.1177 15.4451 36.2675 15.2019Z"
        fill="#00A3D6"
    />
    <path
        d="M33.291 14.2277C33.6468 14.115 33.9057 14.302 33.9057 14.302C33.9057 14.302 34.0962 13.8718 34.6774 14.0395C35.2585 14.2073 35.6132 14 35.6132 14C35.6132 14 35.4263 14.6063 34.5456 14.6135C35.0884 15.3121 36.0063 15.4439 36.2687 15.2007C36.1189 15.5374 35.5952 15.9496 35.4071 15.9688C35.2202 15.9879 34.234 15.4056 34.0219 14.7333C33.9848 14.6147 33.8721 14.7513 34.0219 14.985C34.1717 15.2198 34.3023 15.4823 34.2088 15.8933C34.0734 15.6656 33.7787 15.65 33.6289 15.2941C33.4791 14.9383 33.6097 14.5644 33.2922 14.4518C32.9722 14.3403 33.291 14.2277 33.291 14.2277Z"
        fill="#9FC2FF"
    />
    <path
        d="M30.4007 19.9937C29.9088 19.9937 29.8723 18.9511 29.8723 18.9511C29.8723 18.9511 29.7242 19.0362 29.3023 19.4756C28.8794 19.9149 28.2455 20 28.2455 20C28.2455 20 27.7597 19.3416 28.3307 18.5594C28.3094 17.7771 27.5913 16.9685 27.5913 16.9685L27 16.8121C27 16.8121 27 15 29.4504 15.0122C30.4859 14.9071 30.5488 15.4816 30.4646 16.6544C30.3804 17.8272 30.6766 18.5581 30.6766 18.5581C30.6766 18.5581 31.563 19.9937 30.4007 19.9937Z"
        fill="#8DA8C3"
    />
    <path
        d="M29.0107 19H26V22.8871C26 26.2042 28.0893 26.7283 28.9893 26.994V27L29.0006 26.9964L29.0107 27V26.994C29.9107 26.7271 32 26.2042 32 22.8871V19H29.0107Z"
        fill="white"
    />
    <path d="M28.9898 19H26V23H32V19H28.9898Z" fill="#179AF9" />
    <path d="M29.053 25C29.053 25 28.86 23.9328 28 23H30C30 23 29.23 23.8482 29.053 25Z" fill="#179AF9" />
    <path d="M29.053 21C29.053 21 28.86 22.0672 28 23H30C30 23 29.23 22.1518 29.053 21Z" fill="white" />
    <path
        d="M22.2006 20.4192C22.2006 20.4192 22.2859 20.1594 22.6282 19.9685C22.9705 19.7776 22.731 19.6222 22.509 19.6389C22.287 19.6566 22.1165 19.6733 21.877 20.2982C21.6375 20.922 20.7321 23.628 22.2017 25.0842C21.7742 24.8755 21.3816 24.0264 21.3816 24.0264C21.3816 24.0264 21.433 24.5991 21.7228 25.1707C20.8513 23.7833 20.9541 22.3094 21.0908 21.1994C21.2274 20.0895 21.5522 19.3781 22.0476 19.3436C22.4576 18.7199 23.2089 19.0429 23.7731 19.5401C24.3373 20.0373 24.6107 20.5057 24.6107 20.5057C24.6107 20.5057 24.6851 19.5867 25.1093 19.6733C25.5336 19.7599 26.1482 20.0718 26.2335 20.2971C26.3188 20.5224 25.7042 20.3492 25.5839 20.2105C25.4647 20.0718 25.2318 19.9153 25.1093 20.054C24.9869 20.1927 24.9005 20.8176 24.9005 20.8176C24.9005 20.8176 25.2034 20.2449 25.3849 20.2971C25.5664 20.3492 26.3931 21.0951 26.3647 21.3548C26.3362 21.6146 26.1143 21.2161 25.8912 21.0429C25.6692 20.8698 25.4943 20.5568 25.3849 20.609C25.2756 20.6611 24.883 21.5801 24.8491 21.6667C24.8152 21.7533 24.9409 21.7355 25.1083 21.5013C25.2756 21.2671 25.4636 21.0074 25.5664 21.0074C25.6692 21.0074 26.3778 21.9964 26.3647 22.2217C26.3516 22.447 26.2466 22.6557 26.1591 22.7078C26.0716 22.76 26.1985 22.4492 25.994 22.084C25.7895 21.7189 25.6014 21.3371 25.515 21.3892C25.4297 21.4414 25.0361 22.0652 24.9683 22.2217C24.9005 22.3782 25.4122 21.8576 25.6003 21.9442C25.7884 22.0308 26.064 23.0175 26.0716 23.3316C26.0721 23.4469 26.0479 23.5608 26.0007 23.6657C25.9535 23.7705 25.8844 23.8637 25.7982 23.9387C25.7031 24.0253 25.7392 23.6268 25.7982 23.4359C25.8573 23.245 25.7206 23.002 25.6692 22.7078C25.6178 22.4126 25.5664 22.1351 25.515 22.2217C25.4636 22.3083 24.6774 23.002 24.6096 23.0541C24.5418 23.1063 24.8557 23.0541 25.1083 22.9154C25.3608 22.7766 25.4975 22.7944 25.5325 23.0541C25.5664 23.3138 25.6178 24.1296 25.2253 24.355C24.8327 24.5803 25.2592 24.0775 25.3105 23.8344C25.3619 23.5913 25.328 23.0708 25.2253 23.1229C25.1225 23.1751 24.4051 23.7123 24.1832 23.7989C23.9612 23.8855 24.0804 24.4748 24.3023 24.8045C24.5243 25.1341 25.0087 25.4638 25.1083 25.1685C25.2078 24.8733 25.585 24.5614 25.7982 24.7179C26.0104 24.8744 25.9087 25.1685 25.9087 25.1685C25.9087 25.1685 26.1886 25.1685 26.1591 25.4804C26.1307 25.7923 25.737 26.1042 24.7802 25.9666C23.8234 25.8289 22.6271 25.446 22.696 23.7467C22.3373 22.255 22.6107 21.6134 22.6621 21.1972C22.7135 20.781 22.8677 20.1683 22.8163 20.1195C22.7649 20.0718 22.3723 20.1938 22.2006 20.4192ZM35.7993 20.4192C35.7993 20.4192 35.7141 20.1594 35.3718 19.9685C35.0295 19.7776 35.269 19.6222 35.491 19.6389C35.713 19.6566 35.8835 19.6733 36.123 20.2982C36.3625 20.922 37.2679 23.628 35.7983 25.0842C36.2258 24.8755 36.6184 24.0264 36.6184 24.0264C36.6184 24.0264 36.567 24.5991 36.2772 25.1707C37.1487 23.7833 37.0459 22.3094 36.9092 21.1994C36.7726 20.0895 36.4478 19.3781 35.9524 19.3436C35.5424 18.7199 34.7911 19.0429 34.2269 19.5401C33.6627 20.0373 33.3893 20.5057 33.3893 20.5057C33.3893 20.5057 33.3149 19.5867 32.8907 19.6733C32.4664 19.7599 31.8518 20.0718 31.7665 20.2971C31.6812 20.5224 32.2958 20.3492 32.4161 20.2105C32.5353 20.0718 32.7682 19.9153 32.8907 20.054C33.0131 20.1927 33.0995 20.8176 33.0995 20.8176C33.0995 20.8176 32.7966 20.2449 32.6151 20.2971C32.4336 20.3492 31.6069 21.0951 31.6364 21.3548C31.6648 21.6146 31.8868 21.2161 32.1099 21.0429C32.3319 20.8698 32.5068 20.5568 32.6162 20.609C32.7255 20.6611 33.1181 21.5801 33.152 21.6667C33.1859 21.7533 33.0601 21.7355 32.8928 21.5013C32.7255 21.2671 32.5375 21.0074 32.4347 21.0074C32.3319 21.0074 31.6233 21.9964 31.6353 22.2217C31.6484 22.447 31.7534 22.6557 31.842 22.7078C31.9295 22.76 31.8026 22.4492 32.0071 22.084C32.2116 21.7189 32.3997 21.3371 32.4861 21.3892C32.5714 21.4414 32.965 22.0652 33.0328 22.2217C33.1006 22.3782 32.5888 21.8576 32.4008 21.9442C32.2127 22.0308 31.9371 23.0175 31.9295 23.3316C31.929 23.4469 31.9532 23.5608 32.0004 23.6657C32.0476 23.7705 32.1167 23.8637 32.2028 23.9387C32.298 24.0253 32.2619 23.6268 32.2028 23.4359C32.1438 23.245 32.2805 23.002 32.3319 22.7078C32.3833 22.4126 32.4347 22.1351 32.4861 22.2217C32.5375 22.3083 33.3237 23.002 33.3915 23.0541C33.4593 23.1063 33.1454 23.0541 32.8928 22.9154C32.6402 22.7766 32.5036 22.7944 32.4686 23.0541C32.4347 23.3138 32.3833 24.1296 32.7758 24.355C33.1684 24.5803 32.7419 24.0775 32.6905 23.8344C32.6391 23.5913 32.673 23.0708 32.7758 23.1229C32.8786 23.1751 33.596 23.7123 33.8179 23.7989C34.0399 23.8855 33.9207 24.4748 33.6987 24.8045C33.4768 25.1341 32.9923 25.4638 32.8928 25.1685C32.7933 24.8733 32.415 24.5614 32.2028 24.7179C31.9907 24.8744 32.0924 25.1685 32.0924 25.1685C32.0924 25.1685 31.8125 25.1685 31.842 25.4804C31.8704 25.7923 32.2641 26.1042 33.2209 25.9666C34.1777 25.8278 35.374 25.446 35.3051 23.7467C35.6638 22.255 35.3904 21.6134 35.339 21.1972C35.2876 20.781 35.1334 20.1683 35.1848 20.1195C35.2351 20.0718 35.6288 20.1938 35.7993 20.4192Z"
        fill="#D8AB6D"
    />
    <path
        d="M33.4998 26.7771C33.4998 26.7771 32.9198 26.1456 32.3579 26.5267C31.7959 26.9077 30.1722 28.2558 28.7378 28.2558C27.3035 28.2558 25.6786 26.9077 25.1178 26.5267C24.5559 26.1456 23.9759 26.7771 23.9759 26.7771C23.9759 26.7771 24.2563 26.9077 24.2012 27.1893C24.1448 27.4697 24.2012 27.9574 24.5043 28.0581C24.152 27.1845 25.3803 27.6207 25.8812 28.1348C26.382 28.65 27.7025 29.2671 28.739 29.2671C29.7756 29.2671 31.0961 28.6488 31.5969 28.1348C32.0978 27.6195 33.3261 27.1845 32.9738 28.0581C33.2769 27.9574 33.3332 27.4709 33.2769 27.1893C33.2194 26.9077 33.4998 26.7771 33.4998 26.7771Z"
        fill="#FBFAE7"
    />
    <path
        d="M27.4705 14.1389C27.6247 14.0876 27.936 14.5171 27.936 14.5171C28.6539 14.3538 29.3877 14.3569 30.1049 14.5266C30.1049 14.5266 30.3889 14.0921 30.5296 14.1389V15.6642C29.5253 15.3304 28.4747 15.3304 27.4705 15.6642V14.1389Z"
        fill="#D8AB6D"
    />
</svg>
