<svg xmlns="http://www.w3.org/2000/svg" width="40" height="40" viewBox="0 0 40 40" fill="none">
    <rect width="40" height="40" fill="#496E2D" />
    <path
        d="M29.2516 15.0858C30.2356 12.3431 29.1302 9.36026 26.7577 7.87463C27.1845 7.93018 27.6116 8.03065 28.0332 8.18182C31.1975 9.31713 32.8423 12.8024 31.707 15.9667C30.5717 19.1311 27.0864 20.7758 23.9221 19.6405C23.5005 19.4892 23.1068 19.2951 22.7422 19.0667C25.518 19.4282 28.2677 17.8285 29.2516 15.0858Z"
        fill="#F0F0F0"
    />
    <path
        d="M23.794 7.1228L22.9389 8.22765L21.6242 7.75585L22.4106 8.91038L21.5557 10.0151L22.8967 9.62397L23.6832 10.7783L23.7254 9.3821L25.0665 8.99093L23.7518 8.51929L23.794 7.1228Z"
        fill="#F0F0F0"
    />
    <path
        d="M26.1028 10.7228L25.2477 11.8275L23.9329 11.3557L24.7194 12.5103L23.8644 13.615L25.2054 13.2237L25.992 14.3783L26.0343 12.982L27.3753 12.5907L26.0605 12.119L26.1028 10.7228Z"
        fill="#F0F0F0"
    />
    <path
        d="M19.7234 8.43384L18.8683 9.53853L17.5536 9.06688L18.34 10.2213L17.485 11.3261L18.826 10.9349L19.6125 12.0894L19.6549 10.6931L20.9959 10.302L19.6811 9.83017L19.7234 8.43384Z"
        fill="#F0F0F0"
    />
    <path
        d="M19.6297 12.5575L18.7747 13.6623L17.4598 13.1905L18.2464 14.3451L17.3912 15.4498L18.7324 15.0587L19.5189 16.213L19.5612 14.8168L20.9023 14.4256L19.5873 13.9538L19.6297 12.5575Z"
        fill="#F0F0F0"
    />
    <path
        d="M23.5536 13.9653L22.6985 15.07L21.3837 14.5983L22.1703 15.7528L21.3151 16.8574L22.6563 16.4663L23.4428 17.6209L23.485 16.2245L24.8261 15.8334L23.5112 15.3617L23.5536 13.9653Z"
        fill="#F0F0F0"
    />
    <path d="M5.21741 0V40H15.6522V0H5.21741Z" fill="#D80027" />
    <path
        d="M9.19947 10.53L7.45251 9.22863V7.38824L9.19947 6.08691H11.6702L13.4171 7.38824V9.22863L11.6702 10.53H9.19947Z"
        fill="#F0F0F0"
    />
    <path d="M10.4349 6.08691H9.19947L7.45251 7.38824V8.28801H10.4349V6.08691Z" fill="#FF9811" />
    <path d="M10.4349 10.53H11.6702L13.4171 9.22862V8.28979H10.4349V10.53Z" fill="#FF9811" />
    <path
        d="M9.19947 33.9129L7.45251 32.6114V30.7711L9.19947 29.4697H11.6702L13.4171 30.7711V32.6114L11.6702 33.9129H9.19947Z"
        fill="#F0F0F0"
    />
    <path d="M10.4349 29.4697H9.19947L7.45251 30.7711V31.6709H10.4349V29.4697Z" fill="#FF9811" />
    <path d="M10.4349 33.9129H11.6702L13.4171 32.6115V31.6727H10.4349V33.9129Z" fill="#FF9811" />
    <path
        d="M9.19947 22.2213L7.45251 20.9199V19.0796L9.19947 17.7782H11.6702L13.4171 19.0796V20.9199L11.6702 22.2213H9.19947Z"
        fill="#496E2D"
    />
    <path
        d="M13.4783 25.0846H12.7174V24.3238H11.3802L10.4348 23.3783L9.48939 24.3238H8.15228V25.0846H7.39142V26.6063H8.15228V27.3672H9.48931L10.4349 28.3127L11.3802 27.3672H12.7174V26.6063H13.4783V25.0846Z"
        fill="#496E2D"
    />
    <path
        d="M13.4783 13.3932H12.7174V12.6322H11.3802L10.4348 11.6868L9.48939 12.6322H8.15228V13.3932H7.39142V14.9149H8.15228V15.6758H9.48931L10.4349 16.6214L11.3802 15.6758H12.7174V14.9149H13.4783V13.3932Z"
        fill="#496E2D"
    />
    <rect x="9.56512" y="19.1304" width="1.73914" height="1.73914" fill="#D80027" />
    <path
        d="M10.4347 15.0234C10.9149 15.0234 11.3042 14.6341 11.3042 14.1538C11.3042 13.6736 10.9149 13.2843 10.4347 13.2843C9.95443 13.2843 9.56512 13.6736 9.56512 14.1538C9.56512 14.6341 9.95443 15.0234 10.4347 15.0234Z"
        fill="#D80027"
    />
    <path
        d="M10.4347 26.7155C10.9149 26.7155 11.3042 26.3262 11.3042 25.846C11.3042 25.3657 10.9149 24.9764 10.4347 24.9764C9.95443 24.9764 9.56512 25.3657 9.56512 25.846C9.56512 26.3262 9.95443 26.7155 10.4347 26.7155Z"
        fill="#D80027"
    />
</svg>
