<svg xmlns="http://www.w3.org/2000/svg" width="40" height="40" viewBox="0 0 40 40" fill="none">
    <rect width="40" height="40" fill="#D80027" />
    <path
        d="M19.1811 16.3427L20.8221 18.604L23.4797 17.7423L21.8361 20.0016L23.4769 22.2629L20.8202 21.3979L19.1767 23.6573L19.1784 20.8634L16.5217 19.9984L19.1794 19.1367L19.1811 16.3427Z"
        fill="#F0F0F0"
    />
    <path
        d="M14.7027 25.6522C11.5811 25.6522 9.05047 23.1216 9.05047 20C9.05047 16.8785 11.5811 14.3478 14.7027 14.3478C15.6759 14.3478 16.5917 14.594 17.3912 15.0272C16.137 13.8005 14.4216 13.0435 12.5287 13.0435C8.68672 13.0435 5.57227 16.158 5.57227 19.9999C5.57227 23.8419 8.6868 26.9564 12.5287 26.9564C14.4217 26.9564 16.137 26.1993 17.3912 24.9727C16.5917 25.406 15.6759 25.6522 14.7027 25.6522Z"
        fill="#F0F0F0"
    />
</svg>
