<svg xmlns="http://www.w3.org/2000/svg" width="40" height="40" viewBox="0 0 40 40" fill="none">
    <rect width="40" height="40" fill="#338AF3" />
    <rect width="20" height="20" fill="#0052B4" />
    <path
        d="M19.95 20.0575H20.0185C20.0185 20.0345 20.0185 20.0121 20.0185 19.989C19.9957 20.0119 19.9729 20.0347 19.95 20.0575Z"
        fill="#F0F0F0"
    />
    <path
        d="M21.8286 33.0571L22.2603 34.3831H23.6573L22.5272 35.2026L22.9589 36.5286L21.8286 35.7091L20.6985 36.5286L21.1302 35.2026L20 34.3831H21.3969L21.8286 33.0571Z"
        fill="#FFDA44"
    />
    <path
        d="M32.954 24.3784L33.3857 25.7044H34.7826L33.6526 26.524L34.0844 27.8499L32.954 27.0305L31.824 27.8499L32.2557 26.524L31.1254 25.7044H32.5223L32.954 24.3784Z"
        fill="#FFDA44"
    />
    <path
        d="M35.7417 11.3604L36.1734 12.6864H37.5704L36.4403 13.5058L36.8719 14.8318L35.7417 14.0124L34.6116 14.8318L35.0433 13.5058L33.9131 12.6864H35.31L35.7417 11.3604Z"
        fill="#FFDA44"
    />
    <path
        d="M36.4323 20.9069L36.864 22.2329H38.2609L37.1308 23.0524L37.5625 24.3784L36.4323 23.5589L35.3022 24.3784L35.734 23.0524L34.6036 22.2329H36.0006L36.4323 20.9069Z"
        fill="#FFDA44"
    />
    <path
        d="M23.8317 29.9383L25.0766 30.5714L26.0644 29.5856L25.8459 30.9625L27.0905 31.5955L25.7107 31.8136L25.4922 33.1907L24.8581 31.9484L23.4783 32.1666L24.466 31.1808L23.8317 29.9383Z"
        fill="#FFDA44"
    />
    <path
        d="M23.8317 24.7312L25.0766 25.3642L26.0644 24.3784L25.8459 25.7554L27.0905 26.3883L25.7107 26.6065L25.4922 27.9836L24.8581 26.7413L23.4783 26.9595L24.466 25.9737L23.8317 24.7312Z"
        fill="#FFDA44"
    />
    <path
        d="M28.1795 28.0689L29.4244 28.702L30.4121 27.7162L30.1937 29.0931L31.4383 29.7261L30.0585 29.9443L29.84 31.3213L29.2059 30.0789L27.826 30.2972L28.8138 29.3114L28.1795 28.0689Z"
        fill="#FFDA44"
    />
    <path
        d="M28.1795 16.9203L29.4244 17.5533L30.4121 16.5675L30.1937 17.9445L31.4383 18.5774L30.0585 18.7956L29.84 20.1727L29.2059 18.9304L27.826 19.1486L28.8138 18.1627L28.1795 16.9203Z"
        fill="#FFDA44"
    />
    <path
        d="M32.3934 16.7867L33.6383 17.4196L34.626 16.4338L34.4075 17.8108L35.6522 18.4437L34.2723 18.6619L34.0538 20.039L33.4198 18.7967L32.0399 19.0149L33.0277 18.0291L32.3934 16.7867Z"
        fill="#FFDA44"
    />
    <path fill-rule="evenodd" clip-rule="evenodd" d="M0 0H8H16H20V3V8L13 8L20 15V20H17L10 13V20H0V0Z" fill="#F0F0F0" />
    <path
        fill-rule="evenodd"
        clip-rule="evenodd"
        d="M8 0H3V3H0V8H3V20H8V8H20V3H8V0ZM20 16.5845L12.8943 9.49268C12.8943 9.49268 10.4348 9.49283 10.4348 9.49268V9.49283L19.9999 19.0392H20V16.5845Z"
        fill="#D80027"
    />
</svg>
