<svg xmlns="http://www.w3.org/2000/svg" width="40" height="40" viewBox="0 0 40 40" fill="none">
    <rect width="40" height="6.66667" fill="#3D3D3D" />
    <rect y="6.66663" width="40" height="6.66667" fill="#FFDA44" />
    <rect y="13.3334" width="40" height="6.66667" fill="#D80027" />
    <rect y="20" width="40" height="6.66667" fill="#3D3D3D" />
    <rect y="26.6666" width="40" height="6.66667" fill="#FFDA44" />
    <rect y="33.3334" width="40" height="6.66667" fill="#D80027" />
    <path
        d="M26.6667 20C26.6667 23.6819 23.6819 26.6667 20 26.6667C16.3181 26.6667 13.3333 23.6819 13.3333 20C13.3333 16.3181 16.3181 13.3334 20 13.3334C23.6819 13.3334 26.6667 16.3181 26.6667 20Z"
        fill="#F0F0F0"
    />
    <path
        d="M22.5796 20.57L19.9954 19.554L20.6297 17.5967C20.6532 17.4898 20.6649 17.4149 20.6649 17.308C20.6649 16.9657 20.5122 16.6449 20.2655 16.4203L20.9116 15.832C20.5005 15.4577 19.9249 15.2224 19.2906 15.2224C18.6563 15.2224 18.0807 15.4577 17.6696 15.832L18.3156 16.4203C18.0807 16.6342 17.9162 16.955 17.9162 17.308C17.9162 17.4363 17.9397 17.554 17.975 17.6716L17 18.5593H18.762C18.762 18.5593 18.0219 19.5647 17.6226 20.3775C17.2232 21.1903 17.6226 22.1957 18.5623 22.5914L19.1026 22.8053L19.9954 23.554V24.3882L19.0791 25.2224H20.9233V23.5433L21.7456 22.7946H23.4841L23.5076 22.7518C23.9187 21.8962 23.5076 20.9336 22.5678 20.5379L22.5796 20.57Z"
        fill="#3D3D3D"
    />
</svg>
