<svg xmlns="http://www.w3.org/2000/svg" width="40" height="40" viewBox="0 0 40 40" fill="none">
    <rect x="20" width="20" height="40" fill="#F0F0F0" />
    <rect width="20" height="40" transform="matrix(-1 0 0 1 20 0)" fill="#FFDA44" />
    <path
        fill-rule="evenodd"
        clip-rule="evenodd"
        d="M31.4173 22.3758L27.6586 17.4035L25.5756 18.9741L23.4781 16.1995L25.5594 14.6265L26.9467 13.5778L32.8046 21.3272C33.8289 21.0021 34.9904 21.3346 35.6752 22.2406C36.5441 23.3899 36.3166 25.0259 35.1673 25.8946C34.0179 26.7635 32.3819 26.536 31.5131 25.3867C30.8282 24.4806 30.8251 23.2725 31.4173 22.3758ZM34.2879 23.2891C33.9983 22.9061 33.4529 22.8302 33.0698 23.1199C32.6867 23.4094 32.6109 23.9548 32.9007 24.3379C33.1902 24.7211 33.7356 24.7967 34.1186 24.5073C34.5017 24.2176 34.5774 23.6722 34.2879 23.2891Z"
        fill="#ACABB1"
    />
    <path
        fill-rule="evenodd"
        clip-rule="evenodd"
        d="M36.203 16.1995L34.1055 18.9741L32.0226 17.4033L28.2639 22.3757C28.856 23.2724 28.8529 24.4805 28.168 25.3865C27.2993 26.5358 25.6633 26.7633 24.514 25.8945C23.3647 25.0258 23.1372 23.3898 24.0061 22.2404C24.6909 21.3345 25.8526 21.0019 26.8766 21.3271L32.7345 13.5776L34.1219 14.6264L36.203 16.1995ZM25.5627 24.5073C25.9458 24.7969 26.4912 24.7212 26.7807 24.3379C27.0703 23.9549 26.9946 23.4095 26.6116 23.1199C26.2283 22.8302 25.683 22.9062 25.3934 23.2891C25.1038 23.6722 25.1796 24.2176 25.5627 24.5073Z"
        fill="#FFDA44"
    />
</svg>
