<svg xmlns="http://www.w3.org/2000/svg" width="40" height="40" viewBox="0 0 40 40" fill="none">
    <rect width="40" height="11" fill="#FFDA44" />
    <rect y="29" width="40" height="11" fill="#D80027" />
    <rect y="11" width="40" height="18" fill="#0052B4" />
    <path
        d="M34.6381 23.926L33.5818 24.7515L34.0402 26.0109L32.9287 25.2615L31.8723 26.0868L32.2417 24.7981L31.1304 24.0484L32.4701 24.0017L32.8398 22.713L33.2984 23.9727L34.6381 23.926Z"
        fill="#F0F0F0"
    />
    <path
        d="M31.9329 19.2409L31.2227 20.3778L32.0845 21.4045L30.7836 21.0806L30.0731 22.2173L29.9795 20.88L28.6788 20.5556L29.9219 20.0533L29.8285 18.7159L30.6901 19.7431L31.9329 19.2409Z"
        fill="#F0F0F0"
    />
    <path
        d="M27.7886 15.7632L27.51 17.0745L28.671 17.7448L27.3378 17.8854L27.059 19.1963L26.5137 17.9718L25.1804 18.1117L26.1768 17.2147L25.6315 15.9901L26.7925 16.6603L27.7886 15.7632Z"
        fill="#F0F0F0"
    />
    <path
        d="M22.7049 13.9131L22.8917 15.2407L24.2118 15.4733L23.0069 16.0613L23.1936 17.3888L22.2623 16.4244L21.0572 17.0121L21.6867 15.8282L20.7554 14.864L22.0757 15.0968L22.7049 13.9131Z"
        fill="#F0F0F0"
    />
    <path
        d="M17.2951 13.9131L17.9246 15.0968L19.2446 14.8639L18.3136 15.8285L18.9427 17.0122L17.7379 16.4244L16.8065 17.3886L16.9933 16.0613L15.7883 15.4736L17.1086 15.2407L17.2951 13.9131Z"
        fill="#F0F0F0"
    />
    <path
        d="M12.2113 15.7632L13.2077 16.6603L14.3684 15.9901L13.8234 17.2151L14.8195 18.112L13.4863 17.9718L12.9409 19.1963L12.6625 17.8851L11.3292 17.7451L12.4902 17.0747L12.2113 15.7632Z"
        fill="#F0F0F0"
    />
    <path
        d="M8.06707 19.2409L9.31027 19.7431L10.1717 18.7162L10.0785 20.0538L11.3213 20.556L10.0206 20.8802L9.92691 22.2173L9.21675 21.0806L7.91589 21.4048L8.77761 20.3778L8.06707 19.2409Z"
        fill="#F0F0F0"
    />
    <path
        d="M5.36206 23.9259L6.70206 23.9727L7.16034 22.7131L7.53026 24.0019L8.86987 24.0487L7.75847 24.7984L8.12784 26.087L7.07159 25.2617L5.96011 26.0111L6.41862 24.7514L5.36206 23.9259Z"
        fill="#F0F0F0"
    />
</svg>
