<svg xmlns="http://www.w3.org/2000/svg" width="40" height="40" viewBox="0 0 40 40" fill="none">
    <rect width="40" height="40" fill="#F0F0F0" />
    <path
        d="M23.3968 13.9724C23.3968 12.0965 21.876 10.5757 20 10.5757C18.1239 10.5757 16.6032 12.0965 16.6032 13.9724H9.13043C9.13043 15.8194 10.7393 17.3168 12.5863 17.3168H12.475C12.475 19.1639 13.9722 20.6614 15.8195 20.6614C15.8195 22.2968 16.994 23.6557 18.5452 23.9462L18.5365 23.9657H21.4635L21.4548 23.9462C23.0061 23.6555 24.1805 22.2967 24.1805 20.6614C26.0277 20.6614 27.525 19.1639 27.525 17.3168H27.4136C29.2605 17.3168 30.8695 15.8194 30.8695 13.9724H23.3968Z"
        fill="#FFDA44"
    />
    <path
        d="M18.5067 23.6191L16.4006 28.3741C17.5119 28.8258 18.7265 29.0769 20 29.0769C21.2735 29.0769 22.4881 28.8259 23.5993 28.3741L21.4933 23.6191H18.5067Z"
        fill="#FFDA44"
    />
    <path
        d="M15.6522 15.6428V21.4937C15.6522 24.8217 20 25.8415 20 25.8415C20 25.8415 24.3478 24.8217 24.3478 21.4937V15.6428L15.6522 15.6428Z"
        fill="#F0F0F0"
    />
    <path
        d="M4.8499 20.1409L7.20138 26.7177L9.52841 20.1409H11.3043L7.91169 28.8365H6.49099L3.07404 20.1409H4.8499Z"
        fill="#338AF3"
    />
    <path d="M32.1738 28.8365V20.1409H33.8639V28.8365H32.1738Z" fill="#338AF3" />
    <path
        d="M17.3914 17.5322V24.6224C17.9891 25.0623 18.6322 25.3649 19.1305 25.5586V17.5322H17.3914Z"
        fill="#D80027"
    />
    <path
        d="M22.6086 17.5322V24.6224C22.0109 25.0623 21.3678 25.3649 20.8695 25.5586V17.5322H22.6086Z"
        fill="#D80027"
    />
    <rect x="15.6522" y="15.6426" width="8.69563" height="2.75906" fill="#0052B4" />
</svg>
