<svg xmlns="http://www.w3.org/2000/svg" width="40" height="40" viewBox="0 0 40 40" fill="none">
    <g clip-path="url(#clip0_28106_2533)">
        <rect y="7.62939e-05" width="40" height="20" fill="#D21034" />
        <rect y="20.0001" width="40" height="20" fill="#009543" />
        <path d="M-0.00012207 7.62939e-05L-7.13401e-05 40.0001L19.9999 20L-0.00012207 7.62939e-05Z" fill="black" />
        <path
            d="M39.9221 19.9611C39.9221 19.0786 39.8641 18.2097 39.7531 17.3575H17.3572C13.2792 13.2797 5.84612 5.84706 5.84643 5.84644C-1.94881 13.6417 -1.94881 26.2803 5.84643 34.0757L17.3575 22.5647H39.7531C39.8641 21.7124 39.9221 20.8435 39.9221 19.9611Z"
            fill="black"
        />
        <path
            d="M39.903 19.0859H16.6239L1.70453e-05 2.22217L1.21113e-05 4.51106L15.0371 19.9537L0 35.4888V37.7777L16.6241 20.8217H39.9058C39.9182 20.5338 39.9221 20.2447 39.9221 19.9539C39.922 19.5641 39.9113 19.2768 39.903 19.0859Z"
            fill="#FFDA44"
        />
        <path
            d="M4.84891 24.2162V22.5442C6.51737 22.5442 7.87464 21.1868 7.87464 19.5185C7.87464 18.338 6.91425 17.3777 5.7339 17.3777C4.92976 17.3777 4.27549 18.0319 4.27549 18.8362C4.27549 19.3504 4.69382 19.7688 5.20813 19.7688C5.49881 19.7688 5.7353 19.5322 5.7353 19.2415H7.40719C7.40719 20.4542 6.42068 21.4407 5.2082 21.4407C3.77202 21.4408 2.60376 20.2723 2.60376 18.8363C2.60376 17.1103 4.00805 15.7061 5.73397 15.7061C7.83627 15.7061 9.54668 17.4165 9.54668 19.5187C9.54661 22.1087 7.43924 24.2162 4.84891 24.2162Z"
            fill="#FFDA44"
        />
    </g>
    <defs>
        <clipPath id="clip0_28106_2533">
            <rect width="40" height="40" fill="white" />
        </clipPath>
    </defs>
</svg>
