<svg xmlns="http://www.w3.org/2000/svg" width="40" height="40" viewBox="0 0 40 40" fill="none">
    <rect width="40" height="40" fill="#D80027" />
    <rect width="20" height="20" fill="#0052B4" />
    <path
        d="M16.0199 13.0435L16.3437 14.0399H17.3913L16.5437 14.6556L16.8675 15.6521L16.0199 15.0363L15.1722 15.6521L15.496 14.6556L14.6484 14.0399H15.696L16.0199 13.0435Z"
        fill="#F0F0F0"
    />
    <path
        d="M10.7577 5.21741L11.2973 6.87827H13.0435L11.6307 7.90444L12.1705 9.56522L10.7577 8.53874L9.34494 9.56522L9.88463 7.90444L8.47189 6.87827H10.218L10.7577 5.21741Z"
        fill="#F0F0F0"
    />
    <path
        d="M15.9751 6.95642L16.5147 8.61736H18.2609L16.8481 9.64353L17.3877 11.3043L15.9751 10.2778L14.5623 11.3043L15.102 9.64353L13.6893 8.61736H15.4354L15.9751 6.95642Z"
        fill="#F0F0F0"
    />
    <path
        d="M11.851 13.9131L12.3907 15.5739H14.1368L12.7241 16.6001L13.2638 18.2609L11.851 17.2345L10.4383 18.2609L10.978 16.6001L9.56525 15.5739H11.3114L11.851 13.9131Z"
        fill="#F0F0F0"
    />
    <path
        d="M7.27939 9.56519L7.81907 11.226H9.56525L8.15243 12.2522L8.69212 13.913L7.27939 12.8866L5.86673 13.913L6.40634 12.2522L4.99368 11.226H6.73978L7.27939 9.56519Z"
        fill="#F0F0F0"
    />
</svg>
