<svg xmlns="http://www.w3.org/2000/svg" width="40" height="40" viewBox="0 0 40 40" fill="none">
    <path d="M0 0H40V40H0V0Z" fill="#244AA5" />
    <path
        d="M20.2379 14.2823C20.422 14.4958 20.5452 14.7091 20.5452 14.9685C20.3906 15.0444 20.1771 15.0755 20.0538 15.2127C20.8213 15.1057 20.9742 15.9898 21.8337 15.6543C21.8649 15.7768 21.9881 15.8836 22.141 15.8374L22.233 15.5939C22.5699 15.5025 22.4779 16.0511 22.8475 15.9442C23.0317 16.0968 22.9085 16.3557 23.0317 16.5393C23.0317 16.7524 23.1238 16.9353 23.2157 17.1182C23.3078 17.012 23.3686 16.8593 23.5839 16.9051C23.7368 17.0725 23.86 17.2251 23.8911 17.408C23.8287 17.759 23.7367 18.0636 24.1048 18.2464V18.3533C24.3513 18.4602 24.9035 18.2464 24.9035 18.6734C24.8722 18.8261 25.0564 18.6889 25.1188 18.7803C25.2717 18.7191 25.4869 18.7501 25.6709 18.7501C25.8238 19.0702 25.4869 19.2987 25.3948 19.5886C25.5477 19.7405 25.4869 20.0155 25.4557 20.1975L25.3636 20.2433C25.6085 20.289 25.9157 20.2139 26.1311 20.3511L26.5304 20.5029C26.7145 20.3968 26.9282 20.3805 27.1746 20.3968C27.3587 20.534 27.1122 20.7626 27.2667 20.8687C27.482 20.8687 27.6661 20.8998 27.6956 21.0827L27.7268 21.1431C27.8797 20.8687 28.3103 21.0515 28.4943 20.8541C28.8016 20.8541 28.8624 21.1888 29.0152 21.3717C29.0777 21.8452 28.4943 22.0591 28.6784 22.531C28.5551 22.7595 28.3103 22.9425 28.1262 23.1563C28.187 23.1873 28.1557 23.2625 28.1557 23.3082C27.9717 23.416 28.1262 23.736 27.8797 23.7655C27.8501 23.9646 27.482 23.8879 27.6036 24.1017C27.85 24.4218 27.482 24.6194 27.482 24.91C27.3275 25.0781 27.0202 24.7565 27.0202 25.0781C26.8361 25.1238 26.652 24.91 26.5304 25.0929C26.468 25.3068 26.652 25.3819 26.6225 25.5958C26.9282 25.5647 27.0202 25.8701 27.1435 26.053L27.4508 26.3583C27.1435 26.6016 26.7441 26.3272 26.3759 26.4644C26.2839 26.4187 26.3759 26.2978 26.2839 26.2521C26.1918 26.1443 26.0078 26.1443 25.855 26.1149C25.8845 26.2521 25.6085 26.2978 25.7317 26.4643C25.7317 26.51 25.7925 26.6472 25.6709 26.6472C25.4244 26.724 25.4556 26.435 25.2403 26.5411C24.9642 26.6472 25.1795 27.0587 24.7802 27.0129C24.841 27.3804 24.1672 27.6237 24.6273 27.9437C24.6881 28.0042 24.6569 28.1266 24.6569 28.218C24.3807 28.4629 23.8909 28.3715 23.5837 28.28C23.3372 28.218 23.4917 27.9127 23.3997 27.7461C23.3076 27.5927 23.0315 27.4865 23.0315 27.2726C22.8473 27.1974 22.693 27.1503 22.5697 26.9983C22.1408 27.4098 21.6184 27.8065 21.0052 27.8212C20.7291 27.9584 20.5747 28.5087 20.1457 28.28C19.9773 28.5544 19.4703 28.28 19.4398 28.6752C19.2402 28.7519 19.3322 29.0115 19.2098 29.1324C19.1638 29.4377 19.2098 29.6973 19.4703 29.8802C19.5779 30.1088 19.2402 30.1088 19.3782 30.3227C19.4095 30.3979 19.3782 30.5056 19.3322 30.5366C19.2402 30.5823 19.2098 30.6281 19.2402 30.7195C19.1638 30.7195 19.1326 30.7652 19.0717 30.8256C18.9945 30.9775 18.7496 31.0542 18.5803 31.1603C18.4119 31.206 18.2886 31.0852 18.1818 30.9775C18.1505 31.1456 18.0126 31.2371 17.8441 31.2371C17.5984 31.2371 17.6444 31.0232 17.4603 30.9318C17.5368 30.6574 17.2911 30.5366 17.3683 30.2917C17.5679 30.1398 17.9049 30.0321 17.8128 29.7121C17.5984 29.454 17.6748 29.072 17.4603 28.7667C17.3223 28.6458 17.0922 28.463 17.1686 28.1723C17.3683 27.9438 17.1686 27.6694 17.061 27.4261C17.015 27.227 16.8926 27.0441 16.8926 26.8155C16.5548 26.6179 16.5392 26.0987 16.0635 26.053C15.7258 26.053 15.6649 25.6268 15.3272 25.6562C15.296 25.5958 15.2196 25.5501 15.158 25.4896C14.9131 25.6562 14.6058 25.4439 14.2993 25.519C14.0996 25.1843 14.4677 24.7271 13.9304 24.5279V24.3156C13.992 24.345 14.0224 24.2845 14.038 24.2536C14.0684 24.025 13.6542 23.9956 13.8235 23.7359C13.7315 23.6592 13.6239 23.6281 13.6855 23.4763C13.4546 23.0044 12.7644 23.0502 12.6107 22.5767C12.734 22.4706 12.734 22.3628 12.78 22.2714C12.6723 22.0885 12.642 21.8909 12.6723 21.6933C12.78 21.6623 12.8408 21.5252 12.9024 21.4174C12.7644 21.326 12.5959 21.1888 12.4422 21.2345C12.1662 21.1888 11.9664 20.9765 11.7208 20.8541C11.6592 20.7936 11.6904 20.6859 11.6904 20.6108C12.0281 20.503 11.6444 20.0303 12.0585 20.0916C12.1662 19.9544 12.3962 19.9087 12.5648 19.8017C12.734 19.7716 12.872 19.8327 13.0405 19.8785C13.1785 20.0606 13.4243 19.9846 13.5622 20.1373C13.7003 20.1063 13.8696 20.0303 14.038 20.1063C14.038 19.8474 14.1605 19.6948 14.3453 19.5119C14.3757 19.4057 14.5442 19.329 14.6822 19.2686C14.9436 19.329 15.2501 19.329 15.435 19.1461C15.5574 19.2228 15.665 19.0702 15.8031 19.0702C15.9715 19.0392 16.1096 19.0849 16.2328 19.1616C16.2476 18.8563 16.785 19.1159 16.8927 18.7501C17.0151 18.506 16.555 18.4146 16.5853 18.2007C16.5089 17.9566 16.693 17.835 16.785 17.6676C16.8926 17.6218 17.0151 17.5607 17.1531 17.5908C17.5064 17.4692 17.2303 16.7524 17.7982 17.012C17.7982 17.088 17.7669 17.1794 17.8129 17.1949C18.0126 17.1949 18.0433 16.9661 18.1819 16.8896C18.2427 16.6765 18.1047 16.4169 18.2887 16.2495C18.3808 16.234 18.458 16.2038 18.5188 16.1271C18.5188 15.9597 18.4268 15.8683 18.2887 15.7613C18.2427 15.8375 18.1203 15.7768 18.0433 15.8071C18.0433 15.6242 17.9362 15.5025 17.905 15.3343C17.8129 15.2886 17.7669 15.2127 17.7982 15.1057C17.9362 14.9686 17.7982 14.6331 18.1203 14.7091C18.2427 14.6028 18.458 14.6788 18.5805 14.4959C18.9026 14.313 19.3323 14.313 19.578 13.9775C19.6856 13.993 19.8081 13.886 19.9157 13.9775C19.9462 14.1758 20.2379 14.099 20.2379 14.2823Z"
        fill="#D0A650"
    />
    <path
        d="M22.6138 10.1483L22.1895 8.85242L21.7705 10.1483H20.3981L21.5085 10.9497L21.0843 12.2456L22.1895 11.4442L23.3 12.2456L22.8757 10.9497L23.9862 10.1483H22.6138Z"
        fill="white"
    />
    <path
        d="M26.9301 10.9028L26.5058 9.61218L26.0867 10.9028H24.7144L25.8248 11.7043L25.4005 13.0002L26.5058 12.1987L27.6163 13.0002L27.192 11.7043L28.3025 10.9028H26.9301Z"
        fill="white"
    />
    <path
        d="M31.0471 12.3913L30.6281 11.1006L30.2038 12.3913H28.8314L29.9419 13.1927L29.5176 14.4886L30.6281 13.6871L31.7333 14.4886L31.309 13.1927L32.4195 12.3913H31.0471Z"
        fill="white"
    />
    <path
        d="M18.2295 10.1483L17.8105 8.85242L17.3862 10.1483H16.0138L17.1243 10.9497L16.7 12.2456L17.8105 11.4442L18.9157 12.2456L18.4914 10.9497L19.6019 10.1483H18.2295Z"
        fill="white"
    />
    <path
        d="M13.9133 10.9028L13.4943 9.61218L13.07 10.9028H11.6976L12.8081 11.7043L12.3838 13.0002L13.4943 12.1987L14.5995 13.0002L14.1753 11.7043L15.2857 10.9028H13.9133Z"
        fill="white"
    />
    <path
        d="M9.79616 12.3913L9.37187 11.1006L8.95283 12.3913H7.58044L8.69092 13.1927L8.26664 14.4886L9.37187 13.6871L10.4823 14.4886L10.0581 13.1927L11.1685 12.3913H9.79616Z"
        fill="white"
    />
</svg>
