<svg xmlns="http://www.w3.org/2000/svg" width="40" height="40" viewBox="0 0 40 40" fill="none">
    <rect width="40" height="40" fill="#496E2D" />
    <rect x="22" y="20" width="6" height="20" fill="#D80027" />
    <rect width="6" height="20" transform="matrix(-1 0 0 1 34 20)" fill="black" />
    <rect x="34" y="20" width="6" height="20" fill="#FF9811" />
    <path
        d="M36.9565 13.0435H31.739C31.739 12.083 30.9604 11.3043 29.9999 11.3043C29.0394 11.3043 28.2608 12.083 28.2608 13.0435H23.0433C23.0433 14.004 23.88 14.7826 24.8404 14.7826H24.7825C24.7825 15.7431 25.561 16.5217 26.5216 16.5217C26.5216 17.4823 27.3001 18.2609 28.2608 18.2609H31.739C32.6995 18.2609 33.4782 17.4823 33.4782 16.5217C34.4386 16.5217 35.2173 15.7431 35.2173 14.7826H35.1594C36.1199 14.7825 36.9565 14.0039 36.9565 13.0435Z"
        fill="#FF9811"
    />
</svg>
