<svg xmlns="http://www.w3.org/2000/svg" width="40" height="40" viewBox="0 0 40 40" fill="none">
    <rect x="6.10351e-05" y="13.3332" width="39.9999" height="13.3333" fill="#F0F0F0" />
    <rect x="6.10351e-05" width="39.9999" height="5.55555" fill="#6DA544" />
    <rect x="6.10351e-05" y="5.55553" width="39.9999" height="5.55555" fill="#FFDA44" />
    <rect x="6.10351e-05" y="11.1111" width="39.9999" height="5.55555" fill="#D80027" />
    <rect x="6.10351e-05" y="16.6666" width="39.9999" height="6.66666" fill="#3D3D3D" />
    <rect x="6.10351e-05" y="23.3332" width="39.9999" height="5.55555" fill="#D80027" />
    <rect x="6.10351e-05" y="34.4444" width="39.9999" height="5.55555" fill="#6DA544" />
    <rect x="6.10351e-05" y="28.8887" width="39.9999" height="5.55555" fill="#FFDA44" />
    <path d="M0 0L5.07301e-05 39.9999L20 19.9999L0 0Z" fill="#F0F0F0" />
    <path d="M2.22228 0H6.10351e-05L19.4595 20L6.10351e-05 39.9999H2.22228L21.8379 20L2.22228 0Z" fill="#3D3D3D" />
    <path
        d="M7.8271 14.7778L9.09196 18.7778H13.1676L9.85953 21.2222L11.1244 25.2222L7.8271 22.7556L4.54062 25.2222L5.80548 21.2222L2.48657 18.7778H6.56224L7.8271 14.7778Z"
        fill="#D80027"
    />
    <path
        d="M11.2865 20.3333L8.00004 19.1333L7.74058 16.711C7.63248 16.111 7.11356 15.6555 6.49734 15.6555C5.79464 15.6555 5.23248 16.2444 5.23248 16.9555C5.23248 17.0666 5.2541 17.1777 5.27572 17.2888L4.3568 18.2444H5.97842C5.97842 19.9888 4.71356 19.9888 4.71356 21.7333L5.41626 23.4777H9.63247L10.3352 21.7333C10.4108 21.5666 10.4433 21.3999 10.4649 21.2222C11.0703 20.9666 11.2541 20.3333 11.2541 20.3333H11.2865Z"
        fill="#FFDA44"
    />
</svg>
