<svg xmlns="http://www.w3.org/2000/svg" viewBox="0 0 64 64" width="64px" height="64px"><linearGradient
        id="z3Csneif8Y165Giu6z2_4a"
        x1="38"
        x2="38"
        y1="4.583"
        y2="58.763"
        gradientUnits="userSpaceOnUse"
        spreadMethod="reflect"
    ><stop offset="0" stop-color="currentColor" /><stop offset="1" stop-color="currentColor" /></linearGradient><path
        fill="url(#z3Csneif8Y165Giu6z2_4a)"
        d="M41.932,6.399c-0.325,2.351-1.705,4.259-2.401,5.092c-1.372,1.648-3.435,2.871-5.478,3.321 c0.248-1.897,1.343-3.757,2.477-5.043C37.853,8.275,39.917,7.019,41.932,6.399 M43.891,4c-3.104,0.199-6.737,2.048-8.858,4.442 c-1.923,2.181-3.518,5.42-2.897,8.554C32.222,16.999,32.308,17,32.395,17c3.308,0,6.689-1.847,8.673-4.229 C42.972,10.493,44.416,7.276,43.891,4L43.891,4z"
    /><linearGradient
        id="z3Csneif8Y165Giu6z2_4b"
        x1="32.425"
        x2="32.425"
        y1="4.583"
        y2="58.763"
        gradientUnits="userSpaceOnUse"
        spreadMethod="reflect"
    ><stop offset="0" stop-color="currentColor" /><stop offset="1" stop-color="currentColor" /></linearGradient><path
        fill="url(#z3Csneif8Y165Giu6z2_4b)"
        d="M44.168,21.004c2.444,0,4.982,1.019,7.105,2.799C47.968,26.326,46,30.228,46,34.5 c0,5.074,2.827,9.639,7.216,11.943c-0.705,1.496-1.523,2.929-2.441,4.276c-1.99,2.91-4.663,6.253-7.702,6.278l-0.079,0 c-1.234,0-2.044-0.312-3.167-0.744c-1.435-0.552-3.221-1.239-6.172-1.254l-0.169,0.003L33.325,55 c-2.932,0.014-4.718,0.702-6.152,1.254c-1.122,0.432-1.933,0.744-3.167,0.744l-0.084,0c-3.034-0.025-5.707-3.368-7.695-6.276 c-6.304-9.252-6.31-19.274-3.113-24.009c2.335-3.467,6.15-5.708,9.72-5.708c1.919,0,3.48,0.477,5.134,0.982 C29.598,22.485,31.286,23,33.25,23h0.25h0.25c1.964,0,3.652-0.515,5.284-1.014C40.687,21.481,42.249,21.004,44.168,21.004 M44.168,19.004C39.935,19.004,37.248,21,33.75,21c-0.094,0-0.25,0-0.25,0s-0.156,0-0.25,0c-3.498,0-6.185-1.996-10.418-1.996 c-4.155,0-8.582,2.438-11.378,6.591c-3.954,5.856-3.28,16.86,3.12,26.252c2.287,3.345,5.344,7.117,9.332,7.149 c0.034,0,0.067,0.001,0.1,0.001c3.474,0,4.56-1.974,9.329-1.997c0.003,0,0.007,0,0.01,0c0.054,0,0.102,0.003,0.155,0.003 c0.053,0,0.101-0.003,0.155-0.003c0.003,0,0.007,0,0.01,0c4.769,0.023,5.856,1.997,9.329,1.997c0.033,0,0.067,0,0.1-0.001 c3.988-0.033,7.045-3.804,9.332-7.149c1.427-2.094,2.554-4.269,3.424-6.449C51.29,43.872,48,39.574,48,34.5 c0-4.544,2.642-8.46,6.467-10.328C51.686,20.892,47.822,19.004,44.168,19.004L44.168,19.004z"
    /><linearGradient
        id="z3Csneif8Y165Giu6z2_4c"
        x1="19.378"
        x2="19.378"
        y1="26.035"
        y2="51.961"
        gradientUnits="userSpaceOnUse"
        spreadMethod="reflect"
    ><stop offset="0" stop-color="currentColor" /><stop offset="1" stop-color="currentColor" /></linearGradient><path
        fill="url(#z3Csneif8Y165Giu6z2_4c)"
        d="M22.352,51.961c-0.88-0.867-1.829-2.042-2.82-3.491C16.652,44.242,15,39.333,15,35 c0-3.518,1.65-6.702,4.647-8.965l1.205,1.596C18.368,29.507,17,32.124,17,35c0,3.941,1.525,8.439,4.185,12.343 c0.917,1.342,1.783,2.417,2.571,3.194L22.352,51.961z"
    /></svg>
