<svg xmlns="http://www.w3.org/2000/svg" width="24" focusable="false" height="24"><g id="tuiIconToolbarUndo" xmlns="http://www.w3.org/2000/svg" transform="translate(-12,-12)"><svg x="50%" y="50%"><svg xmlns="http://www.w3.org/2000/svg" width="24" height="24" viewBox="0 0 24 24">
    <path fill="currentColor" d="M2.323 11.204l7.022 5.668a.278.278 0 0 0 .348.002.31.31 0 0 0 .094-.35L8.375 12.77c5.518-.149 8.034.659 11.337 6.226-.902-4.806-2.695-9.2-11.337-9.835l1.412-3.753a.31.31 0 0 0-.095-.35.275.275 0 0 0-.347 0l-7.022 5.67a.306.306 0 0 0-.111.237c0 .094.04.182.111.239z"/>
</svg>
</svg></g></svg>
