<svg xmlns="http://www.w3.org/2000/svg" width="24" focusable="false" height="24"><g id="tuiIconToolbarImg" xmlns="http://www.w3.org/2000/svg" transform="translate(-12,-12)"><svg x="50%" y="50%"><svg xmlns="http://www.w3.org/2000/svg" width="24" height="24" viewBox="0 0 24 24">
    <path fill="currentColor" d="M4 2h16a2 2 0 0 1 2 2v16a2 2 0 0 1-2 2H4a2 2 0 0 1-2-2V4a2 2 0 0 1 2-2zm12 3a2 2 0 1 0 0 4 2 2 0 0 0 0-4zm3.998 13.703l-.027-3.019a1.372 1.372 0 0 0-.44-1.026l-2.688-2.392a1.018 1.018 0 0 0-1.372 0l-3.708 3.296c-.39.355-.98.355-1.371 0l-1.15-1.022a1.018 1.018 0 0 0-1.371 0l-3.43 3.043a1.372 1.372 0 0 0-.439 1.026v.094A1.222 1.222 0 0 0 5.134 20h13.718c.322-.017.624-.164.84-.407.214-.244.325-.564.306-.89z"/>
</svg>
</svg></g></svg>
