<svg xmlns="http://www.w3.org/2000/svg" width="24" focusable="false" height="24"><g id="tuiIconToolbarUnderline" xmlns="http://www.w3.org/2000/svg" transform="translate(-12,-12)"><svg x="50%" y="50%"><svg xmlns="http://www.w3.org/2000/svg" xmlns:xlink="http://www.w3.org/1999/xlink" width="24" height="24" viewBox="0 0 24 24">
    <path fill="currentColor" d="M14.13 17v-4.939a12.925 12.925 0 0 1-3.549.486c-1.46 0-2.588-.35-3.385-1.049C6.399 10.798 6 9.809 6 8.53V4h2.87v3.967c0 .767.226 1.352.68 1.752.452.401 1.107.602 1.963.602.923 0 1.795-.145 2.617-.435V4H17v13h-2.87zM6 19h13v2H6z"/>
</svg>
</svg></g></svg>
