<svg xmlns="http://www.w3.org/2000/svg" width="24" focusable="false" height="24"><g id="tuiIconToolbarAttach" xmlns="http://www.w3.org/2000/svg" transform="translate(-12,-12)"><svg x="50%" y="50%"><svg xmlns="http://www.w3.org/2000/svg" width="24" height="24" viewBox="0 0 24 24">
    <path fill="currentColor" d="M20.316 10.71a1 1 0 0 1 1.372 1.456l-8.51 8.026c-2.556 2.41-6.678 2.41-9.234 0-2.59-2.442-2.59-6.428 0-8.87l8.51-8.026c1.832-1.728 4.78-1.728 6.613 0a4.356 4.356 0 0 1 0 6.399l-8.52 8.025a2.933 2.933 0 0 1-3.992 0 2.678 2.678 0 0 1 0-3.927l7.862-7.406a1 1 0 1 1 1.372 1.456L7.927 15.25a.679.679 0 0 0 0 1.016c.339.32.91.32 1.25 0l8.518-8.026c1.029-.97 1.029-2.517 0-3.488-1.062-1.001-2.807-1.001-3.869 0l-8.51 8.026c-1.752 1.653-1.752 4.307 0 5.96 1.786 1.684 4.704 1.684 6.49 0l8.51-8.026z"/>
</svg>
</svg></g></svg>
