<svg xmlns="http://www.w3.org/2000/svg" width="24" focusable="false" height="24"><g id="tuiIconToolbarTransparent" xmlns="http://www.w3.org/2000/svg" transform="translate(-12,-12)"><svg x="50%" y="50%"><svg xmlns="http://www.w3.org/2000/svg" width="24" height="24" viewBox="0 0 24 24">
    <path fill="#666" fill-rule="nonzero" d="M19.73 5.655L5.655 19.73A9.959 9.959 0 0 0 12 22c5.523 0 10-4.477 10-10a9.959 9.959 0 0 0-2.27-6.345zm-1.417-1.411A9.959 9.959 0 0 0 12 2C6.477 2 2 6.477 2 12c0 2.394.841 4.591 2.244 6.313l14.069-14.07zM12 24C5.373 24 0 18.627 0 12S5.373 0 12 0s12 5.373 12 12-5.373 12-12 12z"/>
</svg>
</svg></g></svg>
