<svg xmlns="http://www.w3.org/2000/svg" width="24" focusable="false" height="24"><g id="tuiIconToolbarOL" xmlns="http://www.w3.org/2000/svg" transform="translate(-12,-12)"><svg x="50%" y="50%"><svg xmlns="http://www.w3.org/2000/svg" xmlns:xlink="http://www.w3.org/1999/xlink" width="24" height="24" viewBox="0 0 24 24">
    <path fill="currentColor" d="M8 5h12v2H8zM4.209 7.76V5.755h-.841v-.83c.311 0 .542-.05.692-.147.15-.097.243-.255.277-.474h1.031V7.76H4.209zM4.624 10.24c.288 0 .538.048.752.143.213.095.377.224.49.388.114.163.17.345.17.546 0 .267-.078.481-.237.643-.159.162-.388.3-.689.414-.183.07-.322.129-.415.177a.681.681 0 0 0-.193.133.288.288 0 0 0-.068.135h1.698v.877h-2.99c-.007-.08-.01-.16-.01-.24 0-.381.073-.69.218-.927.145-.237.396-.443.754-.616.21-.104.363-.181.458-.233.095-.052.175-.11.24-.175a.302.302 0 0 0 .098-.218.234.234 0 0 0-.07-.18.276.276 0 0 0-.195-.066.307.307 0 0 0-.248.11c-.062.074-.093.18-.093.321H3.177c-.003-.394.122-.698.376-.911.253-.214.61-.321 1.071-.321zM4.614 16.24c.293 0 .547.04.76.118.213.078.377.19.493.334a.793.793 0 0 1 .172.508c0 .18-.045.328-.135.445-.09.117-.237.212-.44.285v.01c.217.07.374.167.472.29a.747.747 0 0 1 .148.48c0 .213-.06.4-.18.56-.12.16-.29.283-.508.37-.218.087-.474.13-.767.13-.5 0-.882-.106-1.147-.317-.266-.212-.398-.52-.398-.923h1.14c0 .147.034.257.103.33.068.073.167.11.297.11a.38.38 0 0 0 .25-.075c.06-.05.09-.118.09-.205 0-.107-.037-.186-.113-.238-.075-.051-.192-.077-.352-.077h-.08v-.77h.12a.48.48 0 0 0 .293-.08.25.25 0 0 0 .107-.21.255.255 0 0 0-.083-.203c-.055-.048-.134-.072-.237-.072-.127 0-.223.037-.29.11a.437.437 0 0 0-.1.305h-1.09c0-.38.13-.677.39-.892.26-.216.622-.323 1.085-.323zM8 11h12v2H8zM8 17h12v2H8z"/>
</svg>
</svg></g></svg>
