<svg xmlns="http://www.w3.org/2000/svg" width="24" focusable="false" height="24"><g id="tuiIconToolbarLink" xmlns="http://www.w3.org/2000/svg" transform="translate(-12,-12)"><svg x="50%" y="50%"><svg xmlns="http://www.w3.org/2000/svg" width="24" height="24" viewBox="0 0 24 24">
    <path fill="currentColor" d="M9.662 13.682c-.554-1.195 1.193-2.274 1.764-1.07 1.032 2.223 3.144 1.91 4.627.394 1.063-1.08 2.105-2.18 3.156-3.267.3-.277.583-.571.848-.882a2.269 2.269 0 0 0-.622-3.198c-2.461-1.701-4.04.83-5.585 2.427-.927.965-2.399-.478-1.486-1.432 1.046-1.077 2.148-2.678 3.584-3.322 1.435-.644 3.183-.286 4.481.516a4.329 4.329 0 0 1 .887 6.676c-1.347 1.446-2.714 2.914-4.136 4.286-2.321 2.235-6.088 1.974-7.518-1.128zM13.84 10.8c.555 1.195-1.19 2.273-1.76 1.073-1.032-2.227-3.144-1.906-4.63-.395-1.06 1.077-2.103 2.176-3.153 3.264-.301.276-.584.57-.849.882a2.266 2.266 0 0 0 .623 3.207c2.458 1.692 4.04-.838 5.585-2.436.924-.954 2.406.478 1.482 1.435-1.042 1.074-2.142 2.675-3.58 3.319-1.439.644-3.186.287-4.484-.516a4.331 4.331 0 0 1-.884-6.676c1.347-1.443 2.721-2.914 4.136-4.286 2.32-2.235 6.085-1.974 7.514 1.129z"/>
</svg>
</svg></g></svg>
