<svg xmlns="http://www.w3.org/2000/svg" width="24" focusable="false" height="24"><g id="tuiIconToolbarRedo" xmlns="http://www.w3.org/2000/svg" transform="translate(-12,-12)"><svg x="50%" y="50%"><svg xmlns="http://www.w3.org/2000/svg" width="24" height="24" viewBox="0 0 24 24">
    <path fill="currentColor" d="M19.5 10.969a.306.306 0 0 1-.112.238l-7.022 5.669a.278.278 0 0 1-.347.001.31.31 0 0 1-.094-.35l1.412-3.753C7.818 12.624 5.303 13.433 2 19c.901-4.806 2.695-9.2 11.337-9.835L11.925 5.41a.31.31 0 0 1 .094-.35.275.275 0 0 1 .347.002l7.022 5.668c.07.056.112.144.112.238z"/>
</svg>
</svg></g></svg>
