<svg xmlns="http://www.w3.org/2000/svg" width="24" focusable="false" height="24"><g id="tuiIconToolbarQuote" xmlns="http://www.w3.org/2000/svg" transform="translate(-12,-12)"><svg x="50%" y="50%"><svg xmlns="http://www.w3.org/2000/svg" width="24" height="24" viewBox="0 0 24 24">
    <path fill="currentColor" d="M14.424 16.116a6.254 6.254 0 0 0 1.67-1.67 4.569 4.569 0 0 0 .768-2.199c-.777 0-1.449-.185-2.014-.556-.565-.372-.848-1.016-.848-1.935 0-.777.265-1.431.795-1.961A2.602 2.602 0 0 1 16.703 7c.813 0 1.528.336 2.146 1.007.619.671.928 1.572.928 2.703 0 1.555-.406 2.88-1.219 3.975-.813 1.095-1.837 2.032-3.074 2.809l-1.06-1.378zM5.424 16.116a6.254 6.254 0 0 0 1.67-1.67 4.569 4.569 0 0 0 .768-2.199c-.777 0-1.449-.185-2.014-.556C5.283 11.319 5 10.675 5 9.755c0-.777.265-1.431.795-1.961A2.602 2.602 0 0 1 7.703 7c.813 0 1.528.336 2.147 1.007.618.671.927 1.572.927 2.703 0 1.555-.406 2.88-1.219 3.975-.813 1.095-1.837 2.032-3.074 2.809l-1.06-1.378z"/>
</svg>
</svg></g></svg>
