<svg xmlns="http://www.w3.org/2000/svg" width="24" focusable="false" height="24"><g id="tuiIconToolbarStrikeThrough" xmlns="http://www.w3.org/2000/svg" transform="translate(-12,-12)"><svg x="50%" y="50%"><svg xmlns="http://www.w3.org/2000/svg" width="24" height="24" viewBox="0 0 24 24">
    <path fill="currentColor" d="M11.307 10.22h-.92v2.003l2.149-2.15a4.8 4.8 0 0 1-1.23.147M16.276 11.996l-2.03 2.03c.049.17.08.351.08.554 0 .546-.22.983-.66 1.31-.44.326-1.026.49-1.76.49h-.013L9.672 18.6a9.29 9.29 0 0 0 2.235.26c1.106 0 2.08-.17 2.92-.51.84-.34 1.493-.82 1.96-1.44.467-.62.7-1.35.7-2.19 0-.908-.22-1.64-.66-2.2a3.17 3.17 0 0 0-.551-.525M11.787 6.48c.72 0 1.293.167 1.72.5.426.333.64.773.64 1.32 0 .064-.015.122-.021.183l2.527-2.526a3.512 3.512 0 0 0-.826-.897C14.88 4.353 13.567 4 11.887 4c-1.813 0-3.217.423-4.21 1.27-.994.847-1.49 2.037-1.49 3.57h3.16c0-1.573.813-2.36 2.44-2.36M8.71 13.9H6.005c0 .865.157 1.61.448 2.254L8.71 13.9zM5 19.04L19.464 4.56l1.417 1.417-14.464 14.48z"/>
</svg>
</svg></g></svg>
