<svg xmlns="http://www.w3.org/2000/svg" width="24" focusable="false" height="24"><g id="tuiIconToolbarTeX" xmlns="http://www.w3.org/2000/svg" transform="translate(-12,-12)"><svg x="50%" y="50%"><svg xmlns="http://www.w3.org/2000/svg" width="24" height="24" viewBox="0 0 24 24">
    <path fill="currentColor" d="M6.28 9.783v6.21H4.43v-6.21H2.1V8.168h6.513v1.615H6.281zm5.552 5.165c.25 0 .456-.062.62-.187a.716.716 0 0 0 .289-.483h1.807a2.24 2.24 0 0 1-.481.961 2.48 2.48 0 0 1-.936.682 3.19 3.19 0 0 1-1.278.247c-.592 0-1.1-.128-1.524-.385a2.491 2.491 0 0 1-.968-1.066c-.221-.454-.332-.974-.332-1.56 0-.557.111-1.057.332-1.5.221-.443.544-.791.968-1.044.424-.253.925-.38 1.503-.38.634 0 1.176.16 1.625.479.45.319.77.756.963 1.313.078.213.134.44.166.681.032.242.048.532.048.869h-3.861c.021.49.128.842.32 1.055a.951.951 0 0 0 .739.318zm0-3.516a.923.923 0 0 0-.685.269c-.178.18-.292.46-.342.84h2.043c-.036-.373-.147-.651-.332-.835a.936.936 0 0 0-.684-.274zm10.267 4.56h-2.182l-1.369-2.703h-.021l-1.38 2.703h-2.171l2.364-4.01-2.236-3.814h2.129l1.294 2.615h.021l1.284-2.615h2.128l-2.235 3.813 2.374 4.011z"/>
</svg>
</svg></g></svg>
