<svg xmlns="http://www.w3.org/2000/svg" width="40" height="40" viewBox="0 0 40 40" fill="none">
    <rect x="40" width="40" height="11" transform="rotate(90 40 0)" fill="#496E2D" />
    <rect x="11" width="40" height="11" transform="rotate(90 11 0)" fill="black" />
    <rect x="29" width="40" height="18" transform="rotate(90 29 0)" fill="#D80027" />
    <path
        fill-rule="evenodd"
        clip-rule="evenodd"
        d="M13.0435 20C13.0435 16.158 16.158 13.0435 20 13.0435C23.842 13.0435 26.9565 16.158 26.9565 20C26.9565 23.842 23.842 26.9565 20 26.9565C16.158 26.9565 13.0435 23.842 13.0435 20ZM15.6522 20C15.6522 22.4012 17.5988 24.3478 20 24.3478C22.4013 24.3478 24.3478 22.4012 24.3478 20C24.3478 17.5988 22.4012 15.6522 20 15.6522C17.5988 15.6522 15.6522 17.5988 15.6522 20Z"
        fill="#FFDA44"
    />
    <path
        d="M20 17.3913C19.0395 17.3913 18.2609 18.1699 18.2609 19.1305V21.7391H21.7391V19.1305C21.7391 18.1699 20.9606 17.3913 20 17.3913Z"
        fill="#FFDA44"
    />
</svg>
