<svg xmlns="http://www.w3.org/2000/svg" width="40" height="40" viewBox="0 0 40 40" fill="none">
    <path d="M0 40L1.1656e-05 0.000302261C1.1656e-05 0.000302261 39.9999 0.00226348 39.9999 0L0 40Z" fill="#EFB22D" />
    <path d="M0 40H39.9999V0.00012207L0 40Z" fill="#E23D28" />
    <path
        d="M31.3133 11.3045V7.82673H24.6466L24.1377 8.33562C22.3266 10.1467 22.6311 12.2612 22.8533 13.8023C23.06 15.2334 23.0844 15.7823 22.5533 16.3134C22.0222 16.8445 21.4722 16.8212 20.0422 16.6134C18.4977 16.3912 16.3866 16.0867 14.5755 17.8978C12.7644 19.7089 13.0689 21.8223 13.2911 23.3645C13.4978 24.7956 13.5222 25.3445 12.9911 25.8756C12.46 26.4067 11.91 26.3834 10.48 26.1756L8.72443 26L8.68666 29.4778C9.07221 29.4822 9.51221 29.5445 9.97888 29.6133C10.5311 29.6933 11.1567 29.7833 11.8144 29.7833C12.4966 29.7833 13.2144 29.6856 13.9233 29.38V32.1633H19.1411V29.5667H16.5322V27.8278H18.2711V25.2189H16.8822C16.9489 24.3745 16.8322 23.5667 16.7322 22.8856C16.5255 21.4545 16.5011 20.9056 17.0322 20.3745C17.5633 19.8434 18.1133 19.8667 19.5433 20.0745C20.6677 20.2367 22.0944 20.4411 23.4877 19.8411V22.6245H28.7055V20H26.0966V18.2612H27.8355V15.6523H26.4444C26.5111 14.8078 26.3944 14.0001 26.2944 13.3078C26.15 12.3078 26.0944 11.7389 26.2555 11.3045H31.311H31.3133Z"
        fill="white"
    />
</svg>
