<svg xmlns="http://www.w3.org/2000/svg" width="40" height="40" viewBox="0 0 40 40" fill="none">
    <rect width="40" height="40" fill="#0052B4" />
    <path
        d="M19.95 20.0576H20.0189C20.0189 20.0346 20.0189 20.0122 20.0189 19.9891C19.996 20.012 19.9731 20.0348 19.95 20.0576Z"
        fill="#F0F0F0"
    />
    <path
        d="M26.9565 20.039L27.3266 21.1755H28.5239L27.5553 21.8779L27.9253 23.0145L26.9565 22.3121L25.9878 23.0145L26.3578 21.8779L25.3892 21.1755H26.5865L26.9565 20.039Z"
        fill="#F0F0F0"
    />
    <path
        d="M22.0376 22.0726L23.1044 22.6151L23.9511 21.7701L23.7637 22.9504L24.8306 23.493L23.648 23.6798L23.4607 24.8603L22.917 23.7954L21.7344 23.9824L22.5812 23.1374L22.0376 22.0726Z"
        fill="#F0F0F0"
    />
    <path
        d="M20 26.9819L21.1387 26.6126L21.1389 25.4178L21.8425 26.3844L22.9813 26.0151L22.2775 26.9819L22.9813 27.9489L21.8425 27.5796L21.1389 28.5463V27.3514L20 26.9819Z"
        fill="#F0F0F0"
    />
    <path
        d="M22.0376 31.8913L22.5811 30.8265L21.7344 29.9816L22.9171 30.1685L23.4607 29.1037L23.648 30.284L24.8306 30.4709L23.7637 31.0135L23.9511 32.1939L23.1044 31.3487L22.0376 31.8913Z"
        fill="#F0F0F0"
    />
    <path
        d="M26.9565 33.9249L26.5865 32.7883H25.3892L26.3578 32.0859L25.9878 30.9494L26.9565 31.6518L27.9253 30.9494L27.5553 32.0859L28.5239 32.7883H27.3267L26.9565 33.9249Z"
        fill="#F0F0F0"
    />
    <path
        d="M31.8754 31.8913L30.8086 31.3489L29.962 32.1939L30.1493 31.0135L29.0824 30.471L30.2651 30.284L30.4524 29.1037L30.9959 30.1685L32.1786 29.9816L31.3318 30.8266L31.8754 31.8913Z"
        fill="#F0F0F0"
    />
    <path
        d="M33.913 26.9819L32.7742 27.3514V28.5463L32.0705 27.5795L30.9317 27.9489L31.6355 26.9819L30.9317 26.0151L32.0705 26.3844L32.7742 25.4178V26.6126L33.913 26.9819Z"
        fill="#F0F0F0"
    />
    <path
        d="M31.8754 22.0727L31.332 23.1374L32.1786 23.9824L30.9959 23.7954L30.4524 24.8603L30.2651 23.6798L29.0824 23.4929L30.1493 22.9504L29.962 21.7701L30.8086 22.6151L31.8754 22.0727Z"
        fill="#F0F0F0"
    />
    <path fill-rule="evenodd" clip-rule="evenodd" d="M0 0H8H16H20V3V8L13 8L20 15V20H17L10 13V20H0V0Z" fill="#F0F0F0" />
    <path
        fill-rule="evenodd"
        clip-rule="evenodd"
        d="M8 0H3V3H0V8H3V20H8V8H20V3H8V0ZM20 16.5845L12.8943 9.49268C12.8943 9.49268 10.4348 9.49283 10.4348 9.49268L19.9999 19.0392L20 16.5845Z"
        fill="#D80027"
    />
</svg>
