<svg xmlns="http://www.w3.org/2000/svg" width="40" height="40" viewBox="0 0 40 40" fill="none">
    <rect width="40" height="40" fill="#338AF3" />
    <rect width="20" height="20" fill="#0052B4" />
    <path
        d="M19.95 20.0575H20.0189C20.0189 20.0345 20.0189 20.0121 20.0189 19.989C19.996 20.0119 19.9731 20.0347 19.95 20.0575Z"
        fill="#F0F0F0"
    />
    <path
        d="M22.6087 13.096V20.0389C22.6087 24.6892 28.6957 26.1141 28.6957 26.1141C28.6957 26.1141 34.7826 24.6892 34.7826 20.0389V13.096L28.6957 11.3603L22.6087 13.096Z"
        fill="#F3F3F3"
    />
    <path
        d="M34.7826 13.096V10.4924H22.6087V13.096H27.826V18.3033H22.6087V20.0389C22.6087 20.039 22.6087 20.0391 22.6087 20.0391L27.826 20.0392V25.8479C28.3508 26.0332 28.6957 26.1141 28.6957 26.1141C28.6957 26.1141 29.0403 26.0333 29.5651 25.8479V20.0391H34.7826V20.0389V18.3033H29.5651V13.0959H34.7826V13.096Z"
        fill="#D80027"
    />
    <path fill-rule="evenodd" clip-rule="evenodd" d="M0 0H8H16H20V3V8L13 8L20 15V20H17L10 13V20H0V0Z" fill="#F0F0F0" />
    <path
        fill-rule="evenodd"
        clip-rule="evenodd"
        d="M8 0H3V3H0V8H3V20H8V8H20V3H8V0ZM20 16.5845L12.8943 9.49268C12.8943 9.49268 10.4348 9.49283 10.4348 9.49268V9.49283L19.9999 19.0392H20V16.5845Z"
        fill="#D80027"
    />
</svg>
