<svg xmlns="http://www.w3.org/2000/svg" width="40" height="40" viewBox="0 0 40 40" fill="none">
    <rect width="40" height="14" fill="#0052B4" />
    <path d="M0 14V40H40V14L0 14Z" fill="#DA121A" />
    <path
        fill-rule="evenodd"
        clip-rule="evenodd"
        d="M19.9999 17.333C19.7487 17.333 19.7111 17.4651 19.0426 15.8078C18.3742 14.1506 17.8178 14.6032 16.4023 13.503C14.9869 12.4033 15.5285 10.4918 16.6909 10.4918C17.4659 10.4918 18.2796 10.9756 19.1326 11.9434C18.8178 10.9756 18.6605 10.0782 18.6605 9.25111C18.6605 8.01069 19.017 6.66882 19.9999 6.66882C20.9831 6.66882 21.3397 8.01069 21.3397 9.25111C21.3397 10.0782 21.182 10.9756 20.8672 11.9434C21.7203 10.9756 22.5342 10.4918 23.3089 10.4918C24.4713 10.4918 25.0132 12.4033 23.5975 13.503C22.1823 14.6032 21.6257 14.1506 20.9575 15.8078C20.289 17.4651 20.2512 17.333 19.9999 17.333Z"
        fill="#FCDD09"
        stroke="#FCDD09"
        stroke-width="0.5"
    />
    <path
        fill-rule="evenodd"
        clip-rule="evenodd"
        d="M31.9999 17.5552C31.7487 17.5552 31.7111 17.6874 31.0426 16.03C30.3742 14.3729 29.8178 14.8255 28.4023 13.7252C26.9869 12.6255 27.5285 10.714 28.6909 10.714C29.4659 10.714 30.2796 11.1978 31.1326 12.1657C30.8178 11.1978 30.6605 10.3005 30.6605 9.47334C30.6605 8.23292 31.017 6.89105 31.9999 6.89105C32.9831 6.89105 33.3397 8.23292 33.3397 9.47334C33.3397 10.3005 33.182 11.1978 32.8672 12.1657C33.7203 11.1978 34.5342 10.714 35.3089 10.714C36.4713 10.714 37.0132 12.6255 35.5975 13.7252C34.1823 14.8255 33.6257 14.3729 32.9575 16.03C32.289 17.6874 32.2512 17.5552 31.9999 17.5552Z"
        fill="#FCDD09"
        stroke="#FCDD09"
        stroke-width="0.5"
    />
    <path
        fill-rule="evenodd"
        clip-rule="evenodd"
        d="M7.99993 17.5552C7.74868 17.5552 7.71109 17.6874 7.04265 16.03C6.37421 14.3729 5.81778 14.8255 4.40234 13.7252C2.9869 12.6255 3.52855 10.714 4.69093 10.714C5.46593 10.714 6.27957 11.1978 7.13262 12.1657C6.81785 11.1978 6.66046 10.3005 6.66046 9.47334C6.66046 8.23292 7.01698 6.89105 7.99993 6.89105C8.98314 6.89105 9.33966 8.23292 9.33966 9.47334C9.33966 10.3005 9.18202 11.1978 8.86724 12.1657C9.72029 11.1978 10.5342 10.714 11.3089 10.714C12.4713 10.714 13.0132 12.6255 11.5975 13.7252C10.1823 14.8255 9.62565 14.3729 8.95747 16.03C8.28904 17.6874 8.25118 17.5552 7.99993 17.5552Z"
        fill="#FCDD09"
        stroke="#FCDD09"
        stroke-width="0.5"
    />
    <path
        fill-rule="evenodd"
        clip-rule="evenodd"
        d="M40 30.197C40 30.197 30.4849 27.0451 18.1594 21.8323C5.83392 16.6196 2.99365 17.0014 2.99365 17.0014C2.99365 17.0014 14.2852 24.0049 23.4041 28.9787C32.5229 33.9525 40 39.5 40 39.5V30.197Z"
        fill="#008000"
    />
    <path
        fill-rule="evenodd"
        clip-rule="evenodd"
        d="M20 34C24.7864 34 28.6666 30.1198 28.6666 25.3334C28.6666 20.5469 24.7864 16.6667 20 16.6667C15.2135 16.6667 11.3333 20.5469 11.3333 25.3334C11.3333 30.1198 15.2135 34 20 34Z"
        fill="#FCDD09"
    />
</svg>
