<svg xmlns="http://www.w3.org/2000/svg" width="40" height="40" viewBox="0 0 40 40" fill="none">
    <rect width="40" height="40" fill="#F0F0F0" />
    <path
        d="M26.9565 19.9999C26.9565 21.7391 23.842 26.0869 20 26.0869C16.158 26.0869 13.0435 21.7391 13.0435 19.9999C13.0435 16.1579 16.158 13.0435 20 13.0435C23.842 13.0435 26.9565 16.1579 26.9565 19.9999Z"
        fill="#D80027"
    />
    <path
        d="M26.9565 20C26.9565 23.842 23.842 26.9565 20 26.9565C16.158 26.9565 13.0435 23.842 13.0435 20"
        fill="#0052B4"
    />
    <path d="M27.3783 26.1488L29.2229 24.3042L30.4526 25.534L28.608 27.3786L27.3783 26.1488Z" fill="black" />
    <path d="M24.3035 29.2234L26.1481 27.3788L27.3778 28.6085L25.5332 30.4531L24.3035 29.2234Z" fill="black" />
    <path d="M31.068 29.8373L32.9126 27.9927L34.1423 29.2224L32.2977 31.067L31.068 29.8373Z" fill="black" />
    <path d="M27.9932 32.9124L29.8378 31.0678L31.0676 32.2975L29.223 34.1421L27.9932 32.9124Z" fill="black" />
    <path d="M29.223 27.9932L31.0676 26.1486L32.2974 27.3783L30.4528 29.2229L29.223 27.9932Z" fill="black" />
    <path d="M26.1491 31.0677L27.9937 29.2232L29.2234 30.4529L27.3789 32.2975L26.1491 31.0677Z" fill="black" />
    <path d="M31.0685 13.8507L26.1496 8.93178L27.3794 7.70203L32.2983 12.621L31.0685 13.8507Z" fill="black" />
    <path d="M26.1495 12.6217L24.3049 10.7771L25.5346 9.54742L27.3792 11.392L26.1495 12.6217Z" fill="black" />
    <path d="M29.2234 15.6958L27.3789 13.8512L28.6085 12.6215L30.4531 14.4661L29.2234 15.6958Z" fill="black" />
    <path d="M29.8371 8.9325L27.9925 7.0879L29.2223 5.85816L31.0668 7.70275L29.8371 8.9325Z" fill="black" />
    <path d="M32.9127 12.007L31.0681 10.1624L32.2979 8.93262L34.1425 10.7772L32.9127 12.007Z" fill="black" />
    <path d="M7.08771 27.9935L12.0066 32.9125L10.7769 34.1422L5.85796 29.2233L7.08771 27.9935Z" fill="black" />
    <path d="M12.0063 29.2227L13.8509 31.0672L12.6212 32.2969L10.7766 30.4523L12.0063 29.2227Z" fill="black" />
    <path d="M8.93207 26.1487L10.7767 27.9933L9.54691 29.223L7.70232 27.3784L8.93207 26.1487Z" fill="black" />
    <path d="M10.7768 24.304L15.6957 29.2229L14.466 30.4526L9.54705 25.5337L10.7768 24.304Z" fill="black" />
    <path d="M12.0065 7.08752L7.0876 12.0065L5.85785 10.7767L10.7768 5.85778L12.0065 7.08752Z" fill="black" />
    <path d="M13.8505 8.93164L8.93159 13.8506L7.70185 12.6208L12.6208 7.70189L13.8505 8.93164Z" fill="black" />
    <path d="M15.6962 10.7771L10.7773 15.696L9.54761 14.4663L14.4665 9.54741L15.6962 10.7771Z" fill="black" />
</svg>
