<svg xmlns="http://www.w3.org/2000/svg" width="40" height="40" viewBox="0 0 40 40" fill="none">
    <path d="M17.7778 3.33337H40V36.6667H17.7778V3.33337Z" fill="#8D153A" />
    <path d="M0 3.33337V36.6667H7.22222V3.33337H0Z" fill="#6DA544" />
    <path d="M17.7778 3.33337H14.4445V36.6667H17.7778V3.33337Z" fill="#FFDA44" />
    <path d="M14.4445 3.33337H7.22223V36.6667H14.4445V3.33337Z" fill="#FF9811" />
    <path d="M40 3.33333L40 0H0V3.33333H40Z" fill="#FFDA44" />
    <path d="M0 36.6666V40H40V36.6666H0Z" fill="#FFDA44" />
    <path
        d="M40 31V6.66663L40 16.2066C39.4803 17.0011 39.4445 17.7781 39.4445 17.7781C39.1491 18.2525 38.6117 18.2442 37.7286 18.2305C37.5686 18.228 37.3973 18.2254 37.214 18.2254C36.3266 18.2181 35.4745 18.2219 34.7261 18.2253C34.077 18.2282 33.5056 18.2307 33.0571 18.2254V13.0181C33.0571 12.1502 31.7553 11.2824 31.7553 11.2824C31.7553 11.2824 30.4534 12.1503 30.4534 13.0181H25.2463V18.2253H27.8498V20.8289C27.8498 21.4001 27.9651 21.9443 28.1731 22.4398L26.982 23.4325H23.5105V7.37688C22.0726 7.37688 20.9069 8.54257 20.9069 9.98047V21.2627C20.9069 22.0336 21.2422 22.7261 21.7748 23.2028V27.3378H23.5105V25.1681H31.3213V28.6397H29.5856V30.3754H33.0571V26.9039L34.6481 25.1681H38.409L39.0955 25.9172V28.6397H37.7778V30.3754H40L40 31Z"
        fill="#FFDA44"
    />
</svg>
