<svg xmlns="http://www.w3.org/2000/svg" width="40" height="40" viewBox="0 0 40 40" fill="none">
    <rect width="40" height="40" fill="#FFDA44" />
    <rect y="4" width="40" height="32" fill="#A2001D" />
    <path
        d="M15.6522 14.7825H24.3478V11.3043L22.6087 12.1739L20 9.56519L17.3913 12.1739L15.6522 11.3043V14.7825Z"
        fill="#FFDA44"
    />
    <path
        d="M27.8261 19.9999H23.4799C23.6504 19.7051 23.7495 19.3639 23.7495 18.9989C23.7495 17.8905 22.8509 16.9922 21.7427 16.9922C20.977 16.9922 20.312 17.4212 19.9737 18.0517C19.6353 17.4212 18.9703 16.9922 18.2046 16.9922C17.0964 16.9922 16.1979 17.8905 16.1979 18.9989C16.1979 19.364 16.2971 19.7052 16.4674 19.9999H12.1738C12.1738 21.3298 13.3321 22.4079 14.662 22.4079H14.5818C14.5818 23.4988 15.3073 24.4198 16.3021 24.7157L14.3477 26.6703L16.1923 28.5149L18.8089 25.8983C18.9114 25.9359 19.0174 25.9659 19.127 25.9865L17.5459 29.5564C18.3036 29.8645 19.1316 30.0355 20 30.0355C20.8683 30.0355 21.6963 29.8645 22.4541 29.5564L20.873 25.9865C20.9825 25.9659 21.0885 25.9359 21.1909 25.8983L23.8076 28.5149L25.6521 26.6703L23.6976 24.7158C24.6923 24.4198 25.4179 23.4988 25.4179 22.408H25.3377C26.6677 22.4079 27.8261 21.3298 27.8261 19.9999Z"
        fill="#FFDA44"
    />
    <path d="M20 21.3043L17.1739 22.6086V25.2174L20 26.9564L22.8261 25.2174V22.6086L20 21.3043Z" fill="#6DA544" />
    <rect x="17.1739" y="20" width="5.65219" height="3.47828" fill="#0052B4" />
</svg>
