<svg xmlns="http://www.w3.org/2000/svg" width="40" height="40" viewBox="0 0 40 40" fill="none">
    <path d="M0 40H39.9996L39.9996 0.000811146L1.05963e-06 0L0 40Z" fill="#FFDA44" />
    <path d="M23.3331 40H34.4441L19.9998 20.0002L23.3331 40Z" fill="#D80027" />
    <path d="M16.6665 0.000366208L5.55549 0.000832775L19.9998 20.0002L16.6665 0.000366208Z" fill="#D80027" />
    <path d="M5.55549 40H16.6665L19.9998 20.0002L5.55549 40Z" fill="#D80027" />
    <path d="M0 5.55537L-4.23851e-06 16.6664L19.9998 20.0002L0 5.55537Z" fill="#D80027" />
    <path d="M0 23.3335L2.25171e-06 34.4445L19.9998 20.0002L0 23.3335Z" fill="#D80027" />
    <path d="M39.9996 16.6667V5.55574L19.9998 20.0001L39.9996 16.6667Z" fill="#D80027" />
    <path d="M34.4441 0.000614558L23.3331 0.000366208L19.9998 20.0002L34.4441 0.000614558Z" fill="#D80027" />
    <path d="M39.9996 34.4445V23.3335L19.9998 20.0002L39.9996 34.4445Z" fill="#D80027" />
    <path
        d="M19.9998 26.9568C23.8418 26.9568 26.9564 23.8422 26.9564 20.0002C26.9564 16.1582 23.8418 13.0436 19.9998 13.0436C16.1578 13.0436 13.0432 16.1582 13.0432 20.0002C13.0432 23.8422 16.1578 26.9568 19.9998 26.9568Z"
        fill="#D80027"
    />
    <path
        d="M19.9998 25.2179C22.8815 25.2179 25.2176 22.8819 25.2176 20.0002C25.2176 17.1185 22.8815 14.7825 19.9998 14.7825C17.1181 14.7825 14.7821 17.1185 14.7821 20.0002C14.7821 22.8819 17.1181 25.2179 19.9998 25.2179Z"
        fill="#FFDA44"
    />
</svg>
