<svg xmlns="http://www.w3.org/2000/svg" width="40" height="40" viewBox="0 0 40 40" fill="none">
    <rect width="40" height="40" fill="#496E2D" />
    <path
        d="M23.4783 19.166C22.9874 19.166 22.5213 19.2638 22.0884 19.4196C22.3256 18.8912 22.4845 18.3032 22.4845 17.6753C22.4845 15.1909 20.0001 13.3275 20.0001 13.3275C20.0001 13.3275 17.5156 15.1909 17.5156 17.6753C17.5156 18.3031 17.6746 18.8912 17.9117 19.4196C17.4788 19.264 17.0127 19.166 16.5219 19.166C14.0374 19.166 12.1741 21.6504 12.1741 21.6504C12.1741 21.6504 14.0374 24.1349 16.5219 24.1349C17.9785 24.1349 19.2209 23.2812 20.0002 22.5745C20.7795 23.2811 22.0218 24.1349 23.4784 24.1349C25.9629 24.1349 27.8263 21.6504 27.8263 21.6504C27.8263 21.6504 25.9627 19.166 23.4783 19.166Z"
        fill="#F0F0F0"
    />
    <path
        d="M20 7.82605L20.5132 9.40542H22.1739L20.8305 10.3817L21.3433 11.9611L20 10.9848L18.6566 11.9611L19.1694 10.3817L17.826 9.40542H19.4868L20 7.82605Z"
        fill="#FFDA44"
    />
    <path
        d="M13.6849 10.5885L14.6722 11.4774L15.8228 10.8132L15.2825 12.0269L16.2697 12.9159L14.9485 12.777L14.4082 13.9907L14.1318 12.6912L12.8106 12.5523L13.9611 11.888L13.6849 10.5885Z"
        fill="#FFDA44"
    />
    <path
        d="M9.06201 15.2114L10.3615 15.4876L11.0258 14.337L11.1647 15.6582L12.4641 15.9346L11.2505 16.475L11.3894 17.7961L10.5003 16.809L9.2867 17.3493L9.951 16.1987L9.06201 15.2114Z"
        fill="#FFDA44"
    />
    <path
        d="M26.3151 10.5885L25.3278 11.4774L24.1773 10.8132L24.7175 12.0269L23.7303 12.9159L25.0516 12.777L25.5919 13.9907L25.8683 12.6912L27.1895 12.5523L26.039 11.888L26.3151 10.5885Z"
        fill="#FFDA44"
    />
    <path
        d="M30.938 15.2114L29.6385 15.4876L28.9742 14.337L28.8353 15.6582L27.5359 15.9346L28.7495 16.475L28.6106 17.7961L29.4997 16.809L30.7133 17.3493L30.049 16.1987L30.938 15.2114Z"
        fill="#FFDA44"
    />
    <path
        d="M19.9999 31.0915C21.9735 31.0915 23.7925 30.4331 25.2517 29.3252H14.7482C16.2074 30.433 18.0264 31.0915 19.9999 31.0915Z"
        fill="#F0F0F0"
    />
    <path
        d="M12.0286 25.8741C12.3046 26.5059 12.6546 27.0975 13.0657 27.6405H26.9343C27.3454 27.0976 27.6954 26.5059 27.9714 25.8741H12.0286Z"
        fill="#F0F0F0"
    />
</svg>
