<svg xmlns="http://www.w3.org/2000/svg" width="40" height="40" viewBox="0 0 40 40" fill="none">
    <rect width="40" height="40" fill="#E6E6E6" />
    <rect width="20" height="20" fill="#0052B4" />
    <path
        d="M13.2995 17.1195C10.5681 17.1195 8.35388 14.9052 8.35388 12.1739C8.35388 9.44258 10.5682 7.22829 13.2995 7.22829C14.1511 7.22829 14.9525 7.44368 15.6521 7.82274C14.5546 6.74954 13.0536 6.08704 11.3973 6.08704C8.03568 6.08704 5.31036 8.81227 5.31036 12.174C5.31036 15.5357 8.03568 18.2609 11.3973 18.2609C13.0536 18.2609 14.5546 17.5984 15.6521 16.5252C14.9525 16.9041 14.1512 17.1195 13.2995 17.1195Z"
        fill="#FFDA44"
    />
    <path
        d="M14.6932 8.69568L15.5712 10.5318L17.5541 10.0736L16.6661 11.9048L18.2608 13.1694L16.2754 13.617L16.2809 15.6522L14.6932 14.379L13.1054 15.6522L13.1108 13.617L11.1254 13.1694L12.7201 11.9048L11.832 10.0736L13.8151 10.5318L14.6932 8.69568Z"
        fill="#FFDA44"
    />
    <rect x="20" y="15" width="20" height="5" fill="#D80027" />
    <rect y="25" width="40" height="5" fill="#D80027" />
    <rect y="35" width="40" height="5" fill="#D80027" />
    <rect x="20" y="5" width="20" height="5" fill="#D80027" />
</svg>
