<svg xmlns="http://www.w3.org/2000/svg" width="40" height="40" viewBox="0 0 40 40" fill="none">
    <rect y="13" width="40" height="14" fill="#D80027" />
    <rect width="40" height="13" fill="#0052B4" />
    <rect y="27" width="40" height="13" fill="#009543" />
    <path
        d="M13.1919 31.0193C19.2118 31.0193 24.0919 26.1392 24.0919 20.1193C24.0919 14.0994 19.2118 9.21936 13.1919 9.21936C7.17205 9.21936 2.29198 14.0994 2.29198 20.1193C2.29198 26.1392 7.17205 31.0193 13.1919 31.0193Z"
        fill="#FAE600"
    />
    <path
        fill-rule="evenodd"
        clip-rule="evenodd"
        d="M12.2346 10.8938H14.0223V13.9106H16.0335V25.3073H14.0223V27.4707C14.4426 27.5467 14.8082 27.6794 15.0407 27.8709C15.8475 28.536 17.4215 30.2395 17.4215 30.2395C17.4215 30.2395 13.2519 31.9445 8.80326 30.1279C8.59551 30.3077 10.4873 28.3911 11.1468 27.8709C11.3925 27.6772 11.7857 27.5412 12.2346 27.4653V25.3073H10.2234V13.9106H12.2346V10.8938Z"
        fill="black"
    />
</svg>
