<svg xmlns="http://www.w3.org/2000/svg" width="40" height="40" viewBox="0 0 40 40" fill="none">
    <path
        fill-rule="evenodd"
        clip-rule="evenodd"
        d="M20 40C31.0457 40 40 31.0457 40 20C40 8.9543 31.0457 0 20 0C8.9543 0 0 8.9543 0 20C0 31.0457 8.9543 40 20 40Z"
        fill="#D8D8D8"
    />
    <rect width="40" height="12" fill="#338AF3" />
    <rect y="28" width="40" height="12" fill="#338AF3" />
    <rect width="40" height="16" transform="matrix(1 0 0 -1 0 28)" fill="#F0F0F0" />
    <path
        fill-rule="evenodd"
        clip-rule="evenodd"
        d="M13.9131 20C13.9131 16.6383 16.6383 13.9131 20 13.9131C23.3617 13.9131 26.087 16.6383 26.087 20C26.087 23.3618 23.3617 26.087 20 26.087C16.6383 26.087 13.9131 23.3618 13.9131 20ZM16.5217 20C16.5217 21.9211 18.0791 23.4783 20 23.4783C21.9209 23.4783 23.4783 21.9211 23.4783 20C23.4783 18.0789 21.921 16.5218 20 16.5218C18.079 16.5218 16.5217 18.0789 16.5217 20Z"
        fill="#FFDA44"
    />
    <path d="M23.0124 20.8695L20 20L16.9877 20.8695L15.9836 22.6087H24.0163L23.0124 20.8695Z" fill="#0052B4" />
    <path d="M20 15.6522L17.9918 19.1305L20 20L22.0082 19.1305L20 15.6522Z" fill="#338AF3" />
    <path d="M16.9877 20.8696H23.0124L22.0082 19.1305H17.9918L16.9877 20.8696Z" fill="#6DA544" />
</svg>
