<svg xmlns="http://www.w3.org/2000/svg" width="40" height="40" viewBox="0 0 40 40" fill="none">
    <rect width="40" height="40" fill="white" />
    <rect x="11" width="29" height="40" fill="#0092C8" />
    <path d="M11 0H40V40H11V0Z" fill="#0092C8" />
    <path d="M0 0V13H11V0H0Z" fill="#CC0022" />
    <path
        d="M6.3659 15.0926C6.34062 15.1478 6.31534 15.2987 6.31534 15.4344C6.30519 16.3342 5.94603 17.1838 5.26811 17.9177C5.12141 18.0735 5 18.2142 5 18.2344C5 18.2846 5.75884 18.2695 5.86004 18.2142C5.9511 18.169 5.96116 18.1841 5.99151 18.36C6.03202 18.6014 6.16865 18.8325 6.33555 18.9431C6.44183 19.0135 6.48233 19.0186 6.59868 18.9582C6.801 18.8627 6.93256 18.6567 6.95784 18.3952C6.98312 18.1992 7.00342 18.164 7.0691 18.1992C7.11468 18.2193 7.34238 18.2444 7.57505 18.2545L8 18.2746L7.77738 18.0132C7.35751 17.5205 7.22096 17.3346 7.05397 17.0078C6.82129 16.5604 6.72516 16.2086 6.68466 15.6757C6.66943 15.4244 6.6341 15.1731 6.6138 15.1077C6.56325 14.972 6.43676 14.9619 6.3659 15.0926Z"
        fill="#111111"
    />
    <path
        d="M6.3659 21.0926C6.34062 21.1478 6.31534 21.2987 6.31534 21.4344C6.30519 22.3342 5.94603 23.1838 5.26811 23.9177C5.12141 24.0735 5 24.2142 5 24.2344C5 24.2846 5.75884 24.2695 5.86004 24.2142C5.9511 24.169 5.96116 24.1841 5.99151 24.36C6.03202 24.6014 6.16865 24.8325 6.33555 24.9431C6.44183 25.0135 6.48233 25.0186 6.59868 24.9582C6.801 24.8627 6.93256 24.6567 6.95784 24.3952C6.98312 24.1992 7.00342 24.164 7.0691 24.1992C7.11468 24.2193 7.34238 24.2444 7.57505 24.2545L8 24.2746L7.77738 24.0132C7.35751 23.5205 7.22096 23.3346 7.05397 23.0078C6.82129 22.5604 6.72516 22.2086 6.68466 21.6757C6.66943 21.4244 6.6341 21.1731 6.6138 21.1077C6.56325 20.972 6.43676 20.9619 6.3659 21.0926Z"
        fill="#111111"
    />
    <path
        d="M2.3659 18.0694C2.34062 18.1109 2.31534 18.224 2.31534 18.3258C2.30519 19.0006 1.94603 19.6378 1.26811 20.1883C1.12141 20.3051 1 20.4107 1 20.4258C1 20.4635 1.75884 20.4521 1.86004 20.4107C1.9511 20.3768 1.96116 20.388 1.99151 20.52C2.03202 20.701 2.16865 20.8744 2.33555 20.9573C2.44183 21.0101 2.48233 21.0139 2.59868 20.9687C2.801 20.897 2.93256 20.7425 2.95784 20.5464C2.98312 20.3994 3.00342 20.373 3.0691 20.3994C3.11468 20.4144 3.34238 20.4333 3.57505 20.4409L4 20.4559L3.77738 20.2599C3.35751 19.8904 3.22096 19.7509 3.05397 19.5058C2.82129 19.1703 2.72516 18.9064 2.68466 18.5068C2.66943 18.3183 2.6341 18.1298 2.6138 18.0808C2.56325 17.979 2.43676 17.9714 2.3659 18.0694Z"
        fill="#111111"
    />
    <path
        fill-rule="evenodd"
        clip-rule="evenodd"
        d="M1.20639 0H0V5.25858L7.66955 12.9883L11 13L10.9833 9.81791L1.20639 0Z"
        fill="#007F33"
    />
    <path
        fill-rule="evenodd"
        clip-rule="evenodd"
        d="M40 5.50481C39.7827 5.48084 39.5652 5.43636 39.34 5.37113C39.0219 5.28583 38.7791 5.2517 38.7791 5.29435C38.7791 5.49055 39.139 6.01953 39.3902 6.19012C39.5409 6.29251 39.8087 6.41193 39.9929 6.44606L40 6.44773V5.50481ZM40 6.61507L39.8171 6.66787C39.5492 6.74465 39.1558 6.85561 38.9465 6.90678L38.5698 7.00917L38.9047 7.16272C39.1722 7.2854 39.5466 7.33549 40 7.31426V6.61507ZM40 10.0279C39.2315 10.6173 38.6194 11.0809 38.4609 11.1895C37.7913 11.6503 37.6908 11.7868 37.6908 12.1878C37.6908 12.4096 37.7327 12.4778 37.9336 12.5546L38.1763 12.6399L37.8834 13.1091C37.7159 13.3651 37.4564 13.8684 37.2973 14.2267L37.0044 14.8751L36.8537 14.5765C36.7113 14.2779 36.5691 13.7148 36.4853 13.075C36.4435 12.7764 36.4853 12.6399 36.8369 12.0256C37.3309 11.1469 38.1261 10.0549 38.5782 9.62827C38.7707 9.44917 38.9548 9.25291 38.9884 9.20174C39.0553 9.08232 38.8042 8.77515 38.6368 8.77515C38.5112 8.77515 35.5142 6.65936 35.5142 6.57406C35.5142 6.33515 35.9663 5.10667 36.1002 4.97867C36.1923 4.89337 36.2677 4.71421 36.2677 4.57769C36.2677 4.0658 35.6231 3.80134 35.2548 4.17671L35.2548 4.17672C35.1292 4.30472 35.0873 4.43266 35.1124 4.60331C35.1276 4.71539 35.1359 4.7767 35.1093 4.80389C35.0772 4.83673 34.9942 4.81981 34.8111 4.78247C34.1749 4.67157 32.9861 4.73125 32.2495 4.91893C31.2533 5.17488 30.7761 5.15784 29.6209 4.79951C29.4869 4.75686 29.4953 4.79951 29.7046 5.19197C29.9557 5.66121 30.0729 5.75502 30.6589 5.96832L31.0356 6.10483L30.3575 6.284C29.9892 6.38639 29.6209 6.47168 29.5455 6.47168C29.2693 6.47168 29.4032 6.62524 29.7967 6.76175C30.3659 6.95795 30.9686 6.9324 32.1992 6.63375C33.0699 6.42904 33.4382 6.37781 33.9823 6.40342C34.3591 6.41193 34.6939 6.46316 34.7274 6.49729C34.7692 6.53142 34.5683 6.77027 34.3004 7.02621C33.8902 7.40158 33.7395 7.48693 33.4968 7.49545C33.3294 7.49545 33.0699 7.52106 32.9275 7.54661C32.6764 7.59784 32.6681 7.61488 32.6681 8.09263V8.58748L30.7259 10.4473C29.6543 11.4711 28.6498 12.3755 28.4991 12.4693C28.3484 12.5631 28.1978 12.6997 28.1559 12.7764C28.0638 12.947 28.1726 13.2542 28.3484 13.3224C28.4572 13.3651 28.3903 13.5101 28.0136 14.039C27.4694 14.8069 27.0509 15.6259 26.7244 16.5388L26.49 17.1786L26.3561 16.7094C26.1384 15.9586 25.971 14.8666 25.971 14.15C25.971 13.8448 25.971 13.6814 26.0146 13.5306C26.0649 13.3568 26.1732 13.1998 26.4063 12.8617C26.9337 12.0939 28.1726 10.7801 28.8591 10.2511C29.1353 10.0378 29.6041 9.74777 29.9055 9.60273C30.5752 9.28705 30.7426 9.14201 30.7426 8.90316C30.7426 8.62161 30.5417 8.48509 30.2236 8.55335C30.0394 8.58748 29.2944 8.46805 28.0219 8.20354C27.3084 8.05927 26.6752 7.92668 26.3377 7.85599C26.1763 7.8222 26.0825 7.80256 26.0798 7.80256C26.0798 7.79404 26.1635 7.42719 26.2807 6.98357C26.4147 6.46316 26.5569 6.09632 26.6909 5.95128C26.9421 5.67824 26.9504 5.36262 26.6993 5.12371C26.2807 4.72273 25.6529 5.07255 25.745 5.65269L25.7868 5.94276L25.2343 6.00244C24.9329 6.03657 24.213 6.19013 23.6437 6.35226C22.4885 6.67646 21.5844 6.72762 20.9901 6.51433C20.9593 6.50293 20.9293 6.49177 20.9005 6.48109C20.757 6.4278 20.6454 6.38639 20.6384 6.38639C20.6217 6.38639 20.6134 6.4802 20.6134 6.59968C20.6134 6.96653 20.8394 7.29067 21.2077 7.47842L21.5593 7.65752L21.3249 7.71726C21.1993 7.75139 20.8226 7.75139 20.4794 7.72578C20.1362 7.70022 19.8599 7.70022 19.8599 7.72578C19.8599 7.90494 20.2701 8.38269 20.538 8.51921C21.124 8.82638 22.3462 8.71541 23.7023 8.22914C24.3804 7.99029 25.2594 7.92204 25.2008 8.10972C25.1673 8.21211 23.987 9.11639 21.9611 10.5924C20.9398 11.3346 20.7808 11.5394 20.9398 11.8977C21.0235 12.0939 20.9984 12.1707 20.7473 12.5973C20.2031 13.5357 19.6925 15.1482 19.6925 15.9672C19.6925 16.3766 19.6674 16.4108 19.1149 17.008C17.9847 18.2195 15.7747 21.0434 15.2975 21.888L15.1468 22.1524L14.9878 21.9477C14.6697 21.5382 14 21.7685 14 22.2889C14 22.6473 14.2176 22.852 14.6111 22.852C14.8288 22.852 15.2641 23.0226 16.0175 23.4151L17.1142 23.9696L16.9049 24.2C16.503 24.6436 16.4193 24.9934 16.6286 25.292C16.729 25.4285 16.8546 25.4541 17.3234 25.4541C17.8257 25.4541 17.9931 25.4968 18.5707 25.7868C19.14 26.0769 19.3577 26.2561 20.1948 27.1433C22.7815 29.899 23.4177 30.4706 24.9664 31.4432C25.8622 32.0062 27.4946 32.8253 28.2982 33.1239C30.91 34.0794 33.7898 34.2585 36.5105 33.6357C37.7662 33.3457 38.687 33.013 39.8925 32.3987C39.9293 32.3794 39.9652 32.3609 40 32.343V25.4471C39.6585 25.6127 39.3969 25.7309 39.3818 25.7186C39.3651 25.7015 39.5744 24.9337 39.8339 24.0123L40 23.4372V10.7563C39.9837 10.7614 39.9674 10.7664 39.9511 10.7715C39.34 10.9592 39.2646 10.9677 39.4488 10.8312C39.4978 10.792 39.7002 10.6321 40 10.3958V10.0279ZM38.1094 8.86046C38.101 8.8349 37.5904 8.45096 36.9709 8.00733C36.8551 7.92552 36.7399 7.844 36.6282 7.76496C36.1341 7.41541 35.7087 7.11444 35.6063 7.05183L35.372 6.89827L35.2715 7.23951C35.1627 7.60636 35.1962 7.75139 35.397 7.75139C35.6315 7.75139 36.4351 8.1865 36.4351 8.31444C36.4351 8.3827 36.3012 8.7069 36.1338 9.03962C35.9747 9.37234 35.8575 9.66241 35.8742 9.67951C35.9161 9.72215 38.1094 8.9202 38.1094 8.86046ZM34.3256 7.49545C34.3758 7.49545 34.4427 7.4528 34.4678 7.40158C34.5599 7.2566 34.4595 7.22247 34.3423 7.36751C34.2753 7.44429 34.2753 7.49545 34.3256 7.49545ZM29.0265 8.86903C29.353 8.77516 29.3195 8.76664 27.5615 8.3998C26.7495 8.22915 26.0715 8.09263 26.0379 8.09263C25.9961 8.09263 25.7784 8.85194 25.5943 9.63686L25.5357 9.86719L27.1597 9.40647C27.5242 9.30132 27.8817 9.19906 28.1857 9.11211C28.6217 8.9874 28.9476 8.89416 29.0265 8.86903ZM24.799 9.50886C24.8994 9.17614 24.9915 8.85194 25.0083 8.79226C25.0334 8.74103 25.0334 8.68987 25.025 8.68987C24.9999 8.68987 22.2876 10.7118 22.2206 10.7715C22.2039 10.7971 22.4383 10.7374 22.7564 10.6521C23.0745 10.5582 23.627 10.3961 23.9786 10.3023L24.6316 10.1231L24.799 9.50886ZM33.0866 9.16763C33.0866 9.15053 33.0113 9.15053 32.9108 9.17614C32.8103 9.20176 32.7099 9.18466 32.6764 9.12498C32.6345 9.05672 32.2997 9.32118 31.697 9.90133C31.1947 10.3876 30.4664 11.0786 30.0813 11.437L29.3865 12.1024L30.2989 11.7697C30.5281 11.6826 30.7574 11.5973 30.9473 11.5267C31.1666 11.4451 31.3334 11.3831 31.3872 11.3602C31.5379 11.3005 33.0866 9.30415 33.0866 9.16763ZM33.4131 10.6435L33.6642 9.87571L33.9153 9.1164H33.706C33.547 9.1164 33.3628 9.31266 32.802 10.072C32.4169 10.6009 32.1071 11.0445 32.1239 11.053C32.1323 11.0701 32.4253 10.9763 32.7768 10.8568L33.4131 10.6435ZM35.7738 9.77332L35.5394 9.61977C35.4055 9.53447 35.1627 9.40647 34.9952 9.33827L34.6855 9.20175L34.5432 9.6539C34.4849 9.83874 34.4216 10.0287 34.3882 10.1289C34.3784 10.1582 34.3712 10.1798 34.3674 10.1914C34.3506 10.2426 34.6604 10.1743 35.0538 10.0293L35.7738 9.77332ZM36.862 15.2591L36.6444 14.8069C36.5272 14.5595 36.3849 14.1073 36.3179 13.8002L36.2091 13.2542L36.0835 13.5101C35.8659 13.9367 35.4473 15.2591 35.2715 16.0695C35.012 17.2895 34.9031 18.5863 34.9617 19.866C35.012 21.0434 35.0957 21.3419 35.2464 20.9068C35.2882 20.7704 35.4808 20.412 35.6566 20.1049C35.9412 19.6271 36.0082 19.4309 36.0919 18.7484C36.2259 17.6905 36.4016 16.8289 36.6527 15.9586L36.862 15.2591ZM26.1803 17.0507C25.9291 16.2914 25.7198 15.3102 25.7115 14.8155C25.7031 14.0988 25.611 14.0732 25.3264 14.7216C24.7906 15.9416 24.6734 16.4705 24.6734 17.7331C24.6734 18.4242 24.7153 19.03 24.7822 19.2433C24.8744 19.5675 24.9162 19.6101 25.1339 19.6101H25.385V20.6765C25.385 21.5638 25.3683 21.7429 25.2594 21.7429C25.0836 21.7429 25.1004 21.8368 25.3515 22.4425C25.7533 23.4236 26.4816 24.4133 27.1765 24.9166L27.4108 25.0958L27.3522 24.891C27.3187 24.7801 27.1346 24.3365 26.9253 23.9185C26.2389 22.4766 25.9794 20.9239 26.1384 19.2944C26.1886 18.791 26.264 18.211 26.3058 18.0232C26.3728 17.7331 26.3477 17.554 26.1803 17.0507ZM19.9353 18.4839L19.8181 17.9635C19.7595 17.6735 19.6925 17.3066 19.6758 17.1445L19.6506 16.863L19.1484 17.4004C17.8089 18.8423 15.4231 21.9733 15.4231 22.2975C15.4231 22.4255 17.9178 23.5943 18.2694 23.6369L18.5373 23.6625L19.2405 21.0775L19.9353 18.4839ZM22.2206 18.7569C22.3462 18.3133 22.4551 17.9209 22.4551 17.8782C22.4551 17.8441 22.3295 17.8185 22.1788 17.8185C21.7937 17.8185 21.1909 18.1512 20.9733 18.4839C20.7641 18.7996 20.6384 19.4138 20.7556 19.5333C20.8059 19.5845 21.0989 19.6101 21.417 19.593L21.9862 19.5674L22.2206 18.7569ZM24.5479 19.5333C24.5479 19.4992 24.4223 19.2944 24.2633 19.0811C24.1042 18.8764 23.8447 18.6034 23.6772 18.4754L23.3842 18.245L23.2587 18.6887C23.2419 18.7508 23.224 18.8167 23.2062 18.8825C23.1529 19.079 23.0996 19.2754 23.0745 19.3712L23.0243 19.6101H23.7861C24.2047 19.6101 24.5479 19.576 24.5479 19.5333ZM20.5296 20.8727C20.5296 20.1646 20.4962 19.9087 20.3455 19.5504C20.245 19.3029 20.1445 19.0982 20.111 19.0982C20.0859 19.0982 19.7762 20.1561 19.433 21.4443L18.8052 23.7819L19.0563 23.8758C19.1986 23.927 19.6925 24.1914 20.1529 24.473C20.6217 24.7546 21.0654 24.9849 21.1407 24.9849C21.4086 24.9849 21.4421 24.6351 21.2747 23.91C21.1826 23.5431 21.0988 22.9032 21.0905 22.4937L21.0738 21.7429H20.8059H20.5296V20.8727ZM37.3225 25.3432C36.7784 24.3706 36.4267 23.4407 36.2342 22.4511C36.1505 22.0671 36.0668 21.3761 36.0333 20.9154L35.9663 20.0793L35.6231 20.8045C35.4306 21.2055 35.2464 21.632 35.2213 21.7514C35.1627 22.0074 35.4891 23.3895 35.8491 24.3877C36.1673 25.275 36.636 26.3072 36.7532 26.384C36.8286 26.4267 37.6824 26.2902 37.7662 26.2134C37.7829 26.1963 37.582 25.8039 37.3225 25.3432ZM38.0257 25.9575C38.0591 25.9148 38.2852 25.2493 38.528 24.4901C38.7623 23.7222 38.9381 23.0739 38.9214 23.0568C38.8963 23.0312 38.7288 23.1933 38.5447 23.4066C38.1931 23.8161 37.9922 24.3109 37.8917 25.002C37.8331 25.4541 37.9169 26.0684 38.0257 25.9575ZM29.0546 23.9595C29.1852 23.5585 29.2844 23.2541 29.3028 23.2103C29.3446 23.0909 29.3195 23.0909 28.8675 23.2018C28.4238 23.3127 28.0303 23.6284 27.7625 24.0891C27.5532 24.456 27.5532 24.4901 27.6536 24.9081C27.7457 25.2835 27.8126 25.3688 28.0889 25.5139C28.2731 25.6077 28.4489 25.6503 28.4824 25.6077C28.5158 25.5735 28.7084 25.036 28.901 24.4304C28.9548 24.2658 29.0068 24.1062 29.0546 23.9595ZM31.044 24.0805C30.9268 23.5004 30.8682 23.3725 30.7175 23.3298C30.3827 23.2359 30.3492 23.2786 30.1315 24.0209C30.0549 24.2758 29.9534 24.6069 29.8612 24.9078C29.8022 25.1002 29.747 25.2802 29.7046 25.42L29.5036 26.0769L30.3575 26.2561C30.818 26.3499 31.3956 26.4608 31.6384 26.4864L32.0737 26.5376L31.6384 25.6589C31.3537 25.0873 31.1445 24.5242 31.044 24.0805ZM33.4382 24.473L32.5676 24.0464C31.5546 23.5601 31.2449 23.4577 31.2449 23.6369C31.2449 24.1573 32.1825 26.3755 32.3332 26.2049C32.3667 26.1708 32.4503 25.966 32.5257 25.7527C32.601 25.5394 32.8355 25.164 33.0531 24.9166L33.4382 24.473ZM36.3095 26.5291C36.477 26.512 35.2464 25.565 34.3256 24.9934C34.0158 24.7972 33.7479 24.6436 33.7228 24.6436C33.706 24.6436 33.5386 24.8142 33.3545 25.019C32.9778 25.4285 32.7182 25.9063 32.6429 26.3158L32.5927 26.5803L33.4466 26.6314C33.9153 26.6571 34.7357 26.64 35.2631 26.6058C35.7905 26.5632 36.2677 26.5291 36.3095 26.5291Z"
        fill="#F9CC00"
    />
    <path
        fill-rule="evenodd"
        clip-rule="evenodd"
        d="M40 32.4204V40H11V32.821C11.6014 32.6385 12.1724 32.3195 12.7454 31.9995C13.6304 31.505 14.52 31.0081 15.5333 31.0081C16.4983 31.0081 17.3324 31.4974 18.1666 31.9867C19.0008 32.476 19.835 32.9653 20.7999 32.9653C21.7648 32.9653 22.5991 32.476 23.4333 31.9867C24.2675 31.4974 25.1017 31.0081 26.0667 31.0081C27.0316 31.0081 27.8658 31.4974 28.7 31.9867C29.5341 32.476 30.3683 32.9653 31.3332 32.9653C32.2982 32.9653 33.1324 32.476 33.9666 31.9867C34.8008 31.4974 35.6351 31.0081 36.6 31.0081C37.5649 31.0081 38.3991 31.4974 39.2333 31.9867C39.4876 32.1359 39.742 32.285 40 32.4204Z"
        fill="white"
    />
    <path
        fill-rule="evenodd"
        clip-rule="evenodd"
        d="M27.72 7.88C28.04 7.78 28.02 7.78 26.27 7.42C25.47 7.25 24.79 7.12 24.76 7.12C24.72 7.12 24.5 7.86 24.32 8.62L24.26 8.85L25.87 8.39999L26.89 8.10999L27.72 7.88ZM23.52 8.5C23.5992 8.23408 23.6759 7.9674 23.75 7.7C23.73 7.7 21.04 9.67 20.97 9.72C20.96 9.75 21.19 9.68999 21.5 9.60999L22.71 9.27L23.36 9.09L23.53 8.49L23.52 8.5ZM31.57 8.17C31.67 8.15 31.75 8.15 31.75 8.17C31.75 8.3 30.21 10.24 30.06 10.3L29.63 10.46L28.98 10.69L28.08 11.02L28.77 10.37L30.37 8.87C30.97 8.31 31.3 8.06 31.34 8.12C31.37 8.18 31.47 8.2 31.57 8.17ZM32.07 9.6L32.32 8.85L32.57 8.12H32.37C32.2 8.12 32.02 8.31 31.47 9.04C31.2264 9.34764 30.9994 9.66809 30.79 10C30.8 10.01 31.09 9.92 31.44 9.8L32.07 9.6Z"
        fill="#0092C8"
    />
    <path d="M0 27H11V40H0V27Z" fill="#CA0000" />
</svg>
