<svg xmlns="http://www.w3.org/2000/svg" width="40" height="40" viewBox="0 0 40 40" fill="none">
    <rect y="29" width="40" height="11" fill="#0052B4" />
    <rect width="40" height="11" fill="black" />
    <rect width="40" height="3" transform="matrix(1 0 0 -1 0 29)" fill="#FFDA44" />
    <rect width="40" height="3" transform="matrix(1 0 0 -1 0 14)" fill="#FFDA44" />
    <rect y="14" width="40" height="12" fill="#A2001D" />
    <path
        d="M39.0555 13.9131H0.944453C0.331797 15.8325 0 17.8775 0 20C0 22.1226 0.331797 24.1675 0.944453 26.087H39.0555C39.6682 24.1675 40 22.1226 40 20C40 17.8775 39.6682 15.8325 39.0555 13.9131Z"
        fill="#A2001D"
    />
    <rect x="6.95648" y="19.1305" width="26.087" height="1.73914" fill="#FFDA44" />
    <rect x="10.4348" y="15.6522" width="19.1305" height="1.73914" fill="#FFDA44" />
    <path
        d="M29.6895 20C29.6895 20 25.2174 25.2174 20 25.2174C14.7827 25.2174 14.7826 20 14.7826 20C14.7826 20 14.7826 14.7826 20 14.7826C25.2174 14.7826 29.6895 20 29.6895 20Z"
        fill="#F0F0F0"
    />
    <path d="M20 25.2174C14.7826 25.2174 10.3105 20 10.3105 20C10.3105 20 14.7826 14.7826 20 14.7826" fill="black" />
    <rect x="16.5217" y="18.2609" width="1.73914" height="3.47828" fill="#F0F0F0" />
    <rect x="21.7391" y="18.2609" width="1.73914" height="3.47828" fill="black" />
    <path
        d="M6.95649 21.7391C7.91699 21.7391 8.69563 20.9605 8.69563 20C8.69563 19.0395 7.91699 18.2609 6.95649 18.2609C5.99599 18.2609 5.21735 19.0395 5.21735 20C5.21735 20.9605 5.99599 21.7391 6.95649 21.7391Z"
        fill="#0052B4"
    />
    <path
        d="M33.0435 21.7391C34.004 21.7391 34.7827 20.9605 34.7827 20C34.7827 19.0395 34.004 18.2609 33.0435 18.2609C32.083 18.2609 31.3044 19.0395 31.3044 20C31.3044 20.9605 32.083 21.7391 33.0435 21.7391Z"
        fill="#0052B4"
    />
</svg>
