<svg xmlns="http://www.w3.org/2000/svg" width="40" height="40" viewBox="0 0 40 40" fill="none">
    <rect width="40" height="11" fill="#D80027" />
    <rect y="29" width="40" height="11" fill="#6DA544" />
    <rect y="11" width="40" height="18" fill="#F0F0F0" />
    <path
        d="M16.5217 25.2174H23.4783V22.2608L22.087 22.9565L20 20.8695L17.9131 22.9565L16.5217 22.2608V25.2174Z"
        fill="#FFDA44"
    />
    <path
        d="M12.5416 21.7391L12.8654 22.7355H13.913L13.0654 23.3514L13.3892 24.3478L12.5416 23.732L11.6939 24.3478L12.0177 23.3514L11.1701 22.7355H12.2177L12.5416 21.7391Z"
        fill="#FFDA44"
    />
    <path
        d="M13.5454 18.2609L13.8692 19.2573H14.9169L14.0692 19.8731L14.393 20.8695L13.5454 20.2538L12.6977 20.8695L13.0216 19.8731L12.1739 19.2573H13.2216L13.5454 18.2609Z"
        fill="#FFDA44"
    />
    <path
        d="M16.4151 15.6522L16.7389 16.6486H17.7865L16.939 17.2645L17.2626 18.2609L16.4151 17.6451L15.5675 18.2609L15.8912 17.2645L15.0436 16.6486H16.0913L16.4151 15.6522Z"
        fill="#FFDA44"
    />
    <path
        d="M27.4584 21.7391L27.1346 22.7355H26.0869L26.9346 23.3514L26.6108 24.3478L27.4584 23.732L28.306 24.3478L27.9823 23.3514L28.8299 22.7355H27.7823L27.4584 21.7391Z"
        fill="#FFDA44"
    />
    <path
        d="M26.4546 18.2609L26.1308 19.2573H25.0831L25.9308 19.8731L25.607 20.8695L26.4546 20.2538L27.3023 20.8695L26.9784 19.8731L27.8261 19.2573H26.7784L26.4546 18.2609Z"
        fill="#FFDA44"
    />
    <path
        d="M23.5849 15.6522L23.2611 16.6486H22.2135L23.061 17.2645L22.7373 18.2609L23.5849 17.6451L24.4325 18.2609L24.1087 17.2645L24.9563 16.6486H23.9087L23.5849 15.6522Z"
        fill="#FFDA44"
    />
    <path
        d="M20 14.3478L20.3238 15.3442H21.3715L20.5238 15.96L20.8477 16.9565L20 16.3407L19.1523 16.9565L19.4762 15.96L18.6285 15.3442H19.6762L20 14.3478Z"
        fill="#FFDA44"
    />
</svg>
