<svg xmlns="http://www.w3.org/2000/svg" width="40" height="40" viewBox="0 0 40 40" fill="none">
    <rect width="39.9999" height="39.9999" fill="#0052B4" />
    <path
        fill-rule="evenodd"
        clip-rule="evenodd"
        d="M40 31.3043H36.4996H11.3044V28.6956H38.0154C38.2888 28.1303 38.5357 27.5499 38.756 26.9565H11.3044L32.1739 9.56517C31.9945 10.4273 31.913 11.3455 31.913 12.2608C31.913 17.5369 35.4926 21.9443 40 24V31.3043Z"
        fill="#FFDA44"
    />
    <path
        d="M14.6931 10.4348L15.1248 11.7634H16.5217L15.3916 12.5846L15.8233 13.9131L14.6931 13.0921L13.563 13.9131L13.9947 12.5846L12.8644 11.7634H14.2614L14.6931 10.4348Z"
        fill="#F0F0F0"
    />
    <path
        d="M9.01857 20L9.55826 21.6608H11.3043L9.89161 22.687L10.4313 24.3478L9.01857 23.3214L7.60591 24.3478L8.14552 22.687L6.73287 21.6608H8.47896L9.01857 20Z"
        fill="#F0F0F0"
    />
    <path
        d="M9.01857 6.0869L9.55826 7.74776H11.3043L9.89161 8.77393L10.4313 10.4347L9.01857 9.40831L7.60591 10.4347L8.14552 8.77393L6.73287 7.74776H8.47896L9.01857 6.0869Z"
        fill="#F0F0F0"
    />
    <path
        d="M4.67077 13.9131L5.21045 15.5739H6.95647L5.54381 16.6001L6.0835 18.2609L4.67077 17.2345L3.25811 18.2609L3.79772 16.6001L2.38507 15.5739H4.13108L4.67077 13.9131Z"
        fill="#F0F0F0"
    />
</svg>
