<svg xmlns="http://www.w3.org/2000/svg" width="40" height="40" viewBox="0 0 40 40" fill="none">
    <rect width="40" height="40" fill="#D80027" />
    <path
        d="M20 29.5653C25.2827 29.5653 29.5652 25.2828 29.5652 20C29.5652 14.7173 25.2827 10.4348 20 10.4348C14.7173 10.4348 10.4348 14.7173 10.4348 20C10.4348 25.2828 14.7173 29.5653 20 29.5653Z"
        fill="#F0F0F0"
    />
    <path
        d="M21.1784 16.3427L22.8193 18.604L25.4769 17.7423L23.8334 20.0016L25.4741 22.2629L22.8174 21.3979L21.1739 23.6573L21.1756 20.8634L18.519 19.9984L21.1766 19.1367L21.1784 16.3427Z"
        fill="#D80027"
    />
    <path
        d="M22.1739 25.6522C19.0523 25.6522 16.5217 23.1216 16.5217 20C16.5217 16.8785 19.0523 14.3478 22.1739 14.3478C23.1472 14.3478 24.063 14.5939 24.8626 15.0272C23.6083 13.8006 21.893 13.0435 20 13.0435C16.1581 13.0435 13.0435 16.158 13.0435 19.9999C13.0435 23.8419 16.1581 26.9564 20 26.9564C21.893 26.9564 23.6084 26.1993 24.8626 24.9727C24.063 25.4061 23.1472 25.6522 22.1739 25.6522Z"
        fill="#D80027"
    />
</svg>
