<svg xmlns="http://www.w3.org/2000/svg" width="40" height="40" viewBox="0 0 40 40" fill="none">
    <rect x="6.1035e-05" y="0.00012207" width="39.9999" height="19.9999" fill="#D21034" />
    <rect x="6.1035e-05" y="20.0001" width="39.9999" height="19.9999" fill="#009543" />
    <path d="M0 0.00012207L5.073e-05 40L20 20L0 0.00012207Z" fill="black" />
    <path
        d="M39.922 19.961C39.922 19.0786 39.864 18.2097 39.753 17.3574H17.3572C13.2792 13.2796 5.84612 5.84704 5.84643 5.84642C-1.94879 13.6416 -1.94879 26.2802 5.84643 34.0756L17.3574 22.5647H39.753C39.8639 21.7123 39.922 20.8434 39.922 19.961Z"
        fill="black"
    />
    <path
        d="M39.9029 19.0859H16.6239L7.80802e-05 2.22216L7.31463e-05 4.51104L15.0371 19.9536L6.1035e-05 35.4887V37.7776L16.6241 20.8216H39.9057C39.9181 20.5337 39.922 20.2446 39.922 19.9538C39.922 19.5641 39.9112 19.2768 39.9029 19.0859Z"
        fill="#FFDA44"
    />
    <path
        d="M4.84895 24.2161V22.5441C6.51741 22.5441 7.87467 21.1867 7.87467 19.5184C7.87467 18.338 6.91429 17.3777 5.73394 17.3777C4.92981 17.3777 4.27554 18.0318 4.27554 18.8361C4.27554 19.3504 4.69387 19.7688 5.20817 19.7688C5.49885 19.7688 5.73534 19.5321 5.73534 19.2414H7.40723C7.40723 20.4541 6.42072 21.4406 5.20825 21.4406C3.77207 21.4407 2.60381 20.2722 2.60381 18.8363C2.60381 17.1102 4.0081 15.706 5.73402 15.706C7.83631 15.706 9.54672 17.4164 9.54672 19.5186C9.54664 22.1086 7.43928 24.2161 4.84895 24.2161Z"
        fill="#FFDA44"
    />
</svg>
