<svg xmlns="http://www.w3.org/2000/svg" width="40" height="40" viewBox="0 0 40 40" fill="none">
    <rect width="40" height="40" fill="#D80027" />
    <path
        d="M20 40C31.0457 40 40 31.0457 40 20C40 8.9543 31.0457 0 20 0C8.9543 0 0 8.9543 0 20C0 31.0457 8.9543 40 20 40Z"
        fill="#D80027"
    />
    <path d="M0 0H13.5007V13.5007H0V0Z" fill="#F0F0F0" />
    <path d="M0 0H6.75035V13.5007H0V0Z" fill="#002395" />
    <path d="M0.222229 13.5007H20.4733V0" stroke="white" stroke-width="0.888889" />
    <path
        fill-rule="evenodd"
        clip-rule="evenodd"
        d="M24.4444 13.5555L29.1111 18.2222L33.7778 13.5555H24.4444ZM22.8889 15.1111L27.5556 19.7778L22.8889 24.4444V15.1111ZM29.1111 21.3333L24.4444 26H33.7778L29.1111 21.3333ZM35.3333 15.1111L30.6667 19.7778L35.3333 24.4444V15.1111Z"
        fill="white"
    />
</svg>
