<svg xmlns="http://www.w3.org/2000/svg" width="1em" height="1em">
    <g id="discord" xmlns="http://www.w3.org/2000/svg">
        <svg x="50%" y="50%" width="1em" height="1em" overflow="visible" viewBox="0 0 16 16">
            <svg x="-8" y="-8">
                <g>
                    <g>
                        <path
                            d="M13.5533 3.00498C12.5021 2.52873 11.3923 2.19086 10.2524 2C10.0964 2.27595 9.95524 2.55987 9.82954 2.85056C8.61527 2.66949 7.38044 2.66949 6.16617 2.85056C6.0404 2.5599 5.89926 2.27598 5.74333 2C4.60265 2.19247 3.49216 2.53114 2.43989 3.00747C0.350853 6.066 -0.215452 9.04857 0.0677004 11.9888C1.29109 12.8833 2.66042 13.5635 4.11615 14C4.44394 13.5637 4.73399 13.1009 4.98323 12.6164C4.50984 12.4415 4.05293 12.2256 3.6178 11.9714C3.73232 11.8892 3.84432 11.8045 3.95255 11.7223C5.21868 12.3115 6.60059 12.617 7.99974 12.617C9.39889 12.617 10.7808 12.3115 12.0469 11.7223C12.1564 11.8107 12.2684 11.8954 12.3817 11.9714C11.9457 12.226 11.488 12.4423 11.0137 12.6177C11.2627 13.1019 11.5527 13.5644 11.8808 14C13.3378 13.5653 14.7082 12.8853 15.9318 11.99C16.264 8.58032 15.3642 5.62516 13.5533 3.00498ZM5.34189 10.1806C4.55283 10.1806 3.90095 9.47198 3.90095 8.60025C3.90095 7.72852 4.53018 7.0137 5.33937 7.0137C6.14856 7.0137 6.7954 7.72852 6.78156 8.60025C6.76772 9.47198 6.14604 10.1806 5.34189 10.1806ZM10.6576 10.1806C9.86729 10.1806 9.21793 9.47198 9.21793 8.60025C9.21793 7.72852 9.84716 7.0137 10.6576 7.0137C11.468 7.0137 12.1099 7.72852 12.096 8.60025C12.0822 9.47198 11.4618 10.1806 10.6576 10.1806Z"
                            fill="currentColor"
                            fill-opacity="0.65"
                        />
                    </g>
                </g>
            </svg>
        </svg>
    </g>
</svg>
