<svg xmlns="http://www.w3.org/2000/svg" width="1em" height="1em">
    <g id="telegram" xmlns="http://www.w3.org/2000/svg">
        <svg x="50%" y="50%" width="1em" height="1em" overflow="visible" viewBox="0 0 16 16">
            <svg x="-8" y="-8">
                <path
                    fill-rule="evenodd"
                    clip-rule="evenodd"
                    d="M1.44093 7.18731C5.51481 5.38123 8.22684 4.18113 9.58868 3.59891C13.4647 1.94729 14.2795 1.66212 14.8032 1.65024C14.9196 1.65024 15.1757 1.674 15.3503 1.81659C15.49 1.93541 15.5249 2.08988 15.5482 2.2087C15.5715 2.32752 15.5947 2.57704 15.5715 2.76716C15.3619 5.02476 14.4541 10.5024 13.9885 13.0214C13.7906 14.0908 13.4065 14.4473 13.034 14.4829C12.2192 14.5542 11.6023 13.9364 10.8225 13.4136C9.58868 12.5937 8.90194 12.0828 7.70306 11.2748C6.31794 10.348 7.21419 9.83703 8.00569 9.00528C8.2152 8.7914 11.7886 5.4644 11.8584 5.16735C11.8701 5.1317 11.87 4.98912 11.7886 4.91782C11.7071 4.84653 11.5907 4.8703 11.4976 4.89406C11.3695 4.91783 9.41409 6.24862 5.60792 8.87458C5.04922 9.26669 4.54871 9.4568 4.09477 9.44492C3.59426 9.43304 2.63981 9.15975 1.91816 8.9221C1.04518 8.63693 0.346805 8.48247 0.405003 7.98342C0.439922 7.72201 0.789111 7.4606 1.44093 7.18731Z"
                    fill="currentColor"
                    fill-opacity="0.65"
                />
            </svg>
        </svg>
    </g>
</svg>
