<svg xmlns="http://www.w3.org/2000/svg" width="24" height="24" viewBox="0 0 24 24">
    <path
        vector-effect="non-scaling-stroke"
        d="M19 3H5c-1.1 0-2 .9-2 2v14c0 1.1.9 2 2 2h14c1.1 0 2-.9 2-2V5c0-1.1-.9-2-2-2zM9.25 15c-.41 0-.75-.34-.75-.75V10.5h-.75c-.41 0-.75-.34-.75-.75S7.34 9 7.75 9H9c.55 0 1 .45 1 1v4.25c0 .41-.34.75-.75.75zm6.34 0c-.22 0-.42-.1-.55-.27l-1.54-1.98v1.5c0 .41-.34.75-.75.75s-.75-.34-.75-.75v-4.5c0-.41.34-.75.75-.75s.75.34.75.75v1.5l1.54-1.98a.698.698 0 0 1 1.11.85L14.75 12l1.41 1.88c.34.46.01 1.12-.57 1.12z"
    />
</svg>
