<svg xmlns="http://www.w3.org/2000/svg" width="24" height="24" viewBox="0 0 24 24">
    <path
        vector-effect="non-scaling-stroke"
        d="M20.19 4H4c-1.1 0-1.99.9-1.99 2v4c1.1 0 1.99.9 1.99 2s-.89 2-2 2v4c0 1.1.9 2 2 2h16c1.1 0 2-.9 2-2V6c0-1.1-.81-2-1.81-2zm-2.46 9.3-8.49 2.26a.499.499 0 0 1-.56-.23l-1.12-1.95c-.18-.3-.01-.69.32-.78.16-.04.34-.01.47.1l1.05.82 2.39-.64L9.9 9.6a.788.788 0 0 1 .47-1.15.8.8 0 0 1 .74.18l3.69 3.44 2.44-.65a.967.967 0 0 1 1.18.68.994.994 0 0 1-.69 1.2z"
    />
</svg>
