<svg xmlns="http://www.w3.org/2000/svg" width="24" height="24" viewBox="0 0 24 24">
    <path
        vector-effect="non-scaling-stroke"
        d="m20.45 6 .49-1.06L22 4.45a.5.5 0 0 0 0-.91l-1.06-.49L20.45 2a.5.5 0 0 0-.91 0l-.49 1.06-1.05.49a.5.5 0 0 0 0 .91l1.06.49.49 1.05c.17.39.73.39.9 0zm-2.74 3.12-2.83-2.83a.996.996 0 0 0-1.41 0L2.29 17.46a.996.996 0 0 0 0 1.41l2.83 2.83c.39.39 1.02.39 1.41 0L17.7 10.53c.4-.38.4-1.02.01-1.41zm-3.5 2.09L12.8 9.8l1.38-1.38 1.41 1.41-1.38 1.38z"
    />
</svg>
