<svg xmlns="http://www.w3.org/2000/svg" width="24" height="24" viewBox="0 0 24 24">
    <path
        vector-effect="non-scaling-stroke"
        d="M22 3H2C.9 3 0 3.9 0 5v14c0 1.1.9 2 2 2h20c1.1 0 1.99-.9 1.99-2L24 5c0-1.1-.9-2-2-2zM9 8c1.65 0 3 1.35 3 3s-1.35 3-3 3-3-1.35-3-3 1.35-3 3-3zM2.08 19c1.38-2.39 3.96-4 6.92-4s5.54 1.61 6.92 4H2.08zm18.52-8.5c-.21.36-.67.48-1.02.27l-.82-.48v.95c0 .41-.34.75-.75.75s-.75-.34-.75-.75v-.94l-.82.48a.746.746 0 0 1-.75-1.29L16.5 9l-.82-.48a.742.742 0 0 1-.27-1.02c.21-.36.67-.48 1.02-.27l.82.48v-.96c0-.41.34-.75.75-.75s.75.34.75.75v.95l.82-.48a.746.746 0 0 1 .75 1.29L19.5 9l.82.48c.36.2.49.66.28 1.02z"
    />
</svg>
