<svg xmlns="http://www.w3.org/2000/svg" width="24" height="24" viewBox="0 0 24 24">
    <path
        vector-effect="non-scaling-stroke"
        d="M14.9 3H9.1c-.53 0-1.04.21-1.42.59l-4.1 4.1C3.21 8.06 3 8.57 3 9.1v5.8c0 .53.21 1.04.59 1.41l4.1 4.1c.37.38.88.59 1.41.59h5.8c.53 0 1.04-.21 1.41-.59l4.1-4.1c.38-.37.59-.88.59-1.41V9.1c0-.53-.21-1.04-.59-1.41l-4.1-4.1c-.37-.38-.88-.59-1.41-.59zm.64 12.54a.996.996 0 0 1-1.41 0L12 13.41l-2.12 2.12a.996.996 0 1 1-1.41-1.41L10.59 12 8.46 9.88a.996.996 0 1 1 1.41-1.41L12 10.59l2.12-2.12a.996.996 0 1 1 1.41 1.41L13.41 12l2.12 2.12c.4.39.4 1.03.01 1.42z"
    />
</svg>
