<svg xmlns="http://www.w3.org/2000/svg" width="24" height="24" viewBox="0 0 24 24">
    <path
        vector-effect="non-scaling-stroke"
        d="M7 8c-.55 0-1 .45-1 1v6c0 1.1.9 2 2 2h8c.55 0 1-.45 1-1s-.45-1-1-1H8V9c0-.55-.45-1-1-1z"
    />
    <path
        vector-effect="non-scaling-stroke"
        d="M20 3h-8c-1.1 0-2 .9-2 2v6c0 1.1.9 2 2 2h8c1.1 0 2-.9 2-2V5c0-1.1-.9-2-2-2zm0 8h-8V7h8v4zM3 12c-.55 0-1 .45-1 1v6c0 1.1.9 2 2 2h8c.55 0 1-.45 1-1s-.45-1-1-1H4v-6c0-.55-.45-1-1-1z"
    />
</svg>
