<svg xmlns="http://www.w3.org/2000/svg" width="24" height="24" viewBox="0 0 24 24">
    <path
        vector-effect="non-scaling-stroke"
        d="M15 18.5A6.48 6.48 0 0 1 9.24 15h5.14c.38 0 .73-.21.89-.55.33-.66-.15-1.45-.89-1.45h-5.8c-.05-.33-.08-.66-.08-1s.03-.67.08-1h5.8c.38 0 .73-.21.89-.55A.994.994 0 0 0 14.38 9H9.24A6.491 6.491 0 0 1 15 5.5c1.25 0 2.42.36 3.42.97.5.31 1.15.26 1.57-.16.58-.58.45-1.53-.25-1.96A9.034 9.034 0 0 0 15 3c-3.92 0-7.24 2.51-8.48 6h-2.9c-.38 0-.73.21-.9.55-.33.67.15 1.45.9 1.45h2.44a8.262 8.262 0 0 0 0 2H3.62c-.38 0-.73.21-.89.55-.34.67.14 1.45.89 1.45h2.9c1.24 3.49 4.56 6 8.48 6 1.74 0 3.36-.49 4.74-1.35.69-.43.82-1.39.24-1.97-.42-.42-1.07-.47-1.57-.15-.99.62-2.15.97-3.41.97z"
    />
</svg>
