<svg xmlns="http://www.w3.org/2000/svg" width="24" height="24" viewBox="0 0 24 24">
    <path
        vector-effect="non-scaling-stroke"
        d="M20.49 20.49 3.51 3.51A.996.996 0 1 0 2.1 4.92l3.5 3.5a7.73 7.73 0 0 0-1.6 4.7C4 17.48 7.58 21 12 21c1.75 0 3.36-.56 4.67-1.5l2.4 2.4c.39.39 1.02.39 1.41 0 .4-.39.4-1.02.01-1.41zM12 19c-3.31 0-6-2.63-6-5.87 0-1.19.36-2.32 1.02-3.28L12 14.83V19zM8.38 5.56l2.91-2.87c.39-.38 1.01-.38 1.4 0l4.95 4.87C19.1 8.99 20 10.96 20 13.13c0 1.18-.27 2.29-.74 3.3L12 9.17V4.81L9.8 6.97 8.38 5.56z"
    />
</svg>
