<svg xmlns="http://www.w3.org/2000/svg" width="24" height="24" viewBox="0 0 24 24">
    <path
        vector-effect="non-scaling-stroke"
        d="M5.7 6.71a.996.996 0 0 0 0 1.41L9.58 12 5.7 15.88a.996.996 0 1 0 1.41 1.41l4.59-4.59a.996.996 0 0 0 0-1.41L7.12 6.71c-.39-.39-1.03-.39-1.42 0z"
    />
    <path
        vector-effect="non-scaling-stroke"
        d="M12.29 6.71a.996.996 0 0 0 0 1.41L16.17 12l-3.88 3.88a.996.996 0 1 0 1.41 1.41l4.59-4.59a.996.996 0 0 0 0-1.41L13.7 6.7c-.38-.38-1.02-.38-1.41.01z"
    />
</svg>
