<svg xmlns="http://www.w3.org/2000/svg" width="24" height="24" viewBox="0 0 24 24">
    <path
        vector-effect="non-scaling-stroke"
        d="m9 5 .01 8.55c-.6-.34-1.28-.55-2-.55a4.001 4.001 0 1 0 0 8C9.23 21 11 19.21 11 17V7h2c1.1 0 2-.9 2-2s-.9-2-2-2h-2c-1.1 0-2 .9-2 2zm11.29 6.72-2.47-2.47c-.32-.31-.85-.09-.85.35v3.94l-2.33-2.33a.61.61 0 0 0-.85 0 .61.61 0 0 0 0 .85L16.73 15l-2.93 2.93a.61.61 0 0 0 0 .85c.23.23.61.23.85 0l2.33-2.33v3.94c0 .45.54.67.85.35l2.46-2.46a.996.996 0 0 0 0-1.41L18.42 15l1.87-1.86c.39-.39.39-1.03 0-1.42zm-2.12-.42 1.13 1.13-1.13 1.13V11.3zm1.13 6.27-1.13 1.13v-2.26l1.13 1.13z"
    />
</svg>
