<svg xmlns="http://www.w3.org/2000/svg" width="24" height="24" viewBox="0 0 24 24">
    <path
        vector-effect="non-scaling-stroke"
        d="M3 17h18c.55 0 1 .45 1 1s-.45 1-1 1H3c-.55 0-1-.45-1-1s.45-1 1-1zm-.5-4.43c.36.21.82.08 1.03-.28l.47-.82.48.83c.21.36.67.48 1.03.28.36-.21.48-.66.28-1.02l-.49-.84h.95c.41 0 .75-.34.75-.75s-.34-.75-.75-.75H5.3l.47-.82c.21-.36.09-.82-.27-1.03a.764.764 0 0 0-1.03.28L4 8.47l-.47-.82a.764.764 0 0 0-1.03-.28c-.36.21-.48.67-.27 1.03l.47.82h-.95c-.41 0-.75.34-.75.75s.34.75.75.75h.95l-.48.83c-.2.36-.08.82.28 1.02zm8 0c.36.21.82.08 1.03-.28l.47-.82.48.83c.21.36.67.48 1.03.28.36-.21.48-.66.28-1.02l-.48-.83h.95c.41 0 .75-.34.75-.75s-.34-.75-.75-.75h-.96l.47-.82a.76.76 0 0 0-.27-1.03.746.746 0 0 0-1.02.27l-.48.82-.47-.82a.742.742 0 0 0-1.02-.27c-.36.21-.48.67-.27 1.03l.47.82h-.96a.74.74 0 0 0-.75.74c0 .41.34.75.75.75h.95l-.48.83c-.2.36-.08.82.28 1.02zM23 9.97c0-.41-.34-.75-.75-.75h-.95l.47-.82a.76.76 0 0 0-.27-1.03.746.746 0 0 0-1.02.27l-.48.83-.47-.82a.742.742 0 0 0-1.02-.27c-.36.21-.48.67-.27 1.03l.47.82h-.95a.743.743 0 0 0-.76.74c0 .41.34.75.75.75h.95l-.48.83a.74.74 0 0 0 .28 1.02c.36.21.82.08 1.03-.28l.47-.82.48.83c.21.36.67.48 1.03.28.36-.21.48-.66.28-1.02l-.48-.83h.95c.4-.01.74-.35.74-.76z"
    />
</svg>
