<svg xmlns="http://www.w3.org/2000/svg" width="24" height="24" viewBox="0 0 24 24">
    <circle vector-effect="non-scaling-stroke" cx="12" cy="12" r="2" />
    <path
        vector-effect="non-scaling-stroke"
        d="M19 3H5a2 2 0 0 0-2 2v14a2 2 0 0 0 2 2h14a2 2 0 0 0 2-2V5a2 2 0 0 0-2-2zm-3.25 9c0 .22-.03.42-.06.63l.84.73c.18.16.22.42.1.63l-.59 1.02c-.12.21-.37.3-.59.22l-1.06-.36c-.32.27-.68.48-1.08.63l-.22 1.09c-.05.23-.25.4-.49.4h-1.18c-.24 0-.44-.17-.49-.4l-.22-1.09c-.4-.15-.76-.36-1.08-.63l-1.06.36a.496.496 0 0 1-.59-.22l-.59-1.02a.503.503 0 0 1 .1-.63l.84-.73c-.05-.21-.08-.41-.08-.63s.03-.42.06-.63l-.84-.73a.503.503 0 0 1-.1-.63l.59-1.02c.12-.21.37-.3.59-.22l1.06.36c.32-.27.68-.48 1.08-.63l.22-1.09c.06-.24.26-.41.5-.41h1.18c.24 0 .44.17.49.4l.22 1.09c.4.15.76.36 1.08.63l1.06-.36c.23-.08.47.02.59.22l.59 1.02c.12.21.08.47-.1.63l-.84.73c.04.22.07.42.07.64z"
    />
</svg>
