<svg xmlns="http://www.w3.org/2000/svg" width="24" height="24" viewBox="0 0 24 24">
    <path
        vector-effect="non-scaling-stroke"
        d="M15 9H9c-.55 0-1 .45-1 1v12c0 .55.45 1 1 1h6c.55 0 1-.45 1-1V10c0-.55-.45-1-1-1zm-3 5.25a1.25 1.25 0 1 1 0-2.5 1.25 1.25 0 0 1 0 2.5zM7.82 6.82c.35.35.9.38 1.3.1C9.93 6.34 10.93 6 12 6c1.07 0 2.07.34 2.88.91.4.28.95.26 1.3-.09.43-.43.39-1.15-.09-1.5A6.959 6.959 0 0 0 12 4c-1.53 0-2.94.49-4.09 1.32-.49.35-.52 1.07-.09 1.5z"
    />
    <path
        vector-effect="non-scaling-stroke"
        d="M12 0C9.36 0 6.94.93 5.05 2.47c-.46.38-.5 1.07-.08 1.49.36.36.93.39 1.32.07A9.034 9.034 0 0 1 12 2c2.17 0 4.16.77 5.7 2.04.39.32.96.29 1.32-.07.42-.42.38-1.11-.08-1.49C17.06.93 14.64 0 12 0z"
    />
</svg>
