<svg xmlns="http://www.w3.org/2000/svg" width="40" height="40" viewBox="0 0 40 40" fill="none">
    <rect width="40" height="40" fill="#F0F0F0" />
    <rect y="23" width="40" height="6" fill="#6DA544" />
    <rect y="34" width="40" height="6" fill="#6DA544" />
    <rect y="11" width="40" height="6" fill="#6DA544" />
    <rect width="40" height="6" fill="#6DA544" />
    <rect width="20" height="17" fill="#D80027" />
    <path
        d="M8.65219 12.6812L7.78265 10.9421V7.46384L9.95656 5.7247L12.1305 7.46384V10.0725L13 9.20298V10.9421L11.2609 12.6812H8.65219Z"
        fill="#F0F0F0"
    />
    <path
        d="M3.97523 7.34781L4.20547 8.0564H4.95047L4.34773 8.49445L4.57805 9.20297L3.97523 8.765L3.37242 9.20297L3.60273 8.49445L3 8.0564H3.745L3.97523 7.34781Z"
        fill="#F0F0F0"
    />
    <path
        d="M5.71437 5.60867L5.9446 6.31727H6.68968L6.08687 6.75531L6.3171 7.46383L5.71437 7.02594L5.11164 7.46383L5.34195 6.75531L4.73914 6.31727H5.48406L5.71437 5.60867Z"
        fill="#F0F0F0"
    />
    <path
        d="M7.45351 3.86954L7.68374 4.57813H8.42866L7.82601 5.01618L8.05616 5.72469L7.45351 5.2868L6.85069 5.72469L7.08093 5.01618L6.47827 4.57813H7.22319L7.45351 3.86954Z"
        fill="#F0F0F0"
    />
    <path
        d="M15.9378 7.34781L15.7076 8.0564H14.9626L15.5653 8.49445L15.3351 9.20297L15.9378 8.765L16.5406 9.20297L16.3104 8.49445L16.913 8.0564H16.1681L15.9378 7.34781Z"
        fill="#F0F0F0"
    />
    <path
        d="M14.1987 5.60867L13.9684 6.31727H13.2235L13.8262 6.75531L13.5959 7.46383L14.1987 7.02594L14.8015 7.46383L14.5712 6.75531L15.1739 6.31727H14.429L14.1987 5.60867Z"
        fill="#F0F0F0"
    />
    <path
        d="M12.4596 3.86954L12.2293 4.57813H11.4844L12.087 5.01618L11.8568 5.72469L12.4596 5.2868L13.0623 5.72469L12.8321 5.01618L13.4348 4.57813H12.6898L12.4596 3.86954Z"
        fill="#F0F0F0"
    />
    <path
        d="M9.95656 3L9.72625 3.70859H8.98132L9.58398 4.14656L9.35375 4.85508L9.95656 4.41719L10.5593 4.85508L10.3291 4.14656L10.9317 3.70859H10.1868L9.95656 3Z"
        fill="#F0F0F0"
    />
</svg>
