<svg xmlns="http://www.w3.org/2000/svg" width="40" height="40" viewBox="0 0 40 40" fill="none">
    <g clip-path="url(#clip0_28106_2499)">
        <path
            d="M0 20C0 21.37 0.137778 22.7078 0.4 24L20 25.2178L39.6 24C39.8668 22.6834 40.0008 21.3434 40 20C40 18.63 39.8622 17.2922 39.6 16L20 14.7822L0.4 16C0.137778 17.2922 0 18.63 0 20Z"
            fill="#0052B4"
        />
        <path
            d="M39.6 24H0.400024C2.25336 33.1289 10.3245 40 20 40C29.6756 40 37.7467 33.1289 39.6 24Z"
            fill="#F0F0F0"
        />
        <path d="M0 16H40V0H0V16Z" fill="#3D3D3D" />
        <path
            d="M28.6956 16H11.3044L14.8578 14.3289L12.9667 10.8889L16.8244 11.6267L17.3133 7.72889L20 10.5944L22.6889 7.72778L23.1778 11.6256L27.0333 10.8889L25.1411 14.33L28.6956 16Z"
            fill="#FFDA44"
        />
        <path
            d="M-3.24799e-07 40.0002H20L-1.91336e-05 0C-1.91336e-05 0 -0.00644307 35.6718 -3.24799e-07 40.0002Z"
            fill="#A2001D"
        />
        <path d="M20 40.0002H40V0L20 40.0002Z" fill="#A2001D" />
    </g>
    <defs>
        <clipPath id="clip0_28106_2499">
            <rect width="40" height="40" fill="white" />
        </clipPath>
    </defs>
</svg>
