<svg xmlns="http://www.w3.org/2000/svg" width="40" height="40" viewBox="0 0 40 40" fill="none">
    <rect width="40" height="40" fill="#3A7DCE" />
    <path
        d="M7.36518 19.2807C7.09421 18.7386 7.09421 18.7386 7.09421 18.1967C6.9587 18.1967 6.9333 18.2221 6.85494 18.2008C6.77659 18.1797 6.74697 18.7006 6.49286 18.5989C6.45054 18.5481 6.67497 18.1713 6.43149 18.0147C6.35314 17.9637 6.45054 17.6546 6.41665 17.5191C6.41665 17.5191 6.10758 17.6799 5.87466 17.1126C5.76027 16.9643 5.60363 17.2481 5.60363 17.2481C5.60363 17.2481 5.67136 17.4217 5.54861 17.4641C5.37499 17.337 5.2479 17.4036 5.02775 17.229C4.80753 17.0543 5.07435 16.8543 4.6551 16.7061C4.92613 16.0286 4.92613 16.164 5.60363 15.8931C5.19709 15.622 5.19709 15.622 4.92613 15.2155C4.51959 15.08 4.38408 14.9445 3.97754 14.6735C3.43555 13.9959 3.16452 12.6409 3.16452 11.6924C3.50755 11.3748 3.97754 12.7764 4.6551 13.1829L5.60363 13.5895C6.14562 13.8605 6.28113 14.1314 6.68767 14.4025L7.90723 14.809C8.44922 15.2155 8.72024 15.7575 9.12679 15.8931C9.56715 15.8931 9.65199 15.6394 9.79319 15.6236C10.5898 15.5828 10.9964 15.4802 11.1551 15.2409C11.316 15.0504 11.7013 15.351 12.7854 14.9445L12.6499 14.4025C12.6499 14.4025 12.9379 14.1653 13.3274 14.267C13.3169 14.0193 13.2914 13.3587 13.6751 13.0606C13.4421 12.8162 13.5985 12.6409 13.5985 12.6409C13.5985 12.6409 13.8145 12.4334 13.8398 12.3233C13.7256 11.7262 13.939 11.717 13.9868 11.5413C14.0346 11.3657 13.8025 11.4259 13.868 11.1837C13.9333 10.9415 14.3258 10.884 14.3784 10.6845C14.4311 10.485 14.2665 10.3849 14.276 10.3373C14.3607 10.1468 14.2887 9.69791 14.276 9.52429C15.0043 9.32949 15.2415 8.73666 15.4955 8.98226C15.631 8.16923 15.7666 7.89822 16.5796 7.89822C16.694 7.64839 16.2831 7.43665 16.4441 7.35619C16.7151 7.32232 16.9225 7.33926 17.2403 7.75002C17.3406 7.88018 17.3588 7.55946 17.4604 7.52558C17.562 7.4917 17.8052 7.49117 17.8414 7.33079C17.8796 7.16563 17.9346 6.94968 18.0701 6.67867C18.1845 6.45848 18.2734 6.76336 18.375 7.19528C18.9467 7.21645 20.2382 7.3435 20.7802 7.4917C21.1868 7.59757 21.4578 7.38583 21.8473 7.34349C22.1353 7.63143 22.4063 7.41548 22.5587 8.02948C22.774 8.36079 23.1261 8.05913 23.2024 8.15652C23.6556 9.40572 25.2139 8.56303 25.3324 8.58421C25.5314 8.58421 25.7744 9.14275 25.9311 9.12888C26.1857 9.086 26.1136 8.91239 26.3359 8.98226C26.2766 9.45229 26.7722 9.99432 26.7722 10.3458C26.7722 10.3458 26.8928 10.4051 27.0046 10.3008C27.1162 10.1965 27.2189 9.92869 27.3184 9.93502C27.5555 9.96891 27.6516 9.99935 27.9249 10.0471C28.6596 10.2982 29.0339 10.3548 29.3193 10.4834C29.452 10.7264 29.5807 10.8508 29.8497 10.8054C30.0721 10.9547 29.9099 11.1503 30.0412 11.1631C30.3122 11.0275 30.4012 10.8793 30.6721 11.0148C30.9431 11.1503 31.2142 11.4214 31.3497 11.6924C31.3497 11.8278 31.2142 12.3699 31.3497 13.1829C31.4174 13.4539 31.4502 13.6688 31.7414 14.1336C31.664 14.6111 32.1077 15.4145 32.1077 15.6178C32.1077 15.8888 31.8917 16.0286 31.7562 16.2995C32.2982 16.7061 31.7562 17.3836 31.4852 17.7901C33.5178 18.1967 32.5692 19.0097 34.1953 18.6031C33.7887 19.5517 33.9327 19.4755 34.3392 20.424C33.5261 20.9661 34.3224 21.1312 33.7804 21.8087C33.7465 21.851 34.1021 22.3973 34.6018 22.3973C34.4663 23.4814 34.0598 23.0748 34.1953 24.7009C33.1281 24.6798 33.56 25.9163 32.8402 25.785C32.8825 26.5599 33.2509 26.6276 33.1112 27.411C32.5692 27.5465 32.5692 27.5465 32.2982 27.953L31.8917 27.8175C31.7562 28.495 31.4852 28.6305 31.8917 29.3081C31.8917 29.3081 31.3666 29.325 31.2142 29.3081C31.2014 29.541 31.4471 29.6045 31.4852 29.8501C31.464 29.9475 30.7144 30.3752 30.1301 30.3921C29.9777 30.7267 30.5366 31.0824 30.5028 31.2518C29.8675 31.3745 29.5881 32.1537 29.5881 32.1537C29.5881 32.1537 29.9141 32.285 29.8591 32.4247C29.6855 32.2976 29.5881 32.2892 29.3171 32.2892C29.1816 32.3231 28.8513 32.2809 28.5346 32.8153C28.1871 32.93 28.023 32.8886 27.7593 33.2372C27.6426 32.9051 27.4747 33.2403 27.2694 33.3692C27.0643 33.4982 26.788 33.8189 26.7509 33.8053C26.7594 33.712 26.878 33.3732 26.878 33.3732L26.2004 33.5088C26.2004 33.5088 26.1702 33.5117 26.117 33.5171C26.0637 33.5224 26.078 33.1216 25.9495 33.1361C25.8212 33.1508 25.4538 33.6402 25.3286 33.6555C25.2036 33.6708 25.164 33.4998 25.0562 33.5147C24.9485 33.5296 24.7385 34.031 24.6622 34.0443C24.5859 34.0576 24.2833 33.7395 24.024 33.7839C22.69 34.2541 22.4783 32.8567 22.2708 33.6443C21.9914 33.496 22.0398 33.582 21.7558 33.6564C21.5746 33.7032 21.5581 33.4169 21.397 33.4213C21.0746 33.4304 21.0915 33.7353 20.9157 33.6443C20.7719 33.009 19.9036 33.1233 19.819 32.8524C19.7501 32.5697 20.1951 32.5711 20.3391 32.3796C20.4491 32.1033 20.2241 31.9984 20.6706 31.7318C21.2526 31.3382 20.9181 31.1897 21.0201 30.8939C21.2026 30.4668 21.2037 30.3625 21.0512 29.9856C21.0512 29.9856 20.5981 28.7661 20.5092 28.7661C20.2382 28.6899 20.2382 29.2148 19.8401 29.3589C19.0271 29.6299 17.5917 28.6729 17.3418 28.6729C17.1132 28.6771 16.0542 28.9236 16.0942 28.3956C15.9359 28.909 15.3537 28.5162 15.3178 28.5162C14.7757 28.5162 14.9832 28.9355 14.6189 28.9185C14.4537 28.8635 12.7854 28.7661 12.7854 28.7661V29.0371L11.7013 28.495L10.7528 28.2241C9.9398 27.953 10.3463 27.2755 8.99127 27.682V26.869H8.31377C8.58473 25.2429 8.31377 26.056 8.17826 24.5654L7.6362 24.7009C7.09421 23.9683 8.38992 24.108 7.22973 23.6169C7.22973 23.6169 7.25085 22.808 6.9587 23.0748C6.8994 23.1087 7.09421 23.4814 7.09421 23.4814C6.01017 23.3458 5.73915 23.0748 5.73915 21.9908C5.73915 21.9908 6.63265 22.1179 6.55216 21.9908C6.42514 21.7875 6.26001 20.4664 6.28962 20.3774C6.27692 20.1995 7.11962 19.7508 6.95656 19.323C7.06032 19.2848 7.36518 19.2807 7.36518 19.2807Z"
        fill="white"
    />
</svg>
