<svg xmlns="http://www.w3.org/2000/svg" width="40" height="40" viewBox="0 0 40 40" fill="none">
    <g clip-path="url(#clip0_28106_2500)">
        <rect width="40" height="40" fill="#0052B4" />
        <path d="M0 0V6.11111L34.7778 40V0H18.8889H0Z" fill="#FFDA44" />
        <path
            d="M-1.24064 14.1705L-0.596193 12.1771L-2.29175 10.9471L-0.197304 10.946L0.449363 8.9527L1.09825 10.9449L3.1927 10.9438L1.49825 12.166L2.14714 14.1583L0.451585 12.9283L-1.24286 14.1505L-1.24064 14.1705Z"
            fill="#F0F0F0"
        />
        <path
            d="M3.42318 18.8341L4.06763 16.8408L2.37207 15.6108L4.46651 15.6097L5.11318 13.6163L5.76207 15.6086L7.85651 15.6074L6.16207 16.8297L6.81096 18.8219L5.1154 17.5919L3.42096 18.8141L3.42318 18.8341Z"
            fill="#F0F0F0"
        />
        <path
            d="M8.08688 23.4977L8.73132 21.5044L7.03577 20.2744L9.13021 20.2733L9.77688 18.28L10.4258 20.2722L12.5202 20.2711L10.8258 21.4933L11.4747 23.4855L9.7791 22.2555L8.08466 23.4777L8.08688 23.4977Z"
            fill="#F0F0F0"
        />
        <path
            d="M12.7507 28.1619L13.3951 26.1686L11.6996 24.9386L13.794 24.9375L14.4407 22.9442L15.0896 24.9364H17.184L15.4896 26.1586L16.1385 28.1508L14.4429 26.9208L12.7485 28.143L12.7507 28.1619Z"
            fill="#F0F0F0"
        />
        <path
            d="M19.1088 31.6033L17.4144 32.8255L18.0588 30.8322L16.3633 29.6022L18.4577 29.6011L19.1044 27.6077L19.7533 29.5999L21.8477 29.5988L20.1533 30.8211L20.8022 32.8133L19.1066 31.5833L19.1088 31.6033Z"
            fill="#F0F0F0"
        />
        <path
            d="M22.0782 37.4891L22.7227 35.4958L21.0271 34.2658L23.1215 34.2647L23.7682 32.2714L24.4171 34.2636L26.5115 34.2625L24.8171 35.4847L25.466 37.4769L23.7704 36.2469L22.076 37.4691L22.0782 37.4891Z"
            fill="#F0F0F0"
        />
        <path
            d="M26.7419 42.1528L27.3864 40.1594L25.6908 38.9294L27.7852 38.9283L28.4319 36.935L29.0808 38.9272L31.1752 38.9261L29.4808 40.1483L30.1297 42.1406L28.4341 40.9106L26.7397 42.1328L26.7419 42.1528Z"
            fill="#F0F0F0"
        />
    </g>
    <defs>
        <clipPath id="clip0_28106_2500">
            <rect width="40" height="40" fill="white" />
        </clipPath>
    </defs>
</svg>
