<svg xmlns="http://www.w3.org/2000/svg" width="40" height="40" viewBox="0 0 40 40" fill="none">
    <rect x="29" width="40" height="18" transform="rotate(90 29 0)" fill="#FFDA44" />
    <rect x="40" width="40" height="11" transform="rotate(90 40 0)" fill="#0052B4" />
    <rect x="11" width="40" height="11" transform="rotate(90 11 0)" fill="#0052B4" />
    <path
        d="M26.087 12.1739L27.2536 12.7572L26.087 12.1739L24.9203 11.5906C24.85 11.7313 23.3266 14.8308 23.0778 19.5652H21.3044V12.1739L20.0001 10.4348L18.6957 12.1739V19.5652H16.9223C16.6734 14.8308 15.1501 11.7313 15.0797 11.5906L12.7465 12.7573C12.7626 12.7893 14.3479 16.0162 14.3479 20.8696V22.174H18.6958V29.5653H21.3044V22.174H25.6522V20.8695C25.6522 18.3603 26.0864 16.2912 26.4507 14.9973C26.8478 13.5864 27.2511 12.7624 27.2551 12.7542L26.087 12.1739Z"
        fill="black"
    />
</svg>
