<svg xmlns="http://www.w3.org/2000/svg" width="40" height="40" viewBox="0 0 40 40" fill="none">
    <rect width="40" height="40" fill="#F0F0F0" />
    <path
        d="M35.6808 16.0737H29.1065C29.1065 14.8741 28.134 13.9016 26.9344 13.9016L25.1967 17.377C25.1967 17.377 27.0502 22.5901 26.9923 22.5901H29.1644C30.3641 22.5901 31.3365 21.6177 31.3365 20.418C32.5362 20.418 33.5086 19.4456 33.5086 18.2459H33.4363C34.6359 18.2458 35.6808 17.2734 35.6808 16.0737Z"
        fill="#ACABB1"
    />
    <path
        d="M4.28638 16.0737H10.8607C10.8607 14.8741 11.8332 13.9016 13.0328 13.9016L14.7705 17.377C14.7705 17.377 12.9169 22.5901 12.9749 22.5901H10.8028C9.6031 22.5901 8.63067 21.6177 8.63067 20.418C7.43099 20.418 6.45856 19.4456 6.45856 18.2459H6.53091C5.33122 18.2458 4.28638 17.2734 4.28638 16.0737Z"
        fill="#ACABB1"
    />
    <path
        d="M26.9344 27.8032V28.672H13.0328V27.8032H9.55737V31.2786H13.0328V32.1474H26.9344V31.2786H30.4098V27.8032H26.9344Z"
        fill="#FFDA44"
    />
    <path
        d="M13.0328 13.9015V22.59C13.0328 27.9105 19.9836 29.5408 19.9836 29.5408C19.9836 29.5408 26.9344 27.9105 26.9344 22.59V13.9015L19.9836 13.0327L13.0328 13.9015Z"
        fill="#0052B4"
    />
    <rect x="13.0328" y="17.3773" width="13.9016" height="5.21313" fill="#D80027" />
    <path
        d="M23.459 9.55731V10.8606L22.5902 11.295L21.7214 10.4261V7.81958H18.246V10.4261L17.3771 11.295L16.5082 10.8606V9.55731H13.0328V13.9015H26.9345V9.55731H23.459Z"
        fill="#FFDA44"
    />
</svg>
