<svg xmlns="http://www.w3.org/2000/svg" width="40" height="40" viewBox="0 0 40 40" fill="none">
    <g clip-path="url(#clip0_28106_2517)">
        <path
            d="M9.8465e-06 5.11887e-05L31.1111 4.84913e-05L1.11952e-05 31.1112L9.8465e-06 5.11887e-05Z"
            fill="#338AF3"
        />
        <path d="M8.88867 40.0001L40 8.88895L40 40.0001H8.88867Z" fill="#338AF3" />
        <path d="M4.99976 40.0001L39.9998 5.00006L39.9998 8.88895L8.88865 40.0001L4.99976 40.0001Z" fill="#FFDA44" />
        <path
            d="M-0.000257831 31.1112L31.1109 4.47491e-05L34.9997 4.4412e-05L-0.000257663 35L-0.000257831 31.1112Z"
            fill="#FFDA44"
        />
        <path
            d="M-0.000244168 35.0001L34.9998 6.16865e-05L39.9998 0.000229937L39.9998 5.00023L4.99976 40.0001L-0.000244184 40.0001L-0.000244168 35.0001Z"
            fill="#D80027"
        />
        <path
            d="M10.6577 6.08667L11.7355 9.40889H15.2277L12.4022 11.4622L13.4799 14.7844L10.6544 12.7311L7.82883 14.7844L8.90661 11.4622L6.08105 9.40889H9.57772L10.6577 6.08667Z"
            fill="#FFDA44"
        />
    </g>
    <defs>
        <clipPath id="clip0_28106_2517">
            <rect width="40" height="40" fill="white" />
        </clipPath>
    </defs>
</svg>
