<svg xmlns="http://www.w3.org/2000/svg" width="40" height="40" viewBox="0 0 40 40" fill="none">
    <rect y="29" width="40" height="11" fill="#496E2D" />
    <rect y="11" width="40" height="18" fill="#F0F0F0" />
    <rect width="40" height="11" fill="black" />
    <path d="M20 20L0 0V40L20 20Z" fill="#D80027" />
    <path
        d="M25.2462 20C25.2462 17.0861 27.2901 14.6518 30.0195 14.0546C29.6 13.9628 29.1648 13.913 28.7177 13.913C25.3624 13.913 22.6426 16.6382 22.6426 20C22.6426 23.3618 25.3624 26.0869 28.7177 26.0869C29.1647 26.0869 29.5999 26.0372 30.0195 25.9454C27.2901 25.3482 25.2462 22.9139 25.2462 20Z"
        fill="#D80027"
    />
    <path
        d="M30.2747 16.0869L31.1365 18.7443H33.9249L31.669 20.3863L32.5308 23.0435L30.2747 21.4013L28.0189 23.0435L28.8807 20.3863L26.6246 18.7443H29.413L30.2747 16.0869Z"
        fill="#D80027"
    />
</svg>
