<svg xmlns="http://www.w3.org/2000/svg" width="40" height="40" viewBox="0 0 40 40" fill="none">
    <rect width="40" height="40" fill="#D80027" />
    <path
        d="M22.0648 15.1303C21.6103 17.0209 20.8027 16.6603 20.4064 18.3091C18.0718 17.7478 16.634 15.4001 17.1953 13.0653C17.7564 10.7307 20.1043 9.29291 22.439 9.85424C21.6462 13.1517 22.4715 13.4395 22.0648 15.1303Z"
        fill="#F0F0F0"
    />
    <path
        d="M16.0068 16.5313C17.6644 17.5477 17.0719 18.2045 18.5174 19.0909C17.262 21.1379 14.5851 21.7797 12.5381 20.5245C10.4911 19.2692 9.84916 16.5921 11.1045 14.5452C13.9956 16.318 14.5241 15.6221 16.0068 16.5313Z"
        fill="#F0F0F0"
    />
    <path
        d="M15.467 22.7259C16.946 21.4636 17.3873 22.23 18.6771 21.1292C20.2361 22.9555 20.0192 25.6999 18.1929 27.2589C16.3665 28.8179 13.6222 28.6008 12.0634 26.7746C14.6426 24.5728 14.1441 23.8549 15.467 22.7259Z"
        fill="#F0F0F0"
    />
    <path
        d="M21.1917 25.1535C20.448 23.3569 21.3133 23.1737 20.6649 21.6071C22.8836 20.6889 25.4267 21.7431 26.345 23.9618C27.2632 26.1804 26.2088 28.7235 23.9902 29.6418C22.6935 26.5083 21.8569 26.7605 21.1917 25.1535Z"
        fill="#F0F0F0"
    />
    <path
        d="M25.2695 20.459C23.331 20.6111 23.424 19.7315 21.7338 19.8641C21.5461 17.4704 23.3347 15.3774 25.7285 15.1895C28.1222 15.0021 30.2152 16.7905 30.4029 19.1844C27.0218 19.4495 27.0032 20.3232 25.2695 20.459Z"
        fill="#F0F0F0"
    />
</svg>
