<svg xmlns="http://www.w3.org/2000/svg" width="40" height="40" viewBox="0 0 40 40" fill="none">
    <rect width="40" height="40" fill="#F0F0F0" />
    <rect y="4" width="40" height="6" fill="#0052B4" />
    <rect y="30" width="40" height="6" fill="#0052B4" />
    <path
        fill-rule="evenodd"
        clip-rule="evenodd"
        d="M22.0409 15.3478H27.0615L24.551 19.6956L27.0615 24.0434H22.0409L19.5308 28.3913L17.0207 24.0434H12.0001L14.5105 19.6956L12.0001 15.3478H17.0207L19.5308 11L22.0409 15.3478ZM21.0729 22.3666L22.6147 19.6956L21.0728 17.0247H17.9888L16.4468 19.6956L17.9889 22.3666H21.0729ZM19.5308 14.3537L20.1047 15.3477H18.957L19.5308 14.3537ZM15.4786 18.0187L16.0525 17.0247H14.9047L15.4786 18.0187ZM14.9047 22.3666L15.4787 21.3725L16.0526 22.3666H14.9047ZM18.9569 24.0434L19.5308 25.0375L20.1047 24.0434H18.9569ZM24.1569 22.3666H23.009L23.583 21.3725L24.1569 22.3666ZM24.1569 17.0247H23.009L23.583 18.0187L24.1569 17.0247Z"
        fill="#0052B4"
    />
</svg>
