<svg xmlns="http://www.w3.org/2000/svg" width="40" height="40" viewBox="0 0 40 40" fill="none">
    <path d="M0 0H40V40H0V0Z" fill="#D80027" />
    <path
        d="M16.7347 17.0649C15.9276 16.5636 15.0714 16.1477 14.1909 15.8053C13.0129 17.5533 12.6775 19.7998 13.3104 21.81C14.0676 20.0683 15.258 18.3982 16.7347 17.0649ZM14.5823 15.2916C15.5362 15.6219 16.4534 16.0499 17.334 16.5513C17.5297 16.3801 17.7375 16.2333 17.9332 16.0866C17.0038 15.5729 16.0131 15.1572 14.9981 14.8391C14.8513 14.9859 14.7046 15.1327 14.5823 15.2916ZM15.4384 14.4234C16.539 14.7169 17.5908 15.1204 18.5813 15.6463C18.8137 15.4995 19.0461 15.365 19.2662 15.2305C18.2145 14.6924 17.1016 14.3011 15.952 14.0198C15.7704 14.1406 15.5987 14.2756 15.4384 14.4234ZM16.4778 13.6896C17.6886 13.9342 18.8626 14.3255 19.9633 14.8636C21.0762 14.3255 22.2502 13.9342 23.4487 13.6896C21.3249 12.4358 18.6035 12.4496 16.4778 13.6896ZM23.9745 14.032C22.8268 14.301 21.7146 14.7032 20.6603 15.2305C20.8913 15.3646 21.1197 15.5032 21.3452 15.6463C22.348 15.1204 23.3998 14.7169 24.4882 14.4234C24.3292 14.2766 24.1579 14.1422 23.9745 14.032ZM24.9285 14.8514C23.9134 15.1572 22.9351 15.5729 21.9934 16.0866C22.2023 16.2346 22.4063 16.3896 22.6049 16.5513C23.4731 16.0499 24.3904 15.6219 25.3443 15.2916C25.222 15.1327 25.0874 14.9859 24.9285 14.8514ZM25.7356 15.8175C24.8527 16.1489 24.0048 16.5667 23.2041 17.0649C24.6617 18.3792 25.8243 20.0226 26.6284 21.81C27.217 19.787 26.9319 17.5734 25.7356 15.8175ZM22.5437 17.4808L21.8833 17.9577C23.5343 19.4986 24.8673 21.4309 25.7112 23.6811C25.9069 23.3876 26.0903 23.0819 26.237 22.7761C25.4006 20.7691 24.1524 18.9487 22.5437 17.4808ZM21.2596 17.4319C21.4798 17.2729 21.6999 17.1138 21.9323 16.9671C21.7366 16.7959 21.5287 16.6369 21.3207 16.4779L20.6237 16.9304H20.6359C20.8438 17.0894 21.0517 17.2607 21.2596 17.4319ZM19.9633 16.4534L20.6603 16.0254L19.9633 15.5974C19.7309 15.7319 19.5108 15.8787 19.2784 16.0254C19.5108 16.1599 19.7309 16.3067 19.9633 16.4534ZM19.3029 16.9304C19.0705 16.7714 18.8504 16.6247 18.618 16.4779L17.9944 16.9549L18.667 17.4196C18.8737 17.2498 19.0858 17.0866 19.3029 16.9304ZM19.9633 17.4196C19.7553 17.5785 19.5475 17.7498 19.3274 17.9333C19.5475 18.1044 19.7554 18.2878 19.9633 18.4713C20.1712 18.2878 20.3791 18.1044 20.5992 17.9333C20.3913 17.762 20.1834 17.5785 19.9633 17.4196ZM19.9633 19.7065C18.3625 21.4327 17.1573 23.5303 16.4778 25.7846C18.6348 26.9915 21.2918 26.9914 23.4487 25.7846C22.7709 23.5356 21.5721 21.4198 19.9633 19.7065ZM15.9276 24.3415C16.7224 22.3114 17.8965 20.5381 19.3396 19.0705C19.1316 18.8749 18.9238 18.6915 18.7037 18.4958C17.0283 20.1223 15.6829 22.1402 14.8635 24.476C15.094 24.7309 15.3433 24.968 15.6095 25.1854C15.7074 24.9041 15.8175 24.6228 15.9276 24.3415ZM20.587 19.0705C22.03 20.5381 23.2041 22.3114 24.0113 24.3415C24.1213 24.6228 24.2192 24.9041 24.317 25.1854C24.586 24.9652 24.8428 24.7329 25.0752 24.4761C24.2436 22.1402 22.8984 20.1223 21.2229 18.4958L20.587 19.0705ZM14.2154 23.6811C15.0592 21.4309 16.3923 19.5108 18.0555 17.97C17.8363 17.8 17.612 17.6369 17.3828 17.4808C16.4045 18.3857 15.524 19.4374 14.7902 20.6237C14.368 21.3115 14 22.0311 13.6896 22.7761C13.8363 23.0941 14.0197 23.3876 14.2154 23.6811ZM20 12.1854C24.3048 12.1854 27.8146 15.6952 27.8146 20C27.8146 24.3048 24.3048 27.8147 20 27.8147C15.6952 27.8147 12.1853 24.3048 12.1853 20C12.1853 15.6952 15.6952 12.1854 20 12.1854ZM23.4487 10.4732C23.2286 10.7301 22.984 11.0602 22.7394 11.586C22.4872 11.0316 22.9517 10.1895 23.2286 9.73942C23.6489 9.00377 23.7294 8.10989 23.2163 7.3792C23.3334 8.61929 22.4936 9.1105 21.92 10.0452C21.7366 10.3387 21.5531 10.6933 21.3819 11.2559C21.0702 10.7364 21.3807 9.85832 21.5776 9.36036C21.8912 8.57639 21.8165 7.67023 21.1985 7.03669C21.5043 8.23658 20.777 8.8617 20.3302 9.86168C20.2079 10.1919 20.0734 10.5711 20 11.1458C19.6002 10.6962 19.7758 9.75176 19.8899 9.2381C20.1068 8.42412 19.8429 7.52257 19.1562 7C19.6448 8.14014 19.0162 8.87382 18.7403 9.93512C18.667 10.2776 18.5936 10.6811 18.6058 11.2559C18.1631 10.8132 18.1661 9.95274 18.2145 9.38484C18.2673 8.54241 17.9145 7.71265 17.1382 7.29356C17.7823 8.32845 17.2905 9.1901 17.1872 10.2653C17.1627 10.6077 17.1505 11.0113 17.2606 11.5861C16.7498 11.2285 16.6245 10.3618 16.5757 9.80059C16.5233 8.96508 15.9978 8.17717 15.1816 7.905C16.0059 8.82363 15.6312 9.72739 15.6952 10.8156C15.7319 11.1581 15.7808 11.5616 15.9764 12.1119C15.4067 11.8532 15.1553 11.0041 15.0226 10.461C14.8182 9.64306 14.211 8.95202 13.3472 8.7978C14.2838 9.59397 14.0825 10.5407 14.3133 11.6106C14.3988 11.9408 14.509 12.3321 14.7902 12.8335C14.191 12.67 13.7959 11.8703 13.5917 11.3537C13.2776 10.5686 12.5403 9.99905 11.6717 9.98401C12.7348 10.6081 12.6648 11.5879 13.0658 12.6012C13.2003 12.9191 13.3838 13.286 13.7384 13.7386C13.1243 13.6872 12.6011 12.9245 12.3076 12.4666C11.8899 11.7361 11.0559 11.2831 10.2041 11.4027C11.3421 11.8672 11.4444 12.8315 11.9897 13.7752C12.1731 14.0687 12.4055 14.3989 12.8335 14.8024C12.2045 14.8024 11.6042 14.1979 11.2314 13.763C10.6547 13.134 9.84817 12.7734 8.98116 13.0414C10.2059 13.324 10.4032 14.2471 11.1213 15.096C11.3414 15.365 11.6227 15.6586 12.0997 15.9887C11.4927 16.0992 10.7839 15.5667 10.3631 15.2061C9.70786 14.6598 8.82924 14.4658 8.02726 14.8513C9.27964 14.9224 9.62826 15.8253 10.4609 16.5513C10.7178 16.7714 11.048 17.016 11.5738 17.2729C10.9922 17.4843 10.2016 17.0561 9.72714 16.7714C8.99339 16.3522 8.10818 16.2717 7.37906 16.7837C8.63212 16.6632 9.0948 17.4909 10.0329 18.08C10.3264 18.2634 10.6933 18.4591 11.2436 18.6181C10.7155 18.935 9.85459 18.6226 9.34808 18.4224C8.56412 18.1088 7.65796 18.1835 7.02441 18.8015C8.22775 18.4949 8.85149 19.2279 9.86168 19.6698C10.1796 19.7921 10.5588 19.9266 11.1335 20C10.6773 20.4057 9.74703 20.2234 9.22582 20.1101C8.41695 19.8945 7.51046 20.1532 7 20.8438C8.11764 20.3549 8.89192 20.9885 9.93505 21.2597C10.2653 21.333 10.6688 21.4064 11.2436 21.3942C10.6559 21.9823 9.55297 21.6941 8.82221 21.7855C8.25965 21.8834 7.62365 22.2502 7.29348 22.874C8.3098 22.2041 9.18539 22.7102 10.253 22.8128C10.5955 22.8373 10.999 22.8495 11.5738 22.7394C11.2152 23.2517 10.3508 23.3754 9.78831 23.4243C8.9444 23.5296 8.19152 23.9694 7.89273 24.8184C8.82428 24.0034 9.72061 24.368 10.8156 24.3048C11.158 24.2803 11.5616 24.2192 12.0997 24.0236C11.8923 24.5934 10.9566 24.8533 10.4487 24.9774C9.63382 25.1946 8.95278 25.7844 8.79773 26.6528C9.57874 25.7062 10.5364 25.9204 11.5982 25.6867C11.9285 25.6012 12.3198 25.491 12.8335 25.2098C12.6715 25.8035 11.8511 26.2068 11.3414 26.4083C10.5784 26.7898 9.9876 27.4116 9.97174 28.3283C10.6001 27.2579 11.5659 27.339 12.5889 26.9342C12.9069 26.7997 13.2737 26.6162 13.7384 26.2738C13.6269 26.8885 12.9402 27.3888 12.4544 27.6924C11.7318 28.137 11.2801 28.9232 11.4026 29.7959C11.8474 28.6489 12.8293 28.5621 13.7629 28.0103C14.0565 27.8269 14.3866 27.5945 14.7902 27.1665C14.8409 27.7727 14.1565 28.4208 13.7507 28.7686C13.1264 29.341 12.7776 30.1654 13.0414 31.0188C13.2992 29.7994 14.2503 29.5763 15.0959 28.8787C15.3527 28.6586 15.6462 28.3773 15.9764 27.9003C16.0883 28.5148 15.5669 29.2156 15.1938 29.6369C14.6554 30.2827 14.4627 31.1898 14.8391 31.9727C14.932 30.7415 15.819 30.3649 16.539 29.5391C16.7591 29.2822 17.0037 28.952 17.2606 28.4262C17.4735 29.0119 17.0592 29.7931 16.7714 30.2729C16.3142 30.9839 16.2851 31.923 16.7836 32.6331C16.6666 31.3938 17.4794 30.8893 18.0799 29.9671C18.2511 29.6736 18.4468 29.3067 18.6058 28.7564C18.9244 29.2873 18.6218 30.1464 18.4101 30.6519C18.0965 31.4359 18.1726 32.3435 18.7892 32.9756C18.4798 31.7615 19.2335 31.1561 19.6576 30.1383C19.7921 29.8204 19.9266 29.4412 20 28.8665C20.3822 29.3579 20.2277 30.2308 20.0978 30.7742C19.8811 31.5875 20.1513 32.4881 20.8438 33C20.3522 31.8765 20.9747 31.1138 21.2474 30.0649C21.3207 29.7347 21.3941 29.3312 21.3819 28.7564C21.8425 29.1656 21.8203 30.0826 21.7855 30.6274C21.6748 31.4594 22.1148 32.3234 22.8617 32.7187C22.1973 31.6512 22.7064 30.8534 22.8128 29.747C22.825 29.4045 22.8372 29.001 22.7394 28.4262C23.2431 28.8182 23.3731 29.6245 23.4242 30.2117C23.4773 31.0571 23.9943 31.8225 24.8184 32.1073C23.9882 31.1584 24.3777 30.2923 24.2926 29.1844C24.2681 28.842 24.2069 28.4384 24.0235 27.9003C24.5801 28.1786 24.8431 29.0019 24.9774 29.5513C25.1421 30.3751 25.8154 31.0554 26.6528 31.2023C25.6735 30.4141 25.9192 29.4792 25.6867 28.4018C25.6011 28.0715 25.4788 27.6802 25.1976 27.1665C25.79 27.3146 26.2001 28.1614 26.4083 28.6586C26.7388 29.4296 27.4425 30.0129 28.316 30.0283C27.2628 29.3962 27.3226 28.4236 26.9219 27.4111C26.7874 27.0931 26.6162 26.7263 26.2615 26.2737C26.8743 26.325 27.3998 27.0784 27.6801 27.5456C28.1248 28.2683 28.911 28.7199 29.7836 28.5974C28.6179 28.1453 28.5592 27.1867 27.9981 26.2371C27.8146 25.9435 27.5823 25.6134 27.1665 25.2098C27.7924 25.2098 28.3968 25.8156 28.7685 26.2493C29.3103 26.8992 30.1702 27.2141 31.0065 26.9709C29.7915 26.685 29.5804 25.7547 28.8786 24.9041C28.6463 24.6473 28.365 24.3538 27.888 24.0236C28.5126 23.9194 29.1961 24.4389 29.6368 24.8062C30.2822 25.344 31.1752 25.5384 31.9605 25.1609C30.7345 25.0684 30.3524 24.1889 29.539 23.461C29.2699 23.2409 28.9398 22.9963 28.4262 22.7394C29.0097 22.5273 29.7914 22.9402 30.2606 23.2409C30.9952 23.6606 31.8955 23.7257 32.6208 23.2164C31.4059 23.3311 30.8643 22.4989 29.9548 21.9201C29.6613 21.7489 29.3066 21.5532 28.7441 21.3942C29.2743 21.0762 30.1362 21.3741 30.6396 21.5899C31.4236 21.9035 32.3312 21.8274 32.9633 21.2108C31.7649 21.5162 31.1367 20.7885 30.1383 20.3424C29.8203 20.2202 29.4289 20.0856 28.8542 20C29.3433 19.6197 30.2217 19.7701 30.7619 19.9022C31.5767 20.1193 32.4728 19.8462 33 19.1684C31.8429 19.6407 31.1346 19.0307 30.0649 18.7526C29.7224 18.6793 29.3312 18.6059 28.7441 18.6181C29.1524 18.1588 30.071 18.179 30.6152 18.2145C31.4509 18.3188 32.3071 17.8927 32.7065 17.1383C31.6419 17.8007 30.8524 17.2956 29.7469 17.1872C29.4045 17.1749 28.9887 17.1628 28.4261 17.2729C28.7428 16.7453 29.6593 16.6228 30.1994 16.5758C31.0403 16.523 31.8237 16.0102 32.095 15.1816C31.1628 16.0181 30.2822 15.6214 29.1844 15.7074C28.8419 15.7319 28.4384 15.7931 27.8881 15.9887C28.1456 15.4216 28.9968 15.1552 29.539 15.0226C30.3653 14.8769 31.057 14.175 31.2022 13.3472C30.3971 14.3181 29.4861 14.0746 28.4017 14.3133C28.0592 14.3989 27.6679 14.5212 27.1665 14.8024C27.3163 14.2035 28.1409 13.8033 28.6463 13.5917C29.4256 13.28 30.0007 12.5494 30.016 11.684C29.3726 12.756 28.4263 12.6715 27.3988 13.0781C27.0931 13.2126 26.7262 13.3838 26.2614 13.7385C26.3175 13.1244 27.0687 12.6058 27.5334 12.3199C28.264 11.9022 28.7167 11.0666 28.5973 10.2164C28.1267 11.3693 27.1819 11.4489 26.2248 12.0019C25.9313 12.1854 25.6011 12.4177 25.1976 12.8335C25.1976 12.2099 25.8133 11.6068 26.237 11.2315C26.8879 10.6889 27.2189 9.83547 26.9586 8.99351C26.6689 10.2242 25.7546 10.4016 24.904 11.1214C24.635 11.3537 24.3414 11.635 24.0235 12.112C23.865 11.5308 24.4592 10.7648 24.7939 10.3632C25.3381 9.71017 25.5344 8.84192 25.1487 8.03954C25.0783 9.28054 24.1683 9.64785 23.4487 10.4732Z"
        fill="#FFFF00"
    />
</svg>
