<svg xmlns="http://www.w3.org/2000/svg" width="40" height="40" viewBox="0 0 40 40" fill="none">
    <g clip-path="url(#clip0_28106_2528)">
        <path
            d="M9.8465e-06 -9.8465e-06L31.1111 -1.25439e-05L1.11952e-05 31.1111L9.8465e-06 -9.8465e-06Z"
            fill="#6DA544"
        />
        <path d="M8.88867 40L40 8.88889L40 40H8.88867Z" fill="#D80027" />
        <path d="M4.99982 40L39.9998 5L39.9998 8.88889L8.88871 40L4.99982 40Z" fill="#FFDA44" />
        <path
            d="M-0.000196796 31.1111L31.1109 -1.6286e-05L34.9998 -1.66232e-05L-0.000196628 35L-0.000196796 31.1111Z"
            fill="#FFDA44"
        />
        <path
            d="M-0.000183133 35L34.9998 6.51368e-07L39.9998 0.000168902L39.9998 5.00017L4.99982 40L-0.000183149 40L-0.000183133 35Z"
            fill="#3D3D3D"
        />
    </g>
    <defs>
        <clipPath id="clip0_28106_2528">
            <rect width="40" height="40" fill="white" />
        </clipPath>
    </defs>
</svg>
