<svg xmlns="http://www.w3.org/2000/svg" width="40" height="40" viewBox="0 0 40 40" fill="none">
    <g clip-path="url(#clip0_28106_2512)">
        <path
            d="M9.8465e-06 5.41229e-06L31.1111 2.7149e-06L1.11952e-05 31.1111L9.8465e-06 5.41229e-06Z"
            fill="#0052B4"
        />
        <path d="M8.88867 40L40 8.88889L40 40H8.88867Z" fill="#496E2D" />
        <path d="M4.99982 40L39.9998 5L39.9998 8.88889L8.88871 40L4.99982 40Z" fill="#F0F0F0" />
        <path
            d="M-0.000196796 31.1111L31.1109 -1.02723e-06L34.9998 -1.36441e-06L-0.000196628 35L-0.000196796 31.1111Z"
            fill="#F0F0F0"
        />
        <path
            d="M-0.000183133 35L34.9998 6.51368e-07L39.9998 0.000168902L39.9998 5.00017L4.99982 40L-0.000183149 40L-0.000183133 35Z"
            fill="#A2001D"
        />
        <path
            d="M16.5222 11.3045L14.2811 12.36L15.4745 14.53L13.03 14.0633L12.7211 16.5211L11.0267 14.7133L9.33113 16.5211L9.02335 14.0633L6.57891 14.53L7.77224 12.36L5.53113 11.3045L7.77224 10.2489L6.60002 8.08001L9.04446 8.54667L9.35335 6.08778L11.0478 7.89556L12.7434 6.08778L13.0522 8.54667L15.4967 8.08001L14.3034 10.25L16.5222 11.3045Z"
            fill="#FFDA44"
        />
    </g>
    <defs>
        <clipPath id="clip0_28106_2512">
            <rect width="40" height="40" fill="white" />
        </clipPath>
    </defs>
</svg>
