<svg xmlns="http://www.w3.org/2000/svg" width="40" height="40" viewBox="0 0 40 40" fill="none">
    <rect width="40" height="40" fill="#0052B4" />
    <path fill-rule="evenodd" clip-rule="evenodd" d="M0 0H8H16H20V3V8L13 8L20 15V20H17L10 13V20H0V0Z" fill="#F0F0F0" />
    <path
        d="M19.95 20.0575H20.0189C20.0189 20.0345 20.0189 20.0121 20.0189 19.989C19.996 20.0119 19.9731 20.0347 19.95 20.0575Z"
        fill="#F0F0F0"
    />
    <path
        fill-rule="evenodd"
        clip-rule="evenodd"
        d="M8 0H3V3H0V8H3V20H8V8H20V3H8V0ZM20 16.5845L12.8943 9.49268C12.8943 9.49268 10.4348 9.49283 10.4348 9.49268V9.49283L19.9999 19.0392H20V16.5845Z"
        fill="#D80027"
    />
    <path
        d="M31.3044 12.2281L28.6956 13.096L26.0869 12.2281L25.2174 10.0585L26.0869 7.88879H31.3044L30.4348 10.0585L31.3044 12.2281Z"
        fill="#ACABB1"
    />
    <path
        d="M22.6086 12.2281V21.7747C22.6086 26.425 28.6956 27.8498 28.6956 27.8498C28.6956 27.8498 34.7825 26.425 34.7825 21.7747V12.2281H22.6086Z"
        fill="#338AF3"
    />
    <path
        d="M23.1575 24.0363C24.6537 26.9033 28.6958 27.8498 28.6958 27.8498C28.6958 27.8498 32.7378 26.9033 34.234 24.0363L28.6958 14.8318L23.1575 24.0363Z"
        fill="#6DA544"
    />
    <path
        d="M34.7825 21.6782L28.6956 12.2281L22.6086 21.6783V21.7747C22.6086 22.6353 22.8175 23.3853 23.1573 24.0363L28.6956 15.4379L34.2339 24.0363C34.5736 23.3851 34.7825 22.6352 34.7825 21.7746V21.6782Z"
        fill="#FFDA44"
    />
</svg>
