<svg xmlns="http://www.w3.org/2000/svg" width="40" height="40" viewBox="0 0 40 40" fill="none">
    <rect y="27" width="40" height="13" fill="#F0F0F0" />
    <rect width="40" height="13" fill="#D80027" />
    <rect y="13" width="40" height="14" fill="#0052B4" />
    <path
        d="M5.17175 11.3044V21.2814C5.17175 26.9567 12.5859 28.6957 12.5859 28.6957C12.5859 28.6957 20 26.9567 20 21.2814V11.3044H5.17175Z"
        fill="#D80027"
    />
    <path
        d="M8.23804 13.0435H16.9337V9.56523L15.1946 10.4348L12.5859 7.82609L9.97718 10.4348L8.23804 9.56523V13.0435Z"
        fill="#FFDA44"
    />
    <path
        d="M18.2609 22.6705L12.6087 17.0184L6.95654 22.6705L8.80115 24.5152L12.6087 20.7076L16.4163 24.5152L18.2609 22.6705Z"
        fill="#FFDA44"
    />
    <path
        d="M18.2609 17.3913H15.6237C15.772 17.1354 15.8583 16.839 15.8583 16.522C15.8583 15.5613 15.0796 14.7828 14.1191 14.7828C13.4554 14.7828 12.8791 15.1545 12.5859 15.701C12.2927 15.1546 11.7164 14.7828 11.0527 14.7828C10.0922 14.7828 9.31357 15.5613 9.31357 16.522C9.31357 16.839 9.39982 17.1355 9.54811 17.3913H6.95654C6.95654 18.3519 7.79318 19.1305 8.75357 19.1305H8.69568C8.69568 20.091 9.47428 20.8696 10.4348 20.8696C10.4348 21.7201 11.0456 22.4266 11.8522 22.5779L10.4819 25.6718C11.1387 25.9388 11.8563 26.087 12.6088 26.087C13.3613 26.087 14.079 25.9388 14.7357 25.6718L13.3654 22.5779C14.172 22.4268 14.7828 21.7202 14.7828 20.8696C15.7433 20.8696 16.5219 20.091 16.5219 19.1305H16.464C17.4244 19.1305 18.2609 18.3518 18.2609 17.3913Z"
        fill="#F0F0F0"
    />
</svg>
