<svg xmlns="http://www.w3.org/2000/svg" width="40" height="40" viewBox="0 0 40 40" fill="none">
    <rect width="40" height="20" fill="#D80027" />
    <rect y="20" width="40" height="20" fill="#F0F0F0" />
    <path
        d="M12.1739 10.4347C12.1739 7.52078 14.2218 5.08656 16.9565 4.4893C16.5362 4.39758 16.1002 4.34781 15.6521 4.34781C12.2903 4.34781 9.56519 7.07297 9.56519 10.4348C9.56519 13.7966 12.2903 16.5217 15.6521 16.5217C16.1 16.5217 16.5361 16.472 16.9565 16.3802C14.2218 15.7829 12.1739 13.3487 12.1739 10.4347Z"
        fill="#F0F0F0"
    />
    <path
        d="M20 4.78258L20.4318 6.11109H21.8287L20.6985 6.93227L21.1302 8.26078L20 7.43976L18.8699 8.26078L19.3016 6.93227L18.1714 6.11109H19.5683L20 4.78258Z"
        fill="#F0F0F0"
    />
    <path
        d="M16.6113 7.39125L17.043 8.71984H18.4399L17.3098 9.54094L17.7415 10.8695L16.6113 10.0484L15.481 10.8695L15.9128 9.54094L14.7826 8.71984H16.1795L16.6113 7.39125Z"
        fill="#F0F0F0"
    />
    <path
        d="M23.3888 7.39125L23.8206 8.71984H25.2174L24.0872 9.54094L24.519 10.8695L23.3888 10.0484L22.2586 10.8695L22.6903 9.54094L21.5602 8.71984H22.9571L23.3888 7.39125Z"
        fill="#F0F0F0"
    />
    <path
        d="M22.0845 11.3043L22.5162 12.6329H23.913L22.7829 13.454L23.2146 14.7825L22.0845 13.9615L20.9543 14.7825L21.386 13.454L20.2559 12.6329H21.6527L22.0845 11.3043Z"
        fill="#F0F0F0"
    />
    <path
        d="M17.9156 11.3043L18.3473 12.6329H19.7443L18.6141 13.454L19.0459 14.7825L17.9156 13.9615L16.7854 14.7825L17.2171 13.454L16.087 12.6329H17.4839L17.9156 11.3043Z"
        fill="#F0F0F0"
    />
</svg>
