<svg xmlns="http://www.w3.org/2000/svg" width="40" height="40" viewBox="0 0 40 40" fill="none">
    <rect width="40" height="13" fill="#F0F0F0" />
    <rect y="27" width="40" height="13" fill="#D80027" />
    <rect y="13" width="40" height="14" fill="#0052B4" />
    <path
        d="M5.17175 11.3044V21.2814C5.17175 26.9567 12.5859 28.6957 12.5859 28.6957C12.5859 28.6957 20 26.9567 20 21.2814V11.3044H5.17175Z"
        fill="#F0F0F0"
    />
    <path
        d="M6.91089 11.3044V21.2814C6.91089 21.9477 7.05886 22.5769 7.35198 23.1668C10.2609 23.1668 14.6087 23.1668 17.8197 23.1668C18.1128 22.577 18.2608 21.9477 18.2608 21.2814V11.3044H6.91089Z"
        fill="#D80027"
    />
    <path
        d="M16.064 18.2609H13.4554V16.5217H15.1946V14.7826H13.4554V13.0435H11.7163V14.7826H9.97723V16.5217H11.7163V18.2609H9.10754V20H11.7163V21.7391H13.4554V20H16.064V18.2609Z"
        fill="#F0F0F0"
    />
    <path
        d="M9.72428 25.5945C10.845 26.2988 11.9964 26.7077 12.5858 26.8896C13.1753 26.7078 14.3267 26.2988 15.4474 25.5945C16.5776 24.8842 17.3698 24.0719 17.8197 23.1668C17.3235 22.8158 16.7181 22.6088 16.0641 22.6088C15.826 22.6088 15.5947 22.637 15.3723 22.6888C14.9009 21.6178 13.831 20.8696 12.5859 20.8696C11.3408 20.8696 10.2708 21.6178 9.79959 22.6888C9.57717 22.637 9.34577 22.6088 9.10772 22.6088C8.45374 22.6088 7.84834 22.8158 7.35217 23.1668C7.80178 24.0718 8.59405 24.8841 9.72428 25.5945Z"
        fill="#0052B4"
    />
</svg>
