<svg xmlns="http://www.w3.org/2000/svg" width="40" height="40" viewBox="0 0 40 40" fill="none">
    <rect width="40" height="40" fill="#0052B4" />
    <path
        fill-rule="evenodd"
        clip-rule="evenodd"
        d="M40 31.3044H36.4996H11.3043V28.6957H38.0154C38.2888 28.1304 38.5357 27.55 38.756 26.9566H11.3043L32.1739 9.56524C31.9945 10.4273 31.913 11.3455 31.913 12.2609C31.913 17.537 35.4926 21.9443 40 24V31.3044Z"
        fill="#FFDA44"
    />
    <path
        d="M14.6932 10.4348L15.1249 11.7634H16.5218L15.3917 12.5845L15.8234 13.913L14.6932 13.092L13.5631 13.913L13.9947 12.5845L12.8645 11.7634H14.2615L14.6932 10.4348Z"
        fill="#F0F0F0"
    />
    <path
        d="M9.01861 20L9.5583 21.6609H11.3044L9.89166 22.687L10.4313 24.3478L9.01861 23.3214L7.60596 24.3478L8.14557 22.687L6.73291 21.6609H8.479L9.01861 20Z"
        fill="#F0F0F0"
    />
    <path
        d="M9.01861 6.08695L9.5583 7.74781H11.3044L9.89166 8.77398L10.4313 10.4348L9.01861 9.40836L7.60596 10.4348L8.14557 8.77398L6.73291 7.74781H8.479L9.01861 6.08695Z"
        fill="#F0F0F0"
    />
    <path
        d="M4.67084 13.913L5.21052 15.5739H6.95654L5.54388 16.6001L6.08357 18.2609L4.67084 17.2345L3.25818 18.2609L3.79779 16.6001L2.38513 15.5739H4.13115L4.67084 13.913Z"
        fill="#F0F0F0"
    />
</svg>
