<svg xmlns="http://www.w3.org/2000/svg" width="40" height="40" viewBox="0 0 40 40" fill="none">
    <rect width="40" height="40" fill="#F0F0F0" />
    <path
        d="M23.3968 13.9723C23.3968 12.0964 21.876 10.5756 20 10.5756C18.1239 10.5756 16.6032 12.0964 16.6032 13.9723H9.13043C9.13043 15.8193 10.7393 17.3167 12.5863 17.3167H12.475C12.475 19.1638 13.9722 20.6613 15.8195 20.6613C15.8195 22.2967 16.994 23.6556 18.5452 23.9461L18.5365 23.9656H21.4635L21.4548 23.9461C23.0061 23.6555 24.1805 22.2966 24.1805 20.6613C26.0277 20.6613 27.525 19.1638 27.525 17.3167H27.4136C29.2605 17.3167 30.8695 15.8193 30.8695 13.9723H23.3968Z"
        fill="#FFDA44"
    />
    <path
        d="M18.5068 23.6191L16.4007 28.374C17.5119 28.8257 18.7266 29.0768 20.0001 29.0768C21.2736 29.0768 22.4882 28.8258 23.5994 28.374L21.4934 23.6191H18.5068Z"
        fill="#FFDA44"
    />
    <path
        d="M15.6522 15.6427V21.4936C15.6522 24.8216 20 25.8414 20 25.8414C20 25.8414 24.3478 24.8216 24.3478 21.4936V15.6427L15.6522 15.6427Z"
        fill="#F0F0F0"
    />
    <path
        d="M4.8499 20.1408L7.20138 26.7177L9.52841 20.1408H11.3043L7.91169 28.8364H6.49099L3.07404 20.1408H4.8499Z"
        fill="#338AF3"
    />
    <path d="M32.1739 28.8364V20.1408H33.864V28.8364H32.1739Z" fill="#338AF3" />
    <path d="M17.3913 17.5321V24.6223C17.989 25.0622 18.6322 25.3648 19.1304 25.5585V17.5321H17.3913Z" fill="#D80027" />
    <path
        d="M22.6086 17.5321V24.6223C22.0109 25.0622 21.3678 25.3648 20.8695 25.5585V17.5321H22.6086Z"
        fill="#D80027"
    />
    <rect x="15.6522" y="15.6426" width="8.69563" height="2.75906" fill="#0052B4" />
</svg>
