<svg xmlns="http://www.w3.org/2000/svg" width="40" height="40" viewBox="0 0 40 40" fill="none">
    <path d="M0 0H40V40H0V0Z" fill="#244AA5" />
    <path
        d="M20.2379 14.2823C20.422 14.4957 20.5452 14.709 20.5452 14.9685C20.3906 15.0444 20.1771 15.0754 20.0538 15.2126C20.8213 15.1056 20.9742 15.9898 21.8337 15.6543C21.8649 15.7767 21.9881 15.8836 22.141 15.8374L22.233 15.5939C22.5699 15.5024 22.4779 16.051 22.8475 15.9441C23.0317 16.0968 22.9085 16.3556 23.0317 16.5393C23.0317 16.7523 23.1238 16.9352 23.2157 17.1181C23.3078 17.0119 23.3686 16.8593 23.5839 16.905C23.7368 17.0724 23.86 17.2251 23.8911 17.4079C23.8287 17.759 23.7367 18.0635 24.1048 18.2463V18.3533C24.3513 18.4602 24.9035 18.2463 24.9035 18.6733C24.8722 18.826 25.0564 18.6888 25.1188 18.7802C25.2717 18.719 25.4869 18.7501 25.6709 18.7501C25.8238 19.0701 25.4869 19.2987 25.3948 19.5885C25.5477 19.7404 25.4869 20.0155 25.4557 20.1975L25.3636 20.2432C25.6085 20.2889 25.9157 20.2138 26.1311 20.351L26.5304 20.5028C26.7145 20.3967 26.9282 20.3804 27.1746 20.3967C27.3587 20.534 27.1122 20.7625 27.2667 20.8686C27.482 20.8686 27.6661 20.8997 27.6956 21.0826L27.7268 21.143C27.8797 20.8686 28.3103 21.0515 28.4943 20.854C28.8016 20.854 28.8624 21.1887 29.0152 21.3716C29.0777 21.8451 28.4943 22.0591 28.6784 22.5309C28.5551 22.7594 28.3103 22.9424 28.1262 23.1562C28.187 23.1873 28.1557 23.2624 28.1557 23.3081C27.9717 23.4159 28.1262 23.7359 27.8797 23.7654C27.8501 23.9645 27.482 23.8878 27.6036 24.1017C27.85 24.4217 27.482 24.6193 27.482 24.9099C27.3275 25.0781 27.0202 24.7564 27.0202 25.0781C26.8361 25.1238 26.652 24.9099 26.5304 25.0928C26.468 25.3067 26.652 25.3818 26.6225 25.5957C26.9282 25.5646 27.0202 25.87 27.1435 26.0529L27.4508 26.3582C27.1435 26.6015 26.7441 26.3271 26.3759 26.4643C26.2839 26.4186 26.3759 26.2978 26.2839 26.2521C26.1918 26.1442 26.0078 26.1442 25.855 26.1148C25.8845 26.2521 25.6085 26.2977 25.7317 26.4642C25.7317 26.5099 25.7925 26.6471 25.6709 26.6471C25.4244 26.7239 25.4556 26.4349 25.2403 26.541C24.9642 26.6471 25.1795 27.0586 24.7802 27.0129C24.841 27.3803 24.1672 27.6236 24.6273 27.9437C24.6881 28.0041 24.6569 28.1265 24.6569 28.2179C24.3807 28.4629 23.8909 28.3715 23.5837 28.28C23.3372 28.2179 23.4917 27.9126 23.3997 27.7461C23.3076 27.5926 23.0315 27.4865 23.0315 27.2725C22.8473 27.1973 22.693 27.1502 22.5697 26.9982C22.1408 27.4097 21.6184 27.8064 21.0052 27.8211C20.7291 27.9583 20.5747 28.5086 20.1457 28.2799C19.9773 28.5543 19.4703 28.2799 19.4398 28.6751C19.2402 28.7518 19.3322 29.0114 19.2098 29.1323C19.1638 29.4376 19.2098 29.6972 19.4703 29.8802C19.5779 30.1087 19.2402 30.1087 19.3782 30.3227C19.4095 30.3978 19.3782 30.5055 19.3322 30.5365C19.2402 30.5822 19.2098 30.628 19.2402 30.7194C19.1638 30.7194 19.1326 30.7651 19.0717 30.8255C18.9945 30.9774 18.7496 31.0541 18.5803 31.1602C18.4119 31.2059 18.2886 31.0851 18.1818 30.9774C18.1505 31.1455 18.0126 31.237 17.8441 31.237C17.5984 31.237 17.6444 31.0231 17.4603 30.9317C17.5368 30.6573 17.2911 30.5365 17.3683 30.2916C17.5679 30.1398 17.9049 30.032 17.8128 29.712C17.5984 29.454 17.6748 29.0719 17.4603 28.7666C17.3223 28.6458 17.0922 28.4629 17.1686 28.1722C17.3683 27.9437 17.1686 27.6694 17.061 27.4261C17.015 27.2269 16.8926 27.0441 16.8926 26.8154C16.5548 26.6179 16.5392 26.0986 16.0635 26.0529C15.7258 26.0529 15.6649 25.6267 15.3272 25.6561C15.296 25.5957 15.2196 25.55 15.158 25.4896C14.9131 25.6561 14.6058 25.4439 14.2993 25.5189C14.0996 25.1842 14.4677 24.727 13.9304 24.5278V24.3156C13.992 24.3449 14.0224 24.2844 14.038 24.2535C14.0684 24.0249 13.6542 23.9955 13.8235 23.7358C13.7315 23.6591 13.6239 23.6281 13.6855 23.4762C13.4546 23.0044 12.7644 23.0501 12.6107 22.5766C12.734 22.4705 12.734 22.3627 12.78 22.2713C12.6723 22.0884 12.642 21.8908 12.6723 21.6933C12.78 21.6622 12.8408 21.5251 12.9024 21.4173C12.7644 21.3259 12.5959 21.1887 12.4422 21.2344C12.1662 21.1887 11.9664 20.9765 11.7208 20.854C11.6592 20.7936 11.6904 20.6858 11.6904 20.6107C12.0281 20.5029 11.6444 20.0302 12.0585 20.0915C12.1662 19.9544 12.3962 19.9086 12.5648 19.8017C12.734 19.7715 12.872 19.8327 13.0405 19.8784C13.1785 20.0605 13.4243 19.9846 13.5622 20.1372C13.7003 20.1062 13.8696 20.0302 14.038 20.1062C14.038 19.8474 14.1605 19.6947 14.3453 19.5118C14.3757 19.4056 14.5442 19.3289 14.6822 19.2685C14.9436 19.3289 15.2501 19.3289 15.435 19.146C15.5574 19.2227 15.665 19.0701 15.8031 19.0701C15.9715 19.0391 16.1096 19.0848 16.2328 19.1616C16.2476 18.8562 16.785 19.1158 16.8927 18.7501C17.0151 18.5059 16.555 18.4145 16.5853 18.2006C16.5089 17.9565 16.693 17.8349 16.785 17.6675C16.8926 17.6218 17.0151 17.5606 17.1531 17.5908C17.5064 17.4691 17.2303 16.7523 17.7982 17.0119C17.7982 17.0879 17.7669 17.1793 17.8129 17.1948C18.0126 17.1948 18.0433 16.966 18.1819 16.8895C18.2427 16.6765 18.1047 16.4169 18.2887 16.2494C18.3808 16.234 18.458 16.2037 18.5188 16.127C18.5188 15.9596 18.4268 15.8682 18.2887 15.7612C18.2427 15.8374 18.1203 15.7768 18.0433 15.807C18.0433 15.6241 17.9362 15.5025 17.905 15.3343C17.8129 15.2886 17.7669 15.2126 17.7982 15.1057C17.9362 14.9685 17.7982 14.633 18.1203 14.7091C18.2427 14.6028 18.458 14.6787 18.5805 14.4958C18.9026 14.3129 19.3323 14.3129 19.578 13.9774C19.6856 13.9929 19.8081 13.886 19.9157 13.9774C19.9462 14.1757 20.2379 14.099 20.2379 14.2823Z"
        fill="#D0A650"
    />
    <path
        d="M22.6138 10.1483L22.1895 8.85239L21.7705 10.1483H20.3981L21.5085 10.9497L21.0843 12.2456L22.1895 11.4441L23.3 12.2456L22.8757 10.9497L23.9862 10.1483H22.6138Z"
        fill="white"
    />
    <path
        d="M26.9301 10.9029L26.5058 9.61221L26.0867 10.9029H24.7144L25.8248 11.7043L25.4005 13.0002L26.5058 12.1988L27.6163 13.0002L27.192 11.7043L28.3025 10.9029H26.9301Z"
        fill="white"
    />
    <path
        d="M31.0471 12.3913L30.6281 11.1006L30.2038 12.3913H28.8314L29.9419 13.1928L29.5176 14.4886L30.6281 13.6872L31.7333 14.4886L31.309 13.1928L32.4195 12.3913H31.0471Z"
        fill="white"
    />
    <path
        d="M18.2295 10.1483L17.8105 8.85239L17.3862 10.1483H16.0138L17.1243 10.9497L16.7 12.2456L17.8105 11.4441L18.9157 12.2456L18.4914 10.9497L19.6019 10.1483H18.2295Z"
        fill="white"
    />
    <path
        d="M13.9133 10.9029L13.4943 9.61221L13.07 10.9029H11.6976L12.8081 11.7043L12.3838 13.0002L13.4943 12.1988L14.5995 13.0002L14.1753 11.7043L15.2857 10.9029H13.9133Z"
        fill="white"
    />
    <path
        d="M9.79616 12.3913L9.37187 11.1006L8.95283 12.3913H7.58044L8.69092 13.1928L8.26664 14.4886L9.37187 13.6872L10.4823 14.4886L10.0581 13.1928L11.1685 12.3913H9.79616Z"
        fill="white"
    />
</svg>
