<svg xmlns="http://www.w3.org/2000/svg" width="40" height="40" viewBox="0 0 40 40" fill="none">
    <rect width="40" height="40" fill="#F6F6F6" />
    <rect x="12" width="16" height="40" fill="#DC171D" />
    <rect y="12" width="40" height="16" fill="#012A87" />
    <path
        fill-rule="evenodd"
        clip-rule="evenodd"
        d="M20.4361 14.3261L20.0052 13L19.5743 14.3261H18.18L19.308 15.1456L18.8771 16.4717L20.0052 15.6521L21.1332 16.4717L20.7023 15.1456L21.8303 14.3261H20.4361ZM10.1751 17L10.606 18.3261H12.0003L10.8723 19.1455L11.3031 20.4716L10.1751 19.652L9.04705 20.4716L9.47801 19.1455L8.34998 18.3261H9.74428L10.1751 17ZM29.8251 17L30.2561 18.3261H31.6502L30.5223 19.1455L30.9531 20.4716L29.8251 19.652L28.6971 20.4716L29.128 19.1455L28 18.3261H29.3942L29.8251 17ZM15.606 24.3261L15.1751 23L14.7443 24.3261H13.35L14.478 25.1456L14.0471 26.4717L15.1751 25.6521L16.3031 26.4717L15.8723 25.1456L17.0003 24.3261H15.606ZM24.8251 23L25.2561 24.3261H26.6502L25.5223 25.1456L25.9531 26.4717L24.8251 25.6521L23.6971 26.4717L24.128 25.1456L23 24.3261H24.3942L24.8251 23Z"
        fill="#F0F0F0"
    />
</svg>
