<svg xmlns="http://www.w3.org/2000/svg" width="40" height="40" viewBox="0 0 40 40" fill="none">
    <rect width="40" height="13" fill="#338AF3" />
    <rect y="27" width="40" height="13" fill="#6DA544" />
    <rect y="13" width="40" height="14" fill="#D80027" />
    <path
        d="M21.4999 26.5C17.9101 26.5 14.9999 23.5898 14.9999 20C14.9999 16.4102 17.9101 13.5 21.4999 13.5C22.6192 13.5 23.6724 13.783 24.5919 14.2813C23.1494 12.8707 21.1768 12 18.9999 12C14.5816 12 11 15.5817 11 19.9999C11 24.4182 14.5817 27.9999 18.9999 27.9999C21.1769 27.9999 23.1495 27.1292 24.5919 25.7186C23.6724 26.217 22.6192 26.5 21.4999 26.5Z"
        fill="#F0F0F0"
    />
    <path
        d="M26.5 15.5001L27.361 17.9214L29.682 16.818L28.5786 19.139L31 20.0001L28.5786 20.8611L29.682 23.1821L27.361 22.0787L26.5 24.5001L25.6391 22.0787L23.318 23.1821L24.4215 20.8611L22 20.0001L24.4215 19.139L23.318 16.818L25.6391 17.9214L26.5 15.5001Z"
        fill="#F0F0F0"
    />
</svg>
