<svg xmlns="http://www.w3.org/2000/svg" width="40" height="40" viewBox="0 0 40 40" fill="none">
    <g clip-path="url(#clip0_28106_2508)">
        <rect x="17.7778" y="3.33334" width="22.2222" height="33.3333" fill="#8D153A" />
        <rect y="3.33334" width="7.22222" height="33.3333" fill="#6DA544" />
        <rect x="14.4445" y="3.33334" width="3.33333" height="33.3333" fill="#FFDA44" />
        <rect x="7.22217" y="3.33334" width="7.22222" height="33.3333" fill="#FF9811" />
        <rect width="40" height="3.33333" fill="#FFDA44" />
        <rect y="36.6667" width="40" height="3.33333" fill="#FFDA44" />
        <path d="M32.2018 12.1687V12.6681L32.2282 12.671L32.2018 12.1687Z" fill="#FFDA44" />
        <rect x="20" y="6.66666" width="20" height="26.6667" fill="#FFDA44" />
        <path
            d="M38.409 25.1682H34.6482L33.0571 26.9039V30.3754H29.5856V28.6397H31.3214V25.1682H23.5105V27.3378H21.7748V23.2029C21.2422 22.7262 20.907 22.0337 20.907 21.2628V9.9805C20.907 8.5426 22.0726 7.37691 23.5105 7.37691V23.4325H26.982L28.1732 22.4398C27.9651 21.9443 27.8499 21.4001 27.8499 20.8289V18.2253H25.2463V13.0182H30.4535C30.4535 12.1503 31.7553 11.2824 31.7553 11.2824C31.7553 11.2824 33.0571 12.1502 33.0571 13.0182V14.32V18.2254C34.0227 18.2369 35.5567 18.2118 37.214 18.2254C38.409 18.2253 39.0956 18.3384 39.4445 17.7781C39.4445 17.7781 39.5031 16.5087 40.5556 15.5559L40 6.66702H18.3334V34.4448H35.5556H40V30.3754H37.7778V28.6397H39.0956V25.9172L38.409 25.1682Z"
            fill="#8D153A"
        />
    </g>
    <defs>
        <clipPath id="clip0_28106_2508">
            <rect width="40" height="40" fill="white" />
        </clipPath>
    </defs>
</svg>
