<svg xmlns="http://www.w3.org/2000/svg" width="40" height="40" viewBox="0 0 40 40" fill="none">
    <rect width="40" height="40" fill="#FFDA44" />
    <rect y="4" width="40" height="32" fill="#A2001D" />
    <path
        d="M15.6521 14.7826H24.3477V11.3044L22.6086 12.1739L19.9999 9.56525L17.3912 12.1739L15.6521 11.3044V14.7826Z"
        fill="#FFDA44"
    />
    <path
        d="M27.826 20H23.4799C23.6503 19.7052 23.7494 19.364 23.7494 18.999C23.7494 17.8906 22.8509 16.9923 21.7427 16.9923C20.977 16.9923 20.312 17.4213 19.9736 18.0518C19.6353 17.4213 18.9703 16.9923 18.2046 16.9923C17.0964 16.9923 16.1978 17.8906 16.1978 18.999C16.1978 19.3641 16.2971 19.7052 16.4674 20H12.1737C12.1737 21.3299 13.3321 22.408 14.6619 22.408H14.5818C14.5818 23.4988 15.3073 24.4199 16.3021 24.7158L14.3476 26.6704L16.1922 28.515L18.8089 25.8984C18.9114 25.936 19.0174 25.966 19.127 25.9866L17.5459 29.5565C18.3035 29.8646 19.1316 30.0356 20 30.0356C20.8682 30.0356 21.6963 29.8646 22.454 29.5565L20.8729 25.9866C20.9825 25.966 21.0885 25.936 21.1909 25.8984L23.8075 28.515L25.6521 26.6704L23.6975 24.7159C24.6922 24.4199 25.4178 23.4989 25.4178 22.4081H25.3376C26.6676 22.408 27.826 21.3299 27.826 20Z"
        fill="#FFDA44"
    />
    <path
        d="M19.9999 21.3044L17.1738 22.6087V25.2174L19.9999 26.9565L22.826 25.2174V22.6087L19.9999 21.3044Z"
        fill="#6DA544"
    />
    <rect x="17.1738" y="20" width="5.65219" height="3.47828" fill="#0052B4" />
</svg>
