<svg xmlns="http://www.w3.org/2000/svg" width="40" height="40" viewBox="0 0 40 40" fill="none">
    <g clip-path="url(#clip0_28106_2510)">
        <path d="M0 40H40L40 0.00047546L1.05964e-06 -0.000335693L0 40Z" fill="#FFDA44" />
        <path d="M23.3333 40H34.4444L20 20L23.3333 40Z" fill="#D80027" />
        <path d="M16.6667 -3.05176e-05L5.55554 0.000436054L20 20L16.6667 -3.05176e-05Z" fill="#D80027" />
        <path d="M5.55554 40H16.6667L20 20L5.55554 40Z" fill="#D80027" />
        <path d="M0 5.55505L-4.23855e-06 16.6662L20 20L0 5.55505Z" fill="#D80027" />
        <path d="M0 23.3333L2.25173e-06 34.4444L20 20L0 23.3333Z" fill="#D80027" />
        <path d="M40 16.6666V5.55548L20 20L40 16.6666Z" fill="#D80027" />
        <path d="M34.4444 0.000217835L23.3333 -3.05176e-05L20 20L34.4444 0.000217835Z" fill="#D80027" />
        <path d="M40 34.4444V23.3333L20 20L40 34.4444Z" fill="#D80027" />
        <path
            d="M20 26.9567C23.8421 26.9567 26.9567 23.8421 26.9567 20C26.9567 16.1579 23.8421 13.0433 20 13.0433C16.1579 13.0433 13.0433 16.1579 13.0433 20C13.0433 23.8421 16.1579 26.9567 20 26.9567Z"
            fill="#D80027"
        />
        <path
            d="M20 25.2178C22.8817 25.2178 25.2178 22.8817 25.2178 20C25.2178 17.1183 22.8817 14.7822 20 14.7822C17.1183 14.7822 14.7822 17.1183 14.7822 20C14.7822 22.8817 17.1183 25.2178 20 25.2178Z"
            fill="#FFDA44"
        />
    </g>
    <defs>
        <clipPath id="clip0_28106_2510">
            <rect width="40" height="40" fill="white" />
        </clipPath>
    </defs>
</svg>
