<svg xmlns="http://www.w3.org/2000/svg" width="40" height="40" viewBox="0 0 40 40" fill="none">
    <rect width="40" height="11" fill="#D80027" />
    <rect y="29" width="40" height="11" fill="#D80027" />
    <rect y="11" width="40" height="18" fill="#F0F0F0" />
    <path
        d="M26.9564 20C26.9564 23.842 23.8419 26.087 19.9999 26.087C16.158 26.087 13.0435 23.842 13.0435 20C13.0435 16.158 16.158 13.0435 19.9999 13.0435C23.8419 13.0435 26.9564 16.158 26.9564 20Z"
        fill="#FFDA44"
    />
    <path
        d="M26.9564 20C26.9564 23.842 23.8419 26.9565 19.9999 26.9565C16.158 26.9565 13.0435 23.842 13.0435 20"
        fill="#0052B4"
    />
    <rect x="15.6521" y="18.2609" width="1.73914" height="3.47828" fill="#D80027" />
    <rect x="22.6086" y="18.2609" width="1.73914" height="3.47828" fill="#D80027" />
    <rect x="19.1304" y="15.6522" width="1.73914" height="6.08695" fill="#D80027" />
</svg>
