<svg xmlns="http://www.w3.org/2000/svg" width="40" height="40" viewBox="0 0 40 40" fill="none">
    <g clip-path="url(#clip0_28106_2518)">
        <path d="M40 -0.000114441V39.9999H0L40 -0.000114441Z" fill="#496E2D" />
        <path d="M0 -0.000114441H40L0 39.9999V-0.000114441Z" fill="#0052B4" />
        <path d="M0 38.3332L38.3333 -0.000114441H40V1.66655L1.66667 39.9999H0V38.3332Z" fill="#FFDA44" />
        <path
            d="M8.42665 6.95555L8.85999 8.28444H10.2555L9.12554 9.10667L9.55554 10.4333L8.42554 9.61111L7.29554 10.4333L7.72888 9.10444L6.59888 8.28222H7.99554L8.42665 6.95555Z"
            fill="#F0F0F0"
        />
        <path
            d="M15.5622 6.95555L15.9956 8.28444H17.3922L16.2622 9.10667L16.6956 10.4356L15.5656 9.61333L14.4356 10.4356L14.8689 9.10667L13.7389 8.28444H15.1356L15.5622 6.95555Z"
            fill="#F0F0F0"
        />
        <path
            d="M8.42664 13.9133L8.85998 15.2422H10.2555L9.12553 16.0644L9.55664 17.3933L8.42664 16.5711L7.29664 17.3933L7.72998 16.0644L6.59998 15.2422H7.99664L8.42664 13.9133Z"
            fill="#F0F0F0"
        />
        <path
            d="M15.5622 13.9133L15.9956 15.2422H17.3922L16.2622 16.0644L16.6956 17.3933L15.5656 16.5711L14.4356 17.3933L14.8689 16.0644L13.7389 15.2422H15.1356L15.5622 13.9133Z"
            fill="#F0F0F0"
        />
        <path
            d="M11.9944 10.4333L12.4277 11.7622H13.8244L12.6944 12.5844L13.1277 13.9133L11.9977 13.0911L10.8677 13.9133L11.3011 12.5844L10.1711 11.7622H11.5677L11.9944 10.4333Z"
            fill="#F0F0F0"
        />
    </g>
    <defs>
        <clipPath id="clip0_28106_2518">
            <rect width="40" height="40" fill="white" />
        </clipPath>
    </defs>
</svg>
