<svg xmlns="http://www.w3.org/2000/svg" width="40" height="40" viewBox="0 0 40 40" fill="none">
    <rect width="40" height="40" fill="#0052B4" />
    <path
        d="M19.95 20.0575H20.0189C20.0189 20.0345 20.0189 20.0121 20.0189 19.989C19.996 20.0119 19.9731 20.0347 19.95 20.0575Z"
        fill="#F0F0F0"
    />
    <path
        d="M22.6086 10.4924V20.0389C22.6086 24.6892 28.6956 26.1141 28.6956 26.1141C28.6956 26.1141 34.7825 24.6892 34.7825 20.0389V10.4924H22.6086Z"
        fill="#FFDA44"
    />
    <path
        d="M27.8261 13.9639C27.8261 14.9226 27.0475 17.4354 26.0869 17.4354C25.1264 17.4354 24.3478 14.9226 24.3478 13.9639C24.3478 13.0052 26.0869 12.2281 26.0869 12.2281C26.0869 12.2281 27.8261 13.0052 27.8261 13.9639Z"
        fill="#FF9811"
    />
    <path
        d="M32.441 15.8543C32.7217 15.1709 32.9399 14.1719 32.9399 13.6746C32.9399 12.8757 31.8964 12.2281 31.8964 12.2281C31.8964 12.2281 30.8529 12.8758 30.8529 13.6746C30.8529 14.1719 31.0712 15.1709 31.3518 15.8543L30.7494 17.2119C31.1035 17.3555 31.4905 17.4353 31.8963 17.4353C32.3022 17.4353 32.6892 17.3555 33.0433 17.2119L32.441 15.8543Z"
        fill="#A2001D"
    />
    <path
        d="M27.3914 20.039C27.3914 20.039 26.5219 21.7747 26.5219 23.5105C26.5219 23.5105 29.1305 23.5105 30.8697 23.5105C30.8696 21.7747 30.0001 20.039 30.0001 20.039L28.6957 19.1711L27.3914 20.039Z"
        fill="#6DA544"
    />
    <path
        d="M30 20.039V19.6051C30 18.8861 29.416 18.3032 28.6956 18.3032C27.9753 18.3032 27.3912 18.8861 27.3912 19.6051V20.039H30Z"
        fill="#D80027"
    />
    <path fill-rule="evenodd" clip-rule="evenodd" d="M0 0H8H16H20V3V8L13 8L20 15V20H17L10 13V20H0V0Z" fill="#F0F0F0" />
    <path
        fill-rule="evenodd"
        clip-rule="evenodd"
        d="M8 0H3V3H0V8H3V20H8V8H20V3H8V0ZM20 16.5845L12.8943 9.49268C12.8943 9.49268 10.4348 9.49283 10.4348 9.49268V9.49283L19.9999 19.0392H20V16.5845Z"
        fill="#D80027"
    />
</svg>
