<svg xmlns="http://www.w3.org/2000/svg" width="40" height="40" viewBox="0 0 40 40" fill="none">
    <rect width="40" height="40" fill="#496E2D" />
    <path
        d="M29.2516 15.0858C30.2356 12.3432 29.1301 9.3603 26.7577 7.87468C27.1844 7.93022 27.6116 8.03069 28.0332 8.18187C31.1975 9.31718 32.8423 12.8025 31.707 15.9667C30.5717 19.1312 27.0864 20.7758 23.9221 19.6405C23.5004 19.4893 23.1068 19.2951 22.7422 19.0668C25.5179 19.4283 28.2676 17.8285 29.2516 15.0858Z"
        fill="#F0F0F0"
    />
    <path
        d="M23.794 7.12288L22.9389 8.22772L21.6242 7.75593L22.4106 8.91046L21.5556 10.0151L22.8967 9.62405L23.6832 10.7784L23.7254 9.38218L25.0665 8.99101L23.7517 8.51937L23.794 7.12288Z"
        fill="#F0F0F0"
    />
    <path
        d="M26.1028 10.7228L25.2477 11.8276L23.9329 11.3558L24.7194 12.5103L23.8644 13.615L25.2054 13.2237L25.9919 14.3783L26.0343 12.982L27.3753 12.5908L26.0604 12.119L26.1028 10.7228Z"
        fill="#F0F0F0"
    />
    <path
        d="M19.7234 8.43397L18.8684 9.53866L17.5536 9.06702L18.3401 10.2215L17.4851 11.3262L18.826 10.9351L19.6126 12.0895L19.6549 10.6933L20.9959 10.3021L19.6812 9.8303L19.7234 8.43397Z"
        fill="#F0F0F0"
    />
    <path
        d="M19.6297 12.5576L18.7747 13.6623L17.4598 13.1906L18.2464 14.3451L17.3912 15.4498L18.7324 15.0587L19.5189 16.2131L19.5611 14.8169L20.9022 14.4257L19.5873 13.9539L19.6297 12.5576Z"
        fill="#F0F0F0"
    />
    <path
        d="M23.5536 13.9655L22.6985 15.0701L21.3838 14.5984L22.1703 15.753L21.3152 16.8576L22.6563 16.4665L23.4428 17.621L23.4851 16.2246L24.8262 15.8335L23.5113 15.3618L23.5536 13.9655Z"
        fill="#F0F0F0"
    />
    <path d="M5.2174 4.9591e-05V40H15.6522V4.9591e-05H5.2174Z" fill="#D80027" />
    <path
        d="M9.19946 10.5301L7.45251 9.22866V7.38827L9.19946 6.08695H11.6702L13.4171 7.38827V9.22866L11.6702 10.5301H9.19946Z"
        fill="#F0F0F0"
    />
    <path d="M10.4348 6.08695H9.19946L7.45251 7.38827V8.28804H10.4348V6.08695Z" fill="#FF9811" />
    <path d="M10.4348 10.5301H11.6701L13.4171 9.22866V8.28984H10.4348V10.5301Z" fill="#FF9811" />
    <path
        d="M9.19946 33.9129L7.45251 32.6114V30.7711L9.19946 29.4697H11.6702L13.4171 30.7711V32.6114L11.6702 33.9129H9.19946Z"
        fill="#F0F0F0"
    />
    <path d="M10.4348 29.4697H9.19946L7.45251 30.7711V31.6709H10.4348V29.4697Z" fill="#FF9811" />
    <path d="M10.4348 33.9128H11.6701L13.4171 32.6114V31.6727H10.4348V33.9128Z" fill="#FF9811" />
    <path
        d="M9.19934 22.2215L7.45238 20.9201V19.0797L9.19934 17.7783H11.67L13.417 19.0797V20.9201L11.67 22.2215H9.19934Z"
        fill="#496E2D"
    />
    <path
        d="M13.4782 25.0847H12.7173V24.3239H11.3802L10.4347 23.3784L9.48932 24.3239H8.15221V25.0847H7.39135V26.6064H8.15221V27.3673H9.48924L10.4348 28.3129L11.3802 27.3673H12.7173V26.6064H13.4782V25.0847Z"
        fill="#496E2D"
    />
    <path
        d="M13.4782 13.3933H12.7173V12.6323H11.3802L10.4347 11.6869L9.48932 12.6323H8.15221V13.3933H7.39135V14.915H8.15221V15.6758H9.48924L10.4348 16.6215L11.3802 15.6758H12.7173V14.915H13.4782V13.3933Z"
        fill="#496E2D"
    />
    <rect x="9.56517" y="19.1303" width="1.73914" height="1.73914" fill="#D80027" />
    <path
        d="M10.4347 15.0233C10.9149 15.0233 11.3042 14.634 11.3042 14.1538C11.3042 13.6736 10.9149 13.2843 10.4347 13.2843C9.95448 13.2843 9.56517 13.6736 9.56517 14.1538C9.56517 14.634 9.95448 15.0233 10.4347 15.0233Z"
        fill="#D80027"
    />
    <path
        d="M10.4347 26.7154C10.9149 26.7154 11.3042 26.3261 11.3042 25.8459C11.3042 25.3657 10.9149 24.9764 10.4347 24.9764C9.95448 24.9764 9.56517 25.3657 9.56517 25.8459C9.56517 26.3261 9.95448 26.7154 10.4347 26.7154Z"
        fill="#D80027"
    />
</svg>
