<svg xmlns="http://www.w3.org/2000/svg" width="40" height="40" viewBox="0 0 40 40" fill="none">
    <rect width="40" height="40" fill="#0052B4" />
    <path
        d="M19.95 20.0575H20.0189C20.0189 20.0345 20.0189 20.0121 20.0189 19.989C19.996 20.0119 19.9731 20.0347 19.95 20.0575Z"
        fill="#F0F0F0"
    />
    <path
        d="M28.6956 20.0389L23.2899 25.4341C24.303 27.3843 26.3427 28.7176 28.6956 28.7176C31.0485 28.7176 33.0882 27.3843 34.1013 25.4341L28.6956 20.0389Z"
        fill="#FFDA44"
    />
    <path
        d="M22.6086 10.4924V20.0389V20.039C22.6087 24.6892 28.6956 26.1141 28.6956 26.1141C28.6956 26.1141 34.7825 24.6892 34.7825 20.039V20.0389V10.4924H22.6086Z"
        fill="#6DA544"
    />
    <rect x="27.3914" y="14.8318" width="2.60867" height="6.94292" fill="#F0F0F0" />
    <path
        d="M28.6956 16.1336C29.416 16.1336 30 15.5507 30 14.8317C30 14.1128 29.416 13.5299 28.6956 13.5299C27.9752 13.5299 27.3912 14.1128 27.3912 14.8317C27.3912 15.5507 27.9752 16.1336 28.6956 16.1336Z"
        fill="#A2001D"
    />
    <rect x="24.3478" y="12.2281" width="1.73914" height="1.73575" fill="#FFDA44" />
    <rect x="24.3478" y="16.1335" width="1.73914" height="1.73575" fill="#FFDA44" />
    <rect x="24.3478" y="20.0389" width="1.73914" height="1.73575" fill="#FFDA44" />
    <rect x="31.3044" y="12.2281" width="1.73914" height="1.73575" fill="#FFDA44" />
    <rect x="31.3044" y="16.1335" width="1.73914" height="1.73575" fill="#FFDA44" />
    <rect x="31.3044" y="20.0389" width="1.73914" height="1.73575" fill="#FFDA44" />
    <path fill-rule="evenodd" clip-rule="evenodd" d="M0 0H8H16H20V3V8L13 8L20 15V20H17L10 13V20H0V0Z" fill="#F0F0F0" />
    <path
        fill-rule="evenodd"
        clip-rule="evenodd"
        d="M8 0H3V3H0V8H3V20H8V8H20V3H8V0ZM20 16.5845L12.8943 9.49268C12.8943 9.49268 10.4348 9.49283 10.4348 9.49268V9.49283L19.9999 19.0392H20V16.5845Z"
        fill="#D80027"
    />
</svg>
